<svg width="200" height="200" viewBox="0 0 200 200" fill="none" xmlns="http://www.w3.org/2000/svg">
<path d="M7.81258 0.976562C6.99227 1.875 6.91415 2.14844 7.14852 5.07812C7.92977 15.0391 14.5704 23.75 23.9454 27.1875C27.6563 28.5156 31.5626 28.9062 41.0157 28.9062H49.5704L49.6876 37.3828C49.8048 45.1172 49.8829 46.0547 50.6251 47.6953C51.836 50.3125 54.0235 52.5391 56.5626 53.7891C58.7501 54.8438 58.9454 54.8828 66.7188 55L74.6095 55.1172V89.4141V123.711L75.4688 124.844C75.9376 125.469 81.2501 131.641 87.2266 138.555C94.3751 146.875 98.3985 151.25 99.0235 151.406C99.5704 151.523 100.43 151.523 100.938 151.406C101.68 151.211 116.797 134.219 124.336 125.078L125.391 123.75V102.578C125.391 81.7188 125.391 81.3281 124.57 80.3125C123.516 78.9453 121.211 78.9062 120 80.1953C119.141 81.0938 119.141 81.0938 119.141 101.211V121.289L109.688 132.227C104.492 138.242 100.117 143.164 99.961 143.164C99.8048 143.164 95.4298 138.242 90.2735 132.266L80.8595 121.367V88.2031V55.0781H100H119.141V63.3203C119.141 67.9297 119.297 71.8359 119.531 72.2656C120.078 73.2812 122.07 73.9062 123.32 73.3984C125.274 72.6562 125.352 72.2656 125.391 63.3984V55.1172L133.32 55C141.055 54.8828 141.25 54.8438 143.438 53.7891C145.977 52.5391 148.164 50.3125 149.375 47.6953C150.117 46.0547 150.195 45.0781 150.313 37.4609L150.469 28.9844L160.859 28.7891C168.906 28.6719 171.836 28.4766 173.633 27.9688C184.297 25.0391 191.914 15.9375 192.813 5.15625C193.047 2.46094 192.969 2.03125 192.188 1.05469L191.367 0H100.039H8.71102L7.81258 0.976562ZM186.094 7.30469C185.625 9.49219 183.281 13.9062 181.602 15.7812C179.414 18.2812 175.899 20.5078 172.734 21.4844C170.274 22.2656 168.945 22.2656 100.039 22.2656C23.1251 22.2656 28.3595 22.4219 23.672 20.0391C21.3282 18.8281 18.0079 15.7812 16.4063 13.3203C15.3907 11.6797 13.672 7.5 13.672 6.5625C13.672 6.40625 52.5391 6.25 100 6.25H186.328L186.094 7.30469ZM144.063 36.6016C143.945 43.8672 143.906 44.4141 143.047 45.7812C142.539 46.6016 141.484 47.5391 140.469 48.0078C138.828 48.8281 138.477 48.8281 99.961 48.8281H61.0938L59.3751 47.9297C58.086 47.3047 57.3829 46.6016 56.7579 45.3125C55.9376 43.7109 55.8595 43.0859 55.8595 36.25V28.9062H100.039H144.219L144.063 36.6016Z" fill="#5A5A79"/>
<path d="M26.9533 90.2344C25.9377 91.25 25.8986 93.7891 26.8752 94.6094C28.3986 96.0156 46.6798 105.859 47.6955 105.859C50.0783 105.859 51.6408 102.656 50.1173 100.898C49.7267 100.43 45.1564 97.6563 39.922 94.7266C29.8048 89.1016 28.5158 88.6719 26.9533 90.2344Z" fill="#5A5A79"/>
<path d="M159.961 94.7266C154.805 97.6172 150.274 100.352 149.922 100.82C148.36 102.695 149.805 105.859 152.227 105.859C153.438 105.859 172.031 95.7422 173.164 94.4531C174.063 93.3984 174.024 91.2109 173.047 90.2344C171.406 88.5938 170.039 89.1016 159.961 94.7266Z" fill="#5A5A79"/>
<path d="M16.4453 96.7188C15.3906 98.0469 15.3906 99.3359 16.5235 100.547C17.8516 102.109 58.3985 124.609 59.8047 124.609C62.2656 124.609 63.7891 121.445 62.2266 119.609C61.836 119.141 52.2266 113.594 40.8594 107.266C18.3594 94.6875 18.125 94.5703 16.4453 96.7188Z" fill="#5A5A79"/>
<path d="M159.375 107.07C148.32 113.281 138.789 118.711 138.203 119.141C135.977 120.781 137.266 124.609 140.078 124.609C140.859 124.609 147.773 120.977 161.914 113.047C173.32 106.68 182.93 101.211 183.32 100.859C184.258 100.039 184.219 97.2266 183.281 96.3672C181.484 94.7266 180.664 95.1172 159.375 107.07Z" fill="#5A5A79"/>
<path d="M13.5548 110.312C13.2032 110.586 10.586 114.922 7.81258 119.883C2.42195 129.453 1.83601 131.172 3.43758 132.5C4.02351 133.008 26.797 145.781 30.0001 147.422C32.422 148.672 34.7657 147.344 34.7657 144.727C34.7657 144.062 34.5313 143.203 34.297 142.852C34.0235 142.5 28.5157 139.297 22.0704 135.703C15.6251 132.109 10.3126 129.141 10.2345 129.062C10.1563 129.023 11.5626 126.367 13.3595 123.164L16.6016 117.305L57.6173 140.273C88.5157 157.578 98.9454 163.281 99.922 163.281C100.938 163.281 110.664 158.008 142.07 140.43C164.531 127.852 183.047 117.578 183.203 117.578C183.477 117.578 189.961 128.945 189.766 129.102C189.688 129.141 169.492 140.43 144.805 154.219L99.961 179.297L71.5626 163.398C41.3673 146.484 41.3673 146.484 39.8048 148.398C38.9454 149.453 38.8282 151.484 39.5704 152.461C39.8048 152.852 42.3438 154.414 45.1173 155.977L50.1954 158.828L50.3907 178.867C50.586 198.125 50.6251 198.906 51.3282 199.453C51.9923 199.922 59.2579 200 100.078 200H148.008L148.828 199.141C149.609 198.32 149.609 197.852 149.609 178.555L149.649 158.789L173.086 145.703C185.977 138.516 196.719 132.344 196.914 131.992C197.109 131.602 197.266 130.82 197.266 130.234C197.266 128.906 188.242 112.422 186.68 110.82C184.727 108.867 190.977 105.664 130.742 139.375L99.961 156.602L59.4532 133.906C37.1876 121.445 18.2813 110.898 17.5001 110.508C15.8204 109.648 14.5313 109.57 13.5548 110.312ZM78.047 174.414C92.9688 182.734 99.2188 186.055 100.039 186.016C100.781 186.016 108.32 182.031 121.406 174.688C132.5 168.477 141.992 163.203 142.5 162.93L143.359 162.461V178.125V193.75H100H56.6407V178.086C56.6407 169.492 56.7579 162.539 56.9532 162.617C57.1095 162.695 66.6016 168.008 78.047 174.414Z" fill="#5A5A79"/>
</svg>
