<svg width="200" height="200" viewBox="0 0 200 200" fill="none" xmlns="http://www.w3.org/2000/svg">
<g clip-path="url(#clip0_17_1032)">
<path d="M1.01561 7.85156C0.234364 8.47656 -1.07586e-05 8.98438 -1.07586e-05 10.1172C-1.07586e-05 13.0078 0.156239 13.0469 8.86718 13.2812L16.6016 13.4766L16.7187 32.1094L16.7969 50.7812H9.41405C2.57811 50.7812 1.99218 50.8203 1.01561 51.6016C-0.273448 52.6172 -0.429698 55.0391 0.781239 56.25C1.52343 56.9922 2.0703 57.0312 9.84374 57.0312C17.8516 57.0312 18.125 56.9922 19.6875 56.0938C22.2656 54.5703 23.0469 52.7734 23.0469 48.2812V44.5312H27.2656C30.3515 44.5312 31.6797 44.375 32.3047 43.9453C34.0234 42.7344 33.75 39.6094 31.7969 38.7109C31.25 38.4766 29.0625 38.2812 26.9531 38.2812H23.0469V32.0312V25.7812H46.6797H70.3125V32.0312V38.2812H56.6797C43.5156 38.2812 43.0469 38.3203 42.0312 39.1016C40.664 40.1562 40.625 42.4609 41.914 43.6719C42.8125 44.5312 43.0078 44.5312 56.5625 44.5312H70.3125V47.8125C70.3125 51.0547 70.3125 51.0938 69.1406 51.5625C67.7344 52.1484 65.7422 54.3359 65.3906 55.625C65.2734 56.1328 65.2344 59.2188 65.3125 62.5391C65.4297 68.125 65.5078 68.6328 66.3281 69.8438C67.3047 71.2109 69.7656 72.6562 71.0937 72.6562C71.875 72.6562 71.875 72.8516 71.875 82.3438C71.875 89.8438 71.9922 92.5 72.4609 94.0234C73.2422 96.6406 75.8984 99.6094 78.5156 100.742L80.4687 101.602V107.344C80.4687 116.172 81.7969 119.336 86.6015 121.68L88.9453 122.852L89.1015 127.148L89.2578 131.445L91.9531 136.133C93.4375 138.711 95.1562 141.367 95.7812 141.992L96.875 143.203V155.078L96.8359 166.992L93.2422 158.594C90.4297 152.07 89.414 150.078 88.6719 149.727C87.9297 149.336 83.5156 149.219 70.8203 149.219H53.9453L52.8515 150.156L51.7578 151.094L51.6406 159.531L51.5234 167.969H26.6015C2.10936 167.969 1.67968 167.969 0.859364 168.75C-0.429698 169.961 -0.312511 172.344 1.01561 173.398L2.0703 174.219H62.539C106.914 174.219 123.281 174.102 123.984 173.789C125.391 173.125 125.898 171.367 125.195 169.688C124.883 168.945 124.609 168.32 124.531 168.281C124.453 168.242 121.133 168.125 117.148 168.008L109.922 167.773L112.461 161.641L115 155.469H128.594H142.187V161.719V167.969H138.555C135.234 167.969 134.805 168.047 134.062 168.867C132.812 170.195 132.891 172.344 134.219 173.398C135.273 174.219 135.469 174.219 166.602 174.219C197.734 174.219 197.93 174.219 198.984 173.398C200.312 172.344 200.43 169.961 199.141 168.75C198.32 167.969 197.891 167.969 173.398 167.969H148.477L148.359 159.531L148.242 151.094L147.148 150.156L146.055 149.219H129.18C116.484 149.219 112.07 149.336 111.328 149.727C110.586 150.078 109.57 152.07 106.758 158.594L103.164 166.992L103.125 155.078V143.203L104.219 141.992C104.844 141.367 106.562 138.711 108.047 136.133L110.742 131.445L110.859 127.148L111.016 122.852L113.398 121.68C114.961 120.898 116.211 119.922 117.07 118.828C119.062 116.211 119.531 113.984 119.531 107.344V101.602L121.484 100.742C122.539 100.273 124.141 99.1406 125.039 98.1641C127.852 95.1172 127.891 94.8438 128.047 83.0859C128.164 73.0078 128.203 72.6562 128.945 72.6562C130.234 72.6562 132.695 71.1719 133.672 69.8438C134.492 68.6328 134.57 68.125 134.687 62.5391C134.766 59.2188 134.727 56.1328 134.609 55.625C134.258 54.3359 132.266 52.1484 130.859 51.5625C129.687 51.0938 129.687 51.0547 129.687 47.8125V44.5312H153.32H176.953V48.3203C176.953 51.6016 177.07 52.3047 177.891 53.6719C178.398 54.5703 179.531 55.6641 180.391 56.1719C181.875 56.9922 182.383 57.0312 190.195 57.0312C197.93 57.0312 198.477 56.9922 199.219 56.25C200.43 55.0391 200.273 52.6172 198.984 51.6016C198.008 50.8203 197.422 50.7812 190.586 50.7812H183.203L183.281 32.1094L183.398 13.4766L191.133 13.2812C199.844 13.0469 200 13.0078 200 10.1172C200 8.98438 199.766 8.47656 198.984 7.85156C198.008 7.07031 197.461 7.03125 190.273 7.03125C183.672 7.03125 182.422 7.14844 181.055 7.77344C177.852 9.25781 176.953 11.0156 176.953 16.0547V19.5312H153.359H129.805L129.609 17.0703C129.375 14.1016 128.32 11.9531 126.172 10C122.969 7.10938 124.18 7.22656 100 7.22656C75.8203 7.22656 77.0703 7.10938 73.8281 10.0391C71.6406 11.9531 70.3125 14.8047 70.3125 17.4609V19.5312H46.6797H23.0469V16.0547C23.0469 11.0156 22.1484 9.25781 18.9453 7.77344C17.5781 7.14844 16.3281 7.03125 9.72655 7.03125C2.53905 7.03125 1.99218 7.07031 1.01561 7.85156ZM87.5 32.0312V50.7812H82.0312H76.5625V33.6719C76.5625 14.8047 76.4453 15.625 79.0625 14.0234C80.039 13.4375 81.0156 13.2812 83.9062 13.2812H87.5V32.0312ZM106.25 19.6875C106.25 23.2031 106.367 26.4062 106.484 26.7578C106.875 27.7344 108.906 28.5938 110.195 28.3203C112.266 27.8516 112.5 27.0703 112.5 19.8438V13.2812H116.016C119.883 13.2812 121.25 13.75 122.617 15.4688C123.437 16.4844 123.437 16.875 123.437 33.6328V50.7812H117.969H112.5V44.375C112.5 38.5156 112.422 37.9297 111.68 36.9531C110.547 35.5078 108.203 35.5078 107.07 36.9531C106.328 37.9297 106.25 38.5156 106.25 44.375V50.7812H100H93.75V32.0312V13.2812H100H106.25V19.6875ZM176.953 32.0312V38.2812H153.32H129.687V32.0312V25.7812H153.32H176.953V32.0312ZM128.437 61.7969L128.555 66.4062H100H71.4844V61.9922C71.4844 59.5312 71.6015 57.4219 71.7578 57.3047C71.875 57.1484 84.6875 57.0703 100.156 57.1094L128.32 57.2266L128.437 61.7969ZM121.875 82.0312C121.875 92.2266 121.758 92.8516 119.687 94.4922C118.711 95.2734 118.164 95.3125 111.523 95.3125C107.344 95.3125 103.906 95.5078 103.164 95.7422C101.055 96.4844 100.508 98.6719 101.992 100.547C102.773 101.562 102.852 101.562 108.047 101.562H113.281V107.109C113.281 113.516 112.852 114.961 110.547 116.094C109.375 116.719 107.969 116.797 100 116.797C92.0312 116.797 90.625 116.719 89.4531 116.094C87.1484 114.961 86.7187 113.516 86.7187 107.109V101.562H89.414C91.875 101.562 92.1875 101.484 92.9297 100.547C94.375 98.7109 93.789 96.5234 91.6406 95.7031C91.0547 95.5078 88.5156 95.3125 85.9765 95.3125C81.875 95.3125 81.25 95.2344 80.3125 94.4922C78.2422 92.8516 78.125 92.2266 78.125 82.0312V72.6562H100H121.875V82.0312ZM104.687 126.055C104.687 129.062 104.648 129.18 102.383 133.164L100.078 137.227L99.1406 135.703C95.7812 130.352 95.3125 129.141 95.3125 126.055V123.047H100H104.687V126.055ZM85.8594 157.5C86.289 158.633 87.4609 161.445 88.4375 163.75L90.1953 167.969H74.0234H57.8125V161.719V155.469H71.4453H85.039L85.8594 157.5Z" fill="#5A5A79"/>
<path d="M64.4531 102.344C64.0234 102.773 63.6719 103.633 63.6719 104.258C63.6719 105.781 67.0312 113.672 68.0469 114.531C69.8047 116.055 73.0469 114.609 73.0469 112.305C73.0469 111.094 69.8438 103.32 68.9062 102.305C67.9688 101.289 65.4688 101.328 64.4531 102.344Z" fill="#5A5A79"/>
<path d="M131.133 102.266C130.234 103.281 126.953 111.094 126.953 112.305C126.953 114.609 130.195 116.094 131.953 114.531C132.969 113.672 136.328 105.781 136.328 104.258C136.328 103.633 135.977 102.773 135.547 102.344C134.531 101.328 132.031 101.289 131.133 102.266Z" fill="#5A5A79"/>
<path d="M72.0703 120.117C71.5234 120.625 71.0938 121.445 71.0938 121.953C71.0938 123.281 74.5703 131.328 75.4688 132.109C76.5234 133.047 78.7109 133.008 79.6875 132.031C80.1562 131.563 80.4688 130.742 80.4688 129.922C80.4688 128.555 77.3438 121.016 76.2891 119.844C75.3516 118.789 73.2031 118.945 72.0703 120.117Z" fill="#5A5A79"/>
<path d="M123.711 119.844C122.656 121.016 119.531 128.555 119.531 129.922C119.531 130.742 119.844 131.563 120.312 132.031C121.289 133.008 123.438 133.047 124.531 132.109C125.469 131.328 128.906 123.32 128.906 121.953C128.906 119.727 125.195 118.203 123.711 119.844Z" fill="#5A5A79"/>
<path d="M41.0156 137.891C39.9219 138.984 39.961 141.406 41.0547 142.422C41.7969 143.086 42.5 143.164 47.3438 143.164H52.8125L53.75 142.07C54.8828 140.742 54.961 139.492 53.8672 138.125C53.086 137.109 53.0469 137.109 47.4219 137.109C42.3047 137.109 41.7188 137.188 41.0156 137.891Z" fill="#5A5A79"/>
<path d="M60.1563 137.891C59.1407 138.906 59.1407 141.016 60.1173 142.227C60.8594 143.125 61.0548 143.164 66.4063 143.164H71.9532L72.8907 142.07C74.0235 140.742 74.1016 139.492 73.0079 138.125C72.2266 137.109 72.1876 137.109 66.5626 137.109C61.4454 137.109 60.8594 137.188 60.1563 137.891Z" fill="#5A5A79"/>
<path d="M79.6875 137.891C78.6328 138.945 78.6328 141.406 79.6875 142.383C80.1562 142.812 81.0938 143.125 81.8359 143.125C83.75 143.125 84.7656 142.07 84.7656 140C84.7656 138.711 84.5703 138.203 83.9062 137.734C82.6953 136.875 80.625 136.953 79.6875 137.891Z" fill="#5A5A79"/>
<path d="M116.094 137.734C115.43 138.203 115.234 138.711 115.234 140C115.234 142.07 116.25 143.125 118.164 143.125C118.906 143.125 119.844 142.812 120.312 142.383C121.367 141.406 121.367 138.945 120.312 137.891C119.375 136.953 117.305 136.875 116.094 137.734Z" fill="#5A5A79"/>
<path d="M126.992 138.125C125.898 139.492 125.976 140.742 127.109 142.07C128.008 143.125 128.203 143.164 132.226 143.281C137.109 143.438 138.828 143.203 139.883 142.148C140.898 141.133 140.859 138.906 139.844 137.891C139.141 137.188 138.555 137.109 133.437 137.109C127.812 137.109 127.773 137.109 126.992 138.125Z" fill="#5A5A79"/>
<path d="M146.133 138.125C145.039 139.492 145.117 140.742 146.25 142.07L147.187 143.164H152.656C157.5 143.164 158.203 143.086 158.945 142.422C160.039 141.406 160.078 138.984 158.984 137.891C158.281 137.188 157.695 137.109 152.578 137.109C146.953 137.109 146.914 137.109 146.133 138.125Z" fill="#5A5A79"/>
<path d="M0.781343 187.5C-0.429595 188.711 -0.273345 191.133 1.01572 192.148L2.07041 192.969H100H197.93L198.984 192.148C200.273 191.133 200.43 188.711 199.219 187.5C198.438 186.719 197.93 186.719 100 186.719C2.07041 186.719 1.56259 186.719 0.781343 187.5Z" fill="#5A5A79"/>
</g>
<defs>
<clipPath id="clip0_17_1032">
<rect width="200" height="200" fill="white"/>
</clipPath>
</defs>
</svg>
