<svg width="200" height="200" viewBox="0 0 200 200" fill="none" xmlns="http://www.w3.org/2000/svg">
<g clip-path="url(#clip0_17_1054)">
<path d="M91.7969 0.85936C91.1328 1.56248 91.0156 2.22655 91.0156 4.76561V7.81248H60.4297C30.0391 7.81248 29.8047 7.81248 29.1016 8.59373C28.1641 9.64842 28.1641 11.8359 29.1016 12.8906C29.8047 13.6719 30.0391 13.6719 60.4297 13.6719H91.0156V16.6015V19.5312H48.6328H6.24999V16.6015V13.6719H12.6953C18.6328 13.6719 19.2187 13.5937 19.9219 12.8906C20.3906 12.4219 20.7031 11.6015 20.7031 10.7422C20.7031 9.8828 20.3906 9.06248 19.9219 8.59373C19.1797 7.85155 18.6328 7.81248 10.3516 7.81248C2.0703 7.81248 1.52343 7.85155 0.781243 8.59373C0.0390551 9.33592 -7.39377e-06 9.8828 -7.39377e-06 16.6015C-7.39377e-06 23.789 -7.40588e-06 23.8672 0.976555 24.8047C1.83593 25.7031 2.22655 25.7812 5.42968 25.7812H8.90624L9.06249 30.8984C9.17968 35.7031 9.21874 36.0547 10.1172 36.7578C10.9766 37.4609 11.9531 37.5 33.4375 37.5H55.8594V47.2656V57.0703L56.8359 58.0078L57.7734 58.9844H66.5625H75.3516L75.4687 75.7812C75.5859 91.25 75.625 92.6172 76.2891 93.2422C76.7969 93.7891 77.8125 93.9844 80.5469 94.1406L84.1406 94.3359L86.0156 100.586C87.0312 104.023 88.2422 108.047 88.7109 109.492C89.8437 113.242 90.3516 113.672 93.9453 113.672H96.875V143.437C96.875 168.242 96.7969 173.086 96.3672 172.461C96.0937 172.031 93.3984 167.383 90.4297 162.109C83.6328 150.078 83.5937 150 81.6016 150C79.6875 150 78.5156 151.055 78.5156 152.852C78.5156 153.75 80.5859 157.656 85.8984 166.992C89.9609 174.062 93.2031 179.922 93.1641 180C93.0859 180.078 83.2422 177.461 71.2109 174.258C59.1797 171.016 48.8672 168.359 48.2812 168.359C47.0312 168.359 45.3125 169.922 45.3125 171.055C45.3125 172.305 46.0937 173.711 47.0312 174.102C47.4609 174.336 54.0234 176.133 61.5234 178.164L75.1953 181.836L40.8203 182.031C15.5859 182.187 6.17187 182.344 5.42968 182.695C3.78905 183.398 1.60156 185.547 0.74218 187.148C-0.19532 188.984 -0.273445 192.773 0.624993 194.844C1.40624 196.758 2.96874 198.359 4.88281 199.258C6.36718 199.961 9.17968 200 78.1641 200H149.883L150.703 199.102C151.68 198.047 151.797 196.25 150.938 195.117C150.352 194.336 149.766 194.336 79.1406 194.141C9.76562 193.945 7.89062 193.906 7.0703 193.203C5.85937 192.109 5.97655 190.117 7.26562 189.102L8.3203 188.281H100.078H191.836L192.773 189.258C194.414 190.859 193.906 192.969 191.758 193.711C190.938 193.984 185.469 194.141 175.547 194.141H160.586L159.805 195.156C158.75 196.484 158.75 197.656 159.805 198.984L160.625 200.039L177.5 199.922L194.375 199.805L196.016 198.711C198.438 197.109 199.648 195.039 199.883 192.07C200.234 187.93 198.672 184.961 195.156 183.086L193.555 182.227L158.984 182.109L124.414 181.992L138.633 178.125C148.828 175.352 153.086 174.062 153.633 173.477C155.469 171.641 154.141 168.359 151.602 168.359C151.016 168.359 140.742 171.016 128.75 174.258C116.758 177.461 106.875 180.078 106.797 180C106.758 179.922 110 174.023 114.062 166.875C118.164 159.727 121.484 153.477 121.484 152.969C121.484 152.461 121.133 151.602 120.664 151.016C119.648 149.687 117.305 149.57 116.172 150.82C115.781 151.25 112.656 156.484 109.297 162.422L103.125 173.242V143.437V113.672H106.016C110 113.672 110.234 113.437 112.148 107.031C113.008 104.141 114.258 100.039 114.883 97.9297L116.055 94.1406H119.531C125 94.1406 124.609 95.5469 124.609 75.5469V58.9844H133.555H142.539L143.32 57.9687C144.102 56.9922 144.141 56.4453 144.141 47.2265V37.5H166.602H189.102L190.039 36.5234C190.977 35.625 191.016 35.3515 191.016 30.664V25.7812H194.492C197.383 25.7812 198.086 25.664 198.984 24.9609L200 24.1797V16.6406C200 9.84373 199.922 9.02342 199.297 8.47655C198.633 7.85155 194.922 7.81248 153.789 7.81248H108.984V4.68748C108.984 -0.0781403 109.141 -1.52588e-05 100 -1.52588e-05C92.8906 -1.52588e-05 92.5781 0.0390472 91.7969 0.85936ZM102.734 18.5547V31.25H100H97.2656V18.5547V5.85936H100H102.734V18.5547ZM194.141 16.6015V19.5312H180.273H166.367L165.43 20.5078C164.414 21.4844 164.297 22.1484 164.688 23.75C165.195 25.5469 166.445 25.7812 175.977 25.7812H184.766V28.5156V31.25H146.875H108.984V28.5156V25.7812L132.266 25.7031L155.547 25.5859L156.289 24.6484C157.266 23.4765 157.227 21.8359 156.211 20.5469L155.43 19.5312H132.188H108.984V16.6015V13.6719H151.562H194.141V16.6015ZM91.0156 28.5156V31.25H53.125H15.2344V28.5156V25.7812H53.125H91.0156V28.5156ZM137.891 45.1172V52.7344H100H62.1094V45.1172V37.5H100H137.891V45.1172ZM118.359 73.4375V87.8906H100H81.6406V73.4375V58.9844H100H118.359V73.4375ZM109.219 94.8047C109.102 95.1953 108.672 96.6406 108.242 98.0469C107.812 99.4531 107.031 102.109 106.445 103.984L105.43 107.422H100.039H94.6484L93.2031 102.617C92.4219 100 91.5234 97.0312 91.2109 95.9766L90.6641 94.1406H100.039C108.789 94.1406 109.414 94.1797 109.219 94.8047Z" fill="#5A5A79"/>
<path d="M88.789 70.7031C87.0312 71.4062 86.6015 73.8281 87.9296 75.5469L88.7109 76.5625H99.7656C108.828 76.5625 110.898 76.4453 111.602 75.9766C113.32 74.7656 113.047 71.6406 111.094 70.7422C109.922 70.2344 90.1171 70.1953 88.789 70.7031Z" fill="#5A5A79"/>
<path d="M41.2108 142.187C40.1171 143.359 40.2343 145.508 41.4452 146.641C43.0468 148.203 69.6483 167.305 70.8202 167.734C72.1874 168.242 73.789 167.461 74.5702 165.859C74.9999 164.922 74.9999 164.57 74.5702 163.633C74.2186 162.891 69.2186 159.062 59.414 151.953C46.5624 142.656 44.6483 141.406 43.3593 141.406C42.3827 141.406 41.6796 141.68 41.2108 142.187Z" fill="#5A5A79"/>
<path d="M140.469 151.953C132.578 157.695 125.82 162.695 125.469 163.047C124.609 163.867 124.688 166.172 125.586 167.188C126.484 168.164 128.75 168.242 130.078 167.305C135.234 163.75 158.164 147.031 158.711 146.406C159.063 145.977 159.375 145.039 159.375 144.297C159.375 142.5 158.242 141.406 156.367 141.445C155.078 141.445 153.086 142.774 140.469 151.953Z" fill="#5A5A79"/>
<path d="M26.9532 164.062C26.0938 164.922 25.9375 166.758 26.5625 167.969C26.9532 168.711 28.711 169.375 33.6719 170.664C37.1485 171.562 38.6719 171.289 39.4141 169.687C40.625 166.992 39.336 165.625 34.336 164.297C29.7266 163.047 28.0078 163.008 26.9532 164.062Z" fill="#5A5A79"/>
<path d="M165.117 164.414C161.094 165.586 160.195 166.25 160.156 168.047C160.156 169.609 160.508 170.273 161.758 170.938C162.812 171.484 163.242 171.445 167.5 170.313C171.016 169.414 172.266 168.906 172.969 168.125C174.062 166.914 174.062 165.625 173.008 164.297C171.953 162.969 170.156 162.969 165.117 164.414Z" fill="#5A5A79"/>
</g>
<defs>
<clipPath id="clip0_17_1054">
<rect width="200" height="200" fill="white"/>
</clipPath>
</defs>
</svg>
