<svg width="200" height="200" viewBox="0 0 200 200" fill="none" xmlns="http://www.w3.org/2000/svg">
<path d="M134.726 11.2109C129.57 16.3671 128.828 17.539 129.57 19.4921C129.922 20.4296 129.766 20.703 127.812 22.6952C126.016 24.6093 125.703 25.1171 125.703 26.4062C125.703 27.539 125.937 28.1249 126.758 28.789C128.476 30.3124 129.805 29.9999 132.461 27.4609L134.805 25.2343L150.117 40.5468L165.43 55.8593L156.836 64.4531L148.242 73.0468L132.93 57.7343L117.617 42.4218L120.586 39.3749C123.398 36.4453 123.516 36.2499 123.32 34.8437C123.008 33.0468 121.836 32.0312 119.961 32.0312C118.672 32.0312 118.164 32.4218 114.101 36.4843L109.687 40.8984L106.406 55.1171L103.125 69.2968L98.5937 73.9062L94.0234 78.5156L94.2577 80.6249L94.4531 82.7734L89.8437 87.2656C84.5702 92.3046 83.0468 93.1249 77.9687 93.5937C75.1171 93.8281 74.9999 93.8281 74.9999 93.0077C74.9999 92.5781 74.6484 91.8359 74.2187 91.4062C73.4765 90.664 72.9296 90.6249 65.6249 90.6249C58.3202 90.6249 57.7734 90.664 57.0312 91.4062C56.289 92.1484 56.2499 92.6952 56.2499 110.156V128.125H53.1249H49.9999V113.281C49.9999 98.9452 49.9609 98.3984 49.2187 97.6562C48.164 96.6015 45.5859 96.6015 44.5312 97.6562C43.8671 98.3202 43.7499 98.9452 43.7499 102.344V106.25H38.2812C30.7812 106.25 31.2499 105.625 31.2499 115.625C31.2499 125.625 30.7812 125 38.2812 125H43.7499V128.906C43.7499 134.414 43.7109 134.375 50.7812 134.375H56.2499V136.719C56.2499 140.625 56.289 140.625 65.6249 140.625C72.9296 140.625 73.4765 140.586 74.2187 139.844C74.6484 139.414 74.9999 138.711 74.9999 138.281C74.9999 137.539 75.2734 137.5 82.0312 137.5C88.5546 137.5 89.1015 137.461 89.8437 136.719C90.5859 135.976 90.6249 135.43 90.6249 125.976C90.6249 118.203 90.7421 115.703 91.1718 114.648C91.7968 113.203 93.0468 112.617 94.7656 113.047C96.8359 113.594 96.8749 114.141 96.8749 136.406C96.8749 147.656 96.6796 158.164 96.4843 159.766C96.1327 162.383 95.5859 163.789 90.7812 173.437C87.8906 179.336 85.1171 184.57 84.6484 185.078C83.5156 186.328 81.5624 186.25 80.5077 184.922C80.039 184.336 79.6874 183.555 79.6874 183.164C79.6874 182.734 82.1484 177.5 85.1562 171.484L90.6249 160.547V152.93C90.6249 145.82 90.5859 145.273 89.8437 144.531C89.3359 144.023 88.5546 143.75 87.4999 143.75C86.4452 143.75 85.664 144.023 85.1562 144.531C84.4531 145.234 84.3749 145.82 84.3749 151.758V158.203L78.8671 169.219C74.5312 177.851 73.3202 180.664 73.164 182.266C72.5781 187.93 76.8359 192.578 82.6562 192.578C85.3515 192.578 87.1874 191.953 89.0624 190.391C90.5468 189.101 101.641 167.266 102.539 163.789C102.851 162.539 103.125 160.351 103.125 158.906V156.25H106.25H109.375V160.156C109.375 165.703 109.297 165.625 116.719 165.625H122.461L126.914 178.945C129.414 186.523 131.641 192.578 132.07 193.008C133.086 194.023 135.664 194.023 136.719 192.969C137.851 191.836 137.695 189.844 136.172 185.234L134.805 181.25H140.078C144.805 181.25 145.391 181.172 146.094 180.469C147.031 179.531 147.148 177.07 146.328 175.937C145.82 175.273 145.117 175.195 139.219 175L132.695 174.805L131.758 172.109C131.289 170.586 130.859 169.219 130.859 169.062C130.859 168.906 133.398 168.75 136.523 168.75C141.68 168.75 142.266 168.672 142.969 167.969C143.476 167.461 143.75 166.68 143.75 165.625C143.75 164.57 143.476 163.789 142.969 163.281C142.266 162.578 141.68 162.5 135.391 162.5H128.594L128.125 161.328C127.851 160.664 127.305 159.961 126.914 159.766C126.523 159.531 123.828 159.375 120.937 159.375H115.625V154.687V150H116.992C118.047 150 118.672 150.351 120.195 151.875C121.25 152.93 123.125 154.297 124.414 154.922C126.601 155.976 127.07 156.055 131.25 156.055C135.43 156.055 135.898 155.976 138.086 154.922C139.375 154.297 141.25 152.93 142.305 151.875C143.984 150.195 144.375 150 145.898 150C146.875 150 147.656 150.039 147.656 150.117C147.656 150.195 151.055 159.805 155.234 171.484C159.844 184.375 163.125 192.93 163.516 193.242C163.906 193.516 164.883 193.75 165.703 193.75C167.656 193.75 168.75 192.656 168.75 190.781C168.75 189.023 153.242 145.43 152.266 144.453C151.758 143.945 150.937 143.75 149.219 143.75H146.875V140.625C146.875 137.266 146.211 134.766 144.687 132.344C144.141 131.523 143.75 130.273 143.75 129.492V128.125H146.875H150V130.469C150 134.375 150.039 134.375 159.375 134.375C169.062 134.375 168.75 134.531 168.75 129.297V125.742L169.844 126.328C171.367 127.148 173.281 129.258 174.101 131.055C174.766 132.5 174.805 134.805 175 162.617C175.195 191.758 175.234 192.656 175.937 193.203C177.109 194.023 179.531 193.906 180.469 192.969C181.25 192.187 181.25 191.836 181.172 161.016L181.055 129.883L180 127.734C178.008 123.672 174.414 120.469 170.586 119.336L168.945 118.867L168.828 115.859C168.711 113.086 168.789 112.851 169.414 113.047C169.805 113.164 170.664 113.359 171.289 113.516C177.734 115 183.906 120.937 186.211 127.891L187.305 131.055L187.5 161.836C187.695 191.758 187.734 192.656 188.437 193.203C189.57 194.023 192.031 193.906 192.969 192.969C193.75 192.187 193.75 191.68 193.75 161.211C193.75 131.641 193.711 130.078 192.969 127.187C191.016 119.57 185.547 112.734 178.594 109.258C176.484 108.203 173.711 107.187 171.875 106.797L168.75 106.133V102.266C168.75 96.6406 169.141 96.8749 159.375 96.8749C150.039 96.8749 150 96.8749 150 100.781V103.125H146.875H143.75V99.2187C143.75 93.2812 145 93.7499 128.633 93.7499H115.039L118.164 90.6249L121.289 87.4999L135.508 84.2187L149.726 80.9374L159.922 70.8202C169.609 61.1718 170.156 60.664 171.133 61.0546C173.047 61.7968 174.258 61.0546 179.414 55.8984C184.297 51.0546 184.375 50.8984 184.375 49.2187V47.4609L163.75 26.8749L143.164 6.24992H141.445C139.766 6.24992 139.609 6.36711 134.726 11.2109ZM158.984 31.8359L176.367 49.2187L174.414 51.1718L172.461 53.1249L155 35.664L137.5 18.164L139.336 16.328C140.351 15.2734 141.289 14.453 141.406 14.453C141.523 14.453 149.414 22.2655 158.984 31.8359ZM141.133 76.0546C140.937 76.1327 136.25 77.1874 130.664 78.4765L120.508 80.8202L115.156 75.4687L109.805 70.1171L112.226 59.6484L114.648 49.2187L128.008 62.5781C135.391 69.9609 141.289 76.0156 141.133 76.0546ZM110.547 80.2734L114.648 84.3749L112.578 86.4062L110.547 88.4765L106.367 84.2968L102.148 80.0781L104.101 78.1249C105.156 77.0702 106.133 76.1718 106.25 76.1718C106.367 76.1718 108.281 78.0077 110.547 80.2734ZM103.906 93.7499C103.906 96.289 104.844 98.0468 106.719 99.2187C107.93 99.9609 108.711 99.9999 122.773 99.9999H137.5V103.125V106.25H128.906C120.82 106.25 120.273 106.289 119.531 107.031C118.789 107.773 118.75 108.32 118.75 115.391C118.75 119.57 118.867 123.281 118.984 123.633C119.141 123.984 120.273 124.805 121.562 125.43L123.906 126.601L122.07 127.812C121.055 128.476 119.883 129.531 119.414 130.117L118.594 131.25H110.859H103.125V122.148C103.125 112.031 102.93 111.172 100.351 108.711C98.5156 106.992 96.5624 106.25 93.7499 106.25C90.9374 106.25 88.9843 106.992 87.1484 108.711C84.5702 111.172 84.3749 112.031 84.3749 122.148V131.25H79.6874H74.9999V115.664V100.078L79.2187 99.9218C83.0859 99.8046 83.6327 99.6874 86.4843 98.3202C89.0624 97.1093 90.2734 96.1327 94.4921 91.9921L99.414 87.1484L101.68 89.3749C103.867 91.5234 103.906 91.6406 103.906 93.7499ZM68.7499 115.625V134.375H65.6249H62.4999V115.625V96.8749H65.6249H68.7499V115.625ZM162.5 115.625V128.125H159.375H156.25V115.625V103.125H159.375H162.5V115.625ZM150 115.625V121.875H146.875H143.75V115.625V109.375H146.875H150V115.625ZM43.7499 115.625V118.75H40.6249H37.4999V115.625V112.5H40.6249H43.7499V115.625ZM137.5 119.141C137.5 122.773 137.422 125.781 137.305 125.781C137.187 125.781 134.375 124.414 131.055 122.773L125 119.726V116.133V112.5H131.25H137.5V119.141ZM134.687 132.266C138.008 133.633 140.234 136.953 140.234 140.625C140.234 145.664 136.289 149.609 131.25 149.609C123.359 149.609 119.297 140.156 124.726 134.414C127.226 131.797 131.406 130.898 134.687 132.266ZM115.625 140.625V143.75H113.281C111.445 143.75 110.781 143.906 110.156 144.531C109.531 145.156 109.375 145.82 109.375 147.656V150H106.25H103.125V143.75V137.5H109.375H115.625V140.625Z" fill="#5A5A79"/>
<path d="M128.906 138.281C128.398 138.789 128.125 139.57 128.125 140.625C128.125 142.695 129.18 143.75 131.25 143.75C133.32 143.75 134.375 142.695 134.375 140.625C134.375 139.57 134.102 138.789 133.594 138.281C133.086 137.773 132.305 137.5 131.25 137.5C130.195 137.5 129.414 137.773 128.906 138.281Z" fill="#5A5A79"/>
<path d="M10.1563 97.6562C9.37504 98.4375 9.1016 100.43 9.60941 101.758C10 102.734 17.3047 106.25 18.9454 106.25C20.7422 106.25 21.875 105.117 21.875 103.359C21.875 102.617 21.7579 101.719 21.6407 101.367C21.4844 101.016 19.6485 99.8828 17.5391 98.7891C13.2813 96.6797 11.4454 96.3672 10.1563 97.6562Z" fill="#5A5A79"/>
<path d="M7.03125 113.281C5.97656 114.336 5.97656 116.914 7.03125 117.969C7.77344 118.711 8.32031 118.75 15.625 118.75C22.9297 118.75 23.4766 118.711 24.2188 117.969C24.7266 117.461 25 116.68 25 115.625C25 114.57 24.7266 113.789 24.2188 113.281C23.4766 112.539 22.9297 112.5 15.625 112.5C8.32031 112.5 7.77344 112.539 7.03125 113.281Z" fill="#5A5A79"/>
<path d="M13.8672 126.797C11.9531 127.773 10.1172 128.867 9.88281 129.219C9.60938 129.57 9.375 130.508 9.375 131.328C9.375 133.242 10.4688 134.375 12.3047 134.375C13.9453 134.375 21.25 130.859 21.6406 129.883C22.1484 128.555 21.875 126.562 21.0938 125.781C19.8438 124.531 17.8516 124.805 13.8672 126.797Z" fill="#5A5A79"/>
</svg>
