<svg width="27" height="27" viewBox="0 0 27 27" fill="none" xmlns="http://www.w3.org/2000/svg">
<rect x="0.875" y="0.55957" width="26" height="26" rx="13" fill="#E92B66"/>
<path d="M14.5414 15.3929H13.8747C13.6014 15.3929 13.3747 15.1663 13.3747 14.8929C13.3747 14.6196 13.6014 14.3929 13.8747 14.3929H14.5414C15.0014 14.3929 15.3747 14.0196 15.3747 13.5596V7.39294H9.87469C9.08802 7.39294 8.368 7.8196 7.98134 8.50627C7.848 8.74627 7.54137 8.83296 7.30137 8.69963C7.06137 8.56629 6.97467 8.25961 7.10801 8.01961C7.66801 7.01961 8.72802 6.39294 9.87469 6.39294H15.8747C16.148 6.39294 16.3747 6.61961 16.3747 6.89294V13.5596C16.3747 14.5729 15.5547 15.3929 14.5414 15.3929Z" fill="white"/>
<path d="M18.5418 19.3929H17.8752C17.6018 19.3929 17.3752 19.1663 17.3752 18.8929C17.3752 18.4329 17.0018 18.0596 16.5418 18.0596C16.0818 18.0596 15.7085 18.4329 15.7085 18.8929C15.7085 19.1663 15.4818 19.3929 15.2085 19.3929H12.5418C12.2685 19.3929 12.0418 19.1663 12.0418 18.8929C12.0418 18.4329 11.6685 18.0596 11.2085 18.0596C10.7485 18.0596 10.3752 18.4329 10.3752 18.8929C10.3752 19.1663 10.1485 19.3929 9.87516 19.3929H9.2085C7.8285 19.3929 6.7085 18.2729 6.7085 16.8929C6.7085 16.6196 6.93516 16.3929 7.2085 16.3929C7.48183 16.3929 7.7085 16.6196 7.7085 16.8929C7.7085 17.7196 8.38183 18.3929 9.2085 18.3929H9.44181C9.66181 17.6263 10.3685 17.0596 11.2085 17.0596C12.0485 17.0596 12.7552 17.6263 12.9752 18.3929H14.7818C15.0018 17.6263 15.7085 17.0596 16.5485 17.0596C17.3885 17.0596 18.0951 17.6263 18.3151 18.3929H18.5418C19.3685 18.3929 20.0418 17.7196 20.0418 16.8929V15.3929H18.5418C17.9018 15.3929 17.3752 14.8663 17.3752 14.2263V12.2263C17.3752 11.5863 17.8952 11.0596 18.5418 11.0596L17.8285 9.81295C17.6818 9.55295 17.4018 9.39294 17.1018 9.39294H16.3752V13.5596C16.3752 14.5729 15.5552 15.3929 14.5418 15.3929H13.8752C13.6018 15.3929 13.3752 15.1663 13.3752 14.8929C13.3752 14.6196 13.6018 14.3929 13.8752 14.3929H14.5418C15.0018 14.3929 15.3752 14.0196 15.3752 13.5596V8.89294C15.3752 8.61961 15.6018 8.39294 15.8752 8.39294H17.1018C17.7618 8.39294 18.3685 8.74629 18.6951 9.31962L19.8352 11.3129C19.9218 11.4663 19.9218 11.6596 19.8352 11.8129C19.7485 11.9663 19.5818 12.0596 19.4018 12.0596H18.5418C18.4485 12.0596 18.3752 12.1329 18.3752 12.2263V14.2263C18.3752 14.3196 18.4485 14.3929 18.5418 14.3929H20.5418C20.8152 14.3929 21.0418 14.6196 21.0418 14.8929V16.8929C21.0418 18.2729 19.9218 19.3929 18.5418 19.3929Z" fill="white"/>
<path d="M11.2083 20.7262C10.195 20.7262 9.375 19.9062 9.375 18.8929C9.375 17.8796 10.195 17.0596 11.2083 17.0596C12.2217 17.0596 13.0417 17.8796 13.0417 18.8929C13.0417 19.9062 12.2217 20.7262 11.2083 20.7262ZM11.2083 18.0596C10.7483 18.0596 10.375 18.4329 10.375 18.8929C10.375 19.3529 10.7483 19.7262 11.2083 19.7262C11.6683 19.7262 12.0417 19.3529 12.0417 18.8929C12.0417 18.4329 11.6683 18.0596 11.2083 18.0596Z" fill="white"/>
<path d="M16.5418 20.7262C15.5285 20.7262 14.7085 19.9062 14.7085 18.8929C14.7085 17.8796 15.5285 17.0596 16.5418 17.0596C17.5552 17.0596 18.3752 17.8796 18.3752 18.8929C18.3752 19.9062 17.5552 20.7262 16.5418 20.7262ZM16.5418 18.0596C16.0818 18.0596 15.7085 18.4329 15.7085 18.8929C15.7085 19.3529 16.0818 19.7262 16.5418 19.7262C17.0018 19.7262 17.3752 19.3529 17.3752 18.8929C17.3752 18.4329 17.0018 18.0596 16.5418 18.0596Z" fill="white"/>
<path d="M20.5417 15.3929H18.5417C17.9017 15.3929 17.375 14.8662 17.375 14.2262V12.2262C17.375 11.5862 17.9017 11.0596 18.5417 11.0596H19.4017C19.5817 11.0596 19.7483 11.1529 19.835 11.3129L20.975 13.3129C21.015 13.3862 21.0417 13.4729 21.0417 13.5596V14.8929C21.0417 15.1662 20.815 15.3929 20.5417 15.3929ZM18.5417 12.0596C18.4483 12.0596 18.375 12.1329 18.375 12.2262V14.2262C18.375 14.3196 18.4483 14.3929 18.5417 14.3929H20.0417V13.6929L19.1083 12.0596H18.5417Z" fill="white"/>
<path d="M11.2085 11.3929H7.2085C6.93516 11.3929 6.7085 11.1663 6.7085 10.8929C6.7085 10.6196 6.93516 10.3929 7.2085 10.3929H11.2085C11.4818 10.3929 11.7085 10.6196 11.7085 10.8929C11.7085 11.1663 11.4818 11.3929 11.2085 11.3929Z" fill="white"/>
<path d="M9.87516 13.3929H7.2085C6.93516 13.3929 6.7085 13.1663 6.7085 12.8929C6.7085 12.6196 6.93516 12.3929 7.2085 12.3929H9.87516C10.1485 12.3929 10.3752 12.6196 10.3752 12.8929C10.3752 13.1663 10.1485 13.3929 9.87516 13.3929Z" fill="white"/>
<path d="M8.54183 15.3929H7.2085C6.93516 15.3929 6.7085 15.1663 6.7085 14.8929C6.7085 14.6196 6.93516 14.3929 7.2085 14.3929H8.54183C8.81516 14.3929 9.04183 14.6196 9.04183 14.8929C9.04183 15.1663 8.81516 15.3929 8.54183 15.3929Z" fill="white"/>
</svg>
