<svg width="27" height="27" viewBox="0 0 27 27" fill="none" xmlns="http://www.w3.org/2000/svg">
<rect x="0.875" y="0.55957" width="26" height="26" rx="13" fill="#F39C12"/>
<path d="M9.16182 18.7729C9.02849 18.7729 8.90185 18.7196 8.80851 18.6263C7.45518 17.2729 6.7085 15.4729 6.7085 13.5596C6.7085 9.60628 9.92183 6.39294 13.8752 6.39294C15.7885 6.39294 17.5885 7.13961 18.9418 8.49295C19.0351 8.58628 19.0885 8.71294 19.0885 8.84628C19.0885 8.97961 19.0351 9.10628 18.9418 9.19961L9.51518 18.6263C9.42184 18.7196 9.29516 18.7729 9.16182 18.7729ZM13.8752 7.39294C10.4752 7.39294 7.7085 10.1596 7.7085 13.5596C7.7085 15.0396 8.2285 16.4396 9.17517 17.5529L17.8685 8.85961C16.7552 7.91294 15.3552 7.39294 13.8752 7.39294Z" fill="white"/>
<path d="M13.875 20.7262C11.9616 20.7262 10.1616 19.9796 8.80831 18.6262C8.71498 18.5329 8.66162 18.4062 8.66162 18.2729C8.66162 18.1396 8.71498 18.0129 8.80831 17.9196L18.2349 8.4929C18.4283 8.29957 18.7483 8.29957 18.9416 8.4929C20.2949 9.84623 21.0416 11.6462 21.0416 13.5596C21.0416 17.5129 17.8283 20.7262 13.875 20.7262ZM9.88163 18.2596C10.995 19.2062 12.395 19.7262 13.875 19.7262C17.275 19.7262 20.0416 16.9596 20.0416 13.5596C20.0416 12.0796 19.5216 10.6796 18.575 9.56623L9.88163 18.2596Z" fill="white"/>
<path d="M14.8151 20.6596C14.6885 20.6596 14.5618 20.6129 14.4618 20.5129L10.6885 16.7396C10.4951 16.5463 10.4951 16.2263 10.6885 16.0329C10.8818 15.8396 11.2018 15.8396 11.3952 16.0329L15.1685 19.8063C15.3618 19.9996 15.3618 20.3196 15.1685 20.5129C15.0751 20.6129 14.9485 20.6596 14.8151 20.6596Z" fill="white"/>
<path d="M17.7883 18.913C17.6616 18.913 17.535 18.8663 17.435 18.7663L13.0483 14.3796C12.855 14.1863 12.855 13.8663 13.0483 13.673C13.2417 13.4796 13.5617 13.4796 13.755 13.673L18.1417 18.0596C18.335 18.253 18.335 18.573 18.1417 18.7663C18.0417 18.8663 17.915 18.913 17.7883 18.913Z" fill="white"/>
<path d="M19.9549 16.3729C19.8282 16.3729 19.7015 16.3263 19.6015 16.2263L15.4082 12.0329C15.2149 11.8396 15.2149 11.5196 15.4082 11.3263C15.6015 11.1329 15.9215 11.1329 16.1148 11.3263L20.3082 15.5196C20.5015 15.7129 20.5015 16.0329 20.3082 16.2263C20.2149 16.3196 20.0882 16.3729 19.9549 16.3729Z" fill="white"/>
</svg>
