<svg width="27" height="27" viewBox="0 0 27 27" fill="none" xmlns="http://www.w3.org/2000/svg">
<rect x="0.875" y="0.55957" width="26" height="26" rx="13" fill="#00579F"/>
<path d="M17.0086 18.7129H10.7419C10.2486 18.7129 9.74862 18.3595 9.58195 17.8995L6.82195 10.1729C6.48195 9.19952 6.72862 8.75285 6.99528 8.55285C7.26195 8.35285 7.76195 8.23285 8.60195 8.83285L11.2019 10.6929C11.2819 10.7395 11.3553 10.7595 11.4086 10.7462C11.4686 10.7262 11.5153 10.6729 11.5486 10.5795L12.7219 7.45285C13.0753 6.51952 13.5953 6.37952 13.8753 6.37952C14.1553 6.37952 14.6753 6.51952 15.0286 7.45285L16.2019 10.5795C16.2353 10.6662 16.2819 10.7262 16.3419 10.7462C16.4019 10.7662 16.4753 10.7462 16.5486 10.6862L18.9886 8.94618C19.8819 8.30618 20.4019 8.43285 20.6886 8.63952C20.9686 8.85285 21.2286 9.32618 20.8619 10.3595L18.1686 17.8995C18.0019 18.3595 17.502 18.7129 17.0086 18.7129ZM7.66195 9.43285C7.67528 9.52618 7.70195 9.65952 7.76862 9.83285L10.5286 17.5595C10.5553 17.6262 10.6753 17.7129 10.7419 17.7129H17.0086C17.082 17.7129 17.2019 17.6262 17.2219 17.5595L19.9153 10.0262C20.0086 9.77285 20.0353 9.59952 20.0419 9.49952C19.9419 9.53285 19.7886 9.60618 19.5686 9.76618L17.1286 11.5062C16.7953 11.7395 16.4019 11.8129 16.0486 11.7062C15.6953 11.5995 15.4086 11.3195 15.2619 10.9395L14.0886 7.81285C14.0019 7.57952 13.9219 7.46618 13.8753 7.41285C13.8286 7.46618 13.7486 7.57952 13.6619 7.80618L12.4886 10.9329C12.3486 11.3129 12.0619 11.5929 11.7019 11.6995C11.3486 11.8062 10.9486 11.7329 10.6219 11.4995L8.02195 9.63952C7.86862 9.53285 7.74862 9.46618 7.66195 9.43285Z" fill="white"/>
<path d="M17.5418 20.7262H10.2085C9.93516 20.7262 9.7085 20.4995 9.7085 20.2262C9.7085 19.9529 9.93516 19.7262 10.2085 19.7262H17.5418C17.8152 19.7262 18.0418 19.9529 18.0418 20.2262C18.0418 20.4995 17.8152 20.7262 17.5418 20.7262Z" fill="white"/>
<path d="M15.5418 15.3929H12.2085C11.9352 15.3929 11.7085 15.1663 11.7085 14.8929C11.7085 14.6196 11.9352 14.3929 12.2085 14.3929H15.5418C15.8152 14.3929 16.0418 14.6196 16.0418 14.8929C16.0418 15.1663 15.8152 15.3929 15.5418 15.3929Z" fill="white"/>
</svg>
