<svg width="16" height="15" viewBox="0 0 16 15" fill="none" xmlns="http://www.w3.org/2000/svg">
<path d="M11.6486 14.6729C11.2952 14.6729 10.8419 14.5596 10.2752 14.2262L8.28191 13.0462C8.07524 12.9262 7.67524 12.9262 7.47524 13.0462L5.47524 14.2262C4.29524 14.9262 3.60191 14.6462 3.28857 14.4196C2.98191 14.1929 2.50191 13.6129 2.81524 12.2796L3.28857 10.2329C3.34191 10.0196 3.23524 9.65291 3.07524 9.49291L1.42191 7.83958C0.595241 7.01291 0.661908 6.30624 0.775241 5.95958C0.888575 5.61291 1.24857 4.99958 2.39524 4.80624L4.52191 4.45291C4.72191 4.41958 5.00857 4.20624 5.09524 4.02624L6.27524 1.67291C6.80857 0.599575 7.50857 0.439575 7.87524 0.439575C8.24191 0.439575 8.94191 0.599575 9.47524 1.67291L10.6486 4.01958C10.7419 4.19958 11.0286 4.41291 11.2286 4.44624L13.3552 4.79958C14.5086 4.99291 14.8686 5.60624 14.9752 5.95291C15.0819 6.29958 15.1486 7.00624 14.3286 7.83291L12.6752 9.49291C12.5152 9.65291 12.4152 10.0129 12.4619 10.2329L12.9352 12.2796C13.2419 13.6129 12.7686 14.1929 12.4619 14.4196C12.2952 14.5396 12.0286 14.6729 11.6486 14.6729ZM7.87524 11.9529C8.20191 11.9529 8.52857 12.0329 8.78857 12.1862L10.7819 13.3662C11.3619 13.7129 11.7286 13.7129 11.8686 13.6129C12.0086 13.5129 12.1086 13.1596 11.9619 12.5062L11.4886 10.4596C11.3619 9.90624 11.5686 9.19291 11.9686 8.78624L13.6219 7.13291C13.9486 6.80624 14.0952 6.48624 14.0286 6.26624C13.9552 6.04624 13.6486 5.86624 13.1952 5.79291L11.0686 5.43958C10.5552 5.35291 9.99524 4.93958 9.76191 4.47291L8.58857 2.12624C8.37524 1.69957 8.10857 1.44624 7.87524 1.44624C7.64191 1.44624 7.37524 1.69957 7.16857 2.12624L5.98857 4.47291C5.75524 4.93958 5.19524 5.35291 4.68191 5.43958L2.56191 5.79291C2.10857 5.86624 1.80191 6.04624 1.72857 6.26624C1.65524 6.48624 1.80857 6.81291 2.13524 7.13291L3.78857 8.78624C4.18857 9.18624 4.39524 9.90624 4.26857 10.4596L3.79524 12.5062C3.64191 13.1662 3.74857 13.5129 3.88857 13.6129C4.02857 13.7129 4.38857 13.7062 4.97524 13.3662L6.96858 12.1862C7.22191 12.0329 7.54857 11.9529 7.87524 11.9529Z" fill="#FFC857"/>
<path d="M7.87524 11.9529C8.20191 11.9529 8.52857 12.0329 8.78857 12.1862L10.7819 13.3662C11.3619 13.7129 11.7286 13.7129 11.8686 13.6129C12.0086 13.5129 12.1086 13.1596 11.9619 12.5062L11.4886 10.4596C11.3619 9.90624 11.5686 9.19291 11.9686 8.78624L13.6219 7.13291C13.9486 6.80624 14.0952 6.48624 14.0286 6.26624C13.9552 6.04624 13.6486 5.86624 13.1952 5.79291L11.0686 5.43958C10.5552 5.35291 9.99524 4.93958 9.76191 4.47291L8.58857 2.12624C8.37524 1.69957 8.10857 1.44624 7.87524 1.44624C7.64191 1.44624 7.37524 1.69957 7.16857 2.12624L5.98857 4.47291C5.75524 4.93958 5.19524 5.35291 4.68191 5.43958L2.56191 5.79291C2.10857 5.86624 1.80191 6.04624 1.72857 6.26624C1.65524 6.48624 1.80857 6.81291 2.13524 7.13291L3.78857 8.78624C4.18857 9.18624 4.39524 9.90624 4.26857 10.4596L3.79524 12.5062C3.64191 13.1662 3.74857 13.5129 3.88857 13.6129C4.02857 13.7129 4.38857 13.7062 4.97524 13.3662L6.96858 12.1862C7.22191 12.0329 7.54857 11.9529 7.87524 11.9529Z" fill="#FFC857"/>
</svg>
