<svg width="6" height="10" viewBox="0 0 6 10" fill="none" xmlns="http://www.w3.org/2000/svg">
<path fill-rule="evenodd" clip-rule="evenodd" d="M1.04438 8.895C0.940366 8.7896 0.881936 8.64666 0.881936 8.49761C0.881936 8.34857 0.940366 8.20563 1.04438 8.10023L4.5358 4.56308L1.04438 1.02594C0.991387 0.974092 0.94912 0.912069 0.920043 0.843493C0.890966 0.774918 0.875661 0.701162 0.875021 0.626531C0.87438 0.551899 0.888418 0.477885 0.916315 0.408808C0.944211 0.33973 0.985408 0.276974 1.0375 0.224199C1.08959 0.171425 1.15154 0.129688 1.21972 0.101426C1.28791 0.073164 1.36096 0.0589428 1.43463 0.0595913C1.5083 0.0602398 1.5811 0.0757465 1.64879 0.105205C1.71648 0.134663 1.7777 0.177482 1.82888 0.231166L5.71256 4.1657C5.81657 4.2711 5.875 4.41404 5.875 4.56308C5.875 4.71213 5.81657 4.85507 5.71256 4.96047L1.82888 8.895C1.72484 9.00037 1.58375 9.05957 1.43663 9.05957C1.28951 9.05957 1.14842 9.00037 1.04438 8.895Z" fill="#E92B66"/>
</svg>
