<svg width="17" height="17" viewBox="0 0 17 17" fill="none" xmlns="http://www.w3.org/2000/svg">
<path d="M3.83476 4.81286C3.70809 4.81286 3.57476 4.75953 3.48143 4.6662C3.28809 4.47286 3.28809 4.15286 3.48143 3.95953L5.90143 1.53953C6.09476 1.3462 6.41476 1.3462 6.60809 1.53953C6.80143 1.73286 6.80143 2.05286 6.60809 2.2462L4.18809 4.6662C4.08809 4.75953 3.96143 4.81286 3.83476 4.81286Z" fill="currentColor"/>
<path d="M12.9149 4.81286C12.7882 4.81286 12.6616 4.7662 12.5616 4.6662L10.1416 2.2462C9.94825 2.05286 9.94825 1.73286 10.1416 1.53953C10.3349 1.3462 10.6549 1.3462 10.8482 1.53953L13.2682 3.95953C13.4616 4.15286 13.4616 4.47286 13.2682 4.6662C13.1749 4.75953 13.0416 4.81286 12.9149 4.81286Z" fill="currentColor"/>
<path d="M13.8485 7.62626C13.8018 7.62626 13.7552 7.62626 13.7085 7.62626H13.5552H3.04183C2.57516 7.63293 2.04183 7.63293 1.65516 7.24626C1.3485 6.94626 1.2085 6.47959 1.2085 5.79293C1.2085 3.95959 2.5485 3.95959 3.1885 3.95959H13.5618C14.2018 3.95959 15.5418 3.95959 15.5418 5.79293C15.5418 6.48626 15.4018 6.94626 15.0952 7.24626C14.7485 7.59293 14.2818 7.62626 13.8485 7.62626ZM3.1885 6.62626H13.7152C14.0152 6.63293 14.2952 6.63293 14.3885 6.5396C14.4352 6.49293 14.5352 6.33293 14.5352 5.79293C14.5352 5.03959 14.3485 4.95959 13.5552 4.95959H3.1885C2.39516 4.95959 2.2085 5.03959 2.2085 5.79293C2.2085 6.33293 2.31516 6.49293 2.35516 6.5396C2.4485 6.62626 2.73516 6.62626 3.0285 6.62626H3.1885Z" fill="currentColor"/>
<path d="M6.88184 12.7596C6.6085 12.7596 6.38184 12.5329 6.38184 12.2596V9.89294C6.38184 9.61961 6.6085 9.39294 6.88184 9.39294C7.15517 9.39294 7.38184 9.61961 7.38184 9.89294V12.2596C7.38184 12.5396 7.15517 12.7596 6.88184 12.7596Z" fill="currentColor"/>
<path d="M9.94824 12.7596C9.67491 12.7596 9.44824 12.5329 9.44824 12.2596V9.89294C9.44824 9.61961 9.67491 9.39294 9.94824 9.39294C10.2216 9.39294 10.4482 9.61961 10.4482 9.89294V12.2596C10.4482 12.5396 10.2216 12.7596 9.94824 12.7596Z" fill="currentColor"/>
<path d="M10.3018 15.7262H6.28183C3.89516 15.7262 3.36183 14.3062 3.15516 13.0729L2.21516 7.3062C2.1685 7.03286 2.35516 6.77953 2.6285 6.73286C2.90183 6.6862 3.15516 6.87286 3.20183 7.1462L4.14183 12.9062C4.33516 14.0862 4.73516 14.7262 6.28183 14.7262H10.3018C12.0152 14.7262 12.2085 14.1262 12.4285 12.9662L13.5485 7.13286C13.6018 6.85953 13.8618 6.67953 14.1352 6.73953C14.4085 6.79286 14.5818 7.05286 14.5285 7.3262L13.4085 13.1595C13.1485 14.5129 12.7152 15.7262 10.3018 15.7262Z" fill="currentColor"/>
</svg>
