<svg width="17" height="16" viewBox="0 0 17 16" fill="none" xmlns="http://www.w3.org/2000/svg">
<path d="M3.96 4.25333C3.83334 4.25333 3.7 4.2 3.60667 4.10667C3.41334 3.91333 3.41334 3.59333 3.60667 3.4L6.02667 0.98C6.22 0.786667 6.54 0.786667 6.73334 0.98C6.92667 1.17333 6.92667 1.49333 6.73334 1.68667L4.31334 4.10667C4.21334 4.2 4.08667 4.25333 3.96 4.25333Z" fill="currentColor"/>
<path d="M13.04 4.25333C12.9134 4.25333 12.7867 4.20667 12.6867 4.10667L10.2667 1.68667C10.0734 1.49333 10.0734 1.17333 10.2667 0.98C10.46 0.786667 10.78 0.786667 10.9734 0.98L13.3934 3.4C13.5867 3.59333 13.5867 3.91333 13.3934 4.10667C13.3 4.2 13.1667 4.25333 13.04 4.25333Z" fill="currentColor"/>
<path d="M13.9734 7.06667C13.9267 7.06667 13.88 7.06667 13.8334 7.06667H13.68H3.16671C2.70004 7.07333 2.16671 7.07333 1.78004 6.68667C1.47337 6.38667 1.33337 5.92 1.33337 5.23333C1.33337 3.4 2.67337 3.4 3.31337 3.4H13.6867C14.3267 3.4 15.6667 3.4 15.6667 5.23333C15.6667 5.92667 15.5267 6.38667 15.22 6.68667C14.8734 7.03333 14.4067 7.06667 13.9734 7.06667ZM3.31337 6.06667H13.84C14.14 6.07333 14.42 6.07333 14.5134 5.98C14.56 5.93333 14.66 5.77333 14.66 5.23333C14.66 4.48 14.4734 4.4 13.68 4.4H3.31337C2.52004 4.4 2.33337 4.48 2.33337 5.23333C2.33337 5.77333 2.44004 5.93333 2.48004 5.98C2.57337 6.06667 2.86004 6.06667 3.15337 6.06667H3.31337Z" fill="currentColor"/>
<path d="M7.00671 12.2C6.73338 12.2 6.50671 11.9733 6.50671 11.7V9.33333C6.50671 9.06 6.73338 8.83333 7.00671 8.83333C7.28005 8.83333 7.50671 9.06 7.50671 9.33333V11.7C7.50671 11.98 7.28005 12.2 7.00671 12.2Z" fill="currentColor"/>
<path d="M10.0734 12.2C9.80003 12.2 9.57336 11.9733 9.57336 11.7V9.33333C9.57336 9.06 9.80003 8.83333 10.0734 8.83333C10.3467 8.83333 10.5734 9.06 10.5734 9.33333V11.7C10.5734 11.98 10.3467 12.2 10.0734 12.2Z" fill="currentColor"/>
<path d="M10.4267 15.1667H6.40671C4.02004 15.1667 3.48671 13.7467 3.28004 12.5133L2.34004 6.74667C2.29337 6.47333 2.48004 6.22 2.75337 6.17333C3.02671 6.12667 3.28004 6.31333 3.32671 6.58667L4.26671 12.3467C4.46004 13.5267 4.86004 14.1667 6.40671 14.1667H10.4267C12.14 14.1667 12.3334 13.5667 12.5534 12.4067L13.6734 6.57333C13.7267 6.3 13.9867 6.12 14.26 6.18C14.5334 6.23333 14.7067 6.49333 14.6534 6.76667L13.5334 12.6C13.2734 13.9533 12.84 15.1667 10.4267 15.1667Z" fill="currentColor"/>
</svg>
