<svg width="25" height="25" viewBox="0 0 25 25" fill="none" xmlns="http://www.w3.org/2000/svg">
<rect x="0.375" y="0.55957" width="24" height="24" rx="12" fill="#E92B66"/>
<path d="M7.835 8.81286C7.70834 8.81286 7.575 8.75953 7.48167 8.6662C7.28834 8.47286 7.28834 8.15286 7.48167 7.95953L9.90167 5.53953C10.095 5.3462 10.415 5.3462 10.6083 5.53953C10.8017 5.73286 10.8017 6.05286 10.6083 6.2462L8.18834 8.6662C8.08834 8.75953 7.96167 8.81286 7.835 8.81286Z" fill="white"/>
<path d="M16.9149 8.81286C16.7882 8.81286 16.6616 8.7662 16.5616 8.6662L14.1416 6.2462C13.9482 6.05286 13.9482 5.73286 14.1416 5.53953C14.3349 5.3462 14.6549 5.3462 14.8482 5.53953L17.2682 7.95953C17.4616 8.15286 17.4616 8.47286 17.2682 8.6662C17.1749 8.75953 17.0416 8.81286 16.9149 8.81286Z" fill="white"/>
<path d="M17.8483 11.6263C17.8016 11.6263 17.7549 11.6263 17.7083 11.6263H17.5549H7.04159C6.57492 11.6329 6.04159 11.6329 5.65492 11.2463C5.34825 10.9463 5.20825 10.4796 5.20825 9.79293C5.20825 7.95959 6.54825 7.95959 7.18825 7.95959H17.5616C18.2016 7.95959 19.5416 7.95959 19.5416 9.79293C19.5416 10.4863 19.4016 10.9463 19.0949 11.2463C18.7483 11.5929 18.2816 11.6263 17.8483 11.6263ZM7.18825 10.6263H17.7149C18.0149 10.6329 18.2949 10.6329 18.3883 10.5396C18.4349 10.4929 18.5349 10.3329 18.5349 9.79293C18.5349 9.03959 18.3483 8.95959 17.5549 8.95959H7.18825C6.39492 8.95959 6.20825 9.03959 6.20825 9.79293C6.20825 10.3329 6.31492 10.4929 6.35492 10.5396C6.44825 10.6263 6.73492 10.6263 7.02825 10.6263H7.18825Z" fill="white"/>
<path d="M10.8816 16.7596C10.6083 16.7596 10.3816 16.5329 10.3816 16.2596V13.8929C10.3816 13.6196 10.6083 13.3929 10.8816 13.3929C11.1549 13.3929 11.3816 13.6196 11.3816 13.8929V16.2596C11.3816 16.5396 11.1549 16.7596 10.8816 16.7596Z" fill="white"/>
<path d="M13.9482 16.7596C13.6749 16.7596 13.4482 16.5329 13.4482 16.2596V13.8929C13.4482 13.6196 13.6749 13.3929 13.9482 13.3929C14.2216 13.3929 14.4482 13.6196 14.4482 13.8929V16.2596C14.4482 16.5396 14.2216 16.7596 13.9482 16.7596Z" fill="white"/>
<path d="M14.3016 19.7262H10.2816C7.89492 19.7262 7.36158 18.3062 7.15492 17.0729L6.21492 11.3062C6.16825 11.0329 6.35492 10.7795 6.62825 10.7329C6.90158 10.6862 7.15492 10.8729 7.20158 11.1462L8.14158 16.9062C8.33492 18.0862 8.73492 18.7262 10.2816 18.7262H14.3016C16.0149 18.7262 16.2083 18.1262 16.4283 16.9662L17.5483 11.1329C17.6016 10.8595 17.8616 10.6795 18.1349 10.7395C18.4083 10.7929 18.5816 11.0529 18.5283 11.3262L17.4083 17.1595C17.1483 18.5129 16.7149 19.7262 14.3016 19.7262Z" fill="white"/>
</svg>
