<svg width="24" height="25" viewBox="0 0 24 25" fill="none" xmlns="http://www.w3.org/2000/svg">
<path d="M13.05 19.9795C12.51 19.9795 11.94 19.9295 11.32 19.8295L6.62999 19.0895C5.14999 18.8595 4.00999 18.4495 3.15999 17.8495C0.969987 16.3295 1.09999 13.7195 1.37999 11.8895L2.11999 7.19954C2.79999 2.89954 5.01999 1.28955 9.31999 1.95955L14.01 2.69955C16.22 3.04955 19.19 3.93955 19.38 7.66955C19.42 8.30955 19.38 9.03955 19.24 9.89955L18.51 14.5895C17.93 18.2595 16.22 19.9795 13.05 19.9795ZM7.52999 3.30955C5.14999 3.30955 4.06999 4.51955 3.59999 7.43955L2.85999 12.1295C2.39999 15.0795 3.23999 16.0795 4.01999 16.6295C4.67999 17.0995 5.60999 17.4195 6.85999 17.6095L11.55 18.3495C15.04 18.8995 16.48 17.8495 17.03 14.3495L17.76 9.65955C17.88 8.90955 17.92 8.27954 17.88 7.74955V7.73954C17.77 5.63954 16.58 4.60955 13.77 4.16955L9.08999 3.43955C8.50999 3.34955 7.99999 3.30955 7.52999 3.30955Z" fill="currentColor"/>
<path d="M14.68 23.3095C13.83 23.3095 12.87 23.1295 11.76 22.7595L7.25001 21.2595C4.68001 20.4095 3.29001 19.1895 2.87001 17.4095C2.80001 17.1095 2.92001 16.7895 3.18001 16.6195C3.44001 16.4495 3.78001 16.4495 4.03001 16.6295C4.69001 17.0995 5.61001 17.4195 6.86001 17.6095L11.55 18.3495C15.04 18.8995 16.48 17.8495 17.03 14.3495L17.76 9.65954C17.88 8.90954 17.92 8.27954 17.88 7.74954C17.87 7.48954 18 7.22954 18.23 7.07954C18.46 6.92954 18.75 6.91954 18.99 7.04954C21.67 8.47954 22.38 10.7695 21.22 14.2695L19.72 18.7795C19.01 20.8995 18.08 22.1995 16.78 22.8495C16.15 23.1595 15.46 23.3095 14.68 23.3095ZM5.73001 18.9195C6.21001 19.2395 6.85001 19.5495 7.72001 19.8395L12.23 21.3395C13.95 21.9095 15.18 21.9595 16.1 21.5095C17.02 21.0495 17.72 20.0295 18.29 18.3095L19.79 13.7995C20.61 11.3195 20.29 9.99954 19.34 9.10954C19.32 9.35954 19.28 9.61954 19.24 9.89954L18.51 14.5895C17.83 18.8895 15.61 20.4995 11.31 19.8395L6.62001 19.0995C6.31001 19.0395 6.01001 18.9795 5.73001 18.9195Z" fill="currentColor"/>
<path d="M8.24 10.2795C6.87 10.2795 5.75 9.15955 5.75 7.78955C5.75 6.41955 6.87 5.29955 8.24 5.29955C9.61 5.29955 10.73 6.41955 10.73 7.78955C10.73 9.15955 9.61 10.2795 8.24 10.2795ZM8.24 6.80955C7.7 6.80955 7.25 7.24955 7.25 7.79955C7.25 8.34955 7.69 8.78955 8.24 8.78955C8.78 8.78955 9.23 8.34955 9.23 7.79955C9.23 7.24955 8.78 6.80955 8.24 6.80955Z" fill="currentColor"/>
</svg>
