<svg width="25" height="24" viewBox="0 0 25 24" fill="none" xmlns="http://www.w3.org/2000/svg">
<path d="M6.79132 5.10571C6.49842 4.81282 6.02355 4.81282 5.73066 5.10571C5.43776 5.39861 5.43776 5.87348 5.73066 6.16637L11.5643 12L5.73066 17.8336C5.43776 18.1265 5.43776 18.6014 5.73066 18.8943C6.02355 19.1872 6.49842 19.1872 6.79132 18.8943L12.6249 13.0607L18.4585 18.8942C18.7514 19.1871 19.2263 19.1871 19.5192 18.8942C19.812 18.6013 19.812 18.1264 19.5192 17.8335L13.6856 12L19.5192 6.16637C19.8121 5.87348 19.8121 5.39861 19.5192 5.10571C19.2263 4.81282 18.7515 4.81282 18.4586 5.10571L12.6249 10.9393L6.79132 5.10571Z" fill="#273645"/>
</svg>
