<svg width="32" height="32" viewBox="0 0 32 32" fill="none" xmlns="http://www.w3.org/2000/svg">
<path d="M8.22176 6.8076C7.83123 6.41708 7.19807 6.41708 6.80754 6.8076C6.41702 7.19813 6.41702 7.83129 6.80754 8.22182L14.5857 16L6.80754 23.7782C6.41702 24.1687 6.41702 24.8019 6.80754 25.1924C7.19807 25.5829 7.83123 25.5829 8.22176 25.1924L15.9999 17.4142L23.778 25.1923C24.1685 25.5828 24.8017 25.5828 25.1922 25.1923C25.5827 24.8017 25.5827 24.1686 25.1922 23.778L17.4141 16L25.1923 8.22182C25.5828 7.83129 25.5828 7.19813 25.1923 6.8076C24.8018 6.41708 24.1686 6.41708 23.7781 6.8076L15.9999 14.5858L8.22176 6.8076Z" fill="#5F5F5F"/>
</svg>
