<svg width="27" height="27" viewBox="0 0 27 27" fill="none" xmlns="http://www.w3.org/2000/svg">
<rect x="0.875" y="0.55957" width="26" height="26" rx="13" fill="#1AB248"/>
<path d="M18.8215 13.3929H16.5415C16.2682 13.3929 16.0415 13.1663 16.0415 12.8929V8.23294C16.0415 7.73961 16.2348 7.27961 16.5815 6.93295C16.9282 6.58628 17.3882 6.39294 17.8815 6.39294H17.8882C18.7215 6.39961 19.5082 6.72628 20.1082 7.31961C20.7082 7.92628 21.0348 8.72628 21.0348 9.55961V11.1729C21.0415 12.4996 20.1482 13.3929 18.8215 13.3929ZM17.0415 12.3929H18.8215C19.5948 12.3929 20.0415 11.9463 20.0415 11.1729V9.55961C20.0415 8.98628 19.8148 8.43961 19.4082 8.02628C19.0015 7.62628 18.4548 7.39961 17.8882 7.39294C17.8882 7.39294 17.8882 7.39294 17.8815 7.39294C17.6615 7.39294 17.4482 7.47961 17.2882 7.63961C17.1282 7.79961 17.0415 8.00628 17.0415 8.23294V12.3929Z" fill="white"/>
<path d="M11.8748 21.1129C11.5615 21.1129 11.2682 20.9929 11.0482 20.7663L9.94151 19.6529C9.88151 19.5929 9.78818 19.5863 9.72151 19.6396L8.58151 20.4929C8.22818 20.7596 7.76151 20.8063 7.36151 20.6063C6.96151 20.4063 6.71484 20.0063 6.71484 19.5596V9.55961C6.71484 7.54628 7.86818 6.39294 9.88151 6.39294H17.8815C18.1548 6.39294 18.3815 6.61961 18.3815 6.89294C18.3815 7.16628 18.1548 7.39294 17.8815 7.39294C17.4215 7.39294 17.0482 7.76628 17.0482 8.22628V19.5596C17.0482 20.0063 16.8015 20.4063 16.4015 20.6063C16.0015 20.8063 15.5348 20.7663 15.1815 20.4996L14.0415 19.6463C13.9748 19.5929 13.8815 19.6063 13.8282 19.6596L12.7082 20.7796C12.4815 20.9929 12.1882 21.1129 11.8748 21.1129ZM9.81484 18.6063C10.1215 18.6063 10.4215 18.7196 10.6482 18.9529L11.7548 20.0663C11.7948 20.1063 11.8482 20.1129 11.8748 20.1129C11.9015 20.1129 11.9548 20.1063 11.9948 20.0663L13.1148 18.9463C13.5282 18.5329 14.1815 18.4929 14.6415 18.8463L15.7748 19.6929C15.8482 19.7463 15.9148 19.7263 15.9482 19.7063C15.9815 19.6863 16.0415 19.6463 16.0415 19.5596V8.22628C16.0415 7.92628 16.1148 7.63961 16.2415 7.39294H9.87485C8.39484 7.39294 7.70818 8.07961 7.70818 9.55961V19.5596C7.70818 19.6529 7.76818 19.6929 7.80151 19.7129C7.84151 19.7329 7.90818 19.7463 7.97485 19.6929L9.11485 18.8396C9.32151 18.6863 9.56818 18.6063 9.81484 18.6063Z" fill="white"/>
<path d="M13.4953 14.9462C13.1219 14.9462 12.8286 14.6462 12.8286 14.2796C12.8286 13.9129 13.1286 13.6129 13.4953 13.6129C13.8619 13.6129 14.1619 13.9129 14.1619 14.2796C14.1619 14.6462 13.8619 14.9462 13.4953 14.9462Z" fill="white"/>
<path d="M10.255 12.2463C9.88171 12.2463 9.58838 11.9463 9.58838 11.5796C9.58838 11.213 9.88838 10.913 10.255 10.913C10.6217 10.913 10.9217 11.213 10.9217 11.5796C10.9217 11.9463 10.6217 12.2463 10.255 12.2463Z" fill="white"/>
<path d="M10.055 15.2129C9.92831 15.2129 9.80164 15.1662 9.70164 15.0662C9.50831 14.8729 9.50831 14.5529 9.70164 14.3596L13.3416 10.7196C13.535 10.5263 13.855 10.5263 14.0483 10.7196C14.2416 10.9129 14.2416 11.2329 14.0483 11.4262L10.4083 15.0662C10.315 15.1596 10.1816 15.2129 10.055 15.2129Z" fill="white"/>
</svg>
