<svg width="12" height="13" viewBox="0 0 12 13" fill="none" xmlns="http://www.w3.org/2000/svg">
<path d="M6 11.9346C3.035 11.9346 0.625 9.52457 0.625 6.55957C0.625 3.59457 3.035 1.18457 6 1.18457C8.965 1.18457 11.375 3.59457 11.375 6.55957C11.375 9.52457 8.965 11.9346 6 11.9346ZM6 1.93457C3.45 1.93457 1.375 4.00957 1.375 6.55957C1.375 9.10957 3.45 11.1846 6 11.1846C8.55 11.1846 10.625 9.10957 10.625 6.55957C10.625 4.00957 8.55 1.93457 6 1.93457Z" fill="#E92B66"/>
<path d="M5.32837 7.59351C5.30558 7.53426 5.28735 7.46818 5.27368 7.39526C5.26229 7.32007 5.25659 7.24943 5.25659 7.18335C5.25659 7.07853 5.26685 6.98283 5.28735 6.89624C5.30786 6.80965 5.33862 6.72876 5.37964 6.65356C5.42065 6.57609 5.47192 6.50317 5.53345 6.43481C5.59497 6.36418 5.66675 6.29468 5.74878 6.22632C5.83537 6.1534 5.91056 6.08618 5.97437 6.02466C6.04045 5.96086 6.09627 5.89819 6.14185 5.83667C6.18742 5.77287 6.2216 5.70793 6.24438 5.64185C6.26717 5.57349 6.27856 5.49829 6.27856 5.41626C6.27856 5.34562 6.26603 5.28068 6.24097 5.22144C6.2159 5.15991 6.17944 5.1075 6.13159 5.06421C6.08602 5.02091 6.02905 4.98674 5.96069 4.96167C5.89461 4.9366 5.82056 4.92407 5.73853 4.92407C5.56079 4.92407 5.37622 4.96167 5.18481 5.03687C4.99341 5.10978 4.81226 5.22144 4.64136 5.37183V4.34302C4.81681 4.2382 5.00822 4.15959 5.21558 4.10718C5.42293 4.05477 5.63713 4.02856 5.85815 4.02856C6.07007 4.02856 6.26717 4.05249 6.44946 4.10034C6.63175 4.14591 6.79012 4.21883 6.92456 4.31909C7.06128 4.41935 7.16724 4.5481 7.24243 4.70532C7.31991 4.86027 7.35864 5.04712 7.35864 5.26587C7.35864 5.40487 7.34269 5.53133 7.31079 5.64526C7.27889 5.75692 7.23218 5.86287 7.17065 5.96313C7.10913 6.0634 7.0328 6.16024 6.94165 6.25366C6.8505 6.34481 6.74569 6.43937 6.6272 6.53735C6.54744 6.60343 6.47681 6.66496 6.41528 6.72192C6.35604 6.77889 6.30591 6.83586 6.26489 6.89282C6.22616 6.94751 6.19653 7.00675 6.17603 7.07056C6.15552 7.13208 6.14526 7.20272 6.14526 7.28247C6.14526 7.33716 6.1521 7.39299 6.16577 7.44995C6.18172 7.50692 6.20223 7.55477 6.22729 7.59351H5.32837ZM5.82739 9.09058C5.6451 9.09058 5.49357 9.03589 5.3728 8.92651C5.25203 8.81258 5.19165 8.67814 5.19165 8.52319C5.19165 8.36369 5.25203 8.23039 5.3728 8.12329C5.49357 8.01619 5.6451 7.96265 5.82739 7.96265C6.00741 7.96265 6.15666 8.01619 6.27515 8.12329C6.39364 8.22811 6.45288 8.36141 6.45288 8.52319C6.45288 8.68726 6.39478 8.82284 6.27856 8.92993C6.16007 9.03703 6.00968 9.09058 5.82739 9.09058Z" fill="#E92B66"/>
</svg>
