<svg width="24" height="25" viewBox="0 0 24 25" fill="none" xmlns="http://www.w3.org/2000/svg">
<path d="M8.99994 18.3096C8.58994 18.3096 8.24994 17.9696 8.24994 17.5596V13.3696L7.52994 14.0896C7.23994 14.3796 6.75994 14.3796 6.46994 14.0896C6.17994 13.7996 6.17994 13.3196 6.46994 13.0296L8.46994 11.0296C8.67994 10.8196 9.00994 10.7496 9.28994 10.8696C9.56994 10.9796 9.74994 11.2596 9.74994 11.5596V17.5596C9.74994 17.9696 9.40994 18.3096 8.99994 18.3096Z" fill="#273645"/>
<path d="M10.9999 14.3095C10.8099 14.3095 10.6199 14.2395 10.4699 14.0895L8.46994 12.0895C8.17994 11.7995 8.17994 11.3195 8.46994 11.0295C8.75994 10.7395 9.23994 10.7395 9.52994 11.0295L11.5299 13.0295C11.8199 13.3195 11.8199 13.7995 11.5299 14.0895C11.3799 14.2395 11.1899 14.3095 10.9999 14.3095Z" fill="#273645"/>
<path d="M15 23.3096H9C3.57 23.3096 1.25 20.9896 1.25 15.5596V9.55957C1.25 4.12957 3.57 1.80957 9 1.80957H14C14.41 1.80957 14.75 2.14957 14.75 2.55957C14.75 2.96957 14.41 3.30957 14 3.30957H9C4.39 3.30957 2.75 4.94957 2.75 9.55957V15.5596C2.75 20.1696 4.39 21.8096 9 21.8096H15C19.61 21.8096 21.25 20.1696 21.25 15.5596V10.5596C21.25 10.1496 21.59 9.80957 22 9.80957C22.41 9.80957 22.75 10.1496 22.75 10.5596V15.5596C22.75 20.9896 20.43 23.3096 15 23.3096Z" fill="#273645"/>
<path d="M22 11.3096H18C14.58 11.3096 13.25 9.97956 13.25 6.55956V2.55956C13.25 2.25956 13.43 1.97956 13.71 1.86956C13.99 1.74956 14.31 1.81956 14.53 2.02956L22.53 10.0296C22.74 10.2396 22.81 10.5696 22.69 10.8496C22.57 11.1296 22.3 11.3096 22 11.3096ZM14.75 4.36956V6.55956C14.75 9.13956 15.42 9.80956 18 9.80956H20.19L14.75 4.36956Z" fill="#273645"/>
</svg>
