<svg width="24" height="25" viewBox="0 0 24 25" fill="none" xmlns="http://www.w3.org/2000/svg">
<g clip-path="url(#clip0_338_5809)">
<path d="M18.7079 5.91964C18.8437 5.49452 18.8052 5.04231 18.5995 4.64629C18.3936 4.25027 18.0457 3.9588 17.6196 3.82565L14.756 2.93078C14.4477 2.83442 14.219 2.56562 14.1733 2.2459L14.0729 1.54247C13.9928 0.982097 13.5055 0.55954 12.9395 0.55954H11.0604C10.4944 0.55954 10.0071 0.982097 9.92705 1.54253L9.82657 2.2459C9.78093 2.56562 9.55219 2.83442 9.24393 2.93078L6.38016 3.82565C5.95414 3.9588 5.60627 4.25022 5.40039 4.64629C5.19462 5.04231 5.15612 5.49452 5.29198 5.91964L6.97135 11.1743C7.49584 12.8152 7.45799 14.6096 6.8656 16.2249L6.86248 16.2331C6.30477 17.7116 6.05084 19.2538 6.10764 20.817L6.20987 23.6283C6.21852 23.8664 6.39313 24.0657 6.62801 24.1056C8.41027 24.4082 10.2051 24.5596 11.9999 24.5596C13.7948 24.5596 15.5896 24.4082 17.3718 24.1056C17.6068 24.0657 17.7813 23.8664 17.79 23.6283L17.8922 20.817C17.9491 19.2539 17.6951 17.7117 17.1373 16.2331C17.1373 16.233 17.1351 16.227 17.135 16.2268C16.5419 14.6096 16.504 12.8153 17.0284 11.1743L18.7079 5.91964ZM16.7872 18.88C16.577 18.9245 16.3657 18.9673 16.1555 19.0055C15.8824 19.0552 15.7013 19.3169 15.751 19.59C15.7952 19.8327 16.0067 20.0027 16.2449 20.0027C16.2748 20.0027 16.3051 20.0001 16.3355 19.9945C16.5174 19.9614 16.7 19.9251 16.8823 19.8874C16.8962 20.1841 16.8985 20.4818 16.8877 20.7804L16.8004 23.1802C13.6126 23.6789 10.3872 23.6789 7.19949 23.1802L7.11224 20.7804C7.10048 20.4568 7.1041 20.1343 7.12139 19.8131C7.29866 19.8526 7.47639 19.8907 7.65357 19.9259C7.68659 19.9324 7.71951 19.9356 7.75193 19.9356C7.98691 19.9356 8.19696 19.77 8.2444 19.5308C8.29844 19.2585 8.12151 18.9939 7.84924 18.9399C7.64085 18.8986 7.43186 18.8529 7.22402 18.8054C7.33691 18.0538 7.52962 17.3127 7.80285 16.5884L7.80863 16.5729C8.04391 15.9314 8.20148 15.2651 8.2816 14.5904C8.55749 14.5884 8.78061 14.3643 8.78061 14.088C8.78061 13.8326 8.59001 13.6222 8.34342 13.5901C8.34825 12.6704 8.21058 11.7497 7.92885 10.8682L7.41728 9.26748C7.49609 9.28397 7.57501 9.30126 7.65362 9.31684C7.68659 9.32337 7.71951 9.32654 7.75193 9.32654C7.98691 9.32654 8.19696 9.16088 8.2444 8.92163C8.29844 8.64935 8.12151 8.38482 7.84924 8.33079C7.58722 8.27882 7.32344 8.22086 7.06318 8.15934L6.24958 5.61359C6.19585 5.44542 6.21103 5.26653 6.29251 5.10986C6.37393 4.95314 6.5116 4.83784 6.68013 4.78522L9.15999 4.01032C9.20357 4.09451 9.25001 4.17769 9.30082 4.25751C9.39657 4.4081 9.55922 4.49043 9.72539 4.49043C9.81767 4.49043 9.91101 4.46504 9.99465 4.41182C10.2289 4.26284 10.2979 3.95216 10.149 3.71794C10.1272 3.68376 10.1064 3.64883 10.0865 3.61334C10.4786 3.32338 10.7509 2.88403 10.8217 2.38804L10.9222 1.68467C10.9319 1.61631 10.9914 1.56479 11.0604 1.56479H12.9395C13.0085 1.56479 13.068 1.61631 13.0777 1.68467L13.1782 2.38804C13.2491 2.88398 13.5213 3.32338 13.9134 3.61334C13.8935 3.64878 13.8727 3.68376 13.8509 3.71794C13.702 3.95216 13.771 4.26284 14.0053 4.41182C14.0889 4.46504 14.1822 4.49043 14.2745 4.49043C14.4407 4.49043 14.6033 4.40805 14.6991 4.25751C14.7499 4.17764 14.7963 4.09446 14.8399 4.01027L17.3197 4.78522C17.4883 4.83789 17.6259 4.95319 17.7073 5.10986C17.7888 5.26653 17.804 5.44542 17.7503 5.61359L16.9094 8.24484C16.6593 8.29932 16.4066 8.35074 16.1555 8.39643C15.8824 8.44614 15.7013 8.70781 15.751 8.98094C15.7952 9.2236 16.0067 9.39364 16.2449 9.39364C16.2748 9.39364 16.3051 9.39098 16.3355 9.3854C16.4097 9.37188 16.4842 9.3568 16.5586 9.34247L16.071 10.8682C15.7889 11.7509 15.6513 12.6729 15.6563 13.5933C15.4203 13.6346 15.2408 13.8401 15.2408 14.0879C15.2408 14.3569 15.4523 14.5759 15.7179 14.5892C15.7979 15.2634 15.9551 15.9287 16.1899 16.5688L16.1969 16.5878C16.4792 17.3365 16.6761 18.1027 16.7872 18.88Z" fill="currentColor"/>
<path d="M11.6152 14.5906H12.4057C12.6832 14.5906 12.9083 14.3656 12.9083 14.088C12.9083 13.8104 12.6832 13.5853 12.4057 13.5853H11.6152C11.3376 13.5853 11.1125 13.8104 11.1125 14.088C11.1125 14.3656 11.3376 14.5906 11.6152 14.5906Z" fill="currentColor"/>
<path d="M10.3419 13.5853H9.55145C9.2739 13.5853 9.04883 13.8104 9.04883 14.088C9.04883 14.3656 9.2739 14.5906 9.55145 14.5906H10.3419C10.6195 14.5906 10.8446 14.3656 10.8446 14.088C10.8446 13.8104 10.6195 13.5853 10.3419 13.5853Z" fill="currentColor"/>
<path d="M14.4699 14.5906C14.7474 14.5906 14.9725 14.3656 14.9725 14.088C14.9725 13.8104 14.7474 13.5853 14.4699 13.5853H13.6794C13.4018 13.5853 13.1768 13.8104 13.1768 14.088C13.1768 14.3656 13.4018 14.5906 13.6794 14.5906H14.4699Z" fill="currentColor"/>
<path d="M10.5116 5.37353C10.7225 5.48451 10.946 5.57182 11.1759 5.63299C11.2192 5.6445 11.2627 5.64998 11.3055 5.64998C11.5277 5.64998 11.731 5.5014 11.7909 5.27642C11.8622 5.00817 11.7025 4.73283 11.4343 4.66151C11.2771 4.61969 11.1242 4.55998 10.98 4.48403C10.7342 4.35471 10.4304 4.449 10.301 4.69463C10.1717 4.94022 10.266 5.24421 10.5116 5.37353Z" fill="currentColor"/>
<path d="M12.6933 5.65018C12.736 5.65018 12.7794 5.6447 12.8226 5.63324C13.0525 5.57217 13.276 5.48492 13.4871 5.37394C13.7327 5.24471 13.8271 4.94078 13.6978 4.69509C13.5686 4.44941 13.2646 4.35507 13.019 4.48429C12.8747 4.56024 12.7218 4.6199 12.5645 4.66167C12.2962 4.73294 12.1365 5.00823 12.2078 5.27648C12.2676 5.50151 12.4709 5.65018 12.6933 5.65018Z" fill="currentColor"/>
<path d="M13.4024 9.23074C13.4225 9.49457 13.6427 9.69516 13.903 9.69516C13.9158 9.69516 13.9288 9.69466 13.9417 9.69371C14.2476 9.67038 14.5572 9.64053 14.8621 9.60504C15.1378 9.57293 15.3353 9.32337 15.3032 9.04763C15.2711 8.77194 15.0215 8.57466 14.7458 8.60653C14.4542 8.6405 14.158 8.66905 13.8652 8.69137C13.5885 8.71248 13.3812 8.95394 13.4024 9.23074Z" fill="currentColor"/>
<path d="M9.12344 9.55972C9.42752 9.59998 9.73664 9.63471 10.0423 9.66291C10.058 9.66432 10.0736 9.66502 10.089 9.66502C10.3458 9.66502 10.5649 9.4692 10.5889 9.20849C10.6144 8.93204 10.411 8.68732 10.1346 8.66183C9.84219 8.63489 9.5464 8.60167 9.25548 8.56312C8.98044 8.52678 8.72767 8.72019 8.69118 8.99537C8.65474 9.27061 8.8482 9.52323 9.12344 9.55972Z" fill="currentColor"/>
<path d="M12.4479 8.75409C12.4458 8.75409 12.4437 8.75409 12.4417 8.75409C12.3528 8.7552 12.264 8.7557 12.175 8.7557C12.1741 8.7557 12.1734 8.7557 12.1726 8.7557C11.9684 8.7557 11.7613 8.75284 11.5571 8.74716C11.2772 8.73982 11.0484 8.95816 11.0407 9.23561C11.033 9.51311 11.2517 9.74432 11.5292 9.75201C11.7426 9.75794 11.959 9.76096 12.1724 9.76096C12.2658 9.76025 12.3601 9.76041 12.4539 9.7593C12.7314 9.75593 12.9538 9.52814 12.9504 9.25059C12.947 8.9751 12.7226 8.75409 12.4479 8.75409Z" fill="currentColor"/>
<path d="M12.4479 19.3632C12.4459 19.3632 12.4437 19.3632 12.4417 19.3632C12.1471 19.3669 11.8499 19.3643 11.5571 19.3562C11.5523 19.3561 11.5476 19.356 11.5429 19.356C11.2718 19.356 11.0483 19.5719 11.0407 19.8447C11.033 20.1222 11.2517 20.3534 11.5292 20.3611C11.7428 20.367 11.9601 20.3701 12.1751 20.3701C12.268 20.3701 12.361 20.3695 12.4539 20.3684C12.7314 20.365 12.9538 20.1372 12.9504 19.8597C12.947 19.5842 12.7226 19.3632 12.4479 19.3632Z" fill="currentColor"/>
<path d="M14.7458 19.2156C14.4541 19.2496 14.1579 19.2781 13.8652 19.3004C13.5884 19.3216 13.3811 19.5631 13.4022 19.8398C13.4223 20.1036 13.6426 20.3042 13.9028 20.3042C13.9157 20.3042 13.9286 20.3037 13.9416 20.3028C14.2475 20.2795 14.5571 20.2496 14.862 20.2141C15.1377 20.182 15.3352 19.9324 15.3031 19.6567C15.271 19.381 15.0215 19.1836 14.7458 19.2156Z" fill="currentColor"/>
<path d="M10.1345 19.271C9.84208 19.244 9.54629 19.2108 9.25536 19.1723C8.98033 19.1359 8.72756 19.3293 8.69106 19.6045C8.65457 19.8797 8.84809 20.1323 9.12332 20.1688C9.42741 20.2091 9.73653 20.2438 10.0422 20.272C10.0579 20.2734 10.0734 20.2741 10.0889 20.2741C10.3457 20.2741 10.5648 20.0783 10.5888 19.8176C10.6143 19.5412 10.4109 19.2965 10.1345 19.271Z" fill="currentColor"/>
</g>
<defs>
<clipPath id="clip0_338_5809">
<rect width="24" height="24" fill="white" transform="translate(0 0.55954)"/>
</clipPath>
</defs>
</svg>
