<svg width="24" height="25" viewBox="0 0 24 25" fill="none" xmlns="http://www.w3.org/2000/svg">
<g clip-path="url(#clip0_338_5803)">
<path d="M17.9026 8.42622H12.4378C11.2054 8.42622 10.1127 9.1653 9.6539 10.3092L9.1471 11.5729C9.08087 11.738 9.10091 11.9252 9.20057 12.0725C9.30023 12.2199 9.46648 12.3081 9.64437 12.3081H17.9026C18.9366 12.3081 19.7779 11.4669 19.7779 10.4328V10.3015C19.7779 9.26742 18.9366 8.42622 17.9026 8.42622ZM18.7063 10.4328C18.7063 10.876 18.3457 11.2365 17.9026 11.2365H17.0295C17.0414 11.1922 17.0484 11.1459 17.0484 11.0979C17.0484 10.8019 16.8085 10.5621 16.5126 10.5621H13.4528C13.1569 10.5621 12.917 10.8019 12.917 11.0979C12.917 11.1459 12.9239 11.1922 12.9358 11.2365H10.4365L10.6485 10.708C10.9433 9.97279 11.6457 9.49776 12.4378 9.49776H17.9026C18.3457 9.49776 18.7063 9.8583 18.7063 10.3015V10.4328Z" fill="currentColor"/>
<path d="M23.8431 5.54419C23.6338 5.33491 23.2946 5.33497 23.0854 5.54419L21.7322 6.89734C21.2993 6.58621 20.771 6.40275 20.2062 6.40275H12.0476C8.69959 6.40275 5.65146 8.24337 4.09267 11.2063L0.848485 17.3727C0.761096 17.5388 0.76699 17.7384 0.864023 17.8991C0.961055 18.0598 1.13503 18.1579 1.32272 18.1579H1.46749L1.21636 18.6601H0.535795C0.239875 18.6601 0 18.9 0 19.1959C0 19.4918 0.239875 19.7317 0.535795 19.7317H19.3087C19.6046 19.7317 19.8445 19.4918 19.8445 19.1959C19.8445 18.9 19.6046 18.6601 19.3087 18.6601H18.4955V18.1579H19.3087C19.6046 18.1579 19.8445 17.918 19.8445 17.6221C19.8445 15.8977 20.8032 14.3468 22.3466 13.5746C22.7651 13.3652 22.9269 12.8183 22.9437 11.5565C22.9531 10.8491 22.9135 9.92956 22.8259 8.82336C22.7931 8.4093 22.6628 8.02294 22.4595 7.68544L23.8431 6.30191C24.0523 6.09269 24.0524 5.75342 23.8431 5.54419ZM6.85715 9.40984V10.955C6.85715 12.0263 5.98558 12.8979 4.91426 12.8979H4.4135L5.04103 11.7051C5.50818 10.8172 6.12751 10.044 6.85715 9.40984ZM17.424 18.6601H2.41445L2.66558 18.1579H17.424V18.6601ZM2.20999 17.0863L2.47403 16.5844H18.8685C18.8377 16.7496 18.814 16.917 18.798 17.0863H2.20999ZM21.7658 12.6682C20.5694 13.2967 19.6688 14.3091 19.1817 15.5128H3.0378L3.84974 13.9695H4.91426C6.57645 13.9695 7.92874 12.6172 7.92874 10.955V8.62651C9.14569 7.88551 10.563 7.47434 12.0475 7.47434H20.2061C21.0124 7.47434 21.6939 8.10406 21.7576 8.90802C21.9783 11.6951 21.8279 12.4762 21.7658 12.6682Z" fill="currentColor"/>
</g>
<defs>
<clipPath id="clip0_338_5803">
<rect width="24" height="24" fill="white" transform="translate(0 0.55954)"/>
</clipPath>
</defs>
</svg>
