<svg width="43" height="43" viewBox="0 0 43 43" fill="none" xmlns="http://www.w3.org/2000/svg">
<rect x="0.4375" y="0.70166" width="42" height="42" rx="21" fill="#E92B66"/>
<path d="M20.4375 30.4517C15.0575 30.4517 10.6875 26.0817 10.6875 20.7017C10.6875 15.3217 15.0575 10.9517 20.4375 10.9517C25.8175 10.9517 30.1875 15.3217 30.1875 20.7017C30.1875 26.0817 25.8175 30.4517 20.4375 30.4517ZM20.4375 12.4517C15.8875 12.4517 12.1875 16.1517 12.1875 20.7017C12.1875 25.2517 15.8875 28.9517 20.4375 28.9517C24.9875 28.9517 28.6875 25.2517 28.6875 20.7017C28.6875 16.1517 24.9875 12.4517 20.4375 12.4517Z" fill="white"/>
<path d="M22.9375 21.4517H17.9375C17.5275 21.4517 17.1875 21.1117 17.1875 20.7017C17.1875 20.2917 17.5275 19.9517 17.9375 19.9517H22.9375C23.3475 19.9517 23.6875 20.2917 23.6875 20.7017C23.6875 21.1117 23.3475 21.4517 22.9375 21.4517Z" fill="white"/>
<path d="M20.4375 23.9517C20.0275 23.9517 19.6875 23.6117 19.6875 23.2017V18.2017C19.6875 17.7917 20.0275 17.4517 20.4375 17.4517C20.8475 17.4517 21.1875 17.7917 21.1875 18.2017V23.2017C21.1875 23.6117 20.8475 23.9517 20.4375 23.9517Z" fill="white"/>
<path d="M29.5976 32.4917C29.5176 32.4917 29.4376 32.4817 29.3676 32.4717C28.8976 32.4117 28.0476 32.0917 27.5676 30.6617C27.3176 29.9117 27.4076 29.1617 27.8176 28.5917C28.2276 28.0217 28.9176 27.7017 29.7076 27.7017C30.7276 27.7017 31.5276 28.0917 31.8876 28.7817C32.2476 29.4717 32.1476 30.3517 31.5776 31.2017C30.8676 32.2717 30.0976 32.4917 29.5976 32.4917ZM28.9976 30.1917C29.1676 30.7117 29.4076 30.9717 29.5676 30.9917C29.7276 31.0117 30.0276 30.8217 30.3376 30.3717C30.6276 29.9417 30.6476 29.6317 30.5776 29.4917C30.5076 29.3517 30.2276 29.2017 29.7076 29.2017C29.3976 29.2017 29.1676 29.3017 29.0376 29.4717C28.9176 29.6417 28.8976 29.9017 28.9976 30.1917Z" fill="white"/>
</svg>
