<svg width="18" height="19" viewBox="0 0 18 19" fill="none" xmlns="http://www.w3.org/2000/svg">
<path d="M12.75 16.6233H5.25C2.5125 16.6233 0.9375 15.0483 0.9375 12.3108V7.06079C0.9375 4.32329 2.5125 2.74829 5.25 2.74829H12.75C15.4875 2.74829 17.0625 4.32329 17.0625 7.06079V12.3108C17.0625 15.0483 15.4875 16.6233 12.75 16.6233ZM5.25 3.87329C3.105 3.87329 2.0625 4.91579 2.0625 7.06079V12.3108C2.0625 14.4558 3.105 15.4983 5.25 15.4983H12.75C14.895 15.4983 15.9375 14.4558 15.9375 12.3108V7.06079C15.9375 4.91579 14.895 3.87329 12.75 3.87329H5.25Z" fill="white"/>
<path d="M8.99983 10.3383C8.36983 10.3383 7.73234 10.1433 7.24484 9.74577L4.89733 7.87077C4.65733 7.67577 4.61234 7.32327 4.80734 7.08327C5.00234 6.84327 5.35484 6.79827 5.59484 6.99327L7.94233 8.86827C8.51233 9.32577 9.47983 9.32577 10.0498 8.86827L12.3973 6.99327C12.6373 6.79827 12.9973 6.83577 13.1848 7.08327C13.3798 7.32327 13.3423 7.68327 13.0948 7.87077L10.7473 9.74577C10.2673 10.1433 9.62983 10.3383 8.99983 10.3383Z" fill="white"/>
</svg>
