<svg width="17" height="16" viewBox="0 0 17 16" fill="none" xmlns="http://www.w3.org/2000/svg">
<g clip-path="url(#clip0_13_753)">
<path d="M14.875 6.66667C14.875 11.3333 8.875 15.3333 8.875 15.3333C8.875 15.3333 2.875 11.3333 2.875 6.66667C2.875 5.07537 3.50714 3.54924 4.63236 2.42403C5.75758 1.29881 7.2837 0.666667 8.875 0.666667C10.4663 0.666667 11.9924 1.29881 13.1176 2.42403C14.2429 3.54924 14.875 5.07537 14.875 6.66667Z" stroke="#273645" stroke-width="1.5" stroke-linecap="round" stroke-linejoin="round"/>
<path d="M8.875 8.66667C9.97957 8.66667 10.875 7.77124 10.875 6.66667C10.875 5.5621 9.97957 4.66667 8.875 4.66667C7.77043 4.66667 6.875 5.5621 6.875 6.66667C6.875 7.77124 7.77043 8.66667 8.875 8.66667Z" stroke="#273645" stroke-width="1.5" stroke-linecap="round" stroke-linejoin="round"/>
</g>
<defs>
<clipPath id="clip0_13_753">
<rect width="16" height="16" fill="white" transform="translate(0.875)"/>
</clipPath>
</defs>
</svg>
