<svg width="33" height="33" viewBox="0 0 33 33" fill="none" xmlns="http://www.w3.org/2000/svg">
<g clip-path="url(#clip0_291_3262)">
<rect x="0.4375" y="0.55957" width="32" height="32" rx="16" fill="#EE8208"/>
<path d="M16.4374 9.11972C17.6945 9.11972 18.717 10.1423 18.717 11.3993C18.717 12.6554 17.6942 13.6779 16.4374 13.6779C15.1811 13.6779 14.1583 12.6554 14.1583 11.3993C14.158 10.142 15.1813 9.11972 16.4374 9.11972ZM16.4374 16.9031C19.4739 16.9031 21.9432 14.4345 21.9432 11.3993C21.9432 8.36257 19.4741 5.89294 16.4374 5.89294C13.4011 5.89294 10.9315 8.36284 10.9315 11.3993C10.9315 14.4345 13.4011 16.9031 16.4374 16.9031ZM18.6648 21.3941C19.7974 21.1361 20.8783 20.6886 21.8618 20.0703C22.2239 19.8425 22.4806 19.4802 22.5755 19.0632C22.6705 18.6461 22.5958 18.2084 22.3681 17.8463C22.2554 17.6668 22.1085 17.5114 21.9357 17.3887C21.7629 17.2661 21.5676 17.1788 21.361 17.1317C21.1545 17.0846 20.9406 17.0787 20.7317 17.1143C20.5229 17.1499 20.3231 17.2264 20.1438 17.3392C17.8882 18.7574 14.985 18.7563 12.7312 17.3392C12.5519 17.2263 12.3522 17.1499 12.1433 17.1142C11.9345 17.0786 11.7206 17.0845 11.5141 17.1316C11.3075 17.1787 11.1122 17.2661 10.9395 17.3887C10.7667 17.5113 10.6198 17.6668 10.5072 17.8463C10.2794 18.2083 10.2046 18.6459 10.2994 19.063C10.3942 19.48 10.6508 19.8424 11.0127 20.0703C11.9961 20.6883 13.0767 21.1359 14.2091 21.3941L11.1313 24.4725C10.8288 24.775 10.6589 25.1854 10.659 25.6132C10.6591 26.041 10.8291 26.4513 11.1317 26.7538C11.4342 27.0563 11.8446 27.2262 12.2724 27.2261C12.7002 27.226 13.1105 27.056 13.413 26.7534L16.4368 23.729L19.4625 26.7537C19.6121 26.9035 19.7898 27.0223 19.9854 27.1034C20.181 27.1845 20.3906 27.2263 20.6023 27.2263C20.8141 27.2263 21.0237 27.1845 21.2193 27.1034C21.4149 27.0223 21.5926 26.9035 21.7422 26.7537C21.8922 26.6041 22.0112 26.4263 22.0925 26.2307C22.1737 26.035 22.2155 25.8252 22.2155 25.6133C22.2155 25.4015 22.1737 25.1917 22.0925 24.996C22.0112 24.8003 21.8922 24.6226 21.7422 24.473L18.6648 21.3941Z" fill="white"/>
</g>
<defs>
<clipPath id="clip0_291_3262">
<rect width="32" height="32" fill="white" transform="translate(0.4375 0.55957)"/>
</clipPath>
</defs>
</svg>
