<svg width="17" height="16" viewBox="0 0 17 16" fill="none" xmlns="http://www.w3.org/2000/svg">
<path d="M10.425 15.1667H6.82505C3.53171 15.1667 2.13171 13.76 2.13171 10.4733V7.48001C2.13171 7.20668 2.35838 6.98001 2.63171 6.98001C2.90505 6.98001 3.13171 7.20668 3.13171 7.48001V10.4733C3.13171 13.2 4.09838 14.1667 6.82505 14.1667H10.4184C13.145 14.1667 14.1117 13.2 14.1117 10.4733V7.48001C14.1117 7.20668 14.3384 6.98001 14.6117 6.98001C14.885 6.98001 15.1117 7.20668 15.1117 7.48001V10.4733C15.1184 13.76 13.7117 15.1667 10.425 15.1667Z" fill="white"/>
<path d="M8.62496 8.50001C7.89163 8.50001 7.22496 8.21334 6.75163 7.68668C6.27829 7.16001 6.05829 6.47334 6.13163 5.74001L6.57829 1.28668C6.60496 1.03334 6.81829 0.833344 7.07829 0.833344H10.1916C10.4516 0.833344 10.665 1.02668 10.6916 1.28668L11.1383 5.74001C11.2116 6.47334 10.9916 7.16001 10.5183 7.68668C10.025 8.21334 9.35829 8.50001 8.62496 8.50001ZM7.52496 1.83334L7.12496 5.84001C7.07829 6.28668 7.21163 6.70668 7.49163 7.01334C8.05829 7.64001 9.19163 7.64001 9.75829 7.01334C10.0383 6.70001 10.1716 6.28001 10.125 5.84001L9.72496 1.83334H7.52496Z" fill="white"/>
<path d="M12.8316 8.50001C11.4783 8.50001 10.2716 7.40668 10.1316 6.06001L9.66496 1.38668C9.65163 1.24668 9.69829 1.10668 9.79163 1.00001C9.88496 0.893344 10.0183 0.833344 10.165 0.833344H12.1983C14.1583 0.833344 15.0716 1.65334 15.345 3.66668L15.5316 5.52001C15.6116 6.30668 15.3716 7.05334 14.8583 7.62001C14.345 8.18668 13.625 8.50001 12.8316 8.50001ZM10.7183 1.83334L11.1316 5.96001C11.2183 6.79334 11.9916 7.50001 12.8316 7.50001C13.3383 7.50001 13.7916 7.30668 14.1183 6.95334C14.4383 6.60001 14.585 6.12668 14.5383 5.62001L14.3516 3.78668C14.145 2.28001 13.6583 1.83334 12.1983 1.83334H10.7183Z" fill="white"/>
<path d="M4.38501 8.50001C3.59168 8.50001 2.87168 8.18668 2.35835 7.62001C1.84501 7.05334 1.60501 6.30668 1.68501 5.52001L1.86501 3.68668C2.14501 1.65334 3.05835 0.833344 5.01835 0.833344H7.05168C7.19168 0.833344 7.32501 0.893344 7.42501 1.00001C7.52501 1.10668 7.56501 1.24668 7.55168 1.38668L7.08501 6.06001C6.94501 7.40668 5.73835 8.50001 4.38501 8.50001ZM5.01835 1.83334C3.55835 1.83334 3.07168 2.27334 2.85835 3.80001L2.67835 5.62001C2.62501 6.12668 2.77835 6.60001 3.09835 6.95334C3.41835 7.30668 3.87168 7.50001 4.38501 7.50001C5.22501 7.50001 6.00501 6.79334 6.08501 5.96001L6.49835 1.83334H5.01835Z" fill="white"/>
<path d="M10.2917 15.1667H6.95837C6.68504 15.1667 6.45837 14.94 6.45837 14.6667V13C6.45837 11.6 7.22504 10.8333 8.62504 10.8333C10.025 10.8333 10.7917 11.6 10.7917 13V14.6667C10.7917 14.94 10.565 15.1667 10.2917 15.1667ZM7.45837 14.1667H9.79171V13C9.79171 12.16 9.46504 11.8333 8.62504 11.8333C7.78504 11.8333 7.45837 12.16 7.45837 13V14.1667Z" fill="white"/>
</svg>
