<svg width="18" height="19" viewBox="0 0 18 19" fill="none" xmlns="http://www.w3.org/2000/svg">
<path d="M13.0875 17.7483C12.24 17.7483 11.3475 17.5458 10.425 17.1558C9.525 16.7733 8.6175 16.2483 7.7325 15.6108C6.855 14.9658 6.0075 14.2458 5.205 13.4583C4.41 12.6558 3.69 11.8083 3.0525 10.9383C2.4075 10.0383 1.89 9.13829 1.5225 8.26829C1.1325 7.33829 0.9375 6.43829 0.9375 5.59079C0.9375 5.00579 1.0425 4.45079 1.245 3.93329C1.455 3.40079 1.7925 2.90579 2.25 2.47829C2.8275 1.90829 3.4875 1.62329 4.1925 1.62329C4.485 1.62329 4.785 1.69079 5.04 1.81079C5.3325 1.94579 5.58 2.14829 5.76 2.41829L7.5 4.87079C7.6575 5.08829 7.7775 5.29829 7.86 5.50829C7.9575 5.73329 8.01 5.95829 8.01 6.17579C8.01 6.46079 7.9275 6.73829 7.77 7.00079C7.6575 7.20329 7.485 7.42079 7.2675 7.63829L6.7575 8.17079C6.765 8.19329 6.7725 8.20829 6.78 8.22329C6.87 8.38079 7.05 8.65079 7.395 9.05579C7.7625 9.47579 8.1075 9.85829 8.4525 10.2108C8.895 10.6458 9.2625 10.9908 9.6075 11.2758C10.035 11.6358 10.3125 11.8158 10.4775 11.8983L10.4625 11.9358L11.01 11.3958C11.2425 11.1633 11.4675 10.9908 11.685 10.8783C12.0975 10.6233 12.6225 10.5783 13.1475 10.7958C13.3425 10.8783 13.5525 10.9908 13.7775 11.1483L16.2675 12.9183C16.545 13.1058 16.7475 13.3458 16.8675 13.6308C16.98 13.9158 17.0325 14.1783 17.0325 14.4408C17.0325 14.8008 16.95 15.1608 16.7925 15.4983C16.635 15.8358 16.44 16.1283 16.1925 16.3983C15.765 16.8708 15.3 17.2083 14.76 17.4258C14.2425 17.6358 13.68 17.7483 13.0875 17.7483ZM4.1925 2.74829C3.78 2.74829 3.3975 2.92829 3.03 3.28829C2.685 3.61079 2.445 3.96329 2.295 4.34579C2.1375 4.73579 2.0625 5.14829 2.0625 5.59079C2.0625 6.28829 2.2275 7.04579 2.5575 7.82579C2.895 8.62079 3.3675 9.44579 3.9675 10.2708C4.5675 11.0958 5.25 11.8983 6 12.6558C6.75 13.3983 7.56 14.0883 8.3925 14.6958C9.2025 15.2883 10.035 15.7683 10.86 16.1133C12.1425 16.6608 13.3425 16.7883 14.3325 16.3758C14.715 16.2183 15.0525 15.9783 15.36 15.6333C15.5325 15.4458 15.6675 15.2433 15.78 15.0033C15.87 14.8158 15.915 14.6208 15.915 14.4258C15.915 14.3058 15.8925 14.1858 15.8325 14.0508C15.81 14.0058 15.765 13.9233 15.6225 13.8258L13.1325 12.0558C12.9825 11.9508 12.8475 11.8758 12.72 11.8233C12.555 11.7558 12.4875 11.6883 12.2325 11.8458C12.0825 11.9208 11.9475 12.0333 11.7975 12.1833L11.2275 12.7458C10.935 13.0308 10.485 13.0983 10.14 12.9708L9.9375 12.8808C9.63 12.7158 9.27 12.4608 8.8725 12.1233C8.5125 11.8158 8.1225 11.4558 7.65 10.9908C7.2825 10.6158 6.915 10.2183 6.5325 9.77579C6.18 9.36329 5.925 9.01079 5.7675 8.71829L5.6775 8.49329C5.6325 8.32079 5.6175 8.22329 5.6175 8.11829C5.6175 7.84829 5.715 7.60829 5.9025 7.42079L6.465 6.83579C6.615 6.68579 6.7275 6.54329 6.8025 6.41579C6.8625 6.31829 6.885 6.23579 6.885 6.16079C6.885 6.10079 6.8625 6.01079 6.825 5.92079C6.7725 5.80079 6.69 5.66579 6.585 5.52329L4.845 3.06329C4.77 2.95829 4.68 2.88329 4.5675 2.83079C4.4475 2.77829 4.32 2.74829 4.1925 2.74829ZM10.4625 11.9433L10.3425 12.4533L10.545 11.9283C10.5075 11.9208 10.4775 11.9283 10.4625 11.9433Z" fill="white"/>
</svg>
