<svg width="33" height="33" viewBox="0 0 33 33" fill="none" xmlns="http://www.w3.org/2000/svg">
<g clip-path="url(#clip0_291_3276)">
<rect x="0.4375" y="0.55957" width="32" height="32" rx="16" fill="#419FD9"/>
<path fill-rule="evenodd" clip-rule="evenodd" d="M19.9947 24.4824C21.1131 24.9717 21.5324 23.9466 21.5324 23.9466L24.4914 9.08197C24.4681 8.08012 23.1167 8.68589 23.1167 8.68589L6.55134 15.1862C6.55134 15.1862 5.75918 15.4658 5.82907 15.9551C5.89897 16.4444 6.52804 16.6774 6.52804 16.6774L10.6985 18.0753C10.6985 18.0753 11.9566 22.1992 12.2129 22.9913C12.4459 23.7602 12.6556 23.7835 12.6556 23.7835C12.8886 23.8767 13.0983 23.7136 13.0983 23.7136L15.8009 21.2672L19.9947 24.4824ZM20.717 11.7147C20.717 11.7147 21.2994 11.3652 21.2761 11.7147C21.2761 11.7147 21.3693 11.7613 21.0665 12.0875C20.7869 12.3671 14.1933 18.285 13.308 19.0771C13.2381 19.1237 13.1915 19.1936 13.1915 19.2868L12.9352 21.4769C12.8886 21.7099 12.5857 21.7332 12.5158 21.5235L11.4208 17.9355C11.3742 17.7957 11.4208 17.6326 11.5606 17.5394L20.717 11.7147Z" fill="white"/>
</g>
<defs>
<clipPath id="clip0_291_3276">
<rect width="32" height="32" fill="white" transform="translate(0.4375 0.55957)"/>
</clipPath>
</defs>
</svg>
