<svg width="33" height="33" viewBox="0 0 33 33" fill="none" xmlns="http://www.w3.org/2000/svg">
<g clip-path="url(#clip0_291_3266)">
<rect x="0.4375" y="0.55957" width="32" height="32" rx="16" fill="#5181B8"/>
<path fill-rule="evenodd" clip-rule="evenodd" d="M26.6149 11.5826C26.7632 11.0882 26.6149 10.7247 25.909 10.7247H23.5752C22.9817 10.7247 22.7083 11.0386 22.5599 11.3849C22.5599 11.3849 21.373 14.2777 19.6916 16.1568C19.1476 16.7008 18.9004 16.8737 18.6037 16.8737C18.4553 16.8737 18.2406 16.7008 18.2406 16.2063V11.5826C18.2406 10.9891 18.0684 10.7247 17.5738 10.7247H13.9062C13.5355 10.7247 13.3124 11.0001 13.3124 11.2612C13.3124 11.8238 14.153 11.9535 14.2396 13.5359V16.9729C14.2396 17.7264 14.1036 17.8631 13.8069 17.8631C13.0157 17.8631 11.0912 14.9571 9.94964 11.6321C9.72592 10.9858 9.50153 10.7247 8.90506 10.7247H6.57118C5.90436 10.7247 5.771 11.0386 5.771 11.3849C5.771 12.003 6.56235 15.0691 9.45519 19.124C11.384 21.893 14.1009 23.3944 16.5735 23.3944C18.0572 23.3944 18.2406 23.0609 18.2406 22.4866V20.3937C18.2406 19.7268 18.3811 19.5938 18.8507 19.5938C19.1971 19.5938 19.7904 19.7668 21.1753 21.102C22.7576 22.6842 23.0184 23.3944 23.9086 23.3944H26.2424C26.9093 23.3944 27.2427 23.0609 27.0503 22.403C26.8399 21.7471 26.0844 20.7959 25.0818 19.668C24.5379 19.025 23.7219 18.3327 23.4748 17.9866C23.1285 17.5415 23.2274 17.3438 23.4748 16.9484C23.4748 16.9484 26.3181 12.9427 26.6149 11.5828V11.5826Z" fill="white"/>
</g>
<defs>
<clipPath id="clip0_291_3266">
<rect width="32" height="32" fill="white" transform="translate(0.4375 0.55957)"/>
</clipPath>
</defs>
</svg>
