<svg width="33" height="33" viewBox="0 0 33 33" fill="none" xmlns="http://www.w3.org/2000/svg">
<g clip-path="url(#clip0_291_3270)">
<rect x="0.4375" y="0.55957" width="32" height="32" rx="16" fill="#FF0000"/>
<path fill-rule="evenodd" clip-rule="evenodd" d="M24.2628 9.98632C25.1195 10.217 25.7949 10.8924 26.0256 11.7491C26.4539 13.3141 26.4374 16.5761 26.4374 16.5761C26.4374 16.5761 26.4374 19.8215 26.0256 21.3866C25.7949 22.2433 25.1195 22.9187 24.2628 23.1494C22.6977 23.5612 16.4375 23.5612 16.4375 23.5612C16.4375 23.5612 10.1937 23.5612 8.61212 23.1329C7.75545 22.9022 7.08 22.2268 6.84936 21.3701C6.4375 19.8215 6.4375 16.5596 6.4375 16.5596C6.4375 16.5596 6.4375 13.3141 6.84936 11.7491C7.08 10.8924 7.77193 10.2005 8.61212 9.96984C10.1772 9.55798 16.4375 9.55798 16.4375 9.55798C16.4375 9.55798 22.6977 9.55798 24.2628 9.98632ZM19.6499 16.5597L14.444 19.558V13.5613L19.6499 16.5597Z" fill="white"/>
</g>
<defs>
<clipPath id="clip0_291_3270">
<rect width="32" height="32" fill="white" transform="translate(0.4375 0.55957)"/>
</clipPath>
</defs>
</svg>
