<svg width="17" height="16" viewBox="0 0 17 16" fill="none" xmlns="http://www.w3.org/2000/svg">
<path d="M12.1334 15.1667C11.38 15.1667 10.5867 14.9867 9.76671 14.64C8.96671 14.3 8.16004 13.8333 7.37337 13.2667C6.59337 12.6933 5.84004 12.0533 5.12671 11.3533C4.42004 10.64 3.78004 9.88667 3.21337 9.11333C2.64004 8.31333 2.18004 7.51333 1.85337 6.74C1.50671 5.91333 1.33337 5.11333 1.33337 4.36C1.33337 3.84 1.42671 3.34667 1.60671 2.88667C1.79337 2.41333 2.09337 1.97333 2.50004 1.59333C3.01337 1.08667 3.60004 0.833333 4.22671 0.833333C4.48671 0.833333 4.75337 0.893333 4.98004 1C5.24004 1.12 5.46004 1.3 5.62004 1.54L7.16671 3.72C7.30671 3.91333 7.41337 4.1 7.48671 4.28667C7.57337 4.48667 7.62004 4.68667 7.62004 4.88C7.62004 5.13333 7.54671 5.38 7.40671 5.61333C7.30671 5.79333 7.15337 5.98667 6.96004 6.18L6.50671 6.65333C6.51337 6.67333 6.52004 6.68667 6.52671 6.7C6.60671 6.84 6.76671 7.08 7.07337 7.44C7.40004 7.81333 7.70671 8.15333 8.01337 8.46667C8.40671 8.85333 8.73337 9.16 9.04004 9.41333C9.42004 9.73333 9.66671 9.89333 9.81337 9.96667L9.80004 10L10.2867 9.52C10.4934 9.31333 10.6934 9.16 10.8867 9.06C11.2534 8.83333 11.72 8.79333 12.1867 8.98667C12.36 9.06 12.5467 9.16 12.7467 9.3L14.96 10.8733C15.2067 11.04 15.3867 11.2533 15.4934 11.5067C15.5934 11.76 15.64 11.9933 15.64 12.2267C15.64 12.5467 15.5667 12.8667 15.4267 13.1667C15.2867 13.4667 15.1134 13.7267 14.8934 13.9667C14.5134 14.3867 14.1 14.6867 13.62 14.88C13.16 15.0667 12.66 15.1667 12.1334 15.1667ZM4.22671 1.83333C3.86004 1.83333 3.52004 1.99333 3.19337 2.31333C2.88671 2.6 2.67337 2.91333 2.54004 3.25333C2.40004 3.6 2.33337 3.96667 2.33337 4.36C2.33337 4.98 2.48004 5.65333 2.77337 6.34667C3.07337 7.05333 3.49337 7.78667 4.02671 8.52C4.56004 9.25333 5.16671 9.96667 5.83337 10.64C6.50004 11.3 7.22004 11.9133 7.96004 12.4533C8.68004 12.98 9.42004 13.4067 10.1534 13.7133C11.2934 14.2 12.36 14.3133 13.24 13.9467C13.58 13.8067 13.88 13.5933 14.1534 13.2867C14.3067 13.12 14.4267 12.94 14.5267 12.7267C14.6067 12.56 14.6467 12.3867 14.6467 12.2133C14.6467 12.1067 14.6267 12 14.5734 11.88C14.5534 11.84 14.5134 11.7667 14.3867 11.68L12.1734 10.1067C12.04 10.0133 11.92 9.94667 11.8067 9.9C11.66 9.84 11.6 9.78 11.3734 9.92C11.24 9.98667 11.12 10.0867 10.9867 10.22L10.48 10.72C10.22 10.9733 9.82004 11.0333 9.51337 10.92L9.33337 10.84C9.06004 10.6933 8.74004 10.4667 8.38671 10.1667C8.06671 9.89333 7.72004 9.57333 7.30004 9.16C6.97337 8.82667 6.64671 8.47333 6.30671 8.08C5.99337 7.71333 5.76671 7.4 5.62671 7.14L5.54671 6.94C5.50671 6.78667 5.49337 6.7 5.49337 6.60667C5.49337 6.36667 5.58004 6.15333 5.74671 5.98667L6.24671 5.46667C6.38004 5.33333 6.48004 5.20667 6.54671 5.09333C6.60004 5.00667 6.62004 4.93333 6.62004 4.86667C6.62004 4.81333 6.60004 4.73333 6.56671 4.65333C6.52004 4.54667 6.44671 4.42667 6.35337 4.3L4.80671 2.11333C4.74004 2.02 4.66004 1.95333 4.56004 1.90667C4.45337 1.86 4.34004 1.83333 4.22671 1.83333ZM9.80004 10.0067L9.69337 10.46L9.87337 9.99333C9.84004 9.98667 9.81337 9.99333 9.80004 10.0067Z" fill="white"/>
</svg>
