<svg width="92" height="91" viewBox="0 0 92 91" fill="none" xmlns="http://www.w3.org/2000/svg">
<path d="M45.7342 0.944695C42.5063 4.51431 35 8.2738 27.4557 10.0713C25.076 10.6535 20.038 11.5396 19.1392 11.5523C18.9114 11.5523 18.9367 12.0586 19.2278 13.932C21.0127 25.413 25.6835 36.6789 31.8101 44.3118C32.5443 45.2358 33.1519 46.008 33.1519 46.046C33.1519 46.0839 32.1266 46.1092 30.8734 46.1092H28.6076L28.2911 45.5649C27.8101 44.7548 27.4937 44.5016 24.6709 42.7548C23.2405 41.8561 21.4937 40.7422 20.7722 40.2611C20.0506 39.7801 19.4177 39.4257 19.3418 39.4637C19.2278 39.5396 18.2152 40.9827 18.2152 41.0839C18.2152 41.1599 19.4177 41.9573 22.6456 43.9827C26.2658 46.2485 26.1519 46.1725 26.4557 46.6662C26.8608 47.3371 26.7722 47.6029 25.5949 49.3118C24.9747 50.1979 22.2658 54.1346 19.557 58.0713C15.962 63.3244 14.557 65.2738 14.3038 65.3624C14.0759 65.451 13.8228 65.451 13.5063 65.3624C13.2532 65.2738 11.5949 64.1472 9.83544 62.8434C8.07595 61.5396 5.94937 59.9953 5.11392 59.413C4.27848 58.8181 3.32911 58.1599 2.98734 57.9194C2.65823 57.6915 2.31646 57.5016 2.22785 57.5016C2.1519 57.5143 1.83544 57.8687 1.53165 58.2991L1 59.0839L1.27848 59.2991C1.44304 59.413 2.20253 59.9573 2.96203 60.489C5.21519 62.0713 7.37975 63.6535 9.48101 65.2358C11.962 67.1092 12.5316 67.4004 13.8101 67.4763C14.6329 67.527 14.8734 67.489 15.3671 67.2485C15.9114 66.9827 16.1139 66.7675 17.1646 65.4004L17.4557 65.0333L18.3544 65.97C18.9494 66.6029 19.4177 67.2358 19.7468 67.9194L20.2532 68.9194L19.6835 69.413C19.3291 69.7295 18.9494 70.2485 18.6962 70.7675C18.3165 71.5396 18.2785 71.7168 18.2785 72.7548C18.2911 74.1852 18.6329 75.0333 19.6582 76.0586C20.6329 77.0206 21.5316 77.413 22.7975 77.4257L23.7722 77.4384L23.8987 78.1979C24.0886 79.2485 24.6076 80.2105 25.3924 80.9194C26.3291 81.7801 27.2152 82.1092 28.6203 82.1092H29.7089L29.7975 82.6535C30 84.0206 31.1139 85.4384 32.4937 86.0839C33.1266 86.3877 33.3671 86.4257 34.519 86.4257C35.443 86.4257 35.8101 86.4637 35.8101 86.5776C35.8101 86.6662 35.9367 87.0586 36.0886 87.4637C36.4557 88.4637 37.5063 89.5143 38.5063 89.8814C39.5949 90.2865 40.7215 90.2611 41.7089 89.7928C42.1266 89.5903 42.6709 89.2611 42.9114 89.046L43.3418 88.6662L44.076 88.97C46.038 89.8054 48.0506 89.3497 49.5443 87.7295C50.2658 86.9573 50.7468 85.9194 50.7468 85.1599C50.7468 84.9194 50.7848 84.7042 50.8481 84.6789C50.8987 84.6409 51.3418 84.8687 51.8354 85.1599C53.1519 85.97 53.8228 86.1472 55.1519 86.0839C56.038 86.046 56.3924 85.9573 56.9747 85.6662C58.3291 84.9953 59.2911 83.7422 59.6203 82.2105C59.7089 81.8054 59.7975 81.4637 59.8101 81.4384C59.8354 81.4257 60.1519 81.5396 60.519 81.7168C62.0886 82.4637 63.481 82.489 64.8608 81.8181C66.3671 81.0713 67.5823 79.3624 67.5823 78.008C67.5823 77.7295 67.6329 77.5016 67.6835 77.5016C67.7468 77.5016 68.1013 77.6662 68.481 77.8687C69.5316 78.4384 70.5316 78.6789 71.5063 78.6156C74.8354 78.3751 76.8987 74.7295 75.4684 71.6409C75.2532 71.1852 74.8481 70.6029 74.5823 70.3244C74.3165 70.0586 72.557 68.8054 70.6835 67.5396C68.7975 66.2738 65.6962 64.1725 63.7848 62.8814C61.8734 61.5776 59.7595 60.1472 59.0886 59.7042L57.8861 58.8941H56.038C53.1646 58.8941 51.7975 58.5396 50.5316 57.451C49.5823 56.6282 49.0127 55.5016 48.7848 54.046L48.7089 53.5776H43.2785H37.8481L37.7089 54.2991C37.2785 56.451 36.7975 57.6662 35.9114 58.7928C35.4557 59.3751 34.1772 60.0333 33.5063 60.0333H33.0253V56.4384V52.8561L37.1392 50.5649L41.2532 48.2611H52.5443C58.7468 48.2611 63.8354 48.2738 63.8481 48.2865C63.8608 48.3118 64.1392 48.7801 64.481 49.3371C66.038 51.8941 75.5063 65.6662 76.3038 66.527C76.481 66.7295 76.9114 67.0333 77.2532 67.2105C77.7848 67.4763 78.0127 67.5143 78.7722 67.4763C79.8861 67.413 80.6962 67.0586 82.076 65.9953C83.4051 64.9827 88.0506 61.5903 89.7089 60.4257L91 59.5143V58.8561C91 58.3244 90.924 58.1219 90.6456 57.7928L90.3038 57.3877L87.5823 59.3118C86.0886 60.3751 83.6962 62.1219 82.2658 63.1979C79.6582 65.1599 78.9747 65.5396 78.4051 65.4004C77.924 65.2738 78.7595 66.451 68.7089 51.8181C67.1139 49.489 65.8101 47.5016 65.8101 47.3877C65.8101 47.1346 66.2785 46.3624 66.557 46.1472C66.6709 46.0586 67.557 45.489 68.5316 44.8814C72.5063 42.413 74.3165 41.1725 74.2405 40.97C74.1392 40.7168 73.2658 39.4004 73.2025 39.4004C73.1772 39.4004 72.0506 40.1092 70.7215 40.9573C69.3797 41.8181 67.6835 42.8814 66.9494 43.3244C65.519 44.1852 64.5823 44.9953 64.2152 45.6789L63.9747 46.1092H61.8481H59.7089L60.3291 45.3877C64.4177 40.6282 68.0633 33.8561 70.4051 26.6789C71.8608 22.2105 73.1139 16.7422 73.4684 13.2611C73.5063 12.8434 73.5696 12.2991 73.6076 12.046L73.6709 11.5776L73 11.489C70.1646 11.1346 67.7848 10.7042 65.2532 10.1092C57.9114 8.36241 50.7089 4.84343 47.1646 1.2738C46.6962 0.80545 46.2911 0.413048 46.2658 0.413048C46.2405 0.413048 46 0.653557 45.7342 0.944695ZM47.1899 4.1852C52.0506 8.26115 60.6456 11.7168 69.3924 13.0966L71.2785 13.3877L71.1899 14.1472C70.9114 16.7548 69.5316 22.4384 68.2785 26.1725C65.6835 33.9194 62.2911 39.9953 57.7342 45.0586L56.7975 46.1092H46.519H36.2405L35.6076 45.4384C34.8987 44.7168 33.5063 43.046 32.6329 41.8687C27.6203 35.1979 23.6835 25.7928 21.6835 15.6662C21.4557 14.489 21.3038 13.4763 21.3544 13.4384C21.4051 13.3877 21.9241 13.2865 22.519 13.2105C24.1646 12.9827 27.1772 12.3498 29.2911 11.7928C35.6582 10.1219 41.3418 7.43836 45.2405 4.28646C45.7975 3.84343 46.2658 3.46368 46.2911 3.46368C46.3038 3.45102 46.7089 3.78014 47.1899 4.1852ZM36.6076 48.3877C36.557 48.451 36.3038 48.6029 36.0633 48.7295C32.9494 50.451 31.5063 51.2611 31.2152 51.451L30.8734 51.7042L30.8987 56.7168L30.9367 61.7422L31.443 61.9194C32.2658 62.2232 34.3165 62.1599 35.2025 61.8181C37.3165 60.9953 38.6582 59.1725 39.557 55.8814C39.5949 55.7548 40.4051 55.7295 43.2911 55.7548L46.9873 55.7928L47.1519 56.2485C47.4051 57.008 48.3165 58.3498 48.9873 58.9447C50.6329 60.4257 52.7089 61.046 56 61.046H57.2658L59.6709 62.6789C65.2532 66.4637 67.2911 67.8434 70.076 69.7168C71.6962 70.8054 73.1646 71.8814 73.3544 72.1219C74.0506 73.046 73.8481 74.8687 72.9367 75.7548C72.3544 76.3244 71.9367 76.489 71.1519 76.489C70.2785 76.4763 69.8354 76.2738 68.0253 75.0333C67.1266 74.4257 65.6709 73.4257 64.7975 72.8434C63.9241 72.2485 62.5063 71.2611 61.6329 70.6662C60.7595 70.0713 59.3165 69.0713 58.4051 68.451C57.5063 67.8308 56.2785 66.9953 55.6962 66.5903C55.1013 66.1852 54.5823 65.8561 54.5316 65.8561C54.4051 65.8561 53.4051 67.2738 53.4051 67.4637C53.4051 67.5396 54.9873 68.6915 56.9241 70.0206C64.0127 74.8814 64.5696 75.2865 64.9114 75.7042C65.2785 76.1346 65.557 76.8687 65.557 77.3877C65.557 78.7801 64.2025 80.1599 62.8354 80.1472C61.8228 80.1472 61.9747 80.2358 53.7215 74.5523C51.8481 73.2485 50.2405 72.1979 50.1646 72.1852C50.0886 72.1852 49.7595 72.5776 49.443 73.0586C48.9114 73.8687 48.8734 73.9447 49.076 74.1219C49.1899 74.2232 50.9873 75.413 53.0506 76.7801C57.3544 79.6156 57.481 79.7422 57.557 81.1599C57.5823 81.8814 57.5443 82.0839 57.2405 82.6282C56.557 83.8308 55.076 84.3877 53.8861 83.8561C53.5696 83.7168 51.7089 82.4637 49.7342 81.0586C47.7722 79.6535 46.1519 78.5143 46.1266 78.5396C46.1139 78.5649 45.8354 78.9573 45.519 79.413L44.9241 80.2485L46.1646 81.1219C48.5949 82.8181 49.2025 84.1599 48.3418 85.8561C47.7975 86.932 46.1392 87.5523 45.038 87.0839L44.5823 86.8941L44.6456 85.6535C44.6962 84.527 44.6709 84.3371 44.3924 83.6915C43.8101 82.413 42.8734 81.6029 41.5443 81.2611L40.8861 81.0966L41.3165 80.489C43 78.1092 42.2152 74.8054 39.6709 73.527C38.1266 72.7675 36.5823 72.8434 34.7722 73.8054C34.7215 73.8308 34.5443 73.5396 34.3671 73.1599C34 72.4004 33.1899 71.5143 32.519 71.1725C31.1266 70.451 29.7722 70.3877 28.2911 70.9827C27.8608 71.1599 27.4684 71.2991 27.4177 71.2991C27.3797 71.2991 27.2152 71.046 27.0633 70.7295C26.3671 69.3497 24.6962 68.2738 23.0886 68.1599L22.2025 68.0966L21.5823 66.8434C21.0633 65.7675 20.7848 65.4004 19.7975 64.3877L18.6203 63.1979L19.0886 62.5396C19.3418 62.1725 20.1139 61.046 20.8101 60.0333C21.4937 59.0206 22.2658 57.9067 22.5063 57.5649C24.5316 54.6789 28.519 48.7928 28.6076 48.5523L28.7089 48.2611L32.3544 48.2358C36.1139 48.1979 36.7848 48.2232 36.6076 48.3877ZM24.0127 70.5523C25.0127 71.046 25.7215 72.527 25.4304 73.5016C24.8987 75.2611 22.7722 75.8814 21.3291 74.6915C20.3544 73.8941 20.1139 72.7422 20.6835 71.6029C21.2911 70.3751 22.7215 69.932 24.0127 70.5523ZM31.6456 73.1346C32.2532 73.5649 32.7722 74.5143 32.7722 75.2358C32.7722 75.932 32.4937 76.489 31.3671 78.008C30.519 79.1472 30.2278 79.451 29.6962 79.7168C28.962 80.0839 28.2911 80.1219 27.6076 79.8308C26.2278 79.2611 25.5696 77.6915 26.1899 76.4257C26.3291 76.1472 26.8608 75.3497 27.3671 74.6535C28.5443 73.0586 29.1519 72.6662 30.3165 72.7295C30.9367 72.7548 31.2152 72.8434 31.6456 73.1346ZM38.5443 75.3371C39.7722 75.8941 40.3924 77.2865 39.9747 78.489C39.7595 79.0966 36.3924 83.5649 35.8608 83.9447C35.4557 84.2358 35.2785 84.2738 34.4177 84.2738C33.5063 84.2738 33.3924 84.2485 32.9494 83.8814C32.1519 83.2485 31.962 82.9067 31.9114 81.9953C31.8481 80.97 31.9241 80.8308 34.1139 77.8687C35.4937 76.0206 35.8608 75.6029 36.3291 75.3751C37.0253 75.046 37.8608 75.0333 38.5443 75.3371ZM41.3671 83.4257C41.6076 83.5396 41.9747 83.8561 42.1899 84.1219C42.519 84.5396 42.5823 84.7168 42.5823 85.3244C42.5823 85.9194 42.5063 86.1472 42.1772 86.6156C41.6835 87.3244 41.2911 87.7042 40.8354 87.8687C38.8734 88.6156 37.1899 86.4763 38.3291 84.7042C38.5316 84.4004 38.8228 84.008 38.9747 83.8434C39.5949 83.2105 40.5949 83.0206 41.3671 83.4257Z" fill="#5A5A79" stroke="#5A5A79" stroke-width="0.8"/>
<path d="M52.4554 23.8686C49.3921 25.9698 46.2655 28.1344 45.4934 28.6534C41.9744 31.0837 41.468 31.4129 41.3668 31.3496C41.3161 31.3243 40.6452 30.4002 39.8984 29.2989C39.1516 28.2103 38.3668 27.0837 38.1769 26.8053C37.9744 26.5268 37.6959 26.1091 37.5566 25.8812C37.4174 25.666 37.2402 25.4762 37.1642 25.4762C36.9617 25.4762 35.5566 26.4762 35.5566 26.6154C35.5566 26.6787 36.3035 27.8306 37.2149 29.1724C39.8731 33.0584 40.7718 34.3369 40.8858 34.3369C40.949 34.3369 42.2655 33.4635 43.8098 32.4002C45.3668 31.3369 47.2908 30.0078 48.0883 29.4635C56.3161 23.8179 58.9364 22.0078 59.0883 21.8686C59.2402 21.7167 59.1896 21.5774 58.7212 20.8686C58.4301 20.4129 58.1516 20.0331 58.1009 20.0331C58.063 20.0331 55.5187 21.7546 52.4554 23.8686Z" fill="#5A5A79" stroke="#5A5A79" stroke-width="0.8"/>
<path d="M75.9114 56.3495C75.519 56.6027 75.1519 56.8558 75.1139 56.8938C75.0253 56.9697 76.0253 58.6406 76.1519 58.6406C76.3798 58.6406 77.8355 57.7166 77.8355 57.5647C77.8355 57.4761 77.6329 57.0963 77.3924 56.7292C77.1519 56.3495 76.9494 56.0077 76.9494 55.9571C76.9494 55.7545 76.6203 55.8811 75.9114 56.3495Z" fill="#5A5A79" stroke="#5A5A79" stroke-width="0.8"/>
<path d="M15.1264 57.1477C14.8226 57.5907 14.5948 57.9831 14.6201 58.0338C14.7593 58.2489 16.2024 59.1603 16.3036 59.0844C16.4555 58.9958 17.4808 57.4894 17.4302 57.4388C17.215 57.2489 15.8733 56.3629 15.7973 56.3629C15.7467 56.3629 15.4429 56.7173 15.1264 57.1477Z" fill="#5A5A79" stroke="#5A5A79" stroke-width="0.8"/>
<path d="M78.1139 59.9318C77.6835 60.2103 77.3291 60.5141 77.3291 60.6027C77.3291 60.6786 77.5569 61.109 77.8354 61.5394L78.3418 62.3242L79.0633 61.8559C80.1899 61.147 80.1645 61.2103 79.6076 60.3242C79.3291 59.8938 79.0633 59.5141 79 59.4761C78.9494 59.4508 78.5443 59.6533 78.1139 59.9318Z" fill="#5A5A79" stroke="#5A5A79" stroke-width="0.8"/>
<path d="M12.7341 60.5645C12.4176 61.0075 12.1898 61.3999 12.2278 61.4632C12.3037 61.6024 13.7594 62.5645 13.8733 62.5645C13.9999 62.5518 15.1138 60.9442 15.0379 60.8683C14.8354 60.691 13.4683 59.7796 13.3923 59.7796C13.3417 59.7796 13.0506 60.1341 12.7341 60.5645Z" fill="#5A5A79" stroke="#5A5A79" stroke-width="0.8"/>
</svg>
