<svg width="90" height="91" viewBox="0 0 90 91" fill="none" xmlns="http://www.w3.org/2000/svg">
<path d="M42.7638 0.327157C42.8553 0.362323 42.377 0.819487 42.2785 0.791353C42.2504 0.777287 42.166 0.854652 42.1027 0.960152C41.955 1.17818 41.948 2.09954 42.0746 3.51323C42.1168 3.95633 42.1801 4.77922 42.2223 5.34189C42.2645 5.90455 42.3278 6.74151 42.3629 7.20571C42.3981 7.6699 42.4614 8.52093 42.5036 9.10469C42.7005 11.6859 42.7638 12.2204 42.9045 12.4596C42.9748 12.5862 43.0874 12.6917 43.1436 12.6917C43.1999 12.6987 43.2351 12.7339 43.221 12.7831C43.214 12.8323 43.228 12.8605 43.2562 12.8534C43.2913 12.8534 43.4672 12.9167 43.65 13.0011C43.9736 13.1488 44.065 13.1559 45.2466 13.1348C46.4211 13.1137 46.5126 13.1066 46.7165 12.9519C46.8361 12.8675 46.9486 12.7972 46.9768 12.7972C47.0049 12.7972 46.9697 12.8675 46.8924 12.9519L46.7587 13.1137L46.9135 12.98C46.9979 12.9097 47.0612 12.8323 47.0541 12.8042C47.0471 12.7831 47.1174 12.6143 47.2018 12.4314C47.3566 12.122 47.3917 11.7492 47.7504 7.12131C47.9614 4.37833 48.1302 1.93075 48.1162 1.67755C48.0951 1.29072 48.0599 1.16412 47.8841 0.939053C47.7645 0.791353 47.6801 0.643654 47.6871 0.615521C47.6942 0.594421 47.652 0.531122 47.5816 0.474855C47.4761 0.390456 47.4691 0.39749 47.5605 0.502989C47.6801 0.657721 47.652 0.657721 47.3566 0.510022C47.2018 0.439689 46.815 0.37639 46.2031 0.341223C45.2817 0.277924 42.6021 0.27089 42.7638 0.327157ZM42.1871 1.17818C42.0886 1.45248 42.1168 1.90965 42.4684 6.55864C42.8975 12.1993 42.8904 12.1923 43.0452 12.4244C43.1085 12.5158 43.1366 12.6073 43.1085 12.6354C43.0874 12.6565 43.01 12.5369 42.9326 12.3681C42.8412 12.1501 42.7779 11.7281 42.7216 10.9333C42.6724 10.3144 42.6091 9.44229 42.5739 8.99919C42.5388 8.5561 42.4755 7.74727 42.4333 7.20571C42.3207 5.71465 42.2363 4.56119 42.1449 3.49213C42.0324 2.08548 42.0253 1.19225 42.1379 0.995318C42.2785 0.749153 42.2996 0.840587 42.1871 1.17818Z" fill="#5A5A79"/>
<path d="M55.1346 1.78301C54.9869 1.83928 54.8321 1.91664 54.7899 1.95884C54.6633 2.08544 54.5719 2.04324 54.6774 1.90961C54.7548 1.80411 54.7548 1.80411 54.6704 1.88148C54.6141 1.93071 54.5649 2.00807 54.5649 2.05731C54.5649 2.10654 54.5227 2.14171 54.4734 2.14171C54.375 2.14171 54.1077 2.45117 54.1077 2.5637C54.1077 2.59887 54.178 2.52854 54.2554 2.40194C54.3398 2.27534 54.4242 2.18391 54.4453 2.20501C54.4664 2.22611 54.4453 2.28237 54.4101 2.33161C54.3679 2.38084 53.3129 4.56116 52.061 7.1705C49.8948 11.6929 49.7822 11.9391 49.7822 12.3118C49.7893 12.6354 49.8244 12.769 49.9932 13.0152C50.1058 13.184 50.2042 13.3387 50.2042 13.3598C50.2113 13.4864 50.7317 13.8732 50.7317 13.7537C50.7317 13.7326 50.6333 13.6622 50.5137 13.606C50.3941 13.5427 50.3168 13.4723 50.3308 13.4512C50.3519 13.4301 50.6684 13.5919 51.0271 13.8029C51.8852 14.3023 52.1946 14.457 52.483 14.5132C52.7784 14.5695 53.1863 14.464 53.4325 14.2671C53.538 14.1827 53.6365 14.1335 53.6576 14.1546C53.6787 14.1686 53.6083 14.253 53.5028 14.3374C53.3973 14.4148 53.3411 14.4851 53.3833 14.4851C53.4184 14.4851 53.5591 14.3656 53.6927 14.2179C53.967 13.9365 54.2835 13.5005 54.2202 13.5005C54.1991 13.5005 54.0936 13.6271 53.9952 13.7818C53.8897 13.9365 53.7912 14.0491 53.7771 14.035C53.7209 13.9787 54.4734 12.9378 54.5367 12.973C54.5649 12.9941 54.6915 12.8675 54.811 12.6916C54.9306 12.5158 55.015 12.3751 54.9939 12.3751C54.9728 12.3751 54.8673 12.5017 54.7688 12.6565C54.6633 12.8112 54.5649 12.9237 54.5508 12.9097C54.4945 12.8534 56.3021 10.2651 56.3583 10.3003C56.3935 10.3214 56.5201 10.1948 56.6397 10.019C56.7592 9.84315 56.8436 9.70249 56.8225 9.70249C56.8014 9.70249 56.6959 9.82908 56.5975 9.98382C56.492 10.1385 56.3935 10.2511 56.3794 10.237C56.3232 10.1807 58.1307 7.5925 58.187 7.62767C58.2222 7.64877 58.3488 7.52217 58.4683 7.34634C58.5879 7.1705 58.6723 7.02984 58.6512 7.02984C58.6301 7.02984 58.5246 7.15644 58.4261 7.31117C58.3206 7.4659 58.2222 7.57843 58.2081 7.56437C58.187 7.5503 58.5105 7.0439 58.9114 6.44608C59.7484 5.22228 59.8469 4.94095 59.6359 4.41346C59.4952 4.05476 59.5515 3.95629 59.6992 4.30796C59.9242 4.85655 59.8187 5.27152 59.242 6.12254C59.0029 6.46718 58.827 6.74851 58.8481 6.74851C58.9185 6.74851 59.6921 5.58098 59.7765 5.34185C59.8258 5.20822 59.868 4.96909 59.875 4.81435C59.875 4.52599 59.6781 4.04069 59.5726 4.06883C59.4882 4.09696 59.1013 3.71716 59.1435 3.64683C59.1576 3.6187 59.1365 3.56946 59.0943 3.54133C59.038 3.5132 59.031 3.52023 59.0591 3.56946C59.1435 3.71013 59.031 3.6609 58.4965 3.33033C58.2081 3.1545 57.9901 2.97867 58.0112 2.95053C58.0323 2.91537 58.0112 2.86613 57.969 2.838C57.9127 2.80284 57.9057 2.8169 57.9408 2.8802C57.976 2.93647 57.9619 2.95757 57.8986 2.93647C57.8424 2.91537 57.8002 2.86613 57.8002 2.82394C57.8002 2.78877 57.772 2.72547 57.7369 2.6903C57.7017 2.65514 57.6947 2.6692 57.7228 2.71844C57.7509 2.76767 57.7509 2.80987 57.7228 2.80987C57.6173 2.80987 56.6467 2.15577 56.6748 2.10654C56.6959 2.07137 56.6748 2.02214 56.6326 1.99401C56.5764 1.95884 56.5693 1.97291 56.6045 2.03621C56.6397 2.09247 56.6256 2.11357 56.5623 2.09247C56.506 2.07137 56.4638 2.02214 56.4638 1.97994C56.4638 1.94478 56.4357 1.88148 56.4005 1.84631C56.3654 1.81114 56.3583 1.82521 56.3865 1.87444C56.4498 1.99401 56.3935 1.98697 56.1614 1.86741C55.8519 1.71268 55.437 1.67751 55.1346 1.78301Z" fill="#5A5A79"/>
<path d="M34.4153 1.96603C34.1902 2.00823 33.2688 2.46539 31.5738 3.38675C31.2292 3.56962 30.9338 3.72435 30.9127 3.72435C30.8986 3.72435 30.9267 3.66808 30.976 3.60478C31.0393 3.52038 30.9971 3.53445 30.8494 3.63995C30.7228 3.73138 30.5962 3.83688 30.5751 3.88611C30.5469 3.93535 30.5891 3.91425 30.6665 3.84391C30.8775 3.66105 30.9478 3.69622 30.7579 3.90018C30.6735 3.99161 30.568 4.06195 30.5258 4.05491C30.4063 4.03381 30.2023 4.50504 30.2023 4.81451C30.1953 5.06771 30.4133 5.69367 30.5047 5.69367C30.5258 5.69367 30.4766 5.56004 30.4063 5.39124C30.3289 5.22947 30.2656 4.98331 30.2656 4.84264C30.2656 4.58241 30.4555 4.03381 30.5188 4.09711C30.5399 4.11821 30.5188 4.20965 30.4696 4.30108C30.357 4.51208 30.357 5.18727 30.4696 5.39827C30.5188 5.4897 30.9689 6.15786 31.4683 6.88933C31.9677 7.61375 32.3756 8.23268 32.3756 8.26082C32.3756 8.28895 32.3193 8.26785 32.256 8.21862C32.1435 8.12718 32.1365 8.13422 32.2279 8.23972C32.2771 8.31005 32.3475 8.35225 32.3756 8.33115C32.4389 8.29598 34.2394 10.8913 34.1832 10.9405C34.1691 10.9546 34.0706 10.842 33.9651 10.6873C33.8667 10.5326 33.7612 10.406 33.7401 10.406C33.719 10.406 33.8034 10.5466 33.9229 10.7225C34.0425 10.8983 34.1691 11.0249 34.2043 11.0038C34.2324 10.9827 34.3098 11.046 34.3731 11.1445C34.5348 11.3906 34.5067 11.461 34.3379 11.25L34.1902 11.0741L34.2957 11.25C34.352 11.3484 34.4364 11.4188 34.4785 11.4117C34.5559 11.3906 35.4351 12.6426 35.3858 12.6988C35.3647 12.7129 35.1748 12.4597 34.9498 12.1291C34.7247 11.7986 34.5278 11.5313 34.5137 11.5313C34.4715 11.5313 34.5067 11.5876 34.9638 12.2557C35.1678 12.5582 35.3647 12.7832 35.3999 12.7621C35.4632 12.7199 36.3494 13.9789 36.2931 14.0351C36.2791 14.0492 36.1806 13.9367 36.0751 13.7819C35.9766 13.6272 35.8711 13.5006 35.85 13.5006C35.8289 13.5006 35.9133 13.6483 36.047 13.8312C36.1736 14.007 36.3002 14.1477 36.3283 14.1266C36.3916 14.0844 36.6659 14.3516 36.6448 14.436C36.6237 14.5697 37.109 14.7666 37.4607 14.7666C37.7631 14.7666 38.2836 14.6189 38.2836 14.5275C38.2836 14.5064 38.171 14.5415 38.0374 14.5978C37.7209 14.7244 37.2215 14.7244 36.898 14.5908C36.7573 14.5345 36.6589 14.4642 36.68 14.4501C36.7011 14.429 36.8277 14.4642 36.9683 14.5204C37.5099 14.7455 37.8405 14.6541 39.0361 13.9507C39.4018 13.7397 39.7183 13.578 39.7394 13.592C39.7605 13.6131 39.6761 13.6835 39.5566 13.7468C39.437 13.803 39.3385 13.8734 39.3385 13.8945C39.3385 13.9156 39.444 13.8734 39.5706 13.803C39.6902 13.7257 39.7957 13.6342 39.7957 13.592C39.7957 13.4936 40.1755 13.1138 40.274 13.1138C40.3162 13.1138 40.3584 13.0645 40.3724 13.0083C40.4006 12.9168 40.3935 12.9168 40.3232 13.0083C40.2599 13.0927 40.2529 13.0716 40.3021 12.9028C40.3302 12.7832 40.3513 12.53 40.3513 12.3401C40.3443 11.9955 39.6972 10.5818 36.1454 3.21795C35.9626 2.84519 35.7305 2.45836 35.625 2.35286C35.2874 2.00823 34.8724 1.88163 34.4153 1.96603Z" fill="#5A5A79"/>
<path d="M14.3701 26.6877V36.0771H23.7244H33.0786V26.6877V17.2983H23.7244H14.3701V26.6877ZM30.406 26.6174C30.406 30.9569 30.3849 33.1935 30.3357 33.1935C30.2864 33.1935 30.2653 30.964 30.2653 26.6526V20.1116H23.6892H17.1131V26.6877V33.2638L23.7806 33.2849L30.4412 33.299L23.7455 33.3201L17.0428 33.3342V26.6877V20.0413H23.7244H30.406V26.6174ZM30.195 26.6877V33.1935H23.6892H17.1834V26.6877V20.1819H23.6892H30.195V26.6877Z" fill="#5A5A79"/>
<path d="M35.6244 26.6666L35.6455 36.042H44.9998H54.354L54.3751 26.6666L54.3892 17.2983H44.9998H35.6104L35.6244 26.6666ZM51.6462 26.6877V33.3342H44.9998H38.3533V26.6877V20.0413H44.9998H51.6462V26.6877Z" fill="#5A5A79"/>
<path d="M56.9219 26.6877V36.0771H66.2761H75.6304V26.6877V17.2983H66.2761H56.9219V26.6877ZM72.9578 26.6877V33.3342L66.2621 33.3201L59.5594 33.299L66.2269 33.2849L72.8874 33.2638V26.6877V20.1116H66.3113H59.7352V26.6526C59.7352 30.964 59.7141 33.1935 59.6649 33.1935C59.6156 33.1935 59.5945 30.9569 59.5945 26.6174V20.0413H66.2761H72.9578V26.6877ZM72.8171 26.6877V33.1935H66.3113H59.8055V26.6877V20.1819H66.3113H72.8171V26.6877Z" fill="#5A5A79"/>
<path d="M43.3122 38.6797C42.9043 38.7852 42.5315 38.9329 41.9126 39.2283C41.8774 39.2494 41.8774 39.2142 41.9055 39.165C41.9407 39.1087 41.9337 39.0876 41.8985 39.1228C41.8633 39.158 41.8352 39.2213 41.8352 39.2635C41.8352 39.2986 41.793 39.3479 41.7367 39.369C41.6734 39.3901 41.6594 39.369 41.6945 39.3127C41.7367 39.2494 41.7227 39.2353 41.6664 39.2705C41.6172 39.3057 41.5961 39.3479 41.6172 39.369C41.6734 39.4182 41.4484 39.6644 41.3569 39.6644C41.3147 39.6644 41.3429 39.594 41.4202 39.5026C41.4906 39.4182 41.3499 39.5378 41.1108 39.7699C40.8717 40.002 40.6747 40.213 40.6747 40.2411C40.6747 40.2692 40.8224 40.1426 40.9983 39.9598C41.3147 39.6362 41.3147 39.6433 40.9349 40.1075C40.4497 40.7053 40.1543 41.3031 39.9714 42.0135C39.8378 42.555 39.8307 42.8012 39.8307 50.4745V58.3799L39.6408 58.2463C39.5283 58.1689 39.2259 58.0001 38.9516 57.8665C37.8051 57.2968 36.7783 57.0788 35.4349 57.121C34.5347 57.1491 34.1127 57.2476 33.1913 57.6344C33.0858 57.6766 33.0717 57.6696 33.1139 57.5992C33.1491 57.5359 33.1421 57.5219 33.0858 57.557C33.0436 57.5852 33.0225 57.6344 33.0436 57.6696C33.0647 57.6977 33.0014 57.7751 32.9029 57.8384C32.6568 58.0001 32.5864 57.972 32.7974 57.8032L32.9733 57.6555L32.7974 57.754C32.699 57.8173 32.6216 57.8876 32.6216 57.9228C32.6216 58.0283 32.5091 58.1619 32.4317 58.1619C32.3825 58.1619 32.3895 58.1197 32.4458 58.0564C32.6497 57.8102 32.4458 57.9861 32.0589 58.387C31.8269 58.6261 31.6932 58.7808 31.7636 58.7316C31.8269 58.6753 31.8831 58.6683 31.8831 58.7105C31.8831 58.8019 31.7073 58.9426 31.6581 58.8934C31.6229 58.8652 31.44 59.0832 31.2923 59.3364C31.1728 59.5474 31.3205 59.4068 31.4611 59.1747C31.5455 59.041 31.6299 58.9426 31.644 58.9566C31.6651 58.9707 31.5596 59.1747 31.426 59.3997C31.0743 59.9765 30.8914 60.6165 30.8492 61.3761C30.7859 62.4311 31.011 63.2821 31.5737 64.1191C31.9253 64.6395 31.9534 64.7099 31.7284 64.52C31.5807 64.3934 31.5807 64.4004 31.7354 64.5762C31.8269 64.6817 31.9394 64.7591 31.9816 64.7521C32.0238 64.745 32.0519 64.7802 32.0378 64.8294C32.0308 64.8857 32.0519 64.9068 32.08 64.8857C32.1152 64.8646 32.2066 64.9138 32.277 65.0053C32.4106 65.153 32.4106 65.153 32.2699 65.0545L32.1293 64.949L32.2699 65.1178C32.3473 65.2092 32.5091 65.3429 32.6216 65.4202C32.8115 65.5468 32.8045 65.5398 32.5864 65.3358C32.2488 65.0334 32.3684 65.0897 33.0999 65.5679C33.4375 65.793 33.6977 65.997 33.6836 66.0321C33.6625 66.0673 33.6977 66.1376 33.768 66.1869C33.8735 66.2783 33.8806 66.2713 33.7891 66.1587C33.6485 65.9829 33.8032 66.011 33.965 66.1939C34.0494 66.2853 34.0564 66.3205 33.9931 66.2853C33.9298 66.2502 33.9368 66.2853 34.0212 66.3768C34.1689 66.5526 34.2744 66.5948 34.1338 66.426C34.0845 66.3697 34.0775 66.3205 34.1127 66.3205C34.2041 66.3205 34.4292 66.5667 34.3799 66.6089C34.3588 66.63 34.4643 66.7566 34.612 66.8902C34.7808 67.0449 34.809 67.066 34.7035 66.9324C34.605 66.8269 34.5628 66.7425 34.605 66.7425C34.7175 66.7425 34.9848 67.066 34.9285 67.1293C34.8934 67.1575 34.9074 67.1645 34.9496 67.1434C35.034 67.0942 35.3505 67.4036 35.4349 67.6217C35.4631 67.699 35.5123 68.5711 35.5404 69.5558C35.5826 70.8851 35.6319 71.5814 35.7514 72.2636C36.1242 74.4791 36.9822 76.6735 38.1849 78.5092C38.4381 78.896 38.628 79.2195 38.614 79.2406C38.5929 79.2547 38.417 79.0156 38.2131 78.6991C37.8333 78.1294 37.6504 77.9184 37.9388 78.3966C38.2271 78.8749 38.5788 79.3391 38.621 79.3039C38.6702 79.2547 38.8461 79.4024 38.8461 79.4868C38.8461 79.529 38.7898 79.5149 38.7265 79.4657C38.614 79.3743 38.6069 79.3813 38.6984 79.4868C38.7476 79.5571 38.8179 79.5993 38.8461 79.5782C38.9305 79.522 39.2048 79.8947 39.1485 79.9932C39.1274 80.0354 39.1274 80.0495 39.1626 80.0213C39.2259 79.958 39.4087 80.0846 39.4087 80.1901C39.4087 80.2323 39.3525 80.2183 39.2892 80.169C39.1837 80.0917 39.1837 80.0987 39.2962 80.2253C39.3665 80.3167 39.4509 80.373 39.4791 80.3519C39.5424 80.3167 40.1543 80.9357 40.098 80.9849C40.0769 81.006 39.9433 80.8935 39.8026 80.7387C39.6619 80.584 39.5494 80.4785 39.5494 80.5137C39.5494 80.5418 39.8589 80.8653 40.2316 81.2311C40.6114 81.5968 40.8224 81.7937 40.7099 81.6671C40.5974 81.5476 40.5411 81.4421 40.5763 81.4421C40.6677 81.4421 41.1811 81.9695 41.1319 82.0117C41.1108 82.0328 41.1811 82.1243 41.2866 82.2227C41.4624 82.3775 41.4695 82.3775 41.3499 82.2298C41.2725 82.1454 41.2444 82.075 41.2866 82.075C41.378 82.075 41.6031 82.3212 41.5539 82.3704C41.5328 82.3915 41.589 82.4619 41.6734 82.5392C41.8 82.6447 41.8141 82.6518 41.7367 82.5463C41.6031 82.3704 41.7508 82.3986 41.9126 82.5814C41.997 82.6799 42.011 82.7151 41.9407 82.6729C41.8844 82.6447 41.9899 82.7784 42.1798 82.9753C42.3697 83.1722 42.5526 83.3199 42.5807 83.2988C42.644 83.2637 42.855 83.552 43.0942 84.0233C43.4388 84.7055 43.488 85.1064 43.488 87.1742C43.488 88.2925 43.5162 89.1857 43.5654 89.3404C43.6076 89.4881 43.7412 89.7273 43.8749 89.8679C44.0015 90.0086 44.0999 90.1563 44.0929 90.1985C44.0859 90.2899 45.584 90.3181 45.6402 90.2266C45.6613 90.1915 45.6191 90.1844 45.5488 90.2055C45.4785 90.2337 45.5136 90.1774 45.6332 90.0719C45.7457 89.9734 45.8723 89.9101 45.9145 89.9383C45.9497 89.9594 45.9637 89.9523 45.9356 89.9172C45.9075 89.889 45.9497 89.7413 46.02 89.5936C46.1536 89.3475 46.1607 89.1716 46.1607 87.2375C46.1607 85.444 46.1396 85.0642 46.02 84.4804C45.6543 82.6799 44.9228 81.5827 43.0942 80.0846C40.4919 77.9535 38.7195 74.662 38.2834 71.1735C38.2482 70.8499 38.2131 70.027 38.2131 69.3448C38.2131 67.91 38.1427 67.3403 37.8825 66.5667C37.7067 66.0462 37.6504 65.9618 37.1159 65.4343C36.3352 64.6606 35.4842 63.9503 34.7668 63.4861C34.4362 63.2751 34.0845 63.0078 33.979 62.8953C33.332 62.2131 33.346 61.0526 34.0142 60.3563C34.4081 59.9413 34.7175 59.8288 35.5264 59.7936C37.1932 59.7233 38.6773 60.4758 39.5916 61.8473L39.8307 62.2131L39.8518 64.5762L39.8659 66.9394L40.0769 67.2489C40.6536 68.0718 41.8422 68.0155 42.3064 67.1434L42.4682 66.848L42.5034 54.6804L42.5385 42.5128L42.7284 42.1893C43.1997 41.3875 44.0226 41.0499 44.9017 41.3031C45.387 41.4508 45.7246 41.7251 45.9848 42.2034L46.1958 42.5832L46.231 52.9221C46.2732 64.4848 46.224 63.4861 46.7726 63.9081C46.9976 64.0839 47.0891 64.105 47.5322 64.105C47.9753 64.105 48.0667 64.0839 48.2988 63.901C48.4465 63.7885 48.6294 63.5705 48.6997 63.4087C48.8263 63.1344 48.8333 62.8461 48.8333 57.9439C48.8333 51.9937 48.8052 52.261 49.4241 51.6491C49.7899 51.2833 50.2822 51.0583 50.7323 51.0583C51.3794 51.0583 52.1108 51.5365 52.3922 52.1414L52.561 52.5001V57.6696C52.561 60.511 52.5891 62.9586 52.6243 63.1063C52.8986 64.2738 54.4459 64.527 55.0226 63.5072L55.1984 63.1907L55.2336 58.4081C55.2758 53.0557 55.2406 53.3793 55.7822 52.8307C56.2745 52.3383 57.1607 52.1555 57.7726 52.4157C58.1243 52.5564 58.5885 52.9924 58.7714 53.3371C58.9261 53.6254 58.9261 53.6606 58.9613 58.4432C58.9964 62.8601 59.0035 63.2821 59.116 63.4861C59.3903 63.9784 59.9811 64.2316 60.6141 64.112C60.8743 64.0628 61.2963 63.7393 61.444 63.479C61.5073 63.3736 61.5354 62.3959 61.5636 59.885C61.6058 56.0308 61.5776 56.1926 62.1262 55.6018C63.0195 54.6312 64.616 54.9336 65.1646 56.1715C65.2912 56.4598 65.2912 56.7623 65.2701 64.9279C65.249 73.2342 65.249 73.403 65.1013 74.0571C64.7426 75.6748 64.1448 77.0392 63.1531 78.5232C61.866 80.4433 61.1627 82.3493 60.9306 84.5437C60.8954 84.9095 60.8602 86.1403 60.8673 87.2797C60.8673 88.9466 60.8884 89.3897 60.9657 89.5303C61.0994 89.7624 61.0923 89.882 60.9657 89.7132C60.9095 89.6358 60.8602 89.6077 60.8602 89.6499C60.8602 89.6851 60.9235 89.7765 61.0009 89.8468C61.0783 89.9172 61.1416 89.9523 61.1416 89.9172C61.1416 89.889 61.1908 89.9031 61.2471 89.9523C61.3033 90.0016 61.3385 90.0649 61.3174 90.093C61.2963 90.1282 61.3174 90.1774 61.3596 90.2055C61.4159 90.2337 61.4229 90.2266 61.3948 90.1774C61.3244 90.0649 61.3877 90.0719 61.648 90.2055C61.873 90.3181 62.5271 90.3181 62.7874 90.1985C62.8858 90.1563 62.9069 90.1633 62.8647 90.2266C62.7733 90.3743 63.0476 90.2055 63.2656 89.9734C63.6525 89.5655 63.6736 89.4248 63.6595 87.3359L63.6454 85.4159L63.6032 87.4203C63.5751 89.1154 63.547 89.46 63.4485 89.6429C63.3149 89.882 63.1109 90.0789 63.1109 89.9664C63.1109 89.9242 63.1461 89.8679 63.1883 89.8398C63.2305 89.8187 63.3289 89.664 63.3993 89.5022C63.5188 89.242 63.5329 89.0169 63.5329 87.1531C63.5329 84.9939 63.5962 84.2694 63.8846 83.1793C64.187 82.0328 64.5949 81.1607 65.4248 79.9088C66.6416 78.0661 67.3168 76.4836 67.7177 74.5283C67.9498 73.3608 67.9709 72.5942 67.9498 64.2457L67.9287 55.9464L67.7599 55.4681C67.6614 55.2009 67.4856 54.807 67.352 54.596C67.2254 54.378 67.1269 54.1881 67.148 54.174C67.1621 54.16 67.2676 54.3006 67.3801 54.4835C67.57 54.7929 67.6966 55.0813 67.9217 55.6651C67.9779 55.8128 68.0061 58.3799 68.0342 64.5622L68.0694 73.2483L68.0905 64.7028C68.0975 58.9215 68.0834 56.066 68.0272 55.8761C67.8443 55.1727 67.2535 53.9982 67.141 54.1107C67.0847 54.16 66.7682 53.8786 66.7682 53.7802C66.7682 53.738 66.8526 53.7802 66.9651 53.8786C67.0706 53.9701 66.9792 53.8646 66.7682 53.6395C66.5572 53.4215 66.3743 53.2386 66.3532 53.2386C66.3392 53.2386 66.3814 53.3019 66.4517 53.3793C66.522 53.4566 66.5502 53.5199 66.508 53.5199C66.4165 53.5199 66.1915 53.2738 66.2407 53.2245C66.2618 53.2034 66.2196 53.1472 66.1563 53.0909C66.0438 52.9995 66.0367 53.0065 66.1282 53.112C66.1774 53.1823 66.1915 53.2386 66.1493 53.2386C66.0719 53.2386 65.882 53.0276 65.9031 52.9643C65.9101 52.9432 65.8961 52.908 65.875 52.8869C65.8468 52.8658 65.8539 52.894 65.882 52.9362C65.9523 53.0628 65.9312 53.0557 65.3404 52.7744C64.5808 52.4157 63.7579 52.2821 62.9491 52.3876C62.6115 52.4298 62.1403 52.5423 61.8941 52.6337L61.4581 52.7955L61.1627 52.1906C60.8251 51.5154 60.8321 51.5225 60.9446 51.5928C60.9939 51.628 61.0009 51.6139 60.9728 51.5576C60.9376 51.5084 60.8954 51.4873 60.8743 51.5084C60.8251 51.5647 60.5789 51.3396 60.5789 51.2482C60.5789 51.206 60.6492 51.2341 60.7407 51.3115L60.8954 51.4451L60.7618 51.2904C60.6914 51.206 60.6 51.1427 60.5508 51.1497C60.5086 51.1567 60.4804 51.1216 60.4945 51.0723C60.5015 51.0161 60.4804 50.995 60.4523 51.0161C60.382 51.0583 60.1358 50.8191 60.1921 50.7629C60.2132 50.7488 60.1428 50.6574 60.0373 50.5589C59.9318 50.4675 59.8896 50.4464 59.9389 50.5097C59.9881 50.58 60.0022 50.6363 59.96 50.6363C59.8685 50.6363 59.7279 50.4604 59.7771 50.4112C59.8193 50.362 59.5169 50.1439 59.123 49.94C58.6377 49.7009 58.6729 49.7712 59.1652 50.0384C59.4184 50.1721 59.6575 50.3198 59.6927 50.362C59.7841 50.4604 59.7982 50.4604 59.0316 50.0947C58.701 49.94 58.2861 49.7782 58.1032 49.729C57.6249 49.6165 56.4855 49.6305 55.9862 49.7641C55.5712 49.8696 54.8186 50.2072 54.6147 50.369C54.5444 50.4323 54.474 50.3901 54.3193 50.2072C54.0731 49.9189 54.045 49.7853 54.2701 49.9751C54.3545 50.0455 54.249 49.9259 54.038 49.7009C53.827 49.4828 53.6441 49.3 53.623 49.3C53.6089 49.3 53.6511 49.3633 53.7215 49.4406C53.7918 49.518 53.8199 49.5813 53.7777 49.5813C53.6863 49.5813 53.4612 49.3351 53.5105 49.2859C53.5316 49.2648 53.4964 49.2085 53.4261 49.1523C53.3276 49.0679 53.3206 49.0679 53.3628 49.1523C53.405 49.2156 53.3909 49.2367 53.3276 49.2156C53.2713 49.1945 53.2291 49.1452 53.2291 49.1101C53.2291 49.0679 53.201 49.0046 53.1658 48.9694C53.1307 48.9342 53.1236 48.9483 53.1518 48.9975C53.2221 49.1241 53.201 49.1171 52.6102 48.8358C51.8365 48.47 50.9785 48.3294 50.1908 48.4489C49.8602 48.4911 49.4382 48.5896 49.2553 48.6599L48.9107 48.7936L48.8896 45.5442L48.8615 42.3018L48.6786 41.7392C48.5731 41.4297 48.3762 40.9866 48.2355 40.7616C48.1019 40.5365 47.9964 40.3325 48.0175 40.3185C48.0315 40.3044 48.1159 40.4029 48.2003 40.5365C48.3902 40.8459 48.4676 40.8741 48.2918 40.5717C48.1581 40.3466 47.8416 40.0231 47.9542 40.227C47.9823 40.2833 47.8135 40.1426 47.5814 39.9176C47.3423 39.6855 47.1664 39.4745 47.1805 39.4463C47.2016 39.4182 47.1594 39.3549 47.0891 39.3057C46.9836 39.2142 46.9765 39.2213 47.068 39.3268C47.1946 39.4885 47.1102 39.4885 46.8781 39.3197C45.9004 38.6305 44.4657 38.3702 43.3122 38.6797ZM32.3754 58.183C32.3754 58.1971 32.2559 58.3166 32.1152 58.4503L31.848 58.6894L32.0871 58.4221C32.3192 58.183 32.3754 58.1267 32.3754 58.183ZM40.3653 81.2451L40.5692 81.4772L40.3442 81.2733C40.1261 81.0763 40.0769 81.0201 40.1332 81.0201C40.1472 81.0201 40.2457 81.1256 40.3653 81.2451ZM42.3627 82.9542C42.4893 83.0878 42.5807 83.2144 42.5667 83.2355C42.5456 83.2496 42.4049 83.1441 42.2572 82.9894C42.1025 82.8346 42.011 82.708 42.0532 82.708C42.0954 82.708 42.2291 82.8206 42.3627 82.9542Z" fill="#5A5A79"/>
</svg>
