<svg width="90" height="91" viewBox="0 0 90 91" fill="none" xmlns="http://www.w3.org/2000/svg">
<path d="M43.8062 0.372599C41.1522 0.694029 38.6175 2.00729 36.6613 4.0828C35.4032 5.40525 34.6134 6.75525 33.9797 8.62872C32.7032 12.4583 33.7318 16.5634 36.8266 20.0165C37.543 20.8063 37.745 21.1644 37.745 21.6053C37.745 21.991 37.6532 22.0369 36.8634 22.0369H36.2664L36.294 23.4787L36.3215 24.9297L37.0379 24.9573L37.745 24.9848V27.1338V29.292H45.0001H52.2552V27.1338V24.9757H52.9899H53.7246V23.5063V22.0369H53.0909C52.3379 22.0369 52.2093 21.9359 52.2828 21.3848C52.3195 21.091 52.4481 20.8981 52.8705 20.4481C54.0185 19.2451 55.2307 17.3808 55.7542 16.0399C57.0215 12.743 56.8654 9.7675 55.2399 6.71852C54.0185 4.43178 51.9522 2.43893 49.7664 1.43791C47.7644 0.528723 45.6338 0.143007 43.8062 0.372599ZM47.342 3.48586C48.8573 3.89913 50.3267 4.7624 51.3736 5.87362C52.1175 6.66342 52.4573 7.16852 52.9073 8.12362C53.5042 9.39097 53.6603 10.1165 53.6603 11.6593C53.6603 12.394 53.6052 13.2573 53.5501 13.5879C53.1644 15.6267 52.145 17.2522 50.3083 18.7767L49.4175 19.5114L49.4083 20.7695V22.0369H47.9389H46.4695V19.0155V16.0032L47.1583 15.4706C48.5818 14.3869 49.2246 13.3675 49.2981 12.1369C49.344 11.2736 49.1328 10.5481 48.6369 9.79505C48.1777 9.10627 47.3144 8.32566 46.6256 7.95831C46.093 7.6828 46.0011 7.66444 45.0828 7.66444C44.146 7.66444 44.0909 7.67362 43.4113 8.01342C42.0981 8.66546 41.0236 9.98791 40.7756 11.2736C40.5736 12.2746 40.9226 13.4318 41.694 14.3593C42.0522 14.791 43.3103 15.8746 43.4664 15.8838C43.5032 15.8838 43.5307 17.2706 43.5307 18.9604V22.0369H42.1073H40.6838V20.8063V19.5665L39.7471 18.7859C38.4062 17.6746 37.7542 16.8665 37.1481 15.5808C36.5695 14.3593 36.4226 13.6522 36.4226 11.8889C36.4134 10.0614 36.5695 9.3175 37.2399 7.93995C38.4338 5.47872 40.7848 3.72464 43.4848 3.29301C44.3389 3.15525 46.5338 3.26546 47.342 3.48586ZM45.8266 10.6308C46.295 10.8604 46.4879 11.3012 46.442 11.9991C46.3685 12.991 45.8909 13.3767 44.7981 13.294C44.3481 13.2573 44.2103 13.2114 43.9715 12.9726C43.3195 12.3114 43.5215 10.8787 44.3113 10.5573C44.642 10.4195 45.4869 10.4563 45.8266 10.6308ZM49.4083 25.6644V26.3532H45.046H40.6838V25.6644V24.9757H45.046H49.4083V25.6644Z" fill="#5A5A79"/>
<path d="M19.883 26.5462C18.8544 26.6748 17.0636 27.1524 15.9523 27.6024C10.9381 29.6136 7.2003 34.0493 6.05234 39.3666C5.80439 40.5238 5.71255 42.9666 5.87785 44.234C6.31867 47.7881 7.91663 50.9932 10.5615 53.6289C11.985 55.0524 13.0411 55.8146 14.8779 56.733C17.486 58.037 18.1197 58.1748 21.8115 58.1748C24.1534 58.1748 24.6768 58.1473 25.2738 58.0095C25.6687 57.9177 26.0085 57.8075 26.036 57.7707C26.137 57.6054 25.3932 55.2268 25.2187 55.1626C25.1544 55.135 24.8605 55.1717 24.5574 55.2452C23.5197 55.484 21.784 55.585 20.5901 55.4748C17.1462 55.135 14.8411 54.0605 12.435 51.6636C10.5248 49.7534 9.43194 47.834 8.95439 45.5656C8.72479 44.4452 8.62377 42.5717 8.72479 41.2126C8.835 39.7064 8.93602 39.1279 9.29418 38.1177C10.3962 34.9768 12.4809 32.4513 15.1901 30.9544C18.3493 29.2095 22.5646 28.8421 25.9993 30.0177C27.9554 30.6881 29.1493 31.4319 30.986 33.1401C31.4819 33.6085 31.9411 33.9666 32.0054 33.9391C32.0697 33.9207 32.584 33.535 33.1442 33.0942L34.1636 32.2952L33.1442 31.3309C31.3901 29.6687 30.3248 28.8973 28.6901 28.0983C25.935 26.7575 22.7299 26.1973 19.883 26.5462Z" fill="#5A5A79"/>
<path d="M66.3523 26.5364C64.4146 26.7293 61.4207 27.8129 59.6942 28.9333C58.6932 29.5854 57.2421 30.7609 56.4799 31.5323C55.984 32.0374 55.9013 32.166 55.984 32.3038C56.0391 32.3864 56.4891 32.818 56.985 33.2589L57.885 34.0487L58.9962 33.0385C60.7044 31.4864 62.1738 30.5772 63.9187 29.9987C66.536 29.117 69.8789 29.1354 72.5697 30.0262C76.8952 31.468 80.3758 35.5548 81.0554 39.9905C81.2391 41.1844 81.184 44.4262 80.9544 45.4456C80.2748 48.5038 78.2268 51.5436 75.7197 53.215C72.7809 55.1619 69.4197 55.8874 65.8564 55.3364C64.736 55.1619 64.7177 55.1619 64.5891 55.3364C64.4421 55.5384 64.0564 56.7323 63.9646 57.2742C63.9095 57.614 63.9279 57.6691 64.1391 57.8068C64.7177 58.1925 68.0881 58.4313 70.0717 58.2293C75.885 57.6599 81.3952 53.068 83.3697 47.1446C84.2697 44.4629 84.334 40.9364 83.535 38.1905C83.2319 37.1619 82.5983 35.665 82.0197 34.664C79.5952 30.4578 75.435 27.5007 70.8156 26.7109C69.6217 26.5089 67.4452 26.417 66.3523 26.5364Z" fill="#5A5A79"/>
<path d="M43.1634 33.7917C40.9042 34.0305 38.1307 35.105 36.0001 36.556C32.5471 38.9162 29.9756 42.8192 29.2318 46.8325C29.0022 48.0999 29.0022 51.5254 29.2318 52.5999C29.6634 54.6203 30.7563 57.109 31.9318 58.7713C32.8777 60.1029 34.7971 61.9764 36.1379 62.8672C37.9195 64.0519 39.8481 64.906 41.4644 65.2366C43.3103 65.6039 46.4512 65.6499 47.9848 65.3376C52.3563 64.4284 56.4522 61.4437 58.8032 57.4305C59.6389 55.9886 60.3828 54.0141 60.6767 52.407C60.8971 51.2315 60.8971 48.1366 60.6767 46.9427C60.3552 45.1794 59.5195 43.0397 58.5185 41.4325C56.0756 37.5111 52.0073 34.7284 47.5899 33.9754C46.3593 33.7641 44.2746 33.6815 43.1634 33.7917ZM47.8471 36.8499C50.1705 37.2907 52.4205 38.5397 54.2756 40.3948C55.8001 41.9284 56.8195 43.5907 57.4716 45.6386C57.8756 46.9152 57.9858 47.9805 57.9216 50.258C57.8848 51.9662 57.8481 52.3152 57.6461 53.0774C56.4614 57.4488 53.2838 60.8009 49.0409 62.1509C47.6358 62.5917 46.9838 62.6743 44.8624 62.6652C42.7409 62.6652 42.043 62.5641 40.5736 62.0774C39.5083 61.7192 37.8552 60.8743 37.2032 60.3509C35.3022 58.8356 33.5756 56.6866 32.8226 54.905C32.1338 53.2794 31.9226 51.9754 31.9226 49.5417C31.9318 48.008 31.9685 47.5488 32.1338 46.7407C32.9236 43.0121 35.4858 39.6601 38.8471 37.9703C39.9491 37.4192 41.8318 36.8315 42.9797 36.6937C43.6593 36.6111 47.1767 36.7305 47.8471 36.8499Z" fill="#5A5A79"/>
<path d="M7.89796 56.4942C6.75918 57.3482 4.97755 59.1391 4.14184 60.2686C2.07551 63.0605 0.569388 66.6421 0.27551 69.4799C0.202041 70.2054 0.00918367 79.1411 0 82.2544V83.0166H9.45918H18.9184V81.5472V80.0778H10.9286H2.93878V77.5248C2.94796 73.4564 3.08571 69.3788 3.25102 68.635C3.45306 67.7074 3.9949 66.1278 4.4449 65.1635C5.36327 63.1982 6.52959 61.5911 8.14592 60.085C8.77959 59.488 9.55102 58.7625 9.86327 58.4778L10.4235 57.9452L10.1571 57.4676C9.75306 56.7237 9.07347 55.8329 8.91735 55.8329C8.83469 55.8329 8.37551 56.1268 7.89796 56.4942Z" fill="#5A5A79"/>
<path d="M80.3204 56.7421C79.7143 57.6513 79.4663 58.1013 79.5398 58.1564C79.5582 58.1748 79.9255 58.4319 80.3572 58.735C82.8 60.4248 84.9766 63.3727 86.1796 66.5962C86.9235 68.5982 87.0061 69.4891 87.098 76.4778L87.1439 80.0778L80.3755 80.0686C76.6561 80.0686 73.4051 80.0319 73.148 80.0044C72.7898 79.9493 72.6704 79.8942 72.5786 79.7105C72.5143 79.5911 72.3949 79.4533 72.3031 79.4258C72.2112 79.3891 71.5868 79.3523 70.9255 79.3523L69.7041 79.3431V81.1799V83.0166H79.8521H90V78.4431C89.9908 72.3819 89.899 69.985 89.5868 68.4605C88.9531 65.3013 87.3 61.9125 85.2153 59.4513C83.948 57.9544 81.5235 55.8329 81.0919 55.8329C80.9725 55.8329 80.7245 56.1268 80.3204 56.7421Z" fill="#5A5A79"/>
<path d="M57.3796 63.5654C56.8286 64.3368 56.2775 65.2827 56.3418 65.3837C56.3694 65.4296 56.7275 65.696 57.15 65.9898C60.1898 68.1021 62.9449 72.4368 63.6061 76.1286C63.7255 76.8174 63.9 82.5939 63.9184 86.4786V87.3327H55.3408C50.6296 87.3327 46.5796 87.3052 46.3592 87.2776L45.9367 87.2225L47.1306 85.1562C47.7826 84.0174 50.1337 79.9674 52.3561 76.1562C54.5877 72.345 56.3877 69.2133 56.3694 69.2041C56.0939 68.9929 54.2479 67.9552 54.1377 67.9552C53.8714 67.9552 53.3479 68.8001 48.7469 76.6337C46.3316 80.748 45.1102 82.7409 45.0092 82.7409C44.9173 82.7409 43.5857 80.546 41.0786 76.2847C36.4592 68.4143 36.202 68.0011 35.8622 68.0011C35.6418 68.0011 33.7041 69.1307 33.7041 69.2592C33.7041 69.3052 35.7428 72.8409 38.2408 77.1205C40.7296 81.4001 43.0622 85.4133 43.4296 86.047L44.0816 87.195L43.8245 87.2501C43.6867 87.2868 39.6459 87.3143 34.852 87.3235L26.1275 87.3327L26.1551 84.6419C26.201 79.8388 26.3388 76.6337 26.5316 75.7154C26.7796 74.549 27.1194 73.6031 27.7806 72.2256C29.0663 69.5715 30.8939 67.3674 32.9969 65.9256L33.8051 65.3654L33.5939 65.0347C32.9235 63.9143 32.3081 63.0878 32.152 63.0878C31.702 63.0878 28.9561 65.5215 27.799 66.945C25.8612 69.3419 24.2541 72.7123 23.6479 75.6419C23.4459 76.6245 23.3541 79.0215 23.2806 85.1103L23.2163 90.2715L45.0092 90.2531L66.802 90.2256L66.7745 87.195C66.7377 82.3552 66.6 76.9735 66.4898 76.1837C66.3796 75.4031 65.8469 73.548 65.4337 72.5011C64.1112 69.1215 61.8612 66.0541 59.1428 63.9052C58.702 63.5654 57.8939 62.996 57.8388 62.996C57.8204 62.996 57.6092 63.2531 57.3796 63.5654Z" fill="#5A5A79"/>
</svg>
