<svg width="90" height="91" viewBox="0 0 90 91" fill="none" xmlns="http://www.w3.org/2000/svg">
<path d="M25.1121 3.62971C24.7192 4.04139 24.7005 4.24722 24.663 8.32654L24.6069 12.6117L23.0163 13.2105C22.1368 13.5286 21.0889 13.9777 20.6773 14.1835L19.9288 14.5765L16.9161 11.6012C12.818 7.55933 13.4355 7.5219 8.88842 12.1252C5.78215 15.3063 5.44533 15.6993 5.42661 16.2793C5.42661 16.8594 5.7073 17.215 8.42061 19.947L11.4333 22.9784L10.7971 24.3631C10.4416 25.149 10.0112 26.2157 9.84276 26.7396L9.50593 27.7127H5.53889C1.27245 27.7127 0.561374 27.8249 0.205837 28.5734C0.0748499 28.8915 0 30.6505 0 33.8129V38.5846L0.467812 39.0337L0.916911 39.5015H5.22078H9.50593L9.82404 40.4746C9.99246 41.0172 10.4416 42.1213 10.8158 42.9259L11.4707 44.3855L8.45803 47.4356C5.72601 50.1676 5.42661 50.5419 5.42661 51.1032C5.42661 51.6833 5.76344 52.0763 8.94456 55.2574C12.1257 58.4385 12.5186 58.7753 13.0987 58.7753C13.6601 58.7753 14.0343 58.4759 16.7664 55.7439L19.8165 52.7312L21.2761 53.3862C22.0807 53.7604 23.1847 54.2095 23.7274 54.3779L24.7005 54.696V58.9625C24.7005 62.8734 24.7379 63.2663 25.056 63.6593L25.4115 64.1084H30.4826C35.4975 64.1084 35.5537 64.1084 35.9654 63.678C36.377 63.2663 36.3957 63.1166 36.4893 58.925L36.5829 54.6025L37.6121 54.2656C38.1734 54.0785 39.2213 53.6481 39.9137 53.3113L41.1861 52.7125L44.0304 55.5381C45.6023 57.0912 47.0618 58.4572 47.3051 58.5882C48.1846 59.0186 48.6711 58.6631 52.1704 55.1451C56.6239 50.6916 56.5865 51.3278 52.5633 47.2672L49.5693 44.217L50.2055 42.9446C50.5611 42.2335 51.0102 41.1669 51.1973 40.5681L51.5341 39.5015H55.8006H60.0857L60.5348 39.0337L61.0026 38.5846V33.6632C60.9839 28.3676 60.9839 28.274 59.9922 27.8998C59.6928 27.7875 57.8028 27.7127 55.4825 27.7127H51.4967L51.0663 26.4402C50.8418 25.7478 50.4114 24.6999 50.112 24.0824L49.5506 22.9784L52.5633 19.9657C56.6052 15.8864 56.6426 16.5413 52.1516 12.0503C47.6606 7.55933 48.2969 7.59676 44.2363 11.6386L41.2236 14.6514L40.1195 14.09C39.5207 13.7906 38.4541 13.3415 37.7618 13.0982L36.4893 12.6491V8.68208C36.4893 6.39916 36.4145 4.5092 36.3022 4.2098C35.9279 3.21804 35.8344 3.21804 30.4826 3.19933C25.5425 3.19933 25.5051 3.19933 25.1121 3.62971ZM33.3082 10.2726C33.3082 13.5847 33.3643 14.4268 33.5889 14.7449C33.776 15.0069 34.4871 15.3437 35.7969 15.7367C36.8448 16.0548 38.4728 16.7472 39.4272 17.2524C40.3628 17.7576 41.3358 18.1693 41.5604 18.1693C41.8598 18.1693 42.889 17.2711 44.9473 15.2314L47.9039 12.2936L49.8687 14.2397L51.8335 16.1858L49.0454 19.0114C47.249 20.8078 46.2011 22.0054 46.1075 22.3609C46.014 22.7913 46.1449 23.2404 46.8747 24.6438C47.38 25.6169 48.091 27.301 48.4466 28.405C48.9892 30.0143 49.2138 30.4634 49.588 30.6505C49.9249 30.8189 51.2347 30.8938 54.0416 30.8938H58.0086V33.7006V36.5075H53.8358C49.7377 36.5075 49.6442 36.5075 49.2699 36.9192C49.0454 37.1624 48.7834 37.7238 48.6524 38.1916C48.2782 39.6512 47.7168 41.0359 46.856 42.6265C46.4069 43.4873 46.0327 44.4042 46.0327 44.6849C46.0327 45.0778 46.6315 45.7889 48.9331 48.1092L51.8335 51.0284L49.8687 52.9745L47.9039 54.9206L45.0409 52.0763C42.627 49.6811 42.0843 49.232 41.6165 49.232C41.2984 49.232 40.1569 49.6811 39.0903 50.2237C38.005 50.7851 36.4519 51.4026 35.6285 51.6272C33.2708 52.2634 33.3082 52.1698 33.3082 57.0164V61.0208H30.5013H27.6944V56.9415C27.6944 52.1137 27.7693 52.2821 25.3554 51.6272C24.5508 51.4026 22.9976 50.7851 21.931 50.2237C20.8457 49.6811 19.7416 49.232 19.4235 49.232C18.937 49.232 18.4131 49.6624 15.9804 52.0763L13.08 54.9206L11.1339 52.9745L9.16911 51.0284L12.0695 48.1092C14.3712 45.7889 14.97 45.0778 14.97 44.6849C14.97 44.4042 14.577 43.4498 14.0905 42.5704C13.6227 41.6722 12.9677 40.119 12.6309 39.1085C11.7514 36.3017 12.1631 36.5075 7.2043 36.5075H2.99399V33.7194V30.9125L7.18559 30.8563C11.9947 30.8002 11.976 30.8002 12.3502 29.1535C12.6496 27.8998 13.7162 25.2987 14.3337 24.307C14.6144 23.8766 14.8764 23.2029 14.9138 22.81C15.0261 22.0989 14.9887 22.0802 12.107 19.1423L9.16911 16.1858L11.1339 14.2397L13.0987 12.2749L15.9617 15.1192C17.6459 16.8033 19.0119 18.0009 19.2926 18.0757C19.6855 18.1693 20.2282 17.9822 21.5942 17.2524C22.5859 16.7284 24.2326 16.0548 25.2618 15.7367C26.5156 15.3437 27.2266 15.0069 27.4138 14.7449C27.6383 14.4268 27.6944 13.5847 27.6944 10.2726V6.19332H30.5013H33.3082V10.2726Z" fill="#5A5A79"/>
<path d="M27.7508 17.869C25.8608 18.2246 24.6258 18.655 23.0539 19.497C17.1595 22.622 13.941 28.6474 14.6146 35.3278C15.3257 42.2514 20.4903 47.9587 27.3017 49.3247C29.3975 49.7551 32.9903 49.6241 34.9551 49.0627C40.5501 47.4347 44.854 42.8502 46.1451 37.1429C46.5568 35.2903 46.5568 32.0531 46.1638 30.2193C44.8914 24.3623 40.363 19.6654 34.5247 18.1684C32.5973 17.6632 29.5285 17.5322 27.7508 17.869ZM33.3832 21.0689C34.113 21.2186 35.4042 21.7051 36.2837 22.1355C38.4543 23.2021 40.9431 25.6347 41.9722 27.7118C43.8435 31.473 43.8996 35.6459 42.1219 39.22C40.4378 42.5882 37.8742 44.815 34.3376 45.9939C33.0277 46.4243 32.5412 46.4991 30.5015 46.4991C28.4993 46.4804 27.9566 46.4243 26.7029 46.0126C21.4634 44.2723 17.9454 39.7065 17.646 34.2612C17.515 31.9408 17.8893 30.1818 18.9746 27.9925C21.1827 23.5389 25.4866 20.8256 30.4079 20.8069C31.3436 20.8069 32.6721 20.9192 33.3832 21.0689Z" fill="#5A5A79"/>
<path d="M28.9106 22.0987C26.3844 22.4543 24.2138 23.5396 22.3425 25.3734C20.0596 27.6376 18.8994 30.3696 18.8994 33.5507C18.8994 35.5904 19.1427 36.8067 19.9286 38.5096C21.4443 41.7842 24.1389 44.0484 27.6568 44.9466C30.3889 45.639 33.0086 45.3583 35.6845 44.0672C39.7077 42.1398 42.1029 38.285 42.1029 33.7753C42.1029 31.5111 41.8596 30.3883 40.9427 28.4797C38.8469 24.0822 33.832 21.4251 28.9106 22.0987ZM32.6531 25.3734C36.8821 26.4774 39.7264 30.8562 38.9405 35.0852C38.1733 39.1832 34.7114 42.1211 30.576 42.1585C25.3365 42.2146 21.2385 37.4991 22.0618 32.3906C22.8665 27.4318 27.844 24.1384 32.6531 25.3734Z" fill="#5A5A79"/>
<path d="M63.5289 43.7488C63.3231 43.8049 62.9675 44.0107 62.743 44.2353C62.3126 44.6095 62.3126 44.6283 62.3126 50.6537V56.6978L58.383 56.7539C54.5844 56.8101 54.4534 56.8288 54.0417 57.2405C53.6113 57.6521 53.6113 57.7083 53.5552 63.7337L53.499 69.8152L29.5097 69.8527L5.52028 69.9088L4.26655 70.5076C2.15204 71.4994 0.692467 73.3332 0.205943 75.5787C-0.0934565 77.0195 -0.0560315 80.5749 0.280793 81.8661C1.02929 84.7291 3.31221 86.7687 6.26878 87.2178C7.16698 87.3488 19.4424 87.4049 45.8456 87.3675C79.3784 87.3114 84.2062 87.274 84.8611 87.0307C87.5932 86.0015 89.3147 84.0367 89.8199 81.4357C90.0632 80.0884 90.0632 76.8137 89.8012 75.5787C89.1837 72.6408 86.564 70.2269 83.6635 69.8714L82.7092 69.7591V63.7337C82.7092 56.361 82.8776 56.8475 80.2017 56.7539L78.4053 56.6791V50.7285V44.7592L77.9562 44.2353L77.5071 43.7113L70.6958 43.6739C66.972 43.6739 63.7348 43.6926 63.5289 43.7488ZM75.4113 51.7577V56.7165H70.359H65.3066V51.7577V46.7989H70.359H75.4113V51.7577ZM66.6165 64.8564V69.8152H61.6577H56.6989V64.8564V59.8976H61.6577H66.6165V64.8564ZM79.7152 64.8564V69.8152H74.7564H69.7976V64.8564V59.8976H74.7564H79.7152V64.8564ZM84.3933 73.2958C86.0774 74.1004 86.7885 75.3167 86.9569 77.7493C87.1628 80.9304 86.4143 82.8017 84.543 83.7373L83.57 84.2238H45.0036H6.43719L5.46415 83.7373C3.61161 82.8204 2.86311 80.9866 3.05024 77.8429C3.23736 74.9612 4.24784 73.539 6.49333 73.0151C6.90501 72.9215 23.3907 72.8654 45.3778 72.8654L83.5513 72.9028L84.3933 73.2958Z" fill="#5A5A79"/>
<path d="M14.5396 74.3812C13.4356 74.7929 12.6122 75.5226 12.0883 76.5892C11.2649 78.2359 11.4895 80.0323 12.7058 81.4358C13.5665 82.4463 14.577 82.9141 15.9992 82.9141C18.5628 82.9141 20.3779 81.1177 20.3966 78.5541C20.3966 76.8138 19.5732 75.4104 18.095 74.6432C17.1219 74.1566 15.4752 74.0256 14.5396 74.3812ZM17.0283 77.8056C18.0014 79.0406 16.336 80.6124 15.1945 79.5458C14.708 79.078 14.6519 78.1237 15.101 77.6371C15.5688 77.1132 16.5418 77.188 17.0283 77.8056Z" fill="#5A5A79"/>
<path d="M29.0229 74.3806C28.2182 74.6613 27.0206 75.6718 26.6651 76.3642C25.5049 78.6284 26.2909 81.3417 28.4428 82.4831C29.1726 82.8761 29.4907 82.9322 30.7257 82.8761C31.9607 82.82 32.2601 82.7451 32.9712 82.2586C33.9817 81.5475 34.5243 80.7429 34.805 79.564C35.6097 76.2145 32.2414 73.2017 29.0229 74.3806ZM31.4368 77.674C32.204 78.4412 31.5678 79.9195 30.4637 79.9195C29.9772 79.9195 29.1913 79.0962 29.1913 78.5535C29.1913 77.4869 30.6696 76.9068 31.4368 77.674Z" fill="#5A5A79"/>
<path d="M43.7876 74.2876C41.804 74.8864 40.6064 76.5144 40.6064 78.6102C40.6064 81.0802 42.459 82.8954 44.9664 82.9141C47.5113 82.9141 49.3826 81.099 49.4013 78.6102C49.4013 75.6536 46.5383 73.4643 43.7876 74.2876ZM45.8834 77.6184C46.3325 78.1424 46.426 78.6102 46.1828 79.0406C45.584 80.2008 44.4238 80.2008 43.825 79.0406C43.4133 78.2734 44.087 77.3003 45.0039 77.3003C45.3407 77.3003 45.7149 77.45 45.8834 77.6184Z" fill="#5A5A79"/>
<path d="M57.8962 74.4186C56.998 74.7367 55.9314 75.7472 55.4449 76.7202C54.9771 77.6746 55.0145 79.602 55.5197 80.575C56.3618 82.1656 57.6343 82.9141 59.5429 82.9141C62.0691 82.9141 63.8468 81.1551 63.8468 78.6476C63.8655 75.4665 60.8902 73.352 57.8962 74.4186ZM60.4411 77.712C60.647 77.9365 60.8154 78.3108 60.8154 78.5541C60.8154 79.0967 60.0294 79.9201 59.5429 79.9201C58.9254 79.9201 58.1956 79.209 58.1956 78.5915C58.1956 77.4313 59.6552 76.8699 60.4411 77.712Z" fill="#5A5A79"/>
<path d="M72.529 74.3994C70.8823 74.9794 69.7783 76.3267 69.6473 77.936C69.535 79.3394 69.7034 80.0879 70.3771 81.0984C71.4624 82.7451 74.0073 83.4188 75.8973 82.558C77.5253 81.8095 78.5732 79.9008 78.3486 78.0296C78.0118 75.2227 75.1862 73.445 72.529 74.3994ZM74.8119 77.5992C75.6914 78.2167 75.0739 79.9195 73.9699 79.9195C73.4272 79.9195 72.6039 79.1336 72.6039 78.6471C72.6039 78.4412 72.7723 78.067 72.9968 77.7863C73.4459 77.2249 74.1757 77.1501 74.8119 77.5992Z" fill="#5A5A79"/>
</svg>
