<svg width="45" height="45" viewBox="0 0 45 45" fill="none" xmlns="http://www.w3.org/2000/svg">
<rect width="45" height="45" rx="22.5" fill="#E92B66"/>
<path d="M22.5 33.25C16.57 33.25 11.75 28.43 11.75 22.5C11.75 16.57 16.57 11.75 22.5 11.75C28.43 11.75 33.25 16.57 33.25 22.5C33.25 28.43 28.43 33.25 22.5 33.25ZM22.5 13.25C17.4 13.25 13.25 17.4 13.25 22.5C13.25 27.6 17.4 31.75 22.5 31.75C27.6 31.75 31.75 27.6 31.75 22.5C31.75 17.4 27.6 13.25 22.5 13.25Z" fill="white"/>
<path d="M26.2106 26.43C26.0806 26.43 25.9506 26.4 25.8306 26.32L22.7306 24.47C21.9606 24.01 21.3906 23 21.3906 22.11V18.01C21.3906 17.6 21.7306 17.26 22.1406 17.26C22.5506 17.26 22.8906 17.6 22.8906 18.01V22.11C22.8906 22.47 23.1906 23 23.5006 23.18L26.6006 25.03C26.9606 25.24 27.0706 25.7 26.8606 26.06C26.7106 26.3 26.4606 26.43 26.2106 26.43Z" fill="white"/>
</svg>
