<svg width="66" height="59" viewBox="0 0 66 59" fill="none" xmlns="http://www.w3.org/2000/svg">
<path d="M32.9757 12.8049C32.9621 12.4243 32.7854 12.1865 32.4456 12.0914L30.1827 11.3778L30.1215 10.5012C31.7389 10.5556 33.3358 10.5828 34.9124 10.5828C36.4889 10.5828 38.147 10.5556 39.8867 10.5012L39.9682 11.3778L37.4811 12.1321C37.1141 12.2545 36.9238 12.4719 36.9102 12.7845C36.8831 13.8854 36.8695 15.2309 36.8695 16.821V37.1675C36.8695 38.7713 36.8831 40.1236 36.9102 41.2245C36.9238 41.537 37.1141 41.7477 37.4811 41.8564L39.9274 42.6107L39.9682 43.4874C38.1742 43.4466 36.4617 43.4262 34.8308 43.4262H5.49469C3.91813 43.4262 2.28042 43.4466 0.581546 43.4874L0.5 42.6107L3.0687 41.8157C3.38129 41.7205 3.54438 41.4963 3.55797 41.1429C3.58515 40.2459 3.59874 39.1178 3.59874 37.7588V16.821C3.59874 15.2309 3.58515 13.8854 3.55797 12.7845C3.54438 12.4719 3.3609 12.2545 3.00754 12.1321L0.540773 11.3778L0.5 10.5012C2.3076 10.5556 3.99968 10.5828 5.57623 10.5828C7.15279 10.5828 8.71575 10.5556 10.2651 10.5012L10.3467 11.3778L8.043 12.0914C7.70322 12.1865 7.52654 12.4243 7.51295 12.8049C7.47217 13.8922 7.45179 15.2309 7.45179 16.821V41.571H18.3178V16.821C18.3178 15.2309 18.3042 13.8854 18.277 12.7845C18.2634 12.4311 18.0799 12.2001 17.7266 12.0914L15.4637 11.3778L15.4229 10.5012C17.081 10.5556 18.6983 10.5828 20.2749 10.5828C21.8514 10.5828 23.4144 10.5556 24.9638 10.5012L25.0657 11.3778L22.7416 12.0914C22.4019 12.1865 22.2252 12.4243 22.2116 12.8049C22.1844 13.8922 22.1708 15.2309 22.1708 16.821V41.571H33.0164V16.821C33.0164 15.2309 33.0028 13.8922 32.9757 12.8049Z" fill="#273645"/>
<path d="M37.1386 43.9463V51.5782C37.1386 52.4656 37.1386 53.2643 37.1386 53.9742C37.1534 54.6842 37.1682 55.3276 37.183 55.9044C37.1977 56.3629 37.39 56.6513 37.7598 56.7696L40.2224 57.5017L40.289 58.4557C38.5289 58.4114 36.7688 58.3892 35.0088 58.3892C33.2191 58.3892 31.3851 58.4114 29.5067 58.4557L29.418 57.5017L32.1468 56.6809C32.5166 56.5773 32.7162 56.3481 32.7458 55.9931C32.7606 55.4015 32.768 54.7433 32.768 54.0186C32.7828 53.2791 32.7902 52.4656 32.7902 51.5782V33.5856C32.7902 32.8313 32.7828 32.1509 32.768 31.5445C32.768 30.9381 32.7606 30.3908 32.7458 29.9028C32.731 29.5182 32.5535 29.2668 32.2134 29.1484L29.4623 28.2832L29.418 27.3292C30.3941 27.3588 31.3333 27.381 32.2356 27.3958C33.1378 27.4106 34.0326 27.418 34.92 27.418C35.8074 27.418 36.6801 27.4106 37.5379 27.3958C38.4106 27.381 39.2906 27.3588 40.178 27.3292L40.289 28.2832L37.7598 29.0597C37.39 29.1484 37.1977 29.3777 37.183 29.7475C37.1682 30.2799 37.1534 30.8567 37.1386 31.4779C37.1386 32.0991 37.1386 32.7721 37.1386 33.4968V41.994H39.4681C40.1484 41.994 40.7549 41.9718 41.2873 41.9274C41.8346 41.883 42.33 41.7795 42.7737 41.6168C43.2323 41.4393 43.639 41.1953 43.994 40.8847C44.3637 40.5593 44.7039 40.123 45.0145 39.5757C45.3399 39.0285 45.6431 38.3555 45.9241 37.5568C46.2051 36.7581 46.4935 35.7894 46.7894 34.6505C47.0852 33.4673 47.344 32.4615 47.5659 31.6332C47.8025 30.805 48.0318 30.1246 48.2536 29.5922C48.4755 29.0449 48.7047 28.6234 48.9414 28.3276C49.178 28.017 49.4516 27.7951 49.7622 27.662C50.0728 27.5141 50.4426 27.4254 50.8715 27.3958C51.3004 27.3662 51.8181 27.3514 52.4245 27.3514C53.6817 27.3514 55.035 27.4106 56.4845 27.5289L56.5732 28.9044C55.5527 28.934 54.6875 29.0893 53.9775 29.3703C53.2824 29.6365 52.676 30.0285 52.1583 30.5461C51.6554 31.049 51.2043 31.6776 50.805 32.4319C50.4204 33.1715 50.0211 34.0145 49.6069 34.9611C49.2963 35.6562 48.9783 36.344 48.653 37.0244C48.3276 37.7047 47.98 38.3555 47.6102 38.9767C47.2405 39.5831 46.8337 40.1452 46.39 40.6628C45.9611 41.1805 45.4804 41.6242 44.9479 41.994C46.0129 43.5617 46.989 45.0926 47.8765 46.5864C48.7639 48.0802 49.5848 49.4557 50.3391 50.7129C51.049 51.8814 51.6924 52.9093 52.2692 53.7967C52.8608 54.6842 53.4081 55.3793 53.911 55.8822C54.1772 56.1336 54.436 56.3481 54.6875 56.5256C54.9389 56.7031 55.1977 56.8584 55.464 56.9915C55.7302 57.1098 56.0112 57.2133 56.307 57.3021C56.6028 57.3908 56.943 57.4796 57.3276 57.5683L57.3941 58.5445C56.3292 58.6776 55.4418 58.7441 54.7318 58.7441C54.1254 58.7441 53.593 58.7294 53.1345 58.6998C52.676 58.6702 52.2618 58.611 51.8921 58.5223C51.5371 58.4335 51.2117 58.3226 50.9159 58.1895C50.6349 58.0416 50.3613 57.8567 50.095 57.6349C49.4295 57.1468 48.7713 56.422 48.1205 55.4607C47.4697 54.4993 46.7894 53.3678 46.0794 52.0663C45.5026 51.0457 44.911 49.9808 44.3046 48.8715C43.7129 47.7622 43.0622 46.6677 42.3522 45.588C42.1452 45.2774 41.9677 45.0186 41.8198 44.8115C41.6719 44.5897 41.5092 44.4196 41.3317 44.3013C41.169 44.1682 40.9767 44.0794 40.7549 44.035C40.5478 43.9759 40.2742 43.9463 39.934 43.9463H37.1386Z" fill="#E92B66"/>
<path d="M45.1885 13.9613C45.8451 10.5108 46.3114 7.02474 46.585 3.5244C46.5945 3.40796 45.8689 3.68836 45.7832 3.89986C45.6405 4.26106 45.6785 4.82663 45.6357 5.21159C45.531 6.18589 45.443 7.16019 45.3764 8.13686C45.2408 10.0736 45.1789 12.0174 45.1885 13.9589V13.9613Z" fill="white" stroke="#273645" stroke-width="0.31704" stroke-linejoin="round"/>
<path d="M45.0365 3.08953C44.9889 3.41033 45.1817 3.73114 45.4529 3.90698C45.7241 4.08283 46.0595 4.13274 46.3831 4.12561C46.7138 4.11848 47.073 4.03531 47.2729 3.77153C47.5251 3.44122 47.4085 2.93031 47.0992 2.6499C46.5639 2.16751 45.1674 2.18414 45.0365 3.08715V3.08953Z" fill="white" stroke="#273645" stroke-width="0.31704" stroke-miterlimit="10"/>
<path d="M46.2354 2.93506C46.3353 2.86139 46.459 2.82574 46.5827 2.83525" stroke="#273645" stroke-width="0.126816" stroke-linecap="round" stroke-linejoin="round"/>
<path d="M46.4189 3.1941C46.5165 3.08479 46.6735 3.03489 46.8163 3.06103" stroke="#273645" stroke-width="0.126816" stroke-linecap="round" stroke-linejoin="round"/>
<path d="M46.583 3.35812C46.6734 3.30346 46.79 3.2892 46.8923 3.32247" stroke="#273645" stroke-width="0.126816" stroke-linecap="round" stroke-linejoin="round"/>
<path d="M46.623 3.71691C46.6564 3.66463 46.7301 3.64325 46.7848 3.67176" stroke="#273645" stroke-width="0.126816" stroke-linecap="round" stroke-linejoin="round"/>
<path d="M46.043 4.72925C46.0929 4.73638 46.1429 4.74113 46.1905 4.74826" stroke="#273645" stroke-width="0.126816" stroke-linecap="round" stroke-linejoin="round"/>
<path d="M46.0215 5.08804C46.05 5.05478 46.1071 5.05002 46.1404 5.07854" stroke="#273645" stroke-width="0.126816" stroke-linecap="round" stroke-linejoin="round"/>
<path d="M46.002 5.43265C46.0495 5.4279 46.0947 5.42077 46.1423 5.41602" stroke="#273645" stroke-width="0.126816" stroke-linecap="round" stroke-linejoin="round"/>
<path d="M45.9619 5.81755C46.0047 5.80091 46.0476 5.78428 46.0904 5.77002" stroke="#273645" stroke-width="0.126816" stroke-linecap="round" stroke-linejoin="round"/>
<path d="M45.9141 6.27621C45.9521 6.26908 45.9878 6.26195 46.0259 6.2572" stroke="#273645" stroke-width="0.126816" stroke-linecap="round" stroke-linejoin="round"/>
<path d="M45.9121 6.673C45.943 6.64448 45.9906 6.63735 46.0287 6.65636" stroke="#273645" stroke-width="0.126816" stroke-linecap="round" stroke-linejoin="round"/>
<path d="M45.8711 7.04619C45.9092 7.04619 45.9472 7.04144 45.9853 7.03906" stroke="#273645" stroke-width="0.126816" stroke-linecap="round" stroke-linejoin="round"/>
<path d="M45.8213 7.50007C45.8641 7.47869 45.9046 7.4573 45.9474 7.43591" stroke="#273645" stroke-width="0.126816" stroke-linecap="round" stroke-linejoin="round"/>
<path d="M45.7861 7.97285C45.8028 7.94196 45.8527 7.93959 45.8718 7.9681" stroke="#273645" stroke-width="0.126816" stroke-linecap="round" stroke-linejoin="round"/>
<path d="M45.7402 8.35792C45.7902 8.33653 45.8425 8.31277 45.8925 8.29138C45.8806 8.31277 45.8711 8.33416 45.8592 8.35317" stroke="#273645" stroke-width="0.126816" stroke-linecap="round" stroke-linejoin="round"/>
<path d="M45.8428 8.64545C45.8404 8.61455 45.8071 8.58841 45.7762 8.59554C45.7453 8.60267 45.7239 8.63832 45.7358 8.66921C45.731 8.60505 45.7833 8.66921 45.8428 8.64545Z" stroke="#273645" stroke-width="0.126816" stroke-linecap="round" stroke-linejoin="round"/>
<path d="M45.543 9.43678C45.5763 9.37024 45.6738 9.34886 45.7309 9.39638C45.7309 9.42252 45.7309 9.44866 45.7309 9.47718" stroke="#273645" stroke-width="0.126816" stroke-linecap="round" stroke-linejoin="round"/>
<path d="M45.6357 9.97137C45.6809 9.95949 45.7214 10.026 45.6881 10.0593" stroke="#273645" stroke-width="0.126816" stroke-linecap="round" stroke-linejoin="round"/>
<path d="M32.3517 16.6964C31.1764 13.3862 29.8204 10.1425 28.2859 6.98195C28.2359 6.87739 27.7506 7.48573 27.7839 7.70911C27.841 8.0917 28.1621 8.56221 28.3192 8.91628C28.7212 9.80979 29.1376 10.6962 29.5729 11.573C30.4342 13.3149 31.362 15.0235 32.3493 16.694L32.3517 16.6964Z" fill="white" stroke="#273645" stroke-width="0.31704" stroke-linejoin="round"/>
<path d="M26.7293 7.38597C26.8506 7.68539 27.1789 7.86837 27.5025 7.88263C27.8261 7.89926 28.1401 7.77332 28.4161 7.60222C28.6968 7.42875 28.9656 7.17686 29.0061 6.84892C29.056 6.43782 28.6968 6.05285 28.29 5.9673C27.5834 5.81997 26.3867 6.53762 26.7293 7.3836V7.38597Z" fill="white" stroke="#273645" stroke-width="0.31704" stroke-miterlimit="10"/>
<path d="M27.6885 6.64689C27.7361 6.53521 27.8265 6.44015 27.9383 6.3855" stroke="#273645" stroke-width="0.126816" stroke-linecap="round" stroke-linejoin="round"/>
<path d="M27.9785 6.77767C28.0071 6.63509 28.1165 6.51152 28.2545 6.46399" stroke="#273645" stroke-width="0.126816" stroke-linecap="round" stroke-linejoin="round"/>
<path d="M28.2002 6.83709C28.2502 6.74441 28.3453 6.67312 28.45 6.65173" stroke="#273645" stroke-width="0.126816" stroke-linecap="round" stroke-linejoin="round"/>
<path d="M28.416 7.127C28.416 7.06521 28.4707 7.01056 28.5326 7.00818" stroke="#273645" stroke-width="0.126816" stroke-linecap="round" stroke-linejoin="round"/>
<path d="M28.4258 8.29378C28.471 8.27477 28.5162 8.25339 28.5638 8.23438" stroke="#273645" stroke-width="0.126816" stroke-linecap="round" stroke-linejoin="round"/>
<path d="M28.5898 8.61456C28.597 8.57178 28.6446 8.53851 28.6874 8.54802" stroke="#273645" stroke-width="0.126816" stroke-linecap="round" stroke-linejoin="round"/>
<path d="M28.7471 8.92112C28.7851 8.8926 28.8232 8.86409 28.8589 8.83557" stroke="#273645" stroke-width="0.126816" stroke-linecap="round" stroke-linejoin="round"/>
<path d="M28.9082 9.27283C28.9368 9.23718 28.9653 9.20154 28.9962 9.16589" stroke="#273645" stroke-width="0.126816" stroke-linecap="round" stroke-linejoin="round"/>
<path d="M29.0986 9.69342C29.1272 9.66965 29.1557 9.64351 29.1843 9.61975" stroke="#273645" stroke-width="0.126816" stroke-linecap="round" stroke-linejoin="round"/>
<path d="M29.2969 10.0379C29.3088 9.9975 29.3468 9.96661 29.3897 9.96423" stroke="#273645" stroke-width="0.126816" stroke-linecap="round" stroke-linejoin="round"/>
<path d="M29.4482 10.3801C29.4792 10.3588 29.5125 10.3374 29.5434 10.3184" stroke="#273645" stroke-width="0.126816" stroke-linecap="round" stroke-linejoin="round"/>
<path d="M29.6338 10.7961C29.66 10.7557 29.6861 10.7176 29.7099 10.6772" stroke="#273645" stroke-width="0.126816" stroke-linecap="round" stroke-linejoin="round"/>
<path d="M29.8438 11.2237C29.8438 11.1881 29.8842 11.1619 29.9151 11.1762" stroke="#273645" stroke-width="0.126816" stroke-linecap="round" stroke-linejoin="round"/>
<path d="M30.001 11.5802C30.0343 11.535 30.0652 11.4899 30.0985 11.4447C30.0985 11.4685 30.0985 11.4922 30.1009 11.516" stroke="#273645" stroke-width="0.126816" stroke-linecap="round" stroke-linejoin="round"/>
<path d="M30.2311 11.775C30.2121 11.7489 30.1716 11.7442 30.1478 11.7655C30.124 11.7869 30.1264 11.8297 30.1478 11.8487C30.1121 11.7964 30.1883 11.825 30.2287 11.775H30.2311Z" stroke="#273645" stroke-width="0.126816" stroke-linecap="round" stroke-linejoin="round"/>
<path d="M30.3723 12.6091C30.3675 12.5354 30.4413 12.4665 30.515 12.4784C30.5269 12.5022 30.5412 12.5235 30.5531 12.5473" stroke="#273645" stroke-width="0.126816" stroke-linecap="round" stroke-linejoin="round"/>
<path d="M30.7236 13.025C30.7569 12.9917 30.8259 13.0297 30.814 13.0749" stroke="#273645" stroke-width="0.126816" stroke-linecap="round" stroke-linejoin="round"/>
<path d="M51.8963 13.6199C51.7964 13.7171 51.6728 13.7929 51.5515 13.8688C50.9356 14.2764 50.3554 14.7172 49.7634 15.1579C49.2355 15.5561 48.8027 15.9921 48.2962 16.4163C48.2558 16.4471 48.213 16.4803 48.1654 16.4685C48.1155 16.459 48.0846 16.4045 48.0893 16.3594C48.0893 16.3097 48.1131 16.2623 48.1369 16.2196C48.3343 15.8713 48.5958 15.5727 48.9026 15.3191C49.1641 15.1011 49.3639 14.8048 49.5969 14.5465C49.956 14.1413 50.3459 13.7621 50.7097 13.3593C51.1092 13.4327 51.5039 13.518 51.8963 13.6176V13.6199Z" fill="#E92B66"/>
<path d="M59.0525 17.7664C58.9527 17.8636 58.829 17.9394 58.7077 18.0152C58.0919 18.4229 57.5117 18.8636 56.9196 19.3044C56.3917 19.7026 55.959 20.1386 55.4525 20.5628C55.412 20.5936 55.3692 20.6268 55.3217 20.6149C55.2718 20.6055 55.2408 20.551 55.2456 20.5059C55.2456 20.4562 55.2694 20.4088 55.2932 20.3661C55.4905 20.0177 55.7521 19.7191 56.0588 19.4656C56.3204 19.2476 56.5201 18.9513 56.7532 18.693C57.1122 18.2878 57.5022 17.9086 57.866 17.5057C58.2655 17.5792 58.6602 17.6645 59.0525 17.764V17.7664Z" fill="#E92B66"/>
<path d="M54.7887 15.7564C54.7352 15.8005 54.672 15.8461 54.6039 15.8869C53.719 16.4544 52.834 17.022 51.954 17.5928C51.5115 17.8749 51.069 18.1603 50.6265 18.4457C50.2862 18.6675 49.9653 18.9937 49.4644 19.1731C49.3575 19.0084 49.6346 18.7948 49.7708 18.6398C50.0285 18.343 50.2862 18.0462 50.5439 17.751C51.0593 17.1606 52.3072 15.0923 52.8226 14.5019C52.8907 14.4269 52.9539 14.3519 53.0317 14.2785C53.8631 14.2719 54.7838 15.758 54.7838 15.758L54.7887 15.7564Z" fill="#E92B66"/>
<path d="M39.2417 18.7617C39.1588 18.7818 39.0817 18.7164 39.0245 18.6535C38.6701 18.2383 38.3499 17.7979 38.0641 17.3399C37.5496 16.512 37.1437 15.6337 36.7921 14.7429C36.6292 14.3277 36.4777 13.9149 36.3291 13.4972C36.7807 13.2053 37.2523 12.9335 37.7411 12.6945C37.7926 12.8505 37.8211 13.0141 37.844 13.1776C38.1384 14.9794 38.6272 16.7611 39.3017 18.4798C39.3418 18.583 39.3589 18.734 39.2389 18.7617H39.2417Z" fill="#E92B66"/>
<path d="M32.5041 21.0017C32.4351 21.0166 32.3709 20.9683 32.3234 20.9219C32.0285 20.6156 31.7622 20.2908 31.5244 19.9529C31.0964 19.3422 30.7587 18.6944 30.4663 18.0372C30.3307 17.731 30.2047 17.4265 30.0811 17.1184C30.4568 16.9031 30.8491 16.7026 31.2557 16.5262C31.2985 16.6413 31.3223 16.762 31.3413 16.8826C31.5862 18.2117 31.9928 19.526 32.554 20.7938C32.5873 20.8699 32.6016 20.9813 32.5017 21.0017H32.5041Z" fill="#E92B66"/>
<path d="M59.0979 18.0163C58.3862 17.0853 57.2644 16.4532 56.099 16.3262C55.8529 16.2998 55.6042 16.2985 55.3555 16.3156C54.628 15.0672 53.5737 14.0397 52.3077 13.434C49.9451 12.3046 46.9251 12.8124 45.1458 14.5568C45.3959 14.2394 45.5295 13.8268 45.4977 13.4261C45.4686 13.0611 45.3125 12.7 45.0572 12.4104C44.8905 12.2213 44.6815 12.0772 44.454 11.97V11.9423C43.6045 11.639 43.2358 11.7949 42.8348 11.9317V11.9423C42.4023 12.142 42.0517 12.5109 41.8903 12.9447C41.7395 13.3494 41.7554 13.8122 41.9247 14.1997C40.1164 12.7476 37.3583 12.3853 35.1663 13.434C33.9004 14.0397 32.846 15.0659 32.1185 16.3143C31.8764 16.2985 31.633 16.2985 31.3936 16.3249C30.2281 16.4519 29.1064 17.084 28.3947 18.015C27.6023 19.0531 27.2742 20.5105 27.519 21.9176C27.728 23.1197 28.3272 24.2914 29.2492 25.3229C29.0998 25.1775 28.9476 25.0201 28.7942 24.8495L30.8314 27.7034V27.9784C34.8515 27.9639 39.2976 27.9507 43.7436 27.9361C48.1897 27.9216 52.6344 27.9083 56.6546 27.8938V27.6981L58.6878 24.8495C58.5674 24.9844 58.447 25.1087 58.328 25.2277C59.2024 24.22 59.7712 23.0827 59.9736 21.9176C60.217 20.5105 59.8902 19.0518 59.0979 18.0163ZM52.1569 13.7501C53.3157 14.3042 54.2906 15.2299 54.9798 16.3593C54.2324 16.4757 53.5115 16.7798 52.9202 17.244C51.8738 15.8131 50.2044 14.8689 48.4371 14.7141C47.482 14.6308 46.4237 14.8239 45.4448 15.255C45.3297 15.2061 45.212 15.1651 45.0942 15.1268C46.7121 13.2251 49.7824 12.6154 52.1569 13.7501ZM53.2734 26.6441C52.9043 26.4431 52.5855 26.1812 52.2852 25.8453C52.317 25.7937 52.35 25.7421 52.3831 25.6866C52.9969 24.6657 53.6319 23.6117 53.9308 22.4188C54.3449 20.767 54.0406 18.9619 53.1186 17.531C53.7007 17.0681 54.4229 16.7745 55.165 16.6833C55.7339 17.7307 56.0659 18.9275 56.0844 20.1574C56.1188 22.4981 55.0764 24.8759 53.2721 26.6427L53.2734 26.6441ZM31.3896 20.1587C31.4081 18.9275 31.7415 17.7307 32.3103 16.6833C33.059 16.7719 33.7879 17.0655 34.3739 17.5336C33.4532 18.9632 33.1477 20.7684 33.5617 22.4214C33.8607 23.613 34.4956 24.6683 35.1094 25.6892C35.1451 25.7474 35.1795 25.8043 35.2126 25.8572C34.9097 26.2513 34.6663 26.492 34.2324 26.6785C32.4082 24.9077 31.3539 22.5153 31.3883 20.1614L31.3896 20.1587ZM43.7463 15.2537C45.5096 15.2537 47.0904 16.436 47.773 18.257L47.814 18.3813C48.0151 18.9606 48.1183 19.5623 48.1183 20.1733C48.1183 20.8874 47.9807 21.5817 47.7042 22.2535C47.3285 23.4715 46.6274 24.6128 45.5043 25.8043C44.5208 24.9082 44.2849 23.7345 43.9235 22.5061C43.7436 21.423 43.7436 21.4797 43.5756 22.5563C43.2778 23.7743 42.9066 24.9095 41.9565 25.7686C40.8532 24.5876 40.16 23.453 39.7844 22.2363C39.5132 21.579 39.3769 20.8847 39.3769 20.1706C39.3769 19.5596 39.4788 18.9579 39.6825 18.376L39.7195 18.2623C40.4048 16.4333 41.9869 15.2511 43.7489 15.2511L43.7463 15.2537ZM42.7025 15.0382L42.7422 15.0064C42.7422 15.0064 42.733 14.9972 42.729 14.9919C42.7462 14.9998 42.7634 15.0104 42.7806 15.017C42.7541 15.0236 42.729 15.0315 42.7025 15.0382ZM44.6008 14.9932C44.6921 14.9509 44.7807 14.898 44.868 14.8318C44.8985 14.8094 44.9262 14.7816 44.954 14.7565C44.8786 14.8385 44.8019 14.9191 44.7318 15.0064L44.7688 15.0368C44.7119 15.0236 44.6564 15.0051 44.5995 14.9945L44.6008 14.9932ZM52.0497 25.561C52.0167 25.5187 51.9836 25.479 51.9505 25.434C51.7878 25.2118 51.6582 24.9659 51.551 24.7067C51.6225 24.421 51.7852 24.1512 52.0405 24.0071C52.3077 23.8563 52.6768 23.8814 52.8898 24.097C52.6397 24.5784 52.3593 25.0465 52.0828 25.5068C52.0709 25.5253 52.0603 25.5425 52.0497 25.561ZM35.411 25.5068C35.1319 25.0426 34.8502 24.5718 34.5975 24.0851C34.8118 23.8814 35.1729 23.859 35.4349 24.0071C35.6915 24.1525 35.8555 24.4237 35.9256 24.7119C35.8185 24.9685 35.6902 25.2118 35.5275 25.4327C35.497 25.4737 35.4679 25.5134 35.4401 25.5517C35.4309 25.5358 35.4216 25.5213 35.411 25.5041V25.5068ZM52.9069 24.0653C52.8368 23.8114 52.6807 23.5799 52.4651 23.4265C52.2297 23.2586 51.928 23.1845 51.6423 23.2229C51.7204 22.7785 51.5431 22.3011 51.2045 22.0049C51.1859 21.989 51.1674 21.9718 51.1476 21.9573C51.1277 21.9731 51.1092 21.989 51.0907 22.0049C50.752 22.3011 50.5748 22.7785 50.6528 23.2229C50.3658 23.1845 50.0655 23.2586 49.83 23.4265C49.5946 23.5945 49.4252 23.8537 49.367 24.1367C49.5707 23.8828 49.9729 23.8471 50.256 24.0084C50.5113 24.1525 50.6753 24.4237 50.7467 24.7106C50.6489 24.9566 50.5298 25.1986 50.3697 25.4353C49.8975 26.1349 49.1633 26.5541 48.3974 26.8133C48.0799 26.9205 47.7002 26.8689 47.3656 26.7948C46.9846 26.7102 46.3787 26.4933 45.7782 26.0291C46.929 24.8032 47.6513 23.6275 48.0389 22.3725C48.3273 21.6729 48.4728 20.9337 48.4728 20.1733C48.4728 19.5239 48.3643 18.8839 48.15 18.2676L48.109 18.1406C47.6619 16.9465 46.8549 16.0128 45.8641 15.46C46.7094 15.132 47.6024 14.9919 48.4106 15.062C50.0999 15.2087 51.6966 16.1212 52.6807 17.5019C53.6649 18.8825 54.0062 20.689 53.5948 22.3342C53.444 22.9372 53.198 23.5098 52.9109 24.0639L52.9069 24.0653ZM39.3862 18.1499L39.3478 18.2676C39.1335 18.8839 39.0237 19.5253 39.0237 20.1746C39.0237 20.9337 39.1692 21.6743 39.4523 22.358C39.8399 23.6117 40.5543 24.782 41.6892 25.9974C41.2646 26.3359 40.8572 26.5594 40.5714 26.6996C40.2712 26.8477 39.3002 26.8861 38.9827 26.7776C38.2155 26.5171 37.5845 26.1349 37.1122 25.434C36.9508 25.1946 36.8304 24.9513 36.7326 24.7027C36.804 24.4184 36.968 24.1499 37.222 24.0071C37.5051 23.8471 37.9059 23.8828 38.111 24.1354C38.0528 23.8523 37.8834 23.5931 37.648 23.4252C37.4125 23.2572 37.1109 23.1832 36.8238 23.2215C36.9019 22.7772 36.7246 22.2998 36.386 22.0035C36.3675 21.9877 36.3489 21.9705 36.3291 21.9559C36.3092 21.9718 36.2907 21.9877 36.2722 22.0035C35.9336 22.2998 35.7563 22.7772 35.8343 23.2215C35.5473 23.1832 35.247 23.2572 35.0115 23.4252C34.8025 23.5733 34.6504 23.7955 34.5776 24.0415C34.2959 23.494 34.0551 22.9293 33.9056 22.3342C33.4929 20.689 33.8355 18.8839 34.8197 17.5019C35.8039 16.1212 37.4006 15.2087 39.0899 15.062C39.8994 14.9919 40.791 15.1334 41.6377 15.46C40.6455 16.0128 39.8386 16.9504 39.3901 18.1473L39.3862 18.1499ZM42.2197 13.069C42.3573 12.7014 42.6642 12.3893 43.0412 12.2345C43.6338 11.9925 44.3707 12.1644 44.794 12.6432C45.0003 12.8759 45.126 13.1642 45.1485 13.4538C45.1816 13.8691 44.9871 14.3015 44.6564 14.5555C44.2979 14.8292 43.8878 14.812 43.4116 14.7935L43.3587 14.7909C42.9327 14.775 42.5359 14.5528 42.3242 14.2129C42.1192 13.8836 42.0795 13.4459 42.2197 13.069ZM35.3184 13.7514C37.6943 12.6154 40.7659 13.2264 42.3837 15.1307C42.27 15.1678 42.1589 15.2087 42.0491 15.2564C41.0715 14.8252 40.0106 14.6322 39.0568 14.7155C37.2895 14.8689 35.62 15.8144 34.5737 17.2453C33.9771 16.7772 33.2495 16.473 32.4968 16.358C33.186 15.2299 34.1596 14.3055 35.3184 13.7514ZM28.6725 18.2292C29.3273 17.3723 30.3591 16.7917 31.4319 16.674C31.5973 16.6555 31.7626 16.6529 31.9293 16.6568C31.379 17.7201 31.0589 18.9222 31.0404 20.1534C31.0047 22.551 32.0523 24.9817 33.8686 26.8067C33.8435 26.8147 33.821 26.8213 33.7958 26.8292C33.7958 26.8292 31.5854 27.4825 29.5958 25.151L29.6805 25.2793C29.6659 25.2647 29.6527 25.2502 29.6382 25.2356C28.6857 24.22 28.0719 23.0523 27.8655 21.8594C27.638 20.5475 27.9396 19.1907 28.6738 18.2306L28.6725 18.2292ZM59.6283 21.8581C59.4219 23.0509 58.8081 24.2187 57.8557 25.2343C57.3411 25.7831 56.726 26.3015 56.0381 26.7697C54.8621 27.2035 54.0697 26.9667 54.0697 26.9667C53.9057 26.9205 53.7549 26.8636 53.6081 26.8041C55.423 24.9804 56.4694 22.5497 56.435 20.1534C56.4165 18.9209 56.0963 17.7201 55.546 16.6568C55.718 16.6529 55.89 16.6555 56.0606 16.674C57.1334 16.7904 58.1639 17.3723 58.8201 18.2292C59.5542 19.1894 59.8558 20.5462 59.6283 21.8581Z" fill="#E92B66" stroke="#E92B66" stroke-width="0.31704"/>
<path d="M31.3008 28.6539L31.2969 29.0043C34.8342 29.0466 38.3913 29.0691 41.9537 29.0691C46.7331 29.0691 51.5178 29.0308 56.2642 28.9527L56.2589 28.6023C47.9792 28.7372 39.5832 28.7544 31.3022 28.6539H31.3008Z" fill="#E92B66"/>
<path d="M51.5555 17.0852C54.1463 14.1552 56.7348 11.2252 59.3256 8.2928C60.0251 7.50148 60.7245 6.71016 61.3407 5.85468C61.5239 5.60041 61.7047 5.33189 61.7737 5.02534C61.8427 4.71879 61.7808 4.36472 61.5429 4.16035C61.3026 3.95361 60.9339 3.94648 60.6413 4.06768C60.3462 4.18887 60.1107 4.417 59.8918 4.6475C59.1234 5.46021 58.4787 6.37985 57.8339 7.29474C57.1607 8.25478 56.485 9.21719 55.8117 10.1772C54.6222 11.8716 53.4302 13.5683 52.2407 15.2626C51.6459 16.1109 51.0512 16.9569 50.4564 17.8053C50.1162 18.2924 49.3953 18.915 49.3691 19.5471C50.1519 18.7938 50.837 17.9003 51.5579 17.0852H51.5555ZM59.2305 7.11176C59.0425 7.04047 59.1662 6.71491 59.209 6.58897C59.2685 6.41787 59.3447 6.25866 59.3684 6.21351C59.5516 5.8523 59.7967 5.51962 60.0869 5.23683C60.2677 5.06098 60.5437 4.76869 60.7959 4.69978C61.5929 4.47641 60.8554 5.58378 60.715 5.77864C60.4414 6.16123 60.1131 6.5058 59.7443 6.79808C59.6468 6.8765 59.3684 7.16404 59.2328 7.11176H59.2305Z" fill="white" stroke="#273645" stroke-width="0.31704" stroke-linejoin="round"/>
<path d="M58.6719 7.67737C58.7789 7.77005 58.9312 7.80807 59.0716 7.78193" stroke="#273645" stroke-width="0.126816" stroke-linecap="round" stroke-linejoin="round"/>
<path d="M58.3809 8.10266L58.7187 8.21435" stroke="#273645" stroke-width="0.126816" stroke-linecap="round" stroke-linejoin="round"/>
<path d="M58.248 8.45203C58.3599 8.49005 58.4717 8.52807 58.5835 8.56371" stroke="#273645" stroke-width="0.126816" stroke-linecap="round" stroke-linejoin="round"/>
<path d="M58.0293 8.82275C58.1221 8.86315 58.2125 8.90117 58.3053 8.94157" stroke="#273645" stroke-width="0.126816" stroke-linecap="round" stroke-linejoin="round"/>
<path d="M57.7031 9.13403C57.7816 9.16968 57.8625 9.2077 57.941 9.24334" stroke="#273645" stroke-width="0.126816" stroke-linecap="round" stroke-linejoin="round"/>
<path d="M57.4961 9.33606C57.5437 9.41448 57.6222 9.47151 57.7102 9.4929" stroke="#273645" stroke-width="0.126816" stroke-linecap="round" stroke-linejoin="round"/>
<path d="M57.3057 9.6925C57.3651 9.73053 57.4222 9.77092 57.4817 9.80894" stroke="#273645" stroke-width="0.126816" stroke-linecap="round" stroke-linejoin="round"/>
<path d="M56.9941 10.0276C57.0346 10.0561 57.075 10.0846 57.1155 10.1131" stroke="#273645" stroke-width="0.126816" stroke-linecap="round" stroke-linejoin="round"/>
<path d="M56.7939 10.2247C56.8463 10.2556 56.901 10.2865 56.9557 10.3174" stroke="#273645" stroke-width="0.126816" stroke-linecap="round" stroke-linejoin="round"/>
<path d="M56.5703 10.5028C56.6012 10.5385 56.6322 10.5741 56.6631 10.6074" stroke="#273645" stroke-width="0.126816" stroke-linecap="round" stroke-linejoin="round"/>
<path d="M56.3825 10.7571C56.373 10.807 56.4063 10.8616 56.4562 10.8735" stroke="#273645" stroke-width="0.126816" stroke-linecap="round" stroke-linejoin="round"/>
<path d="M55.7588 11.4272C55.8183 11.4653 55.8754 11.5057 55.9348 11.5437" stroke="#273645" stroke-width="0.126816" stroke-linecap="round" stroke-linejoin="round"/>
<path d="M55.4854 11.7717C55.5377 11.8026 55.5924 11.8335 55.6447 11.8644" stroke="#273645" stroke-width="0.126816" stroke-linecap="round" stroke-linejoin="round"/>
<path d="M55.2285 12.038C55.2761 12.0617 55.3261 12.0855 55.3736 12.1093" stroke="#273645" stroke-width="0.126816" stroke-linecap="round" stroke-linejoin="round"/>
<path d="M55.043 12.2589C55.0882 12.2946 55.1334 12.3326 55.181 12.3682" stroke="#273645" stroke-width="0.126816" stroke-linecap="round" stroke-linejoin="round"/>
<path d="M54.8242 12.5322C54.8575 12.5655 54.8908 12.5988 54.9241 12.632" stroke="#273645" stroke-width="0.126816" stroke-linecap="round" stroke-linejoin="round"/>
<path d="M54.667 12.7722C54.7074 12.8102 54.7479 12.8506 54.7883 12.8887" stroke="#273645" stroke-width="0.126816" stroke-linecap="round" stroke-linejoin="round"/>
<path d="M54.4961 13.0454C54.527 13.0906 54.5579 13.1381 54.5865 13.1832" stroke="#273645" stroke-width="0.126816" stroke-linecap="round" stroke-linejoin="round"/>
<path d="M54.2148 13.3282C54.2482 13.3615 54.2815 13.3948 54.3148 13.4281" stroke="#273645" stroke-width="0.126816" stroke-linecap="round" stroke-linejoin="round"/>
<path d="M53.9707 13.5231C54.0016 13.5492 54.0349 13.5754 54.0659 13.6015C54.0564 13.6181 54.0468 13.6348 54.0349 13.6514" stroke="#273645" stroke-width="0.126816" stroke-linecap="round" stroke-linejoin="round"/>
<path d="M53.835 13.794C53.8564 13.7726 53.8992 13.7869 53.904 13.8154C53.9087 13.8439 53.873 13.8724 53.8469 13.8605" stroke="#273645" stroke-width="0.126816" stroke-linecap="round" stroke-linejoin="round"/>
<path d="M53.6182 13.9794C53.6396 14.0079 53.661 14.0388 53.6848 14.0673" stroke="#273645" stroke-width="0.126816" stroke-linecap="round" stroke-linejoin="round"/>
<path d="M53.4346 14.2954C53.4584 14.2716 53.5059 14.2788 53.5202 14.3097C53.5345 14.3405 53.5107 14.3809 53.4774 14.3857" stroke="#273645" stroke-width="0.126816" stroke-linecap="round" stroke-linejoin="round"/>
<path d="M53.1641 14.6091C53.1926 14.6353 53.2212 14.659 53.2497 14.6852" stroke="#273645" stroke-width="0.126816" stroke-linecap="round" stroke-linejoin="round"/>
<path d="M48.0967 16.727C49.8953 13.7091 51.5249 10.5913 52.9786 7.39517C53.0261 7.29061 52.2482 7.30487 52.0983 7.47597C51.839 7.76588 51.682 8.31006 51.5107 8.65938C51.0777 9.53863 50.6637 10.425 50.2664 11.3209C49.4765 13.096 48.7533 14.8996 48.0967 16.727Z" fill="white" stroke="#273645" stroke-width="0.31704" stroke-linejoin="round"/>
<path d="M51.6748 6.45658C51.5225 6.74174 51.5915 7.11007 51.7866 7.36672C51.9817 7.62574 52.2791 7.78733 52.586 7.88951C52.8976 7.99407 53.264 8.03922 53.5424 7.86099C53.8921 7.63524 53.9563 7.11482 53.7636 6.74887C53.4258 6.11201 52.1078 5.651 51.6748 6.4542V6.45658Z" fill="white" stroke="#273645" stroke-width="0.31704" stroke-miterlimit="10"/>
<path d="M52.8545 6.72038C52.9734 6.68474 53.1019 6.69424 53.2137 6.74415" stroke="#273645" stroke-width="0.126816" stroke-linecap="round" stroke-linejoin="round"/>
<path d="M52.9385 7.02687C53.0669 6.95795 53.2311 6.96271 53.3572 7.03875" stroke="#273645" stroke-width="0.126816" stroke-linecap="round" stroke-linejoin="round"/>
<path d="M53.0352 7.23603C53.1398 7.21464 53.254 7.24315 53.3373 7.30732" stroke="#273645" stroke-width="0.126816" stroke-linecap="round" stroke-linejoin="round"/>
<path d="M52.9502 7.58776C52.9978 7.54974 53.0739 7.55687 53.1167 7.59964" stroke="#273645" stroke-width="0.126816" stroke-linecap="round" stroke-linejoin="round"/>
<path d="M52.0576 8.33862C52.1028 8.36239 52.1456 8.38377 52.1908 8.40516" stroke="#273645" stroke-width="0.126816" stroke-linecap="round" stroke-linejoin="round"/>
<path d="M51.918 8.67127C51.956 8.64989 52.0108 8.66415 52.0322 8.70454" stroke="#273645" stroke-width="0.126816" stroke-linecap="round" stroke-linejoin="round"/>
<path d="M51.7793 8.98743C51.8245 8.99931 51.8721 9.00881 51.9173 9.0207" stroke="#273645" stroke-width="0.126816" stroke-linecap="round" stroke-linejoin="round"/>
<path d="M51.6104 9.33667C51.6556 9.33667 51.7031 9.33667 51.7483 9.33667" stroke="#273645" stroke-width="0.126816" stroke-linecap="round" stroke-linejoin="round"/>
<path d="M51.4102 9.75024C51.4482 9.75737 51.4839 9.76213 51.522 9.76926" stroke="#273645" stroke-width="0.126816" stroke-linecap="round" stroke-linejoin="round"/>
<path d="M51.2725 10.1232C51.3105 10.1066 51.3605 10.1161 51.3867 10.147" stroke="#273645" stroke-width="0.126816" stroke-linecap="round" stroke-linejoin="round"/>
<path d="M51.1035 10.4607C51.1392 10.4726 51.1773 10.4821 51.213 10.494" stroke="#273645" stroke-width="0.126816" stroke-linecap="round" stroke-linejoin="round"/>
<path d="M50.9043 10.8694C50.9519 10.8647 50.9971 10.8575 51.0447 10.8528" stroke="#273645" stroke-width="0.126816" stroke-linecap="round" stroke-linejoin="round"/>
<path d="M50.709 11.302C50.7352 11.2782 50.7827 11.2948 50.7899 11.3281" stroke="#273645" stroke-width="0.126816" stroke-linecap="round" stroke-linejoin="round"/>
<path d="M50.5352 11.6488C50.5899 11.6441 50.6446 11.6417 50.7017 11.637C50.685 11.6536 50.666 11.6679 50.6494 11.6845" stroke="#273645" stroke-width="0.126816" stroke-linecap="round" stroke-linejoin="round"/>
<path d="M50.5303 11.9507C50.5399 11.9198 50.5161 11.8841 50.4851 11.8817C50.4542 11.877 50.4233 11.9055 50.4209 11.9364C50.4399 11.8746 50.4661 11.953 50.5303 11.9507Z" stroke="#273645" stroke-width="0.126816" stroke-linecap="round" stroke-linejoin="round"/>
<path d="M49.9785 12.5946C50.0309 12.5424 50.1308 12.5566 50.1688 12.6208C50.1593 12.6445 50.1498 12.6707 50.1403 12.6944" stroke="#273645" stroke-width="0.126816" stroke-linecap="round" stroke-linejoin="round"/>
<path d="M49.8838 13.1293C49.929 13.1316 49.9456 13.2101 49.9028 13.2315" stroke="#273645" stroke-width="0.126816" stroke-linecap="round" stroke-linejoin="round"/>
<path d="M38.628 16.0665C37.7834 12.2501 36.9365 8.43367 36.0919 4.61728C35.8635 3.58833 35.6351 2.557 35.3068 1.55419C35.2093 1.25714 35.0974 0.952972 34.8905 0.715339C34.6835 0.480082 34.3599 0.320867 34.053 0.392157C33.7437 0.463447 33.5225 0.758113 33.4464 1.06704C33.3702 1.37596 33.4154 1.70152 33.4749 2.01282C33.6795 3.11306 34.0435 4.17528 34.4051 5.23275C34.7858 6.3425 35.1664 7.45225 35.5447 8.56437C36.2156 10.5248 36.8865 12.483 37.5574 14.4434C37.8929 15.4225 38.2283 16.4039 38.5638 17.383C38.7565 17.9461 38.8374 18.8943 39.3322 19.2864C39.1847 18.2123 38.8635 17.1311 38.628 16.0712V16.0665ZM35.0784 3.99706C34.9119 4.10637 34.7192 3.81646 34.643 3.70714C34.5384 3.55744 34.4551 3.40297 34.4337 3.35782C34.2481 2.99662 34.1244 2.60452 34.0649 2.20292C34.0292 1.95341 33.9555 1.55656 34.0459 1.31418C34.3338 0.53949 34.7953 1.78707 34.8714 2.01519C35.0189 2.46194 35.1046 2.93008 35.1236 3.4006C35.1284 3.52654 35.1974 3.91864 35.076 3.99943L35.0784 3.99706Z" fill="white" stroke="#273645" stroke-width="0.31704" stroke-linejoin="round"/>
<path d="M35.207 4.78129C35.345 4.74803 35.4664 4.6506 35.5258 4.5199" stroke="#273645" stroke-width="0.126816" stroke-linecap="round" stroke-linejoin="round"/>
<path d="M35.3809 5.26839C35.476 5.19947 35.5736 5.13056 35.6687 5.06165" stroke="#273645" stroke-width="0.126816" stroke-linecap="round" stroke-linejoin="round"/>
<path d="M35.583 5.57973C35.6806 5.51082 35.7757 5.4419 35.8733 5.37537" stroke="#273645" stroke-width="0.126816" stroke-linecap="round" stroke-linejoin="round"/>
<path d="M35.7568 5.97423C35.8425 5.92433 35.9281 5.87205 36.0138 5.82214" stroke="#273645" stroke-width="0.126816" stroke-linecap="round" stroke-linejoin="round"/>
<path d="M35.8154 6.42087C35.8916 6.37809 35.9677 6.33532 36.0438 6.29492" stroke="#273645" stroke-width="0.126816" stroke-linecap="round" stroke-linejoin="round"/>
<path d="M35.8564 6.70842C35.9469 6.71555 36.0396 6.68704 36.1086 6.63" stroke="#273645" stroke-width="0.126816" stroke-linecap="round" stroke-linejoin="round"/>
<path d="M36.0322 7.06964C36.0988 7.04587 36.1631 7.02211 36.2297 6.99597" stroke="#273645" stroke-width="0.126816" stroke-linecap="round" stroke-linejoin="round"/>
<path d="M36.1201 7.51884C36.1677 7.50221 36.2153 7.48557 36.2605 7.47131" stroke="#273645" stroke-width="0.126816" stroke-linecap="round" stroke-linejoin="round"/>
<path d="M36.1611 7.79913C36.2182 7.77537 36.2753 7.74923 36.3324 7.72546" stroke="#273645" stroke-width="0.126816" stroke-linecap="round" stroke-linejoin="round"/>
<path d="M36.2559 8.14133C36.3034 8.13658 36.3486 8.13183 36.3962 8.12708" stroke="#273645" stroke-width="0.126816" stroke-linecap="round" stroke-linejoin="round"/>
<path d="M36.3516 8.44556C36.3849 8.48358 36.4491 8.48595 36.4895 8.45269" stroke="#273645" stroke-width="0.126816" stroke-linecap="round" stroke-linejoin="round"/>
<path d="M36.5244 9.34149C36.591 9.31773 36.6576 9.29396 36.7219 9.26782" stroke="#273645" stroke-width="0.126816" stroke-linecap="round" stroke-linejoin="round"/>
<path d="M36.6416 9.76446C36.6987 9.7407 36.7558 9.71456 36.8129 9.6908" stroke="#273645" stroke-width="0.126816" stroke-linecap="round" stroke-linejoin="round"/>
<path d="M36.7051 10.128C36.7527 10.1019 36.8002 10.0781 36.8478 10.052" stroke="#273645" stroke-width="0.126816" stroke-linecap="round" stroke-linejoin="round"/>
<path d="M36.7744 10.4085C36.8315 10.3919 36.8862 10.3776 36.9433 10.361" stroke="#273645" stroke-width="0.126816" stroke-linecap="round" stroke-linejoin="round"/>
<path d="M36.8701 10.7459C36.9177 10.7387 36.9629 10.7316 37.0105 10.7245" stroke="#273645" stroke-width="0.126816" stroke-linecap="round" stroke-linejoin="round"/>
<path d="M36.9697 11.0144C37.0244 11.0049 37.0792 10.9954 37.1363 10.9835" stroke="#273645" stroke-width="0.126816" stroke-linecap="round" stroke-linejoin="round"/>
<path d="M37.0889 11.3138C37.1436 11.3162 37.2007 11.3186 37.2554 11.321" stroke="#273645" stroke-width="0.126816" stroke-linecap="round" stroke-linejoin="round"/>
<path d="M37.1523 11.7058C37.1999 11.6987 37.2451 11.6916 37.2927 11.6844" stroke="#273645" stroke-width="0.126816" stroke-linecap="round" stroke-linejoin="round"/>
<path d="M37.167 12.0195C37.2074 12.01 37.2455 11.9982 37.2859 11.9886C37.2931 12.0077 37.3002 12.0243 37.3097 12.0433" stroke="#273645" stroke-width="0.126816" stroke-linecap="round" stroke-linejoin="round"/>
<path d="M37.5713 13.3099C37.6094 13.3028 37.645 13.2933 37.6831 13.2861" stroke="#273645" stroke-width="0.126816" stroke-linecap="round" stroke-linejoin="round"/>
<path d="M32.5143 21.0016C29.8069 18.2189 26.9449 15.586 23.9472 13.1169C23.8473 13.0361 23.6427 13.8702 23.7807 14.0794C24.0162 14.4382 24.5539 14.7614 24.8751 15.0442C25.6911 15.7571 26.519 16.4533 27.3612 17.1353C29.0314 18.4875 30.7491 19.7754 32.5143 20.9992V21.0016Z" fill="white" stroke="#273645" stroke-width="0.31704" stroke-linejoin="round"/>
<path d="M22.5693 14.2385C22.8286 14.4833 23.2425 14.5142 23.5756 14.3811C23.9063 14.2481 24.1656 13.9771 24.3655 13.6801C24.5677 13.3759 24.7223 13.0005 24.6105 12.6535C24.4701 12.2163 23.9325 11.9977 23.4852 12.0975C22.7072 12.2733 21.8389 13.547 22.5716 14.2385H22.5693Z" fill="white" stroke="#273645" stroke-width="0.31704" stroke-miterlimit="10"/>
<path d="M23.1905 13.0575C23.1881 12.9221 23.2333 12.7866 23.319 12.6797" stroke="#273645" stroke-width="0.126816" stroke-linecap="round" stroke-linejoin="round"/>
<path d="M23.5423 13.0552C23.5066 12.8983 23.559 12.7248 23.6732 12.6132" stroke="#273645" stroke-width="0.126816" stroke-linecap="round" stroke-linejoin="round"/>
<path d="M23.792 13.0124C23.7991 12.8935 23.861 12.7819 23.9561 12.7106" stroke="#273645" stroke-width="0.126816" stroke-linecap="round" stroke-linejoin="round"/>
<path d="M24.1439 13.2025C24.1177 13.1407 24.1439 13.0599 24.2057 13.0291" stroke="#273645" stroke-width="0.126816" stroke-linecap="round" stroke-linejoin="round"/>
<path d="M24.6914 14.3692C24.7271 14.3288 24.7652 14.2884 24.8008 14.248" stroke="#273645" stroke-width="0.126816" stroke-linecap="round" stroke-linejoin="round"/>
<path d="M25.0055 14.6164C24.9936 14.5689 25.0245 14.5143 25.0721 14.5048" stroke="#273645" stroke-width="0.126816" stroke-linecap="round" stroke-linejoin="round"/>
<path d="M25.3057 14.854C25.3295 14.8089 25.3556 14.7613 25.3794 14.7162" stroke="#273645" stroke-width="0.126816" stroke-linecap="round" stroke-linejoin="round"/>
<path d="M25.6289 15.1344C25.6408 15.0845 25.6551 15.037 25.667 14.9871" stroke="#273645" stroke-width="0.126816" stroke-linecap="round" stroke-linejoin="round"/>
<path d="M26.0146 15.4671C26.0313 15.4291 26.0503 15.391 26.067 15.353" stroke="#273645" stroke-width="0.126816" stroke-linecap="round" stroke-linejoin="round"/>
<path d="M26.3714 15.7214C26.3642 15.6763 26.388 15.6264 26.4308 15.605" stroke="#273645" stroke-width="0.126816" stroke-linecap="round" stroke-linejoin="round"/>
<path d="M26.6826 15.9971C26.704 15.9614 26.7278 15.9258 26.7492 15.8901" stroke="#273645" stroke-width="0.126816" stroke-linecap="round" stroke-linejoin="round"/>
<path d="M27.0635 16.3273C27.0706 16.275 27.0778 16.2251 27.0873 16.1729" stroke="#273645" stroke-width="0.126816" stroke-linecap="round" stroke-linejoin="round"/>
<path d="M27.4677 16.66C27.4487 16.6267 27.4796 16.5792 27.5177 16.5792" stroke="#273645" stroke-width="0.126816" stroke-linecap="round" stroke-linejoin="round"/>
<path d="M27.7891 16.9453C27.801 16.8858 27.8129 16.8241 27.8247 16.7646C27.8366 16.7884 27.8485 16.8122 27.8604 16.8359" stroke="#273645" stroke-width="0.126816" stroke-linecap="round" stroke-linejoin="round"/>
<path d="M28.1121 17.0355C28.0811 17.0188 28.0383 17.0331 28.024 17.064C28.0098 17.0949 28.0312 17.1377 28.0645 17.1472C28.005 17.1091 28.0954 17.1044 28.1121 17.0355Z" stroke="#273645" stroke-width="0.126816" stroke-linecap="round" stroke-linejoin="round"/>
<path d="M28.6381 17.8078C28.5977 17.7365 28.6429 17.6344 28.7214 17.6106C28.7452 17.6272 28.769 17.6439 28.7928 17.6629" stroke="#273645" stroke-width="0.126816" stroke-linecap="round" stroke-linejoin="round"/>
<path d="M29.1836 18.0645C29.2002 18.017 29.2883 18.0217 29.2978 18.074" stroke="#273645" stroke-width="0.126816" stroke-linecap="round" stroke-linejoin="round"/>
<path d="M55.3018 20.4876C58.4564 18.9406 61.5278 17.2178 64.4922 15.331C64.5897 15.2692 63.9307 14.8581 63.7095 14.9175C63.3336 15.0197 62.9053 15.3904 62.5722 15.59C61.7301 16.0914 60.8974 16.6094 60.0742 17.1417C58.4422 18.1968 56.8505 19.3161 55.3018 20.49V20.4876Z" fill="white" stroke="#273645" stroke-width="0.31704" stroke-linejoin="round"/>
<path d="M63.9095 13.8339C63.6264 13.9883 63.4836 14.3353 63.505 14.6585C63.5264 14.9816 63.6882 15.2787 63.8881 15.5329C64.0927 15.792 64.3758 16.0296 64.7041 16.032C65.1204 16.032 65.4583 15.6327 65.4963 15.2193C65.5629 14.5016 64.7088 13.3966 63.9071 13.8339H63.9095Z" fill="white" stroke="#273645" stroke-width="0.31704" stroke-miterlimit="10"/>
<path d="M64.7539 14.6989C64.8705 14.7345 64.9752 14.8129 65.0418 14.9151" stroke="#273645" stroke-width="0.126816" stroke-linecap="round" stroke-linejoin="round"/>
<path d="M64.6562 15.0006C64.8014 15.0125 64.937 15.1075 65.0012 15.2382" stroke="#273645" stroke-width="0.126816" stroke-linecap="round" stroke-linejoin="round"/>
<path d="M64.623 15.2288C64.723 15.2692 64.8015 15.3523 64.8372 15.4545" stroke="#273645" stroke-width="0.126816" stroke-linecap="round" stroke-linejoin="round"/>
<path d="M64.3613 15.4758C64.4232 15.4711 64.4827 15.5162 64.4946 15.578" stroke="#273645" stroke-width="0.126816" stroke-linecap="round" stroke-linejoin="round"/>
<path d="M63.2031 15.6208C63.2269 15.6636 63.2531 15.7064 63.2769 15.7492" stroke="#273645" stroke-width="0.126816" stroke-linecap="round" stroke-linejoin="round"/>
<path d="M62.9033 15.8204C62.9485 15.8204 62.9842 15.8656 62.9818 15.9107" stroke="#273645" stroke-width="0.126816" stroke-linecap="round" stroke-linejoin="round"/>
<path d="M62.6152 16.0129C62.6485 16.0462 62.6795 16.0819 62.7128 16.1151" stroke="#273645" stroke-width="0.126816" stroke-linecap="round" stroke-linejoin="round"/>
<path d="M62.2822 16.2125C62.3203 16.2363 62.3607 16.2624 62.3988 16.2862" stroke="#273645" stroke-width="0.126816" stroke-linecap="round" stroke-linejoin="round"/>
<path d="M61.8877 16.4502C61.9162 16.4763 61.9424 16.5025 61.971 16.5262" stroke="#273645" stroke-width="0.126816" stroke-linecap="round" stroke-linejoin="round"/>
<path d="M61.5684 16.6854C61.6088 16.6926 61.6445 16.7258 61.6516 16.7686" stroke="#273645" stroke-width="0.126816" stroke-linecap="round" stroke-linejoin="round"/>
<path d="M61.2451 16.8779C61.2689 16.9064 61.2951 16.9373 61.3189 16.9659" stroke="#273645" stroke-width="0.126816" stroke-linecap="round" stroke-linejoin="round"/>
<path d="M60.8525 17.1108C60.8954 17.1322 60.9358 17.1536 60.9786 17.1726" stroke="#273645" stroke-width="0.126816" stroke-linecap="round" stroke-linejoin="round"/>
<path d="M60.4521 17.3651C60.4855 17.358 60.5188 17.3984 60.5069 17.4316" stroke="#273645" stroke-width="0.126816" stroke-linecap="round" stroke-linejoin="round"/>
<path d="M60.1172 17.5623C60.1648 17.5884 60.2147 17.6169 60.2623 17.6431C60.2385 17.6478 60.2147 17.6502 60.1909 17.6549" stroke="#273645" stroke-width="0.126816" stroke-linecap="round" stroke-linejoin="round"/>
<path d="M59.9485 17.8143C59.9723 17.7929 59.9723 17.7525 59.9485 17.7311C59.9247 17.7097 59.8819 17.7168 59.8652 17.743C59.9152 17.7026 59.8938 17.781 59.9485 17.8143Z" stroke="#273645" stroke-width="0.126816" stroke-linecap="round" stroke-linejoin="round"/>
<path d="M59.1348 18.0519C59.2061 18.0376 59.2846 18.1041 59.2799 18.1778C59.2585 18.1944 59.2371 18.2087 59.2157 18.2253" stroke="#273645" stroke-width="0.126816" stroke-linecap="round" stroke-linejoin="round"/>
<path d="M58.7637 18.4487C58.8017 18.4772 58.7708 18.5485 58.7256 18.5438" stroke="#273645" stroke-width="0.126816" stroke-linecap="round" stroke-linejoin="round"/>
<path d="M44.4335 19.971C44.4335 20.5315 43.7382 21.6346 43.7382 21.6346C43.7382 21.6346 43.043 20.5308 43.043 19.971C43.043 19.4113 43.354 19.1324 43.7382 19.1324C44.1224 19.1324 44.4335 19.4105 44.4335 19.971Z" fill="#E92B66" stroke="#E92B66" stroke-width="0.63408" stroke-linecap="round" stroke-linejoin="round"/>
<path d="M44.4335 9.82798C44.4335 10.3885 43.7382 11.4916 43.7382 11.4916C43.7382 11.4916 43.043 10.3878 43.043 9.82798C43.043 9.2682 43.354 8.98938 43.7382 8.98938C44.1224 8.98938 44.4335 9.26748 44.4335 9.82798Z" fill="#E92B66" stroke="#E92B66" stroke-width="0.63408" stroke-linecap="round" stroke-linejoin="round"/>
</svg>
