<svg width="34" height="34" viewBox="0 0 34 34" fill="none" xmlns="http://www.w3.org/2000/svg">
<path fill-rule="evenodd" clip-rule="evenodd" d="M33.2644 24.275V10.6059L23.6651 0.94043H10.0896L0.490234 10.6059V24.275L10.0896 33.9404H23.6651L33.2644 24.275ZM11.3237 3.94043H22.4309L30.2849 11.8485V23.0323L22.4309 30.9404H11.3237L3.46971 23.0323V11.8485L11.3237 3.94043ZM16.8778 26.438C17.7008 26.438 18.368 25.7664 18.368 24.938C18.368 24.1095 17.7008 23.438 16.8778 23.438C16.0548 23.438 15.3876 24.1095 15.3876 24.938C15.3876 25.7664 16.0548 26.438 16.8778 26.438ZM18.3724 8.43795H15.392V20.4379H18.3724V8.43795Z" fill="#E92B66"/>
</svg>
