<svg width="80" height="80" viewBox="0 0 80 80" fill="none" xmlns="http://www.w3.org/2000/svg">
<path d="M35.3569 5C35.3569 3.34315 36.7001 2 38.3569 2H38.8952C40.5521 2 41.8952 3.34315 41.8952 5V15.7215C41.8952 17.3784 40.5521 18.7215 38.8952 18.7215H38.3569C36.7001 18.7215 35.3569 17.3784 35.3569 15.7215V5Z" fill="#FFC857"/>
<path d="M14.4954 19.8594C13.3238 18.6878 13.3238 16.7883 14.4954 15.6167L14.876 15.2361C16.0476 14.0645 17.9471 14.0645 19.1187 15.2361L24.2926 20.4101C25.4642 21.5816 25.4642 23.4811 24.2926 24.6527L23.912 25.0334C22.7404 26.2049 20.8409 26.2049 19.6693 25.0334L14.4954 19.8594Z" fill="#E92B66"/>
<path d="M8 44.0032C6.34315 44.0032 5 42.66 5 41.0032L5 40.4648C5 38.808 6.34315 37.4648 8 37.4648L17.2822 37.4648C18.939 37.4648 20.2822 38.808 20.2822 40.4648V41.0032C20.2822 42.66 18.939 44.0032 17.2822 44.0032L8 44.0032Z" fill="#FFC857"/>
<path d="M20.1045 67.1805C18.9329 68.3521 17.0334 68.3521 15.8619 67.1805L15.4812 66.7999C14.3096 65.6283 14.3096 63.7288 15.4812 62.5572L23.9703 54.0681C25.1419 52.8966 27.0414 52.8966 28.213 54.0681L28.5936 54.4488C29.7652 55.6204 29.7652 57.5198 28.5936 58.6914L20.1045 67.1805Z" fill="#E92B66"/>
<path d="M35.3569 60.0781C35.3569 58.4213 36.7001 57.0781 38.3569 57.0781H38.8952C40.5521 57.0781 41.8952 58.4213 41.8952 60.0781V74.3735C41.8952 76.0303 40.5521 77.3735 38.8952 77.3735H38.3569C36.7001 77.3735 35.3569 76.0303 35.3569 74.3735V60.0781Z" fill="#FFC857"/>
<path d="M60.2515 27.033C59.0799 28.2046 57.1804 28.2046 56.0088 27.033L55.6282 26.6524C54.4566 25.4808 54.4566 23.5813 55.6282 22.4098L62.67 15.3679C63.8416 14.1964 65.7411 14.1964 66.9127 15.3679L67.2933 15.7486C68.4649 16.9202 68.4649 18.8197 67.2933 19.9912L60.2515 27.033Z" fill="#E92B66"/>
<path d="M64 43.5383C62.3431 43.5383 61 42.1952 61 40.5383L61 40C61 38.3431 62.3431 37 64 37L72.026 37C73.6829 37 75.026 38.3431 75.026 40V40.5383C75.026 42.1952 73.6829 43.5383 72.026 43.5383L64 43.5383Z" fill="#FFC857"/>
<path d="M53.8787 57.502C52.7071 56.3304 52.7071 54.4309 53.8787 53.2593L54.2593 52.8787C55.4309 51.7071 57.3304 51.7071 58.502 52.8787L66.8291 61.2058C68.0006 62.3774 68.0006 64.2769 66.8291 65.4484L66.4484 65.8291C65.2769 67.0006 63.3774 67.0006 62.2058 65.8291L53.8787 57.502Z" fill="#E92B66"/>
</svg>
