<svg width="274" height="91" viewBox="0 0 274 91" fill="none" xmlns="http://www.w3.org/2000/svg">
<path d="M65.2954 50.2822C64.2951 50.2822 63.072 50.2985 61.6259 50.3312L61.5443 49.6625L63.4362 49.108C63.6971 49.0101 63.8331 48.8416 63.8439 48.6024C63.8548 48.3849 63.8602 48.1022 63.8602 47.7543C63.8711 47.4064 63.8765 46.9769 63.8765 46.4659V39.5019C63.8765 38.8495 63.8711 38.3005 63.8602 37.8547C63.8602 37.398 63.8548 37.0447 63.8439 36.7946C63.8222 36.501 63.6863 36.3107 63.4362 36.2238L61.5443 35.6529L61.5117 34.9843C63.0013 35.0278 64.2843 35.0495 65.3607 35.0495C65.589 35.0495 65.8826 35.0386 66.2414 35.0169C66.6002 34.9951 67.0351 34.9734 67.5461 34.9516C68.0571 34.9299 68.4812 34.9136 68.8182 34.9027C69.1553 34.8918 69.4162 34.8864 69.601 34.8864C71.5255 34.8864 72.9662 35.1908 73.923 35.7997C74.8906 36.3977 75.3745 37.2675 75.3745 38.4092C75.3745 40.2249 74.2165 41.4699 71.9006 42.144C73.1728 42.3397 74.1622 42.7583 74.8689 43.3998C75.5756 44.0413 75.929 44.8622 75.929 45.8625C75.929 47.2868 75.3092 48.4012 74.0698 49.2058C72.8411 49.9887 71.1287 50.3801 68.9324 50.3801C68.454 50.3801 67.8995 50.3638 67.2688 50.3312C66.6382 50.2985 65.9804 50.2822 65.2954 50.2822ZM66.7633 42.9431V49.0264C66.9916 49.0917 67.2634 49.1406 67.5787 49.1732C67.9049 49.195 68.2528 49.2058 68.6225 49.2058C69.9707 49.2058 70.9928 48.934 71.6886 48.3904C72.3845 47.8359 72.7324 47.0476 72.7324 46.0255C72.7324 44.96 72.379 44.1717 71.6723 43.6607C70.9656 43.1497 69.8185 42.8942 68.2311 42.8942C68.0028 42.8942 67.7636 42.8996 67.5135 42.9105C67.2634 42.9214 67.0133 42.9322 66.7633 42.9431ZM66.7633 41.8667C67.0568 41.8885 67.3504 41.8993 67.644 41.8993C67.9484 41.8993 68.2365 41.8993 68.5083 41.8993C69.7696 41.8993 70.7209 41.6493 71.3624 41.1491C72.0148 40.649 72.341 39.9151 72.341 38.9474C72.341 37.9471 72.0039 37.2241 71.3298 36.7783C70.6666 36.3325 69.7152 36.1096 68.4757 36.1096C68.1822 36.1096 67.8886 36.115 67.595 36.1259C67.3015 36.1368 67.0242 36.1531 66.7633 36.1748V41.8667Z" fill="#273645"/>
<path d="M91.7815 49.1243C90.8573 49.7005 89.9059 50.1137 88.9274 50.3638C87.9488 50.6138 87.041 50.7389 86.2037 50.7389C83.8117 50.7389 81.9036 50.0593 80.4792 48.7002C79.0549 47.3303 78.3427 45.433 78.3427 43.0084C78.3427 40.5946 79.0223 38.6212 80.3814 37.0881C81.7514 35.5551 83.578 34.7886 85.8613 34.7886C87.7749 34.7886 89.2644 35.3648 90.33 36.5173C91.3955 37.659 91.9283 39.2409 91.9283 41.2633C91.9283 41.5677 91.9119 41.8776 91.8793 42.1929H81.5393C81.5393 44.5305 82.0884 46.2049 83.1866 47.2161C84.2847 48.2164 86.0026 48.7166 88.3402 48.7166C89.384 48.7166 90.4985 48.6187 91.6836 48.423L91.7815 49.1243ZM88.6827 40.8392V40.35C88.6827 38.806 88.4327 37.7025 87.9325 37.0392C87.4432 36.376 86.7093 36.0444 85.7308 36.0444C84.4369 36.0444 83.4475 36.5119 82.7625 37.4469C82.0775 38.382 81.6916 39.5128 81.6046 40.8392H88.6827Z" fill="#273645"/>
<path d="M99.4141 48.6187C99.4141 48.9123 99.5555 49.1025 99.8382 49.1895L101.485 49.6625L101.518 50.3312C100.192 50.2985 99.0119 50.2822 97.9789 50.2822C96.9025 50.2822 95.6359 50.2985 94.1789 50.3312L94.0974 49.6625L95.9892 49.108C96.2393 49.021 96.3752 48.8525 96.397 48.6024C96.4187 48.1784 96.4296 47.4662 96.4296 46.4659V39.665C96.4296 38.3603 96.4187 37.4578 96.397 36.9577C96.3752 36.6641 96.2393 36.4738 95.9892 36.3869L94.0974 35.8323L94.0648 35.1637C95.5652 35.1963 96.8482 35.2126 97.9137 35.2126C98.9575 35.2126 100.126 35.1963 101.42 35.1637L101.485 35.8323L99.8545 36.3053C99.6044 36.3923 99.4685 36.5608 99.4468 36.8109C99.425 37.2349 99.4141 37.9471 99.4141 38.9474V45.3895L107.014 37.6753V36.8761C107.014 36.5826 106.878 36.3923 106.606 36.3053L104.959 35.8323L104.927 35.1637C106.253 35.1963 107.433 35.2126 108.466 35.2126C109.542 35.2126 110.809 35.1963 112.266 35.1637L112.347 35.8323L110.455 36.3869C110.205 36.4738 110.069 36.6424 110.048 36.8924C110.026 37.3165 110.015 38.0286 110.015 39.0289V45.8298C110.015 47.1346 110.026 48.037 110.048 48.5372C110.069 48.8307 110.205 49.021 110.455 49.108L112.347 49.6625L112.38 50.3312C110.879 50.2985 109.602 50.2822 108.547 50.2822C107.493 50.2822 106.318 50.2985 105.024 50.3312L104.959 49.6625L106.59 49.1895C106.84 49.1025 106.976 48.934 106.998 48.6839C107.02 48.2708 107.031 47.5586 107.031 46.5474V39.5834L99.4141 47.2977V48.6187ZM105.628 28.2323C105.824 28.0692 106.025 27.9605 106.231 27.9061C106.449 27.8517 106.661 27.8246 106.867 27.8246C107.4 27.8246 107.808 28.0094 108.091 28.3791C108.373 28.7487 108.515 29.1728 108.515 29.6512C108.515 30.3253 108.324 30.8852 107.944 31.331C107.574 31.7659 107.117 32.1193 106.574 32.3911C106.03 32.6521 105.443 32.8369 104.812 32.9456C104.182 33.0544 103.606 33.1087 103.084 33.1087C102.562 33.1087 101.986 33.0544 101.355 32.9456C100.735 32.8369 100.153 32.6521 99.6099 32.3911C99.0662 32.1193 98.615 31.7659 98.2562 31.331C97.8974 30.8852 97.718 30.3253 97.718 29.6512C97.718 29.1728 97.8593 28.7487 98.142 28.3791C98.4247 28.0094 98.8325 27.8246 99.3652 27.8246C99.5718 27.8246 99.7784 27.8517 99.985 27.9061C100.202 27.9605 100.409 28.0692 100.605 28.2323V30.9559C100.605 31.2277 100.806 31.4615 101.208 31.6572C101.61 31.842 102.257 31.9345 103.149 31.9345C104.041 31.9345 104.677 31.842 105.057 31.6572C105.438 31.4615 105.628 31.2277 105.628 30.9559V28.2323Z" fill="#273645"/>
<path d="M129.945 48.5372C129.967 48.8307 130.103 49.021 130.353 49.108L132.244 49.6625L132.277 50.3312C130.777 50.2985 129.494 50.2822 128.428 50.2822C127.363 50.2822 126.183 50.2985 124.889 50.3312L124.824 49.6625L126.455 49.1895C126.705 49.1025 126.841 48.934 126.862 48.6839C126.884 48.2708 126.895 47.5586 126.895 46.5474V43.0247H119.735V45.9114C119.735 47.2161 119.746 48.1186 119.768 48.6187C119.79 48.9123 119.926 49.1025 120.176 49.1895L121.807 49.6625L121.839 50.3312C120.513 50.2985 119.322 50.2822 118.268 50.2822C117.191 50.2822 115.924 50.2985 114.467 50.3312L114.386 49.6625L116.278 49.108C116.528 49.021 116.664 48.8525 116.686 48.6024C116.707 48.1784 116.718 47.4662 116.718 46.4659V39.6487C116.718 38.3548 116.707 37.4578 116.686 36.9577C116.664 36.6641 116.528 36.4738 116.278 36.3869L114.386 35.8323L114.353 35.1637C115.854 35.1963 117.137 35.2126 118.202 35.2126C119.268 35.2126 120.447 35.1963 121.741 35.1637L121.807 35.8323L120.176 36.3053C119.926 36.3923 119.79 36.5608 119.768 36.8109C119.746 37.2349 119.735 37.9471 119.735 38.9474V41.6221H126.895V39.5834C126.895 38.2787 126.884 37.3763 126.862 36.8761C126.841 36.5826 126.705 36.3923 126.455 36.3053L124.824 35.8323L124.791 35.1637C126.118 35.1963 127.308 35.2126 128.363 35.2126C129.439 35.2126 130.706 35.1963 132.163 35.1637L132.244 35.8323L130.353 36.3869C130.103 36.4738 129.967 36.6424 129.945 36.8924C129.923 37.3165 129.912 38.0286 129.912 39.0289V45.8298C129.912 47.1346 129.923 48.037 129.945 48.5372Z" fill="#273645"/>
<path d="M137.855 42.5843C137.855 44.6175 138.235 46.2756 138.996 47.5586C139.758 48.8307 140.888 49.4668 142.389 49.4668C143.791 49.4668 144.857 48.9068 145.585 47.7869C146.325 46.6562 146.694 44.9872 146.694 42.78C146.694 40.7033 146.308 39.067 145.536 37.871C144.764 36.675 143.645 36.077 142.177 36.077C140.785 36.077 139.714 36.6152 138.964 37.6916C138.224 38.768 137.855 40.3989 137.855 42.5843ZM150.021 42.4375C150.021 44.9165 149.271 46.9226 147.771 48.4556C146.281 49.9778 144.384 50.7389 142.079 50.7389C139.828 50.7389 138.007 50.0213 136.615 48.5861C135.234 47.14 134.544 45.2536 134.544 42.9268C134.544 40.5348 135.267 38.5831 136.713 37.0718C138.17 35.5496 140.095 34.7886 142.487 34.7886C144.748 34.7886 146.569 35.4898 147.95 36.8924C149.331 38.2841 150.021 40.1325 150.021 42.4375Z" fill="#273645"/>
<path d="M166.053 49.1243C165.129 49.7005 164.178 50.1137 163.199 50.3638C162.221 50.6138 161.313 50.7389 160.476 50.7389C158.084 50.7389 156.175 50.0593 154.751 48.7002C153.327 47.3303 152.615 45.433 152.615 43.0084C152.615 40.5946 153.294 38.6212 154.653 37.0881C156.023 35.5551 157.85 34.7886 160.133 34.7886C162.047 34.7886 163.536 35.3648 164.602 36.5173C165.667 37.659 166.2 39.2409 166.2 41.2633C166.2 41.5677 166.184 41.8776 166.151 42.1929H155.811C155.811 44.5305 156.36 46.2049 157.458 47.2161C158.557 48.2164 160.274 48.7166 162.612 48.7166C163.656 48.7166 164.77 48.6187 165.955 48.423L166.053 49.1243ZM162.955 40.8392V40.35C162.955 38.806 162.704 37.7025 162.204 37.0392C161.715 36.376 160.981 36.0444 160.003 36.0444C158.709 36.0444 157.719 36.5119 157.034 37.4469C156.349 38.382 155.963 39.5128 155.876 40.8392H162.955Z" fill="#273645"/>
<path d="M52.8359 24.6936C52.8142 24.0847 52.5315 23.7041 51.9878 23.5519L48.3672 22.4103L48.2693 21.0077C50.8571 21.0947 53.4122 21.1382 55.9346 21.1382C58.4571 21.1382 61.1101 21.0947 63.8935 21.0077L64.024 22.4103L60.0445 23.6172C59.4574 23.8129 59.153 24.1608 59.1312 24.6609C59.0877 26.4223 59.066 28.5751 59.066 31.1194V63.6737C59.066 66.2397 59.0877 68.4034 59.1312 70.1647C59.153 70.6649 59.4574 71.0019 60.0445 71.1759L63.9587 72.3828L64.024 73.7854C61.1536 73.7201 58.4136 73.6875 55.8042 73.6875H8.86648C6.344 73.6875 3.72366 73.7201 1.00547 73.7854L0.875 72.3828L4.9849 71.1107C5.48505 70.9585 5.746 70.5996 5.76774 70.0343C5.81123 68.5991 5.83298 66.7942 5.83298 64.6196V31.1194C5.83298 28.5751 5.81123 26.4223 5.76774 24.6609C5.746 24.1608 5.45243 23.8129 4.88705 23.6172L0.940237 22.4103L0.875 21.0077C3.76715 21.0947 6.47447 21.1382 8.99695 21.1382C11.5194 21.1382 14.0202 21.0947 16.4992 21.0077L16.6296 22.4103L12.9438 23.5519C12.4001 23.7041 12.1174 24.0847 12.0957 24.6936C12.0304 26.4332 11.9978 28.5751 11.9978 31.1194V70.7192H29.3834V31.1194C29.3834 28.5751 29.3616 26.4223 29.3181 24.6609C29.2964 24.0956 29.0028 23.7259 28.4374 23.5519L24.8168 22.4103L24.7516 21.0077C27.4045 21.0947 29.9922 21.1382 32.5147 21.1382C35.0372 21.1382 37.5379 21.0947 40.0169 21.0077L40.18 22.4103L36.4615 23.5519C35.9179 23.7041 35.6352 24.0847 35.6135 24.6936C35.57 26.4332 35.5482 28.5751 35.5482 31.1194V70.7192H52.9011V31.1194C52.9011 28.5751 52.8794 26.4332 52.8359 24.6936Z" fill="#273645"/>
<path d="M70.3813 74.2422V82.6578C70.3813 83.6363 70.3813 84.517 70.3813 85.2998C70.3976 86.0827 70.4139 86.7921 70.4302 87.4282C70.4465 87.9338 70.6585 88.2518 71.0663 88.3823L73.7817 89.1896L73.8551 90.2415C71.9143 90.1926 69.9736 90.1681 68.0328 90.1681C66.0594 90.1681 64.037 90.1926 61.9658 90.2415L61.8679 89.1896L64.877 88.2844C65.2847 88.1702 65.5049 87.9175 65.5375 87.526C65.5538 86.8737 65.5619 86.1479 65.5619 85.3488C65.5782 84.5333 65.5864 83.6363 65.5864 82.6578V62.8177C65.5864 61.9859 65.5782 61.2357 65.5619 60.567C65.5619 59.8984 65.5538 59.2949 65.5375 58.7567C65.5212 58.3327 65.3255 58.0554 64.9503 57.925L61.9168 56.9709L61.8679 55.9189C62.9443 55.9515 63.98 55.976 64.9748 55.9923C65.9697 56.0086 66.9564 56.0168 67.9349 56.0168C68.9135 56.0168 69.8757 56.0086 70.8216 55.9923C71.7839 55.976 72.7543 55.9515 73.7328 55.9189L73.8551 56.9709L71.0663 57.8271C70.6585 57.925 70.4465 58.1777 70.4302 58.5855C70.4139 59.1726 70.3976 59.8087 70.3813 60.4936C70.3813 61.1786 70.3813 61.9207 70.3813 62.7198V72.0894H72.95C73.7002 72.0894 74.3689 72.065 74.956 72.016C75.5594 71.9671 76.1058 71.853 76.5951 71.6736C77.1007 71.4778 77.5492 71.2087 77.9406 70.8663C78.3483 70.5075 78.7234 70.0263 79.0659 69.4229C79.4247 68.8195 79.759 68.0774 80.0689 67.1967C80.3788 66.316 80.6968 65.2478 81.023 63.992C81.3492 62.6872 81.6346 61.5782 81.8792 60.6649C82.1402 59.7516 82.393 59.0014 82.6376 58.4142C82.8822 57.8108 83.135 57.346 83.396 57.0198C83.6569 56.6773 83.9586 56.4327 84.3011 56.2859C84.6436 56.1228 85.0514 56.0249 85.5243 55.9923C85.9973 55.9597 86.5681 55.9434 87.2368 55.9434C88.6231 55.9434 90.1153 56.0086 91.7136 56.1391L91.8115 57.6559C90.6862 57.6885 89.7321 57.8597 88.9492 58.1696C88.1827 58.4632 87.514 58.8953 86.9432 59.4662C86.3887 60.0207 85.8913 60.7138 85.4509 61.5456C85.0269 62.361 84.5865 63.2907 84.1299 64.3344C83.7874 65.101 83.4368 65.8593 83.0779 66.6096C82.7191 67.3598 82.3359 68.0774 81.9282 68.7624C81.5204 69.431 81.0719 70.0508 80.5827 70.6216C80.1097 71.1924 79.5796 71.6817 78.9925 72.0894C80.1668 73.8182 81.2432 75.5062 82.2217 77.1534C83.2003 78.8006 84.1054 80.3174 84.9372 81.7037C85.72 82.9921 86.4295 84.1256 87.0655 85.1041C87.7179 86.0827 88.3213 86.8492 88.8758 87.4037C89.1694 87.681 89.4548 87.9175 89.7321 88.1132C90.0093 88.3089 90.2947 88.4801 90.5883 88.6269C90.8819 88.7574 91.1917 88.8715 91.5179 88.9694C91.8441 89.0672 92.2192 89.1651 92.6433 89.263L92.7166 90.3394C91.5424 90.4861 90.5638 90.5595 89.781 90.5595C89.1123 90.5595 88.5252 90.5432 88.0196 90.5106C87.514 90.478 87.0574 90.4128 86.6497 90.3149C86.2582 90.217 85.8994 90.0947 85.5732 89.9479C85.2634 89.7849 84.9617 89.581 84.6681 89.3363C83.9342 88.7981 83.2084 87.999 82.4908 86.9389C81.7732 85.8788 81.023 84.6312 80.2402 83.196C79.6041 82.0706 78.9517 80.8964 78.2831 79.6732C77.6307 78.45 76.9131 77.2431 76.1303 76.0526C75.9019 75.7101 75.7062 75.4247 75.5431 75.1963C75.38 74.9517 75.2006 74.7641 75.0049 74.6337C74.8255 74.4869 74.6135 74.389 74.3689 74.3401C74.1405 74.2749 73.8388 74.2422 73.4637 74.2422H70.3813Z" fill="#E92B66"/>
<path d="M94.1156 73.1564C94.1156 75.1352 94.4092 76.7444 94.9963 77.9839C95.5943 79.2125 96.5457 79.8268 97.8504 79.8268C99.0681 79.8268 99.9597 79.2832 100.525 78.1959C101.101 77.1086 101.389 75.494 101.389 73.3521C101.389 71.3406 101.085 69.7587 100.476 68.6061C99.8782 67.4428 98.9377 66.8611 97.6547 66.8611C96.4587 66.8611 95.5671 67.383 94.98 68.4267C94.4037 69.4705 94.1156 71.0471 94.1156 73.1564ZM106.445 73.0259C106.445 75.5049 105.619 77.5164 103.966 79.0603C102.314 80.5934 100.161 81.3599 97.5079 81.3599C94.9311 81.3599 92.8761 80.6369 91.343 79.1908C89.81 77.7338 89.0435 75.8311 89.0435 73.4826C89.0435 71.1014 89.848 69.1498 91.4572 67.6276C93.0664 66.0945 95.2409 65.328 97.9809 65.328C100.579 65.328 102.64 66.0347 104.162 67.4482C105.684 68.8508 106.445 70.71 106.445 73.0259Z" fill="#E92B66"/>
<path d="M108.288 67.1873L108.19 66.5186C110.702 66.1489 113.002 65.7357 115.089 65.2791L115.334 65.4096V66.9426C117.019 65.8662 118.645 65.328 120.21 65.328C122.254 65.328 123.874 66.0076 125.07 67.3667C126.277 68.7149 126.881 70.4817 126.881 72.6671C126.881 75.3744 126.033 77.5001 124.336 79.044C122.651 80.5879 120.422 81.3599 117.65 81.3599C116.91 81.3599 116.138 81.2838 115.334 81.1316V84.5728C115.334 85.6492 115.345 87.9079 115.366 88.3428C115.388 88.6799 115.535 88.881 115.807 88.9462L118.106 89.5497L118.155 90.3325C116.35 90.2999 114.654 90.2836 113.067 90.2836C111.436 90.2836 109.838 90.2999 108.272 90.3325L108.19 89.5497L110.245 88.9789C110.506 88.9136 110.642 88.7505 110.653 88.4896C110.675 87.685 110.686 84.9751 110.686 83.3659V76.8586C110.686 72.118 110.664 69.0954 110.62 67.7907L108.288 67.1873ZM115.334 79.5007C116.095 79.6637 116.829 79.7453 117.536 79.7453C118.971 79.7453 120.058 79.1962 120.797 78.0981C121.537 76.9999 121.906 75.4288 121.906 73.3847C121.906 71.4602 121.558 70.0087 120.863 69.0302C120.167 68.0408 119.161 67.5461 117.845 67.5461C116.899 67.5461 116.062 67.7255 115.334 68.0843V79.5007Z" fill="#E92B66"/>
<path d="M134.53 73.1564C134.53 75.1352 134.823 76.7444 135.41 77.9839C136.008 79.2125 136.96 79.8268 138.264 79.8268C139.482 79.8268 140.374 79.2832 140.939 78.1959C141.515 77.1086 141.804 75.494 141.804 73.3521C141.804 71.3406 141.499 69.7587 140.89 68.6061C140.292 67.4428 139.352 66.8611 138.069 66.8611C136.873 66.8611 135.981 67.383 135.394 68.4267C134.818 69.4705 134.53 71.0471 134.53 73.1564ZM146.859 73.0259C146.859 75.5049 146.033 77.5164 144.38 79.0603C142.728 80.5934 140.575 81.3599 137.922 81.3599C135.345 81.3599 133.29 80.6369 131.757 79.1908C130.224 77.7338 129.457 75.8311 129.457 73.4826C129.457 71.1014 130.262 69.1498 131.871 67.6276C133.48 66.0945 135.655 65.328 138.395 65.328C140.993 65.328 143.054 66.0347 144.576 67.4482C146.098 68.8508 146.859 70.71 146.859 73.0259Z" fill="#E92B66"/>
<path d="M163.429 69.6825V76.3367C163.429 76.989 163.429 77.5381 163.429 77.9839C163.44 78.4297 163.451 78.783 163.462 79.044C163.473 79.3376 163.609 79.5224 163.87 79.5985L165.908 80.1693L165.957 80.9522C164.348 80.9195 162.75 80.9032 161.162 80.9032C159.553 80.9032 158.08 80.9195 156.743 80.9522L156.661 80.1693L158.39 79.6801C158.651 79.5931 158.787 79.43 158.798 79.1908C158.809 78.9733 158.814 78.6906 158.814 78.3427C158.825 77.9948 158.83 77.5653 158.83 77.0543V67.3503H155.617C155.519 69.7858 155.259 72.0311 154.835 74.086C154.421 76.141 153.878 77.9567 153.204 79.5333C153.041 79.9247 152.85 80.2237 152.633 80.4303C152.415 80.6369 152.171 80.7891 151.899 80.8869C151.627 80.9848 151.328 81.0446 151.002 81.0663C150.687 81.0881 150.344 81.1044 149.974 81.1153C149.061 81.1153 148.05 81.0283 146.941 80.8543L146.859 80.0062C147.446 79.941 147.936 79.8377 148.327 79.6964C148.729 79.5441 149.056 79.3865 149.306 79.2234C149.871 78.8755 150.404 78.3481 150.904 77.6414C151.415 76.9238 151.866 76.0703 152.258 75.0809C152.66 74.0915 152.992 72.9716 153.253 71.7212C153.513 70.4708 153.687 69.1226 153.774 67.6765C153.807 67.3721 153.66 67.1764 153.334 67.0894L151.116 66.486L151.051 65.7031C152.747 65.7357 154.247 65.752 155.552 65.752H161.505C162.821 65.752 164.267 65.7357 165.843 65.7031L165.925 66.486L163.87 67.0568C163.609 67.1438 163.473 67.3069 163.462 67.5461C163.451 67.7635 163.44 68.0462 163.429 68.3941C163.429 68.7421 163.429 69.1715 163.429 69.6825Z" fill="#E92B66"/>
<path d="M183.457 79.8268C181.446 80.8489 179.325 81.3599 177.096 81.3599C174.444 81.3599 172.274 80.7075 170.589 79.4028C168.915 78.0872 168.078 76.1518 168.078 73.5967C168.078 71.1612 168.882 69.177 170.491 67.6439C172.111 66.1 174.172 65.328 176.672 65.328C178.858 65.328 180.543 65.9206 181.728 67.1057C182.924 68.28 183.522 69.9054 183.522 71.9821C183.522 72.2974 183.506 72.6236 183.473 72.9607H173.052C173.052 75.1461 173.585 76.7172 174.65 77.674C175.727 78.6308 177.488 79.1092 179.934 79.1092C181.119 79.1092 182.25 79.0059 183.327 78.7994L183.457 79.8268ZM178.564 71.3787V70.9873C178.564 69.5086 178.374 68.4485 177.993 67.807C177.624 67.1655 177.053 66.8448 176.281 66.8448C175.357 66.8448 174.617 67.2905 174.063 68.1821C173.519 69.0628 173.204 70.1283 173.117 71.3787H178.564Z" fill="#E92B66"/>
<path d="M189.72 80.9032C188.589 80.9032 187.241 80.9195 185.675 80.9522L185.594 80.1693L187.665 79.5822C187.926 79.4952 188.062 79.3321 188.073 79.0929C188.083 78.8755 188.089 78.5928 188.089 78.2448C188.1 77.8969 188.105 77.4566 188.105 76.9238V70.1718C188.105 69.5086 188.1 68.9541 188.089 68.5083C188.089 68.0516 188.083 67.6983 188.073 67.4482C188.051 67.1546 187.915 66.9644 187.665 66.8774L185.61 66.2902L185.561 65.5074C187.159 65.54 188.556 65.5563 189.752 65.5563C190.144 65.5563 190.948 65.5346 192.166 65.4911C193.384 65.4367 194.248 65.4096 194.759 65.4096C197.021 65.4096 198.717 65.714 199.848 66.3229C200.978 66.9317 201.544 67.807 201.544 68.9486C201.544 70.6665 200.272 71.8843 197.728 72.6019V72.6508C200.696 73.151 202.18 74.4176 202.18 76.4508C202.18 77.886 201.479 79.0059 200.076 79.8105C198.684 80.6042 196.711 81.0011 194.156 81.0011C193.59 81.0011 192.911 80.9848 192.117 80.9522C191.323 80.9195 190.524 80.9032 189.72 80.9032ZM192.443 73.5967V79.4843C192.628 79.5387 192.857 79.5822 193.128 79.6148C193.4 79.6366 193.688 79.6474 193.993 79.6474C195.08 79.6474 195.906 79.3865 196.472 78.8646C197.048 78.3427 197.336 77.5762 197.336 76.565C197.336 75.543 197.043 74.7873 196.455 74.298C195.879 73.8088 194.944 73.5641 193.65 73.5641C193.465 73.5641 193.27 73.5696 193.063 73.5804C192.857 73.5804 192.65 73.5859 192.443 73.5967ZM192.443 72.3572C192.693 72.3681 192.938 72.3736 193.177 72.3736C193.416 72.3736 193.645 72.3736 193.862 72.3736C194.884 72.3736 195.656 72.1344 196.178 71.656C196.7 71.1776 196.961 70.4763 196.961 69.5521C196.961 68.5735 196.7 67.8722 196.178 67.4482C195.656 67.0133 194.89 66.7958 193.879 66.7958C193.313 66.7958 192.835 66.8176 192.443 66.8611V72.3572Z" fill="#E92B66"/>
<path d="M218.359 79.8268C216.554 80.8489 214.689 81.3599 212.765 81.3599C210.383 81.3599 208.426 80.6695 206.893 79.2886C205.36 77.9078 204.594 76.0649 204.594 73.7598C204.594 71.2482 205.425 69.215 207.089 67.6602C208.763 66.1054 210.894 65.328 213.482 65.328C215.124 65.328 216.706 65.6379 218.228 66.2576C217.837 67.7907 217.494 69.3999 217.201 71.0851L216.304 71.2319L215.048 67.1546C214.754 67.0459 214.357 66.9915 213.857 66.9915C212.618 66.9915 211.601 67.5352 210.807 68.6225C210.014 69.6989 209.617 71.1449 209.617 72.9607C209.617 75.0809 210.117 76.6466 211.117 77.6577C212.129 78.658 213.564 79.1582 215.423 79.1582C216.315 79.1582 217.25 79.0549 218.228 78.8483L218.359 79.8268Z" fill="#E92B66"/>
<path d="M221.49 71.1993L220.626 71.3298L219.99 65.8173L220.104 65.7031C222.387 65.7357 224.458 65.752 226.317 65.752H229.873C231.743 65.752 233.809 65.7357 236.07 65.7031L236.184 65.8173L235.271 71.2156L234.407 71.3624L233.2 67.334H230.329V76.4345C230.329 77.6414 230.346 78.4949 230.378 78.9951C230.4 79.2995 230.536 79.4898 230.786 79.5659L232.906 80.1693L232.955 80.9522C231.574 80.9195 229.949 80.9032 228.079 80.9032C226.459 80.9032 224.833 80.9195 223.202 80.9522L223.105 80.1693L225.274 79.5659C225.524 79.4898 225.66 79.3267 225.681 79.0766C225.703 78.6526 225.714 77.935 225.714 76.9238V67.334H222.778L221.49 71.1993Z" fill="#E92B66"/>
<path d="M241.583 80.9032C240.452 80.9032 239.104 80.9195 237.538 80.9522L237.457 80.1693L239.528 79.5822C239.789 79.4952 239.925 79.3321 239.936 79.0929C239.946 78.8755 239.952 78.5928 239.952 78.2448C239.963 77.8969 239.968 77.4566 239.968 76.9238V70.1718C239.968 69.5086 239.963 68.9541 239.952 68.5083C239.952 68.0516 239.946 67.6983 239.936 67.4482C239.914 67.1546 239.778 66.9644 239.528 66.8774L237.473 66.2902L237.424 65.5074C239.022 65.54 240.419 65.5563 241.615 65.5563C242.007 65.5563 242.811 65.5346 244.029 65.4911C245.247 65.4367 246.111 65.4096 246.622 65.4096C248.884 65.4096 250.58 65.714 251.711 66.3229C252.842 66.9317 253.407 67.807 253.407 68.9486C253.407 70.6665 252.135 71.8843 249.591 72.6019V72.6508C252.559 73.151 254.043 74.4176 254.043 76.4508C254.043 77.886 253.342 79.0059 251.939 79.8105C250.547 80.6042 248.574 81.0011 246.019 81.0011C245.454 81.0011 244.774 80.9848 243.98 80.9522C243.187 80.9195 242.387 80.9032 241.583 80.9032ZM244.306 73.5967V79.4843C244.491 79.5387 244.72 79.5822 244.991 79.6148C245.263 79.6366 245.551 79.6474 245.856 79.6474C246.943 79.6474 247.769 79.3865 248.335 78.8646C248.911 78.3427 249.199 77.5762 249.199 76.565C249.199 75.543 248.906 74.7873 248.318 74.298C247.742 73.8088 246.807 73.5641 245.513 73.5641C245.328 73.5641 245.133 73.5696 244.926 73.5804C244.72 73.5804 244.513 73.5859 244.306 73.5967ZM244.306 72.3572C244.557 72.3681 244.801 72.3736 245.04 72.3736C245.28 72.3736 245.508 72.3736 245.725 72.3736C246.747 72.3736 247.519 72.1344 248.041 71.656C248.563 71.1776 248.824 70.4763 248.824 69.5521C248.824 68.5735 248.563 67.8722 248.041 67.4482C247.519 67.0133 246.753 66.7958 245.742 66.7958C245.176 66.7958 244.698 66.8176 244.306 66.8611V72.3572Z" fill="#E92B66"/>
<path d="M261.545 73.1564C261.545 75.1352 261.839 76.7444 262.426 77.9839C263.024 79.2125 263.975 79.8268 265.28 79.8268C266.498 79.8268 267.389 79.2832 267.955 78.1959C268.531 77.1086 268.819 75.494 268.819 73.3521C268.819 71.3406 268.515 69.7587 267.906 68.6061C267.308 67.4428 266.367 66.8611 265.084 66.8611C263.888 66.8611 262.997 67.383 262.41 68.4267C261.833 69.4705 261.545 71.0471 261.545 73.1564ZM273.875 73.0259C273.875 75.5049 273.049 77.5164 271.396 79.0603C269.743 80.5934 267.59 81.3599 264.937 81.3599C262.361 81.3599 260.306 80.6369 258.773 79.1908C257.24 77.7338 256.473 75.8311 256.473 73.4826C256.473 71.1014 257.278 69.1498 258.887 67.6276C260.496 66.0945 262.671 65.328 265.41 65.328C268.009 65.328 270.069 66.0347 271.592 67.4482C273.114 68.8508 273.875 70.71 273.875 73.0259Z" fill="#E92B66"/>
<path d="M223.585 29.1859C224.947 22.0277 225.914 14.7955 226.482 7.53371C226.502 7.29214 224.996 7.87387 224.819 8.31264C224.523 9.06199 224.601 10.2353 224.513 11.034C224.295 13.0552 224.113 15.0765 223.975 17.1027C223.693 21.1206 223.565 25.1533 223.585 29.181V29.1859Z" fill="white" stroke="#273645" stroke-width="0.657728" stroke-linejoin="round"/>
<path d="M223.269 6.63149C223.17 7.29703 223.57 7.96257 224.133 8.32739C224.695 8.6922 225.391 8.79573 226.062 8.78094C226.749 8.76615 227.494 8.5936 227.908 8.04638C228.432 7.36112 228.19 6.30119 227.548 5.71946C226.438 4.71868 223.54 4.75319 223.269 6.62656V6.63149Z" fill="white" stroke="#273645" stroke-width="0.657728" stroke-miterlimit="10"/>
<path d="M225.756 6.31109C225.964 6.15827 226.22 6.08432 226.477 6.10404" stroke="#273645" stroke-width="0.263091" stroke-linecap="round" stroke-linejoin="round"/>
<path d="M226.136 6.84843C226.339 6.62166 226.664 6.51813 226.96 6.57236" stroke="#273645" stroke-width="0.263091" stroke-linecap="round" stroke-linejoin="round"/>
<path d="M226.477 7.18863C226.665 7.07524 226.906 7.04566 227.119 7.11468" stroke="#273645" stroke-width="0.263091" stroke-linecap="round" stroke-linejoin="round"/>
<path d="M226.561 7.93304C226.63 7.82458 226.783 7.78021 226.896 7.83937" stroke="#273645" stroke-width="0.263091" stroke-linecap="round" stroke-linejoin="round"/>
<path d="M225.357 10.0332C225.46 10.048 225.564 10.0578 225.663 10.0726" stroke="#273645" stroke-width="0.263091" stroke-linecap="round" stroke-linejoin="round"/>
<path d="M225.312 10.7776C225.371 10.7086 225.49 10.6987 225.559 10.7579" stroke="#273645" stroke-width="0.263091" stroke-linecap="round" stroke-linejoin="round"/>
<path d="M225.273 11.4924C225.371 11.4826 225.465 11.4678 225.564 11.4579" stroke="#273645" stroke-width="0.263091" stroke-linecap="round" stroke-linejoin="round"/>
<path d="M225.189 12.2911C225.278 12.2566 225.366 12.2221 225.455 12.1925" stroke="#273645" stroke-width="0.263091" stroke-linecap="round" stroke-linejoin="round"/>
<path d="M225.09 13.2426C225.169 13.2278 225.243 13.213 225.322 13.2031" stroke="#273645" stroke-width="0.263091" stroke-linecap="round" stroke-linejoin="round"/>
<path d="M225.085 14.0659C225.149 14.0067 225.248 13.9919 225.327 14.0314" stroke="#273645" stroke-width="0.263091" stroke-linecap="round" stroke-linejoin="round"/>
<path d="M225.001 14.8398C225.08 14.8398 225.159 14.83 225.238 14.8251" stroke="#273645" stroke-width="0.263091" stroke-linecap="round" stroke-linejoin="round"/>
<path d="M224.897 15.7815C224.986 15.7371 225.07 15.6927 225.159 15.6484" stroke="#273645" stroke-width="0.263091" stroke-linecap="round" stroke-linejoin="round"/>
<path d="M224.823 16.7625C224.858 16.6984 224.962 16.6935 225.001 16.7527" stroke="#273645" stroke-width="0.263091" stroke-linecap="round" stroke-linejoin="round"/>
<path d="M224.73 17.5612C224.833 17.5168 224.942 17.4675 225.046 17.4231C225.021 17.4675 225.001 17.5119 224.977 17.5513" stroke="#273645" stroke-width="0.263091" stroke-linecap="round" stroke-linejoin="round"/>
<path d="M224.942 18.1577C224.937 18.0936 224.868 18.0394 224.804 18.0541C224.74 18.0689 224.695 18.1429 224.72 18.207C224.71 18.0739 224.819 18.207 224.942 18.1577Z" stroke="#273645" stroke-width="0.263091" stroke-linecap="round" stroke-linejoin="round"/>
<path d="M224.32 19.7993C224.389 19.6613 224.592 19.6169 224.71 19.7155C224.71 19.7698 224.71 19.824 224.71 19.8832" stroke="#273645" stroke-width="0.263091" stroke-linecap="round" stroke-linejoin="round"/>
<path d="M224.512 20.9086C224.606 20.8839 224.69 21.022 224.621 21.091" stroke="#273645" stroke-width="0.263091" stroke-linecap="round" stroke-linejoin="round"/>
<path d="M196.954 34.8604C194.516 27.993 191.703 21.2636 188.519 14.7068C188.416 14.4899 187.409 15.752 187.478 16.2154C187.596 17.0091 188.263 17.9852 188.589 18.7198C189.423 20.5734 190.286 22.4123 191.19 24.2314C192.976 27.8451 194.901 31.3897 196.949 34.8554L196.954 34.8604Z" fill="white" stroke="#273645" stroke-width="0.657728" stroke-linejoin="round"/>
<path d="M185.291 15.5449C185.543 16.1661 186.224 16.5457 186.896 16.5753C187.567 16.6098 188.218 16.3485 188.791 15.9935C189.373 15.6337 189.931 15.1111 190.015 14.4308C190.119 13.5779 189.373 12.7792 188.529 12.6018C187.063 12.2961 184.581 13.7849 185.291 15.54V15.5449Z" fill="white" stroke="#273645" stroke-width="0.657728" stroke-miterlimit="10"/>
<path d="M187.281 14.0117C187.379 13.78 187.567 13.5828 187.799 13.4694" stroke="#273645" stroke-width="0.263091" stroke-linecap="round" stroke-linejoin="round"/>
<path d="M187.883 14.2829C187.942 13.9871 188.169 13.7307 188.455 13.6321" stroke="#273645" stroke-width="0.263091" stroke-linecap="round" stroke-linejoin="round"/>
<path d="M188.342 14.4061C188.445 14.2138 188.643 14.0659 188.86 14.0216" stroke="#273645" stroke-width="0.263091" stroke-linecap="round" stroke-linejoin="round"/>
<path d="M188.791 15.0076C188.791 14.8794 188.904 14.766 189.033 14.7611" stroke="#273645" stroke-width="0.263091" stroke-linecap="round" stroke-linejoin="round"/>
<path d="M188.811 17.4281C188.904 17.3887 188.998 17.3443 189.097 17.3049" stroke="#273645" stroke-width="0.263091" stroke-linecap="round" stroke-linejoin="round"/>
<path d="M189.151 18.0937C189.166 18.005 189.265 17.936 189.353 17.9557" stroke="#273645" stroke-width="0.263091" stroke-linecap="round" stroke-linejoin="round"/>
<path d="M189.477 18.7297C189.556 18.6705 189.635 18.6114 189.709 18.5522" stroke="#273645" stroke-width="0.263091" stroke-linecap="round" stroke-linejoin="round"/>
<path d="M189.812 19.4593C189.872 19.3853 189.931 19.3114 189.995 19.2374" stroke="#273645" stroke-width="0.263091" stroke-linecap="round" stroke-linejoin="round"/>
<path d="M190.207 20.3319C190.267 20.2826 190.326 20.2284 190.385 20.1791" stroke="#273645" stroke-width="0.263091" stroke-linecap="round" stroke-linejoin="round"/>
<path d="M190.617 21.0467C190.642 20.9629 190.721 20.8988 190.809 20.8939" stroke="#273645" stroke-width="0.263091" stroke-linecap="round" stroke-linejoin="round"/>
<path d="M190.933 21.7566C190.997 21.7122 191.066 21.6679 191.13 21.6284" stroke="#273645" stroke-width="0.263091" stroke-linecap="round" stroke-linejoin="round"/>
<path d="M191.318 22.6194C191.372 22.5356 191.426 22.4567 191.476 22.3729" stroke="#273645" stroke-width="0.263091" stroke-linecap="round" stroke-linejoin="round"/>
<path d="M191.752 23.5068C191.752 23.4328 191.836 23.3786 191.9 23.4082" stroke="#273645" stroke-width="0.263091" stroke-linecap="round" stroke-linejoin="round"/>
<path d="M192.078 24.2462C192.147 24.1526 192.211 24.0589 192.28 23.9652C192.28 24.0145 192.28 24.0638 192.285 24.1131" stroke="#273645" stroke-width="0.263091" stroke-linecap="round" stroke-linejoin="round"/>
<path d="M192.557 24.6505C192.517 24.5963 192.433 24.5864 192.384 24.6308C192.335 24.6751 192.34 24.7639 192.384 24.8033C192.31 24.6949 192.468 24.754 192.552 24.6505H192.557Z" stroke="#273645" stroke-width="0.263091" stroke-linecap="round" stroke-linejoin="round"/>
<path d="M192.848 26.3809C192.838 26.2281 192.991 26.0851 193.144 26.1097C193.169 26.159 193.198 26.2034 193.223 26.2527" stroke="#273645" stroke-width="0.263091" stroke-linecap="round" stroke-linejoin="round"/>
<path d="M193.578 27.2436C193.647 27.1746 193.791 27.2535 193.766 27.3471" stroke="#273645" stroke-width="0.263091" stroke-linecap="round" stroke-linejoin="round"/>
<path d="M237.501 28.4778C237.294 28.6794 237.037 28.8367 236.786 28.994C235.508 29.8397 234.304 30.7541 233.076 31.6686C231.981 32.4945 231.083 33.3991 230.032 34.2792C229.949 34.3431 229.86 34.4119 229.761 34.3873C229.658 34.3677 229.593 34.2546 229.603 34.1612C229.603 34.0579 229.653 33.9596 229.702 33.8711C230.111 33.1484 230.654 32.5289 231.29 32.0029C231.833 31.5506 232.247 30.936 232.731 30.4001C233.476 29.5594 234.285 28.7728 235.04 27.937C235.868 28.0894 236.687 28.2664 237.501 28.4729V28.4778Z" fill="#E92B66"/>
<path d="M252.348 37.08C252.141 37.2815 251.885 37.4389 251.633 37.5962C250.355 38.4418 249.152 39.3563 247.923 40.2707C246.828 41.0967 245.93 42.0013 244.88 42.8813C244.796 42.9453 244.707 43.0141 244.608 42.9895C244.505 42.9698 244.441 42.8568 244.45 42.7633C244.45 42.6601 244.5 42.5618 244.549 42.4733C244.959 41.7506 245.501 41.1311 246.138 40.605C246.68 40.1527 247.095 39.5382 247.578 39.0023C248.323 38.1616 249.132 37.375 249.887 36.5392C250.715 36.6916 251.534 36.8686 252.348 37.0751V37.08Z" fill="#E92B66"/>
<path d="M243.503 32.9102C243.392 33.0015 243.261 33.0962 243.12 33.1808C241.284 34.3583 239.448 35.5357 237.623 36.7199C236.705 37.3052 235.787 37.8973 234.869 38.4894C234.163 38.9496 233.497 39.6262 232.458 39.9984C232.236 39.6567 232.811 39.2135 233.093 38.892C233.628 38.2763 234.163 37.6605 234.697 37.0481C235.766 35.8233 238.355 31.5323 239.425 30.3075C239.566 30.1519 239.697 29.9963 239.858 29.844C241.583 29.8305 243.493 32.9135 243.493 32.9135L243.503 32.9102Z" fill="#E92B66"/>
<path d="M211.248 39.1449C211.076 39.1866 210.916 39.0509 210.798 38.9204C210.062 38.059 209.398 37.1453 208.805 36.1952C207.738 34.4776 206.896 32.6556 206.166 30.8075C205.828 29.9461 205.514 29.0899 205.206 28.2232C206.143 27.6176 207.121 27.0538 208.135 26.5578C208.242 26.8815 208.301 27.2209 208.349 27.5602C208.959 31.2982 209.973 34.9944 211.373 38.5601C211.456 38.7742 211.491 39.0874 211.242 39.1449H211.248Z" fill="#E92B66"/>
<path d="M197.27 43.7921C197.127 43.8229 196.994 43.7228 196.895 43.6265C196.283 42.9911 195.731 42.3172 195.238 41.6163C194.35 40.3493 193.649 39.0053 193.042 37.642C192.761 37.0066 192.5 36.3751 192.243 35.7358C193.023 35.2891 193.837 34.8732 194.68 34.5073C194.769 34.7461 194.818 34.9964 194.858 35.2467C195.366 38.004 196.209 40.7305 197.374 43.3608C197.443 43.5187 197.472 43.7497 197.265 43.7921H197.27Z" fill="#E92B66"/>
<path d="M252.442 37.5985C250.965 35.667 248.638 34.3556 246.22 34.0922C245.71 34.0373 245.194 34.0346 244.678 34.0702C243.168 31.4803 240.981 29.3486 238.355 28.092C233.453 25.749 227.188 26.8025 223.497 30.4213C224.016 29.7628 224.293 28.9068 224.227 28.0755C224.167 27.3183 223.843 26.5693 223.313 25.9685C222.967 25.5762 222.534 25.2771 222.062 25.0549V24.9973C220.299 24.3681 219.534 24.6916 218.703 24.9753V24.9973C217.805 25.4115 217.078 26.177 216.743 27.0769C216.43 27.9164 216.463 28.8767 216.814 29.6805C213.063 26.6681 207.341 25.9164 202.794 28.092C200.167 29.3486 197.98 31.4776 196.471 34.0675C195.968 34.0346 195.463 34.0346 194.967 34.0894C192.549 34.3528 190.222 35.6642 188.745 37.5957C187.101 39.7494 186.421 42.7728 186.928 45.692C187.362 48.1859 188.605 50.6167 190.518 52.7567C190.208 52.4549 189.892 52.1284 189.574 51.7745L193.8 57.6951V58.2657C202.14 58.2356 211.364 58.2081 220.588 58.178C229.812 58.1478 239.033 58.1203 247.373 58.0902V57.6841L251.591 51.7745C251.341 52.0543 251.091 52.3122 250.844 52.5591C252.658 50.4685 253.839 48.1091 254.258 45.692C254.763 42.7728 254.086 39.7467 252.442 37.5985ZM238.042 28.7477C240.446 29.8973 242.469 31.8178 243.898 34.1608C242.348 34.4022 240.852 35.0332 239.626 35.9962C237.455 33.0277 233.991 31.0688 230.325 30.7478C228.343 30.5749 226.148 30.9755 224.117 31.8699C223.878 31.7684 223.634 31.6833 223.39 31.6038C226.746 27.6585 233.116 26.3937 238.042 28.7477ZM240.358 55.4975C239.593 55.0805 238.931 54.5372 238.308 53.8404C238.374 53.7334 238.443 53.6264 238.511 53.5111C239.785 51.3931 241.102 49.2065 241.722 46.7318C242.581 43.3051 241.95 39.5601 240.037 36.5916C241.245 35.6313 242.743 35.0223 244.283 34.8329C245.463 37.0059 246.152 39.4888 246.19 42.0403C246.261 46.8964 244.099 51.8293 240.356 55.4947L240.358 55.4975ZM194.958 42.043C194.997 39.4888 195.688 37.0059 196.868 34.8329C198.422 35.0168 199.934 35.6258 201.15 36.5971C199.24 39.5629 198.606 43.3078 199.465 46.7373C200.085 49.2092 201.402 51.3986 202.676 53.5166C202.75 53.6374 202.821 53.7553 202.89 53.8651C202.261 54.6826 201.756 55.182 200.856 55.5688C197.072 51.8952 194.884 46.9321 194.956 42.0485L194.958 42.043ZM220.593 31.8672C224.252 31.8672 227.531 34.3199 228.947 38.0978L229.032 38.3557C229.449 39.5574 229.664 40.8057 229.664 42.0732C229.664 43.5547 229.378 44.9951 228.805 46.3888C228.025 48.9157 226.571 51.2834 224.241 53.7553C222.2 51.8963 221.711 49.4613 220.961 46.9129C220.588 44.6659 220.588 44.7835 220.239 47.0171C219.621 49.5439 218.851 51.8991 216.88 53.6812C214.591 51.2312 213.153 48.8773 212.374 46.3532C211.811 44.9896 211.529 43.5493 211.529 42.0677C211.529 40.8002 211.74 39.5519 212.163 38.3447L212.24 38.1088C213.661 34.3144 216.943 31.8617 220.599 31.8617L220.593 31.8672ZM218.428 31.42L218.51 31.3541C218.51 31.3541 218.491 31.3349 218.483 31.3239C218.519 31.3404 218.554 31.3623 218.59 31.3761C218.535 31.3898 218.483 31.4062 218.428 31.42ZM222.366 31.3267C222.556 31.2389 222.739 31.1291 222.921 30.992C222.984 30.9453 223.041 30.8877 223.099 30.8356C222.943 31.0057 222.783 31.173 222.638 31.3541L222.715 31.4172C222.597 31.3898 222.482 31.3514 222.364 31.3294L222.366 31.3267ZM237.82 53.2505C237.751 53.1627 237.683 53.0804 237.614 52.9871C237.276 52.5262 237.007 52.0159 236.785 51.4782C236.933 50.8856 237.271 50.3259 237.801 50.0268C238.355 49.714 239.121 49.7662 239.562 50.2134C239.044 51.212 238.462 52.1833 237.888 53.138C237.864 53.1764 237.842 53.2121 237.82 53.2505ZM203.301 53.138C202.722 52.175 202.138 51.1983 201.613 50.1887C202.058 49.7662 202.807 49.7195 203.351 50.0268C203.883 50.3286 204.223 50.891 204.369 51.4891C204.146 52.0214 203.88 52.5262 203.543 52.9844C203.48 53.0694 203.419 53.1517 203.362 53.2313C203.342 53.1984 203.323 53.1682 203.301 53.1325V53.138ZM239.598 50.1475C239.453 49.6208 239.129 49.1406 238.681 48.8224C238.193 48.4739 237.567 48.3203 236.974 48.3999C237.136 47.478 236.769 46.4876 236.066 45.8731C236.028 45.8401 235.989 45.8045 235.948 45.7743C235.907 45.8072 235.868 45.8401 235.83 45.8731C235.128 46.4876 234.76 47.478 234.922 48.3999C234.326 48.3203 233.703 48.4739 233.215 48.8224C232.726 49.1708 232.375 49.7086 232.254 50.2957C232.677 49.7689 233.511 49.6948 234.098 50.0296C234.628 50.3286 234.968 50.891 235.117 51.4864C234.913 51.9967 234.666 52.4988 234.334 52.9899C233.355 54.4412 231.832 55.3109 230.243 55.8487C229.584 56.0709 228.796 55.9639 228.102 55.8103C227.312 55.6347 226.055 55.1847 224.809 54.2217C227.196 51.6784 228.695 49.2394 229.499 46.6358C230.097 45.1844 230.399 43.6508 230.399 42.0732C230.399 40.7261 230.174 39.3982 229.729 38.1197L229.644 37.8564C228.717 35.3789 227.043 33.442 224.987 32.2952C226.741 31.6148 228.593 31.3239 230.27 31.4693C233.775 31.7739 237.087 33.6669 239.129 36.5312C241.171 39.3955 241.879 43.1432 241.025 46.5562C240.712 47.8073 240.202 48.9952 239.606 50.1448L239.598 50.1475ZM211.548 37.8756L211.468 38.1197C211.024 39.3982 210.796 40.7289 210.796 42.076C210.796 43.6508 211.098 45.1872 211.685 46.6056C212.489 49.2065 213.971 51.6345 216.326 54.1559C215.445 54.8582 214.6 55.3219 214.007 55.6127C213.384 55.92 211.37 55.9996 210.711 55.7746C209.119 55.2341 207.81 54.4412 206.83 52.9871C206.496 52.4905 206.246 51.9857 206.043 51.4699C206.191 50.8801 206.531 50.3231 207.058 50.0268C207.646 49.6948 208.477 49.7689 208.902 50.2929C208.782 49.7058 208.43 49.1681 207.942 48.8196C207.453 48.4712 206.828 48.3176 206.232 48.3971C206.394 47.4753 206.026 46.4849 205.324 45.8703C205.285 45.8374 205.247 45.8017 205.206 45.7715C205.165 45.8045 205.126 45.8374 205.088 45.8703C204.385 46.4849 204.017 47.4753 204.179 48.3971C203.584 48.3176 202.961 48.4712 202.472 48.8196C202.039 49.1269 201.723 49.5878 201.572 50.0981C200.988 48.9623 200.488 47.7908 200.178 46.5562C199.322 43.1432 200.033 39.3982 202.074 36.5312C204.116 33.6669 207.429 31.7739 210.933 31.4693C212.613 31.3239 214.463 31.6175 216.219 32.2952C214.161 33.442 212.487 35.3871 211.556 37.8701L211.548 37.8756ZM217.426 27.3348C217.712 26.5721 218.349 25.9246 219.131 25.6036C220.36 25.1015 221.889 25.4582 222.767 26.4514C223.195 26.9342 223.456 27.5323 223.502 28.1332C223.571 28.9946 223.168 29.8918 222.482 30.4186C221.738 30.9865 220.887 30.9508 219.899 30.9124L219.789 30.9069C218.906 30.874 218.082 30.4131 217.643 29.708C217.218 29.0248 217.136 28.1167 217.426 27.3348ZM203.109 28.7505C208.038 26.3937 214.41 27.6613 217.767 31.612C217.531 31.6888 217.3 31.7739 217.072 31.8726C215.044 30.9782 212.843 30.5777 210.865 30.7505C207.198 31.0688 203.735 33.0304 201.564 35.999C200.326 35.0277 198.817 34.3967 197.255 34.158C198.685 31.8178 200.705 29.9 203.109 28.7505ZM189.321 38.0402C190.68 36.2623 192.821 35.0579 195.046 34.8137C195.389 34.7753 195.732 34.7698 196.078 34.7781C194.936 36.9839 194.272 39.4778 194.234 42.0321C194.16 47.0061 196.333 52.0488 200.101 55.8349C200.049 55.8514 200.002 55.8651 199.95 55.8816C199.95 55.8816 195.365 57.2369 191.237 52.4L191.413 52.6661C191.382 52.636 191.355 52.6058 191.325 52.5756C189.349 50.4685 188.076 48.046 187.647 45.5713C187.175 42.8496 187.801 40.0347 189.324 38.0429L189.321 38.0402ZM253.542 45.5685C253.114 48.0432 251.841 50.4658 249.865 52.5728C248.797 53.7114 247.521 54.7869 246.094 55.7581C243.654 56.658 242.01 56.1669 242.01 56.1669C241.67 56.0709 241.357 55.9529 241.053 55.8295C244.818 52.0461 246.989 47.0034 246.917 42.0321C246.879 39.4751 246.215 36.9839 245.073 34.7781C245.43 34.7698 245.787 34.7753 246.141 34.8137C248.366 35.0552 250.504 36.2623 251.865 38.0402C253.388 40.032 254.014 42.8469 253.542 45.5685Z" fill="#E92B66" stroke="#E92B66" stroke-width="0.657728"/>
<path d="M194.775 59.667L194.766 60.3941C202.105 60.4819 209.484 60.5285 216.875 60.5285C226.79 60.5285 236.717 60.449 246.563 60.2871L246.552 59.56C229.375 59.8399 211.957 59.8756 194.777 59.667H194.775Z" fill="#E92B66"/>
<path d="M236.796 35.6669C242.171 29.5883 247.541 23.5097 252.916 17.4262C254.367 15.7845 255.818 14.1429 257.096 12.3681C257.476 11.8406 257.851 11.2835 257.994 10.6476C258.138 10.0116 258.009 9.27705 257.516 8.85307C257.017 8.42417 256.252 8.40938 255.645 8.66081C255.033 8.91223 254.544 9.38551 254.09 9.86371C252.496 11.5497 251.159 13.4576 249.821 15.3556C248.424 17.3473 247.022 19.344 245.626 21.3356C243.158 24.8507 240.685 28.3706 238.217 31.8857C236.983 33.6457 235.75 35.4007 234.516 37.1607C233.81 38.1713 232.314 39.463 232.26 40.7743C233.884 39.2115 235.305 37.3579 236.801 35.6669H236.796ZM252.718 14.976C252.328 14.8281 252.585 14.1527 252.674 13.8915C252.797 13.5365 252.955 13.2062 253.004 13.1125C253.385 12.3632 253.893 11.673 254.495 11.0863C254.87 10.7215 255.443 10.1151 255.966 9.97217C257.619 9.50875 256.089 11.8061 255.798 12.2104C255.23 13.0041 254.549 13.7189 253.784 14.3253C253.582 14.488 253.004 15.0845 252.723 14.976H252.718Z" fill="white" stroke="#273645" stroke-width="0.657728" stroke-linejoin="round"/>
<path d="M251.558 16.1494C251.78 16.3416 252.096 16.4205 252.388 16.3663" stroke="#273645" stroke-width="0.263091" stroke-linecap="round" stroke-linejoin="round"/>
<path d="M250.956 17.0318L251.657 17.2635" stroke="#273645" stroke-width="0.263091" stroke-linecap="round" stroke-linejoin="round"/>
<path d="M250.68 17.7565C250.912 17.8354 251.144 17.9143 251.376 17.9882" stroke="#273645" stroke-width="0.263091" stroke-linecap="round" stroke-linejoin="round"/>
<path d="M250.226 18.5256C250.418 18.6094 250.606 18.6883 250.798 18.7721" stroke="#273645" stroke-width="0.263091" stroke-linecap="round" stroke-linejoin="round"/>
<path d="M249.549 19.1714C249.712 19.2454 249.88 19.3242 250.043 19.3982" stroke="#273645" stroke-width="0.263091" stroke-linecap="round" stroke-linejoin="round"/>
<path d="M249.12 19.5905C249.219 19.7531 249.382 19.8715 249.564 19.9158" stroke="#273645" stroke-width="0.263091" stroke-linecap="round" stroke-linejoin="round"/>
<path d="M248.725 20.33C248.849 20.4088 248.967 20.4926 249.091 20.5715" stroke="#273645" stroke-width="0.263091" stroke-linecap="round" stroke-linejoin="round"/>
<path d="M248.079 21.0251C248.163 21.0842 248.246 21.1434 248.33 21.2025" stroke="#273645" stroke-width="0.263091" stroke-linecap="round" stroke-linejoin="round"/>
<path d="M247.664 21.4342C247.773 21.4983 247.886 21.5624 248 21.6265" stroke="#273645" stroke-width="0.263091" stroke-linecap="round" stroke-linejoin="round"/>
<path d="M247.2 22.011C247.264 22.085 247.329 22.1589 247.393 22.228" stroke="#273645" stroke-width="0.263091" stroke-linecap="round" stroke-linejoin="round"/>
<path d="M246.81 22.5386C246.791 22.6421 246.86 22.7555 246.963 22.7801" stroke="#273645" stroke-width="0.263091" stroke-linecap="round" stroke-linejoin="round"/>
<path d="M245.517 23.9288C245.64 24.0077 245.759 24.0915 245.882 24.1704" stroke="#273645" stroke-width="0.263091" stroke-linecap="round" stroke-linejoin="round"/>
<path d="M244.949 24.6436C245.058 24.7077 245.172 24.7718 245.28 24.8359" stroke="#273645" stroke-width="0.263091" stroke-linecap="round" stroke-linejoin="round"/>
<path d="M244.417 25.1958C244.515 25.2451 244.619 25.2944 244.718 25.3437" stroke="#273645" stroke-width="0.263091" stroke-linecap="round" stroke-linejoin="round"/>
<path d="M244.031 25.6543C244.125 25.7282 244.219 25.8071 244.318 25.8811" stroke="#273645" stroke-width="0.263091" stroke-linecap="round" stroke-linejoin="round"/>
<path d="M243.577 26.2212C243.646 26.2902 243.716 26.3592 243.785 26.4282" stroke="#273645" stroke-width="0.263091" stroke-linecap="round" stroke-linejoin="round"/>
<path d="M243.252 26.7191C243.336 26.798 243.42 26.8818 243.503 26.9607" stroke="#273645" stroke-width="0.263091" stroke-linecap="round" stroke-linejoin="round"/>
<path d="M242.896 27.2861C242.96 27.3797 243.025 27.4783 243.084 27.572" stroke="#273645" stroke-width="0.263091" stroke-linecap="round" stroke-linejoin="round"/>
<path d="M242.314 27.8727C242.383 27.9418 242.452 28.0108 242.521 28.0798" stroke="#273645" stroke-width="0.263091" stroke-linecap="round" stroke-linejoin="round"/>
<path d="M241.805 28.277C241.87 28.3312 241.939 28.3854 242.003 28.4397C241.983 28.4742 241.963 28.5087 241.939 28.5432" stroke="#273645" stroke-width="0.263091" stroke-linecap="round" stroke-linejoin="round"/>
<path d="M241.524 28.839C241.569 28.7946 241.657 28.8242 241.667 28.8833C241.677 28.9425 241.603 29.0016 241.549 28.977" stroke="#273645" stroke-width="0.263091" stroke-linecap="round" stroke-linejoin="round"/>
<path d="M241.075 29.2235C241.12 29.2827 241.164 29.3468 241.213 29.4059" stroke="#273645" stroke-width="0.263091" stroke-linecap="round" stroke-linejoin="round"/>
<path d="M240.695 29.8792C240.744 29.8299 240.843 29.8447 240.873 29.9088C240.902 29.9729 240.853 30.0567 240.784 30.0666" stroke="#273645" stroke-width="0.263091" stroke-linecap="round" stroke-linejoin="round"/>
<path d="M240.132 30.5299C240.192 30.5842 240.251 30.6335 240.31 30.6877" stroke="#273645" stroke-width="0.263091" stroke-linecap="round" stroke-linejoin="round"/>
<path d="M229.618 34.9239C233.349 28.6629 236.73 22.1949 239.746 15.5641C239.845 15.3472 238.231 15.3768 237.92 15.7317C237.382 16.3332 237.056 17.4621 236.701 18.1868C235.802 20.0109 234.943 21.8498 234.119 23.7084C232.481 27.391 230.98 31.1328 229.618 34.9239Z" fill="white" stroke="#273645" stroke-width="0.657728" stroke-linejoin="round"/>
<path d="M237.041 13.6168C236.725 14.2084 236.869 14.9725 237.273 15.505C237.678 16.0423 238.295 16.3776 238.932 16.5896C239.578 16.8065 240.338 16.9001 240.916 16.5304C241.641 16.0621 241.775 14.9824 241.375 14.2232C240.674 12.902 237.94 11.9456 237.041 13.6119V13.6168Z" fill="white" stroke="#273645" stroke-width="0.657728" stroke-miterlimit="10"/>
<path d="M239.489 14.164C239.736 14.0901 240.003 14.1098 240.235 14.2133" stroke="#273645" stroke-width="0.263091" stroke-linecap="round" stroke-linejoin="round"/>
<path d="M239.662 14.8C239.929 14.657 240.269 14.6669 240.531 14.8246" stroke="#273645" stroke-width="0.263091" stroke-linecap="round" stroke-linejoin="round"/>
<path d="M239.864 15.2338C240.081 15.1894 240.318 15.2486 240.491 15.3817" stroke="#273645" stroke-width="0.263091" stroke-linecap="round" stroke-linejoin="round"/>
<path d="M239.687 15.9635C239.785 15.8846 239.943 15.8994 240.032 15.9881" stroke="#273645" stroke-width="0.263091" stroke-linecap="round" stroke-linejoin="round"/>
<path d="M237.836 17.5213C237.929 17.5706 238.018 17.615 238.112 17.6594" stroke="#273645" stroke-width="0.263091" stroke-linecap="round" stroke-linejoin="round"/>
<path d="M237.545 18.2115C237.624 18.1671 237.737 18.1967 237.782 18.2805" stroke="#273645" stroke-width="0.263091" stroke-linecap="round" stroke-linejoin="round"/>
<path d="M237.258 18.8672C237.352 18.8918 237.451 18.9115 237.545 18.9362" stroke="#273645" stroke-width="0.263091" stroke-linecap="round" stroke-linejoin="round"/>
<path d="M236.908 19.5919C237.002 19.5919 237.1 19.5919 237.194 19.5919" stroke="#273645" stroke-width="0.263091" stroke-linecap="round" stroke-linejoin="round"/>
<path d="M236.493 20.4497C236.572 20.4645 236.646 20.4743 236.725 20.4891" stroke="#273645" stroke-width="0.263091" stroke-linecap="round" stroke-linejoin="round"/>
<path d="M236.207 21.2237C236.286 21.1892 236.39 21.2089 236.444 21.273" stroke="#273645" stroke-width="0.263091" stroke-linecap="round" stroke-linejoin="round"/>
<path d="M235.857 21.9237C235.931 21.9484 236.01 21.9681 236.084 21.9927" stroke="#273645" stroke-width="0.263091" stroke-linecap="round" stroke-linejoin="round"/>
<path d="M235.442 22.7717C235.541 22.7618 235.634 22.747 235.733 22.7372" stroke="#273645" stroke-width="0.263091" stroke-linecap="round" stroke-linejoin="round"/>
<path d="M235.037 23.6689C235.092 23.6196 235.19 23.6541 235.205 23.7231" stroke="#273645" stroke-width="0.263091" stroke-linecap="round" stroke-linejoin="round"/>
<path d="M234.677 24.3887C234.791 24.3788 234.904 24.3739 235.022 24.364C234.988 24.3986 234.948 24.4281 234.914 24.4626" stroke="#273645" stroke-width="0.263091" stroke-linecap="round" stroke-linejoin="round"/>
<path d="M234.667 25.0148C234.687 24.9507 234.638 24.8767 234.573 24.8718C234.509 24.8619 234.445 24.9211 234.44 24.9852C234.48 24.857 234.534 25.0197 234.667 25.0148Z" stroke="#273645" stroke-width="0.263091" stroke-linecap="round" stroke-linejoin="round"/>
<path d="M233.522 26.3508C233.631 26.2424 233.838 26.2719 233.917 26.405C233.897 26.4543 233.877 26.5086 233.858 26.5579" stroke="#273645" stroke-width="0.263091" stroke-linecap="round" stroke-linejoin="round"/>
<path d="M233.325 27.46C233.418 27.465 233.453 27.6276 233.364 27.672" stroke="#273645" stroke-width="0.263091" stroke-linecap="round" stroke-linejoin="round"/>
<path d="M209.974 33.5534C208.221 25.6359 206.464 17.7185 204.712 9.801C204.238 7.66634 203.765 5.52675 203.083 3.44633C202.881 2.83009 202.649 2.19906 202.22 1.70606C201.79 1.218 201.119 0.887696 200.482 1.03559C199.841 1.18349 199.382 1.7948 199.224 2.43569C199.066 3.07658 199.16 3.75198 199.283 4.3978C199.708 6.68036 200.463 8.88403 201.213 11.0778C202.003 13.3801 202.792 15.6824 203.577 17.9896C204.969 22.0568 206.361 26.119 207.753 30.1862C208.449 32.2174 209.144 34.2534 209.84 36.2845C210.24 37.4529 210.408 39.42 211.435 40.2334C211.129 38.0051 210.462 35.762 209.974 33.5632V33.5534ZM202.61 8.51429C202.264 8.74106 201.864 8.13961 201.706 7.91284C201.489 7.60225 201.317 7.28181 201.272 7.18814C200.887 6.43879 200.63 5.62535 200.507 4.7922C200.433 4.27455 200.28 3.45126 200.468 2.9484C201.065 1.34125 202.022 3.92946 202.18 4.40273C202.486 5.32956 202.664 6.30075 202.703 7.27688C202.713 7.53816 202.856 8.3516 202.605 8.51922L202.61 8.51429Z" fill="white" stroke="#273645" stroke-width="0.657728" stroke-linejoin="round"/>
<path d="M202.876 10.1412C203.162 10.0721 203.414 9.87002 203.538 9.59888" stroke="#273645" stroke-width="0.263091" stroke-linecap="round" stroke-linejoin="round"/>
<path d="M203.237 11.1518C203.434 11.0088 203.636 10.8659 203.834 10.7229" stroke="#273645" stroke-width="0.263091" stroke-linecap="round" stroke-linejoin="round"/>
<path d="M203.656 11.7976C203.858 11.6546 204.056 11.5117 204.258 11.3736" stroke="#273645" stroke-width="0.263091" stroke-linecap="round" stroke-linejoin="round"/>
<path d="M204.016 12.616C204.194 12.5125 204.372 12.404 204.549 12.3005" stroke="#273645" stroke-width="0.263091" stroke-linecap="round" stroke-linejoin="round"/>
<path d="M204.14 13.5428C204.298 13.4541 204.456 13.3653 204.614 13.2815" stroke="#273645" stroke-width="0.263091" stroke-linecap="round" stroke-linejoin="round"/>
<path d="M204.224 14.1393C204.411 14.1541 204.604 14.095 204.747 13.9766" stroke="#273645" stroke-width="0.263091" stroke-linecap="round" stroke-linejoin="round"/>
<path d="M204.589 14.8887C204.727 14.8394 204.86 14.7901 204.999 14.7358" stroke="#273645" stroke-width="0.263091" stroke-linecap="round" stroke-linejoin="round"/>
<path d="M204.771 15.8204C204.87 15.7859 204.969 15.7514 205.063 15.7218" stroke="#273645" stroke-width="0.263091" stroke-linecap="round" stroke-linejoin="round"/>
<path d="M204.855 16.4022C204.974 16.3529 205.092 16.2986 205.211 16.2493" stroke="#273645" stroke-width="0.263091" stroke-linecap="round" stroke-linejoin="round"/>
<path d="M205.053 17.1121C205.151 17.1022 205.245 17.0923 205.344 17.0825" stroke="#273645" stroke-width="0.263091" stroke-linecap="round" stroke-linejoin="round"/>
<path d="M205.25 17.7431C205.319 17.822 205.453 17.8269 205.537 17.7579" stroke="#273645" stroke-width="0.263091" stroke-linecap="round" stroke-linejoin="round"/>
<path d="M205.611 19.6017C205.749 19.5524 205.887 19.5031 206.02 19.4489" stroke="#273645" stroke-width="0.263091" stroke-linecap="round" stroke-linejoin="round"/>
<path d="M205.853 20.4792C205.971 20.4299 206.089 20.3757 206.208 20.3264" stroke="#273645" stroke-width="0.263091" stroke-linecap="round" stroke-linejoin="round"/>
<path d="M205.986 21.2335C206.084 21.1793 206.183 21.13 206.282 21.0757" stroke="#273645" stroke-width="0.263091" stroke-linecap="round" stroke-linejoin="round"/>
<path d="M206.129 21.8152C206.247 21.7807 206.361 21.7512 206.479 21.7166" stroke="#273645" stroke-width="0.263091" stroke-linecap="round" stroke-linejoin="round"/>
<path d="M206.326 22.5153C206.425 22.5005 206.519 22.4857 206.617 22.4709" stroke="#273645" stroke-width="0.263091" stroke-linecap="round" stroke-linejoin="round"/>
<path d="M206.534 23.0724C206.647 23.0526 206.761 23.0329 206.879 23.0083" stroke="#273645" stroke-width="0.263091" stroke-linecap="round" stroke-linejoin="round"/>
<path d="M206.78 23.6936C206.894 23.6985 207.012 23.7034 207.126 23.7083" stroke="#273645" stroke-width="0.263091" stroke-linecap="round" stroke-linejoin="round"/>
<path d="M206.914 24.507C207.012 24.4922 207.106 24.4774 207.205 24.4626" stroke="#273645" stroke-width="0.263091" stroke-linecap="round" stroke-linejoin="round"/>
<path d="M206.943 25.1577C207.027 25.138 207.106 25.1133 207.19 25.0936C207.205 25.133 207.22 25.1675 207.239 25.207" stroke="#273645" stroke-width="0.263091" stroke-linecap="round" stroke-linejoin="round"/>
<path d="M207.782 27.8347C207.861 27.8199 207.935 27.8002 208.014 27.7854" stroke="#273645" stroke-width="0.263091" stroke-linecap="round" stroke-linejoin="round"/>
<path d="M197.291 43.7917C191.675 38.0187 185.737 32.5564 179.518 27.4342C179.311 27.2666 178.886 28.997 179.173 29.4308C179.661 30.1752 180.777 30.8457 181.443 31.4324C183.136 32.9113 184.853 34.3558 186.601 35.7707C190.065 38.5758 193.629 41.2478 197.291 43.7868V43.7917Z" fill="white" stroke="#273645" stroke-width="0.657728" stroke-linejoin="round"/>
<path d="M176.66 29.7611C177.198 30.2689 178.057 30.333 178.748 30.0569C179.434 29.7808 179.972 29.2188 180.387 28.6026C180.806 27.9715 181.127 27.1926 180.895 26.4728C180.604 25.5657 179.489 25.1122 178.561 25.3192C176.947 25.684 175.145 28.3265 176.665 29.7611H176.66Z" fill="white" stroke="#273645" stroke-width="0.657728" stroke-miterlimit="10"/>
<path d="M177.949 27.311C177.944 27.03 178.038 26.749 178.215 26.5271" stroke="#273645" stroke-width="0.263091" stroke-linecap="round" stroke-linejoin="round"/>
<path d="M178.679 27.306C178.605 26.9806 178.714 26.6208 178.951 26.389" stroke="#273645" stroke-width="0.263091" stroke-linecap="round" stroke-linejoin="round"/>
<path d="M179.197 27.2173C179.212 26.9708 179.34 26.7391 179.538 26.5912" stroke="#273645" stroke-width="0.263091" stroke-linecap="round" stroke-linejoin="round"/>
<path d="M179.928 27.6117C179.874 27.4835 179.928 27.3159 180.056 27.2518" stroke="#273645" stroke-width="0.263091" stroke-linecap="round" stroke-linejoin="round"/>
<path d="M181.063 30.0322C181.137 29.9484 181.216 29.8646 181.29 29.7808" stroke="#273645" stroke-width="0.263091" stroke-linecap="round" stroke-linejoin="round"/>
<path d="M181.715 30.545C181.69 30.4464 181.754 30.333 181.853 30.3133" stroke="#273645" stroke-width="0.263091" stroke-linecap="round" stroke-linejoin="round"/>
<path d="M182.336 31.0379C182.386 30.9443 182.44 30.8457 182.489 30.752" stroke="#273645" stroke-width="0.263091" stroke-linecap="round" stroke-linejoin="round"/>
<path d="M183.008 31.6197C183.032 31.5161 183.062 31.4175 183.087 31.314" stroke="#273645" stroke-width="0.263091" stroke-linecap="round" stroke-linejoin="round"/>
<path d="M183.807 32.3099C183.842 32.231 183.881 32.1521 183.916 32.0732" stroke="#273645" stroke-width="0.263091" stroke-linecap="round" stroke-linejoin="round"/>
<path d="M184.548 32.8374C184.533 32.7437 184.582 32.6402 184.671 32.5958" stroke="#273645" stroke-width="0.263091" stroke-linecap="round" stroke-linejoin="round"/>
<path d="M185.194 33.4093C185.239 33.3353 185.288 33.2614 185.332 33.1874" stroke="#273645" stroke-width="0.263091" stroke-linecap="round" stroke-linejoin="round"/>
<path d="M185.984 34.0945C185.999 33.9861 186.014 33.8826 186.033 33.7741" stroke="#273645" stroke-width="0.263091" stroke-linecap="round" stroke-linejoin="round"/>
<path d="M186.823 34.7847C186.784 34.7157 186.848 34.6171 186.927 34.6171" stroke="#273645" stroke-width="0.263091" stroke-linecap="round" stroke-linejoin="round"/>
<path d="M187.489 35.3763C187.514 35.2531 187.539 35.1249 187.563 35.0017C187.588 35.051 187.613 35.1003 187.637 35.1496" stroke="#273645" stroke-width="0.263091" stroke-linecap="round" stroke-linejoin="round"/>
<path d="M188.16 35.5637C188.096 35.5292 188.007 35.5587 187.978 35.6228C187.948 35.6869 187.993 35.7756 188.062 35.7954C187.938 35.7165 188.126 35.7066 188.16 35.5637Z" stroke="#273645" stroke-width="0.263091" stroke-linecap="round" stroke-linejoin="round"/>
<path d="M189.251 37.1658C189.167 37.0179 189.261 36.806 189.424 36.7567C189.473 36.7912 189.523 36.8257 189.572 36.8651" stroke="#273645" stroke-width="0.263091" stroke-linecap="round" stroke-linejoin="round"/>
<path d="M190.382 37.6983C190.416 37.5997 190.599 37.6096 190.619 37.718" stroke="#273645" stroke-width="0.263091" stroke-linecap="round" stroke-linejoin="round"/>
<path d="M244.567 42.7255C251.112 39.5162 257.484 35.942 263.633 32.0276C263.836 31.8994 262.469 31.0465 262.01 31.1698C261.23 31.3818 260.341 32.1508 259.65 32.565C257.903 33.6052 256.176 34.6799 254.468 35.7842C251.082 37.9731 247.78 40.2951 244.567 42.7305V42.7255Z" fill="white" stroke="#273645" stroke-width="0.657728" stroke-linejoin="round"/>
<path d="M262.424 28.9218C261.837 29.2422 261.541 29.962 261.585 30.6324C261.63 31.3029 261.965 31.9192 262.38 32.4467C262.804 32.984 263.392 33.477 264.073 33.4819C264.936 33.4819 265.637 32.6537 265.716 31.7959C265.854 30.3071 264.083 28.0147 262.419 28.9218H262.424Z" fill="white" stroke="#273645" stroke-width="0.657728" stroke-miterlimit="10"/>
<path d="M264.176 30.7163C264.418 30.7902 264.635 30.9529 264.773 31.1649" stroke="#273645" stroke-width="0.263091" stroke-linecap="round" stroke-linejoin="round"/>
<path d="M263.974 31.3424C264.275 31.367 264.557 31.5642 264.69 31.8354" stroke="#273645" stroke-width="0.263091" stroke-linecap="round" stroke-linejoin="round"/>
<path d="M263.905 31.8156C264.112 31.8994 264.275 32.072 264.349 32.284" stroke="#273645" stroke-width="0.263091" stroke-linecap="round" stroke-linejoin="round"/>
<path d="M263.362 32.3283C263.49 32.3184 263.614 32.4121 263.638 32.5403" stroke="#273645" stroke-width="0.263091" stroke-linecap="round" stroke-linejoin="round"/>
<path d="M260.958 32.629C261.008 32.7178 261.062 32.8065 261.111 32.8953" stroke="#273645" stroke-width="0.263091" stroke-linecap="round" stroke-linejoin="round"/>
<path d="M260.336 33.0432C260.43 33.0432 260.504 33.1368 260.499 33.2305" stroke="#273645" stroke-width="0.263091" stroke-linecap="round" stroke-linejoin="round"/>
<path d="M259.739 33.4425C259.808 33.5115 259.873 33.5854 259.942 33.6545" stroke="#273645" stroke-width="0.263091" stroke-linecap="round" stroke-linejoin="round"/>
<path d="M259.048 33.8566C259.127 33.9059 259.211 33.9601 259.29 34.0094" stroke="#273645" stroke-width="0.263091" stroke-linecap="round" stroke-linejoin="round"/>
<path d="M258.229 34.3496C258.288 34.4038 258.343 34.4581 258.402 34.5074" stroke="#273645" stroke-width="0.263091" stroke-linecap="round" stroke-linejoin="round"/>
<path d="M257.568 34.8376C257.652 34.8524 257.726 34.9214 257.74 35.0102" stroke="#273645" stroke-width="0.263091" stroke-linecap="round" stroke-linejoin="round"/>
<path d="M256.896 35.237C256.946 35.2961 257 35.3602 257.049 35.4194" stroke="#273645" stroke-width="0.263091" stroke-linecap="round" stroke-linejoin="round"/>
<path d="M256.082 35.7201C256.171 35.7645 256.255 35.8088 256.344 35.8483" stroke="#273645" stroke-width="0.263091" stroke-linecap="round" stroke-linejoin="round"/>
<path d="M255.253 36.2476C255.322 36.2328 255.391 36.3166 255.366 36.3856" stroke="#273645" stroke-width="0.263091" stroke-linecap="round" stroke-linejoin="round"/>
<path d="M254.557 36.6568C254.656 36.711 254.759 36.7702 254.858 36.8244C254.809 36.8343 254.759 36.8392 254.71 36.8491" stroke="#273645" stroke-width="0.263091" stroke-linecap="round" stroke-linejoin="round"/>
<path d="M254.206 37.1794C254.256 37.135 254.256 37.0512 254.206 37.0068C254.157 36.9625 254.068 36.9772 254.034 37.0315C254.137 36.9477 254.093 37.1104 254.206 37.1794Z" stroke="#273645" stroke-width="0.263091" stroke-linecap="round" stroke-linejoin="round"/>
<path d="M252.519 37.6724C252.667 37.6428 252.829 37.7808 252.82 37.9336C252.775 37.9681 252.731 37.9977 252.686 38.0322" stroke="#273645" stroke-width="0.263091" stroke-linecap="round" stroke-linejoin="round"/>
<path d="M251.748 38.4957C251.827 38.5548 251.763 38.7027 251.669 38.6929" stroke="#273645" stroke-width="0.263091" stroke-linecap="round" stroke-linejoin="round"/>
<path d="M222.019 41.6537C222.019 42.8165 220.576 45.1049 220.576 45.1049C220.576 45.1049 219.134 42.815 219.134 41.6537C219.134 40.4924 219.779 39.9139 220.576 39.9139C221.373 39.9139 222.019 40.4909 222.019 41.6537Z" fill="#E92B66" stroke="#E92B66" stroke-width="1.31546" stroke-linecap="round" stroke-linejoin="round"/>
<path d="M222.019 20.6111C222.019 21.7739 220.576 24.0623 220.576 24.0623C220.576 24.0623 219.134 21.7724 219.134 20.6111C219.134 19.4497 219.779 18.8713 220.576 18.8713C221.373 18.8713 222.019 19.4483 222.019 20.6111Z" fill="#E92B66" stroke="#E92B66" stroke-width="1.31546" stroke-linecap="round" stroke-linejoin="round"/>
</svg>
