<svg width="273" height="91" viewBox="0 0 273 91" fill="none" xmlns="http://www.w3.org/2000/svg">
<path d="M64.4204 49.842C63.4201 49.842 62.197 49.8583 60.7509 49.8909L60.6693 49.2222L62.5612 48.6677C62.8221 48.5698 62.9581 48.4013 62.9689 48.1621C62.9798 47.9447 62.9852 47.662 62.9852 47.314C62.9961 46.9661 63.0015 46.5366 63.0015 46.0256V39.0616C63.0015 38.4093 62.9961 37.8602 62.9852 37.4144C62.9852 36.9577 62.9798 36.6044 62.9689 36.3543C62.9472 36.0607 62.8113 35.8705 62.5612 35.7835L60.6693 35.2127L60.6367 34.544C62.1263 34.5875 63.4093 34.6092 64.4857 34.6092C64.714 34.6092 65.0076 34.5984 65.3664 34.5766C65.7252 34.5549 66.1601 34.5331 66.6711 34.5114C67.1821 34.4896 67.6062 34.4733 67.9432 34.4624C68.2803 34.4516 68.5412 34.4461 68.726 34.4461C70.6505 34.4461 72.0912 34.7506 73.048 35.3594C74.0156 35.9574 74.4995 36.8273 74.4995 37.9689C74.4995 39.7847 73.3415 41.0296 71.0256 41.7037C72.2978 41.8994 73.2872 42.318 73.9939 42.9595C74.7006 43.601 75.054 44.4219 75.054 45.4222C75.054 46.8465 74.4342 47.961 73.1948 48.7656C71.9661 49.5484 70.2537 49.9398 68.0574 49.9398C67.579 49.9398 67.0245 49.9235 66.3938 49.8909C65.7632 49.8583 65.1054 49.842 64.4204 49.842ZM65.8883 42.5028V48.5862C66.1166 48.6514 66.3884 48.7003 66.7037 48.7329C67.0299 48.7547 67.3778 48.7656 67.7475 48.7656C69.0957 48.7656 70.1178 48.4937 70.8136 47.9501C71.5095 47.3956 71.8574 46.6073 71.8574 45.5853C71.8574 44.5197 71.504 43.7315 70.7973 43.2204C70.0906 42.7094 68.9435 42.4539 67.3561 42.4539C67.1278 42.4539 66.8886 42.4594 66.6385 42.4702C66.3884 42.4811 66.1383 42.492 65.8883 42.5028ZM65.8883 41.4264C66.1818 41.4482 66.4754 41.4591 66.769 41.4591C67.0734 41.4591 67.3615 41.4591 67.6333 41.4591C68.8946 41.4591 69.8459 41.209 70.4874 40.7088C71.1398 40.2087 71.466 39.4748 71.466 38.5071C71.466 37.5068 71.1289 36.7838 70.4548 36.338C69.7916 35.8922 68.8402 35.6693 67.6007 35.6693C67.3072 35.6693 67.0136 35.6748 66.72 35.6856C66.4265 35.6965 66.1492 35.7128 65.8883 35.7346V41.4264Z" fill="white"/>
<path d="M90.9065 48.684C89.9823 49.2603 89.0309 49.6734 88.0524 49.9235C87.0738 50.1736 86.166 50.2986 85.3287 50.2986C82.9367 50.2986 81.0286 49.6191 79.6042 48.26C78.1799 46.89 77.4677 44.9927 77.4677 42.5681C77.4677 40.1543 78.1473 38.1809 79.5064 36.6479C80.8764 35.1148 82.703 34.3483 84.9863 34.3483C86.8999 34.3483 88.3894 34.9245 89.455 36.077C90.5205 37.2187 91.0533 38.8007 91.0533 40.823C91.0533 41.1274 91.0369 41.4373 91.0043 41.7526H80.6643C80.6643 44.0903 81.2134 45.7647 82.3116 46.7758C83.4097 47.7761 85.1276 48.2763 87.4652 48.2763C88.509 48.2763 89.6235 48.1784 90.8086 47.9827L90.9065 48.684ZM87.8077 40.399V39.9097C87.8077 38.3658 87.5577 37.2622 87.0575 36.5989C86.5682 35.9357 85.8343 35.6041 84.8558 35.6041C83.5619 35.6041 82.5725 36.0716 81.8875 37.0067C81.2025 37.9417 80.8166 39.0725 80.7296 40.399H87.8077Z" fill="white"/>
<path d="M98.5391 48.1784C98.5391 48.472 98.6805 48.6623 98.9632 48.7492L100.61 49.2222L100.643 49.8909C99.3166 49.8583 98.1369 49.842 97.1039 49.842C96.0275 49.842 94.7609 49.8583 93.3039 49.8909L93.2224 49.2222L95.1142 48.6677C95.3643 48.5807 95.5002 48.4122 95.522 48.1621C95.5437 47.7381 95.5546 47.0259 95.5546 46.0256V39.2247C95.5546 37.92 95.5437 37.0175 95.522 36.5174C95.5002 36.2238 95.3643 36.0336 95.1142 35.9466L93.2224 35.3921L93.1898 34.7234C94.6902 34.756 95.9732 34.7723 97.0387 34.7723C98.0825 34.7723 99.2513 34.756 100.545 34.7234L100.61 35.3921L98.9795 35.865C98.7294 35.952 98.5935 36.1205 98.5718 36.3706C98.55 36.7946 98.5391 37.5068 98.5391 38.5071V44.9492L106.139 37.235V36.4358C106.139 36.1423 106.003 35.952 105.731 35.865L104.084 35.3921L104.052 34.7234C105.378 34.756 106.558 34.7723 107.591 34.7723C108.667 34.7723 109.934 34.756 111.391 34.7234L111.472 35.3921L109.58 35.9466C109.33 36.0336 109.194 36.2021 109.173 36.4522C109.151 36.8762 109.14 37.5884 109.14 38.5887V45.3896C109.14 46.6943 109.151 47.5967 109.173 48.0969C109.194 48.3904 109.33 48.5807 109.58 48.6677L111.472 49.2222L111.505 49.8909C110.004 49.8583 108.727 49.842 107.672 49.842C106.618 49.842 105.443 49.8583 104.149 49.8909L104.084 49.2222L105.715 48.7492C105.965 48.6623 106.101 48.4937 106.123 48.2437C106.145 47.8305 106.156 47.1183 106.156 46.1072V39.1432L98.5391 46.8574V48.1784ZM104.753 27.792C104.949 27.6289 105.15 27.5202 105.356 27.4658C105.574 27.4115 105.786 27.3843 105.992 27.3843C106.525 27.3843 106.933 27.5691 107.216 27.9388C107.498 28.3085 107.64 28.7325 107.64 29.2109C107.64 29.885 107.449 30.445 107.069 30.8907C106.699 31.3257 106.242 31.679 105.699 31.9508C105.155 32.2118 104.568 32.3966 103.937 32.5053C103.307 32.6141 102.731 32.6684 102.209 32.6684C101.687 32.6684 101.111 32.6141 100.48 32.5053C99.8602 32.3966 99.2785 32.2118 98.7349 31.9508C98.1912 31.679 97.74 31.3257 97.3812 30.8907C97.0224 30.445 96.843 29.885 96.843 29.2109C96.843 28.7325 96.9843 28.3085 97.267 27.9388C97.5497 27.5691 97.9575 27.3843 98.4902 27.3843C98.6968 27.3843 98.9034 27.4115 99.11 27.4658C99.3274 27.5202 99.534 27.6289 99.7297 27.792V30.5156C99.7297 30.7875 99.9309 31.0212 100.333 31.2169C100.735 31.4018 101.382 31.4942 102.274 31.4942C103.166 31.4942 103.802 31.4018 104.182 31.2169C104.563 31.0212 104.753 30.7875 104.753 30.5156V27.792Z" fill="white"/>
<path d="M129.07 48.0969C129.092 48.3904 129.228 48.5807 129.478 48.6677L131.369 49.2222L131.402 49.8909C129.902 49.8583 128.619 49.842 127.553 49.842C126.488 49.842 125.308 49.8583 124.014 49.8909L123.949 49.2222L125.58 48.7492C125.83 48.6623 125.966 48.4937 125.987 48.2437C126.009 47.8305 126.02 47.1183 126.02 46.1072V42.5844H118.86V45.4711C118.86 46.7758 118.871 47.6783 118.893 48.1784C118.915 48.472 119.051 48.6623 119.301 48.7492L120.932 49.2222L120.964 49.8909C119.638 49.8583 118.447 49.842 117.393 49.842C116.316 49.842 115.049 49.8583 113.592 49.8909L113.511 49.2222L115.403 48.6677C115.653 48.5807 115.789 48.4122 115.811 48.1621C115.832 47.7381 115.843 47.0259 115.843 46.0256V39.2084C115.843 37.9145 115.832 37.0175 115.811 36.5174C115.789 36.2238 115.653 36.0336 115.403 35.9466L113.511 35.3921L113.478 34.7234C114.979 34.756 116.262 34.7723 117.327 34.7723C118.393 34.7723 119.572 34.756 120.866 34.7234L120.932 35.3921L119.301 35.865C119.051 35.952 118.915 36.1205 118.893 36.3706C118.871 36.7946 118.86 37.5068 118.86 38.5071V41.1818H126.02V39.1432C126.02 37.8384 126.009 36.936 125.987 36.4358C125.966 36.1423 125.83 35.952 125.58 35.865L123.949 35.3921L123.916 34.7234C125.243 34.756 126.433 34.7723 127.488 34.7723C128.564 34.7723 129.831 34.756 131.288 34.7234L131.369 35.3921L129.478 35.9466C129.228 36.0336 129.092 36.2021 129.07 36.4522C129.048 36.8762 129.037 37.5884 129.037 38.5887V45.3896C129.037 46.6943 129.048 47.5967 129.07 48.0969Z" fill="white"/>
<path d="M136.98 42.144C136.98 44.1772 137.36 45.8353 138.121 47.1183C138.883 48.3904 140.013 49.0265 141.514 49.0265C142.916 49.0265 143.982 48.4666 144.71 47.3467C145.45 46.2159 145.819 44.5469 145.819 42.3398C145.819 40.2631 145.433 38.6267 144.661 37.4307C143.889 36.2347 142.77 35.6367 141.302 35.6367C139.91 35.6367 138.839 36.1749 138.089 37.2513C137.349 38.3277 136.98 39.9586 136.98 42.144ZM149.146 41.9973C149.146 44.4762 148.396 46.4823 146.896 48.0153C145.406 49.5375 143.509 50.2986 141.204 50.2986C138.953 50.2986 137.132 49.581 135.74 48.1458C134.359 46.6997 133.669 44.8133 133.669 42.4865C133.669 40.0945 134.392 38.1429 135.838 36.6316C137.295 35.1094 139.22 34.3483 141.612 34.3483C143.873 34.3483 145.694 35.0496 147.075 36.4522C148.456 37.8439 149.146 39.6922 149.146 41.9973Z" fill="white"/>
<path d="M165.178 48.684C164.254 49.2603 163.303 49.6734 162.324 49.9235C161.346 50.1736 160.438 50.2986 159.601 50.2986C157.209 50.2986 155.3 49.6191 153.876 48.26C152.452 46.89 151.74 44.9927 151.74 42.5681C151.74 40.1543 152.419 38.1809 153.778 36.6479C155.148 35.1148 156.975 34.3483 159.258 34.3483C161.172 34.3483 162.661 34.9245 163.727 36.077C164.792 37.2187 165.325 38.8007 165.325 40.823C165.325 41.1274 165.309 41.4373 165.276 41.7526H154.936C154.936 44.0903 155.485 45.7647 156.583 46.7758C157.682 47.7761 159.399 48.2763 161.737 48.2763C162.781 48.2763 163.895 48.1784 165.08 47.9827L165.178 48.684ZM162.08 40.399V39.9097C162.08 38.3658 161.829 37.2622 161.329 36.5989C160.84 35.9357 160.106 35.6041 159.128 35.6041C157.834 35.6041 156.844 36.0716 156.159 37.0067C155.474 37.9417 155.088 39.0725 155.001 40.399H162.08Z" fill="white"/>
<path d="M51.9609 24.2532C51.9392 23.6444 51.6565 23.2638 51.1128 23.1116L47.4922 21.97L47.3943 20.5674C49.9821 20.6544 52.5372 20.6979 55.0596 20.6979C57.5821 20.6979 60.2351 20.6544 63.0185 20.5674L63.149 21.97L59.1695 23.1768C58.5824 23.3726 58.278 23.7205 58.2562 24.2206C58.2127 25.982 58.191 28.1348 58.191 30.679V63.2334C58.191 65.7994 58.2127 67.963 58.2562 69.7244C58.278 70.2246 58.5824 70.5616 59.1695 70.7356L63.0837 71.9425L63.149 73.3451C60.2786 73.2798 57.5386 73.2472 54.9292 73.2472H7.99148C5.469 73.2472 2.84866 73.2798 0.130473 73.3451L0 71.9425L4.1099 70.6704C4.61005 70.5181 4.871 70.1593 4.89274 69.594C4.93623 68.1587 4.95798 66.3539 4.95798 64.1793V30.679C4.95798 28.1348 4.93623 25.982 4.89274 24.2206C4.871 23.7205 4.57743 23.3726 4.01205 23.1768L0.0652365 21.97L0 20.5674C2.89215 20.6544 5.59947 20.6979 8.12195 20.6979C10.6444 20.6979 13.1452 20.6544 15.6242 20.5674L15.7546 21.97L12.0688 23.1116C11.5251 23.2638 11.2424 23.6444 11.2207 24.2532C11.1554 25.9929 11.1228 28.1348 11.1228 30.679V70.2789H28.5084V30.679C28.5084 28.1348 28.4866 25.982 28.4431 24.2206C28.4214 23.6552 28.1278 23.2856 27.5624 23.1116L23.9418 21.97L23.8766 20.5674C26.5295 20.6544 29.1172 20.6979 31.6397 20.6979C34.1622 20.6979 36.6629 20.6544 39.1419 20.5674L39.305 21.97L35.5865 23.1116C35.0429 23.2638 34.7602 23.6444 34.7385 24.2532C34.695 25.9929 34.6732 28.1348 34.6732 30.679V70.2789H52.0261V30.679C52.0261 28.1348 52.0044 25.9929 51.9609 24.2532Z" fill="white"/>
<path d="M69.5063 73.8018V82.2173C69.5063 83.1959 69.5063 84.0766 69.5063 84.8594C69.5226 85.6423 69.5389 86.3517 69.5552 86.9878C69.5715 87.4934 69.7835 87.8114 70.1913 87.9418L72.9067 88.7491L72.9801 89.8011C71.0393 89.7522 69.0986 89.7277 67.1578 89.7277C65.1844 89.7277 63.162 89.7522 61.0908 89.8011L60.9929 88.7491L64.002 87.844C64.4097 87.7298 64.6299 87.477 64.6625 87.0856C64.6788 86.4333 64.6869 85.7075 64.6869 84.9083C64.7032 84.0929 64.7114 83.1959 64.7114 82.2173V62.3773C64.7114 61.5455 64.7032 60.7953 64.6869 60.1266C64.6869 59.4579 64.6788 58.8545 64.6625 58.3163C64.6462 57.8923 64.4505 57.615 64.0753 57.4845L61.0418 56.5305L60.9929 55.4785C62.0693 55.5111 63.105 55.5356 64.0998 55.5519C65.0947 55.5682 66.0814 55.5764 67.0599 55.5764C68.0385 55.5764 69.0007 55.5682 69.9466 55.5519C70.9089 55.5356 71.8793 55.5111 72.8578 55.4785L72.9801 56.5305L70.1913 57.3867C69.7835 57.4845 69.5715 57.7373 69.5552 58.1451C69.5389 58.7322 69.5226 59.3682 69.5063 60.0532C69.5063 60.7382 69.5063 61.4803 69.5063 62.2794V71.649H72.075C72.8252 71.649 73.4939 71.6246 74.081 71.5756C74.6844 71.5267 75.2308 71.4125 75.7201 71.2331C76.2257 71.0374 76.6742 70.7683 77.0656 70.4258C77.4733 70.067 77.8484 69.5859 78.1909 68.9825C78.5497 68.379 78.884 67.637 79.1939 66.7563C79.5038 65.8756 79.8218 64.8073 80.148 63.5515C80.4742 62.2468 80.7596 61.1378 81.0042 60.2245C81.2652 59.3112 81.518 58.5609 81.7626 57.9738C82.0072 57.3704 82.26 56.9056 82.521 56.5794C82.7819 56.2369 83.0836 55.9923 83.4261 55.8455C83.7686 55.6824 84.1764 55.5845 84.6493 55.5519C85.1223 55.5193 85.6931 55.503 86.3618 55.503C87.7481 55.503 89.2403 55.5682 90.8386 55.6987L90.9365 57.2154C89.8112 57.2481 88.8571 57.4193 88.0742 57.7292C87.3077 58.0227 86.639 58.4549 86.0682 59.0258C85.5137 59.5803 85.0163 60.2734 84.5759 61.1052C84.1519 61.9206 83.7115 62.8502 83.2549 63.894C82.9124 64.6606 82.5618 65.4189 82.2029 66.1692C81.8441 66.9194 81.4609 67.637 81.0532 68.322C80.6454 68.9906 80.1969 69.6104 79.7077 70.1812C79.2347 70.752 78.7046 71.2413 78.1175 71.649C79.2918 73.3778 80.3682 75.0658 81.3467 76.713C82.3253 78.3602 83.2304 79.877 84.0622 81.2633C84.845 82.5517 85.5545 83.6852 86.1905 84.6637C86.8429 85.6423 87.4463 86.4088 88.0008 86.9633C88.2944 87.2406 88.5798 87.477 88.8571 87.6727C89.1343 87.8685 89.4197 88.0397 89.7133 88.1865C90.0069 88.317 90.3167 88.4311 90.6429 88.529C90.9691 88.6268 91.3442 88.7247 91.7683 88.8225L91.8416 89.8989C90.6674 90.0457 89.6888 90.1191 88.906 90.1191C88.2373 90.1191 87.6502 90.1028 87.1446 90.0702C86.639 90.0376 86.1824 89.9723 85.7747 89.8745C85.3832 89.7766 85.0244 89.6543 84.6982 89.5075C84.3884 89.3444 84.0867 89.1406 83.7931 88.8959C83.0592 88.3577 82.3334 87.5586 81.6158 86.4985C80.8982 85.4384 80.148 84.1907 79.3652 82.7555C78.7291 81.6302 78.0767 80.456 77.4081 79.2328C76.7557 78.0096 76.0381 76.8027 75.2553 75.6121C75.0269 75.2696 74.8312 74.9842 74.6681 74.7559C74.505 74.5113 74.3256 74.3237 74.1299 74.1932C73.9505 74.0465 73.7385 73.9486 73.4939 73.8997C73.2655 73.8344 72.9638 73.8018 72.5887 73.8018H69.5063Z" fill="#E92B66"/>
<path d="M93.2406 72.7162C93.2406 74.695 93.5342 76.3042 94.1213 77.5437C94.7193 78.7723 95.6707 79.3866 96.9754 79.3866C98.1931 79.3866 99.0847 78.843 99.6501 77.7557C100.226 76.6684 100.514 75.0538 100.514 72.9119C100.514 70.9004 100.21 69.3184 99.6012 68.1659C99.0032 67.0025 98.0627 66.4209 96.7797 66.4209C95.5837 66.4209 94.6921 66.9427 94.105 67.9865C93.5287 69.0303 93.2406 70.6069 93.2406 72.7162ZM105.57 72.5857C105.57 75.0647 104.744 77.0762 103.091 78.6201C101.439 80.1531 99.2859 80.9197 96.6329 80.9197C94.0561 80.9197 92.0011 80.1966 90.468 78.7506C88.935 77.2936 88.1685 75.3909 88.1685 73.0424C88.1685 70.6612 88.973 68.7096 90.5822 67.1874C92.1914 65.6543 94.3659 64.8878 97.1059 64.8878C99.7045 64.8878 101.765 65.5945 103.287 67.008C104.809 68.4106 105.57 70.2698 105.57 72.5857Z" fill="#E92B66"/>
<path d="M107.413 66.747L107.315 66.0784C109.827 65.7087 112.127 65.2955 114.214 64.8389L114.459 64.9693V66.5024C116.144 65.426 117.77 64.8878 119.335 64.8878C121.379 64.8878 122.999 65.5673 124.195 66.9264C125.402 68.2747 126.006 70.0415 126.006 72.2269C126.006 74.9342 125.158 77.0598 123.461 78.6038C121.776 80.1477 119.547 80.9197 116.775 80.9197C116.035 80.9197 115.263 80.8436 114.459 80.6913V84.1326C114.459 85.209 114.47 87.4677 114.491 87.9026C114.513 88.2397 114.66 88.4408 114.932 88.506L117.231 89.1095L117.28 89.8923C115.475 89.8597 113.779 89.8434 112.192 89.8434C110.561 89.8434 108.963 89.8597 107.397 89.8923L107.315 89.1095L109.37 88.5387C109.631 88.4734 109.767 88.3103 109.778 88.0494C109.8 87.2448 109.811 84.5349 109.811 82.9257V76.4184C109.811 71.6778 109.789 68.6552 109.745 67.3505L107.413 66.747ZM114.459 79.0604C115.22 79.2235 115.954 79.3051 116.661 79.3051C118.096 79.3051 119.183 78.756 119.922 77.6578C120.662 76.5597 121.031 74.9886 121.031 72.9445C121.031 71.02 120.683 69.5685 119.988 68.59C119.292 67.6005 118.286 67.1058 116.97 67.1058C116.024 67.1058 115.187 67.2852 114.459 67.644V79.0604Z" fill="#E92B66"/>
<path d="M133.655 72.7162C133.655 74.695 133.948 76.3042 134.535 77.5437C135.133 78.7723 136.085 79.3866 137.389 79.3866C138.607 79.3866 139.499 78.843 140.064 77.7557C140.64 76.6684 140.929 75.0538 140.929 72.9119C140.929 70.9004 140.624 69.3184 140.015 68.1659C139.417 67.0025 138.477 66.4209 137.194 66.4209C135.998 66.4209 135.106 66.9427 134.519 67.9865C133.943 69.0303 133.655 70.6069 133.655 72.7162ZM145.984 72.5857C145.984 75.0647 145.158 77.0762 143.505 78.6201C141.853 80.1531 139.7 80.9197 137.047 80.9197C134.47 80.9197 132.415 80.1966 130.882 78.7506C129.349 77.2936 128.582 75.3909 128.582 73.0424C128.582 70.6612 129.387 68.7096 130.996 67.1874C132.605 65.6543 134.78 64.8878 137.52 64.8878C140.118 64.8878 142.179 65.5945 143.701 67.008C145.223 68.4106 145.984 70.2698 145.984 72.5857Z" fill="#E92B66"/>
<path d="M162.554 69.2423V75.8965C162.554 76.5488 162.554 77.0979 162.554 77.5437C162.565 77.9895 162.576 78.3428 162.587 78.6038C162.598 78.8973 162.734 79.0822 162.995 79.1583L165.033 79.7291L165.082 80.5119C163.473 80.4793 161.875 80.463 160.287 80.463C158.678 80.463 157.205 80.4793 155.868 80.5119L155.786 79.7291L157.515 79.2398C157.776 79.1529 157.912 78.9898 157.923 78.7506C157.934 78.5331 157.939 78.2504 157.939 77.9025C157.95 77.5546 157.955 77.1251 157.955 76.6141V66.9101H154.742C154.644 69.3456 154.384 71.5908 153.96 73.6458C153.546 75.7008 153.003 77.5165 152.329 79.0931C152.166 79.4845 151.975 79.7835 151.758 79.9901C151.54 80.1966 151.296 80.3489 151.024 80.4467C150.752 80.5446 150.453 80.6044 150.127 80.6261C149.812 80.6479 149.469 80.6642 149.099 80.675C148.186 80.675 147.175 80.5881 146.066 80.4141L145.984 79.566C146.571 79.5008 147.061 79.3975 147.452 79.2561C147.854 79.1039 148.181 78.9463 148.431 78.7832C148.996 78.4353 149.529 77.9079 150.029 77.2012C150.54 76.4836 150.991 75.6301 151.383 74.6407C151.785 73.6512 152.117 72.5313 152.378 71.281C152.638 70.0306 152.812 68.6824 152.899 67.2363C152.932 66.9319 152.785 66.7362 152.459 66.6492L150.241 66.0457L150.176 65.2629C151.872 65.2955 153.372 65.3118 154.677 65.3118H160.63C161.946 65.3118 163.392 65.2955 164.968 65.2629L165.05 66.0457L162.995 66.6166C162.734 66.7035 162.598 66.8666 162.587 67.1058C162.576 67.3233 162.565 67.606 162.554 67.9539C162.554 68.3018 162.554 68.7313 162.554 69.2423Z" fill="#E92B66"/>
<path d="M182.582 79.3866C180.571 80.4087 178.45 80.9197 176.221 80.9197C173.569 80.9197 171.399 80.2673 169.714 78.9626C168.04 77.647 167.203 75.7116 167.203 73.1565C167.203 70.721 168.007 68.7368 169.616 67.2037C171.236 65.6598 173.297 64.8878 175.797 64.8878C177.983 64.8878 179.668 65.4804 180.853 66.6655C182.049 67.8397 182.647 69.4652 182.647 71.5419C182.647 71.8572 182.631 72.1834 182.598 72.5205H172.177C172.177 74.7059 172.71 76.277 173.775 77.2338C174.852 78.1906 176.613 78.669 179.059 78.669C180.244 78.669 181.375 78.5657 182.452 78.3591L182.582 79.3866ZM177.689 70.9385V70.5471C177.689 69.0684 177.499 68.0083 177.118 67.3668C176.749 66.7253 176.178 66.4045 175.406 66.4045C174.482 66.4045 173.742 66.8503 173.188 67.7419C172.644 68.6226 172.329 69.6881 172.242 70.9385H177.689Z" fill="#E92B66"/>
<path d="M188.845 80.463C187.714 80.463 186.366 80.4793 184.8 80.5119L184.719 79.7291L186.79 79.142C187.051 79.055 187.187 78.8919 187.198 78.6527C187.208 78.4353 187.214 78.1526 187.214 77.8046C187.225 77.4567 187.23 77.0164 187.23 76.4836V69.7316C187.23 69.0684 187.225 68.5139 187.214 68.0681C187.214 67.6114 187.208 67.2581 187.198 67.008C187.176 66.7144 187.04 66.5241 186.79 66.4372L184.735 65.85L184.686 65.0672C186.284 65.0998 187.681 65.1161 188.877 65.1161C189.269 65.1161 190.073 65.0944 191.291 65.0509C192.509 64.9965 193.373 64.9693 193.884 64.9693C196.146 64.9693 197.842 65.2738 198.973 65.8827C200.103 66.4915 200.669 67.3668 200.669 68.5084C200.669 70.2263 199.397 71.4441 196.853 72.1617V72.2106C199.821 72.7107 201.305 73.9774 201.305 76.0106C201.305 77.4458 200.604 78.5657 199.201 79.3703C197.809 80.164 195.836 80.5609 193.281 80.5609C192.715 80.5609 192.036 80.5446 191.242 80.5119C190.448 80.4793 189.649 80.463 188.845 80.463ZM191.568 73.1565V79.0441C191.753 79.0985 191.982 79.142 192.253 79.1746C192.525 79.1963 192.813 79.2072 193.118 79.2072C194.205 79.2072 195.031 78.9463 195.597 78.4244C196.173 77.9025 196.461 77.136 196.461 76.1248C196.461 75.1027 196.168 74.3471 195.58 73.8578C195.004 73.3685 194.069 73.1239 192.775 73.1239C192.59 73.1239 192.395 73.1293 192.188 73.1402C191.982 73.1402 191.775 73.1457 191.568 73.1565ZM191.568 71.917C191.818 71.9279 192.063 71.9333 192.302 71.9333C192.541 71.9333 192.77 71.9333 192.987 71.9333C194.009 71.9333 194.781 71.6941 195.303 71.2157C195.825 70.7373 196.086 70.036 196.086 69.1119C196.086 68.1333 195.825 67.432 195.303 67.008C194.781 66.5731 194.015 66.3556 193.004 66.3556C192.438 66.3556 191.96 66.3774 191.568 66.4209V71.917Z" fill="#E92B66"/>
<path d="M217.484 79.3866C215.679 80.4087 213.814 80.9197 211.89 80.9197C209.508 80.9197 207.551 80.2293 206.018 78.8484C204.485 77.4676 203.719 75.6246 203.719 73.3196C203.719 70.808 204.55 68.7748 206.214 67.22C207.888 65.6652 210.019 64.8878 212.607 64.8878C214.249 64.8878 215.831 65.1977 217.353 65.8174C216.962 67.3505 216.619 68.9596 216.326 70.6449L215.429 70.7917L214.173 66.7144C213.879 66.6057 213.482 66.5513 212.982 66.5513C211.743 66.5513 210.726 67.095 209.932 68.1822C209.139 69.2586 208.742 70.7047 208.742 72.5205C208.742 74.6407 209.242 76.2063 210.242 77.2175C211.254 78.2178 212.689 78.7179 214.548 78.7179C215.44 78.7179 216.375 78.6147 217.353 78.4081L217.484 79.3866Z" fill="#E92B66"/>
<path d="M220.615 70.7591L219.751 70.8896L219.115 65.3771L219.229 65.2629C221.512 65.2955 223.583 65.3118 225.442 65.3118H228.998C230.868 65.3118 232.934 65.2955 235.195 65.2629L235.309 65.3771L234.396 70.7754L233.532 70.9222L232.325 66.8938H229.454V75.9943C229.454 77.2012 229.471 78.0547 229.503 78.5549C229.525 78.8593 229.661 79.0496 229.911 79.1257L232.031 79.7291L232.08 80.5119C230.699 80.4793 229.074 80.463 227.204 80.463C225.584 80.463 223.958 80.4793 222.327 80.5119L222.23 79.7291L224.399 79.1257C224.649 79.0496 224.785 78.8865 224.806 78.6364C224.828 78.2124 224.839 77.4948 224.839 76.4836V66.8938H221.903L220.615 70.7591Z" fill="#E92B66"/>
<path d="M240.708 80.463C239.577 80.463 238.229 80.4793 236.663 80.5119L236.582 79.7291L238.653 79.142C238.914 79.055 239.05 78.8919 239.061 78.6527C239.071 78.4353 239.077 78.1526 239.077 77.8046C239.088 77.4567 239.093 77.0164 239.093 76.4836V69.7316C239.093 69.0684 239.088 68.5139 239.077 68.0681C239.077 67.6114 239.071 67.2581 239.061 67.008C239.039 66.7144 238.903 66.5241 238.653 66.4372L236.598 65.85L236.549 65.0672C238.147 65.0998 239.544 65.1161 240.74 65.1161C241.132 65.1161 241.936 65.0944 243.154 65.0509C244.372 64.9965 245.236 64.9693 245.747 64.9693C248.009 64.9693 249.705 65.2738 250.836 65.8827C251.967 66.4915 252.532 67.3668 252.532 68.5084C252.532 70.2263 251.26 71.4441 248.716 72.1617V72.2106C251.684 72.7107 253.168 73.9774 253.168 76.0106C253.168 77.4458 252.467 78.5657 251.064 79.3703C249.672 80.164 247.699 80.5609 245.144 80.5609C244.579 80.5609 243.899 80.5446 243.105 80.5119C242.312 80.4793 241.512 80.463 240.708 80.463ZM243.431 73.1565V79.0441C243.616 79.0985 243.845 79.142 244.116 79.1746C244.388 79.1963 244.676 79.2072 244.981 79.2072C246.068 79.2072 246.894 78.9463 247.46 78.4244C248.036 77.9025 248.324 77.136 248.324 76.1248C248.324 75.1027 248.031 74.3471 247.443 73.8578C246.867 73.3685 245.932 73.1239 244.638 73.1239C244.453 73.1239 244.258 73.1293 244.051 73.1402C243.845 73.1402 243.638 73.1457 243.431 73.1565ZM243.431 71.917C243.682 71.9279 243.926 71.9333 244.165 71.9333C244.405 71.9333 244.633 71.9333 244.85 71.9333C245.872 71.9333 246.644 71.6941 247.166 71.2157C247.688 70.7373 247.949 70.036 247.949 69.1119C247.949 68.1333 247.688 67.432 247.166 67.008C246.644 66.5731 245.878 66.3556 244.867 66.3556C244.301 66.3556 243.823 66.3774 243.431 66.4209V71.917Z" fill="#E92B66"/>
<path d="M260.67 72.7162C260.67 74.695 260.964 76.3042 261.551 77.5437C262.149 78.7723 263.1 79.3866 264.405 79.3866C265.623 79.3866 266.514 78.843 267.08 77.7557C267.656 76.6684 267.944 75.0538 267.944 72.9119C267.944 70.9004 267.64 69.3184 267.031 68.1659C266.433 67.0025 265.492 66.4209 264.209 66.4209C263.013 66.4209 262.122 66.9427 261.535 67.9865C260.958 69.0303 260.67 70.6069 260.67 72.7162ZM273 72.5857C273 75.0647 272.174 77.0762 270.521 78.6201C268.868 80.1531 266.715 80.9197 264.062 80.9197C261.486 80.9197 259.431 80.1966 257.898 78.7506C256.365 77.2936 255.598 75.3909 255.598 73.0424C255.598 70.6612 256.403 68.7096 258.012 67.1874C259.621 65.6543 261.796 64.8878 264.535 64.8878C267.134 64.8878 269.194 65.5945 270.717 67.008C272.239 68.4106 273 70.2698 273 72.5857Z" fill="#E92B66"/>
<path d="M222.71 28.7455C224.072 21.5873 225.039 14.3551 225.607 7.09331C225.627 6.85174 224.121 7.43348 223.944 7.87224C223.648 8.62159 223.726 9.79491 223.638 10.5936C223.42 12.6148 223.238 14.6361 223.1 16.6623C222.818 20.6802 222.69 24.7129 222.71 28.7406V28.7455Z" fill="white" stroke="white" stroke-width="0.657728" stroke-linejoin="round"/>
<path d="M222.394 6.19115C222.295 6.85669 222.695 7.52223 223.258 7.88705C223.82 8.25186 224.516 8.35539 225.187 8.3406C225.874 8.32581 226.619 8.15326 227.033 7.60604C227.557 6.92078 227.315 5.86085 226.673 5.27912C225.563 4.27834 222.665 4.31285 222.394 6.18622V6.19115Z" fill="white" stroke="white" stroke-width="0.657728" stroke-miterlimit="10"/>
<path d="M224.881 5.87083C225.089 5.718 225.345 5.64406 225.602 5.66378" stroke="white" stroke-width="0.263091" stroke-linecap="round" stroke-linejoin="round"/>
<path d="M225.261 6.40816C225.464 6.18138 225.789 6.07785 226.085 6.13208" stroke="white" stroke-width="0.263091" stroke-linecap="round" stroke-linejoin="round"/>
<path d="M225.602 6.7483C225.79 6.63491 226.031 6.60533 226.244 6.67435" stroke="white" stroke-width="0.263091" stroke-linecap="round" stroke-linejoin="round"/>
<path d="M225.686 7.49258C225.755 7.38413 225.908 7.33976 226.021 7.39892" stroke="white" stroke-width="0.263091" stroke-linecap="round" stroke-linejoin="round"/>
<path d="M224.482 9.59277C224.585 9.60756 224.689 9.61742 224.788 9.63221" stroke="white" stroke-width="0.263091" stroke-linecap="round" stroke-linejoin="round"/>
<path d="M224.437 10.3374C224.496 10.2684 224.615 10.2585 224.684 10.3177" stroke="white" stroke-width="0.263091" stroke-linecap="round" stroke-linejoin="round"/>
<path d="M224.398 11.0521C224.496 11.0422 224.59 11.0274 224.689 11.0176" stroke="white" stroke-width="0.263091" stroke-linecap="round" stroke-linejoin="round"/>
<path d="M224.314 11.8508C224.403 11.8163 224.491 11.7818 224.58 11.7522" stroke="white" stroke-width="0.263091" stroke-linecap="round" stroke-linejoin="round"/>
<path d="M224.215 12.8021C224.294 12.7873 224.368 12.7726 224.447 12.7627" stroke="white" stroke-width="0.263091" stroke-linecap="round" stroke-linejoin="round"/>
<path d="M224.21 13.6256C224.274 13.5665 224.373 13.5517 224.452 13.5911" stroke="white" stroke-width="0.263091" stroke-linecap="round" stroke-linejoin="round"/>
<path d="M224.126 14.3996C224.205 14.3996 224.284 14.3897 224.363 14.3848" stroke="white" stroke-width="0.263091" stroke-linecap="round" stroke-linejoin="round"/>
<path d="M224.022 15.3411C224.111 15.2967 224.195 15.2524 224.284 15.208" stroke="white" stroke-width="0.263091" stroke-linecap="round" stroke-linejoin="round"/>
<path d="M223.948 16.3221C223.983 16.258 224.087 16.253 224.126 16.3122" stroke="white" stroke-width="0.263091" stroke-linecap="round" stroke-linejoin="round"/>
<path d="M223.855 17.1209C223.958 17.0766 224.067 17.0273 224.171 16.9829C224.146 17.0273 224.126 17.0716 224.102 17.1111" stroke="white" stroke-width="0.263091" stroke-linecap="round" stroke-linejoin="round"/>
<path d="M224.067 17.7173C224.062 17.6532 223.993 17.599 223.929 17.6138C223.865 17.6286 223.82 17.7025 223.845 17.7666C223.835 17.6335 223.944 17.7666 224.067 17.7173Z" stroke="white" stroke-width="0.263091" stroke-linecap="round" stroke-linejoin="round"/>
<path d="M223.445 19.359C223.514 19.2209 223.717 19.1766 223.835 19.2751C223.835 19.3294 223.835 19.3836 223.835 19.4428" stroke="white" stroke-width="0.263091" stroke-linecap="round" stroke-linejoin="round"/>
<path d="M223.637 20.4682C223.731 20.4436 223.815 20.5816 223.746 20.6506" stroke="white" stroke-width="0.263091" stroke-linecap="round" stroke-linejoin="round"/>
<path d="M196.079 34.4201C193.641 27.5527 190.828 20.8233 187.644 14.2665C187.541 14.0496 186.534 15.3117 186.603 15.7751C186.721 16.5688 187.388 17.5449 187.714 18.2795C188.548 20.1332 189.411 21.972 190.315 23.7912C192.101 27.4048 194.026 30.9494 196.074 34.4151L196.079 34.4201Z" fill="white" stroke="white" stroke-width="0.657728" stroke-linejoin="round"/>
<path d="M184.416 15.1045C184.668 15.7257 185.349 16.1053 186.021 16.1349C186.692 16.1694 187.343 15.9081 187.916 15.5532C188.498 15.1933 189.056 14.6707 189.14 13.9904C189.244 13.1375 188.498 12.3389 187.654 12.1614C186.188 11.8557 183.706 13.3446 184.416 15.0996V15.1045Z" fill="white" stroke="white" stroke-width="0.657728" stroke-miterlimit="10"/>
<path d="M186.406 13.5713C186.504 13.3396 186.692 13.1424 186.924 13.0291" stroke="white" stroke-width="0.263091" stroke-linecap="round" stroke-linejoin="round"/>
<path d="M187.008 13.8424C187.067 13.5466 187.294 13.2902 187.58 13.1917" stroke="white" stroke-width="0.263091" stroke-linecap="round" stroke-linejoin="round"/>
<path d="M187.467 13.9658C187.57 13.7736 187.768 13.6257 187.985 13.5813" stroke="white" stroke-width="0.263091" stroke-linecap="round" stroke-linejoin="round"/>
<path d="M187.916 14.5673C187.916 14.4391 188.029 14.3257 188.158 14.3208" stroke="white" stroke-width="0.263091" stroke-linecap="round" stroke-linejoin="round"/>
<path d="M187.936 16.9878C188.029 16.9483 188.123 16.9039 188.222 16.8645" stroke="white" stroke-width="0.263091" stroke-linecap="round" stroke-linejoin="round"/>
<path d="M188.276 17.6534C188.291 17.5646 188.39 17.4956 188.478 17.5154" stroke="white" stroke-width="0.263091" stroke-linecap="round" stroke-linejoin="round"/>
<path d="M188.602 18.2893C188.681 18.2301 188.76 18.171 188.834 18.1118" stroke="white" stroke-width="0.263091" stroke-linecap="round" stroke-linejoin="round"/>
<path d="M188.938 19.019C188.997 18.945 189.056 18.8711 189.12 18.7971" stroke="white" stroke-width="0.263091" stroke-linecap="round" stroke-linejoin="round"/>
<path d="M189.332 19.8916C189.392 19.8423 189.451 19.7881 189.51 19.7388" stroke="white" stroke-width="0.263091" stroke-linecap="round" stroke-linejoin="round"/>
<path d="M189.742 20.6064C189.767 20.5226 189.846 20.4585 189.934 20.4536" stroke="white" stroke-width="0.263091" stroke-linecap="round" stroke-linejoin="round"/>
<path d="M190.058 21.3162C190.122 21.2718 190.191 21.2274 190.255 21.188" stroke="white" stroke-width="0.263091" stroke-linecap="round" stroke-linejoin="round"/>
<path d="M190.443 22.1791C190.497 22.0953 190.551 22.0164 190.601 21.9326" stroke="white" stroke-width="0.263091" stroke-linecap="round" stroke-linejoin="round"/>
<path d="M190.877 23.0663C190.877 22.9923 190.961 22.9381 191.025 22.9677" stroke="white" stroke-width="0.263091" stroke-linecap="round" stroke-linejoin="round"/>
<path d="M191.203 23.8059C191.272 23.7122 191.336 23.6186 191.405 23.5249C191.405 23.5742 191.405 23.6235 191.41 23.6728" stroke="white" stroke-width="0.263091" stroke-linecap="round" stroke-linejoin="round"/>
<path d="M191.682 24.21C191.642 24.1558 191.558 24.1459 191.509 24.1903C191.46 24.2347 191.465 24.3234 191.509 24.3628C191.435 24.2544 191.593 24.3135 191.677 24.21H191.682Z" stroke="white" stroke-width="0.263091" stroke-linecap="round" stroke-linejoin="round"/>
<path d="M191.973 25.9404C191.963 25.7876 192.116 25.6446 192.269 25.6693C192.294 25.7186 192.323 25.763 192.348 25.8123" stroke="white" stroke-width="0.263091" stroke-linecap="round" stroke-linejoin="round"/>
<path d="M192.703 26.8033C192.772 26.7343 192.916 26.8131 192.891 26.9068" stroke="white" stroke-width="0.263091" stroke-linecap="round" stroke-linejoin="round"/>
<path d="M236.626 28.0374C236.419 28.239 236.162 28.3963 235.911 28.5536C234.633 29.3992 233.429 30.3137 232.201 31.2281C231.106 32.0541 230.208 32.9587 229.157 33.8388C229.074 33.9027 228.985 33.9715 228.886 33.9469C228.783 33.9272 228.718 33.8142 228.728 33.7208C228.728 33.6175 228.778 33.5192 228.827 33.4307C229.236 32.708 229.779 32.0885 230.415 31.5625C230.958 31.1101 231.372 30.4956 231.856 29.9597C232.601 29.119 233.41 28.3324 234.165 27.4966C234.993 27.649 235.812 27.826 236.626 28.0325V28.0374Z" fill="#E92B66"/>
<path d="M251.473 36.6394C251.266 36.841 251.01 36.9983 250.758 37.1557C249.48 38.0013 248.277 38.9157 247.048 39.8302C245.953 40.6561 245.055 41.5608 244.005 42.4408C243.921 42.5047 243.832 42.5735 243.733 42.549C243.63 42.5293 243.566 42.4162 243.575 42.3228C243.575 42.2196 243.625 42.1212 243.674 42.0327C244.084 41.31 244.626 40.6906 245.263 40.1645C245.805 39.7122 246.22 39.0976 246.703 38.5618C247.448 37.721 248.257 36.9344 249.012 36.0986C249.84 36.251 250.659 36.428 251.473 36.6345V36.6394Z" fill="#E92B66"/>
<path d="M242.628 32.4698C242.517 32.5611 242.386 32.6558 242.245 32.7404C240.409 33.9179 238.573 35.0953 236.748 36.2795C235.83 36.8648 234.912 37.4569 233.994 38.049C233.288 38.5092 232.622 39.1858 231.583 39.558C231.361 39.2163 231.936 38.7731 232.218 38.4516C232.753 37.8359 233.288 37.2201 233.822 36.6077C234.891 35.3829 237.48 31.0919 238.55 29.8671C238.691 29.7115 238.822 29.5559 238.983 29.4036C240.708 29.3901 242.618 32.4731 242.618 32.4731L242.628 32.4698Z" fill="#E92B66"/>
<path d="M210.373 38.7044C210.201 38.7462 210.041 38.6105 209.923 38.48C209.187 37.6185 208.523 36.7049 207.93 35.7548C206.863 34.0372 206.021 32.2152 205.291 30.367C204.953 29.5056 204.639 28.6495 204.331 27.7828C205.268 27.1772 206.246 26.6134 207.26 26.1174C207.367 26.4411 207.426 26.7805 207.474 27.1198C208.084 30.8578 209.098 34.554 210.498 38.1197C210.581 38.3338 210.616 38.647 210.367 38.7044H210.373Z" fill="#E92B66"/>
<path d="M196.395 43.3516C196.252 43.3824 196.119 43.2823 196.02 43.186C195.408 42.5506 194.856 41.8767 194.363 41.1758C193.475 39.9089 192.774 38.5649 192.167 37.2016C191.886 36.5662 191.625 35.9346 191.368 35.2954C192.148 34.8486 192.962 34.4327 193.805 34.0669C193.894 34.3057 193.943 34.556 193.983 34.8063C194.491 37.5636 195.334 40.2901 196.499 42.9203C196.568 43.0782 196.597 43.3093 196.39 43.3516H196.395Z" fill="#E92B66"/>
<path d="M251.567 37.1579C250.09 35.2265 247.763 33.915 245.345 33.6517C244.835 33.5968 244.319 33.594 243.803 33.6297C242.293 31.0398 240.106 28.908 237.48 27.6515C232.578 25.3085 226.313 26.362 222.622 29.9808C223.141 29.3223 223.418 28.4663 223.352 27.635C223.292 26.8778 222.968 26.1288 222.438 25.528C222.092 25.1356 221.659 24.8366 221.187 24.6143V24.5567C219.424 23.9275 218.659 24.2511 217.828 24.5348V24.5567C216.93 24.971 216.203 25.7365 215.868 26.6364C215.555 27.4759 215.588 28.4361 215.939 29.24C212.188 26.2276 206.466 25.4758 201.919 27.6515C199.292 28.908 197.105 31.037 195.596 33.627C195.093 33.594 194.588 33.594 194.092 33.6489C191.674 33.9123 189.347 35.2237 187.87 37.1552C186.226 39.3089 185.546 42.3323 186.053 45.2514C186.487 47.7453 187.73 50.1762 189.643 52.3161C189.333 52.0143 189.017 51.6879 188.699 51.3339L192.925 57.2546V57.8252C201.265 57.795 210.489 57.7676 219.713 57.7374C228.937 57.7072 238.158 57.6798 246.498 57.6496V57.2436L250.716 51.3339C250.466 51.6138 250.216 51.8717 249.969 52.1186C251.783 50.028 252.964 47.6685 253.383 45.2514C253.888 42.3323 253.211 39.3061 251.567 37.1579ZM237.167 28.3072C239.571 29.4567 241.594 31.3772 243.023 33.7203C241.473 33.9617 239.977 34.5927 238.751 35.5557C236.58 32.5872 233.116 30.6282 229.45 30.3073C227.468 30.1344 225.273 30.535 223.242 31.4294C223.003 31.3279 222.759 31.2428 222.515 31.1632C225.871 27.218 232.241 25.9532 237.167 28.3072ZM239.483 55.057C238.718 54.6399 238.056 54.0967 237.433 53.3998C237.499 53.2928 237.568 53.1858 237.636 53.0706C238.91 50.9526 240.227 48.766 240.847 46.2913C241.706 42.8645 241.075 39.1196 239.162 36.151C240.37 35.1908 241.868 34.5817 243.408 34.3924C244.588 36.5653 245.277 39.0482 245.315 41.5998C245.386 46.4559 243.224 51.3888 239.481 55.0542L239.483 55.057ZM194.083 41.6025C194.122 39.0482 194.813 36.5653 195.993 34.3924C197.547 34.5762 199.059 35.1853 200.275 36.1565C198.365 39.1223 197.731 42.8673 198.59 46.2967C199.21 48.7687 200.527 50.9581 201.801 53.0761C201.875 53.1968 201.946 53.3148 202.015 53.4245C201.386 54.2421 200.881 54.7415 199.981 55.1283C196.197 51.4547 194.009 46.4915 194.081 41.608L194.083 41.6025ZM219.718 31.4266C223.377 31.4266 226.656 33.8794 228.072 37.6573L228.157 37.9152C228.574 39.1168 228.789 40.3652 228.789 41.6327C228.789 43.1142 228.503 44.5546 227.93 45.9483C227.15 48.4751 225.696 50.8428 223.366 53.3148C221.325 51.4558 220.836 49.0208 220.086 46.4723C219.713 44.2253 219.713 44.343 219.364 46.5766C218.746 49.1034 217.976 51.4585 216.005 53.2407C213.716 50.7907 212.278 48.4367 211.499 45.9126C210.936 44.5491 210.654 43.1087 210.654 41.6272C210.654 40.3597 210.865 39.1114 211.288 37.9042L211.365 37.6682C212.786 33.8739 216.068 31.4211 219.724 31.4211L219.718 31.4266ZM217.553 30.9794L217.635 30.9136C217.635 30.9136 217.616 30.8944 217.608 30.8834C217.644 30.8999 217.679 30.9218 217.715 30.9355C217.66 30.9492 217.608 30.9657 217.553 30.9794ZM221.491 30.8861C221.681 30.7984 221.864 30.6886 222.046 30.5514C222.109 30.5048 222.166 30.4472 222.224 30.395C222.068 30.5651 221.908 30.7325 221.763 30.9136L221.84 30.9767C221.722 30.9492 221.607 30.9108 221.489 30.8889L221.491 30.8861ZM236.945 52.81C236.876 52.7222 236.808 52.6399 236.739 52.5466C236.401 52.0857 236.132 51.5754 235.91 51.0376C236.058 50.445 236.396 49.8853 236.926 49.5863C237.48 49.2735 238.246 49.3256 238.687 49.7728C238.169 50.7715 237.587 51.7427 237.013 52.6975C236.989 52.7359 236.967 52.7716 236.945 52.81ZM202.426 52.6975C201.847 51.7345 201.263 50.7578 200.738 49.7482C201.183 49.3256 201.932 49.279 202.476 49.5863C203.008 49.8881 203.348 50.4505 203.494 51.0486C203.271 51.5809 203.005 52.0857 202.668 52.5438C202.605 52.6289 202.544 52.7112 202.487 52.7908C202.467 52.7579 202.448 52.7277 202.426 52.692V52.6975ZM238.723 49.707C238.578 49.1802 238.254 48.7001 237.806 48.3819C237.318 48.0334 236.692 47.8798 236.099 47.9593C236.261 47.0375 235.894 46.0471 235.191 45.4325C235.153 45.3996 235.114 45.3639 235.073 45.3338C235.032 45.3667 234.993 45.3996 234.955 45.4325C234.253 46.0471 233.885 47.0375 234.047 47.9593C233.451 47.8798 232.828 48.0334 232.34 48.3819C231.851 48.7303 231.5 49.268 231.379 49.8552C231.802 49.3284 232.636 49.2543 233.223 49.589C233.753 49.8881 234.093 50.4505 234.242 51.0459C234.038 51.5562 233.791 52.0582 233.459 52.5493C232.48 54.0007 230.957 54.8704 229.368 55.4081C228.709 55.6304 227.921 55.5234 227.227 55.3697C226.437 55.1941 225.18 54.7442 223.934 53.7812C226.321 51.2379 227.82 48.7989 228.624 46.1952C229.222 44.7439 229.524 43.2102 229.524 41.6327C229.524 40.2856 229.299 38.9577 228.854 37.6792L228.769 37.4158C227.842 34.9384 226.168 33.0014 224.112 31.8546C225.866 31.1742 227.718 30.8834 229.395 31.0288C232.9 31.3333 236.212 33.2264 238.254 36.0907C240.296 38.955 241.004 42.7027 240.15 46.1157C239.837 47.3667 239.327 48.5547 238.731 49.7043L238.723 49.707ZM210.673 37.435L210.593 37.6792C210.149 38.9577 209.921 40.2883 209.921 41.6354C209.921 43.2102 210.223 44.7466 210.81 46.1651C211.614 48.766 213.096 51.194 215.451 53.7154C214.57 54.4177 213.725 54.8814 213.132 55.1722C212.509 55.4795 210.495 55.559 209.836 55.3341C208.244 54.7936 206.935 54.0007 205.955 52.5466C205.621 52.05 205.371 51.5452 205.168 51.0294C205.316 50.4395 205.656 49.8826 206.183 49.5863C206.771 49.2543 207.602 49.3284 208.027 49.8524C207.907 49.2653 207.555 48.7275 207.067 48.3791C206.578 48.0307 205.953 47.877 205.357 47.9566C205.519 47.0348 205.151 46.0443 204.449 45.4298C204.41 45.3969 204.372 45.3612 204.331 45.331C204.29 45.3639 204.251 45.3969 204.213 45.4298C203.51 46.0443 203.142 47.0348 203.304 47.9566C202.709 47.877 202.086 48.0307 201.597 48.3791C201.164 48.6864 200.848 49.1473 200.697 49.6576C200.113 48.5218 199.613 47.3503 199.303 46.1157C198.447 42.7027 199.158 38.9577 201.199 36.0907C203.241 33.2264 206.554 31.3333 210.058 31.0288C211.738 30.8834 213.588 31.177 215.344 31.8546C213.286 33.0014 211.612 34.9466 210.681 37.4295L210.673 37.435ZM216.551 26.8943C216.837 26.1315 217.474 25.4841 218.256 25.1631C219.485 24.661 221.014 25.0177 221.892 26.0108C222.32 26.4937 222.581 27.0918 222.627 27.6926C222.696 28.5541 222.293 29.4513 221.607 29.978C220.863 30.5459 220.012 30.5103 219.024 30.4719L218.914 30.4664C218.031 30.4335 217.207 29.9725 216.768 29.2674C216.343 28.5843 216.261 27.6762 216.551 26.8943ZM202.234 28.3099C207.163 25.9532 213.535 27.2207 216.892 31.1715C216.656 31.2483 216.425 31.3333 216.197 31.4321C214.169 30.5377 211.968 30.1372 209.99 30.31C206.323 30.6283 202.86 32.5899 200.689 35.5584C199.451 34.5872 197.942 33.9562 196.38 33.7175C197.81 31.3772 199.83 29.4595 202.234 28.3099ZM188.446 37.5996C189.805 35.8218 191.946 34.6174 194.171 34.3732C194.514 34.3348 194.857 34.3293 195.203 34.3376C194.061 36.5434 193.397 39.0373 193.359 41.5915C193.285 46.5656 195.458 51.6083 199.226 55.3944C199.174 55.4109 199.127 55.4246 199.075 55.4411C199.075 55.4411 194.49 56.7964 190.362 51.9595L190.538 52.2256C190.507 52.1954 190.48 52.1652 190.45 52.1351C188.474 50.028 187.201 47.6054 186.772 45.1307C186.3 42.4091 186.926 39.5942 188.449 37.6024L188.446 37.5996ZM252.667 45.128C252.239 47.6027 250.966 50.0253 248.99 52.1323C247.922 53.2709 246.646 54.3464 245.219 55.3176C242.779 56.2175 241.135 55.7264 241.135 55.7264C240.795 55.6304 240.482 55.5124 240.178 55.3889C243.943 51.6056 246.114 46.5629 246.042 41.5915C246.004 39.0345 245.34 36.5434 244.198 34.3376C244.555 34.3293 244.912 34.3348 245.266 34.3732C247.491 34.6146 249.629 35.8218 250.99 37.5996C252.513 39.5915 253.139 42.4064 252.667 45.128Z" fill="#E92B66" stroke="#E92B66" stroke-width="0.657728"/>
<path d="M193.9 59.2266L193.891 59.9537C201.23 60.0415 208.609 60.0881 216 60.0881C225.915 60.0881 235.842 60.0085 245.688 59.8467L245.677 59.1196C228.5 59.3995 211.082 59.4351 193.902 59.2266H193.9Z" fill="#E92B66"/>
<path d="M235.921 35.2265C241.296 29.1479 246.666 23.0693 252.041 16.9858C253.492 15.3441 254.943 13.7025 256.221 11.9277C256.601 11.4002 256.976 10.8431 257.119 10.2071C257.263 9.57118 257.134 8.83663 256.641 8.41265C256.142 7.98375 255.377 7.96896 254.77 8.22038C254.158 8.47181 253.669 8.94508 253.215 9.42329C251.621 11.1093 250.284 13.0172 248.946 14.9152C247.549 16.9069 246.147 18.9035 244.751 20.8952C242.283 24.4103 239.81 27.9302 237.342 31.4453C236.108 33.2052 234.875 34.9603 233.641 36.7203C232.935 37.7309 231.439 39.0225 231.385 40.3339C233.009 38.7711 234.43 36.9175 235.926 35.2265H235.921ZM251.843 14.5356C251.453 14.3877 251.71 13.7123 251.799 13.451C251.922 13.0961 252.08 12.7658 252.129 12.6721C252.51 11.9228 253.018 11.2326 253.62 10.6459C253.995 10.2811 254.568 9.67471 255.091 9.53174C256.744 9.06833 255.214 11.3657 254.923 11.7699C254.355 12.5636 253.674 13.2785 252.909 13.8849C252.707 14.0476 252.129 14.6441 251.848 14.5356H251.843Z" fill="white" stroke="white" stroke-width="0.657728" stroke-linejoin="round"/>
<path d="M250.683 15.709C250.905 15.9013 251.221 15.9801 251.513 15.9259" stroke="white" stroke-width="0.263091" stroke-linecap="round" stroke-linejoin="round"/>
<path d="M250.081 16.5913L250.782 16.823" stroke="white" stroke-width="0.263091" stroke-linecap="round" stroke-linejoin="round"/>
<path d="M249.805 17.3162C250.037 17.395 250.269 17.4739 250.501 17.5479" stroke="white" stroke-width="0.263091" stroke-linecap="round" stroke-linejoin="round"/>
<path d="M249.351 18.0852C249.543 18.169 249.731 18.2479 249.923 18.3317" stroke="white" stroke-width="0.263091" stroke-linecap="round" stroke-linejoin="round"/>
<path d="M248.674 18.731C248.837 18.8049 249.005 18.8838 249.168 18.9577" stroke="white" stroke-width="0.263091" stroke-linecap="round" stroke-linejoin="round"/>
<path d="M248.245 19.1501C248.344 19.3128 248.507 19.4312 248.689 19.4755" stroke="white" stroke-width="0.263091" stroke-linecap="round" stroke-linejoin="round"/>
<path d="M247.85 19.8896C247.974 19.9685 248.092 20.0523 248.216 20.1312" stroke="white" stroke-width="0.263091" stroke-linecap="round" stroke-linejoin="round"/>
<path d="M247.204 20.5847C247.288 20.6439 247.371 20.703 247.455 20.7622" stroke="white" stroke-width="0.263091" stroke-linecap="round" stroke-linejoin="round"/>
<path d="M246.789 20.9939C246.898 21.058 247.011 21.1221 247.125 21.1862" stroke="white" stroke-width="0.263091" stroke-linecap="round" stroke-linejoin="round"/>
<path d="M246.325 21.5706C246.389 21.6445 246.454 21.7185 246.518 21.7875" stroke="white" stroke-width="0.263091" stroke-linecap="round" stroke-linejoin="round"/>
<path d="M245.935 22.0981C245.916 22.2017 245.985 22.3151 246.088 22.3397" stroke="white" stroke-width="0.263091" stroke-linecap="round" stroke-linejoin="round"/>
<path d="M244.642 23.4883C244.765 23.5672 244.884 23.651 245.007 23.7298" stroke="white" stroke-width="0.263091" stroke-linecap="round" stroke-linejoin="round"/>
<path d="M244.074 24.2031C244.183 24.2672 244.297 24.3313 244.405 24.3954" stroke="white" stroke-width="0.263091" stroke-linecap="round" stroke-linejoin="round"/>
<path d="M243.542 24.7554C243.64 24.8047 243.744 24.854 243.843 24.9033" stroke="white" stroke-width="0.263091" stroke-linecap="round" stroke-linejoin="round"/>
<path d="M243.156 25.2139C243.25 25.2878 243.344 25.3667 243.443 25.4406" stroke="white" stroke-width="0.263091" stroke-linecap="round" stroke-linejoin="round"/>
<path d="M242.702 25.7808C242.771 25.8498 242.841 25.9188 242.91 25.9878" stroke="white" stroke-width="0.263091" stroke-linecap="round" stroke-linejoin="round"/>
<path d="M242.377 26.2788C242.461 26.3577 242.545 26.4415 242.628 26.5204" stroke="white" stroke-width="0.263091" stroke-linecap="round" stroke-linejoin="round"/>
<path d="M242.021 26.8457C242.085 26.9394 242.15 27.038 242.209 27.1316" stroke="white" stroke-width="0.263091" stroke-linecap="round" stroke-linejoin="round"/>
<path d="M241.439 27.4324C241.508 27.5014 241.577 27.5704 241.646 27.6394" stroke="white" stroke-width="0.263091" stroke-linecap="round" stroke-linejoin="round"/>
<path d="M240.93 27.8367C240.995 27.8909 241.064 27.9451 241.128 27.9994C241.108 28.0339 241.088 28.0684 241.064 28.1029" stroke="white" stroke-width="0.263091" stroke-linecap="round" stroke-linejoin="round"/>
<path d="M240.649 28.3986C240.694 28.3542 240.782 28.3838 240.792 28.4429C240.802 28.5021 240.728 28.5612 240.674 28.5366" stroke="white" stroke-width="0.263091" stroke-linecap="round" stroke-linejoin="round"/>
<path d="M240.2 28.7832C240.245 28.8424 240.289 28.9065 240.338 28.9656" stroke="white" stroke-width="0.263091" stroke-linecap="round" stroke-linejoin="round"/>
<path d="M239.82 29.4388C239.869 29.3895 239.968 29.4043 239.998 29.4683C240.027 29.5324 239.978 29.6162 239.909 29.6261" stroke="white" stroke-width="0.263091" stroke-linecap="round" stroke-linejoin="round"/>
<path d="M239.257 30.0896C239.317 30.1438 239.376 30.1931 239.435 30.2474" stroke="white" stroke-width="0.263091" stroke-linecap="round" stroke-linejoin="round"/>
<path d="M228.743 34.4834C232.474 28.2224 235.855 21.7544 238.871 15.1236C238.97 14.9067 237.356 14.9363 237.045 15.2913C236.507 15.8927 236.181 17.0217 235.826 17.7464C234.927 19.5704 234.068 21.4093 233.244 23.2679C231.606 26.9505 230.105 30.6923 228.743 34.4834Z" fill="white" stroke="white" stroke-width="0.657728" stroke-linejoin="round"/>
<path d="M236.166 13.1764C235.85 13.768 235.994 14.5322 236.398 15.0646C236.803 15.602 237.42 15.9372 238.057 16.1492C238.703 16.3661 239.463 16.4598 240.041 16.09C240.766 15.6217 240.9 14.542 240.5 13.7828C239.799 12.4616 237.065 11.5052 236.166 13.1715V13.1764Z" fill="white" stroke="white" stroke-width="0.657728" stroke-miterlimit="10"/>
<path d="M238.614 13.7236C238.861 13.6497 239.128 13.6694 239.36 13.7729" stroke="white" stroke-width="0.263091" stroke-linecap="round" stroke-linejoin="round"/>
<path d="M238.787 14.3596C239.054 14.2166 239.394 14.2265 239.656 14.3843" stroke="white" stroke-width="0.263091" stroke-linecap="round" stroke-linejoin="round"/>
<path d="M238.989 14.7934C239.206 14.749 239.443 14.8082 239.616 14.9413" stroke="white" stroke-width="0.263091" stroke-linecap="round" stroke-linejoin="round"/>
<path d="M238.812 15.5231C238.91 15.4442 239.068 15.459 239.157 15.5477" stroke="white" stroke-width="0.263091" stroke-linecap="round" stroke-linejoin="round"/>
<path d="M236.961 17.0811C237.054 17.1304 237.143 17.1747 237.237 17.2191" stroke="white" stroke-width="0.263091" stroke-linecap="round" stroke-linejoin="round"/>
<path d="M236.67 17.771C236.749 17.7267 236.862 17.7562 236.907 17.84" stroke="white" stroke-width="0.263091" stroke-linecap="round" stroke-linejoin="round"/>
<path d="M236.383 18.4268C236.477 18.4514 236.576 18.4711 236.67 18.4958" stroke="white" stroke-width="0.263091" stroke-linecap="round" stroke-linejoin="round"/>
<path d="M236.033 19.1516C236.127 19.1516 236.225 19.1516 236.319 19.1516" stroke="white" stroke-width="0.263091" stroke-linecap="round" stroke-linejoin="round"/>
<path d="M235.618 20.0093C235.697 20.0241 235.771 20.0339 235.85 20.0487" stroke="white" stroke-width="0.263091" stroke-linecap="round" stroke-linejoin="round"/>
<path d="M235.332 20.7834C235.411 20.7489 235.515 20.7686 235.569 20.8327" stroke="white" stroke-width="0.263091" stroke-linecap="round" stroke-linejoin="round"/>
<path d="M234.982 21.4834C235.056 21.508 235.135 21.5278 235.209 21.5524" stroke="white" stroke-width="0.263091" stroke-linecap="round" stroke-linejoin="round"/>
<path d="M234.567 22.3314C234.666 22.3215 234.759 22.3067 234.858 22.2969" stroke="white" stroke-width="0.263091" stroke-linecap="round" stroke-linejoin="round"/>
<path d="M234.162 23.2285C234.217 23.1792 234.315 23.2137 234.33 23.2828" stroke="white" stroke-width="0.263091" stroke-linecap="round" stroke-linejoin="round"/>
<path d="M233.802 23.9482C233.916 23.9384 234.029 23.9334 234.147 23.9236C234.113 23.9581 234.073 23.9877 234.039 24.0222" stroke="white" stroke-width="0.263091" stroke-linecap="round" stroke-linejoin="round"/>
<path d="M233.792 24.5745C233.812 24.5104 233.763 24.4364 233.698 24.4315C233.634 24.4216 233.57 24.4808 233.565 24.5449C233.605 24.4167 233.659 24.5794 233.792 24.5745Z" stroke="white" stroke-width="0.263091" stroke-linecap="round" stroke-linejoin="round"/>
<path d="M232.647 25.9104C232.756 25.802 232.963 25.8315 233.042 25.9646C233.022 26.0139 233.002 26.0682 232.983 26.1175" stroke="white" stroke-width="0.263091" stroke-linecap="round" stroke-linejoin="round"/>
<path d="M232.45 27.0195C232.543 27.0245 232.578 27.1871 232.489 27.2315" stroke="white" stroke-width="0.263091" stroke-linecap="round" stroke-linejoin="round"/>
<path d="M209.099 33.1129C207.346 25.1955 205.589 17.278 203.837 9.36057C203.363 7.22591 202.89 5.08632 202.208 3.0059C202.006 2.38966 201.774 1.75863 201.345 1.26563C200.915 0.777572 200.244 0.447267 199.607 0.595164C198.966 0.743062 198.507 1.35437 198.349 1.99526C198.191 2.63615 198.285 3.31155 198.408 3.95737C198.833 6.23993 199.588 8.4436 200.338 10.6374C201.128 12.9397 201.917 15.242 202.702 17.5492C204.094 21.6164 205.486 25.6786 206.878 29.7458C207.574 31.7769 208.269 33.813 208.965 35.8441C209.365 37.0125 209.533 38.9795 210.56 39.793C210.254 37.5647 209.587 35.3215 209.099 33.1228V33.1129ZM201.735 8.07386C201.389 8.30063 200.989 7.69918 200.831 7.47241C200.614 7.16182 200.442 6.84138 200.397 6.74771C200.012 5.99836 199.755 5.18492 199.632 4.35177C199.558 3.83412 199.405 3.01083 199.593 2.50797C200.19 0.90082 201.147 3.48903 201.305 3.9623C201.611 4.88913 201.789 5.86032 201.828 6.83645C201.838 7.09773 201.981 7.91117 201.73 8.07879L201.735 8.07386Z" fill="white" stroke="white" stroke-width="0.657728" stroke-linejoin="round"/>
<path d="M202.001 9.70074C202.287 9.63172 202.539 9.42959 202.663 9.15845" stroke="white" stroke-width="0.263091" stroke-linecap="round" stroke-linejoin="round"/>
<path d="M202.362 10.7114C202.559 10.5684 202.761 10.4254 202.959 10.2825" stroke="white" stroke-width="0.263091" stroke-linecap="round" stroke-linejoin="round"/>
<path d="M202.781 11.3571C202.983 11.2141 203.181 11.0711 203.383 10.9331" stroke="white" stroke-width="0.263091" stroke-linecap="round" stroke-linejoin="round"/>
<path d="M203.141 12.1756C203.319 12.0721 203.497 11.9636 203.674 11.8601" stroke="white" stroke-width="0.263091" stroke-linecap="round" stroke-linejoin="round"/>
<path d="M203.265 13.1024C203.423 13.0136 203.581 12.9249 203.739 12.8411" stroke="white" stroke-width="0.263091" stroke-linecap="round" stroke-linejoin="round"/>
<path d="M203.349 13.6988C203.536 13.7136 203.729 13.6545 203.872 13.5361" stroke="white" stroke-width="0.263091" stroke-linecap="round" stroke-linejoin="round"/>
<path d="M203.714 14.4482C203.852 14.3989 203.985 14.3496 204.124 14.2954" stroke="white" stroke-width="0.263091" stroke-linecap="round" stroke-linejoin="round"/>
<path d="M203.896 15.3801C203.995 15.3456 204.094 15.3111 204.188 15.2815" stroke="white" stroke-width="0.263091" stroke-linecap="round" stroke-linejoin="round"/>
<path d="M203.98 15.9617C204.099 15.9124 204.217 15.8581 204.336 15.8088" stroke="white" stroke-width="0.263091" stroke-linecap="round" stroke-linejoin="round"/>
<path d="M204.178 16.6717C204.276 16.6618 204.37 16.6519 204.469 16.6421" stroke="white" stroke-width="0.263091" stroke-linecap="round" stroke-linejoin="round"/>
<path d="M204.375 17.3027C204.444 17.3816 204.578 17.3865 204.662 17.3175" stroke="white" stroke-width="0.263091" stroke-linecap="round" stroke-linejoin="round"/>
<path d="M204.736 19.1614C204.874 19.1121 205.012 19.0628 205.145 19.0085" stroke="white" stroke-width="0.263091" stroke-linecap="round" stroke-linejoin="round"/>
<path d="M204.978 20.0388C205.096 19.9895 205.214 19.9353 205.333 19.886" stroke="white" stroke-width="0.263091" stroke-linecap="round" stroke-linejoin="round"/>
<path d="M205.111 20.793C205.209 20.7388 205.308 20.6895 205.407 20.6353" stroke="white" stroke-width="0.263091" stroke-linecap="round" stroke-linejoin="round"/>
<path d="M205.254 21.3747C205.372 21.3402 205.486 21.3106 205.604 21.2761" stroke="white" stroke-width="0.263091" stroke-linecap="round" stroke-linejoin="round"/>
<path d="M205.451 22.0749C205.55 22.0601 205.644 22.0453 205.742 22.0305" stroke="white" stroke-width="0.263091" stroke-linecap="round" stroke-linejoin="round"/>
<path d="M205.659 22.632C205.772 22.6122 205.886 22.5925 206.004 22.5679" stroke="white" stroke-width="0.263091" stroke-linecap="round" stroke-linejoin="round"/>
<path d="M205.905 23.2532C206.019 23.2581 206.137 23.263 206.251 23.268" stroke="white" stroke-width="0.263091" stroke-linecap="round" stroke-linejoin="round"/>
<path d="M206.039 24.0666C206.137 24.0518 206.231 24.037 206.33 24.0222" stroke="white" stroke-width="0.263091" stroke-linecap="round" stroke-linejoin="round"/>
<path d="M206.068 24.7172C206.152 24.6974 206.231 24.6728 206.315 24.6531C206.33 24.6925 206.345 24.727 206.364 24.7665" stroke="white" stroke-width="0.263091" stroke-linecap="round" stroke-linejoin="round"/>
<path d="M206.907 27.3943C206.986 27.3795 207.06 27.3598 207.139 27.345" stroke="white" stroke-width="0.263091" stroke-linecap="round" stroke-linejoin="round"/>
<path d="M196.416 43.3513C190.8 37.5784 184.862 32.116 178.643 26.9938C178.436 26.8262 178.011 28.5566 178.298 28.9904C178.786 29.7349 179.902 30.4053 180.568 30.992C182.261 32.471 183.978 33.9154 185.726 35.3303C189.19 38.1354 192.754 40.8075 196.416 43.3464V43.3513Z" fill="white" stroke="white" stroke-width="0.657728" stroke-linejoin="round"/>
<path d="M175.785 29.3207C176.323 29.8285 177.182 29.8926 177.873 29.6165C178.559 29.3404 179.097 28.7784 179.512 28.1622C179.931 27.5311 180.252 26.7522 180.02 26.0324C179.729 25.1253 178.614 24.6718 177.686 24.8788C176.072 25.2437 174.27 27.8861 175.79 29.3207H175.785Z" fill="white" stroke="white" stroke-width="0.657728" stroke-miterlimit="10"/>
<path d="M177.074 26.8705C177.069 26.5895 177.163 26.3085 177.34 26.0867" stroke="white" stroke-width="0.263091" stroke-linecap="round" stroke-linejoin="round"/>
<path d="M177.804 26.8657C177.73 26.5403 177.839 26.1804 178.076 25.9487" stroke="white" stroke-width="0.263091" stroke-linecap="round" stroke-linejoin="round"/>
<path d="M178.322 26.777C178.337 26.5305 178.465 26.2988 178.663 26.1509" stroke="white" stroke-width="0.263091" stroke-linecap="round" stroke-linejoin="round"/>
<path d="M179.053 27.1712C178.999 27.043 179.053 26.8754 179.181 26.8113" stroke="white" stroke-width="0.263091" stroke-linecap="round" stroke-linejoin="round"/>
<path d="M180.188 29.5918C180.262 29.5079 180.341 29.4241 180.415 29.3403" stroke="white" stroke-width="0.263091" stroke-linecap="round" stroke-linejoin="round"/>
<path d="M180.84 30.1045C180.815 30.0059 180.879 29.8925 180.978 29.8728" stroke="white" stroke-width="0.263091" stroke-linecap="round" stroke-linejoin="round"/>
<path d="M181.461 30.5975C181.511 30.5038 181.565 30.4052 181.614 30.3115" stroke="white" stroke-width="0.263091" stroke-linecap="round" stroke-linejoin="round"/>
<path d="M182.133 31.1792C182.157 31.0757 182.187 30.9771 182.212 30.8735" stroke="white" stroke-width="0.263091" stroke-linecap="round" stroke-linejoin="round"/>
<path d="M182.932 31.8695C182.967 31.7906 183.006 31.7117 183.041 31.6328" stroke="white" stroke-width="0.263091" stroke-linecap="round" stroke-linejoin="round"/>
<path d="M183.673 32.3971C183.658 32.3034 183.707 32.1999 183.796 32.1555" stroke="white" stroke-width="0.263091" stroke-linecap="round" stroke-linejoin="round"/>
<path d="M184.319 32.9689C184.364 32.895 184.413 32.821 184.457 32.7471" stroke="white" stroke-width="0.263091" stroke-linecap="round" stroke-linejoin="round"/>
<path d="M185.109 33.6542C185.124 33.5457 185.139 33.4422 185.158 33.3337" stroke="white" stroke-width="0.263091" stroke-linecap="round" stroke-linejoin="round"/>
<path d="M185.948 34.3444C185.909 34.2754 185.973 34.1768 186.052 34.1768" stroke="white" stroke-width="0.263091" stroke-linecap="round" stroke-linejoin="round"/>
<path d="M186.614 34.936C186.639 34.8127 186.664 34.6845 186.688 34.5613C186.713 34.6106 186.738 34.6599 186.762 34.7092" stroke="white" stroke-width="0.263091" stroke-linecap="round" stroke-linejoin="round"/>
<path d="M187.285 35.1232C187.221 35.0887 187.132 35.1183 187.103 35.1824C187.073 35.2465 187.118 35.3352 187.187 35.3549C187.063 35.276 187.251 35.2662 187.285 35.1232Z" stroke="white" stroke-width="0.263091" stroke-linecap="round" stroke-linejoin="round"/>
<path d="M188.376 36.7253C188.292 36.5774 188.386 36.3655 188.549 36.3162C188.598 36.3507 188.648 36.3852 188.697 36.4246" stroke="white" stroke-width="0.263091" stroke-linecap="round" stroke-linejoin="round"/>
<path d="M189.507 37.2579C189.541 37.1593 189.724 37.1691 189.744 37.2776" stroke="white" stroke-width="0.263091" stroke-linecap="round" stroke-linejoin="round"/>
<path d="M243.692 42.2852C250.237 39.0758 256.609 35.5016 262.758 31.5872C262.961 31.4591 261.594 30.6062 261.135 30.7294C260.355 30.9414 259.466 31.7105 258.775 32.1246C257.028 33.1648 255.301 34.2395 253.593 35.3438C250.207 37.5327 246.905 39.8547 243.692 42.2901V42.2852Z" fill="white" stroke="white" stroke-width="0.657728" stroke-linejoin="round"/>
<path d="M261.549 28.4813C260.962 28.8017 260.666 29.5215 260.71 30.192C260.755 30.8624 261.09 31.4787 261.505 32.0062C261.929 32.5435 262.517 33.0365 263.198 33.0415C264.061 33.0415 264.762 32.2132 264.841 31.3554C264.979 29.8666 263.208 27.5742 261.544 28.4813H261.549Z" fill="white" stroke="white" stroke-width="0.657728" stroke-miterlimit="10"/>
<path d="M263.301 30.2759C263.543 30.3498 263.76 30.5125 263.898 30.7245" stroke="white" stroke-width="0.263091" stroke-linecap="round" stroke-linejoin="round"/>
<path d="M263.099 30.9019C263.4 30.9265 263.682 31.1237 263.815 31.3948" stroke="white" stroke-width="0.263091" stroke-linecap="round" stroke-linejoin="round"/>
<path d="M263.03 31.3752C263.237 31.4591 263.4 31.6316 263.474 31.8436" stroke="white" stroke-width="0.263091" stroke-linecap="round" stroke-linejoin="round"/>
<path d="M262.487 31.8879C262.615 31.8781 262.739 31.9717 262.763 32.0999" stroke="white" stroke-width="0.263091" stroke-linecap="round" stroke-linejoin="round"/>
<path d="M260.083 32.1887C260.133 32.2775 260.187 32.3662 260.236 32.4549" stroke="white" stroke-width="0.263091" stroke-linecap="round" stroke-linejoin="round"/>
<path d="M259.461 32.6028C259.555 32.6028 259.629 32.6965 259.624 32.7901" stroke="white" stroke-width="0.263091" stroke-linecap="round" stroke-linejoin="round"/>
<path d="M258.864 33.002C258.933 33.071 258.998 33.1449 259.067 33.2139" stroke="white" stroke-width="0.263091" stroke-linecap="round" stroke-linejoin="round"/>
<path d="M258.173 33.4163C258.252 33.4656 258.336 33.5198 258.415 33.5691" stroke="white" stroke-width="0.263091" stroke-linecap="round" stroke-linejoin="round"/>
<path d="M257.354 33.9092C257.413 33.9634 257.468 34.0176 257.527 34.0669" stroke="white" stroke-width="0.263091" stroke-linecap="round" stroke-linejoin="round"/>
<path d="M256.693 34.3972C256.777 34.412 256.851 34.481 256.865 34.5698" stroke="white" stroke-width="0.263091" stroke-linecap="round" stroke-linejoin="round"/>
<path d="M256.021 34.7966C256.071 34.8558 256.125 34.9199 256.174 34.979" stroke="white" stroke-width="0.263091" stroke-linecap="round" stroke-linejoin="round"/>
<path d="M255.207 35.2795C255.296 35.3239 255.38 35.3683 255.469 35.4077" stroke="white" stroke-width="0.263091" stroke-linecap="round" stroke-linejoin="round"/>
<path d="M254.378 35.8071C254.447 35.7923 254.516 35.8762 254.491 35.9452" stroke="white" stroke-width="0.263091" stroke-linecap="round" stroke-linejoin="round"/>
<path d="M253.682 36.2163C253.781 36.2705 253.884 36.3297 253.983 36.3839C253.934 36.3938 253.884 36.3987 253.835 36.4086" stroke="white" stroke-width="0.263091" stroke-linecap="round" stroke-linejoin="round"/>
<path d="M253.331 36.7389C253.381 36.6946 253.381 36.6108 253.331 36.5664C253.282 36.522 253.193 36.5368 253.159 36.591C253.262 36.5072 253.218 36.6699 253.331 36.7389Z" stroke="white" stroke-width="0.263091" stroke-linecap="round" stroke-linejoin="round"/>
<path d="M251.644 37.2318C251.792 37.2022 251.954 37.3403 251.945 37.4931C251.9 37.5276 251.856 37.5572 251.811 37.5917" stroke="white" stroke-width="0.263091" stroke-linecap="round" stroke-linejoin="round"/>
<path d="M250.873 38.0552C250.952 38.1143 250.888 38.2622 250.794 38.2524" stroke="white" stroke-width="0.263091" stroke-linecap="round" stroke-linejoin="round"/>
<path d="M221.144 41.2134C221.144 42.3762 219.701 44.6646 219.701 44.6646C219.701 44.6646 218.259 42.3747 218.259 41.2134C218.259 40.0521 218.904 39.4736 219.701 39.4736C220.498 39.4736 221.144 40.0506 221.144 41.2134Z" fill="#E92B66" stroke="#E92B66" stroke-width="1.31546" stroke-linecap="round" stroke-linejoin="round"/>
<path d="M221.144 20.1707C221.144 21.3335 219.701 23.6219 219.701 23.6219C219.701 23.6219 218.259 21.332 218.259 20.1707C218.259 19.0093 218.904 18.4309 219.701 18.4309C220.498 18.4309 221.144 19.0079 221.144 20.1707Z" fill="#E92B66" stroke="#E92B66" stroke-width="1.31546" stroke-linecap="round" stroke-linejoin="round"/>
</svg>
