<svg width="45" height="46" viewBox="0 0 45 46" fill="none" xmlns="http://www.w3.org/2000/svg">
<rect y="0.55954" width="45" height="45" rx="22.5" fill="#E92B66"/>
<path d="M22.5 33.8095C16.57 33.8095 11.75 28.9895 11.75 23.0595C11.75 17.1295 16.57 12.3095 22.5 12.3095C28.43 12.3095 33.25 17.1295 33.25 23.0595C33.25 28.9895 28.43 33.8095 22.5 33.8095ZM22.5 13.8095C17.4 13.8095 13.25 17.9595 13.25 23.0595C13.25 28.1595 17.4 32.3095 22.5 32.3095C27.6 32.3095 31.75 28.1595 31.75 23.0595C31.75 17.9595 27.6 13.8095 22.5 13.8095Z" fill="white"/>
<path d="M26.2096 26.9895C26.0796 26.9895 25.9496 26.9595 25.8296 26.8795L22.7296 25.0295C21.9596 24.5695 21.3896 23.5595 21.3896 22.6695V18.5695C21.3896 18.1595 21.7296 17.8195 22.1396 17.8195C22.5496 17.8195 22.8896 18.1595 22.8896 18.5695V22.6695C22.8896 23.0295 23.1896 23.5595 23.4996 23.7395L26.5996 25.5895C26.9596 25.7995 27.0696 26.2596 26.8596 26.6195C26.7096 26.8595 26.4596 26.9895 26.2096 26.9895Z" fill="white"/>
</svg>
