<svg width="45" height="46" viewBox="0 0 45 46" fill="none" xmlns="http://www.w3.org/2000/svg">
<rect y="0.55957" width="45" height="45" rx="22.5" fill="#E92B66"/>
<path d="M22.4999 25.2296C20.3699 25.2296 18.6299 23.4996 18.6299 21.3596C18.6299 19.2196 20.3699 17.4996 22.4999 17.4996C24.6299 17.4996 26.3699 19.2296 26.3699 21.3696C26.3699 23.5096 24.6299 25.2296 22.4999 25.2296ZM22.4999 18.9996C21.1999 18.9996 20.1299 20.0596 20.1299 21.3696C20.1299 22.6796 21.1899 23.7396 22.4999 23.7396C23.8099 23.7396 24.8699 22.6796 24.8699 21.3696C24.8699 20.0596 23.7999 18.9996 22.4999 18.9996Z" fill="white"/>
<path d="M22.4997 33.8196C21.0197 33.8196 19.5297 33.2596 18.3697 32.1496C15.4197 29.3096 12.1597 24.7796 13.3897 19.3896C14.4997 14.4996 18.7697 12.3096 22.4997 12.3096C22.4997 12.3096 22.4997 12.3096 22.5097 12.3096C26.2397 12.3096 30.5097 14.4996 31.6197 19.3996C32.8397 24.7896 29.5797 29.3096 26.6297 32.1496C25.4697 33.2596 23.9797 33.8196 22.4997 33.8196ZM22.4997 13.8096C19.5897 13.8096 15.8497 15.3596 14.8597 19.7196C13.7797 24.4296 16.7397 28.4896 19.4197 31.0596C21.1497 32.7296 23.8597 32.7296 25.5897 31.0596C28.2597 28.4896 31.2197 24.4296 30.1597 19.7196C29.1597 15.3596 25.4097 13.8096 22.4997 13.8096Z" fill="white"/>
</svg>
