<svg width="45" height="46" viewBox="0 0 45 46" fill="none" xmlns="http://www.w3.org/2000/svg">
<rect y="0.55957" width="45" height="45" rx="22.5" fill="#E92B66"/>
<path d="M22.5006 24.1395C22.3706 24.1395 22.2406 24.1095 22.1206 24.0395L16.8206 20.9795C16.4606 20.7695 16.3406 20.3095 16.5506 19.9595C16.7606 19.5995 17.2106 19.4795 17.5806 19.6895L22.5006 22.5395L27.3906 19.7095C27.7506 19.4995 28.2106 19.6295 28.4206 19.9795C28.6306 20.3395 28.5006 20.7995 28.1506 20.9995L22.8906 24.0395C22.7606 24.0995 22.6306 24.1395 22.5006 24.1395Z" fill="white"/>
<path d="M22.5 29.5795C22.09 29.5795 21.75 29.2395 21.75 28.8295V23.3895C21.75 22.9795 22.09 22.6395 22.5 22.6395C22.91 22.6395 23.25 22.9795 23.25 23.3895V28.8295C23.25 29.2395 22.91 29.5795 22.5 29.5795Z" fill="white"/>
<path d="M22.5002 29.8096C21.9202 29.8096 21.3503 29.6796 20.8903 29.4296L17.6902 27.6496C16.7302 27.1196 15.9902 25.8496 15.9902 24.7496V21.3596C15.9902 20.2696 16.7402 18.9896 17.6902 18.4596L20.8903 16.6796C21.8103 16.1696 23.1902 16.1696 24.1102 16.6796L27.3102 18.4596C28.2702 18.9896 29.0103 20.2596 29.0103 21.3596V24.7496C29.0103 25.8396 28.2602 27.1196 27.3102 27.6496L24.1102 29.4296C23.6502 29.6796 23.0802 29.8096 22.5002 29.8096ZM22.5002 17.8096C22.1702 17.8096 21.8502 17.8696 21.6202 17.9996L18.4203 19.7796C17.9303 20.0496 17.4902 20.8096 17.4902 21.3596V24.7496C17.4902 25.3096 17.9303 26.0596 18.4203 26.3296L21.6202 28.1096C22.0802 28.3696 22.9202 28.3696 23.3802 28.1096L26.5802 26.3296C27.0702 26.0596 27.5103 25.2996 27.5103 24.7496V21.3596C27.5103 20.7996 27.0702 20.0496 26.5802 19.7796L23.3802 17.9996C23.1502 17.8696 22.8302 17.8096 22.5002 17.8096Z" fill="white"/>
<path d="M25.5002 33.8096C25.2302 33.8096 24.9802 33.6596 24.8502 33.4296C24.7202 33.1896 24.7202 32.9096 24.8602 32.6696L25.9102 30.9196C26.1202 30.5696 26.5802 30.4496 26.9402 30.6596C27.3002 30.8696 27.4102 31.3296 27.2002 31.6896L26.9302 32.1396C29.6902 31.4896 31.7602 29.0096 31.7602 26.0496C31.7602 25.6396 32.1002 25.2996 32.5102 25.2996C32.9202 25.2996 33.2602 25.6396 33.2602 26.0496C33.2502 30.3296 29.7702 33.8096 25.5002 33.8096Z" fill="white"/>
<path d="M12.5 20.8096C12.09 20.8096 11.75 20.4696 11.75 20.0596C11.75 15.7896 15.23 12.3096 19.5 12.3096C19.77 12.3096 20.02 12.4596 20.15 12.6896C20.28 12.9296 20.28 13.2096 20.14 13.4496L19.09 15.1996C18.88 15.5496 18.42 15.6696 18.06 15.4596C17.7 15.2496 17.59 14.7896 17.8 14.4296L18.07 13.9796C15.31 14.6296 13.24 17.1096 13.24 20.0696C13.25 20.4696 12.91 20.8096 12.5 20.8096Z" fill="white"/>
</svg>
