<svg width="45" height="46" viewBox="0 0 45 46" fill="none" xmlns="http://www.w3.org/2000/svg">
<rect y="0.55957" width="45" height="45" rx="22.5" fill="#E92B66"/>
<path d="M25.1998 33.8095H19.7998C14.8598 33.8095 12.7598 31.6995 12.7598 26.7695V22.2795C12.7598 21.8695 13.0998 21.5295 13.5098 21.5295C13.9198 21.5295 14.2598 21.8695 14.2598 22.2795V26.7695C14.2598 30.8595 15.7098 32.3095 19.7998 32.3095H25.1898C29.2798 32.3095 30.7298 30.8595 30.7298 26.7695V22.2795C30.7298 21.8695 31.0698 21.5295 31.4798 21.5295C31.8898 21.5295 32.2298 21.8695 32.2298 22.2795V26.7695C32.2398 31.6995 30.1298 33.8095 25.1998 33.8095Z" fill="white"/>
<path d="M22.5 23.8096C21.4 23.8096 20.4 23.3796 19.69 22.5896C18.98 21.7996 18.65 20.7696 18.76 19.6696L19.43 12.9896C19.47 12.6096 19.79 12.3096 20.18 12.3096H24.85C25.24 12.3096 25.56 12.5996 25.6 12.9896L26.27 19.6696C26.38 20.7696 26.05 21.7996 25.34 22.5896C24.6 23.3796 23.6 23.8096 22.5 23.8096ZM20.85 13.8096L20.25 19.8196C20.18 20.4896 20.38 21.1196 20.8 21.5796C21.65 22.5196 23.35 22.5196 24.2 21.5796C24.62 21.1096 24.82 20.4796 24.75 19.8196L24.15 13.8096H20.85Z" fill="white"/>
<path d="M28.81 23.8096C26.78 23.8096 24.97 22.1696 24.76 20.1496L24.06 13.1396C24.04 12.9296 24.11 12.7196 24.25 12.5596C24.39 12.3996 24.59 12.3096 24.81 12.3096H27.86C30.8 12.3096 32.17 13.5396 32.58 16.5596L32.86 19.3396C32.98 20.5196 32.62 21.6396 31.85 22.4896C31.08 23.3396 30 23.8096 28.81 23.8096ZM25.64 13.8096L26.26 19.9996C26.39 21.2496 27.55 22.3096 28.81 22.3096C29.57 22.3096 30.25 22.0196 30.74 21.4896C31.22 20.9596 31.44 20.2496 31.37 19.4896L31.09 16.7396C30.78 14.4796 30.05 13.8096 27.86 13.8096H25.64Z" fill="white"/>
<path d="M16.14 23.8096C14.95 23.8096 13.87 23.3396 13.1 22.4896C12.33 21.6396 11.97 20.5196 12.09 19.3396L12.36 16.5896C12.78 13.5396 14.15 12.3096 17.09 12.3096H20.14C20.35 12.3096 20.55 12.3996 20.7 12.5596C20.85 12.7196 20.91 12.9296 20.89 13.1396L20.19 20.1496C19.98 22.1696 18.17 23.8096 16.14 23.8096ZM17.09 13.8096C14.9 13.8096 14.17 14.4696 13.85 16.7596L13.58 19.4896C13.5 20.2496 13.73 20.9596 14.21 21.4896C14.69 22.0196 15.37 22.3096 16.14 22.3096C17.4 22.3096 18.57 21.2496 18.69 19.9996L19.31 13.8096H17.09Z" fill="white"/>
<path d="M25 33.8096H20C19.59 33.8096 19.25 33.4696 19.25 33.0596V30.5596C19.25 28.4596 20.4 27.3096 22.5 27.3096C24.6 27.3096 25.75 28.4596 25.75 30.5596V33.0596C25.75 33.4696 25.41 33.8096 25 33.8096ZM20.75 32.3096H24.25V30.5596C24.25 29.2996 23.76 28.8096 22.5 28.8096C21.24 28.8096 20.75 29.2996 20.75 30.5596V32.3096Z" fill="white"/>
</svg>
