<svg width="45" height="46" viewBox="0 0 45 46" fill="none" xmlns="http://www.w3.org/2000/svg">
<rect y="0.55954" width="45" height="45" rx="22.5" fill="#E92B66"/>
<path d="M27.95 33.8095C26.82 33.8095 25.63 33.5395 24.4 33.0195C23.2 32.5095 21.99 31.8095 20.81 30.9595C19.63 30.0995 18.5 29.1295 17.44 28.0795C16.38 27.0095 15.42 25.8795 14.57 24.7195C13.71 23.5195 13.02 22.3295 12.53 21.1595C12.01 19.9295 11.75 18.7295 11.75 17.5995C11.75 16.8195 11.89 16.0795 12.16 15.3895C12.45 14.6695 12.89 14.0195 13.5 13.4495C14.27 12.6995 15.15 12.3095 16.09 12.3095C16.48 12.3095 16.88 12.3995 17.22 12.5595C17.61 12.7395 17.94 13.0095 18.18 13.3695L20.5 16.6395C20.71 16.9295 20.87 17.2095 20.98 17.4895C21.11 17.7895 21.18 18.0895 21.18 18.3795C21.18 18.7595 21.07 19.1295 20.86 19.4795C20.71 19.7495 20.48 20.0395 20.19 20.3295L19.51 21.0395C19.52 21.0695 19.53 21.0895 19.54 21.1095C19.66 21.3195 19.9 21.6795 20.36 22.2195C20.84 22.7795 21.31 23.2795 21.77 23.7595C22.37 24.3495 22.85 24.7995 23.31 25.1795C23.88 25.6595 24.25 25.8995 24.47 26.0095L24.45 26.0595L25.18 25.3395C25.49 25.0295 25.79 24.7995 26.08 24.6495C26.63 24.3095 27.33 24.2495 28.03 24.5395C28.29 24.6495 28.57 24.7995 28.87 25.0095L32.19 27.3695C32.55 27.6195 32.83 27.9395 32.99 28.3195C33.14 28.6995 33.21 29.0495 33.21 29.3995C33.21 29.8795 33.1 30.3595 32.89 30.8095C32.68 31.2595 32.42 31.6495 32.09 32.0095C31.52 32.6395 30.9 33.0895 30.18 33.3795C29.49 33.6595 28.74 33.8095 27.95 33.8095ZM16.09 13.8095C15.54 13.8095 15.03 14.0495 14.54 14.5295C14.09 14.9595 13.76 15.4295 13.56 15.9395C13.35 16.4595 13.25 17.0095 13.25 17.5995C13.25 18.5295 13.47 19.5395 13.91 20.5795C14.36 21.6395 14.99 22.7395 15.79 23.8395C16.59 24.9395 17.5 26.0095 18.5 27.0195C19.5 28.0095 20.58 28.9295 21.69 29.7395C22.77 30.5295 23.88 31.1695 24.98 31.6295C26.69 32.3595 28.29 32.5295 29.61 31.9795C30.12 31.7695 30.57 31.4495 30.98 30.9895C31.21 30.7395 31.39 30.4695 31.54 30.1495C31.66 29.8995 31.72 29.6395 31.72 29.3795C31.72 29.2195 31.69 29.0595 31.61 28.8795C31.59 28.8295 31.52 28.7095 31.33 28.5795L28.01 26.2195C27.81 26.0795 27.63 25.9795 27.46 25.9095C27.2 25.8095 27.03 25.7995 26.81 25.9395C26.61 26.0395 26.43 26.1895 26.23 26.3895L25.47 27.1395C25.08 27.5195 24.48 27.6095 24.02 27.4395L23.75 27.3195C23.34 27.0995 22.86 26.7595 22.33 26.3095C21.84 25.8995 21.34 25.4295 20.7 24.7995C20.2 24.2895 19.72 23.7595 19.21 23.1795C18.74 22.6295 18.4 22.1595 18.19 21.7695L18.06 21.4695C18 21.2495 17.98 21.1195 17.98 20.9795C17.98 20.6195 18.11 20.2995 18.36 20.0495L19.11 19.2695C19.31 19.0695 19.46 18.8795 19.56 18.7095C19.64 18.5795 19.67 18.4695 19.67 18.3695C19.67 18.2895 19.64 18.1695 19.59 18.0495C19.53 17.8795 19.42 17.7095 19.28 17.5095L16.96 14.2295C16.86 14.0895 16.74 13.9895 16.59 13.9195C16.43 13.8495 16.26 13.8095 16.09 13.8095ZM24.45 26.0695L24.29 26.7495L24.56 26.0495C24.52 26.0395 24.48 26.0495 24.45 26.0695Z" fill="white"/>
<path d="M27.5004 19.7796C27.3104 19.7796 27.1204 19.7096 26.9704 19.5596L24.9704 17.5596C24.6804 17.2696 24.6804 16.7896 24.9704 16.4996C25.2604 16.2096 25.7404 16.2096 26.0304 16.4996L27.5004 17.9696L30.9704 14.5096C31.2604 14.2196 31.7404 14.2196 32.0304 14.5096C32.3204 14.7996 32.3204 15.2796 32.0304 15.5696L28.0304 19.5696C27.8804 19.6996 27.6904 19.7796 27.5004 19.7796Z" fill="white"/>
</svg>
