<svg width="45" height="46" viewBox="0 0 45 46" fill="none" xmlns="http://www.w3.org/2000/svg">
<rect y="0.55957" width="45" height="45" rx="22.5" fill="#E92B66"/>
<path d="M27.95 33.8096C26.82 33.8096 25.63 33.5396 24.4 33.0196C23.2 32.5096 21.99 31.8096 20.81 30.9596C19.64 30.0996 18.51 29.1396 17.44 28.0896C16.38 27.0196 15.42 25.8896 14.57 24.7296C13.71 23.5296 13.02 22.3296 12.53 21.1696C12.01 19.9296 11.75 18.7296 11.75 17.5996C11.75 16.8196 11.89 16.0796 12.16 15.3896C12.44 14.6796 12.89 14.0196 13.5 13.4496C14.27 12.6896 15.15 12.3096 16.09 12.3096C16.48 12.3096 16.88 12.3996 17.22 12.5596C17.61 12.7396 17.94 13.0096 18.18 13.3696L20.5 16.6396C20.71 16.9296 20.87 17.2096 20.98 17.4896C21.11 17.7896 21.18 18.0896 21.18 18.3796C21.18 18.7596 21.07 19.1296 20.86 19.4796C20.71 19.7496 20.48 20.0396 20.19 20.3296L19.51 21.0396C19.52 21.0696 19.53 21.0896 19.54 21.1096C19.66 21.3196 19.9 21.6796 20.36 22.2196C20.85 22.7796 21.31 23.2896 21.77 23.7596C22.36 24.3396 22.85 24.7996 23.31 25.1796C23.88 25.6596 24.25 25.8996 24.47 26.0096L24.45 26.0596L25.18 25.3396C25.49 25.0296 25.79 24.7996 26.08 24.6496C26.63 24.3096 27.33 24.2496 28.03 24.5396C28.29 24.6496 28.57 24.7996 28.87 25.0096L32.19 27.3696C32.56 27.6196 32.83 27.9396 32.99 28.3196C33.14 28.6996 33.21 29.0496 33.21 29.3996C33.21 29.8796 33.1 30.3596 32.89 30.8096C32.68 31.2596 32.42 31.6496 32.09 32.0096C31.52 32.6396 30.9 33.0896 30.18 33.3796C29.49 33.6596 28.74 33.8096 27.95 33.8096ZM16.09 13.8096C15.54 13.8096 15.03 14.0496 14.54 14.5296C14.08 14.9596 13.76 15.4296 13.56 15.9396C13.35 16.4596 13.25 17.0096 13.25 17.5996C13.25 18.5296 13.47 19.5396 13.91 20.5796C14.36 21.6396 14.99 22.7396 15.79 23.8396C16.59 24.9396 17.5 26.0096 18.5 27.0196C19.5 28.0096 20.58 28.9296 21.69 29.7396C22.77 30.5296 23.88 31.1696 24.98 31.6296C26.69 32.3596 28.29 32.5296 29.61 31.9796C30.12 31.7696 30.57 31.4496 30.98 30.9896C31.21 30.7396 31.39 30.4696 31.54 30.1496C31.66 29.8996 31.72 29.6396 31.72 29.3796C31.72 29.2196 31.69 29.0596 31.61 28.8796C31.58 28.8196 31.52 28.7096 31.33 28.5796L28.01 26.2196C27.81 26.0796 27.63 25.9796 27.46 25.9096C27.24 25.8196 27.15 25.7296 26.81 25.9396C26.61 26.0396 26.43 26.1896 26.23 26.3896L25.47 27.1396C25.08 27.5196 24.48 27.6096 24.02 27.4396L23.75 27.3196C23.34 27.0996 22.86 26.7596 22.33 26.3096C21.85 25.8996 21.33 25.4196 20.7 24.7996C20.21 24.2996 19.72 23.7696 19.21 23.1796C18.74 22.6296 18.4 22.1596 18.19 21.7696L18.07 21.4696C18.01 21.2396 17.99 21.1096 17.99 20.9696C17.99 20.6096 18.12 20.2896 18.37 20.0396L19.12 19.2596C19.32 19.0596 19.47 18.8696 19.57 18.6996C19.65 18.5696 19.68 18.4596 19.68 18.3596C19.68 18.2796 19.65 18.1596 19.6 18.0396C19.53 17.8796 19.42 17.6996 19.28 17.5096L16.96 14.2296C16.86 14.0896 16.74 13.9896 16.59 13.9196C16.43 13.8496 16.26 13.8096 16.09 13.8096ZM24.45 26.0696L24.29 26.7496L24.56 26.0496C24.51 26.0396 24.47 26.0496 24.45 26.0696Z" fill="white"/>
</svg>
