<svg width="45" height="46" viewBox="0 0 45 46" fill="none" xmlns="http://www.w3.org/2000/svg">
<rect y="0.55954" width="45" height="45" rx="22.5" fill="#E92B66"/>
<path d="M22.5 30.8096C19.88 30.8096 17.75 28.6796 17.75 26.0596C17.75 23.4396 19.88 21.3096 22.5 21.3096C25.12 21.3096 27.25 23.4396 27.25 26.0596C27.25 28.6796 25.12 30.8096 22.5 30.8096ZM22.5 22.8096C20.71 22.8096 19.25 24.2696 19.25 26.0596C19.25 27.8496 20.71 29.3096 22.5 29.3096C24.29 29.3096 25.75 27.8496 25.75 26.0596C25.75 24.2696 24.29 22.8096 22.5 22.8096Z" fill="white"/>
<path d="M21.4999 27.8095C21.2499 27.8095 20.9999 27.6795 20.8599 27.4495C20.6499 27.0895 20.7599 26.6295 21.1199 26.4195L21.8799 25.9595C21.9599 25.9095 21.9999 25.8295 21.9999 25.7495V24.8195C21.9999 24.4095 22.3399 24.0695 22.7499 24.0695C23.1599 24.0695 23.4999 24.3995 23.4999 24.8095V25.7395C23.4999 26.3495 23.1699 26.9295 22.6499 27.2395L21.8799 27.6995C21.7699 27.7795 21.6299 27.8095 21.4999 27.8095Z" fill="white"/>
<path d="M25.4998 33.8096H19.4998C14.8798 33.8096 14.0198 31.6596 13.7998 29.5696L13.0498 23.5796C12.9398 22.4996 12.8998 20.9496 13.9498 19.7896C14.8498 18.7896 16.3398 18.3096 18.4998 18.3096H26.4998C28.6698 18.3096 30.1598 18.7996 31.0498 19.7896C32.0898 20.9496 32.0598 22.4996 31.9498 23.5596L31.1998 29.5696C30.9798 31.6596 30.1198 33.8096 25.4998 33.8096ZM18.4998 19.8096C16.8098 19.8096 15.6498 20.1396 15.0598 20.7996C14.5698 21.3396 14.4098 22.1696 14.5398 23.4096L15.2898 29.3996C15.4598 30.9996 15.8998 32.3196 19.4998 32.3196H25.4998C29.0998 32.3196 29.5398 31.0096 29.7098 29.4196L30.4598 23.4096C30.5898 22.1896 30.4298 21.3596 29.9398 20.8096C29.3498 20.1396 28.1898 19.8096 26.4998 19.8096H18.4998Z" fill="white"/>
<path d="M27 19.6895C26.59 19.6895 26.25 19.3495 26.25 18.9395V17.5595C26.25 16.5095 25.8 15.4895 25.02 14.7795C24.23 14.0595 23.2 13.7295 22.13 13.8295C20.33 13.9995 18.75 15.8395 18.75 17.7595V18.7295C18.75 19.1395 18.41 19.4795 18 19.4795C17.59 19.4795 17.25 19.1395 17.25 18.7295V17.7495C17.25 15.0595 19.42 12.5795 21.99 12.3295C23.49 12.1895 24.93 12.6595 26.03 13.6695C27.12 14.6595 27.75 16.0795 27.75 17.5595V18.9395C27.75 19.3495 27.41 19.6895 27 19.6895Z" fill="white"/>
</svg>
