<svg width="45" height="46" viewBox="0 0 45 46" fill="none" xmlns="http://www.w3.org/2000/svg">
<rect y="0.55957" width="45" height="45" rx="22.5" fill="#E92B66"/>
<path d="M22.5 33.8096C17.26 33.8096 13 29.5496 13 24.3096C13 19.0696 17.26 14.8096 22.5 14.8096C27.74 14.8096 32 19.0696 32 24.3096C32 29.5496 27.74 33.8096 22.5 33.8096ZM22.5 16.3096C18.09 16.3096 14.5 19.8996 14.5 24.3096C14.5 28.7196 18.09 32.3096 22.5 32.3096C26.91 32.3096 30.5 28.7196 30.5 24.3096C30.5 19.8996 26.91 16.3096 22.5 16.3096Z" fill="white"/>
<path d="M22.5 24.8096C22.09 24.8096 21.75 24.4696 21.75 24.0596V19.0596C21.75 18.6496 22.09 18.3096 22.5 18.3096C22.91 18.3096 23.25 18.6496 23.25 19.0596V24.0596C23.25 24.4696 22.91 24.8096 22.5 24.8096Z" fill="white"/>
<path d="M25.5 13.8096H19.5C19.09 13.8096 18.75 13.4696 18.75 13.0596C18.75 12.6496 19.09 12.3096 19.5 12.3096H25.5C25.91 12.3096 26.25 12.6496 26.25 13.0596C26.25 13.4696 25.91 13.8096 25.5 13.8096Z" fill="white"/>
</svg>
