<svg width="45" height="46" viewBox="0 0 45 46" fill="none" xmlns="http://www.w3.org/2000/svg">
<rect y="0.55954" width="45" height="45" rx="22.5" fill="#E92B66"/>
<path d="M27.5 32.3095H17.5C13.85 32.3095 11.75 30.2095 11.75 26.5595V19.5595C11.75 15.9095 13.85 13.8095 17.5 13.8095H27.5C31.15 13.8095 33.25 15.9095 33.25 19.5595V26.5595C33.25 30.2095 31.15 32.3095 27.5 32.3095ZM17.5 15.3095C14.64 15.3095 13.25 16.6995 13.25 19.5595V26.5595C13.25 29.4195 14.64 30.8095 17.5 30.8095H27.5C30.36 30.8095 31.75 29.4195 31.75 26.5595V19.5595C31.75 16.6995 30.36 15.3095 27.5 15.3095H17.5Z" fill="white"/>
<path d="M22.4998 23.9295C21.6598 23.9295 20.8098 23.6695 20.1598 23.1395L17.0298 20.6395C16.7098 20.3795 16.6498 19.9095 16.9098 19.5895C17.1698 19.2695 17.6398 19.2095 17.9598 19.4695L21.0898 21.9695C21.8498 22.5795 23.1398 22.5795 23.8998 21.9695L27.0298 19.4695C27.3498 19.2095 27.8298 19.2595 28.0798 19.5895C28.3398 19.9095 28.2898 20.3895 27.9598 20.6395L24.8298 23.1395C24.1898 23.6695 23.3398 23.9295 22.4998 23.9295Z" fill="white"/>
</svg>
