<svg width="45" height="46" viewBox="0 0 45 46" fill="none" xmlns="http://www.w3.org/2000/svg">
<rect y="0.0595703" width="45" height="45" rx="22.5" fill="#E92B66"/>
<path d="M22.5 33.3096C16.57 33.3096 11.75 28.4896 11.75 22.5596C11.75 16.6296 16.57 11.8096 22.5 11.8096C28.43 11.8096 33.25 16.6296 33.25 22.5596C33.25 28.4896 28.43 33.3096 22.5 33.3096ZM22.5 13.3096C17.4 13.3096 13.25 17.4596 13.25 22.5596C13.25 27.6596 17.4 31.8096 22.5 31.8096C27.6 31.8096 31.75 27.6596 31.75 22.5596C31.75 17.4596 27.6 13.3096 22.5 13.3096Z" fill="white"/>
<path d="M26.2096 26.4896C26.0796 26.4896 25.9496 26.4596 25.8296 26.3796L22.7296 24.5296C21.9596 24.0696 21.3896 23.0596 21.3896 22.1696V18.0696C21.3896 17.6596 21.7296 17.3196 22.1396 17.3196C22.5496 17.3196 22.8896 17.6596 22.8896 18.0696V22.1696C22.8896 22.5296 23.1896 23.0596 23.4996 23.2396L26.5996 25.0896C26.9596 25.2996 27.0696 25.7596 26.8596 26.1196C26.7096 26.3596 26.4596 26.4896 26.2096 26.4896Z" fill="white"/>
</svg>
