<svg width="88" height="21" viewBox="0 0 88 21" fill="none" xmlns="http://www.w3.org/2000/svg">
<g clip-path="url(#clip0_247_25498)">
<path fill-rule="evenodd" clip-rule="evenodd" d="M87.8158 6.43007L87.6773 6.78835C87.5416 7.14663 87.4453 7.35699 87.315 7.64605C87.2322 7.8252 87.1372 8.03555 87.0055 8.33955L84.218 15.284C83.7308 16.5203 82.7591 17.2287 81.5594 17.2287C81.1441 17.2287 80.6542 17.1025 80.3787 16.9885L80.129 16.8827L80.2416 16.6302C80.6298 15.7983 80.8795 15.5296 81.6883 15.4631C81.995 15.4387 82.3289 15.0763 82.5637 14.5145L82.6817 14.2268L80.1575 8.33683C80.0231 8.02198 79.9227 7.7777 79.8209 7.53206C79.7232 7.3027 79.6282 7.07742 79.5074 6.79785L79.3486 6.42871H80.5918C81.311 6.42871 81.6286 6.65128 81.9041 7.35563C81.9041 7.35563 83.2924 10.819 83.3969 11.0714C83.4974 11.3266 83.6195 11.9359 83.6195 11.9359L83.6833 11.9319C83.6833 11.9319 83.7729 11.3877 83.8801 11.0701C83.99 10.7552 85.2264 7.36513 85.2264 7.36513C85.4856 6.67028 85.8384 6.42871 86.5699 6.42871H87.8158V6.43007Z" fill="#E51A4B"/>
<path fill-rule="evenodd" clip-rule="evenodd" d="M72.2791 6.3378C71.435 6.3378 70.3927 7.06793 70.1633 8.00164V7.4425C70.1633 6.9485 69.8688 6.42873 68.9406 6.42873H68.2471V14.5213H70.2122V11.1624C70.2122 10.663 70.2638 10.2436 70.3778 9.87583C70.6723 8.91091 71.3997 8.28799 72.2316 8.28799C72.4338 8.28799 72.6021 8.32463 72.6021 8.32463L72.9265 8.40063V6.40294L72.7025 6.36901C72.6944 6.36901 72.4867 6.33508 72.2777 6.33508L72.2791 6.3378Z" fill="#E51A4B"/>
<path fill-rule="evenodd" clip-rule="evenodd" d="M77.9782 6.3378C77.1367 6.3378 76.0985 7.06793 75.8665 8.00164V7.4425C75.8665 6.9485 75.576 6.42873 74.645 6.42873H73.9502V14.5213H75.9153V11.1624C75.9153 10.663 75.9696 10.2436 76.0809 9.87583C76.3754 8.91091 77.1042 8.28799 77.9361 8.28799C78.1396 8.28799 78.3066 8.32463 78.3066 8.32463L78.6296 8.40063V6.40294L78.4084 6.36901C78.3989 6.36901 78.1926 6.33508 77.9795 6.33508L77.9782 6.3378Z" fill="#E51A4B"/>
<path fill-rule="evenodd" clip-rule="evenodd" d="M36.6687 6.52368C34.2191 6.52368 32.3721 8.33409 32.3721 10.7349C32.3721 13.1356 34.2178 14.9772 36.6687 14.9772C39.1197 14.9772 40.9817 13.1125 40.9817 10.7349C40.9817 8.35716 39.1292 6.52368 36.6687 6.52368ZM36.6687 13.1913C35.3564 13.1913 34.3643 12.1354 34.3643 10.7362C34.3643 9.33701 35.355 8.30966 36.6687 8.30966C37.9824 8.30966 38.9881 9.35329 38.9881 10.7362C38.9881 12.1191 37.9919 13.1913 36.6687 13.1913Z" fill="#E51A4B"/>
<path fill-rule="evenodd" clip-rule="evenodd" d="M27.7612 6.52375C26.6511 6.52375 25.8898 6.97567 25.446 7.3611H25.389C25.389 7.3611 25.446 6.91731 25.446 6.46675V4.93591C25.446 4.11213 25.047 3.71313 24.2313 3.71313H23.4795V10.8041C23.5772 13.3786 25.1718 14.9787 27.6459 14.9787C29.9245 14.9787 31.644 13.1615 31.644 10.7512C31.644 8.34094 29.9747 6.52375 27.7599 6.52375H27.7612ZM27.4369 13.2049C26.1734 13.2049 25.3673 11.9713 25.3673 10.7783C25.3673 8.96794 26.5208 8.3233 27.4654 8.3233C28.547 8.3233 29.6639 9.238 29.6639 10.7648C29.6639 12.2915 28.5307 13.2062 27.4369 13.2062V13.2049Z" fill="#E51A4B"/>
<path fill-rule="evenodd" clip-rule="evenodd" d="M54.3208 6.52375C53.2093 6.52375 52.4493 6.97567 52.0028 7.3611H51.9472C51.9472 7.3611 52.0028 6.91731 52.0028 6.46675V4.93591C52.0028 4.11213 51.6065 3.71313 50.7909 3.71313H50.0391V10.8041C50.1354 13.3786 51.7328 14.9787 54.2 14.9787C56.4814 14.9787 58.2008 13.1615 58.2008 10.7512C58.2008 8.34094 56.5316 6.52375 54.3194 6.52375H54.3208ZM53.9937 13.2049C52.7316 13.2049 51.9255 11.9713 51.9255 10.7783C51.9255 8.96794 53.079 8.3233 54.0236 8.3233C55.1066 8.3233 56.2235 9.238 56.2235 10.7648C56.2235 12.2915 55.0903 13.2062 53.9937 13.2062V13.2049Z" fill="#E51A4B"/>
<path fill-rule="evenodd" clip-rule="evenodd" d="M47.8916 13.0244L46.2943 10.4743L47.6541 8.42914C47.9011 8.05593 48.0952 7.78857 48.3001 7.50765C48.4494 7.30408 48.6014 7.0978 48.7697 6.8508L49.056 6.43823H47.574C46.7408 6.43823 46.43 6.62009 45.9848 7.36244C45.9848 7.36244 45.3864 8.35721 45.3022 8.497C45.2235 8.63407 45.0172 9.09685 45.0131 9.10906H44.9589C44.9589 9.10906 44.7743 8.68021 44.6616 8.497C44.5531 8.31107 43.9722 7.35837 43.9722 7.35837C43.5027 6.62009 43.1878 6.43823 42.3871 6.43823H40.9092L41.2091 6.85487C41.566 7.36244 41.7723 7.661 42.0804 8.10886L43.6642 10.477L42.3192 12.7095C42.0709 13.0787 41.8782 13.3501 41.6705 13.631C41.5199 13.8359 41.3706 14.0395 41.1996 14.2838L40.916 14.7004H42.3979C43.2299 14.7004 43.542 14.5213 43.9885 13.7789C43.9885 13.7789 44.5843 12.7869 44.6684 12.6444C44.7471 12.5073 44.9548 12.0432 44.9616 12.0323H45.0159C45.0159 12.0323 45.1991 12.4585 45.3104 12.6444C45.4216 12.8276 46.0011 13.783 46.0011 13.783C46.4721 14.5213 46.7842 14.7004 47.5863 14.7004H49.0628L48.7615 14.2838C48.4073 13.7789 48.1997 13.4804 47.8943 13.0271L47.8916 13.0244Z" fill="#E51A4B"/>
<path fill-rule="evenodd" clip-rule="evenodd" d="M65.6922 12.491C65.4683 12.491 65.2634 12.586 65.0625 12.6769L65.0327 12.6892C64.616 12.8819 64.1084 13.1167 63.5072 13.1167C62.484 13.1167 61.1594 12.4842 61.0427 11.0945H66.7006C66.7358 10.8299 66.7562 10.4418 66.7562 10.2341C66.7562 7.95685 65.2552 6.42737 63.035 6.42737C60.6627 6.42737 59.0029 8.16721 59.0029 10.6548C59.0029 13.1424 60.9694 14.8809 63.434 14.8809C65.4344 14.8809 66.5526 13.6541 66.6001 13.6066L66.7345 13.4722L66.6544 13.2999C66.4712 12.9253 66.2052 12.491 65.6909 12.491H65.6922ZM63.1734 7.97314C64.0107 7.97314 64.8915 8.4902 64.8915 9.58676H61.0603C61.1906 8.74534 62.0429 7.97314 63.172 7.97314H63.1734Z" fill="#E51A4B"/>
<path fill-rule="evenodd" clip-rule="evenodd" d="M8.18506 15.6857C9.04141 14.8253 10.4257 14.8253 11.2807 15.6857C12.1397 16.5475 12.1397 17.9453 11.2807 18.8071C10.4257 19.6702 9.04006 19.6702 8.18506 18.8071C7.33415 17.9453 7.33415 16.5475 8.18506 15.6857Z" fill="#E51A4B"/>
<path fill-rule="evenodd" clip-rule="evenodd" d="M11.8639 11.9793C11.0102 12.8397 11.0102 14.2362 11.8639 15.1007C12.7202 15.9598 14.1072 15.9598 14.9622 15.1007C15.8158 14.2376 15.8158 12.8397 14.9622 11.9793C14.1072 11.1189 12.7202 11.1189 11.8639 11.9793Z" fill="#E51A4B"/>
<path fill-rule="evenodd" clip-rule="evenodd" d="M15.5455 8.27174C14.6905 9.13216 14.6905 10.53 15.5455 11.3891C16.4005 12.2549 17.7875 12.2549 18.6425 11.3891C19.4948 10.53 19.4948 9.13216 18.6425 8.27174C17.7862 7.40861 16.4005 7.40861 15.5455 8.27174Z" fill="#E51A4B"/>
<path fill-rule="evenodd" clip-rule="evenodd" d="M4.50656 11.9793C3.64885 12.8397 3.64885 14.2376 4.50656 15.1007C5.36155 15.9598 6.74854 15.9598 7.60353 15.1007C8.45716 14.2376 8.45716 12.8397 7.60353 11.9793C6.74718 11.1189 5.36155 11.1189 4.50656 11.9793Z" fill="#E51A4B"/>
<path fill-rule="evenodd" clip-rule="evenodd" d="M0.826831 8.27174C-0.0295167 9.13352 -0.0295167 10.53 0.826831 11.3891C1.68182 12.2549 3.06745 12.2549 3.92244 11.3891C4.77879 10.53 4.77879 9.13352 3.92244 8.27174C3.06745 7.40861 1.68047 7.40861 0.826831 8.27174Z" fill="#E51A4B"/>
<path fill-rule="evenodd" clip-rule="evenodd" d="M8.18506 8.27174C7.33415 9.13216 7.33415 10.53 8.18506 11.3891C9.04141 12.2549 10.4257 12.2549 11.2847 11.3891C12.1397 10.53 12.1397 9.13216 11.2847 8.27174C10.4257 7.40861 9.04141 7.40861 8.18506 8.27174Z" fill="#E51A4B"/>
<path fill-rule="evenodd" clip-rule="evenodd" d="M4.50656 4.56398C3.64885 5.42575 3.64885 6.82224 4.50656 7.68537C5.36155 8.54715 6.74854 8.54715 7.60353 7.68537C8.45716 6.82224 8.45716 5.42575 7.60353 4.56398C6.74718 3.70084 5.36155 3.70084 4.50656 4.56398Z" fill="#E51A4B"/>
<path fill-rule="evenodd" clip-rule="evenodd" d="M11.8639 4.56398C11.0102 5.42575 11.0102 6.82224 11.8639 7.68537C12.7202 8.54715 14.1072 8.54715 14.9622 7.68537C15.8158 6.82224 15.8158 5.42575 14.9622 4.56398C14.1072 3.70084 12.7202 3.70084 11.8639 4.56398Z" fill="#E51A4B"/>
<path fill-rule="evenodd" clip-rule="evenodd" d="M8.18506 0.856335C9.04141 -0.00679904 10.4257 -0.00679904 11.2847 0.856335C12.1397 1.71947 12.1397 3.1146 11.2847 3.97637C10.4257 4.83815 9.04141 4.83815 8.18506 3.97637C7.33415 3.1146 7.33415 1.71947 8.18506 0.856335Z" fill="#B0CB1F"/>
<path fill-rule="evenodd" clip-rule="evenodd" d="M25.5588 18.0919V20.0706H25.2154V18.4068H24.3183V20.0706H23.9736V18.0919H25.5588Z" fill="#E51A4B"/>
<path fill-rule="evenodd" clip-rule="evenodd" d="M26.5385 18.0918V19.3987L27.8834 17.9398V20.0705H27.5441V18.75L26.1992 20.2089V18.0918H26.5385Z" fill="#E51A4B"/>
<path fill-rule="evenodd" clip-rule="evenodd" d="M30.0654 18.647C29.8863 18.4176 29.6257 18.3511 29.4493 18.3511C29.0856 18.3511 28.7544 18.6063 28.7544 19.0867C28.7544 19.5671 29.0951 19.8236 29.4452 19.8236C29.6488 19.8236 29.8999 19.7327 30.079 19.5128V19.924C29.8646 20.0801 29.6406 20.129 29.4561 20.129C28.844 20.129 28.4043 19.6893 28.4043 19.0948C28.4043 18.5004 28.8494 18.0458 29.4561 18.0458C29.7682 18.0458 29.9704 18.1679 30.0654 18.2358V18.647Z" fill="#E51A4B"/>
<path fill-rule="evenodd" clip-rule="evenodd" d="M30.6016 18.0919H30.9422V18.8506H31.2923C31.4688 18.8506 31.7131 18.8668 31.8881 19.046C31.9668 19.1233 32.0401 19.2618 32.0401 19.464C32.0401 19.6784 31.9505 19.825 31.8637 19.9064C31.6954 20.0679 31.4823 20.072 31.2869 20.072H30.6016V18.0933V18.0919ZM31.2584 19.7666C31.3724 19.7666 31.4823 19.7625 31.5624 19.7137C31.6031 19.6852 31.69 19.6146 31.69 19.4626C31.69 19.3744 31.6642 19.274 31.5651 19.2129C31.481 19.1559 31.3711 19.1559 31.2625 19.1559H30.9422V19.7666H31.2584Z" fill="#E51A4B"/>
<path fill-rule="evenodd" clip-rule="evenodd" d="M32.7406 17.9398L33.5549 19.5507L34.3488 17.9398L34.8225 20.0705H34.4682L34.2117 18.8464L33.544 20.2089L32.8682 18.8464L32.6171 20.0705H32.2656L32.7406 17.9398Z" fill="#E51A4B"/>
<path fill-rule="evenodd" clip-rule="evenodd" d="M36.7424 18.0918H37.0844V20.0705H36.7424V19.7936C36.6298 19.9429 36.4167 20.1275 36.0706 20.1275C35.5739 20.1275 35.1152 19.776 35.1152 19.0784C35.1152 18.3809 35.5685 18.0443 36.0706 18.0443C36.4493 18.0443 36.6542 18.252 36.7424 18.3727V18.0905V18.0918ZM35.4667 19.0798C35.4667 19.5046 35.7029 19.8235 36.1086 19.8235C36.5144 19.8235 36.7614 19.4747 36.7614 19.0852C36.7614 18.5736 36.4126 18.351 36.1086 18.351C35.7721 18.351 35.4667 18.598 35.4667 19.0798Z" fill="#E51A4B"/>
<path fill-rule="evenodd" clip-rule="evenodd" d="M39.1711 18.0918V19.3987L40.516 17.9398V20.0705H40.1754V18.75L38.8291 20.2089V18.0918H39.1711Z" fill="#E51A4B"/>
<path fill-rule="evenodd" clip-rule="evenodd" d="M43.8418 18.0919V20.0706H43.5012V18.4068H42.6014V20.0706H42.2607V18.0919H43.8418Z" fill="#E51A4B"/>
<path fill-rule="evenodd" clip-rule="evenodd" d="M44.3613 19.0866C44.3613 18.4881 44.8024 18.0443 45.4036 18.0443C46.0048 18.0443 46.4445 18.4881 46.4445 19.0866C46.4445 19.6851 45.998 20.1289 45.4036 20.1289C44.8092 20.1289 44.3613 19.6892 44.3613 19.0866ZM44.7128 19.0866C44.7128 19.5752 45.0535 19.8235 45.4036 19.8235C45.7537 19.8235 46.093 19.5711 46.093 19.0866C46.093 18.6021 45.7619 18.351 45.4036 18.351C45.0453 18.351 44.7128 18.6062 44.7128 19.0866Z" fill="#E51A4B"/>
<path fill-rule="evenodd" clip-rule="evenodd" d="M48.5025 18.647C48.322 18.4176 48.0628 18.3511 47.8878 18.3511C47.5227 18.3511 47.1929 18.6063 47.1929 19.0867C47.1929 19.5671 47.5349 19.8236 47.8837 19.8236C48.0873 19.8236 48.3383 19.7327 48.5161 19.5128V19.924C48.303 20.0801 48.0778 20.129 47.8932 20.129C47.2825 20.129 46.8428 19.6893 46.8428 19.0948C46.8428 18.5004 47.2879 18.0458 47.8932 18.0458C48.2053 18.0458 48.4089 18.1679 48.5039 18.2358V18.647H48.5025Z" fill="#E51A4B"/>
<path fill-rule="evenodd" clip-rule="evenodd" d="M49.0361 18.0919H49.3795V18.8506H49.7269C49.9047 18.8506 50.149 18.8668 50.3241 19.046C50.3987 19.1233 50.476 19.2618 50.476 19.464C50.476 19.6784 50.3851 19.825 50.301 19.9064C50.1313 20.0679 49.9169 20.072 49.7228 20.072H49.0361V18.0933V18.0919ZM49.6957 19.7666C49.8083 19.7666 49.9183 19.7625 49.997 19.7137C50.0418 19.6852 50.1246 19.6146 50.1246 19.4626C50.1246 19.3744 50.1042 19.274 50.0024 19.2129C49.9183 19.1559 49.8083 19.1559 49.7011 19.1559H49.3795V19.7666H49.6957ZM50.7122 18.0919H51.0542V20.0706H50.7122V18.0919Z" fill="#E51A4B"/>
<path fill-rule="evenodd" clip-rule="evenodd" d="M53.182 20.0705H52.8414V18.4067H52.1425V19.2983C52.1425 19.4666 52.1425 19.6851 51.9905 19.8696C51.9294 19.9456 51.7815 20.08 51.5168 20.08C51.4856 20.08 51.4476 20.0746 51.415 20.0705V19.757C51.4368 19.7611 51.4666 19.7652 51.4897 19.7652C51.6173 19.7652 51.6987 19.7 51.7367 19.6362C51.7991 19.5412 51.8018 19.4177 51.8018 19.2969V18.0905H53.1834V20.0691L53.182 20.0705Z" fill="#E51A4B"/>
<path fill-rule="evenodd" clip-rule="evenodd" d="M54.1661 18.0919V18.9035L54.9627 18.0919H55.3793L54.5284 18.9741L55.4838 20.0706H55.0387L54.2733 19.2048L54.1661 19.3025V20.0706H53.8281V18.0919H54.1661Z" fill="#E51A4B"/>
<path fill-rule="evenodd" clip-rule="evenodd" d="M56.1649 18.0918V19.3987L57.5084 17.9398V20.0705H57.1691V18.75L55.8242 20.2089V18.0918H56.1649Z" fill="#E51A4B"/>
</g>
<defs>
<clipPath id="clip0_247_25498">
<rect width="87.6311" height="20" fill="white" transform="translate(0.18457 0.208984)"/>
</clipPath>
</defs>
</svg>
