<svg width="90" height="21" viewBox="0 0 90 21" fill="none" xmlns="http://www.w3.org/2000/svg">
<g clip-path="url(#clip0_247_25542)">
<path fill-rule="evenodd" clip-rule="evenodd" d="M4.7914 12.8071L13.2426 16.4875L12.5043 17.7423L2.95567 16.0013L4.79319 12.8071H4.7914ZM2.55885 16.6752L0.506836 20.2001L11.2066 20.193L11.9913 18.5503L2.55885 16.677V16.6752ZM11.6714 0.947266L17.0052 10.1795L16.1007 11.7293L9.67834 4.50254L11.6714 0.947266ZM7.40826 8.34739L14.9031 13.8099L15.6253 12.5819L9.29046 5.14246L7.40826 8.34739ZM5.1775 12.1779L13.7198 15.8137L14.4509 14.5052L7.02216 8.95692L5.17928 12.1779H5.1775Z" fill="url(#paint0_linear_247_25542)"/>
<path fill-rule="evenodd" clip-rule="evenodd" d="M12.1006 20.2001L17.4952 10.9142L22.8326 20.1876L19.9547 20.1894L17.5023 15.9334L15.0392 20.1947L12.1006 20.2001Z" fill="url(#paint1_linear_247_25542)"/>
<path fill-rule="evenodd" clip-rule="evenodd" d="M44.9002 13.2199H46.6341L46.6394 17.66L50.5272 13.2181L52.0698 13.2217V20.2018L50.3359 20.2036L50.3306 15.7188L46.3678 20.2054H44.9002V13.2199ZM34.8582 20.2036L38.8836 13.2128L40.2796 13.2235L44.2818 20.1982L42.144 20.2036L39.5164 15.6473L36.8977 20.2036H34.8564H34.8582ZM53.9001 13.2199H55.5893L55.5875 15.8922H59.1964V13.2199H60.9285V20.2036L59.1964 20.2054V17.4848H55.5911L55.5875 20.2018H53.9001V13.2199ZM62.7588 13.2199H64.4927L64.4981 17.66L68.3858 13.2181L69.9284 13.2217V20.2018L68.1945 20.2036L68.1892 15.7188L64.2264 20.2054H62.7588V13.2199ZM71.7588 13.2199L73.4944 13.2235L73.489 17.6493L77.3625 13.2181H78.8836V20.2018H77.1962V15.7009L73.203 20.2089L71.7588 20.2018V13.2199Z" fill="#231F20"/>
<path fill-rule="evenodd" clip-rule="evenodd" d="M78.09 1.75876H79.8221V8.7442H78.0882V1.75876H78.09ZM81.6489 1.75876L89.4923 1.78558L88.5878 3.31029L81.6471 3.30493V1.75876H81.6489ZM81.6507 4.43103H87.9551L87.0309 6.02367H81.6524L81.6507 4.43103ZM25.4633 7.1462L29.4494 0.210815H30.8543L34.8404 7.13905L35.8592 7.15514V10.7587H34.2166V8.74241H26.0621V10.7587H24.4248V7.15156L25.4651 7.1462H25.4633ZM30.1 2.65965L27.5207 7.14799L32.6865 7.15514L30.1018 2.65965H30.1ZM37.0265 1.76055H44.8592L43.9493 3.3085H37.0265L37.0247 1.76055H37.0265ZM46.8057 1.77664L42.8125 8.74062L44.8556 8.7442L47.4707 4.19151L50.0964 8.7442H52.2396L48.2196 1.75876L46.8039 1.77664H46.8057ZM37.0283 4.43282L43.3094 4.43818L42.3871 6.02724L37.0247 6.02009L37.0283 4.43282ZM37.0283 7.14977H41.74L40.8499 8.74241H37.0283V7.14977ZM55.0924 1.70693C56.3955 1.43881 57.8469 1.51388 59.007 2.21993C60.7855 3.34425 61.0215 6.1756 59.5843 7.66456C58.6173 8.59047 57.207 8.92294 55.9004 8.82285C54.8636 8.75313 53.7929 8.39207 53.0887 7.59485C52.1717 6.53667 52.0323 4.94046 52.5649 3.67493C53.01 2.64356 54.0074 1.93215 55.0924 1.70693ZM55.4034 3.31565C53.9484 3.74464 53.6732 5.89676 54.8136 6.803C55.6108 7.36785 56.7226 7.38214 57.5985 6.99963C58.8282 6.45802 58.9855 4.60799 58.1079 3.69281C57.3697 3.08328 56.29 3.05468 55.4052 3.31565H55.4034ZM62.0081 1.76055C63.599 1.75876 65.1916 1.75876 66.786 1.75698C67.3348 1.74804 67.9318 1.90176 68.3125 2.32182C68.8256 3.02072 68.738 4.17721 67.9265 4.61872C69.3546 5.07631 69.5423 7.08364 68.6289 8.10428C68.0998 8.62444 67.3223 8.73883 66.6109 8.7442C65.0772 8.74598 63.5436 8.7442 62.0099 8.7442C62.0081 6.41691 62.0117 4.08962 62.0081 1.76234V1.76055ZM63.6937 3.26203C63.6955 3.65169 63.6991 4.04136 63.7009 4.43282C64.6125 4.41494 65.5241 4.46142 66.4321 4.41494C67.0256 4.39171 67.0542 3.2799 66.4268 3.27454C65.517 3.23164 64.6036 3.27096 63.6937 3.26381V3.26203ZM63.6991 5.78951C63.6973 6.27391 63.6973 6.75832 63.6991 7.24272C64.7323 7.2177 65.7726 7.29635 66.8039 7.2034C67.5547 7.21055 67.628 5.89497 66.9022 5.80202C65.8351 5.76448 64.7662 5.80381 63.6991 5.78951ZM70.7775 1.75876C71.3405 1.75876 71.9 1.75876 72.4648 1.76055C72.4631 2.58636 72.4648 3.41217 72.4595 4.23799C73.6321 4.30055 74.8225 4.12895 75.9808 4.3363C77.0175 4.53828 77.4018 5.70907 77.2964 6.64213C77.3321 7.7736 76.3276 8.7156 75.2211 8.73347C73.7393 8.76386 72.2575 8.73526 70.7757 8.74241C70.7757 6.41512 70.7739 4.08962 70.7775 1.76055V1.75876ZM72.4613 5.69835C72.4631 6.21135 72.4631 6.72614 72.4631 7.23915C73.3228 7.22127 74.188 7.29277 75.0442 7.20161C75.8021 7.13905 75.777 5.75733 75.012 5.72873C74.1647 5.65545 73.3121 5.71443 72.4595 5.69835H72.4613ZM81.6507 7.14977L86.3767 7.15514L85.4741 8.74241H81.6453L81.6489 7.14799L81.6507 7.14977Z" fill="#231F20"/>
</g>
<defs>
<linearGradient id="paint0_linear_247_25542" x1="7.58164" y1="11.4022" x2="12.5919" y2="14.1817" gradientUnits="userSpaceOnUse">
<stop stop-color="#FDC337"/>
<stop offset="0.3" stop-color="#FDC84F"/>
<stop offset="0.47" stop-color="#F39322"/>
<stop offset="0.61" stop-color="#F59E2D"/>
<stop offset="0.76" stop-color="#FBB800"/>
<stop offset="1" stop-color="#FFDC77"/>
</linearGradient>
<linearGradient id="paint1_linear_247_25542" x1="12.4384" y1="14.9128" x2="24.4788" y2="18.1963" gradientUnits="userSpaceOnUse">
<stop stop-color="#F6A200"/>
<stop offset="1" stop-color="#FDC73D"/>
</linearGradient>
<clipPath id="clip0_247_25542">
<rect width="88.9856" height="20" fill="white" transform="translate(0.506836 0.208984)"/>
</clipPath>
</defs>
</svg>
