<svg width="42" height="21" viewBox="0 0 42 21" fill="none" xmlns="http://www.w3.org/2000/svg">
<g clip-path="url(#clip0_247_25553)">
<path d="M20.35 0.224121H0.386719V20.1881H20.35V0.224121Z" fill="#0155A5"/>
<path d="M41.6139 0.208984H21.6133V20.209H41.6139V0.208984Z" fill="#0155A5"/>
<path fill-rule="evenodd" clip-rule="evenodd" d="M40.4143 1.40918V19.0088H22.8135V1.40918H40.4143Z" fill="#FEFEFE"/>
<path fill-rule="evenodd" clip-rule="evenodd" d="M11.1826 14.2997C10.9631 14.0322 10.8518 13.6806 10.8518 13.2556C10.8518 12.8307 10.9581 12.4684 11.1674 12.2116C11.3957 11.9309 11.7314 11.7886 12.1665 11.7886H12.2V11.0608H12.1665C11.488 11.0608 10.9644 11.2732 10.6103 11.6918C10.2878 12.0706 10.1246 12.5986 10.1246 13.2613C10.1246 13.924 10.3023 14.428 10.652 14.8258C11.02 15.2438 11.5329 15.4562 12.1772 15.4562H12.2108V14.7284H12.1772C11.7523 14.7284 11.4178 14.5842 11.1832 14.2997H11.1826ZM8.59814 14.2997C8.37871 14.0322 8.26742 13.6812 8.26742 13.2556C8.26742 12.8301 8.37365 12.4684 8.58296 12.2116C8.81124 11.9309 9.14702 11.7886 9.58208 11.7886H9.61559V11.0608H9.58208C8.90356 11.0608 8.37998 11.2732 8.02586 11.6918C7.70399 12.0706 7.54022 12.5986 7.54022 13.2613C7.54022 13.924 7.71791 14.428 8.0676 14.8258C8.43563 15.2438 8.94846 15.4562 9.59283 15.4562H9.62634V14.7284H9.59283C9.16789 14.7284 8.83337 14.5842 8.59877 14.2997H8.59814ZM10.9732 7.21353V9.23895H11.7447V5.0452H10.9732V6.50593H10.5534C10.3801 6.50593 10.2511 6.46672 10.1695 6.38895C10.1107 6.33393 10.0823 6.26058 10.0823 6.16383V5.04583H9.3108V6.2435C9.3108 6.51921 9.4202 6.75255 9.63519 6.93783C9.84766 7.12121 10.1082 7.21416 10.4105 7.21416H10.9739L10.9732 7.21353ZM18.3553 10.9615L18.3009 11.0184C18.3009 11.0184 16.8655 12.5171 16.7593 12.6284V11.1619H16.0852V15.3317H16.7593V13.6186C16.7763 13.6009 17.6395 12.6865 17.7369 12.5835C17.7419 12.7333 17.8349 15.3317 17.8349 15.3317H18.5216L18.3553 10.9621V10.9615ZM13.3073 9.23895H14.0787V5.74205H14.7288V5.0452H12.6673V5.74205H13.3073V9.23895ZM15.0842 11.0184C15.0842 11.0184 13.6494 12.5171 13.5425 12.6284V11.1619H12.8684V15.3317H13.5425V13.6186C13.5596 13.6009 14.4227 12.6865 14.5201 12.5835C14.5258 12.7333 14.6175 15.3317 14.6175 15.3317H15.3042L15.1379 10.9621L15.0835 11.019L15.0842 11.0184ZM16.4722 5.74268H16.7517C16.9502 5.74268 17.0875 5.80212 17.1703 5.92543C17.2367 6.02724 17.2841 6.22517 17.3145 6.49581H16.4538C16.4557 6.41108 16.4703 5.82426 16.4728 5.74331L16.4722 5.74268ZM16.4399 7.19266C16.5234 7.19266 17.3246 7.19266 17.403 7.19266C17.4118 7.27803 17.6193 9.23958 17.6193 9.23958H18.3964L18.0404 6.17331C18.0404 5.77114 17.9165 5.46824 17.6717 5.27727C17.477 5.12361 17.2101 5.0452 16.8788 5.0452H15.7355L15.5938 9.23895H16.3653C16.3653 9.23895 16.4368 7.28372 16.4399 7.19203V7.19266ZM2.99172 5.74268H3.9472V9.23958H4.71867V5.0452H2.22025V9.23895H2.99172V5.74205V5.74268ZM3.35279 13.4378C3.29777 13.5446 3.23327 13.5984 3.16119 13.5984C3.0891 13.5984 3.03282 13.5522 2.98223 13.4567C2.92848 13.3556 2.90129 13.2076 2.90129 13.016V11.7892H2.92974C3.0891 11.7892 3.21051 11.8771 3.30157 12.058C3.39515 12.2445 3.44258 12.5424 3.44258 12.9445C3.44258 13.1576 3.41286 13.3239 3.35342 13.4384L3.35279 13.4378ZM2.93101 11.1676H2.21582V15.3285H2.90066V14.1194C3.03345 14.2358 3.17763 14.3053 3.33635 14.3053C3.56399 14.3053 3.75433 14.1846 3.90104 13.9474C4.06481 13.6806 4.14829 13.2847 4.14829 12.7713C4.14829 12.414 4.08189 12.094 3.95036 11.8208C3.74358 11.3883 3.40085 11.1683 2.93101 11.1683V11.1676ZM7.52125 8.21328C7.4207 8.48456 7.27969 8.61672 7.08935 8.61672C6.89901 8.61672 6.76938 8.48266 6.66884 8.20759C6.56387 7.91987 6.51075 7.555 6.51075 7.1231C6.51075 6.69121 6.56323 6.31496 6.66631 6.03862C6.76495 5.7743 6.90281 5.64593 7.08935 5.64593C7.29866 5.64593 7.44726 5.77556 7.54401 6.04368C7.6338 6.28967 7.67933 6.64884 7.67933 7.11172C7.67933 7.5746 7.62622 7.92935 7.52125 8.21328ZM8.11692 8.68754C8.34583 8.29232 8.46218 7.76241 8.46218 7.11172C8.46218 6.46103 8.34204 5.94251 8.10554 5.54665C7.86398 5.14321 7.52125 4.93896 7.08809 4.93896C6.65492 4.93896 6.35013 5.14511 6.11616 5.55045C5.88725 5.94693 5.77153 6.47368 5.77153 7.11741C5.77153 7.76115 5.88282 8.32078 6.10162 8.71537C6.3261 9.11944 6.65745 9.32432 7.08809 9.32432C7.51872 9.32432 7.87157 9.10995 8.11692 8.68691V8.68754ZM6.18509 14.3262C6.09466 14.6007 5.96187 14.7391 5.7905 14.7391C5.61913 14.7391 5.49646 14.5981 5.40603 14.3199C5.31181 14.0303 5.26438 13.6635 5.26438 13.2285C5.26438 12.7934 5.31118 12.4153 5.40413 12.137C5.49266 11.8702 5.62293 11.7348 5.79113 11.7348C5.9821 11.7348 6.11806 11.8683 6.20659 12.1421C6.28753 12.39 6.328 12.7517 6.328 13.2164C6.328 13.6812 6.28057 14.0391 6.18572 14.325L6.18509 14.3262ZM6.69476 11.6621C6.47976 11.2631 6.17623 11.0608 5.79113 11.0608C5.42627 11.0608 5.13602 11.2644 4.92861 11.6653C4.72499 12.0599 4.62128 12.5835 4.62128 13.2221C4.62128 13.8608 4.72056 14.4185 4.91533 14.8106C5.11389 15.2102 5.40856 15.4126 5.79113 15.4126C6.17371 15.4126 6.48735 15.2008 6.70488 14.7821C6.9085 14.3901 7.0122 13.8633 7.0122 13.2164C7.0122 12.5695 6.90534 12.0535 6.69476 11.6615V11.6621Z" fill="#FEFEFE"/>
<path fill-rule="evenodd" clip-rule="evenodd" d="M27.68 6.6792C27.828 7.00612 28.0708 7.34127 28.7316 7.79277C28.8796 7.89395 29.0428 8.10452 28.9182 8.40046C28.7936 8.6964 28.5603 9.11691 28.7 9.28006C28.8404 9.44384 29.3387 9.52921 29.7434 9.36606C29.7434 9.36606 29.8294 9.62279 29.9774 9.78657C29.9774 9.78657 29.9072 9.92695 29.6738 9.85676C29.6738 9.85676 29.7598 10.0667 29.6429 10.2925C29.6429 10.2925 29.3703 10.2457 29.2533 9.99651C29.2533 9.99651 29.1446 10.1919 28.9264 10.2615C28.9264 10.2615 28.7468 10.1685 28.786 9.80997C28.786 9.80997 28.6539 10.1293 28.2485 10.1837C28.2485 10.1837 28.0152 9.88775 28.3187 9.49063C28.3187 9.49063 28.1005 9.68603 27.7034 9.59244C27.7034 9.59244 27.6408 9.39009 27.9994 9.10932C27.9994 9.10932 27.594 9.09415 27.4385 8.75141C27.4385 8.75141 27.6098 8.54084 28.0304 8.58827C28.0304 8.58827 27.6408 8.50227 27.5555 8.03496C27.5555 8.03496 27.8356 7.856 28.2795 8.14372C28.2795 8.14372 28.2017 7.99575 28.0145 7.84778C27.8274 7.69981 27.6016 7.28689 27.6794 6.67983L27.68 6.6792Z" fill="#0155A5"/>
<path fill-rule="evenodd" clip-rule="evenodd" d="M29.3088 11.3764C29.25 11.2979 29.2057 11.2202 29.1729 11.1443C29.2424 11.7109 29.2677 12.0928 29.5738 12.4602C29.5738 12.4602 29.7584 12.2142 29.6395 11.6179C29.5883 11.6027 29.5308 11.5793 29.4751 11.5414C29.4751 11.5414 29.5447 11.7836 29.5017 12.0277C29.5017 12.0277 29.391 11.9474 29.3094 11.3764H29.3088Z" fill="#0155A5"/>
<path fill-rule="evenodd" clip-rule="evenodd" d="M28.7794 11.3175C28.7434 11.2713 28.6726 11.1739 28.6359 11.1044C28.61 11.4332 28.5233 12.2995 28.8136 12.5702C28.8136 12.5702 29.0121 12.4247 29.083 11.1619C29.0406 11.2327 28.9672 11.3074 28.9312 11.3485C28.9312 11.3485 28.9793 11.7494 28.8357 12.032C28.8357 12.032 28.6915 11.9226 28.7801 11.3175H28.7794Z" fill="#0155A5"/>
<path fill-rule="evenodd" clip-rule="evenodd" d="M28.0883 11.9796C28.3324 11.6874 28.4051 10.8129 28.4051 10.8129C28.4386 10.7901 28.4727 10.7655 28.5063 10.7389C28.5208 10.7275 28.5341 10.7161 28.5467 10.7035C28.5467 10.7351 28.548 10.768 28.5505 10.8015C28.5151 11.3276 28.474 11.8708 28.3096 12.1408C28.1483 12.4051 27.853 12.543 27.853 12.543C27.5754 12.0491 27.9106 11.3864 28.1913 10.9261C28.2261 10.9128 28.2609 10.897 28.2963 10.8787C28.1977 11.2334 28.0111 11.6545 28.0876 11.9808L28.0883 11.9796Z" fill="#0155A5"/>
<path fill-rule="evenodd" clip-rule="evenodd" d="M27.3997 10.4607C27.3978 10.5176 27.4085 10.5631 27.4161 10.5871C27.4193 10.5966 27.4231 10.6093 27.4294 10.6225C27.1967 10.8514 27.0247 11.069 26.68 11.5477C26.3348 12.027 25.7891 12.046 25.7891 12.046C25.8415 11.6583 25.9471 11.3516 26.2387 11.0209C26.5308 10.6902 26.9045 10.3886 27.1796 10.1881C27.2504 10.221 27.3421 10.2412 27.4591 10.2279C27.468 10.2267 27.4768 10.2261 27.4863 10.2242C27.449 10.2722 27.4269 10.3203 27.4148 10.3652C27.2068 10.4847 26.6035 10.7907 26.3588 11.284C26.3588 11.284 26.7408 11.1645 27.4003 10.46L27.3997 10.4607Z" fill="#0155A5"/>
<path fill-rule="evenodd" clip-rule="evenodd" d="M26.9681 9.9776L26.9908 9.9365C26.9984 9.92322 27.0066 9.91057 27.0155 9.89856C26.791 9.98582 25.9911 10.2881 25.7325 10.4215C25.4738 10.5562 25.0995 10.861 24.8965 11.4794C24.8965 11.4794 25.4359 11.5281 25.8811 11.1595C26.3262 10.7902 26.8454 10.2761 27.0667 10.1123C27.0446 10.0914 27.0275 10.0718 27.0155 10.0554C27.0155 10.0554 26.4129 10.5897 25.7755 10.8199C25.7755 10.8199 25.912 10.5726 26.1637 10.3931C26.4704 10.1749 26.7 10.1015 26.9681 9.9776Z" fill="#0155A5"/>
<path fill-rule="evenodd" clip-rule="evenodd" d="M26.5101 9.61334C26.5183 9.59184 26.5278 9.5716 26.5366 9.552C26.2729 9.60575 25.6134 9.6848 25.3181 9.77522C25.0234 9.86565 24.491 10.0813 24.1748 10.6839C24.1748 10.6839 24.639 10.8275 25.5148 10.4152C26.3906 10.0029 26.665 9.91813 26.8319 9.87387C26.6985 9.86375 26.6043 9.81885 26.555 9.7885C26.2059 9.94343 25.7386 10.1281 25.2751 10.1401C25.2751 10.1401 25.504 9.97821 25.7443 9.87766C26.0055 9.76827 26.2919 9.66899 26.5101 9.61334Z" fill="#0155A5"/>
<path fill-rule="evenodd" clip-rule="evenodd" d="M26.5322 9.17885C26.6182 9.21932 26.684 9.23956 26.7959 9.25157C26.7352 9.29078 26.6764 9.34136 26.6252 9.40839C26.3166 9.49755 25.7905 9.59494 24.9229 9.65754C24.0547 9.72014 23.5918 9.56016 23.5918 9.56016C23.8947 9.37551 24.3765 9.1877 24.7028 9.12447C25.0285 9.06123 25.8847 9.06819 26.2603 9.01697C26.2647 9.02076 26.3103 9.05807 26.3836 9.10297C26.0681 9.13142 25.3953 9.16304 25.0481 9.33884C25.0481 9.33884 25.6893 9.42484 26.5329 9.17885H26.5322Z" fill="#0155A5"/>
<path fill-rule="evenodd" clip-rule="evenodd" d="M26.4674 8.68059C26.511 8.65467 26.5641 8.62937 26.628 8.60471C26.1891 8.47128 25.5852 8.25945 24.6778 8.20001C24.0113 8.15637 23.5307 8.19431 23.2822 8.25881C23.2822 8.25881 23.888 8.68628 24.5817 8.83678C25.2748 8.98791 25.8382 8.8918 26.2492 8.89496C26.2764 8.85449 26.3068 8.80896 26.3555 8.76343C25.8742 8.76659 25.0737 8.64202 24.7866 8.54653C24.7866 8.54653 25.4847 8.40046 26.4667 8.67996L26.4674 8.68059Z" fill="#0155A5"/>
<path fill-rule="evenodd" clip-rule="evenodd" d="M26.4653 8.16335C26.4678 8.17537 26.5184 8.42325 26.8055 8.56047C26.189 8.28982 24.973 8.13426 24.3204 7.86298C23.437 7.49622 23.2764 7.03777 23.2764 7.03777C24.0402 7.01753 24.6581 7.20471 25.1342 7.35015C25.6919 7.52151 26.5406 7.83769 26.8384 7.97048C26.7271 7.97491 26.6051 8.00716 26.502 8.07545C26.0865 7.9161 25.8937 7.84907 25.5168 7.74347C25.2196 7.66063 24.9995 7.64356 24.8142 7.62585C24.8142 7.62585 25.0754 7.79912 25.5067 7.93697C25.9335 8.07356 26.1188 8.09632 26.4653 8.16209V8.16335Z" fill="#0155A5"/>
<path fill-rule="evenodd" clip-rule="evenodd" d="M26.4184 7.48987C26.4437 7.5335 26.5164 7.63847 26.5449 7.6802C25.5692 7.51643 24.4961 6.77847 24.1647 6.32191C23.8327 5.86472 23.9276 5.18115 23.9276 5.18115C24.2488 5.24628 24.9482 5.84955 25.129 6.0304C25.3099 6.21125 25.8575 6.74369 26.2357 7.0409L26.3545 7.38426C26.0301 7.12374 25.6444 6.83222 25.4048 6.65137C25.2201 6.51162 24.9438 6.31559 24.6693 6.22137C24.6693 6.22137 24.9223 6.55146 25.1265 6.71144C25.3618 6.89799 25.6027 7.05987 25.7993 7.168C25.9745 7.26412 26.0643 7.3185 26.4184 7.4905V7.48987Z" fill="#0155A5"/>
<path fill-rule="evenodd" clip-rule="evenodd" d="M29.17 10.2204C29.1997 10.1951 29.225 10.1692 29.2465 10.1451C29.2921 10.2021 29.4419 10.3905 29.5159 10.5777C29.5722 10.7383 29.6323 10.9558 29.662 11.081C29.6917 11.2056 29.7809 11.4642 29.8346 11.5534C29.8346 11.5534 29.5969 11.5831 29.4211 11.3782C29.2478 11.1759 29.189 10.9735 29.1624 10.7648C29.1409 10.6017 29.1479 10.3759 29.17 10.2198V10.2204Z" fill="#0155A5"/>
<path fill-rule="evenodd" clip-rule="evenodd" d="M28.7954 10.2514C28.8396 10.3102 28.882 10.3348 28.8864 10.3367L28.918 10.3532L28.9522 10.3424C28.9813 10.3329 29.0085 10.3216 29.0344 10.3089C29.0685 10.405 29.0825 10.4518 29.0913 10.5334C29.1027 10.6422 29.1242 10.8129 29.0831 10.9526C29.0338 11.1227 28.9313 11.2265 28.875 11.2922C28.875 11.2922 28.7201 11.1208 28.6752 10.9798C28.6284 10.8319 28.612 10.6605 28.6695 10.4841C28.7005 10.3892 28.7511 10.3007 28.7954 10.2507V10.2514Z" fill="#0155A5"/>
<path fill-rule="evenodd" clip-rule="evenodd" d="M28.2591 10.2678C28.4178 10.2463 28.5386 10.1887 28.629 10.1223C28.6493 10.1786 28.6802 10.2538 28.6575 10.3607C28.6341 10.4676 28.5601 10.5858 28.4539 10.6718C28.2939 10.7996 28.0789 10.9203 27.8418 10.883C27.8418 10.883 27.7874 10.7053 28.2591 10.2678Z" fill="#0155A5"/>
<path fill-rule="evenodd" clip-rule="evenodd" d="M28.0798 9.97119C28.0987 10.1293 28.1746 10.2286 28.181 10.2361C28.1253 10.3025 27.9255 10.6465 27.5081 10.5884C27.5081 10.5884 27.3949 10.3544 27.6732 10.1685C27.8616 10.0426 27.9508 10.0167 28.0804 9.97119H28.0798Z" fill="#0155A5"/>
<path fill-rule="evenodd" clip-rule="evenodd" d="M28.117 9.67716C28.0057 9.70498 27.8609 9.71637 27.6839 9.674L27.6358 9.66325L27.6219 9.61646C27.4075 9.79162 27.1527 9.82007 27.0654 9.97753C27.0654 9.97753 27.1723 10.1761 27.4505 10.1426C27.7281 10.1097 27.9374 9.97942 28.086 9.79288C28.0917 9.76442 28.1037 9.71257 28.117 9.67653V9.67716Z" fill="#0155A5"/>
<path fill-rule="evenodd" clip-rule="evenodd" d="M27.6355 9.43186C27.6754 9.37368 27.7026 9.28262 27.7854 9.19093C27.602 9.15931 27.4357 9.15678 27.2201 9.19789C26.964 9.24658 26.7022 9.30665 26.5713 9.69681C26.5713 9.69681 26.7363 9.83719 27.0348 9.77586C27.2884 9.724 27.5091 9.61461 27.6355 9.43186Z" fill="#0155A5"/>
<path fill-rule="evenodd" clip-rule="evenodd" d="M27.5267 9.0088C27.4622 8.95315 27.4034 8.88043 27.3604 8.78621L27.3382 8.73752C27.1163 8.64646 26.8848 8.6003 26.6585 8.68503C26.4321 8.76977 26.372 8.86778 26.3145 8.95189C26.3145 8.95189 26.5655 9.16183 26.8545 9.17005C27.1435 9.17827 27.4103 9.09543 27.5267 9.0088Z" fill="#0155A5"/>
<path fill-rule="evenodd" clip-rule="evenodd" d="M27.5938 8.55228C27.6318 8.53773 27.6754 8.52445 27.7241 8.51434C27.6254 8.4277 27.5287 8.29618 27.4819 8.09825C27.3788 8.12228 27.1366 8.12228 27.0298 8.08181C26.9235 8.04134 26.7136 8.03818 26.5498 8.14694C26.5498 8.14694 26.6042 8.4334 26.9747 8.53141C27.3232 8.62373 27.4528 8.5997 27.5938 8.55164V8.55228Z" fill="#0155A5"/>
<path fill-rule="evenodd" clip-rule="evenodd" d="M27.4605 7.99325L27.5092 7.96226C27.5155 7.95783 27.599 7.90725 27.7407 7.8965C27.6211 7.80734 27.3378 7.56957 27.1361 7.45575C26.9167 7.33244 26.5525 7.16929 26.3672 7.14526C26.3672 7.14526 26.5411 7.60182 26.7434 7.78584C26.9534 7.97681 27.1007 8.04763 27.4605 7.99388V7.99325Z" fill="#0155A5"/>
<path fill-rule="evenodd" clip-rule="evenodd" d="M27.8341 7.78324C27.7455 7.66752 27.6754 7.5088 27.6241 7.32163C27.5818 7.1686 27.4869 6.78982 27.4294 6.6918C27.3725 6.59316 27.1676 6.24979 26.7673 6.14355C26.7673 6.14355 26.6611 6.59063 26.8622 6.94538C27.036 7.25017 27.3914 7.57204 27.8341 7.78387V7.78324Z" fill="#0155A5"/>
<path fill-rule="evenodd" clip-rule="evenodd" d="M30.0549 9.86431C30.1049 9.91363 30.1428 9.94209 30.232 9.98635C30.232 9.98635 30.3597 10.2304 30.2054 10.5245C30.0505 10.8192 29.9196 11.1195 29.8577 11.2865C29.8577 11.2865 29.7742 11.2745 29.6819 10.8135C29.6193 10.5011 29.5402 10.4233 29.458 10.3164C29.5472 10.362 29.6205 10.3759 29.6262 10.3765L29.6882 10.3873L29.7166 10.3322C29.7717 10.226 29.7881 10.1236 29.7881 10.0388C29.7881 10.011 29.7862 9.98445 29.7837 9.96106C29.9272 9.96422 30.0037 9.89213 30.0328 9.85482C30.0353 9.85103 30.0379 9.8485 30.0398 9.84534L30.0543 9.86494L30.0549 9.86431Z" fill="#0155A5"/>
<path fill-rule="evenodd" clip-rule="evenodd" d="M26.6551 6.33077C26.6538 6.37314 26.6532 6.4212 26.6551 6.47178L26.6633 6.58181C26.4274 6.28018 26.1441 5.91658 25.8741 5.58143C25.6888 5.35189 25.5333 5.21277 25.3587 5.10085C25.5054 5.52642 25.7672 5.86599 25.9531 6.03483C26.1384 6.2043 26.4072 6.49012 26.669 6.66465L26.6943 6.75065C26.7145 6.82969 26.7455 6.91064 26.7891 6.98715C26.8505 7.09465 26.9308 7.20089 27.0256 7.30269C26.9491 7.26538 26.8618 7.22491 26.7739 7.18761L26.693 7.15409C25.9728 6.77215 25.2576 5.98108 24.9686 5.42967C24.6796 4.87889 24.7997 4.23958 24.8763 3.89685C25.2032 4.17445 25.6743 4.72017 25.8792 5.01738C26.1315 5.38161 26.4546 5.89824 26.6551 6.31812V6.33077Z" fill="#0155A5"/>
<path fill-rule="evenodd" clip-rule="evenodd" d="M36.7599 8.68059C36.7163 8.65467 36.6638 8.62937 36.5986 8.60471C37.0381 8.47128 37.6414 8.25945 38.5488 8.20001C39.2147 8.15637 39.6953 8.19431 39.9438 8.25881C39.9438 8.25881 39.338 8.68628 38.6443 8.83678C37.9512 8.98791 37.3884 8.8918 36.9768 8.89496C36.9496 8.85449 36.9192 8.80896 36.8712 8.76343C37.3524 8.76659 38.153 8.64202 38.4394 8.54653C38.4394 8.54653 37.7413 8.40046 36.7599 8.67996V8.68059Z" fill="#0155A5"/>
<path fill-rule="evenodd" clip-rule="evenodd" d="M36.7618 8.16335C36.7599 8.17537 36.7086 8.42325 36.4216 8.56047C37.0381 8.28982 38.2535 8.13426 38.9067 7.86298C39.7901 7.49622 39.9507 7.03777 39.9507 7.03777C39.1875 7.01753 38.5684 7.20471 38.0929 7.35015C37.5351 7.52151 36.6859 7.83769 36.3887 7.97048C36.5 7.97491 36.622 8.00716 36.7245 8.07545C37.1405 7.9161 37.3334 7.84907 37.7097 7.74347C38.0069 7.66063 38.2269 7.64356 38.4122 7.62585C38.4122 7.62585 38.1504 7.79912 37.7198 7.93697C37.2923 8.07356 37.1083 8.09632 36.7611 8.16209L36.7618 8.16335Z" fill="#0155A5"/>
<path fill-rule="evenodd" clip-rule="evenodd" d="M36.8091 7.48987C36.7838 7.5335 36.7111 7.63847 36.6826 7.6802C37.6583 7.51643 38.7314 6.77847 39.0628 6.32191C39.3941 5.86472 39.2999 5.18115 39.2999 5.18115C38.9781 5.24628 38.2793 5.84955 38.0985 6.0304C37.9176 6.21125 37.37 6.74369 36.9918 7.0409L36.873 7.38426C37.1974 7.12374 37.5825 6.83222 37.8227 6.65137C38.0074 6.51162 38.2837 6.31559 38.5588 6.22137C38.5588 6.22137 38.3052 6.55146 38.1016 6.71144C37.8657 6.89799 37.6267 7.05987 37.4288 7.168C37.2543 7.26412 37.1638 7.3185 36.8091 7.4905V7.48987Z" fill="#0155A5"/>
<path fill-rule="evenodd" clip-rule="evenodd" d="M36.5721 6.33077C36.5733 6.37314 36.5746 6.4212 36.5727 6.47178L36.5645 6.58181C36.8004 6.28018 37.0836 5.91658 37.3537 5.58143C37.5389 5.35189 37.6945 5.21277 37.8684 5.10085C37.7223 5.52642 37.4605 5.86599 37.2746 6.03483C37.0893 6.2043 36.8206 6.49012 36.5588 6.66465L36.5335 6.75065C36.5133 6.82969 36.4823 6.91064 36.4386 6.98715C36.3773 7.09465 36.297 7.20089 36.2021 7.30269C36.278 7.26538 36.3659 7.22491 36.4538 7.18761L36.5348 7.15409C37.255 6.77215 37.9702 5.98108 38.2592 5.42967C38.5482 4.87889 38.4287 4.23958 38.3515 3.89685C38.0246 4.17445 37.5535 4.72017 37.348 5.01738C37.0957 5.38161 36.7725 5.89824 36.5721 6.31812V6.33077Z" fill="#0155A5"/>
<path fill-rule="evenodd" clip-rule="evenodd" d="M27.5763 10.6814C27.2791 10.9786 26.6531 11.6445 26.7119 12.3679C26.7119 12.3679 27.2936 12.1858 27.5327 11.7596C27.7717 11.3333 27.9203 11.0659 28.0208 10.9697C27.9557 10.9786 27.8912 10.9786 27.8286 10.9685L27.7761 10.9596C27.6288 11.2277 27.336 11.6685 27.073 11.8222C27.073 11.8222 27.0059 11.4655 27.7793 10.7434C27.7907 10.7143 27.8058 10.6801 27.8273 10.6428C27.7565 10.6681 27.6756 10.6833 27.5852 10.6808L27.5757 10.682L27.5763 10.6814Z" fill="#0155A5"/>
<path fill-rule="evenodd" clip-rule="evenodd" d="M35.5483 6.6792C35.4003 7.00612 35.1575 7.34127 34.4967 7.79277C34.3487 7.89395 34.1856 8.10452 34.3102 8.40046C34.4347 8.6964 34.6681 9.11691 34.5277 9.28006C34.3873 9.44384 33.889 9.52921 33.4843 9.36606C33.4843 9.36606 33.3989 9.62279 33.251 9.78657C33.251 9.78657 33.3212 9.92695 33.5545 9.85676C33.5545 9.85676 33.4685 10.0667 33.5855 10.2925C33.5855 10.2925 33.858 10.2457 33.975 9.99651C33.975 9.99651 34.0838 10.1919 34.3019 10.2615C34.3019 10.2615 34.4809 10.1685 34.4423 9.80997C34.4423 9.80997 34.5745 10.1293 34.9792 10.1837C34.9792 10.1837 35.2132 9.88775 34.9096 9.49063C34.9096 9.49063 35.1278 9.68603 35.5249 9.59244C35.5249 9.59244 35.5869 9.39009 35.229 9.10932C35.229 9.10932 35.6337 9.09415 35.7899 8.75141C35.7899 8.75141 35.6185 8.54084 35.198 8.58827C35.198 8.58827 35.5869 8.50227 35.6729 8.03496C35.6729 8.03496 35.3927 7.856 34.9488 8.14372C34.9488 8.14372 35.0266 7.99575 35.2132 7.84778C35.4003 7.69981 35.6261 7.28689 35.5483 6.67983V6.6792Z" fill="#0155A5"/>
<path fill-rule="evenodd" clip-rule="evenodd" d="M33.9179 11.3764C33.9767 11.2979 34.0209 11.2202 34.0532 11.1443C33.9843 11.7109 33.9583 12.0928 33.6523 12.4602C33.6523 12.4602 33.4676 12.2142 33.5871 11.6179C33.6384 11.6027 33.6959 11.5793 33.7515 11.5414C33.7515 11.5414 33.6814 11.7836 33.725 12.0277C33.725 12.0277 33.8356 11.9474 33.9172 11.3764H33.9179Z" fill="#0155A5"/>
<path fill-rule="evenodd" clip-rule="evenodd" d="M34.4468 11.3175C34.4835 11.2713 34.5537 11.1739 34.591 11.1044C34.6163 11.4332 34.7029 12.2995 34.4133 12.5702C34.4133 12.5702 34.2141 12.4247 34.1445 11.1619C34.1863 11.2327 34.2603 11.3074 34.2957 11.3485C34.2957 11.3485 34.2476 11.7494 34.3911 12.032C34.3911 12.032 34.5353 11.9226 34.4468 11.3175Z" fill="#0155A5"/>
<path fill-rule="evenodd" clip-rule="evenodd" d="M35.1393 11.9796C34.8952 11.6874 34.8219 10.8129 34.8219 10.8129C34.7883 10.7901 34.7542 10.7655 34.7207 10.7389C34.7068 10.7275 34.6929 10.7161 34.6802 10.7035C34.6802 10.7351 34.6796 10.768 34.6758 10.8015C34.7112 11.3276 34.7529 11.8708 34.9173 12.1408C35.078 12.4051 35.3739 12.543 35.3739 12.543C35.6515 12.0491 35.3164 11.3864 35.0356 10.9261C35.0002 10.9128 34.9654 10.897 34.93 10.8787C35.0286 11.2334 35.2152 11.6545 35.1387 11.9808L35.1393 11.9796Z" fill="#0155A5"/>
<path fill-rule="evenodd" clip-rule="evenodd" d="M35.8269 10.4607C35.8288 10.5176 35.818 10.5631 35.8104 10.5871C35.8073 10.5966 35.8041 10.6093 35.7978 10.6225C36.0298 10.8514 36.2025 11.069 36.5471 11.5477C36.8917 12.027 37.4381 12.046 37.4381 12.046C37.385 11.6583 37.28 11.3516 36.9879 11.0209C36.6957 10.6902 36.3214 10.3886 36.0469 10.1881C35.9761 10.221 35.8844 10.2412 35.7674 10.2279C35.7586 10.2267 35.7491 10.2261 35.7402 10.2242C35.7769 10.2722 35.799 10.3203 35.8117 10.3652C36.0197 10.4847 36.6236 10.7907 36.8677 11.284C36.8677 11.284 36.4858 11.1645 35.8262 10.46L35.8269 10.4607Z" fill="#0155A5"/>
<path fill-rule="evenodd" clip-rule="evenodd" d="M36.2604 9.9776L36.2376 9.9365C36.2301 9.92322 36.2218 9.91057 36.2136 9.89856C36.4375 9.98582 37.238 10.2881 37.496 10.4215C37.7547 10.5562 38.129 10.861 38.3326 11.4794C38.3326 11.4794 37.7932 11.5281 37.3474 11.1595C36.9016 10.7902 36.3831 10.2761 36.1611 10.1123C36.1839 10.0914 36.201 10.0718 36.213 10.0554C36.213 10.0554 36.8156 10.5897 37.4524 10.8199C37.4524 10.8199 37.3158 10.5726 37.0641 10.3931C36.7574 10.1749 36.5285 10.1015 36.2598 9.9776H36.2604Z" fill="#0155A5"/>
<path fill-rule="evenodd" clip-rule="evenodd" d="M36.717 9.61334C36.7082 9.59184 36.6993 9.5716 36.6898 9.552C36.9542 9.60575 37.6137 9.6848 37.9084 9.77522C38.2031 9.86565 38.7361 10.0813 39.0523 10.6839C39.0523 10.6839 38.5882 10.8275 37.7117 10.4152C36.8359 10.0029 36.5627 9.91813 36.3945 9.87387C36.528 9.86375 36.6222 9.81885 36.6715 9.7885C37.0206 9.94343 37.4879 10.1281 37.9514 10.1401C37.9514 10.1401 37.7225 9.97821 37.4822 9.87766C37.2216 9.76827 36.9346 9.66899 36.7164 9.61334H36.717Z" fill="#0155A5"/>
<path fill-rule="evenodd" clip-rule="evenodd" d="M36.6953 9.17885C36.6093 9.21932 36.5436 9.23956 36.4316 9.25157C36.493 9.29078 36.5512 9.34136 36.603 9.40839C36.9116 9.49755 37.4371 9.59494 38.3053 9.65754C39.1735 9.72014 39.6364 9.56016 39.6364 9.56016C39.3341 9.37551 38.8516 9.1877 38.526 9.12447C38.1997 9.06123 37.3429 9.06819 36.9679 9.01697C36.9634 9.02076 36.9179 9.05807 36.8446 9.10297C37.1601 9.13142 37.8329 9.16304 38.1801 9.33884C38.1801 9.33884 37.5395 9.42484 36.696 9.17885H36.6953Z" fill="#0155A5"/>
<path fill-rule="evenodd" clip-rule="evenodd" d="M34.0575 10.2204C34.0278 10.1951 34.0025 10.1692 33.981 10.1451C33.9355 10.2021 33.7856 10.3905 33.7123 10.5777C33.6554 10.7383 33.5959 10.9558 33.5662 11.081C33.5365 11.2056 33.4473 11.4642 33.3936 11.5534C33.3936 11.5534 33.632 11.5831 33.8071 11.3782C33.9797 11.1759 34.0392 10.9735 34.0657 10.7648C34.0866 10.6017 34.0803 10.3759 34.0582 10.2198L34.0575 10.2204Z" fill="#0155A5"/>
<path fill-rule="evenodd" clip-rule="evenodd" d="M34.4317 10.2514C34.388 10.3102 34.345 10.3348 34.3412 10.3367L34.3096 10.3532L34.2755 10.3424C34.2458 10.3329 34.2192 10.3216 34.1933 10.3089C34.1598 10.405 34.1452 10.4518 34.1364 10.5334C34.125 10.6422 34.1028 10.8129 34.1439 10.9526C34.1939 11.1227 34.2951 11.2265 34.3514 11.2922C34.3514 11.2922 34.5069 11.1208 34.5518 10.9798C34.5986 10.8319 34.615 10.6605 34.5575 10.4841C34.5265 10.3892 34.4759 10.3007 34.431 10.2507L34.4317 10.2514Z" fill="#0155A5"/>
<path fill-rule="evenodd" clip-rule="evenodd" d="M34.9683 10.2678C34.8096 10.2463 34.6881 10.1887 34.5977 10.1223C34.5775 10.1786 34.5465 10.2538 34.5699 10.3607C34.5927 10.4676 34.6666 10.5858 34.7735 10.6718C34.9329 10.7996 35.1485 10.9203 35.385 10.883C35.385 10.883 35.4394 10.7053 34.9676 10.2678H34.9683Z" fill="#0155A5"/>
<path fill-rule="evenodd" clip-rule="evenodd" d="M35.1474 9.97119C35.1284 10.1293 35.0526 10.2286 35.0469 10.2361C35.1025 10.3025 35.3023 10.6465 35.7197 10.5884C35.7197 10.5884 35.8323 10.3544 35.5547 10.1685C35.3656 10.0426 35.2771 10.0167 35.1481 9.97119H35.1474Z" fill="#0155A5"/>
<path fill-rule="evenodd" clip-rule="evenodd" d="M35.11 9.67716C35.2213 9.70498 35.3661 9.71637 35.5432 9.674L35.5906 9.66325L35.6051 9.61646C35.8189 9.79162 36.0737 9.82007 36.161 9.97753C36.161 9.97753 36.0541 10.1761 35.7765 10.1426C35.4989 10.1097 35.2896 9.97942 35.141 9.79288C35.1353 9.76442 35.1233 9.71257 35.1094 9.67653L35.11 9.67716Z" fill="#0155A5"/>
<path fill-rule="evenodd" clip-rule="evenodd" d="M35.5919 9.43186C35.5514 9.37368 35.5249 9.28262 35.4414 9.19093C35.6254 9.15931 35.7917 9.15678 36.0067 9.19789C36.2635 9.24658 36.5246 9.30665 36.6555 9.69681C36.6555 9.69681 36.4905 9.83719 36.192 9.77586C35.9384 9.724 35.7177 9.61461 35.5919 9.43186Z" fill="#0155A5"/>
<path fill-rule="evenodd" clip-rule="evenodd" d="M35.7002 9.0088C35.7647 8.95315 35.8235 8.88043 35.8665 8.78621L35.8886 8.73752C36.1112 8.64646 36.3427 8.6003 36.5684 8.68503C36.7954 8.76977 36.8549 8.86778 36.9124 8.95189C36.9124 8.95189 36.6614 9.16183 36.3724 9.17005C36.0834 9.17827 35.8165 9.09543 35.7008 9.0088H35.7002Z" fill="#0155A5"/>
<path fill-rule="evenodd" clip-rule="evenodd" d="M35.6329 8.55228C35.595 8.53773 35.552 8.52445 35.5039 8.51434C35.6026 8.4277 35.6987 8.29618 35.7461 8.09825C35.8492 8.12228 36.092 8.12228 36.1982 8.08181C36.3045 8.04134 36.5144 8.03818 36.6775 8.14694C36.6775 8.14694 36.6238 8.4334 36.252 8.53141C35.9036 8.62373 35.7746 8.5997 35.6323 8.55164L35.6329 8.55228Z" fill="#0155A5"/>
<path fill-rule="evenodd" clip-rule="evenodd" d="M35.7665 7.99325L35.7178 7.96226C35.7114 7.95783 35.628 7.90725 35.4863 7.8965C35.6058 7.80734 35.8891 7.56957 36.0915 7.45575C36.3103 7.33244 36.6751 7.16929 36.8604 7.14526C36.8604 7.14526 36.6865 7.60182 36.4842 7.78584C36.2742 7.97681 36.1269 8.04763 35.7665 7.99388V7.99325Z" fill="#0155A5"/>
<path fill-rule="evenodd" clip-rule="evenodd" d="M35.3926 7.78324C35.4811 7.66752 35.5519 7.5088 35.6031 7.32163C35.6449 7.1686 35.741 6.78982 35.7979 6.6918C35.8548 6.59316 36.0597 6.24979 36.46 6.14355C36.46 6.14355 36.5662 6.59063 36.3651 6.94538C36.1906 7.25017 35.8359 7.57204 35.3926 7.78387V7.78324Z" fill="#0155A5"/>
<path fill-rule="evenodd" clip-rule="evenodd" d="M33.172 9.86431C33.1208 9.91363 33.0841 9.94209 32.995 9.98635C32.995 9.98635 32.8672 10.2304 33.0215 10.5245C33.1758 10.8192 33.3073 11.1195 33.3693 11.2865C33.3693 11.2865 33.4522 11.2745 33.5445 10.8135C33.6071 10.5011 33.6861 10.4233 33.7683 10.3164C33.6792 10.362 33.6058 10.3759 33.5995 10.3765L33.5375 10.3873L33.5091 10.3322C33.454 10.226 33.4376 10.1236 33.4376 10.0388C33.4376 10.011 33.4395 9.98445 33.442 9.96106C33.2979 9.96422 33.222 9.89213 33.1923 9.85482C33.1897 9.85103 33.1878 9.8485 33.1853 9.84534L33.1708 9.86494L33.172 9.86431Z" fill="#0155A5"/>
<path fill-rule="evenodd" clip-rule="evenodd" d="M35.6512 10.6814C35.9478 10.9786 36.5738 11.6445 36.515 12.3679C36.515 12.3679 35.9333 12.1858 35.6942 11.7596C35.4552 11.3333 35.3072 11.0659 35.2061 10.9697C35.2706 10.9786 35.3351 10.9786 35.3983 10.9685L35.4508 10.9596C35.5981 11.2277 35.8903 11.6685 36.1539 11.8222C36.1539 11.8222 36.221 11.4655 35.4476 10.7434C35.4362 10.7143 35.4204 10.6801 35.3996 10.6428C35.4697 10.6681 35.5507 10.6833 35.6417 10.6808L35.6512 10.682V10.6814Z" fill="#0155A5"/>
<path fill-rule="evenodd" clip-rule="evenodd" d="M31.1592 4.91621C31.1592 4.86309 31.3628 4.81946 31.6132 4.81946C31.8636 4.81946 32.0672 4.86309 32.0672 4.91621C32.0672 4.96933 31.8643 5.01296 31.6132 5.01296C31.3622 5.01296 31.1592 4.96996 31.1592 4.91621Z" fill="#0155A5"/>
<path fill-rule="evenodd" clip-rule="evenodd" d="M29.6182 5.4391C29.6182 5.41002 29.7491 5.38599 29.9109 5.38599C30.0728 5.38599 30.2031 5.40938 30.2031 5.4391C30.2031 5.46882 30.0722 5.49222 29.9109 5.49222C29.7497 5.49222 29.6182 5.46882 29.6182 5.4391Z" fill="#0155A5"/>
<path fill-rule="evenodd" clip-rule="evenodd" d="M31.7024 5.12932C31.7024 5.17865 31.6626 5.21848 31.6132 5.21848C31.5639 5.21848 31.5234 5.17865 31.5234 5.12932C31.5234 5.08 31.5633 5.04016 31.6132 5.04016C31.6632 5.04016 31.7024 5.08 31.7024 5.12932Z" fill="#0155A5"/>
<path fill-rule="evenodd" clip-rule="evenodd" d="M31.1269 4.82204C30.9758 4.4616 30.8746 4.19601 30.879 4.10685C30.8816 4.05247 30.9461 4.01263 31.0061 3.99429C31.0662 3.97532 31.12 3.97216 31.1598 4.00251C31.2382 4.06259 31.3116 4.5495 31.3388 4.75122C31.2623 4.76639 31.2161 4.77588 31.1269 4.82204Z" fill="#0155A5"/>
<path fill-rule="evenodd" clip-rule="evenodd" d="M31.4031 4.74362C31.441 4.73983 31.4808 4.7373 31.5207 4.73603C31.4966 4.54317 31.4296 4.2213 31.3904 4.0942C31.3512 3.96773 31.3006 3.87604 31.2178 3.85327C31.2178 3.85327 31.2823 4.0297 31.3177 4.21308C31.3531 4.39583 31.3803 4.57099 31.4031 4.74425V4.74362Z" fill="#0155A5"/>
<path fill-rule="evenodd" clip-rule="evenodd" d="M30.9241 5.3892C31.0904 5.34936 31.2612 5.17167 31.2612 5.17167C30.9924 5.21088 30.9241 5.3892 30.9241 5.3892ZM31.1733 5.37276C30.9412 5.50872 30.6807 5.48722 30.6807 5.48722C30.7306 5.39553 30.778 5.31079 30.9235 5.20645C31.0689 5.10275 31.3061 5.07619 31.399 5.08947C31.3781 5.15903 31.2827 5.30826 31.1726 5.37276H31.1733Z" fill="#0155A5"/>
<path fill-rule="evenodd" clip-rule="evenodd" d="M30.307 5.75474V5.73577C30.0781 5.76485 29.8081 5.75221 29.8081 5.75221C29.8226 5.83758 29.858 5.90208 29.9181 5.94128C29.9327 5.756 30.307 5.75411 30.307 5.75411V5.75474ZM29.5488 5.50938C29.5488 5.50938 29.8372 5.61752 30.1268 5.60297C30.4158 5.58843 30.9476 5.58211 31.1202 5.49927C31.1202 5.49927 31.0918 5.6074 30.9545 5.67C30.9545 5.67 31.0273 5.67 31.0981 5.73197C31.0981 5.73197 31.0564 5.82113 30.9343 5.86919C30.9343 5.86919 31.1544 6.0981 31.3896 6.08103C31.3896 6.08103 31.2815 6.21572 31.0405 6.16387C30.7996 6.11202 30.7225 5.97732 30.6807 5.92484C30.6807 5.92484 30.7124 6.05384 30.6972 6.10569C30.6972 6.10569 30.5909 6.09937 30.5081 5.99503C30.5081 5.99503 30.5688 6.09874 30.5808 6.18663C30.5808 6.18663 30.5151 6.19485 30.3955 6.12466C30.3955 6.12466 30.4208 6.18916 30.4246 6.26378C30.4246 6.26378 30.1458 6.17462 30.0111 6.04752C30.0111 6.04752 30.0092 6.13478 30.0155 6.18474C30.0155 6.18474 29.583 6.1411 29.5501 5.50875L29.5488 5.50938Z" fill="#0155A5"/>
<path fill-rule="evenodd" clip-rule="evenodd" d="M29.482 5.55365C29.4921 5.69087 29.5275 5.82556 29.5756 5.92168C29.5756 5.92168 29.4048 5.79331 29.3637 5.68518C29.322 5.57641 29.3119 5.50243 29.482 5.55428V5.55365Z" fill="#0155A5"/>
<path fill-rule="evenodd" clip-rule="evenodd" d="M29.1407 6.07283C29.1799 6.07283 29.2115 6.04121 29.2115 6.00264C29.2115 5.96406 29.1799 5.93181 29.1407 5.93181C29.1015 5.93181 29.0699 5.96343 29.0699 6.00264C29.0699 6.04184 29.1015 6.07283 29.1407 6.07283ZM29.5568 5.98999C29.6706 6.04184 29.7724 6.16452 29.7724 6.16452C29.5998 6.20436 29.5233 6.25368 29.5233 6.25368C29.1926 6.02097 28.9206 6.25558 28.9206 6.25558C28.7423 6.15377 28.7069 5.90652 28.7961 5.77562C28.8852 5.64472 29.087 5.66749 29.1824 5.69025C29.2425 5.88186 29.4544 5.94383 29.5568 5.98999Z" fill="#0155A5"/>
<path fill-rule="evenodd" clip-rule="evenodd" d="M29.8096 6.20813C29.8096 6.20813 29.9303 6.36811 30.0176 6.43894C30.0176 6.43894 29.5731 6.43514 29.4605 6.81961C29.4605 6.81961 29.3068 6.58438 29.4188 6.43072C29.5402 6.26441 29.6515 6.24354 29.8096 6.20813Z" fill="#0155A5"/>
<path fill-rule="evenodd" clip-rule="evenodd" d="M30.2988 6.30355C30.2988 6.30355 30.4424 6.34528 30.4898 6.3573C30.4898 6.3573 30.4923 6.27446 30.4879 6.23462C30.5315 6.24474 30.5853 6.25991 30.6314 6.26371C30.6314 6.26371 30.775 6.58368 30.8869 6.71268C30.8869 6.71268 30.8932 6.7835 30.8306 6.89163C30.8306 6.89163 30.7497 6.70256 30.6043 6.55079C30.522 6.46479 30.4689 6.42179 30.2988 6.30355Z" fill="#0155A5"/>
<path fill-rule="evenodd" clip-rule="evenodd" d="M29.9199 6.23535C29.9661 6.248 30.195 6.31945 30.3063 6.39976C30.4454 6.49904 30.5409 6.6135 30.5263 6.81079C30.5263 6.81079 30.4144 6.65523 30.2898 6.58441C30.1912 6.52876 30.0135 6.37257 29.9199 6.23535Z" fill="#0155A5"/>
<path fill-rule="evenodd" clip-rule="evenodd" d="M29.9234 4.78784C29.9657 4.78784 30.0479 4.80808 30.0479 4.87574C30.0479 4.9434 29.9417 5.10908 29.9132 5.18243H29.9107C29.8816 5.10908 29.7754 4.94403 29.7754 4.87574C29.7754 4.80744 29.8582 4.78784 29.9 4.78784H29.9234Z" fill="#0155A5"/>
<path fill-rule="evenodd" clip-rule="evenodd" d="M29.8309 5.3197C29.8106 5.22358 29.7727 4.97444 29.7132 4.91942C29.657 4.86694 29.5741 4.86188 29.533 4.86441C29.4913 4.86694 29.4477 4.90994 29.4647 4.96558C29.4818 5.02186 29.6658 5.2982 29.6899 5.33298C29.7329 5.32602 29.724 5.32792 29.8302 5.3197H29.8309Z" fill="#0155A5"/>
<path fill-rule="evenodd" clip-rule="evenodd" d="M29.9932 5.3197C30.014 5.22358 30.0513 4.97444 30.1108 4.91942C30.1664 4.86694 30.2499 4.86188 30.291 4.86441C30.3327 4.86694 30.377 4.90994 30.3593 4.96558C30.3422 5.02186 30.1582 5.2982 30.1342 5.33298C30.0912 5.32602 30.1 5.32792 29.9938 5.3197H29.9932Z" fill="#0155A5"/>
<path fill-rule="evenodd" clip-rule="evenodd" d="M30.1121 4.45267H29.9685V4.29395H29.8522V4.45267H29.708V4.55258H29.8522V4.73975H29.9685V4.55258H30.1121V4.45267Z" fill="#0155A5"/>
<path fill-rule="evenodd" clip-rule="evenodd" d="M28.3725 5.47648C28.3725 5.44613 28.375 5.41578 28.3788 5.38543C28.3902 5.30828 28.3908 5.24188 28.3819 5.1875C28.2789 5.22671 28.2087 5.252 28.0664 5.48154C28.0664 5.48154 28.2934 5.34179 28.3718 5.47648H28.3725Z" fill="#0155A5"/>
<path fill-rule="evenodd" clip-rule="evenodd" d="M28.5706 5.84073C28.5731 5.78381 28.6104 5.60359 28.6578 5.47649C28.716 5.32093 28.6831 5.09455 28.6129 4.95733C28.5453 4.82517 28.5086 4.7006 28.5206 4.56274C28.5206 4.56274 28.3859 4.60764 28.3088 4.65507C28.2961 4.81442 28.3891 4.97314 28.4334 5.0642C28.4858 5.1717 28.4751 5.31082 28.4631 5.39618C28.4435 5.54099 28.4732 5.69529 28.5706 5.84009V5.84073Z" fill="#0155A5"/>
<path fill-rule="evenodd" clip-rule="evenodd" d="M28.5854 4.62344C28.5803 4.60574 28.5803 4.55578 28.5898 4.53555C28.5898 4.53555 28.801 4.3294 28.9794 4.29399C29.0919 4.27122 29.1615 4.32118 29.1937 4.349C29.1937 4.349 29.1311 4.34141 29.0363 4.41856C28.9414 4.49571 28.8238 4.58866 28.734 4.61206C28.6461 4.63546 28.6271 4.62787 28.5848 4.62281L28.5854 4.62344Z" fill="#0155A5"/>
<path fill-rule="evenodd" clip-rule="evenodd" d="M29.2119 4.36416C29.2922 4.44383 29.3586 4.52794 29.3573 4.60066C29.3561 4.67654 29.2682 4.86561 29.222 4.93833C29.1758 5.01105 29.1082 5.10527 29.1164 5.22036C29.1202 5.27791 29.16 5.33671 29.2075 5.3854C29.2075 5.3854 28.9488 5.32407 28.9172 5.16408C28.8894 5.02117 28.9501 4.92063 28.9918 4.84095C29.0304 4.76697 29.1499 4.59307 29.1803 4.52035C29.2075 4.45458 29.222 4.4002 29.2119 4.36353V4.36416Z" fill="#0155A5"/>
<path fill-rule="evenodd" clip-rule="evenodd" d="M30.7256 6.1676C30.7774 6.35035 30.8653 6.52235 30.952 6.65767C31.0297 6.78035 31.0797 6.98081 31.0721 7.0491C31.0721 7.0491 31.1891 6.79047 31.129 6.60835C31.0829 6.46734 30.957 6.25676 30.7256 6.1676Z" fill="#0155A5"/>
<path fill-rule="evenodd" clip-rule="evenodd" d="M31.0176 6.22766C31.0176 6.22766 31.1946 6.23019 31.2781 6.2852C31.385 6.35603 31.4868 6.50969 31.5254 6.69434C31.5254 6.69434 31.3458 6.66335 31.2572 6.57482C31.1687 6.48629 31.0593 6.3535 31.0176 6.22766Z" fill="#0155A5"/>
<path fill-rule="evenodd" clip-rule="evenodd" d="M30.0978 6.54834C30.0637 6.5515 29.9726 6.57174 29.9277 6.58502C29.9277 6.58502 30.0795 6.62928 30.1547 6.69188C30.2192 6.745 30.2749 6.82721 30.3008 6.96569C30.3375 7.15856 30.4513 7.36723 30.4855 7.42984L30.4994 7.42668C30.4779 7.29388 30.5614 7.01754 30.5822 6.97834C30.5822 6.97834 30.4627 6.90246 30.4077 6.82468C30.3672 6.76713 30.2958 6.67102 30.0978 6.54834Z" fill="#0155A5"/>
<path fill-rule="evenodd" clip-rule="evenodd" d="M30.8849 6.96313C30.9291 7.06494 31.0461 7.24453 30.9911 7.43234C30.9361 7.62015 30.814 7.70109 30.7382 7.85981C30.7382 7.85981 30.6781 7.57272 30.6914 7.3514C30.704 7.13008 30.785 7.04408 30.8842 6.96313H30.8849Z" fill="#0155A5"/>
<path fill-rule="evenodd" clip-rule="evenodd" d="M31.2263 6.9707C31.2263 6.9707 31.4027 7.31344 31.435 7.44813C31.466 7.58092 31.4375 7.66945 31.3774 7.75039C31.3174 7.83133 31.2162 7.91733 31.1226 8.0868C31.1226 8.0868 31.0132 7.94326 30.9999 7.86801C30.9873 7.79213 31.0081 7.61254 31.0315 7.53666C31.0549 7.46141 31.1485 7.21858 31.2269 6.97134L31.2263 6.9707Z" fill="#0155A5"/>
<path fill-rule="evenodd" clip-rule="evenodd" d="M31.3174 8.0647C31.2781 8.10643 31.072 8.35431 31.0442 8.42703C31.0164 8.49975 30.9689 8.63634 31.0328 8.7312C31.0973 8.82605 31.244 8.97781 31.373 9.04231C31.373 9.04231 31.2339 8.82478 31.2478 8.64583C31.2566 8.532 31.3452 8.4302 31.3616 8.36C31.3787 8.29045 31.3673 8.17346 31.3174 8.0647Z" fill="#0155A5"/>
<path fill-rule="evenodd" clip-rule="evenodd" d="M30.9128 7.92749C30.9444 7.97175 31 8.07799 31.007 8.18233C31.0146 8.28414 30.9981 8.36697 30.9419 8.51747C30.871 8.70655 30.7616 8.91775 30.711 9.0126C30.711 9.0126 30.6137 8.87412 30.5605 8.75018C30.5605 8.75018 30.7123 8.54277 30.7768 8.39606C30.8521 8.22343 30.8837 8.06345 30.9128 7.92749Z" fill="#0155A5"/>
<path fill-rule="evenodd" clip-rule="evenodd" d="M30.8424 7.84717C30.8424 7.84717 30.7773 8.33471 30.4902 8.69705C30.296 8.9424 30.138 9.02713 30.0336 9.02713C29.8762 9.02713 29.7181 8.89561 29.6643 8.74574C29.6112 8.59524 29.6277 8.3619 29.7301 8.2797C29.7301 8.2797 29.8249 8.57247 30.0267 8.58322C30.2549 8.59587 30.549 8.3404 30.8424 7.8478V7.84717Z" fill="#0155A5"/>
<path fill-rule="evenodd" clip-rule="evenodd" d="M30.6067 7.64355C30.6307 7.73082 30.6383 7.86488 30.6067 7.99072C30.5827 8.0862 30.5245 8.21204 30.4119 8.28223C30.3152 8.34293 30.0863 8.35748 29.999 8.14122C29.999 8.14122 30.4164 8.17283 30.6061 7.64355H30.6067Z" fill="#0155A5"/>
<path fill-rule="evenodd" clip-rule="evenodd" d="M31.2907 9.61011C31.3476 9.75681 31.5525 9.94209 31.5512 10.0565C31.5474 10.3601 31.4153 10.546 31.3837 10.6459C31.3837 10.6459 31.1408 10.453 31.0972 10.2317C31.0757 10.1185 31.101 9.77831 31.2907 9.61011Z" fill="#0155A5"/>
<path fill-rule="evenodd" clip-rule="evenodd" d="M31.0187 9.82447C31.0471 9.74605 31.1363 9.53169 31.24 9.45644C31.24 9.45644 31.3728 9.06691 30.9472 8.82788C30.9472 8.82788 30.7727 9.05995 30.7259 9.27748C30.6791 9.49564 30.9112 9.62717 31.0187 9.82383V9.82447Z" fill="#0155A5"/>
<path fill-rule="evenodd" clip-rule="evenodd" d="M30.4864 8.84253C30.4181 8.9241 30.3213 9.03856 30.2467 9.0746C30.2467 9.0746 30.2214 9.2485 30.236 9.36359C30.2575 9.53495 30.3681 9.71011 30.4149 9.83911C30.4149 9.83911 30.6008 9.59629 30.6223 9.45338C30.6438 9.31047 30.64 9.19285 30.647 9.12456C30.647 9.12456 30.5433 8.95635 30.4864 8.84253Z" fill="#0155A5"/>
<path fill-rule="evenodd" clip-rule="evenodd" d="M29.9963 9.67527C29.9438 9.59559 29.773 9.30091 29.7705 9.08655C29.7705 9.08655 29.9804 9.19784 30.1556 9.11627C30.1556 9.11627 30.179 9.3945 30.1449 9.48872C30.1177 9.56524 30.081 9.61077 29.9956 9.67527H29.9963Z" fill="#0155A5"/>
<path fill-rule="evenodd" clip-rule="evenodd" d="M30.0456 9.73474C30.0797 9.70502 30.1632 9.62787 30.1973 9.5874C30.1973 9.5874 30.3364 9.84224 30.3598 9.91686C30.3598 9.91686 30.2903 9.93456 30.2138 9.87892C30.1372 9.82327 30.1202 9.80936 30.0449 9.73474H30.0456Z" fill="#0155A5"/>
<path fill-rule="evenodd" clip-rule="evenodd" d="M30.6899 9.58545C30.6729 9.64995 30.4478 9.96233 30.4092 10.0009C30.4092 10.0009 30.4269 10.1141 30.5097 10.2772C30.5932 10.4398 30.7089 10.5536 30.7703 10.6111C30.7703 10.6111 30.9087 10.3689 30.9505 10.2621C30.9973 10.14 30.9922 10.0199 30.9713 9.97561C30.9245 9.87064 30.7614 9.71887 30.6893 9.58608L30.6899 9.58545Z" fill="#0155A5"/>
<path fill-rule="evenodd" clip-rule="evenodd" d="M31.027 10.4031C31.0763 10.5036 31.2268 10.6687 31.2496 10.799C31.2679 10.9014 31.2515 10.9855 31.2237 11.0557C31.1959 11.1265 31.1061 11.2631 31.046 11.3681C31.046 11.3681 30.8411 11.1746 30.7956 11.0361C30.7614 10.9317 30.7741 10.7831 30.8234 10.6915C30.8727 10.5998 30.9796 10.4986 31.0264 10.4025L31.027 10.4031Z" fill="#0155A5"/>
<path fill-rule="evenodd" clip-rule="evenodd" d="M30.4459 10.3752C30.4997 10.491 30.6261 10.6073 30.6559 10.7091C30.69 10.8293 30.7008 10.9058 30.6432 11.0455C30.5914 11.1688 30.5294 11.2403 30.5079 11.3149C30.5079 11.3149 30.341 11.0993 30.3138 11.0089C30.2859 10.9191 30.2771 10.7711 30.3112 10.6769C30.346 10.5827 30.4055 10.46 30.4459 10.3752Z" fill="#0155A5"/>
<path fill-rule="evenodd" clip-rule="evenodd" d="M31.2666 11.1974C31.2666 11.1974 30.9795 11.5439 30.9865 11.7279C30.9947 11.9568 31.1471 12.1092 31.1686 12.2503C31.1686 12.2503 31.3191 12.0801 31.376 11.9657C31.4405 11.8373 31.4892 11.7279 31.4727 11.5825C31.455 11.437 31.4165 11.3428 31.2666 11.1974Z" fill="#0155A5"/>
<path fill-rule="evenodd" clip-rule="evenodd" d="M30.7384 11.1626C30.7833 11.229 30.9123 11.4554 30.8756 11.5907C30.8395 11.7254 30.6979 11.9157 30.6511 11.9973C30.6511 11.9973 30.5373 11.764 30.512 11.6571C30.4867 11.5502 30.5101 11.377 30.739 11.1626H30.7384Z" fill="#0155A5"/>
<path fill-rule="evenodd" clip-rule="evenodd" d="M33.6087 5.4391C33.6087 5.41002 33.4778 5.38599 33.3166 5.38599C33.1553 5.38599 33.0244 5.40938 33.0244 5.4391C33.0244 5.46882 33.1553 5.49222 33.3166 5.49222C33.4778 5.49222 33.6087 5.46882 33.6087 5.4391Z" fill="#0155A5"/>
<path fill-rule="evenodd" clip-rule="evenodd" d="M31.6159 4.54128C31.6348 4.41038 31.7866 4.13151 31.7866 4.00947C31.7866 3.91335 31.7088 3.83557 31.6133 3.83557C31.5179 3.83557 31.4395 3.91335 31.4395 4.00947C31.4395 4.13151 31.5912 4.41038 31.6102 4.54128H31.6159Z" fill="#0155A5"/>
<path fill-rule="evenodd" clip-rule="evenodd" d="M32.1005 4.82204C32.2523 4.4616 32.3528 4.19601 32.3484 4.10685C32.3452 4.05247 32.282 4.01263 32.2213 3.99429C32.1606 3.97532 32.1075 3.97216 32.0676 4.00251C31.9886 4.06259 31.9159 4.5495 31.8887 4.75122C31.9658 4.76639 32.012 4.77588 32.1005 4.82204Z" fill="#0155A5"/>
<path fill-rule="evenodd" clip-rule="evenodd" d="M31.825 4.74362C31.7864 4.73983 31.7472 4.7373 31.708 4.73603C31.732 4.54317 31.7978 4.2213 31.8376 4.0942C31.8768 3.96773 31.9268 3.87604 32.0103 3.85327C32.0103 3.85327 31.9458 4.0297 31.9104 4.21308C31.8756 4.39583 31.8484 4.57099 31.825 4.74425V4.74362Z" fill="#0155A5"/>
<path fill-rule="evenodd" clip-rule="evenodd" d="M31.9663 5.17106C31.9663 5.17106 32.1364 5.34939 32.3033 5.38859C32.3033 5.38859 32.2344 5.20964 31.9663 5.17106ZM31.8271 5.08886C31.9201 5.07558 32.1572 5.10214 32.3033 5.20584C32.4487 5.31018 32.4962 5.39492 32.5461 5.48661C32.5461 5.48661 32.2856 5.50811 32.0535 5.37215C31.9441 5.30765 31.8486 5.15842 31.8271 5.08886Z" fill="#0155A5"/>
<path fill-rule="evenodd" clip-rule="evenodd" d="M33.3091 5.94189C33.3692 5.90269 33.4046 5.83755 33.4185 5.75282C33.4185 5.75282 33.1485 5.76547 32.9202 5.73638V5.75535C32.9202 5.75535 33.2939 5.75724 33.3085 5.94252L33.3091 5.94189ZM33.213 6.18535C33.2199 6.13539 33.2174 6.04813 33.2174 6.04813C33.0821 6.1746 32.8038 6.26439 32.8038 6.26439C32.8083 6.18977 32.8329 6.12527 32.8329 6.12527C32.7147 6.1961 32.6476 6.18724 32.6476 6.18724C32.6603 6.09998 32.7204 5.99564 32.7204 5.99564C32.6375 6.09935 32.5313 6.1063 32.5313 6.1063C32.5167 6.05445 32.5477 5.92545 32.5477 5.92545C32.506 5.9773 32.4288 6.11263 32.1879 6.16448C31.9464 6.21633 31.8389 6.08164 31.8389 6.08164C32.0741 6.09808 32.2942 5.8698 32.2942 5.8698C32.1715 5.82174 32.1297 5.73258 32.1297 5.73258C32.2006 5.67061 32.2733 5.67061 32.2733 5.67061C32.1361 5.60801 32.107 5.49988 32.107 5.49988C32.2796 5.58272 32.8114 5.58904 33.1004 5.60358C33.3894 5.61813 33.6784 5.51 33.6784 5.51C33.6449 6.14171 33.213 6.18598 33.213 6.18598V6.18535Z" fill="#0155A5"/>
<path fill-rule="evenodd" clip-rule="evenodd" d="M33.745 5.55365C33.7348 5.69087 33.6994 5.82556 33.6514 5.92168C33.6514 5.92168 33.8215 5.79331 33.8632 5.68518C33.9049 5.57641 33.9157 5.50243 33.745 5.55428V5.55365Z" fill="#0155A5"/>
<path fill-rule="evenodd" clip-rule="evenodd" d="M34.1566 6.00264C34.1566 5.96343 34.125 5.93181 34.0858 5.93181C34.0466 5.93181 34.0156 5.96343 34.0156 6.00264C34.0156 6.04184 34.0479 6.07283 34.0858 6.07283C34.1238 6.07283 34.1566 6.04121 34.1566 6.00264ZM34.0441 5.69025C34.1402 5.66749 34.3413 5.64472 34.4305 5.77562C34.5202 5.90652 34.4848 6.15377 34.3065 6.25558C34.3065 6.25558 34.034 6.02097 33.7039 6.25368C33.7039 6.25368 33.6267 6.20372 33.4541 6.16452C33.4541 6.16452 33.5559 6.04184 33.6704 5.98999C33.7722 5.94383 33.984 5.88186 34.0441 5.69025Z" fill="#0155A5"/>
<path fill-rule="evenodd" clip-rule="evenodd" d="M33.4174 6.20813C33.4174 6.20813 33.2966 6.36811 33.21 6.43894C33.21 6.43894 33.6545 6.43514 33.7671 6.81961C33.7671 6.81961 33.9207 6.58438 33.8082 6.43072C33.6874 6.26441 33.5755 6.24354 33.4174 6.20813Z" fill="#0155A5"/>
<path fill-rule="evenodd" clip-rule="evenodd" d="M32.9281 6.30355C32.9281 6.30355 32.7846 6.34528 32.7371 6.3573C32.7371 6.3573 32.7346 6.27446 32.739 6.23462C32.6954 6.24474 32.641 6.25991 32.5955 6.26371C32.5955 6.26371 32.4519 6.58368 32.34 6.71268C32.34 6.71268 32.3337 6.7835 32.3963 6.89163C32.3963 6.89163 32.4772 6.70256 32.6227 6.55079C32.7049 6.46479 32.758 6.42179 32.9281 6.30355Z" fill="#0155A5"/>
<path fill-rule="evenodd" clip-rule="evenodd" d="M33.3068 6.23535C33.2606 6.248 33.031 6.31945 32.9204 6.39976C32.7813 6.49904 32.6852 6.6135 32.6997 6.81079C32.6997 6.81079 32.8123 6.65523 32.9368 6.58441C33.0355 6.52876 33.2132 6.37257 33.3074 6.23535H33.3068Z" fill="#0155A5"/>
<path fill-rule="evenodd" clip-rule="evenodd" d="M33.3039 4.78784C33.2615 4.78784 33.1787 4.80808 33.1787 4.87574C33.1787 4.9434 33.2856 5.10908 33.314 5.18243H33.3166C33.345 5.10908 33.4519 4.94403 33.4519 4.87574C33.4519 4.80744 33.3697 4.78784 33.3267 4.78784H33.3039Z" fill="#0155A5"/>
<path fill-rule="evenodd" clip-rule="evenodd" d="M33.3965 5.3197C33.4167 5.22358 33.454 4.97444 33.5141 4.91942C33.5704 4.86694 33.6526 4.86188 33.6943 4.86441C33.7361 4.86694 33.7797 4.90994 33.7626 4.96558C33.7455 5.02186 33.5609 5.2982 33.5369 5.33298C33.4939 5.32602 33.5027 5.32792 33.3965 5.3197Z" fill="#0155A5"/>
<path fill-rule="evenodd" clip-rule="evenodd" d="M33.2338 5.3197C33.2142 5.22358 33.1762 4.97444 33.1168 4.91942C33.0605 4.86694 32.9777 4.86188 32.9359 4.86441C32.8948 4.86694 32.8506 4.90994 32.8683 4.96558C32.8853 5.02186 33.0694 5.2982 33.094 5.33298C33.137 5.32602 33.1282 5.32792 33.2338 5.3197Z" fill="#0155A5"/>
<path fill-rule="evenodd" clip-rule="evenodd" d="M33.1152 4.45267H33.2581V4.29395H33.3745V4.45267H33.518V4.55258H33.3745V4.73975H33.2581V4.55258H33.1152V4.45267Z" fill="#0155A5"/>
<path fill-rule="evenodd" clip-rule="evenodd" d="M31.3906 3.51299H31.5335V3.35364H31.6499V3.51299H31.7941V3.6129H31.6499V3.80008H31.5335V3.6129H31.3906V3.51299Z" fill="#0155A5"/>
<path fill-rule="evenodd" clip-rule="evenodd" d="M34.8552 5.47648C34.8552 5.44613 34.8527 5.41578 34.8489 5.38543C34.8381 5.30828 34.8369 5.24188 34.8457 5.1875C34.9488 5.22671 35.019 5.252 35.1606 5.48154C35.1606 5.48154 34.9342 5.34179 34.8552 5.47648Z" fill="#0155A5"/>
<path fill-rule="evenodd" clip-rule="evenodd" d="M34.6563 5.84073C34.6538 5.78381 34.6165 5.60359 34.569 5.47649C34.5109 5.32093 34.5437 5.09455 34.6133 4.95733C34.681 4.82517 34.7183 4.7006 34.7056 4.56274C34.7056 4.56274 34.8403 4.60764 34.9175 4.65507C34.9301 4.81442 34.8371 4.97314 34.7929 5.0642C34.7404 5.1717 34.7511 5.31082 34.7632 5.39618C34.7828 5.54099 34.753 5.69529 34.6557 5.84009L34.6563 5.84073Z" fill="#0155A5"/>
<path fill-rule="evenodd" clip-rule="evenodd" d="M34.6422 4.62344C34.6472 4.60574 34.6472 4.55578 34.6371 4.53555C34.6371 4.53555 34.4259 4.3294 34.2482 4.29399C34.1356 4.27122 34.0661 4.32118 34.0332 4.349C34.0332 4.349 34.0958 4.34141 34.19 4.41856C34.2849 4.49571 34.4025 4.58866 34.4923 4.61206C34.5802 4.63546 34.5998 4.62787 34.6422 4.62281V4.62344Z" fill="#0155A5"/>
<path fill-rule="evenodd" clip-rule="evenodd" d="M34.0156 4.36416C33.9359 4.44383 33.8689 4.52794 33.8701 4.60066C33.872 4.67654 33.9587 4.86561 34.0055 4.93833C34.0516 5.01105 34.1193 5.10527 34.1111 5.22036C34.1066 5.27791 34.0674 5.33671 34.02 5.3854C34.02 5.3854 34.2793 5.32407 34.3109 5.16408C34.3387 5.02117 34.278 4.92063 34.2363 4.84095C34.1971 4.76697 34.0782 4.59307 34.0478 4.52035C34.0206 4.45458 34.0061 4.4002 34.0156 4.36353V4.36416Z" fill="#0155A5"/>
<path fill-rule="evenodd" clip-rule="evenodd" d="M32.5019 6.1676C32.45 6.35035 32.3615 6.52235 32.2749 6.65767C32.1964 6.78035 32.1471 6.98081 32.1547 7.0491C32.1547 7.0491 32.0371 6.79047 32.0972 6.60835C32.1433 6.46734 32.2685 6.25676 32.5012 6.1676H32.5019Z" fill="#0155A5"/>
<path fill-rule="evenodd" clip-rule="evenodd" d="M32.2089 6.22766C32.2089 6.22766 32.0319 6.23019 31.9484 6.2852C31.8422 6.35603 31.7397 6.50969 31.7012 6.69434C31.7012 6.69434 31.8814 6.66335 31.9693 6.57482C32.0578 6.48629 32.1678 6.3535 32.2089 6.22766Z" fill="#0155A5"/>
<path fill-rule="evenodd" clip-rule="evenodd" d="M33.1298 6.54834C33.1633 6.5515 33.2544 6.57174 33.2987 6.58502C33.2987 6.58502 33.1475 6.62928 33.0723 6.69188C33.0078 6.745 32.9521 6.82721 32.9262 6.96569C32.8895 7.15856 32.7751 7.36723 32.7409 7.42984L32.727 7.42668C32.7479 7.29388 32.6644 7.01754 32.6436 6.97834C32.6436 6.97834 32.7637 6.90246 32.8187 6.82468C32.8586 6.76713 32.9306 6.67102 33.1286 6.54834H33.1298Z" fill="#0155A5"/>
<path fill-rule="evenodd" clip-rule="evenodd" d="M32.3427 6.96313C32.2984 7.06494 32.1814 7.24453 32.2358 7.43234C32.2908 7.62015 32.4135 7.70109 32.4888 7.85981C32.4888 7.85981 32.5488 7.57272 32.5355 7.3514C32.5223 7.13008 32.442 7.04408 32.3427 6.96313Z" fill="#0155A5"/>
<path fill-rule="evenodd" clip-rule="evenodd" d="M31.616 7.48856C31.6236 7.37916 31.8785 7.11421 31.8658 6.97067C31.8525 6.82712 31.6622 6.72531 31.6148 6.70508H31.6122C31.5654 6.72595 31.3745 6.82775 31.3618 6.97067C31.3486 7.11421 31.6034 7.37916 31.611 7.48856H31.616Z" fill="#0155A5"/>
<path fill-rule="evenodd" clip-rule="evenodd" d="M32.0006 6.9707C32.0006 6.9707 31.8242 7.31344 31.792 7.44813C31.761 7.58092 31.7894 7.66945 31.8495 7.75039C31.9089 7.83133 32.0107 7.91733 32.105 8.0868C32.105 8.0868 32.2144 7.94326 32.2276 7.86801C32.2403 7.79213 32.2201 7.61254 32.196 7.53666C32.1726 7.46141 32.079 7.21858 32.0006 6.97134V6.9707Z" fill="#0155A5"/>
<path fill-rule="evenodd" clip-rule="evenodd" d="M31.6157 8.29607C31.6966 8.22651 31.7681 8.12281 31.7908 8.06147C31.813 8.00013 31.8193 7.91034 31.7655 7.84141C31.7017 7.7592 31.6207 7.66815 31.615 7.5929H31.6112C31.6055 7.66751 31.5252 7.7592 31.4614 7.84141C31.4076 7.9097 31.4139 8.00013 31.4367 8.06147C31.4588 8.12281 31.5316 8.22588 31.6125 8.29607H31.6157Z" fill="#0155A5"/>
<path fill-rule="evenodd" clip-rule="evenodd" d="M31.9105 8.0647C31.9491 8.10643 32.1552 8.35431 32.1837 8.42703C32.2115 8.49975 32.2589 8.63634 32.1944 8.7312C32.1305 8.82605 31.9838 8.97781 31.8555 9.04231C31.8555 9.04231 31.9946 8.82478 31.9807 8.64583C31.9718 8.532 31.8833 8.4302 31.8662 8.36C31.8491 8.29045 31.8612 8.17346 31.9105 8.0647Z" fill="#0155A5"/>
<path fill-rule="evenodd" clip-rule="evenodd" d="M32.3143 7.92749C32.2827 7.97175 32.2271 8.07799 32.2195 8.18233C32.2119 8.28414 32.229 8.36697 32.2852 8.51747C32.3554 8.70655 32.4648 8.91775 32.516 9.0126C32.516 9.0126 32.6128 8.87412 32.6659 8.75018C32.6659 8.75018 32.5141 8.54277 32.4496 8.39606C32.3744 8.22343 32.3428 8.06345 32.3137 7.92749H32.3143Z" fill="#0155A5"/>
<path fill-rule="evenodd" clip-rule="evenodd" d="M32.3848 7.84717C32.3848 7.84717 32.4499 8.33471 32.737 8.69705C32.9311 8.9424 33.0892 9.02713 33.1935 9.02713C33.3516 9.02713 33.5091 8.89561 33.5628 8.74574C33.616 8.59524 33.5995 8.3619 33.4971 8.2797C33.4971 8.2797 33.4022 8.57247 33.2005 8.58322C32.9722 8.59587 32.6782 8.3404 32.3848 7.8478V7.84717Z" fill="#0155A5"/>
<path fill-rule="evenodd" clip-rule="evenodd" d="M32.6206 7.64355C32.5965 7.73082 32.589 7.86488 32.6206 7.99072C32.6446 8.0862 32.7028 8.21204 32.8147 8.28223C32.9121 8.34293 33.1397 8.35748 33.2276 8.14122C33.2276 8.14122 32.8103 8.17283 32.6206 7.64355Z" fill="#0155A5"/>
<path fill-rule="evenodd" clip-rule="evenodd" d="M31.6134 9.09163C31.6729 9.06381 31.7228 9.04231 31.7905 8.9386C31.8436 8.85703 31.8942 8.70653 31.8657 8.59966C31.8303 8.46687 31.7582 8.41375 31.7152 8.33154C31.6798 8.36443 31.6583 8.38972 31.6147 8.41501H31.6122C31.5692 8.38972 31.5464 8.36443 31.5104 8.33154C31.4674 8.41438 31.3959 8.4675 31.3605 8.59966C31.3327 8.70653 31.3826 8.85703 31.4357 8.9386C31.5034 9.04231 31.5534 9.06317 31.6128 9.09163H31.6134Z" fill="#0155A5"/>
<path fill-rule="evenodd" clip-rule="evenodd" d="M31.6136 9.91369C31.6421 9.7847 31.9121 9.53492 31.8875 9.39896C31.8501 9.19534 31.7192 9.23834 31.6155 9.15234H31.6136C31.5099 9.23834 31.3771 9.19534 31.3405 9.39896C31.3158 9.53492 31.5839 9.7847 31.613 9.91369H31.6143H31.6136Z" fill="#0155A5"/>
<path fill-rule="evenodd" clip-rule="evenodd" d="M31.9369 9.61011C31.8794 9.75681 31.6745 9.94209 31.6758 10.0565C31.6789 10.3601 31.8117 10.546 31.8434 10.6459C31.8434 10.6459 32.0862 10.453 32.1292 10.2317C32.1507 10.1185 32.126 9.77831 31.9369 9.61011Z" fill="#0155A5"/>
<path fill-rule="evenodd" clip-rule="evenodd" d="M32.2085 9.82447C32.1801 9.74605 32.0909 9.53169 31.9872 9.45644C31.9872 9.45644 31.855 9.06691 32.28 8.82788C32.28 8.82788 32.4551 9.05995 32.5019 9.27748C32.5481 9.49564 32.3167 9.62717 32.2085 9.82383V9.82447Z" fill="#0155A5"/>
<path fill-rule="evenodd" clip-rule="evenodd" d="M32.741 8.84253C32.8087 8.9241 32.9055 9.03856 32.9807 9.0746C32.9807 9.0746 33.0054 9.2485 32.9914 9.36359C32.9699 9.53495 32.8593 9.71011 32.8131 9.83911C32.8131 9.83911 32.6272 9.59629 32.6057 9.45338C32.5842 9.31047 32.588 9.19285 32.5811 9.12456C32.5811 9.12456 32.6848 8.95635 32.7417 8.84253H32.741Z" fill="#0155A5"/>
<path fill-rule="evenodd" clip-rule="evenodd" d="M33.2302 9.67527C33.2827 9.59559 33.454 9.30091 33.4559 9.08655C33.4559 9.08655 33.246 9.19784 33.0702 9.11627C33.0702 9.11627 33.0468 9.3945 33.0816 9.48872C33.1088 9.56524 33.1448 9.61077 33.2302 9.67527Z" fill="#0155A5"/>
<path fill-rule="evenodd" clip-rule="evenodd" d="M33.1821 9.73474C33.1473 9.70502 33.0638 9.62787 33.0297 9.5874C33.0297 9.5874 32.8906 9.84224 32.8672 9.91686C32.8672 9.91686 32.9367 9.93456 33.0133 9.87892C33.0891 9.82327 33.1068 9.80936 33.1821 9.73474Z" fill="#0155A5"/>
<path fill-rule="evenodd" clip-rule="evenodd" d="M32.538 9.58545C32.5551 9.64995 32.7802 9.96233 32.8182 10.0009C32.8182 10.0009 32.8011 10.1141 32.7176 10.2772C32.6342 10.4398 32.5191 10.5536 32.4565 10.6111C32.4565 10.6111 32.318 10.3689 32.2762 10.2621C32.2295 10.14 32.2351 10.0199 32.2547 9.97561C32.3015 9.87064 32.4647 9.71887 32.5374 9.58608L32.538 9.58545Z" fill="#0155A5"/>
<path fill-rule="evenodd" clip-rule="evenodd" d="M31.6154 11.4345C31.6369 11.3485 31.7665 11.2473 31.8209 11.0987C31.8531 11.0108 31.8519 10.9077 31.8164 10.8369C31.776 10.7553 31.6305 10.5549 31.6135 10.4967C31.5958 10.5549 31.4516 10.7553 31.4111 10.8369C31.3763 10.9071 31.3744 11.0102 31.4073 11.0987C31.4611 11.2473 31.5907 11.3485 31.6122 11.4345H31.616H31.6154Z" fill="#0155A5"/>
<path fill-rule="evenodd" clip-rule="evenodd" d="M32.2001 10.4031C32.1508 10.5036 32.0009 10.6687 31.9775 10.799C31.9592 10.9014 31.9756 10.9855 32.0028 11.0557C32.0306 11.1265 32.121 11.2631 32.1805 11.3681C32.1805 11.3681 32.3854 11.1746 32.4303 11.0361C32.465 10.9317 32.4524 10.7831 32.4031 10.6915C32.3531 10.5998 32.2469 10.4986 32.1994 10.4025L32.2001 10.4031Z" fill="#0155A5"/>
<path fill-rule="evenodd" clip-rule="evenodd" d="M32.7819 10.3752C32.7282 10.491 32.6011 10.6073 32.572 10.7091C32.5379 10.8293 32.5271 10.9058 32.5847 11.0455C32.6359 11.1688 32.6978 11.2403 32.7193 11.3149C32.7193 11.3149 32.8863 11.0993 32.9141 11.0089C32.9426 10.9191 32.9508 10.7711 32.9166 10.6769C32.8819 10.5827 32.8224 10.46 32.7813 10.3752H32.7819Z" fill="#0155A5"/>
<path fill-rule="evenodd" clip-rule="evenodd" d="M31.6138 13.0912C31.6246 12.9856 31.8427 12.6587 31.8535 12.3121C31.8592 12.1389 31.7036 11.867 31.6157 11.7645H31.6113C31.5234 11.8676 31.3691 12.1389 31.3741 12.3121C31.3849 12.6593 31.6024 12.9856 31.6132 13.0912H31.6138Z" fill="#0155A5"/>
<path fill-rule="evenodd" clip-rule="evenodd" d="M31.9598 11.1974C31.9598 11.1974 32.2469 11.5439 32.2406 11.7279C32.2324 11.9568 32.08 12.1092 32.0585 12.2503C32.0585 12.2503 31.908 12.0801 31.8511 11.9657C31.7872 11.8373 31.7379 11.7279 31.7556 11.5825C31.7727 11.437 31.8112 11.3428 31.9605 11.1974H31.9598Z" fill="#0155A5"/>
<path fill-rule="evenodd" clip-rule="evenodd" d="M32.4883 11.1626C32.4427 11.229 32.315 11.4554 32.3511 11.5907C32.3877 11.7254 32.5287 11.9157 32.5762 11.9973C32.5762 11.9973 32.6894 11.764 32.7153 11.6571C32.7406 11.5502 32.7172 11.377 32.4883 11.1626Z" fill="#0155A5"/>
<path fill-rule="evenodd" clip-rule="evenodd" d="M31.8097 13.6477C31.8267 13.3784 31.9798 13.2165 32.0063 13.0767C32.036 12.9231 32.0259 12.7751 31.9064 12.5974C31.8097 12.9288 31.7028 13.171 31.6193 13.3379C31.6174 13.3423 31.6155 13.3467 31.613 13.3518C31.6111 13.3467 31.6092 13.3423 31.6073 13.3379C31.5238 13.171 31.4163 12.9288 31.3202 12.5974C31.2007 12.7751 31.19 12.9224 31.2197 13.0767C31.2469 13.2171 31.3999 13.3784 31.4163 13.6477C31.4334 13.9178 31.1299 14.0208 31.1299 14.0208C31.2323 14.0575 31.3487 14.074 31.534 13.8982C31.5681 13.8659 31.594 13.8311 31.613 13.7945C31.6326 13.8311 31.6579 13.8665 31.692 13.8982C31.8773 14.0733 31.9937 14.0569 32.0961 14.0208C32.0961 14.0208 31.7926 13.9178 31.8097 13.6477Z" fill="#0155A5"/>
<path fill-rule="evenodd" clip-rule="evenodd" d="M30.854 11.855C30.8863 11.9555 30.9805 12.1414 30.9925 12.199C31.0153 12.3058 30.9849 12.4355 30.7895 12.5727C30.7895 12.5727 30.663 12.4848 30.6131 12.3684C30.5663 12.2597 30.5935 12.1832 30.6422 12.1269C30.6902 12.07 30.8047 11.9397 30.8534 11.855H30.854Z" fill="#0155A5"/>
<path fill-rule="evenodd" clip-rule="evenodd" d="M31.2638 12.2534C31.2638 12.3078 31.2233 12.6126 31.1367 12.7644C31.0153 12.9768 30.8357 13.1355 30.6795 13.1355C30.5341 13.1355 30.5037 13.0495 30.4316 13.0135C30.4316 13.0135 30.4683 12.8289 30.6315 12.7802C30.8319 12.7207 31.1392 12.4798 31.2638 12.2534Z" fill="#0155A5"/>
<path fill-rule="evenodd" clip-rule="evenodd" d="M30.7412 12.6423C30.7077 12.6164 30.678 12.5987 30.6375 12.5519C30.6375 12.5519 30.4826 12.6094 30.3555 12.6948C30.2284 12.7802 30.1032 12.9256 30.0361 13.0021C30.0361 13.0021 30.2271 13.0514 30.3479 12.9964C30.3479 12.9964 30.3921 12.8143 30.5275 12.7327C30.5578 12.715 30.6527 12.6872 30.7412 12.6417V12.6423Z" fill="#0155A5"/>
<path fill-rule="evenodd" clip-rule="evenodd" d="M30.5822 12.4861C30.5531 12.4406 30.4924 12.3558 30.5057 12.223C30.5057 12.223 30.2382 12.3919 30.1573 12.457C30.077 12.5221 29.91 12.6948 29.8721 12.7517C29.8721 12.7517 30.0744 12.708 30.23 12.6556C30.4007 12.5986 30.519 12.5221 30.5816 12.4854L30.5822 12.4861Z" fill="#0155A5"/>
<path fill-rule="evenodd" clip-rule="evenodd" d="M30.1289 12.7764C29.9847 12.8276 29.6597 12.8807 29.5244 12.9206C29.3878 12.961 29.2898 13.0312 29.1602 13.1729C29.1602 13.1729 29.3593 13.2285 29.4662 13.262C29.4662 13.262 29.6357 13.1463 29.8216 13.0749C29.9424 13.0287 30.0012 12.9016 30.1296 12.7758L30.1289 12.7764Z" fill="#0155A5"/>
<path fill-rule="evenodd" clip-rule="evenodd" d="M29.8263 13.7337C29.8573 13.6995 29.8965 13.6597 29.8662 13.5794C29.8447 13.5206 29.7271 13.4554 29.6562 13.4213C29.5399 13.3663 29.2174 13.2796 29.1118 13.2487C29.1118 13.2487 29.0593 13.31 29.0315 13.3751C29.0188 13.4004 29.0353 13.4263 29.0808 13.4339C29.1706 13.4491 29.3868 13.4093 29.4393 13.4428C29.4962 13.4801 29.4766 13.5301 29.4766 13.5787C29.4766 13.5787 29.5753 13.5187 29.6373 13.5326C29.7239 13.5516 29.7764 13.5914 29.8257 13.7337H29.8263Z" fill="#0155A5"/>
<path fill-rule="evenodd" clip-rule="evenodd" d="M29.5391 13.2847C29.5625 13.2923 29.6883 13.3309 29.811 13.4086C29.811 13.4086 29.8654 13.3871 29.8919 13.3372C29.9178 13.2891 30.0285 13.126 30.1297 13.1045C30.1297 13.1045 30.0437 13.0963 29.9944 13.0804C29.9944 13.0804 29.8894 13.1076 29.8148 13.1374C29.7402 13.1677 29.6472 13.2132 29.5391 13.2841V13.2847Z" fill="#0155A5"/>
<path fill-rule="evenodd" clip-rule="evenodd" d="M30.3726 13.0792C30.353 13.0887 30.3201 13.1039 30.2448 13.107C30.2448 13.107 29.9603 13.3043 29.9274 13.5004C29.8989 13.6686 29.9875 13.7489 30.0298 13.7704C30.0735 13.7919 30.2714 13.8735 30.4004 13.6079C30.4004 13.6079 30.1803 13.68 30.1209 13.5744C30.0608 13.4688 30.1576 13.3145 30.2177 13.2702C30.2961 13.2114 30.4371 13.1715 30.5231 13.1874C30.5231 13.1874 30.4542 13.1216 30.3726 13.0799V13.0792Z" fill="#0155A5"/>
<path fill-rule="evenodd" clip-rule="evenodd" d="M28.5122 15.3329C28.547 15.1887 28.5849 15.0363 28.6513 14.8966C28.7797 14.6253 29.0946 13.9012 29.751 13.7735C29.8129 13.7615 29.6801 13.6091 29.6213 13.6167C29.5625 13.6236 29.4455 13.6995 29.3937 13.7337C29.3937 13.7337 29.3937 13.5794 29.3924 13.5516C29.3905 13.5237 29.3665 13.5136 29.3406 13.5149C29.3159 13.5149 29.1566 13.5136 29.1066 13.5718C28.9574 13.7444 28.7044 14.2111 28.5615 14.5576C28.418 14.9042 28.32 15.0098 28.1695 14.9566C28.0183 14.9042 27.9285 14.7309 27.6648 14.7834C27.5744 14.8011 27.4726 14.8624 27.3936 14.9528C27.4157 14.9952 27.4435 15.0464 27.5668 15.0464C27.6901 15.0464 27.9241 15.0983 28.0556 15.1893C28.1865 15.2804 28.3244 15.3114 28.5134 15.3316L28.5122 15.3329Z" fill="#0155A5"/>
<path fill-rule="evenodd" clip-rule="evenodd" d="M31.1325 13.09C31.1471 13.2013 31.2008 13.3069 31.2609 13.4156C31.2609 13.4156 31.0611 14.3376 30.3383 14.4091C30.3383 14.4091 30.3528 14.2181 30.5672 14.072C30.7816 13.9266 31.1016 13.7008 31.0782 13.3581C31.0782 13.3581 31.0212 13.3701 30.9188 13.4985C30.8157 13.6268 30.5906 13.998 30.2422 14.0012C30.2422 14.0012 30.2934 13.8273 30.4477 13.7267C30.6026 13.6268 30.7993 13.4985 30.8878 13.3442C30.9757 13.1899 31.0706 13.1191 31.1325 13.0906V13.09Z" fill="#0155A5"/>
<path fill-rule="evenodd" clip-rule="evenodd" d="M30.791 16.4485L31.2305 17.0644L31.5637 16.4712L31.4455 16.26C31.3589 16.4162 31.2653 16.5844 31.2122 16.6761C31.1717 16.6192 31.0604 16.4636 30.9156 16.26L30.791 16.4491V16.4485Z" fill="#0155A5"/>
<path fill-rule="evenodd" clip-rule="evenodd" d="M30.6792 15.9273C30.2511 15.3272 29.7212 14.5842 29.6681 14.5095L29.8344 14.39L29.3096 14.1896L29.3197 14.76L29.4967 14.6329L30.5553 16.117L30.6792 15.9279V15.9273Z" fill="#0155A5"/>
<path fill-rule="evenodd" clip-rule="evenodd" d="M27.0635 12.5569C27.1931 12.4159 27.4125 12.5373 27.6339 12.7415C27.8558 12.9451 27.9956 13.1538 27.8659 13.2948C27.7464 13.4251 27.5169 13.3144 27.2949 13.1108C27.0736 12.9072 26.9338 12.6979 27.0635 12.5575V12.5569Z" fill="#0155A5"/>
<path fill-rule="evenodd" clip-rule="evenodd" d="M27.4201 15.0629C27.4131 15.0572 27.4062 15.0509 27.3992 15.0452C27.2816 14.9421 27.2146 14.7834 27.2146 14.6101C27.2146 14.2769 27.4858 14.0056 27.8191 14.0056C28.1523 14.0056 28.423 14.2769 28.423 14.6101C28.423 14.655 28.4141 14.729 28.4141 14.729C28.442 14.6772 28.5412 14.447 28.5615 14.4053C28.4717 14.0796 28.1726 13.8406 27.8191 13.8406C27.5149 13.8406 27.2512 14.0176 27.1267 14.2737C27.1741 13.9689 27.3259 13.6945 27.4334 13.5933C27.5617 13.4719 27.7805 13.4333 27.7805 13.4333C27.6376 13.4561 27.4479 13.3682 27.2367 13.1741C27.0362 12.9894 26.9319 12.8282 26.9262 12.6935C26.9395 12.8838 26.9332 12.9901 26.8794 13.1443C26.8061 13.3556 26.6062 13.7438 26.6771 14.182C26.7169 14.423 26.8908 14.7815 27.1829 15.0743C27.2449 15.14 27.2689 15.2374 27.2759 15.288C27.2759 15.288 27.7072 15.288 27.809 15.2969C27.809 15.2969 27.9114 15.288 27.9095 15.2242C27.9076 15.1603 27.8513 15.1438 27.8001 15.1438C27.7489 15.1438 27.5352 15.1489 27.4201 15.0635V15.0629Z" fill="#0155A5"/>
<path fill-rule="evenodd" clip-rule="evenodd" d="M29.802 15.209C29.525 15.3095 29.2493 15.362 28.9869 15.4025C28.8161 15.4284 28.6498 15.4379 28.4898 15.4297C28.4924 15.4562 28.4924 15.4916 28.4766 15.5176C28.4766 15.5176 28.5088 15.5549 28.5088 15.5966C28.6713 15.6029 28.8402 15.5935 29.0128 15.5669C29.2993 15.5233 29.6003 15.4645 29.9031 15.3506L29.802 15.2096V15.209Z" fill="#0155A5"/>
<path fill-rule="evenodd" clip-rule="evenodd" d="M30.2562 15.1881C30.6236 14.987 30.9822 14.6778 31.3053 14.1833L31.3635 14.0865C31.2756 14.1258 31.1617 14.0986 31.1617 14.0986C31.1567 14.1068 31.1421 14.1289 31.1352 14.1409C30.8336 14.5867 30.4997 14.8669 30.1582 15.0503L30.2568 15.1881H30.2562Z" fill="#0155A5"/>
<path fill-rule="evenodd" clip-rule="evenodd" d="M27.833 15.3456C27.7824 15.3373 27.6212 15.3411 27.5244 15.3563C27.4188 15.3727 27.2981 15.3949 27.2854 15.4531C27.2734 15.5087 27.312 15.5675 27.3651 15.6516C27.3986 15.7035 27.4764 15.6737 27.5206 15.6573C27.5649 15.6409 27.8128 15.5081 27.8526 15.4638C27.8925 15.4202 27.9095 15.3582 27.833 15.3456Z" fill="#0155A5"/>
<path fill-rule="evenodd" clip-rule="evenodd" d="M28.0869 15.5099C28.0603 15.4929 27.9952 15.4682 27.9282 15.4935C27.8612 15.5188 27.6164 15.663 27.6 15.7306C27.5836 15.7977 27.6171 15.8324 27.655 15.8476C27.6929 15.8628 27.7391 15.8767 27.7726 15.8799C27.834 15.8849 27.894 15.8489 27.925 15.8109C27.9566 15.7724 28.0711 15.6339 28.0875 15.6029C28.104 15.5719 28.1135 15.5264 28.0875 15.5099H28.0869Z" fill="#0155A5"/>
<path fill-rule="evenodd" clip-rule="evenodd" d="M28.1164 15.6618C28.0816 15.7016 27.9817 15.8218 27.9703 15.8414C27.9589 15.861 27.976 15.8919 28.0076 15.8888C28.038 15.8856 28.2062 15.8679 28.3036 15.8015C28.4003 15.7358 28.4648 15.608 28.3984 15.5619C28.332 15.5151 28.229 15.5359 28.1164 15.6618Z" fill="#0155A5"/>
<path fill-rule="evenodd" clip-rule="evenodd" d="M28.1708 15.295C28.1392 15.2874 28.0121 15.2545 27.9842 15.2969C27.9501 15.3493 27.9748 15.4056 28.0734 15.453C28.1721 15.5005 28.3586 15.5384 28.3953 15.4872C28.4319 15.4353 28.3814 15.3487 28.1714 15.295H28.1708Z" fill="#0155A5"/>
<path fill-rule="evenodd" clip-rule="evenodd" d="M32.3725 11.855C32.3402 11.9555 32.246 12.1414 32.234 12.199C32.2112 12.3058 32.2422 12.4355 32.437 12.5727C32.437 12.5727 32.5634 12.4848 32.6134 12.3684C32.6602 12.2597 32.6323 12.1832 32.5837 12.1269C32.535 12.07 32.4211 11.9397 32.3725 11.855Z" fill="#0155A5"/>
<path fill-rule="evenodd" clip-rule="evenodd" d="M31.9629 12.2534C31.9629 12.3078 32.0034 12.6126 32.0906 12.7644C32.212 12.9768 32.391 13.1355 32.5478 13.1355C32.6933 13.1355 32.7236 13.0495 32.7957 13.0135C32.7957 13.0135 32.759 12.8289 32.5959 12.7802C32.3961 12.7207 32.0887 12.4798 31.9635 12.2534H31.9629Z" fill="#0155A5"/>
<path fill-rule="evenodd" clip-rule="evenodd" d="M32.4856 12.6423C32.5198 12.6164 32.5482 12.5987 32.5887 12.5519C32.5887 12.5519 32.7436 12.6094 32.8701 12.6948C32.9972 12.7802 33.1224 12.9256 33.1894 13.0021C33.1894 13.0021 32.9991 13.0514 32.8777 12.9964C32.8777 12.9964 32.8334 12.8143 32.6975 12.7327C32.6678 12.715 32.5729 12.6872 32.4844 12.6417L32.4856 12.6423Z" fill="#0155A5"/>
<path fill-rule="evenodd" clip-rule="evenodd" d="M32.6445 12.4861C32.6736 12.4406 32.7343 12.3558 32.721 12.223C32.721 12.223 32.9892 12.3919 33.0695 12.457C33.1498 12.5221 33.3174 12.6948 33.3547 12.7517C33.3547 12.7517 33.1517 12.708 32.9961 12.6556C32.8248 12.5986 32.7078 12.5221 32.6445 12.4854V12.4861Z" fill="#0155A5"/>
<path fill-rule="evenodd" clip-rule="evenodd" d="M33.0986 12.7764C33.2428 12.8276 33.5672 12.8807 33.7032 12.9206C33.8391 12.961 33.9378 13.0312 34.068 13.1729C34.068 13.1729 33.8688 13.2285 33.762 13.262C33.762 13.262 33.5925 13.1463 33.4066 13.0749C33.2858 13.0287 33.2276 12.9016 33.0986 12.7758V12.7764Z" fill="#0155A5"/>
<path fill-rule="evenodd" clip-rule="evenodd" d="M33.4 13.7337C33.3697 13.6995 33.3305 13.6597 33.3602 13.5794C33.3817 13.5206 33.4993 13.4554 33.5708 13.4213C33.6871 13.3663 34.0102 13.2796 34.1146 13.2487C34.1146 13.2487 34.1671 13.31 34.1949 13.3751C34.2075 13.4004 34.1911 13.4263 34.1456 13.4339C34.0558 13.4491 33.8389 13.4093 33.787 13.4428C33.7301 13.4801 33.7497 13.5301 33.7497 13.5787C33.7497 13.5787 33.6511 13.5187 33.5885 13.5326C33.5018 13.5516 33.4494 13.5914 33.4 13.7337Z" fill="#0155A5"/>
<path fill-rule="evenodd" clip-rule="evenodd" d="M33.6879 13.2847C33.6645 13.2923 33.5387 13.3309 33.4154 13.4086C33.4154 13.4086 33.361 13.3871 33.3344 13.3372C33.3085 13.2891 33.1979 13.126 33.0967 13.1045C33.0967 13.1045 33.182 13.0963 33.232 13.0804C33.232 13.0804 33.337 13.1076 33.4116 13.1374C33.4862 13.1677 33.5792 13.2132 33.6873 13.2841L33.6879 13.2847Z" fill="#0155A5"/>
<path fill-rule="evenodd" clip-rule="evenodd" d="M32.8546 13.0792C32.8742 13.0887 32.9065 13.1039 32.9817 13.107C32.9817 13.107 33.2663 13.3043 33.2998 13.5004C33.3282 13.6686 33.2403 13.7489 33.1973 13.7704C33.1537 13.7919 32.9558 13.8735 32.8274 13.6079C32.8274 13.6079 33.0468 13.68 33.1069 13.5744C33.167 13.4688 33.0702 13.3145 33.0102 13.2702C32.9317 13.2114 32.7907 13.1715 32.7041 13.1874C32.7041 13.1874 32.773 13.1216 32.8552 13.0799L32.8546 13.0792Z" fill="#0155A5"/>
<path fill-rule="evenodd" clip-rule="evenodd" d="M34.7142 15.3329C34.6794 15.1887 34.6415 15.0363 34.5751 14.8966C34.4474 14.6253 34.1324 13.9012 33.4761 13.7735C33.4141 13.7615 33.5469 13.6091 33.6051 13.6167C33.6645 13.6236 33.7815 13.6995 33.8333 13.7337C33.8333 13.7337 33.8333 13.5794 33.8346 13.5516C33.8359 13.5237 33.8605 13.5136 33.8865 13.5149C33.9118 13.5149 34.0705 13.5136 34.1204 13.5718C34.2703 13.7444 34.5226 14.2111 34.6655 14.5576C34.8091 14.9042 34.9071 15.0098 35.0576 14.9566C35.2087 14.9042 35.2991 14.7309 35.5622 14.7834C35.6533 14.8011 35.7538 14.8624 35.8335 14.9528C35.8113 14.9952 35.7835 15.0464 35.6608 15.0464C35.5382 15.0464 35.3029 15.0983 35.172 15.1893C35.0411 15.2804 34.9033 15.3114 34.7142 15.3316V15.3329Z" fill="#0155A5"/>
<path fill-rule="evenodd" clip-rule="evenodd" d="M32.0942 13.09C32.0803 13.2013 32.0259 13.3069 31.9658 13.4156C31.9658 13.4156 32.1656 14.3376 32.8878 14.4091C32.8878 14.4091 32.8732 14.2181 32.6595 14.072C32.4451 13.9266 32.1258 13.7008 32.1479 13.3581C32.1479 13.3581 32.2048 13.3701 32.3079 13.4985C32.411 13.6268 32.6361 13.998 32.9845 14.0012C32.9845 14.0012 32.9333 13.8273 32.779 13.7267C32.6247 13.6268 32.4274 13.4985 32.3395 13.3442C32.2504 13.1899 32.1568 13.1191 32.0936 13.0906L32.0942 13.09Z" fill="#0155A5"/>
<path fill-rule="evenodd" clip-rule="evenodd" d="M31.6152 13.9841C31.6569 14.1074 31.9307 14.4925 32.0502 14.6026C32.1697 14.7126 32.4619 15.0041 32.6168 15.1502C32.6168 15.1502 32.1735 15.0402 31.9244 14.8138C31.9244 14.8138 31.7467 14.9175 31.6171 14.9175H31.6101C31.4805 14.9175 31.3034 14.8138 31.3034 14.8138C31.0543 15.0402 30.6104 15.1502 30.6104 15.1502C30.7659 15.0041 31.0574 14.7126 31.1769 14.6026C31.2965 14.4925 31.5703 14.1074 31.6126 13.9841H31.6152Z" fill="#0155A5"/>
<path fill-rule="evenodd" clip-rule="evenodd" d="M31.6157 15.0073C31.7137 15.0073 31.8073 14.9681 31.8585 14.9459C31.8073 15.056 31.7074 15.2273 31.6138 15.2988H31.6119C31.5177 15.2273 31.419 15.056 31.3672 14.9459C31.419 14.9687 31.5114 15.0073 31.6094 15.0073H31.6157Z" fill="#0155A5"/>
<path fill-rule="evenodd" clip-rule="evenodd" d="M31.9957 17.0636L33.7309 14.6322L33.908 14.7593L33.9181 14.189L33.3932 14.3894L33.5596 14.5089C33.4748 14.6284 32.1772 16.4465 32.0141 16.6754L31.2281 15.2519L31.1313 15.3993L30.4319 16.4559L30.2574 16.339L30.2549 16.9011L30.7854 16.6905L30.6077 16.5729C30.7039 16.4275 31.0833 15.8546 31.2104 15.663L31.9964 17.0636H31.9957Z" fill="#0155A5"/>
<path fill-rule="evenodd" clip-rule="evenodd" d="M32.3125 16.1088C32.1955 15.9324 32.0772 15.7547 32.0178 15.663C31.9735 15.7446 31.8844 15.9045 31.7851 16.0816L31.6611 15.8596L31.9988 15.252L32.0962 15.3993L32.444 15.9248L32.3125 16.1088Z" fill="#0155A5"/>
<path fill-rule="evenodd" clip-rule="evenodd" d="M32.6691 16.2669L32.7943 16.4559L32.9694 16.339L32.9726 16.9011L32.4414 16.6905L32.6185 16.5729C32.6008 16.5457 32.5723 16.5021 32.5375 16.4502L32.6691 16.2662V16.2669Z" fill="#0155A5"/>
<path fill-rule="evenodd" clip-rule="evenodd" d="M36.1641 12.5569C36.0339 12.4159 35.8151 12.5373 35.5931 12.7415C35.3712 12.9451 35.232 13.1538 35.361 13.2948C35.4806 13.4251 35.7101 13.3144 35.9321 13.1108C36.1534 12.9072 36.2931 12.6979 36.1641 12.5575V12.5569Z" fill="#0155A5"/>
<path fill-rule="evenodd" clip-rule="evenodd" d="M35.8058 15.0629C35.8134 15.0572 35.8197 15.0509 35.826 15.0452C35.9437 14.9421 36.0113 14.7834 36.0113 14.6101C36.0113 14.2769 35.74 14.0056 35.4068 14.0056C35.0735 14.0056 34.8029 14.2769 34.8029 14.6101C34.8029 14.655 34.8117 14.729 34.8117 14.729C34.7852 14.6772 34.6853 14.447 34.665 14.4053C34.7548 14.0796 35.0533 13.8406 35.4068 13.8406C35.7116 13.8406 35.9746 14.0176 36.0998 14.2737C36.0524 13.9689 35.9 13.6945 35.7932 13.5933C35.6648 13.4719 35.4454 13.4333 35.4454 13.4333C35.5889 13.4561 35.778 13.3682 35.9898 13.1741C36.1909 12.9894 36.2946 12.8282 36.3003 12.6935C36.2877 12.8838 36.2933 12.9901 36.3471 13.1443C36.4204 13.3556 36.6196 13.7438 36.5488 14.182C36.5096 14.423 36.3351 14.7815 36.0436 15.0743C35.981 15.14 35.9576 15.2374 35.9506 15.288C35.9506 15.288 35.52 15.288 35.4175 15.2969C35.4175 15.2969 35.3151 15.288 35.317 15.2242C35.3189 15.1603 35.3758 15.1438 35.4264 15.1438C35.477 15.1438 35.6913 15.1489 35.8064 15.0635L35.8058 15.0629Z" fill="#0155A5"/>
<path fill-rule="evenodd" clip-rule="evenodd" d="M32.9702 15.1875C32.6035 14.9864 32.2456 14.6772 31.9218 14.1833L31.8643 14.0865C31.9522 14.1258 32.066 14.0986 32.066 14.0986C32.071 14.1068 32.0849 14.1289 32.0925 14.1409C32.3935 14.5861 32.7274 14.8669 33.0689 15.0503L32.9702 15.1875Z" fill="#0155A5"/>
<path fill-rule="evenodd" clip-rule="evenodd" d="M33.4235 15.209C33.7011 15.3102 33.9774 15.3626 34.2399 15.4031C34.41 15.429 34.5775 15.4385 34.7375 15.4303C34.735 15.4569 34.7356 15.4923 34.7508 15.5182C34.7508 15.5182 34.7186 15.5555 34.7186 15.5972C34.5554 15.6036 34.3872 15.5941 34.2146 15.5675C33.9287 15.5239 33.6265 15.4651 33.3242 15.3506L33.4235 15.2096V15.209Z" fill="#0155A5"/>
<path fill-rule="evenodd" clip-rule="evenodd" d="M35.3926 15.3456C35.4432 15.3373 35.6045 15.3411 35.7012 15.3563C35.8068 15.3727 35.9276 15.3949 35.9402 15.4531C35.9529 15.5087 35.9143 15.5675 35.8599 15.6516C35.8264 15.7035 35.748 15.6737 35.7044 15.6573C35.6607 15.6409 35.4129 15.5081 35.3724 15.4638C35.3326 15.4202 35.3161 15.3582 35.3926 15.3456Z" fill="#0155A5"/>
<path fill-rule="evenodd" clip-rule="evenodd" d="M35.1396 15.5099C35.1668 15.4929 35.2313 15.4682 35.2989 15.4935C35.366 15.5188 35.6107 15.663 35.6271 15.7306C35.6436 15.7977 35.6101 15.8324 35.5721 15.8476C35.5342 15.8628 35.4874 15.8767 35.4545 15.8799C35.3938 15.8849 35.3331 15.8489 35.3021 15.8109C35.2711 15.7724 35.1567 15.6339 35.1396 15.6029C35.1231 15.5719 35.1149 15.5264 35.1396 15.5099Z" fill="#0155A5"/>
<path fill-rule="evenodd" clip-rule="evenodd" d="M35.1096 15.6618C35.145 15.7016 35.2437 15.8218 35.2557 15.8414C35.2671 15.861 35.25 15.8919 35.219 15.8888C35.188 15.8856 35.0198 15.8679 34.9231 15.8015C34.8263 15.7358 34.7612 15.608 34.8282 15.5619C34.8946 15.5151 34.9977 15.5359 35.1096 15.6618Z" fill="#0155A5"/>
<path fill-rule="evenodd" clip-rule="evenodd" d="M35.0551 15.295C35.0867 15.2874 35.2144 15.2545 35.2422 15.2969C35.277 15.3493 35.2524 15.4056 35.1537 15.453C35.0551 15.5005 34.8685 15.5384 34.8312 15.4872C34.7945 15.4353 34.8458 15.3487 35.0551 15.295Z" fill="#0155A5"/>
</g>
<defs>
<clipPath id="clip0_247_25553">
<rect width="41.2274" height="20" fill="white" transform="translate(0.386719 0.208984)"/>
</clipPath>
</defs>
</svg>
