<svg width="74" height="21" viewBox="0 0 74 21" fill="none" xmlns="http://www.w3.org/2000/svg">
<g clip-path="url(#clip0_247_25489)">
<path fill-rule="evenodd" clip-rule="evenodd" d="M49.8564 20.209H55.0679L57.3069 13.9179L59.635 11.9896L61.4688 17.6789C62.036 19.4374 62.6198 20.209 63.8931 20.209H67.8831L63.7669 9.04479L73.666 0.208984H67.2731L61.2641 6.50022C60.5641 7.2326 59.856 7.95346 59.146 8.81446H59.0855L62.086 0.208984H56.8741L49.8564 20.209Z" fill="#1AB248"/>
<path fill-rule="evenodd" clip-rule="evenodd" d="M49.6318 0.209777C51.2661 0.21004 52.8514 0.210295 54.179 0.21041L53.1033 3.51249C52.7652 4.54997 51.9071 5.04632 50.0157 5.04632C46.7317 5.04632 41.8726 5.04575 38.5883 5.04518L39.664 1.7431C40.0019 0.705051 40.8599 0.208984 42.7514 0.208984C44.7078 0.208984 47.2233 0.209389 49.6318 0.209777ZM40.099 7.79041C43.3828 7.79041 48.2423 7.79098 51.5266 7.79184L50.4509 11.0938C50.1128 12.1316 49.2547 12.6276 47.3632 12.6276C44.0793 12.6276 39.2201 12.627 35.9358 12.6262L37.0115 9.32456C37.3495 8.2866 38.2076 7.79041 40.099 7.79041ZM48.7437 15.3728C45.4597 15.3722 40.6005 15.3717 37.3166 15.3717C35.4248 15.3717 34.567 15.868 34.229 16.9052L33.1533 20.2077C36.4376 20.208 41.2968 20.209 44.5809 20.209C46.4722 20.209 47.3303 19.7125 47.6683 18.6747L48.7437 15.3728Z" fill="#1AB248"/>
<path fill-rule="evenodd" clip-rule="evenodd" d="M26.2269 5.02613L29.0237 5.02727C31.4066 5.02784 30.8627 7.90827 29.6567 10.7156C28.5941 13.1899 26.7107 15.3735 24.4638 15.3732L19.8013 15.3726C17.9416 15.3726 17.0841 15.8689 16.7225 16.9061L15.5713 20.2084L18.9902 20.209L22.3323 20.182C25.2962 20.1584 27.7226 19.951 30.5601 17.4829C33.5588 14.8757 37.0551 8.10246 36.4561 4.18489C35.9868 1.11495 34.2824 0.21041 30.1552 0.210125L22.6343 0.208984L18.2552 12.6134L21.0376 12.6168C22.6936 12.6186 23.5246 12.6387 24.4055 10.3446L26.2269 5.02613Z" fill="#1AB248"/>
<path fill-rule="evenodd" clip-rule="evenodd" d="M13.3692 5.04337L11.2656 5.04394C7.05163 5.04594 3.44064 15.3749 8.4232 15.3732L11.6246 15.3726C13.471 15.3726 14.8417 16.0252 14.2348 17.7848L13.3984 20.2084L10.0031 20.209L7.24125 20.182C3.70805 20.1478 1.42807 18.4621 0.607134 15.9024C-0.281245 13.1325 0.972989 7.35522 4.61325 3.65434C6.72544 1.50734 9.65125 0.21041 13.4025 0.210125L20.333 0.208984L19.2496 3.236C18.5497 5.19179 17.1196 5.04594 16.3035 5.04565L13.3692 5.04337Z" fill="#1AB248"/>
</g>
<defs>
<clipPath id="clip0_247_25489">
<rect width="73.3333" height="20" fill="white" transform="translate(0.333008 0.208984)"/>
</clipPath>
</defs>
</svg>
