<svg width="42" height="42" viewBox="0 0 42 42" fill="none" xmlns="http://www.w3.org/2000/svg">
<rect width="42" height="42" rx="21" fill="#E92B66"/>
<path d="M21.0111 32.7469C20.322 32.7469 19.6439 32.5172 19.1079 32.0578L17.3798 30.5812C17.2048 30.4281 16.7673 30.275 16.5376 30.275H14.6236C13.0048 30.275 11.6923 28.9625 11.6923 27.3437V25.4734C11.6923 25.2437 11.5392 24.8062 11.397 24.6422L9.9095 22.8922C9.01263 21.8312 9.01263 20.1687 9.9095 19.0969L11.397 17.3469C11.5392 17.1828 11.6923 16.7453 11.6923 16.5156V14.6562C11.6923 13.0375 13.0048 11.725 14.6236 11.725H16.5158C16.7454 11.725 17.172 11.5609 17.3579 11.4078L19.0861 9.93123C20.1579 9.02341 21.8314 9.02341 22.9033 9.93123L24.6314 11.4078C24.8064 11.5609 25.2548 11.714 25.4845 11.714H27.3439C28.9626 11.714 30.2751 13.0265 30.2751 14.6453V16.5047C30.2751 16.7344 30.4392 17.1609 30.5923 17.3469L32.0689 19.075C32.9876 20.1578 32.9767 21.8312 32.0689 22.8922L30.5923 24.6203C30.4392 24.8062 30.2861 25.2328 30.2861 25.4625V27.3219C30.2861 28.9406 28.9736 30.2531 27.3548 30.2531H25.4954C25.2658 30.2531 24.8392 30.4172 24.6423 30.5703L22.9142 32.0469C22.3783 32.5172 21.6892 32.7469 21.0111 32.7469ZM14.6236 13.3656C13.9126 13.3656 13.3329 13.9453 13.3329 14.6562V16.5156C13.3329 17.139 13.0486 17.9265 12.6439 18.4078L11.1564 20.1578C10.7845 20.6062 10.7845 21.3937 11.1564 21.8312L12.6329 23.5703C13.0267 24.0187 13.322 24.839 13.322 25.4625V27.3328C13.322 28.0437 13.9017 28.6234 14.6126 28.6234H16.5158C17.1283 28.6234 17.9376 28.9187 18.4189 29.3234L20.1579 30.8109C20.6064 31.1937 21.3939 31.1937 21.8423 30.8109L23.5704 29.3344C24.0626 28.9187 24.8611 28.6344 25.4736 28.6344H27.3329C28.0439 28.6344 28.6236 28.0547 28.6236 27.3437V25.4844C28.6236 24.8719 28.9189 24.0734 29.3236 23.5812L30.8111 21.8422C31.1939 21.3937 31.1939 20.6062 30.8111 20.1578L29.3345 18.4297C28.9189 17.9375 28.6345 17.139 28.6345 16.5265V14.6562C28.6345 13.9453 28.0548 13.3656 27.3439 13.3656H25.4845C24.8611 13.3656 24.0517 13.0703 23.5704 12.6656L21.8314 11.1781C21.3829 10.7953 20.6064 10.7953 20.147 11.1781L18.4298 12.6656C17.9376 13.0703 17.1392 13.3656 16.5158 13.3656H14.6236Z" fill="white"/>
<path d="M21.0001 26.3265C20.3986 26.3265 19.9064 25.8344 19.9064 25.2328C19.9064 24.6312 20.3876 24.139 21.0001 24.139C21.6017 24.139 22.0939 24.6312 22.0939 25.2328C22.0939 25.8344 21.6126 26.3265 21.0001 26.3265Z" fill="white"/>
<path d="M21 22.8813C20.5516 22.8813 20.1797 22.5094 20.1797 22.061V16.7672C20.1797 16.3188 20.5516 15.9469 21 15.9469C21.4484 15.9469 21.8203 16.3188 21.8203 16.7672V22.05C21.8203 22.5094 21.4594 22.8813 21 22.8813Z" fill="white"/>
</svg>
