<svg width="42" height="42" viewBox="0 0 42 42" fill="none" xmlns="http://www.w3.org/2000/svg">
<rect width="42" height="42" rx="21" fill="#E92B66"/>
<path d="M22.0934 24.0078H20.9996C20.5512 24.0078 20.1793 23.6359 20.1793 23.1875C20.1793 22.7391 20.5512 22.3672 20.9996 22.3672H22.0934C22.8481 22.3672 23.4606 21.7547 23.4606 21V10.8828H14.4371C13.1465 10.8828 11.9652 11.5828 11.3309 12.7094C11.1121 13.1031 10.609 13.2453 10.2153 13.0266C9.82153 12.8078 9.6793 12.3047 9.89805 11.9109C10.8168 10.2703 12.5559 9.24219 14.4371 9.24219H24.2809C24.7293 9.24219 25.1012 9.61406 25.1012 10.0625V21C25.1012 22.6625 23.7559 24.0078 22.0934 24.0078Z" fill="white"/>
<path d="M28.6564 30.5703H27.5626C27.1142 30.5703 26.7423 30.1984 26.7423 29.75C26.7423 28.9953 26.1298 28.3828 25.3751 28.3828C24.6204 28.3828 24.0079 28.9953 24.0079 29.75C24.0079 30.1984 23.6361 30.5703 23.1876 30.5703H18.8126C18.3642 30.5703 17.9923 30.1984 17.9923 29.75C17.9923 28.9953 17.3798 28.3828 16.6251 28.3828C15.8704 28.3828 15.2579 28.9953 15.2579 29.75C15.2579 30.1984 14.8861 30.5703 14.4376 30.5703H13.3439C11.0798 30.5703 9.24231 28.7328 9.24231 26.4687C9.24231 26.0203 9.61418 25.6484 10.0626 25.6484C10.5111 25.6484 10.8829 26.0203 10.8829 26.4687C10.8829 27.825 11.9876 28.9297 13.3439 28.9297H13.7267C14.0876 27.6719 15.247 26.7422 16.6251 26.7422C18.0032 26.7422 19.1627 27.6719 19.5236 28.9297H22.4876C22.8485 27.6719 24.0079 26.7422 25.3861 26.7422C26.7642 26.7422 27.9235 27.6719 28.2845 28.9297H28.6564C30.0126 28.9297 31.1173 27.825 31.1173 26.4687V24.0078H28.6564C27.6064 24.0078 26.7423 23.1437 26.7423 22.0937V18.8125C26.7423 17.7625 27.5954 16.8984 28.6564 16.8984L27.4861 14.8531C27.2454 14.4266 26.7861 14.1641 26.2939 14.1641H25.1017V21C25.1017 22.6625 23.7564 24.0078 22.0939 24.0078H21.0001C20.5517 24.0078 20.1798 23.6359 20.1798 23.1875C20.1798 22.7391 20.5517 22.3672 21.0001 22.3672H22.0939C22.8486 22.3672 23.4611 21.7547 23.4611 21V13.3437C23.4611 12.8953 23.8329 12.5234 24.2814 12.5234H26.2939C27.3767 12.5234 28.372 13.1031 28.9079 14.0438L30.7783 17.3141C30.9204 17.5656 30.9204 17.8828 30.7783 18.1344C30.6361 18.3859 30.3626 18.5391 30.0673 18.5391H28.6564C28.5033 18.5391 28.3829 18.6594 28.3829 18.8125V22.0937C28.3829 22.2469 28.5033 22.3672 28.6564 22.3672H31.9376C32.3861 22.3672 32.7579 22.7391 32.7579 23.1875V26.4687C32.7579 28.7328 30.9204 30.5703 28.6564 30.5703Z" fill="white"/>
<path d="M16.625 32.7578C14.9625 32.7578 13.6172 31.4125 13.6172 29.75C13.6172 28.0875 14.9625 26.7422 16.625 26.7422C18.2875 26.7422 19.6328 28.0875 19.6328 29.75C19.6328 31.4125 18.2875 32.7578 16.625 32.7578ZM16.625 28.3828C15.8703 28.3828 15.2578 28.9953 15.2578 29.75C15.2578 30.5047 15.8703 31.1172 16.625 31.1172C17.3797 31.1172 17.9922 30.5047 17.9922 29.75C17.9922 28.9953 17.3797 28.3828 16.625 28.3828Z" fill="white"/>
<path d="M25.3751 32.7578C23.7126 32.7578 22.3673 31.4125 22.3673 29.75C22.3673 28.0875 23.7126 26.7422 25.3751 26.7422C27.0376 26.7422 28.3829 28.0875 28.3829 29.75C28.3829 31.4125 27.0376 32.7578 25.3751 32.7578ZM25.3751 28.3828C24.6204 28.3828 24.0079 28.9953 24.0079 29.75C24.0079 30.5047 24.6204 31.1172 25.3751 31.1172C26.1298 31.1172 26.7423 30.5047 26.7423 29.75C26.7423 28.9953 26.1298 28.3828 25.3751 28.3828Z" fill="white"/>
<path d="M31.9375 24.0078H28.6563C27.6063 24.0078 26.7422 23.1438 26.7422 22.0938V18.8125C26.7422 17.7625 27.6063 16.8984 28.6563 16.8984H30.0672C30.3625 16.8984 30.6359 17.0516 30.7781 17.3141L32.6485 20.5953C32.7141 20.7156 32.7578 20.8578 32.7578 21V23.1875C32.7578 23.6359 32.3859 24.0078 31.9375 24.0078ZM28.6563 18.5391C28.5031 18.5391 28.3828 18.6594 28.3828 18.8125V22.0938C28.3828 22.2469 28.5031 22.3672 28.6563 22.3672H31.1172V21.2188L29.5859 18.5391H28.6563Z" fill="white"/>
<path d="M16.6251 17.4453H10.0626C9.61418 17.4453 9.24231 17.0734 9.24231 16.625C9.24231 16.1766 9.61418 15.8047 10.0626 15.8047H16.6251C17.0736 15.8047 17.4454 16.1766 17.4454 16.625C17.4454 17.0734 17.0736 17.4453 16.6251 17.4453Z" fill="white"/>
<path d="M14.4376 20.7266H10.0626C9.61418 20.7266 9.24231 20.3547 9.24231 19.9062C9.24231 19.4578 9.61418 19.0859 10.0626 19.0859H14.4376C14.8861 19.0859 15.2579 19.4578 15.2579 19.9062C15.2579 20.3547 14.8861 20.7266 14.4376 20.7266Z" fill="white"/>
<path d="M12.2501 24.0078H10.0626C9.61418 24.0078 9.24231 23.6359 9.24231 23.1875C9.24231 22.7391 9.61418 22.3672 10.0626 22.3672H12.2501C12.6986 22.3672 13.0704 22.7391 13.0704 23.1875C13.0704 23.6359 12.6986 24.0078 12.2501 24.0078Z" fill="white"/>
</svg>
