<svg width="42" height="42" viewBox="0 0 42 42" fill="none" xmlns="http://www.w3.org/2000/svg">
<rect width="42" height="42" rx="21" fill="#E92B66"/>
<path d="M25.1673 29.947C24.8829 29.947 24.5876 29.9361 24.2704 29.9032C23.7016 29.8595 23.0563 29.7501 22.3891 29.5861L20.5516 29.1486C15.5095 27.9564 13.8579 25.2876 15.0391 20.2564L16.111 15.6736C16.3516 14.6345 16.636 13.7923 16.986 13.0923C18.8673 9.2095 22.4657 9.5595 25.0251 10.1611L26.8516 10.5876C29.411 11.1892 31.0298 12.1407 31.9376 13.5954C32.8345 15.0501 32.9766 16.9204 32.3751 19.4798L31.3032 24.0517C30.3626 28.0548 28.4048 29.947 25.1673 29.947ZM22.2251 11.4298C20.3985 11.4298 19.2391 12.1845 18.4626 13.8032C18.1782 14.3939 17.9266 15.1267 17.7079 16.0454L16.636 20.6282C15.6626 24.7626 16.7891 26.5673 20.9235 27.5517L22.761 27.9892C23.3516 28.1314 23.9095 28.2189 24.4126 28.2626C27.3876 28.5579 28.8641 27.2564 29.6954 23.6798L30.7673 19.1079C31.2595 16.997 31.1938 15.5204 30.5376 14.4595C29.8813 13.3986 28.5907 12.6767 26.4688 12.1845L24.6423 11.7579C23.7345 11.5392 22.9251 11.4298 22.2251 11.4298Z" fill="white"/>
<path d="M16.9858 32.2109C14.1748 32.2109 12.3811 30.5265 11.2327 26.9718L9.83266 22.6515C8.27953 17.839 9.66859 15.1265 14.4592 13.5734L16.1873 13.0156C16.7561 12.8406 17.1827 12.7203 17.5655 12.6546C17.8827 12.589 18.1889 12.7093 18.3748 12.9609C18.5608 13.2125 18.5936 13.5406 18.4623 13.825C18.178 14.4046 17.9264 15.1375 17.7186 16.0562L16.6467 20.639C15.6733 24.7734 16.7998 26.5781 20.9342 27.5625L22.7717 28C23.3623 28.1421 23.9202 28.2296 24.4233 28.2734C24.7733 28.3062 25.0577 28.5468 25.1561 28.8859C25.2436 29.225 25.1123 29.575 24.828 29.7718C24.1061 30.264 23.1983 30.6796 22.0498 31.0515L20.3217 31.6203C19.0639 32.014 17.9702 32.2109 16.9858 32.2109ZM16.3842 14.6781L14.9733 15.1375C11.0686 16.3953 10.1389 18.2328 11.3967 22.1484L12.7967 26.4687C14.0655 30.3734 15.903 31.314 19.8077 30.0562L21.5358 29.4875C21.6014 29.4656 21.6561 29.4437 21.7217 29.4218L20.5623 29.1484C15.5202 27.9562 13.8686 25.2875 15.0498 20.2562L16.1217 15.6734C16.1983 15.3234 16.2858 14.9843 16.3842 14.6781Z" fill="white"/>
<path d="M27.0046 19.3704C26.9389 19.3704 26.8733 19.3594 26.7968 19.3485L21.4921 18.0032C21.0546 17.8938 20.7921 17.4454 20.9014 17.0079C21.0108 16.5704 21.4593 16.3079 21.8968 16.4172L27.2014 17.7626C27.6389 17.8719 27.9014 18.3204 27.7921 18.7579C27.7046 19.1188 27.3655 19.3704 27.0046 19.3704Z" fill="white"/>
<path d="M23.7999 23.0672C23.7343 23.0672 23.6687 23.0563 23.5921 23.0453L20.4093 22.236C19.9718 22.1266 19.7093 21.6782 19.8187 21.2407C19.9281 20.8032 20.3765 20.5407 20.814 20.65L23.9968 21.4594C24.4343 21.5688 24.6968 22.0172 24.5874 22.4547C24.4999 22.8266 24.1718 23.0672 23.7999 23.0672Z" fill="white"/>
</svg>
