<svg width="42" height="42" viewBox="0 0 42 42" fill="none" xmlns="http://www.w3.org/2000/svg">
<rect width="42" height="42" rx="21" fill="#E92B66"/>
<path d="M23.4282 31.5329C22.1376 31.5329 20.311 30.6251 18.8673 26.2829L18.0798 23.9204L15.7173 23.1329C11.386 21.6892 10.4782 19.8626 10.4782 18.572C10.4782 17.2923 11.386 15.4548 15.7173 14.0001L25.0032 10.9048C27.322 10.1283 29.2579 10.3579 30.4501 11.5392C31.6423 12.7204 31.872 14.6673 31.0954 16.9861L28.0001 26.272C26.5454 30.6251 24.7188 31.5329 23.4282 31.5329ZM16.2313 15.5642C13.1907 16.5814 12.1079 17.7845 12.1079 18.572C12.1079 19.3595 13.1907 20.5626 16.2313 21.5689L18.9876 22.4876C19.2282 22.5642 19.4251 22.7611 19.5016 23.0017L20.4204 25.7579C21.4266 28.7986 22.6407 29.8814 23.4282 29.8814C24.2157 29.8814 25.4188 28.7986 26.436 25.7579L29.5313 16.472C30.0891 14.7876 29.9907 13.4095 29.2798 12.6986C28.5688 11.9876 27.1907 11.9001 25.5173 12.4579L16.2313 15.5642Z" fill="white"/>
<path d="M18.9327 23.625C18.7249 23.625 18.5171 23.5484 18.353 23.3844C18.0358 23.0672 18.0358 22.5422 18.353 22.225L22.2686 18.2984C22.5858 17.9813 23.1108 17.9813 23.428 18.2984C23.7452 18.6156 23.7452 19.1406 23.428 19.4578L19.5124 23.3844C19.3593 23.5484 19.1405 23.625 18.9327 23.625Z" fill="white"/>
</svg>
