<svg width="42" height="42" viewBox="0 0 42 42" fill="none" xmlns="http://www.w3.org/2000/svg">
<rect width="42" height="42" rx="21" fill="#E92B66"/>
<path d="M25.375 32.7578H16.625C12.6328 32.7578 10.3359 30.4609 10.3359 26.4688V15.5313C10.3359 11.5391 12.6328 9.24219 16.625 9.24219H25.375C29.3672 9.24219 31.6641 11.5391 31.6641 15.5313V26.4688C31.6641 30.4609 29.3672 32.7578 25.375 32.7578ZM16.625 10.8828C13.4969 10.8828 11.9766 12.4031 11.9766 15.5313V26.4688C11.9766 29.5969 13.4969 31.1172 16.625 31.1172H25.375C28.5031 31.1172 30.0234 29.5969 30.0234 26.4688V15.5313C30.0234 12.4031 28.5031 10.8828 25.375 10.8828H16.625Z" fill="white"/>
<path d="M28.1093 17.9922H25.9218C24.2593 17.9922 22.9139 16.6469 22.9139 14.9844V12.7969C22.9139 12.3484 23.2858 11.9766 23.7343 11.9766C24.1827 11.9766 24.5546 12.3484 24.5546 12.7969V14.9844C24.5546 15.7391 25.1671 16.3516 25.9218 16.3516H28.1093C28.5577 16.3516 28.9296 16.7234 28.9296 17.1719C28.9296 17.6203 28.5577 17.9922 28.1093 17.9922Z" fill="white"/>
<path d="M21.0001 22.9141H16.6251C16.1767 22.9141 15.8048 22.5422 15.8048 22.0938C15.8048 21.6453 16.1767 21.2734 16.6251 21.2734H21.0001C21.4486 21.2734 21.8204 21.6453 21.8204 22.0938C21.8204 22.5422 21.4486 22.9141 21.0001 22.9141Z" fill="white"/>
<path d="M25.3751 27.2891H16.6251C16.1767 27.2891 15.8048 26.9172 15.8048 26.4688C15.8048 26.0203 16.1767 25.6484 16.6251 25.6484H25.3751C25.8236 25.6484 26.1954 26.0203 26.1954 26.4688C26.1954 26.9172 25.8236 27.2891 25.3751 27.2891Z" fill="white"/>
</svg>
