<svg width="42" height="42" viewBox="0 0 42 42" fill="none" xmlns="http://www.w3.org/2000/svg">
<rect width="42" height="42" rx="21" fill="#E92B66"/>
<path d="M22.1483 29.1156C21.5577 29.1156 20.9343 29.0609 20.2561 28.9515L15.1264 28.1421C13.5077 27.8906 12.2608 27.4421 11.3311 26.7859C8.93582 25.1234 9.078 22.2687 9.38425 20.2671L10.1936 15.1375C10.9374 10.4343 13.3655 8.67339 18.0686 9.40621L23.1983 10.2156C25.6155 10.5984 28.8639 11.5718 29.0718 15.6515C29.1155 16.3515 29.0718 17.15 28.9186 18.0906L28.1202 23.2203C27.4858 27.2343 25.6155 29.1156 22.1483 29.1156ZM16.1108 10.8828C13.5077 10.8828 12.3264 12.2062 11.8124 15.4L11.003 20.5296C10.4999 23.7562 11.4186 24.85 12.2718 25.4515C12.9936 25.9656 14.0108 26.3156 15.378 26.5234L20.5077 27.3328C24.3249 27.9343 25.8999 26.7859 26.5014 22.9578L27.2999 17.8281C27.4311 17.0078 27.4749 16.3187 27.4311 15.739V15.7281C27.3108 13.4312 26.0093 12.3046 22.9358 11.8234L17.8171 11.025C17.1827 10.9265 16.6249 10.8828 16.1108 10.8828Z" fill="white"/>
<path d="M23.9312 32.7578C23.0015 32.7578 21.9515 32.5609 20.7374 32.1562L15.8046 30.5156C12.9937 29.5859 11.4734 28.2515 11.014 26.3047C10.9374 25.9765 11.0687 25.6265 11.3531 25.4406C11.6374 25.2547 12.0093 25.2547 12.2828 25.4515C13.0046 25.9656 14.0109 26.3156 15.3781 26.5234L20.5078 27.3328C24.3249 27.9344 25.8999 26.7859 26.5015 22.9578L27.2999 17.8281C27.4312 17.0078 27.4749 16.3187 27.4312 15.739C27.4203 15.4547 27.5624 15.1703 27.814 15.0062C28.0656 14.8422 28.3828 14.8312 28.6453 14.9734C31.5765 16.5375 32.3531 19.0422 31.0843 22.8703L29.4437 27.8031C28.6671 30.1218 27.6499 31.5437 26.2281 32.2547C25.539 32.5937 24.7843 32.7578 23.9312 32.7578ZM14.1421 27.9562C14.6671 28.3062 15.3671 28.6453 16.3187 28.9625L21.2515 30.6031C23.1328 31.2265 24.4781 31.2812 25.4843 30.789C26.4906 30.2859 27.2562 29.1703 27.8796 27.289L29.5203 22.3562C30.4171 19.6437 30.0671 18.2 29.0281 17.2265C29.0062 17.5 28.9624 17.7844 28.9187 18.0906L28.1203 23.2203C27.3765 27.9234 24.9484 29.6844 20.2453 28.9625L15.1156 28.1531C14.7765 28.0875 14.4484 28.0219 14.1421 27.9562Z" fill="white"/>
<path d="M16.8876 18.5063C15.3892 18.5063 14.1642 17.2813 14.1642 15.7829C14.1642 14.2844 15.3892 13.0594 16.8876 13.0594C18.3861 13.0594 19.6111 14.2844 19.6111 15.7829C19.6111 17.2813 18.3861 18.5063 16.8876 18.5063ZM16.8876 14.711C16.297 14.711 15.8048 15.1923 15.8048 15.7938C15.8048 16.3954 16.2861 16.8766 16.8876 16.8766C17.4782 16.8766 17.9704 16.3954 17.9704 15.7938C17.9704 15.1923 17.4782 14.711 16.8876 14.711Z" fill="white"/>
</svg>
