<svg width="42" height="42" viewBox="0 0 42 42" fill="none" xmlns="http://www.w3.org/2000/svg">
<rect width="42" height="42" rx="21" fill="#E92B66"/>
<path d="M20.9997 22.4219C20.8575 22.4219 20.7153 22.3892 20.5841 22.3126L10.9263 16.7235C10.5325 16.4939 10.4013 15.9907 10.631 15.5969C10.8606 15.2032 11.3528 15.0719 11.7575 15.3016L20.9997 20.6501L30.1872 15.3345C30.581 15.1048 31.0841 15.247 31.3138 15.6298C31.5435 16.0235 31.4013 16.5266 31.0185 16.7563L21.4263 22.3126C21.2841 22.3782 21.1419 22.4219 20.9997 22.4219Z" fill="white"/>
<path d="M21 32.3313C20.5516 32.3313 20.1797 31.9595 20.1797 31.511V21.5907C20.1797 21.1423 20.5516 20.7704 21 20.7704C21.4484 20.7704 21.8203 21.1423 21.8203 21.5907V31.511C21.8203 31.9595 21.4484 32.3313 21 32.3313Z" fill="white"/>
<path d="M21 32.7578C20.0375 32.7578 19.086 32.55 18.3313 32.1344L12.4907 28.886C10.9047 28.011 9.66879 25.9 9.66879 24.0844V17.9047C9.66879 16.089 10.9047 13.9891 12.4907 13.1031L18.3313 9.86562C19.8297 9.03437 22.1703 9.03437 23.6688 9.86562L29.5094 13.114C31.0953 13.989 32.3313 16.1 32.3313 17.9156V24.0953C32.3313 25.9109 31.0953 28.0109 29.5094 28.8968L23.6688 32.1344C22.9141 32.55 21.9625 32.7578 21 32.7578ZM21 10.8828C20.311 10.8828 19.6328 11.025 19.1297 11.2984L13.2891 14.5468C12.2391 15.1375 11.3094 16.7015 11.3094 17.9156V24.0953C11.3094 25.2984 12.2391 26.8734 13.2891 27.464L19.1297 30.7125C20.125 31.2703 21.875 31.2703 22.8703 30.7125L28.711 27.464C29.761 26.8734 30.6906 25.3094 30.6906 24.0953V17.9156C30.6906 16.7125 29.761 15.1375 28.711 14.5468L22.8703 11.2984C22.3672 11.025 21.6891 10.8828 21 10.8828Z" fill="white"/>
<path d="M26.4689 23.1765C26.0204 23.1765 25.6485 22.8047 25.6485 22.3562V18.8344L15.6735 13.0812C15.2798 12.8516 15.1485 12.3484 15.3782 11.9656C15.6079 11.5719 16.1001 11.4406 16.4939 11.6703L26.8735 17.6641C27.1251 17.8062 27.2892 18.0796 27.2892 18.375V22.3781C27.2892 22.8047 26.9173 23.1765 26.4689 23.1765Z" fill="white"/>
</svg>
