<svg width="42" height="43" viewBox="0 0 42 43" fill="none" xmlns="http://www.w3.org/2000/svg">
<rect y="0.55954" width="42" height="42" rx="21" fill="#E92B66"/>
<path d="M25.375 33.3174H16.625C12.6328 33.3174 10.3359 31.0205 10.3359 27.0283V16.0908C10.3359 12.0986 12.6328 9.80173 16.625 9.80173H25.375C29.3672 9.80173 31.6641 12.0986 31.6641 16.0908V27.0283C31.6641 31.0205 29.3672 33.3174 25.375 33.3174ZM16.625 11.4424C13.4969 11.4424 11.9766 12.9627 11.9766 16.0908V27.0283C11.9766 30.1564 13.4969 31.6767 16.625 31.6767H25.375C28.5031 31.6767 30.0234 30.1564 30.0234 27.0283V16.0908C30.0234 12.9627 28.5031 11.4424 25.375 11.4424H16.625Z" fill="white"/>
<path d="M28.1094 18.5517H25.9219C24.2594 18.5517 22.9141 17.2064 22.9141 15.5439V13.3564C22.9141 12.908 23.286 12.5361 23.7344 12.5361C24.1829 12.5361 24.5547 12.908 24.5547 13.3564V15.5439C24.5547 16.2986 25.1672 16.9111 25.9219 16.9111H28.1094C28.5579 16.9111 28.9297 17.283 28.9297 17.7314C28.9297 18.1799 28.5579 18.5517 28.1094 18.5517Z" fill="white"/>
<path d="M20.9999 23.4736H16.6249C16.1765 23.4736 15.8046 23.1017 15.8046 22.6533C15.8046 22.2049 16.1765 21.833 16.6249 21.833H20.9999C21.4484 21.833 21.8203 22.2049 21.8203 22.6533C21.8203 23.1017 21.4484 23.4736 20.9999 23.4736Z" fill="white"/>
<path d="M25.3749 27.8486H16.6249C16.1765 27.8486 15.8046 27.4767 15.8046 27.0283C15.8046 26.5799 16.1765 26.208 16.6249 26.208H25.3749C25.8234 26.208 26.1953 26.5799 26.1953 27.0283C26.1953 27.4767 25.8234 27.8486 25.3749 27.8486Z" fill="white"/>
</svg>
