<svg width="42" height="43" viewBox="0 0 42 43" fill="none" xmlns="http://www.w3.org/2000/svg">
<rect y="0.55957" width="42" height="42" rx="21" fill="#E92B66"/>
<path d="M23.4281 32.0924C22.1374 32.0924 20.3109 31.1846 18.8671 26.8424L18.0796 24.4799L15.7171 23.6924C11.3859 22.2486 10.4781 20.4221 10.4781 19.1315C10.4781 17.8518 11.3859 16.0143 15.7171 14.5596L25.0031 11.4643C27.3218 10.6877 29.2577 10.9174 30.4499 12.0986C31.6421 13.2799 31.8718 15.2268 31.0952 17.5455L27.9999 26.8315C26.5452 31.1846 24.7187 32.0924 23.4281 32.0924ZM16.2312 16.1236C13.1906 17.1408 12.1077 18.344 12.1077 19.1315C12.1077 19.919 13.1906 21.1221 16.2312 22.1283L18.9874 23.0471C19.2281 23.1236 19.4249 23.3205 19.5015 23.5611L20.4202 26.3174C21.4265 29.358 22.6406 30.4408 23.4281 30.4408C24.2156 30.4408 25.4187 29.358 26.4359 26.3174L29.5312 17.0315C30.089 15.3471 29.9906 13.969 29.2796 13.258C28.5687 12.5471 27.1906 12.4596 25.5171 13.0174L16.2312 16.1236Z" fill="white"/>
<path d="M18.9329 24.1846C18.7251 24.1846 18.5172 24.108 18.3532 23.9439C18.036 23.6268 18.036 23.1018 18.3532 22.7846L22.2688 18.858C22.586 18.5408 23.111 18.5408 23.4282 18.858C23.7454 19.1752 23.7454 19.7002 23.4282 20.0174L19.5126 23.9439C19.3594 24.108 19.1407 24.1846 18.9329 24.1846Z" fill="white"/>
</svg>
