<svg width="42" height="43" viewBox="0 0 42 43" fill="none" xmlns="http://www.w3.org/2000/svg">
<rect y="0.55954" width="42" height="42" rx="21" fill="#E92B66"/>
<path d="M21.0109 33.3064C20.3218 33.3064 19.6437 33.0767 19.1078 32.6174L17.3797 31.1408C17.2047 30.9877 16.7672 30.8345 16.5375 30.8345H14.6234C13.0047 30.8345 11.6922 29.522 11.6922 27.9033V26.033C11.6922 25.8033 11.539 25.3658 11.3969 25.2017L9.90935 23.4517C9.01248 22.3908 9.01248 20.7283 9.90935 19.6564L11.3969 17.9064C11.539 17.7424 11.6922 17.3049 11.6922 17.0752V15.2158C11.6922 13.597 13.0047 12.2845 14.6234 12.2845H16.5156C16.7453 12.2845 17.1718 12.1205 17.3578 11.9674L19.0859 10.4908C20.1578 9.58298 21.8312 9.58298 22.9031 10.4908L24.6312 11.9674C24.8062 12.1205 25.2547 12.2736 25.4844 12.2736H27.3437C28.9625 12.2736 30.275 13.5861 30.275 15.2049V17.0642C30.275 17.2939 30.439 17.7205 30.5922 17.9064L32.0687 19.6345C32.9875 20.7174 32.9765 22.3908 32.0687 23.4517L30.5922 25.1799C30.439 25.3658 30.2859 25.7924 30.2859 26.022V27.8814C30.2859 29.5002 28.9734 30.8127 27.3547 30.8127H25.4953C25.2656 30.8127 24.839 30.9767 24.6422 31.1299L22.914 32.6064C22.3781 33.0767 21.689 33.3064 21.0109 33.3064ZM14.6234 13.9252C13.9125 13.9252 13.3328 14.5049 13.3328 15.2158V17.0752C13.3328 17.6986 13.0484 18.4861 12.6437 18.9674L11.1562 20.7174C10.7844 21.1658 10.7844 21.9533 11.1562 22.3908L12.6328 24.1299C13.0265 24.5783 13.3218 25.3986 13.3218 26.022V27.8924C13.3218 28.6033 13.9015 29.183 14.6125 29.183H16.5156C17.1281 29.183 17.9375 29.4783 18.4187 29.883L20.1578 31.3705C20.6062 31.7533 21.3937 31.7533 21.8422 31.3705L23.5703 29.8939C24.0625 29.4783 24.8609 29.1939 25.4734 29.1939H27.3328C28.0437 29.1939 28.6234 28.6142 28.6234 27.9033V26.0439C28.6234 25.4314 28.9187 24.633 29.3234 24.1408L30.8109 22.4017C31.1937 21.9533 31.1937 21.1658 30.8109 20.7174L29.3343 18.9892C28.9187 18.497 28.6343 17.6986 28.6343 17.0861V15.2158C28.6343 14.5049 28.0547 13.9252 27.3437 13.9252H25.4844C24.8609 13.9252 24.0515 13.6299 23.5703 13.2252L21.8312 11.7377C21.3828 11.3549 20.6062 11.3549 20.1468 11.7377L18.4297 13.2252C17.9375 13.6299 17.139 13.9252 16.5156 13.9252H14.6234Z" fill="white"/>
<path d="M20.9999 26.8861C20.3984 26.8861 19.9062 26.3939 19.9062 25.7924C19.9062 25.1908 20.3874 24.6986 20.9999 24.6986C21.6015 24.6986 22.0937 25.1908 22.0937 25.7924C22.0937 26.3939 21.6124 26.8861 20.9999 26.8861Z" fill="white"/>
<path d="M21 23.4408C20.5516 23.4408 20.1797 23.0689 20.1797 22.6205V17.3267C20.1797 16.8783 20.5516 16.5064 21 16.5064C21.4484 16.5064 21.8203 16.8783 21.8203 17.3267V22.6095C21.8203 23.0689 21.4594 23.4408 21 23.4408Z" fill="white"/>
</svg>
