<svg width="42" height="43" viewBox="0 0 42 43" fill="none" xmlns="http://www.w3.org/2000/svg">
<rect y="0.55954" width="42" height="42" rx="21" fill="#E92B66"/>
<path d="M22.0936 24.5674H20.9998C20.5514 24.5674 20.1795 24.1955 20.1795 23.7471C20.1795 23.2986 20.5514 22.9268 20.9998 22.9268H22.0936C22.8483 22.9268 23.4608 22.3143 23.4608 21.5596V11.4424H14.4373C13.1467 11.4424 11.9654 12.1424 11.331 13.2689C11.1123 13.6627 10.6092 13.8049 10.2155 13.5862C9.82171 13.3674 9.67948 12.8643 9.89823 12.4705C10.817 10.8299 12.5561 9.80176 14.4373 9.80176H24.2811C24.7295 9.80176 25.1014 10.1736 25.1014 10.6221V21.5596C25.1014 23.2221 23.7561 24.5674 22.0936 24.5674Z" fill="white"/>
<path d="M28.6562 31.1299H27.5624C27.114 31.1299 26.7421 30.758 26.7421 30.3096C26.7421 29.5549 26.1296 28.9424 25.3749 28.9424C24.6203 28.9424 24.0078 29.5549 24.0078 30.3096C24.0078 30.758 23.6359 31.1299 23.1874 31.1299H18.8124C18.364 31.1299 17.9921 30.758 17.9921 30.3096C17.9921 29.5549 17.3796 28.9424 16.6249 28.9424C15.8703 28.9424 15.2578 29.5549 15.2578 30.3096C15.2578 30.758 14.8859 31.1299 14.4374 31.1299H13.3437C11.0796 31.1299 9.24213 29.2924 9.24213 27.0283C9.24213 26.5799 9.614 26.208 10.0624 26.208C10.5109 26.208 10.8828 26.5799 10.8828 27.0283C10.8828 28.3846 11.9874 29.4893 13.3437 29.4893H13.7265C14.0874 28.2314 15.2468 27.3018 16.6249 27.3018C18.0031 27.3018 19.1625 28.2314 19.5234 29.4893H22.4874C22.8484 28.2314 24.0078 27.3018 25.3859 27.3018C26.764 27.3018 27.9233 28.2314 28.2843 29.4893H28.6562C30.0124 29.4893 31.1171 28.3846 31.1171 27.0283V24.5674H28.6562C27.6062 24.5674 26.7421 23.7033 26.7421 22.6533V19.3721C26.7421 18.3221 27.5953 17.458 28.6562 17.458L27.4859 15.4127C27.2452 14.9861 26.7859 14.7236 26.2937 14.7236H25.1015V21.5596C25.1015 23.2221 23.7562 24.5674 22.0937 24.5674H20.9999C20.5515 24.5674 20.1796 24.1955 20.1796 23.7471C20.1796 23.2986 20.5515 22.9268 20.9999 22.9268H22.0937C22.8484 22.9268 23.4609 22.3143 23.4609 21.5596V13.9033C23.4609 13.4549 23.8328 13.083 24.2812 13.083H26.2937C27.3765 13.083 28.3718 13.6627 28.9077 14.6033L30.7781 17.8736C30.9203 18.1252 30.9203 18.4424 30.7781 18.694C30.6359 18.9455 30.3624 19.0986 30.0671 19.0986H28.6562C28.5031 19.0986 28.3828 19.2189 28.3828 19.3721V22.6533C28.3828 22.8064 28.5031 22.9268 28.6562 22.9268H31.9374C32.3859 22.9268 32.7578 23.2986 32.7578 23.7471V27.0283C32.7578 29.2924 30.9203 31.1299 28.6562 31.1299Z" fill="white"/>
<path d="M16.625 33.3174C14.9625 33.3174 13.6172 31.9721 13.6172 30.3096C13.6172 28.6471 14.9625 27.3018 16.625 27.3018C18.2875 27.3018 19.6328 28.6471 19.6328 30.3096C19.6328 31.9721 18.2875 33.3174 16.625 33.3174ZM16.625 28.9424C15.8703 28.9424 15.2578 29.5549 15.2578 30.3096C15.2578 31.0643 15.8703 31.6768 16.625 31.6768C17.3797 31.6768 17.9922 31.0643 17.9922 30.3096C17.9922 29.5549 17.3797 28.9424 16.625 28.9424Z" fill="white"/>
<path d="M25.3749 33.3174C23.7124 33.3174 22.3671 31.9721 22.3671 30.3096C22.3671 28.6471 23.7124 27.3018 25.3749 27.3018C27.0374 27.3018 28.3828 28.6471 28.3828 30.3096C28.3828 31.9721 27.0374 33.3174 25.3749 33.3174ZM25.3749 28.9424C24.6203 28.9424 24.0078 29.5549 24.0078 30.3096C24.0078 31.0643 24.6203 31.6768 25.3749 31.6768C26.1296 31.6768 26.7421 31.0643 26.7421 30.3096C26.7421 29.5549 26.1296 28.9424 25.3749 28.9424Z" fill="white"/>
<path d="M31.9375 24.5674H28.6563C27.6063 24.5674 26.7422 23.7033 26.7422 22.6533V19.3721C26.7422 18.3221 27.6063 17.458 28.6563 17.458H30.0672C30.3625 17.458 30.6359 17.6111 30.7781 17.8736L32.6485 21.1549C32.7141 21.2752 32.7578 21.4174 32.7578 21.5596V23.7471C32.7578 24.1955 32.3859 24.5674 31.9375 24.5674ZM28.6563 19.0986C28.5031 19.0986 28.3828 19.2189 28.3828 19.3721V22.6533C28.3828 22.8064 28.5031 22.9268 28.6563 22.9268H31.1172V21.7783L29.5859 19.0986H28.6563Z" fill="white"/>
<path d="M16.6249 18.0049H10.0624C9.614 18.0049 9.24213 17.633 9.24213 17.1846C9.24213 16.7361 9.614 16.3643 10.0624 16.3643H16.6249C17.0734 16.3643 17.4453 16.7361 17.4453 17.1846C17.4453 17.633 17.0734 18.0049 16.6249 18.0049Z" fill="white"/>
<path d="M14.4374 21.2861H10.0624C9.614 21.2861 9.24213 20.9143 9.24213 20.4658C9.24213 20.0174 9.614 19.6455 10.0624 19.6455H14.4374C14.8859 19.6455 15.2578 20.0174 15.2578 20.4658C15.2578 20.9143 14.8859 21.2861 14.4374 21.2861Z" fill="white"/>
<path d="M12.2499 24.5674H10.0624C9.614 24.5674 9.24213 24.1955 9.24213 23.7471C9.24213 23.2986 9.614 22.9268 10.0624 22.9268H12.2499C12.6984 22.9268 13.0703 23.2986 13.0703 23.7471C13.0703 24.1955 12.6984 24.5674 12.2499 24.5674Z" fill="white"/>
</svg>
