<svg width="42" height="43" viewBox="0 0 42 43" fill="none" xmlns="http://www.w3.org/2000/svg">
<rect y="0.55957" width="42" height="42" rx="21" fill="#E92B66"/>
<path d="M20.9999 22.9814C20.8577 22.9814 20.7155 22.9487 20.5842 22.8721L10.9264 17.2831C10.5327 17.0534 10.4014 16.5502 10.6311 16.1565C10.8608 15.7627 11.353 15.6314 11.7577 15.8611L20.9999 21.2096L30.1874 15.894C30.5811 15.6643 31.0842 15.8065 31.3139 16.1893C31.5436 16.5831 31.4014 17.0861 31.0186 17.3158L21.4265 22.8721C21.2843 22.9377 21.1421 22.9814 20.9999 22.9814Z" fill="white"/>
<path d="M21 32.8908C20.5516 32.8908 20.1797 32.519 20.1797 32.0705V22.1502C20.1797 21.7018 20.5516 21.3299 21 21.3299C21.4484 21.3299 21.8203 21.7018 21.8203 22.1502V32.0705C21.8203 32.519 21.4484 32.8908 21 32.8908Z" fill="white"/>
<path d="M21.0002 33.3174C20.0377 33.3174 19.0861 33.1096 18.3314 32.6939L12.4908 29.4455C10.9049 28.5705 9.66895 26.4596 9.66895 24.6439V18.4642C9.66895 16.6486 10.9049 14.5487 12.4908 13.6627L18.3314 10.4252C19.8299 9.59395 22.1705 9.59395 23.6689 10.4252L29.5096 13.6736C31.0955 14.5486 32.3314 16.6596 32.3314 18.4752V24.6549C32.3314 26.4705 31.0955 28.5705 29.5096 29.4564L23.6689 32.6939C22.9142 33.1096 21.9627 33.3174 21.0002 33.3174ZM21.0002 11.4424C20.3111 11.4424 19.633 11.5846 19.1299 11.858L13.2893 15.1064C12.2393 15.697 11.3096 17.2611 11.3096 18.4752V24.6549C11.3096 25.858 12.2393 27.433 13.2893 28.0236L19.1299 31.2721C20.1252 31.8299 21.8752 31.8299 22.8705 31.2721L28.7111 28.0236C29.7611 27.433 30.6908 25.869 30.6908 24.6549V18.4752C30.6908 17.2721 29.7611 15.697 28.7111 15.1064L22.8705 11.858C22.3674 11.5846 21.6892 11.4424 21.0002 11.4424Z" fill="white"/>
<path d="M26.469 23.7362C26.0206 23.7362 25.6487 23.3643 25.6487 22.9159V19.394L15.6737 13.6409C15.2799 13.4112 15.1487 12.908 15.3784 12.5252C15.6081 12.1315 16.1003 12.0002 16.494 12.2299L26.8737 18.2237C27.1253 18.3659 27.2893 18.6393 27.2893 18.9346V22.9378C27.2893 23.3643 26.9174 23.7362 26.469 23.7362Z" fill="white"/>
</svg>
