<svg width="42" height="43" viewBox="0 0 42 43" fill="none" xmlns="http://www.w3.org/2000/svg">
<rect y="0.55957" width="42" height="42" rx="21" fill="#E92B66"/>
<path d="M25.1673 30.5064C24.8829 30.5064 24.5876 30.4955 24.2704 30.4627C23.7016 30.4189 23.0563 30.3096 22.3891 30.1455L20.5516 29.708C15.5095 28.5158 13.8579 25.8471 15.0391 20.8158L16.111 16.233C16.3516 15.1939 16.636 14.3518 16.986 13.6518C18.8673 9.76895 22.4657 10.1189 25.0251 10.7205L26.8516 11.1471C29.411 11.7486 31.0298 12.7002 31.9376 14.1549C32.8345 15.6096 32.9766 17.4799 32.3751 20.0393L31.3032 24.6111C30.3626 28.6143 28.4048 30.5064 25.1673 30.5064ZM22.2251 11.9893C20.3985 11.9893 19.2391 12.7439 18.4626 14.3627C18.1782 14.9533 17.9266 15.6861 17.7079 16.6049L16.636 21.1877C15.6626 25.3221 16.7891 27.1268 20.9235 28.1111L22.761 28.5486C23.3516 28.6908 23.9095 28.7783 24.4126 28.8221C27.3876 29.1174 28.8641 27.8158 29.6954 24.2393L30.7673 19.6674C31.2595 17.5564 31.1938 16.0799 30.5376 15.0189C29.8813 13.958 28.5907 13.2361 26.4688 12.7439L24.6423 12.3174C23.7345 12.0986 22.9251 11.9893 22.2251 11.9893Z" fill="white"/>
<path d="M16.9859 32.7705C14.175 32.7705 12.3812 31.0862 11.2328 27.5315L9.83281 23.2112C8.27968 18.3987 9.66875 15.6862 14.4594 14.133L16.1875 13.5752C16.7562 13.4002 17.1828 13.2799 17.5656 13.2143C17.8828 13.1487 18.1891 13.269 18.375 13.5205C18.5609 13.7721 18.5937 14.1002 18.4625 14.3846C18.1781 14.9643 17.9266 15.6971 17.7187 16.6158L16.6469 21.1987C15.6734 25.333 16.8 27.1377 20.9344 28.1221L22.7719 28.5596C23.3625 28.7018 23.9203 28.7893 24.4234 28.833C24.7734 28.8658 25.0578 29.1065 25.1562 29.4455C25.2437 29.7846 25.1125 30.1346 24.8281 30.3315C24.1062 30.8237 23.1984 31.2393 22.05 31.6112L20.3219 32.1799C19.0641 32.5737 17.9703 32.7705 16.9859 32.7705ZM16.3844 15.2377L14.9734 15.6971C11.0687 16.9549 10.1391 18.7924 11.3969 22.708L12.7969 27.0283C14.0656 30.933 15.9031 31.8737 19.8078 30.6158L21.5359 30.0471C21.6016 30.0252 21.6562 30.0033 21.7219 29.9815L20.5625 29.708C15.5203 28.5158 13.8687 25.8471 15.05 20.8158L16.1219 16.233C16.1984 15.883 16.2859 15.544 16.3844 15.2377Z" fill="white"/>
<path d="M27.0047 19.9299C26.9391 19.9299 26.8735 19.9189 26.7969 19.908L21.4922 18.5627C21.0547 18.4533 20.7922 18.0049 20.9016 17.5674C21.011 17.1299 21.4594 16.8674 21.8969 16.9768L27.2016 18.3221C27.6391 18.4314 27.9016 18.8799 27.7922 19.3174C27.7047 19.6783 27.3657 19.9299 27.0047 19.9299Z" fill="white"/>
<path d="M23.7999 23.6267C23.7343 23.6267 23.6687 23.6158 23.5921 23.6049L20.4093 22.7955C19.9718 22.6861 19.7093 22.2377 19.8187 21.8002C19.9281 21.3627 20.3765 21.1002 20.814 21.2095L23.9968 22.0189C24.4343 22.1283 24.6968 22.5767 24.5874 23.0142C24.4999 23.3861 24.1718 23.6267 23.7999 23.6267Z" fill="white"/>
</svg>
