<svg width="24" height="25" viewBox="0 0 24 25" fill="none" xmlns="http://www.w3.org/2000/svg">
<g clip-path="url(#clip0_338_5825)">
<path d="M23.9926 22.2707L23.3572 18.6116C23.3144 18.3649 23.1003 18.1848 22.85 18.1848H22.464C22.3078 14.9725 20.6981 12.1355 18.28 10.319L18.5466 9.85104C18.6186 9.862 18.6908 9.86813 18.7629 9.86813C19.2644 9.86813 19.7524 9.60649 20.0179 9.1404C20.2085 8.80585 20.2574 8.41709 20.1556 8.04574C20.0537 7.67438 19.8134 7.36491 19.4789 7.17436C18.7882 6.78092 17.9063 7.02269 17.5128 7.71335C17.2091 8.24642 17.2842 8.89327 17.6517 9.3417L17.4249 9.73983C16.2982 9.05509 15.0325 8.57752 13.6813 8.35861L14.3718 5.11092C14.9444 5.02021 15.4305 4.58743 15.5581 3.98743C15.6382 3.61082 15.5668 3.22551 15.3571 2.9026C15.1474 2.57969 14.8245 2.35769 14.4479 2.27764C14.0713 2.19753 13.6861 2.26893 13.3631 2.47863C13.0402 2.68833 12.8182 3.01118 12.7381 3.38784C12.6105 3.98789 12.8783 4.58146 13.3646 4.89726L12.653 8.24411C12.437 8.23077 12.2195 8.22315 12.0002 8.22315C10.6402 8.22315 9.33995 8.48382 8.14654 8.95758L7.41232 6.88893C7.85293 6.51212 8.04059 5.88854 7.83537 5.31042C7.56945 4.56138 6.74369 4.16819 5.99475 4.43411C5.63189 4.56287 5.3409 4.82529 5.17538 5.17296C5.00986 5.52058 4.98962 5.91192 5.11844 6.27478C5.2472 6.63764 5.50961 6.92863 5.85729 7.09415C6.04346 7.18276 6.24208 7.2292 6.4422 7.23393L7.20613 9.38629C6.21047 9.90087 5.30774 10.5707 4.52935 11.3631L4.06682 10.5512C4.43431 10.1027 4.50938 9.45589 4.20572 8.92288C3.81223 8.23221 2.93025 7.99044 2.23964 8.38389C1.90504 8.57448 1.66471 8.88395 1.56293 9.25531C1.46114 9.62667 1.51005 10.0154 1.70065 10.35C1.89124 10.6846 2.20072 10.9248 2.57202 11.0267C2.69877 11.0614 2.82749 11.0786 2.95542 11.0786C3.02817 11.0786 3.10061 11.0724 3.17233 11.0613L3.80811 12.1774C2.47925 13.8426 1.64654 15.9203 1.53641 18.1848H1.15043C0.900066 18.1848 0.685994 18.3648 0.643159 18.6115L0.00784202 22.2707C-0.0181576 22.4204 0.0232873 22.574 0.121159 22.6903C0.218979 22.8065 0.363187 22.8736 0.515117 22.8736H23.4854C23.6374 22.8736 23.7816 22.8065 23.8794 22.6903C23.9772 22.574 24.0186 22.4204 23.9926 22.2707ZM18.4075 8.223C18.52 8.02571 18.7719 7.95662 18.9692 8.06906C19.0648 8.12348 19.1335 8.21193 19.1625 8.31799C19.1916 8.4241 19.1777 8.53515 19.1232 8.6307C19.0108 8.82804 18.7588 8.89708 18.5615 8.78469C18.3642 8.67225 18.2951 8.42029 18.4075 8.223ZM13.7453 3.60192C13.7682 3.49431 13.8316 3.40211 13.9239 3.34218C14.0161 3.28225 14.1261 3.26191 14.2338 3.28477C14.3414 3.30768 14.4337 3.37106 14.4935 3.46332C14.5534 3.55558 14.5738 3.66565 14.5509 3.77326C14.5037 3.99536 14.2846 4.13761 14.0625 4.09045C13.8403 4.04314 13.6981 3.82402 13.7453 3.60192ZM6.08876 5.93014C6.052 5.82645 6.05772 5.71468 6.10503 5.61537C6.15229 5.51605 6.23544 5.44109 6.33913 5.40428C6.38454 5.38817 6.43088 5.38055 6.47649 5.38055C6.64598 5.38055 6.80517 5.48604 6.86499 5.65465C6.94098 5.86867 6.82864 6.10457 6.61468 6.18051C6.51104 6.21732 6.39921 6.21156 6.2999 6.16424C6.20053 6.11698 6.12557 6.03383 6.08876 5.93014ZM2.59529 9.84007C2.54082 9.74451 2.52687 9.63341 2.55596 9.52735C2.58505 9.42125 2.65367 9.33285 2.74928 9.27838C2.81348 9.24182 2.8834 9.22447 2.95244 9.22447C3.09572 9.22447 3.23514 9.29923 3.31098 9.43237C3.42337 9.6297 3.35427 9.88167 3.15699 9.99406C3.06143 10.0485 2.95028 10.0625 2.84427 10.0334C2.73816 10.0043 2.64971 9.93568 2.59529 9.84007ZM22.4169 19.2144L22.5558 20.0144H1.44467L1.58357 19.2144H22.4169ZM4.36141 13.1485L6.25686 16.4757C6.3518 16.6423 6.52571 16.7358 6.70467 16.7358C6.79106 16.7358 6.87858 16.714 6.959 16.6682C7.20608 16.5274 7.29226 16.2131 7.1515 15.966L5.06113 12.2965C5.77589 11.5225 6.61802 10.868 7.55406 10.3665L8.52644 13.1062C8.60135 13.3173 8.79977 13.449 9.01163 13.449C9.06878 13.449 9.12691 13.4394 9.18385 13.4192C9.45182 13.3241 9.59196 13.0298 9.49682 12.7618L8.49133 9.92883C9.57672 9.49301 10.7609 9.25268 12.0002 9.25268C12.1464 9.25268 12.2917 9.25649 12.4363 9.26314L12.0685 10.9929C12.0093 11.271 12.1868 11.5444 12.465 11.6035C12.5011 11.6112 12.5371 11.6149 12.5725 11.6149C12.8105 11.6149 13.0242 11.4491 13.0756 11.207L13.4669 9.36672C14.7132 9.56185 15.8795 10.0014 16.915 10.6348L14.5669 14.7566C14.4262 15.0036 14.5124 15.318 14.7594 15.4588C14.8399 15.5046 14.9274 15.5264 15.0138 15.5264C15.1927 15.5264 15.3667 15.4329 15.4616 15.2663L17.7657 11.2216C19.8761 12.8525 21.2801 15.3549 21.4329 18.1847H2.56749C2.66876 16.3094 3.31973 14.578 4.36141 13.1485ZM1.12701 21.844L1.26591 21.044H22.7346L22.8735 21.844H1.12701Z" fill="#5a5a79"/>
<path d="M11.2664 14.4008C11.1305 14.4008 10.9982 14.4559 10.9024 14.5517C10.8067 14.6474 10.7516 14.7802 10.7516 14.9156C10.7516 15.0511 10.8067 15.1839 10.9024 15.2796C10.9982 15.3754 11.131 15.4305 11.2664 15.4305C11.4018 15.4305 11.5347 15.3754 11.6304 15.2796C11.7262 15.1839 11.7813 15.0511 11.7813 14.9156C11.7813 14.7802 11.7262 14.6474 11.6304 14.5517C11.5347 14.4559 11.4018 14.4008 11.2664 14.4008Z" fill="#5a5a79"/>
<path d="M18.6579 14.0883C18.5621 13.9925 18.4293 13.9374 18.2939 13.9374C18.1585 13.9374 18.0257 13.9925 17.9299 14.0883C17.8341 14.184 17.7791 14.3169 17.7791 14.4523C17.7791 14.5877 17.8341 14.7205 17.9299 14.8163C18.0257 14.912 18.1585 14.9671 18.2939 14.9671C18.4293 14.9671 18.5621 14.912 18.6579 14.8163C18.7537 14.7205 18.8087 14.5877 18.8087 14.4523C18.8087 14.3169 18.7536 14.184 18.6579 14.0883Z" fill="#5a5a79"/>
<path d="M10.9318 10.8231C10.9318 10.6872 10.8767 10.5549 10.7809 10.4586C10.6852 10.3629 10.5523 10.3083 10.4169 10.3083C10.281 10.3083 10.1487 10.3629 10.0529 10.4586C9.95719 10.5549 9.9021 10.6872 9.9021 10.8231C9.9021 10.9586 9.95719 11.0914 10.0529 11.1871C10.1487 11.2829 10.281 11.338 10.4169 11.338C10.5523 11.338 10.6852 11.2829 10.7809 11.1871C10.8766 11.0914 10.9318 10.9586 10.9318 10.8231Z" fill="#5a5a79"/>
<path d="M16.2088 16.4859C16.0734 16.4859 15.9406 16.541 15.8448 16.6368C15.7491 16.7325 15.694 16.8654 15.694 17.0008C15.694 17.1362 15.7491 17.269 15.8448 17.3648C15.9406 17.4605 16.0734 17.5156 16.2088 17.5156C16.3442 17.5156 16.477 17.4605 16.5728 17.3648C16.6691 17.269 16.7237 17.1362 16.7237 17.0008C16.7237 16.8654 16.6691 16.7325 16.5728 16.6368C16.477 16.541 16.3442 16.4859 16.2088 16.4859Z" fill="#5a5a79"/>
<path d="M4.23884 15.482C4.10344 15.482 3.97112 15.5371 3.87485 15.6328C3.77909 15.7286 3.724 15.8614 3.724 15.9968C3.724 16.1322 3.77909 16.265 3.87485 16.3608C3.97112 16.4566 4.10344 16.5117 4.23884 16.5117C4.37476 16.5117 4.50708 16.4566 4.60335 16.3608C4.69911 16.265 4.75369 16.1322 4.75369 15.9968C4.75369 15.8614 4.69911 15.7286 4.60335 15.6328C4.50708 15.5371 4.37471 15.482 4.23884 15.482Z" fill="#5a5a79"/>
</g>
<defs>
<clipPath id="clip0_338_5825">
<rect width="24" height="24" fill="white" transform="translate(0 0.55954)"/>
</clipPath>
</defs>
</svg>
