<svg width="24" height="25" viewBox="0 0 24 25" fill="none" xmlns="http://www.w3.org/2000/svg">
<path d="M16.75 8.30954H7.25C6.84 8.30954 6.5 7.96954 6.5 7.55954V5.55954C6.5 2.99954 7.69 1.80954 10.25 1.80954H13.75C16.31 1.80954 17.5 2.99954 17.5 5.55954V7.55954C17.5 7.96954 17.16 8.30954 16.75 8.30954ZM8 6.80954H16V5.55954C16 3.85954 15.45 3.30954 13.75 3.30954H10.25C8.55 3.30954 8 3.85954 8 5.55954V6.80954Z" fill="#5a5a79"/>
<path d="M13 23.3095H11C8.58 23.3095 7.25 21.9795 7.25 19.5595V15.5595C7.25 15.1495 7.59 14.8095 8 14.8095H16C16.41 14.8095 16.75 15.1495 16.75 15.5595V19.5595C16.75 21.9795 15.42 23.3095 13 23.3095ZM8.75 16.3095V19.5595C8.75 21.1395 9.42 21.8095 11 21.8095H13C14.58 21.8095 15.25 21.1395 15.25 19.5595V16.3095H8.75Z" fill="#5a5a79"/>
<path d="M18 19.3095H16C15.59 19.3095 15.25 18.9695 15.25 18.5595V16.3095H8.75V18.5595C8.75 18.9695 8.41 19.3095 8 19.3095H6C3.58 19.3095 2.25 17.9795 2.25 15.5595V10.5595C2.25 8.13954 3.58 6.80954 6 6.80954H18C20.42 6.80954 21.75 8.13954 21.75 10.5595V15.5595C21.75 17.9795 20.42 19.3095 18 19.3095ZM16.75 17.8095H18C19.58 17.8095 20.25 17.1395 20.25 15.5595V10.5595C20.25 8.97954 19.58 8.30954 18 8.30954H6C4.42 8.30954 3.75 8.97954 3.75 10.5595V15.5595C3.75 17.1395 4.42 17.8095 6 17.8095H7.25V15.5595C7.25 15.1495 7.59 14.8095 8 14.8095H16C16.41 14.8095 16.75 15.1495 16.75 15.5595V17.8095Z" fill="#5a5a79"/>
<path d="M17 16.3095H7C6.59 16.3095 6.25 15.9695 6.25 15.5595C6.25 15.1495 6.59 14.8095 7 14.8095H17C17.41 14.8095 17.75 15.1495 17.75 15.5595C17.75 15.9695 17.41 16.3095 17 16.3095Z" fill="#5a5a79"/>
<path d="M10 12.3095H7C6.59 12.3095 6.25 11.9695 6.25 11.5595C6.25 11.1495 6.59 10.8095 7 10.8095H10C10.41 10.8095 10.75 11.1495 10.75 11.5595C10.75 11.9695 10.41 12.3095 10 12.3095Z" fill="#5a5a79"/>
</svg>
