<svg width="24" height="25" viewBox="0 0 24 25" fill="none" xmlns="http://www.w3.org/2000/svg">
<path d="M3.6918 6.5424C2.97037 6.5424 2.38342 7.12935 2.38342 7.85079V10.5591C2.38342 11.2806 2.97037 11.8675 3.6918 11.8675C4.41329 11.8675 5.00019 11.2805 5.00019 10.5591V7.85079C5.00019 7.12935 4.41324 6.5424 3.6918 6.5424ZM3.6918 7.57932C3.84148 7.57932 3.96327 7.70111 3.96327 7.85079V8.66642H3.42034V7.85079C3.42034 7.70111 3.54207 7.57932 3.6918 7.57932ZM3.6918 10.8306C3.54213 10.8306 3.42034 10.7088 3.42034 10.5591V9.70334H3.96327V10.5591C3.96327 10.7088 3.84148 10.8306 3.6918 10.8306Z" fill="#5a5a79"/>
<path d="M23.4815 6.84333H22.1788C21.8943 5.51945 20.7154 4.52391 19.3077 4.52391H17.7035V2.71018C17.7035 2.42384 17.4714 2.19173 17.1851 2.19173H16.9136V1.71946C16.9136 1.43312 16.6814 1.201 16.3952 1.201C16.1089 1.201 15.8767 1.43312 15.8767 1.71946V2.19173H15.6052C15.3189 2.19173 15.0868 2.42384 15.0868 2.71018V4.52385H14.7131V2.71018C14.7131 2.42384 14.481 2.19173 14.1947 2.19173H13.9232V1.71946C13.9232 1.43312 13.691 1.201 13.4047 1.201C13.1184 1.201 12.8863 1.43312 12.8863 1.71946V2.19173H12.6149C12.3286 2.19173 12.0964 2.42384 12.0964 2.71018V4.52385H4.21014V3.74135C4.21014 3.455 3.97803 3.22289 3.69168 3.22289C3.40534 3.22289 3.17322 3.455 3.17322 3.74135V4.52391H2.93701C1.31756 4.52385 0 5.84136 0 7.46082V13.3658C0 13.6521 0.232114 13.8843 0.518458 13.8843H1.72823V14.9086C1.72823 15.195 1.96034 15.4271 2.24669 15.4271H3.17322V16.838H1.66155C0.745335 16.8381 0 17.5834 0 18.4996V23.3996C0 23.686 0.232114 23.9181 0.518458 23.9181H21.7262C22.0125 23.9181 22.2447 23.686 22.2447 23.3996V12.8455H23.4815C23.7678 12.8455 24 12.6134 24 12.327V7.36179C24 7.07545 23.7679 6.84333 23.4815 6.84333ZM16.1236 3.22864H16.6666V4.52385H16.1236V3.22864ZM13.1332 3.22864H13.6761V4.52385H13.1332V3.22864ZM2.76514 13.8843H4.61817V14.3902H2.76514V13.8843ZM4.21014 15.4271H5.13668C5.42302 15.4271 5.65513 15.195 5.65513 14.9087V13.8843H6.8649C7.15125 13.8843 7.38336 13.6522 7.38336 13.3658V12.2974C7.38336 11.915 7.69444 11.6039 8.0768 11.6039H12.1909C12.5732 11.6039 12.8843 11.915 12.8843 12.2974V16.8381H4.21014V15.4271ZM1.66155 17.875H13.4028C13.6891 17.875 13.9212 17.6429 13.9212 17.3565V12.2973C13.9212 11.3432 13.145 10.567 12.1909 10.567H8.0768C7.12268 10.567 6.34645 11.3432 6.34645 12.2973V12.8473H1.03692V7.46082C1.03692 6.41312 1.88926 5.56077 2.93696 5.56077H19.3077C20.3554 5.56077 21.2077 6.41312 21.2077 7.46082V21.2124H1.03692V18.4996C1.03692 18.1552 1.31714 17.875 1.66155 17.875ZM1.03692 22.8812V22.2494H21.2078V22.8812H1.03692ZM22.9631 11.8086H22.2447V7.88025H22.9631V11.8086Z" fill="#5a5a79"/>
<path d="M11.0963 6.5424C10.1786 6.5424 9.43207 7.28893 9.43207 8.20655C9.43207 9.12417 10.1786 9.87075 11.0963 9.87075C12.0139 9.87075 12.7604 9.12422 12.7604 8.20655C12.7604 7.28888 12.0139 6.5424 11.0963 6.5424ZM11.0963 8.83383C10.7504 8.83383 10.469 8.55247 10.469 8.20655C10.469 7.86069 10.7504 7.57932 11.0963 7.57932C11.4421 7.57932 11.7235 7.86069 11.7235 8.20655C11.7235 8.55247 11.4421 8.83383 11.0963 8.83383Z" fill="#5a5a79"/>
<path d="M16.6956 8.20661C16.6956 7.28899 15.9491 6.54247 15.0314 6.54247C14.1137 6.54247 13.3672 7.28899 13.3672 8.20661C13.3672 9.12423 14.1137 9.87081 15.0314 9.87081C15.9491 9.87081 16.6956 9.12423 16.6956 8.20661ZM14.4042 8.20661C14.4042 7.86075 14.6856 7.57938 15.0314 7.57938C15.3773 7.57938 15.6587 7.86075 15.6587 8.20661C15.6587 8.55247 15.3773 8.83389 15.0314 8.83389C14.6856 8.83389 14.4042 8.55247 14.4042 8.20661Z" fill="#5a5a79"/>
<path d="M14.7356 16.5111V17.3566C14.7356 17.6429 14.9678 17.875 15.2541 17.875H19.7538C20.0401 17.875 20.2723 17.6429 20.2723 17.3566V16.5111C20.2723 15.6995 19.612 15.0392 18.8004 15.0392H16.2074C15.3959 15.0392 14.7356 15.6995 14.7356 16.5111ZM19.2353 16.5111V16.8381H15.7725V16.5111C15.7725 16.2713 15.9676 16.0761 16.2074 16.0761H18.8005C19.0403 16.0761 19.2353 16.2712 19.2353 16.5111Z" fill="#5a5a79"/>
</svg>
