<svg width="45" height="46" viewBox="0 0 45 46" fill="none" xmlns="http://www.w3.org/2000/svg">
<rect y="0.55957" width="45" height="45" rx="22.5" fill="#E92B66"/>
<path d="M25.5 33.8096H19.5C14.07 33.8096 11.75 31.4896 11.75 26.0596V20.0596C11.75 14.6296 14.07 12.3096 19.5 12.3096H25.5C30.93 12.3096 33.25 14.6296 33.25 20.0596V26.0596C33.25 31.4896 30.93 33.8096 25.5 33.8096ZM19.5 13.8096C14.89 13.8096 13.25 15.4496 13.25 20.0596V26.0596C13.25 30.6696 14.89 32.3096 19.5 32.3096H25.5C30.11 32.3096 31.75 30.6696 31.75 26.0596V20.0596C31.75 15.4496 30.11 13.8096 25.5 13.8096H19.5Z" fill="white"/>
<path d="M19.3199 20.8095C18.4699 20.8095 17.6199 20.4895 16.9699 19.8395C16.6799 19.5495 16.6799 19.0695 16.9699 18.7795C17.2599 18.4895 17.7399 18.4895 18.0299 18.7795C18.7399 19.4895 19.8999 19.4895 20.6099 18.7795C20.8999 18.4895 21.3799 18.4895 21.6699 18.7795C21.9599 19.0695 21.9599 19.5495 21.6699 19.8395C21.0199 20.4795 20.1699 20.8095 19.3199 20.8095Z" fill="white"/>
<path d="M25.68 20.8095C24.83 20.8095 23.98 20.4895 23.33 19.8395C23.04 19.5495 23.04 19.0695 23.33 18.7795C23.62 18.4895 24.1 18.4895 24.39 18.7795C25.1 19.4895 26.26 19.4895 26.97 18.7795C27.26 18.4895 27.74 18.4895 28.03 18.7795C28.32 19.0695 28.32 19.5495 28.03 19.8395C27.38 20.4795 26.53 20.8095 25.68 20.8095Z" fill="white"/>
<path d="M22.5 30.2096C19.6 30.2096 17.25 27.8496 17.25 24.9596C17.25 24.0496 17.99 23.3096 18.9 23.3096H26.1C27.01 23.3096 27.75 24.0496 27.75 24.9596C27.75 27.8496 25.4 30.2096 22.5 30.2096ZM18.9 24.8096C18.82 24.8096 18.75 24.8796 18.75 24.9596C18.75 27.0296 20.43 28.7096 22.5 28.7096C24.57 28.7096 26.25 27.0296 26.25 24.9596C26.25 24.8796 26.18 24.8096 26.1 24.8096H18.9Z" fill="white"/>
</svg>
