<svg width="45" height="46" viewBox="0 0 45 46" fill="none" xmlns="http://www.w3.org/2000/svg">
<rect y="0.55957" width="45" height="45" rx="22.5" fill="#E92B66"/>
<path d="M15.7002 21.5197C15.5102 21.5197 15.3102 21.4397 15.1702 21.2997C14.9602 21.0797 14.8902 20.7597 15.0102 20.4797L16.8702 16.0397C16.9102 15.9497 16.9302 15.8897 16.9602 15.8397C18.4402 12.4297 20.3302 11.5997 23.6702 12.8797C23.8602 12.9497 24.0102 13.0997 24.0902 13.2897C24.1702 13.4797 24.1702 13.6897 24.0902 13.8797L21.1602 20.6797C21.0402 20.9597 20.7702 21.1297 20.4702 21.1297H17.6202C17.0502 21.1297 16.5102 21.2397 15.9902 21.4597C15.9002 21.4997 15.8002 21.5197 15.7002 21.5197ZM21.1102 13.8097C19.8702 13.8097 19.1102 14.6197 18.3202 16.4597C18.3102 16.4897 18.2902 16.5197 18.2802 16.5497L16.9702 19.6597C17.1902 19.6397 17.4002 19.6297 17.6202 19.6297H19.9702L22.3802 14.0297C21.9102 13.8797 21.4902 13.8097 21.1102 13.8097Z" fill="white"/>
<path d="M28.7902 21.3296C28.7202 21.3296 28.6402 21.3196 28.5702 21.2996C28.1902 21.1896 27.7902 21.1296 27.3702 21.1296H20.4702C20.2202 21.1296 19.9802 20.9996 19.8402 20.7896C19.7102 20.5796 19.6802 20.3096 19.7802 20.0796L22.6802 13.3496C22.8302 12.9896 23.2702 12.7396 23.6402 12.8696C23.7602 12.9096 23.8702 12.9596 23.9902 13.0096L26.3502 13.9996C27.7302 14.5696 28.6502 15.1696 29.2502 15.8896C29.3702 16.0296 29.4702 16.1796 29.5702 16.3396C29.6802 16.5096 29.7802 16.7096 29.8502 16.9196C29.8802 16.9896 29.9302 17.1196 29.9602 17.2596C30.2402 18.2096 30.1002 19.3696 29.5002 20.8696C29.3702 21.1496 29.0902 21.3296 28.7902 21.3296ZM21.6102 19.6296H27.3802C27.7002 19.6296 28.0102 19.6596 28.3202 19.7096C28.6002 18.8396 28.6602 18.1696 28.5002 17.6296C28.4802 17.5396 28.4602 17.4996 28.4502 17.4596C28.3902 17.2996 28.3502 17.2096 28.3002 17.1296C28.2302 17.0196 28.1802 16.9296 28.1002 16.8396C27.6702 16.3196 26.9102 15.8396 25.7702 15.3696L23.8002 14.5496L21.6102 19.6296Z" fill="white"/>
<path d="M26.4 33.8096H18.6C18.32 33.8096 18.06 33.7896 17.8 33.7596C14.29 33.5296 12.29 31.5196 12.05 27.9696C12.02 27.7496 12 27.4796 12 27.2096V25.2596C12 23.0096 13.34 20.9796 15.41 20.0796C16.12 19.7796 16.86 19.6296 17.63 19.6296H27.39C27.96 19.6296 28.51 19.7096 29.02 19.8696C31.37 20.5796 33.02 22.7996 33.02 25.2596V27.2096C33.02 27.4296 33.01 27.6396 33 27.8396C32.78 31.7496 30.5 33.8096 26.4 33.8096ZM17.62 21.1296C17.05 21.1296 16.51 21.2396 15.99 21.4596C14.47 22.1196 13.49 23.6096 13.49 25.2596V27.2096C13.49 27.4196 13.51 27.6296 13.53 27.8296C13.72 30.6796 15.12 32.0796 17.93 32.2696C18.18 32.2996 18.38 32.3196 18.59 32.3196H26.39C29.69 32.3196 31.31 30.8696 31.47 27.7696C31.48 27.5896 31.49 27.4096 31.49 27.2096V25.2596C31.49 23.4496 30.28 21.8296 28.56 21.2996C28.18 21.1896 27.78 21.1296 27.36 21.1296H17.62Z" fill="white"/>
<path d="M12.7402 26.0096C12.3302 26.0096 11.9902 25.6696 11.9902 25.2596V22.3296C11.9902 19.1796 14.2202 16.4596 17.3002 15.8596C17.5702 15.8096 17.8502 15.9096 18.0302 16.1196C18.2002 16.3296 18.2502 16.6296 18.1402 16.8796L16.3902 21.0596C16.3102 21.2396 16.1702 21.3796 16.0002 21.4596C14.4802 22.1196 13.5002 23.6096 13.5002 25.2596C13.4902 25.6696 13.1602 26.0096 12.7402 26.0096ZM16.1002 17.8796C14.8202 18.5996 13.8902 19.8596 13.6002 21.3296C14.0402 20.8796 14.5502 20.4996 15.1302 20.2196L16.1002 17.8796Z" fill="white"/>
<path d="M32.2601 26.0096C31.8501 26.0096 31.5101 25.6696 31.5101 25.2596C31.5101 23.4496 30.3001 21.8296 28.5801 21.2996C28.3801 21.2396 28.2101 21.0996 28.1201 20.9096C28.0301 20.7196 28.0201 20.4996 28.1001 20.3096C28.5701 19.1396 28.6901 18.2896 28.5001 17.6296C28.4801 17.5396 28.4601 17.4996 28.4501 17.4596C28.3201 17.1696 28.3901 16.8296 28.6201 16.6096C28.8501 16.3896 29.2001 16.3396 29.4801 16.4896C31.6601 17.6296 33.0101 19.8696 33.0101 22.3296V25.2596C33.0101 25.6696 32.6701 26.0096 32.2601 26.0096ZM29.7501 20.1496C30.3801 20.4396 30.9401 20.8496 31.4101 21.3396C31.2201 20.3596 30.7501 19.4696 30.0601 18.7696C30.0101 19.1896 29.9101 19.6496 29.7501 20.1496Z" fill="white"/>
</svg>
