<svg width="330" height="73" viewBox="0 0 330 73" fill="none" xmlns="http://www.w3.org/2000/svg">
<g clip-path="url(#clip0_93_3297)">
<path d="M23.4897 6.31671H290.81C293.901 6.31671 296.243 9.10688 295.707 12.154L294.275 20.2675H325.026C328.117 20.2675 330.459 23.0577 329.923 26.1049L325.782 49.579C325.364 51.9579 323.3 53.6908 320.885 53.6908H26.1477L23.4897 6.31671Z" fill="#F9F9F9"/>
<path d="M38.4332 70.2471H271.341C276.631 70.2471 281.147 66.4144 282.071 61.1688L283.62 52.3309C284.798 45.5973 279.671 39.4348 272.891 39.4348H39.9831C34.6928 39.4348 30.1774 43.2676 29.2534 48.5132L27.7036 57.336C26.5263 64.0696 31.6527 70.2321 38.4332 70.2321V70.2471Z" fill="#FFC857"/>
<path d="M58.8516 34.3358L58.2054 32.4194C58.2495 30.5104 58.0953 28.6013 57.7576 26.7289C56.9132 22.0591 54.9086 17.6536 51.9349 13.9529L51.2741 12.0145C50.3122 9.17293 47.6469 7.26387 44.6511 7.26387C44.5263 7.26387 44.3941 7.26387 44.2693 7.27122C39.4232 4.37091 33.8723 2.96115 28.2112 3.24016C27.8661 2.13878 27.0217 1.25034 25.9203 0.853838C24.6721 0.405943 23.277 0.655585 22.2564 1.51466L16.4558 6.41948C10.3982 9.56943 5.58881 14.9001 3.04829 21.2514C2.06439 21.9196 1.27139 22.8374 0.728046 23.9314C-0.101661 25.6055 -0.226484 27.5073 0.375604 29.2768L1.02175 31.1932C0.977692 33.1023 1.13189 35.0113 1.46964 36.8763C2.31403 41.5462 4.31855 45.9517 7.29228 49.6524L7.95311 51.5908C8.91498 54.4324 11.5803 56.3414 14.5761 56.3414C14.7009 56.3414 14.8257 56.3414 14.9579 56.3341C19.804 59.2417 25.3623 60.6441 31.016 60.3651C31.3611 61.4665 32.2055 62.355 33.3069 62.7515C33.7181 62.8983 34.1439 62.9717 34.5625 62.9717C35.4289 62.9717 36.2806 62.6707 36.9635 62.0906L42.7641 57.1858C47.7203 54.6159 51.7881 50.673 54.5415 45.7682C54.5415 45.7608 54.5562 45.7461 54.5562 45.7388C54.7471 45.3937 54.938 45.0412 55.1216 44.6741L55.195 44.5273C55.3492 44.2189 55.4961 43.9031 55.6429 43.5948L55.7237 43.4112C55.8632 43.1028 55.9953 42.7871 56.1275 42.4714L56.1716 42.3612C57.1555 41.6931 57.9485 40.7752 58.4918 39.6812C59.3215 38.0071 59.4463 36.1054 58.8443 34.3358H58.8516Z" fill="white"/>
<path d="M21.9263 13.7694L16.0522 11.6547L18.534 9.55475C8.89325 14.3568 3.1367 25.1136 5.14121 36.2302C7.57894 49.7258 20.5385 58.7277 34.0341 56.29L34.5701 59.2638L43.1903 51.9726L32.5656 48.1545L33.1016 51.1282C22.4549 53.052 12.2268 45.9517 10.303 35.2977C8.65095 26.1269 13.6879 17.2791 21.9189 13.7694H21.9263Z" fill="url(#paint0_linear_93_3297)"/>
<path d="M25.2006 7.33731L24.6646 4.36359L16.0444 11.6547L26.6691 15.4729L26.1331 12.4991C36.7798 10.5754 47.0079 17.6756 48.9317 28.3296C50.5837 37.5005 45.5468 46.3482 37.3158 49.858L43.1898 51.9726L40.708 54.0726C50.3488 49.2706 56.1053 38.5137 54.1008 27.3971C51.6631 13.9015 38.7035 4.89959 25.2079 7.33731H25.2006Z" fill="url(#paint1_linear_93_3297)"/>
<path d="M50.7824 44.8577C52.2803 42.4274 53.367 39.74 53.9617 36.9058L53.2862 35.8705L48.4034 37.4858C47.28 41.1865 45.0772 44.4833 42.1108 46.943L50.7824 44.8577Z" fill="#B6750E"/>
<path d="M25.3255 50.9667C22.6234 50.3572 20.0976 49.1751 17.9095 47.545L12.1089 49.4614C13.4893 50.8272 15.0239 52.0313 16.6833 53.0446L25.3328 50.9667H25.3255Z" fill="#B6750E"/>
<path d="M43.6003 11.1708L5.95517 23.9422C4.24244 24.5233 3.32504 26.3828 3.9061 28.0955L11.4784 50.4155C12.0595 52.1283 13.9189 53.0456 15.6317 52.4646L53.2767 39.6931C54.9895 39.1121 55.9069 37.2526 55.3258 35.5399L47.7535 13.2198C47.1725 11.5071 45.313 10.5897 43.6003 11.1708Z" fill="#E92B66"/>
<path d="M53.304 29.5695L9.45654 44.4452L11.1314 49.382L54.9788 34.5064L53.304 29.5695Z" fill="#084E37"/>
<path d="M43.7657 14.6387L35.54 17.4294C34.9179 17.6404 34.5847 18.3158 34.7957 18.938L36.447 23.8053C36.6581 24.4274 37.3335 24.7606 37.9556 24.5495L46.1813 21.7589C46.8034 21.5478 47.1367 20.8724 46.9256 20.2503L45.2743 15.383C45.0633 14.7609 44.3879 14.4277 43.7657 14.6387Z" fill="url(#paint2_linear_93_3297)"/>
<path d="M42.3089 19.1074C42.5805 19.9078 42.1547 20.7742 41.3543 21.0459C40.554 21.3175 39.6876 20.8917 39.4159 20.0913C39.1442 19.291 39.5701 18.4246 40.3704 18.1529C41.1708 17.8812 42.0372 18.3071 42.3089 19.1074Z" stroke="#E67E22" stroke-width="0.763624" stroke-miterlimit="10"/>
<path d="M40.3704 18.1529L39.6582 16.0309" stroke="#E67E22" stroke-width="0.763624" stroke-miterlimit="10"/>
<path d="M41.3545 21.0385L42.0741 23.1532" stroke="#E67E22" stroke-width="0.763624" stroke-miterlimit="10"/>
<path d="M42.3091 19.1074L46.1052 17.8151" stroke="#E67E22" stroke-width="0.763624" stroke-miterlimit="10"/>
<path d="M39.4157 20.084L35.627 21.3763" stroke="#E67E22" stroke-width="0.763624" stroke-miterlimit="10"/>
<path d="M17.4985 35.9292L11.9842 37.8015C11.3601 38.0145 11.0297 38.69 11.2353 39.3141C11.4482 39.9382 12.1237 40.2686 12.7479 40.0631L18.2621 38.1907C18.8862 37.9778 19.2166 37.3023 19.011 36.6781C18.7981 36.054 18.1226 35.7236 17.4985 35.9292Z" fill="white"/>
<path d="M24.0403 29.6807L10.7577 34.189C10.1336 34.4019 9.80314 35.0774 10.0087 35.7015C10.2217 36.3257 10.8972 36.6561 11.5213 36.4505L24.8039 31.9422C25.4281 31.7292 25.7585 31.0537 25.5529 30.4296C25.34 29.8055 24.6644 29.4751 24.0403 29.6807Z" fill="white"/>
<path d="M81.4542 32.4222H78.609L80.089 25.3895H72.5055L71.0255 32.4222H68.1574L71.6451 15.9704H74.5132L73.0333 22.8655H80.6282L82.1082 15.9704H84.9534L81.4542 32.4222ZM96.1393 32.4222L95.5313 28.2921H89.0951L86.8005 32.4222H83.5767L93.2138 15.9704H96.4376L99.0419 32.4222H96.1393ZM94.384 19.2401V18.8385L94.4069 18.437H94.3496C94.1966 18.8959 94.0169 19.3166 93.8104 19.699L90.2768 25.9975H95.233L94.4299 19.8022C94.3993 19.6646 94.384 19.4772 94.384 19.2401ZM119.509 32.4222H101.141L104.618 15.9704H107.474L104.526 29.9097H109.413L112.35 15.9704H115.218L112.281 29.9097H117.169L120.129 15.9704H122.985L119.509 32.4222ZM135.755 32.4222H132.898L135.869 18.4255H131.808C130.294 22.8999 129.15 26.0319 128.378 27.8217C127.605 29.6114 126.825 30.862 126.037 31.5733C125.257 32.2769 124.301 32.6288 123.169 32.6288C122.458 32.6288 121.903 32.5599 121.506 32.4222L122.01 30.0359C122.27 30.1659 122.588 30.231 122.963 30.231C123.444 30.231 123.88 30.0665 124.27 29.7376C124.66 29.4011 125.074 28.8045 125.509 27.9479C125.953 27.0913 126.603 25.5118 127.46 23.2096C128.316 20.9075 129.158 18.4944 129.984 15.9704H139.254L135.755 32.4222ZM153.882 32.4222H151.22L153.365 22.2345C153.549 21.4008 153.713 20.7086 153.859 20.1579H153.813C153.599 20.418 153.396 20.6589 153.205 20.8807C153.013 21.1025 149.438 24.9497 142.478 32.4222H139.931L143.407 15.9704H146.069L143.889 26.3646C143.766 26.9612 143.636 27.4775 143.499 27.9135H143.545L143.797 27.6152L144.68 26.6285L154.627 15.9704H157.369L153.882 32.4222ZM177.263 29.9327H179.741L178.261 36.8507H175.645L176.597 32.4222H165.457L164.528 36.8507H161.924L163.392 29.9327H164.746C166.253 28.4565 167.515 26.6591 168.532 24.5405C169.557 22.4219 170.505 19.5651 171.377 15.9704H180.223L177.263 29.9327ZM173.282 18.4829C171.875 23.9668 170.112 27.7834 167.993 29.9327H174.406L176.838 18.4829H173.282ZM193.462 18.3567H187.416L186.43 23.0146H192.051L191.535 25.4009H185.925L184.927 30.0474H191.363L190.87 32.4222H181.577L185.064 15.9704H193.979L193.462 18.3567ZM212.025 32.4222H193.657L197.134 15.9704H199.99L197.042 29.9097H201.929L204.866 15.9704H207.734L204.797 29.9097H209.685L212.645 15.9704H215.501L212.025 32.4222ZM227.697 18.3567H221.651L220.664 23.0146H226.286L225.77 25.4009H220.159L219.161 30.0474H225.597L225.104 32.4222H215.811L219.299 15.9704H228.213L227.697 18.3567ZM241.097 19.6072C241.097 20.7009 240.764 21.6226 240.099 22.3721C239.434 23.114 238.485 23.6035 237.254 23.8406V23.8865C238.187 24.0319 238.917 24.4028 239.445 24.9994C239.98 25.596 240.248 26.3379 240.248 27.2251C240.248 28.816 239.663 30.0818 238.493 31.0226C237.323 31.9557 235.72 32.4222 233.686 32.4222H227.904L231.391 15.9704H236.577C237.992 15.9704 239.097 16.2916 239.893 16.9341C240.696 17.5689 241.097 18.4599 241.097 19.6072ZM238.126 20.1579C238.126 19.5154 237.919 19.0298 237.506 18.7009C237.093 18.372 236.504 18.2075 235.739 18.2075H233.778L232.779 22.8196H234.73C235.801 22.8196 236.634 22.5863 237.231 22.1197C237.827 21.6455 238.126 20.9916 238.126 20.1579ZM237.265 27.3054C237.265 26.617 237.024 26.0702 236.542 25.6648C236.068 25.2594 235.345 25.0568 234.374 25.0568H232.309L231.231 30.1851H233.594C234.787 30.1851 235.697 29.9365 236.324 29.4393C236.952 28.9345 237.265 28.2232 237.265 27.3054ZM254.704 32.4222H251.847L254.819 18.4255H250.757C249.243 22.8999 248.099 26.0319 247.327 27.8217C246.554 29.6114 245.774 30.862 244.986 31.5733C244.206 32.2769 243.25 32.6288 242.118 32.6288C241.407 32.6288 240.852 32.5599 240.455 32.4222L240.959 30.0359C241.22 30.1659 241.537 30.231 241.912 30.231C242.394 30.231 242.83 30.0665 243.22 29.7376C243.61 29.4011 244.023 28.8045 244.459 27.9479C244.902 27.0913 245.552 25.5118 246.409 23.2096C247.266 20.9075 248.107 18.4944 248.933 15.9704H258.203L254.704 32.4222ZM270.766 18.3567H264.719L263.733 23.0146H269.354L268.838 25.4009H263.228L262.23 30.0474H268.666L268.173 32.4222H258.88L262.368 15.9704H271.282L270.766 18.3567ZM281.263 19.3548C281.263 20.2726 281.007 21.114 280.494 21.8788C279.99 22.636 279.187 23.3779 278.085 24.1045C277.305 24.617 276.739 25.1294 276.387 25.6419C276.043 26.1543 275.798 26.8159 275.653 27.6266H273.29C273.534 26.4182 273.852 25.4812 274.242 24.8158C274.64 24.1504 275.232 23.55 276.02 23.0146C276.969 22.3568 277.626 21.7909 277.993 21.3166C278.368 20.8348 278.556 20.3262 278.556 19.7908C278.556 19.2095 278.345 18.7429 277.925 18.3911C277.512 18.0393 276.98 17.8634 276.33 17.8634C275.137 17.8634 274.016 18.2075 272.968 18.8959L273.462 16.3375C274.563 15.848 275.733 15.6032 276.972 15.6032C278.28 15.6032 279.32 15.9436 280.093 16.6243C280.873 17.2974 281.263 18.2075 281.263 19.3548ZM275.607 31.034C275.607 31.493 275.439 31.8792 275.102 32.1928C274.773 32.5064 274.36 32.6632 273.863 32.6632C273.404 32.6632 273.014 32.5178 272.693 32.2272C272.379 31.9289 272.223 31.5656 272.223 31.1373C272.223 30.6707 272.383 30.2807 272.704 29.9671C273.026 29.6535 273.443 29.4967 273.955 29.4967C274.414 29.4967 274.804 29.6497 275.125 29.9556C275.446 30.2539 275.607 30.6134 275.607 31.034Z" fill="#273645"/>
<path d="M76.0391 61.7623H73.7503L75.6878 52.6272C75.8752 51.7839 76.1295 50.7935 76.4507 49.6557H76.3905C76.0492 50.412 75.5104 51.2787 74.7743 52.2557L70.6986 57.7268H69.1526L67.5063 52.4364C67.3858 52.0684 67.2754 51.6166 67.175 51.0812C67.0746 50.5458 67.0177 50.0707 67.0044 49.6557H66.9341C66.6999 51.1348 66.5258 52.1286 66.4121 52.6372L64.4646 61.7623H62.1959L65.2476 47.3669H68.1789L70.0561 53.2897C70.2569 53.9255 70.374 54.5245 70.4075 55.0866H70.4576C70.8257 54.2835 71.2038 53.621 71.592 53.099L75.8986 47.3669H79.1009L76.0391 61.7623ZM93.4361 61.7623H90.9364L93.9782 47.3669H96.4778L93.4361 61.7623ZM83.809 53.35H85.5357C86.9411 53.35 88.0453 53.698 88.8484 54.394C89.6582 55.0833 90.0631 56.0303 90.0631 57.2349C90.0631 58.6805 89.5612 59.7981 88.5573 60.5878C87.5534 61.3708 86.1012 61.7623 84.2005 61.7623H79.5426L82.5943 47.3669H85.094L83.809 53.35ZM87.4229 57.3554C87.4229 55.9834 86.5663 55.2975 84.853 55.2975H83.3874L82.4438 59.8048H84.1102C85.2211 59.8048 86.051 59.594 86.5998 59.1724C87.1485 58.7507 87.4229 58.1451 87.4229 57.3554ZM115.2 50.3083C114.082 49.639 112.921 49.3044 111.716 49.3044C110.552 49.3044 109.515 49.5721 108.604 50.1075C107.701 50.6362 107.002 51.3723 106.506 52.316C106.011 53.2596 105.764 54.3237 105.764 55.5083C105.764 56.8869 106.142 57.9577 106.898 58.7206C107.661 59.4769 108.691 59.855 109.99 59.855C110.652 59.855 111.275 59.7814 111.857 59.6341C112.439 59.4869 113.045 59.2426 113.674 58.9013L113.142 61.3106C112.064 61.7791 110.816 62.0133 109.397 62.0133C108.146 62.0133 107.045 61.7556 106.095 61.2403C105.151 60.7183 104.425 59.9821 103.916 59.0318C103.414 58.0748 103.164 56.9739 103.164 55.7291C103.164 54.056 103.522 52.5603 104.238 51.2418C104.96 49.9167 105.978 48.8995 107.289 48.1901C108.601 47.4807 110.12 47.126 111.847 47.126C113.199 47.126 114.49 47.387 115.722 47.909L115.2 50.3083ZM127.296 61.7623H124.807L126.102 55.6086H119.466L118.171 61.7623H115.662L118.713 47.3669H121.223L119.928 53.4002H126.574L127.869 47.3669H130.358L127.296 61.7623ZM143.007 61.7623H140.678L142.555 52.848C142.716 52.1186 142.86 51.5129 142.987 51.031H142.947C142.759 51.2586 142.582 51.4694 142.415 51.6635C142.247 51.8575 139.119 55.2238 133.028 61.7623H130.8L133.842 47.3669H136.171L134.263 56.4619C134.156 56.9839 134.042 57.4357 133.922 57.8171H133.962L134.183 57.5561L134.956 56.6928L143.659 47.3669H146.059L143.007 61.7623ZM157.061 50.509C157.061 51.5196 156.73 52.3662 156.067 53.0488C155.411 53.7314 154.501 54.1597 153.337 54.3337V54.3739C154.133 54.5278 154.765 54.8959 155.234 55.4781C155.702 56.0537 155.937 56.7597 155.937 57.5963C155.937 58.4596 155.692 59.2393 155.204 59.9353C154.715 60.6246 154.036 61.1433 153.166 61.4913C152.303 61.8393 151.279 62.0133 150.094 62.0133C148.361 62.0133 146.905 61.7088 145.727 61.0998L146.189 58.8411C146.738 59.2025 147.374 59.4869 148.096 59.6944C148.826 59.9018 149.515 60.0056 150.164 60.0056C151.208 60.0056 152.015 59.7881 152.584 59.3531C153.159 58.9181 153.447 58.3057 153.447 57.516C153.447 56.0905 152.473 55.3778 150.526 55.3778H148.859L149.271 53.3198H150.967C152.179 53.3198 153.079 53.1057 153.668 52.6774C154.263 52.2491 154.561 51.6467 154.561 50.8704C154.561 50.3216 154.364 49.8967 153.969 49.5955C153.574 49.2877 153.029 49.1337 152.333 49.1337C151.804 49.1337 151.188 49.2341 150.486 49.4349C149.783 49.629 149.217 49.8364 148.789 50.0573L149.181 47.8488C149.709 47.6346 150.318 47.4606 151.008 47.3268C151.704 47.1929 152.353 47.126 152.955 47.126C154.233 47.126 155.237 47.4272 155.967 48.0295C156.696 48.6318 157.061 49.4583 157.061 50.509ZM169.991 61.7623H167.662L169.539 52.848C169.7 52.1186 169.843 51.5129 169.971 51.031H169.93C169.743 51.2586 169.566 51.4694 169.398 51.6635C169.231 51.8575 166.102 55.2238 160.012 61.7623H157.784L160.825 47.3669H163.154L161.247 56.4619C161.14 56.9839 161.026 57.4357 160.906 57.8171H160.946L161.167 57.5561L161.94 56.6928L170.643 47.3669H173.042L169.991 61.7623ZM187.327 61.7623H185.039L186.976 52.6272C187.163 51.7839 187.418 50.7935 187.739 49.6557H187.679C187.337 50.412 186.799 51.2787 186.063 52.2557L181.987 57.7268H180.441L178.795 52.4364C178.674 52.0684 178.564 51.6166 178.463 51.0812C178.363 50.5458 178.306 50.0707 178.293 49.6557H178.222C177.988 51.1348 177.814 52.1286 177.7 52.6372L175.753 61.7623H173.484L176.536 47.3669H179.467L181.344 53.2897C181.545 53.9255 181.662 54.5245 181.696 55.0866H181.746C182.114 54.2835 182.492 53.621 182.88 53.099L187.187 47.3669H190.389L187.327 61.7623ZM208.71 59.5639H210.707L209.422 65.6372H207.144L207.977 61.7623H196.483L199.534 47.3669H202.034L199.434 59.5639H206.21L208.8 47.3669H211.3L208.71 59.5639ZM222.834 49.455H217.544L216.68 53.5307H221.599L221.148 55.6187H216.239L215.365 59.6843H220.997L220.565 61.7623H212.434L215.486 47.3669H223.286L222.834 49.455ZM234.649 61.7623H232.16L233.455 55.6086H226.819L225.524 61.7623H223.015L226.066 47.3669H228.576L227.281 53.4002H233.927L235.222 47.3669H237.711L234.649 61.7623ZM239.317 62.0133C238.949 62.0133 238.585 61.9731 238.223 61.8928C237.862 61.8125 237.594 61.7222 237.42 61.6218L237.862 59.4635C238.056 59.5839 238.287 59.681 238.555 59.7546C238.822 59.8282 239.08 59.865 239.327 59.865C239.836 59.865 240.318 59.6877 240.773 59.333C241.228 58.9716 241.75 58.3559 242.339 57.4859L239.729 47.3669H242.419L243.805 53.8017C243.878 54.1162 243.949 54.5947 244.016 55.2372H244.056C244.297 54.7286 244.527 54.2902 244.748 53.9222L248.724 47.3669H251.504L244.859 57.6967C244.036 58.9749 243.36 59.8885 242.831 60.4372C242.309 60.986 241.77 61.3876 241.215 61.6419C240.659 61.8895 240.027 62.0133 239.317 62.0133ZM253.693 57.5059H251.725L253.592 47.3669H256.122L253.693 57.5059ZM253.633 60.5477C253.633 60.9425 253.489 61.2805 253.201 61.5616C252.92 61.8359 252.562 61.9731 252.127 61.9731C251.719 61.9731 251.374 61.846 251.093 61.5917C250.812 61.3307 250.671 61.0128 250.671 60.638C250.671 60.2298 250.815 59.8885 251.103 59.6141C251.397 59.3397 251.762 59.2025 252.197 59.2025C252.592 59.2025 252.93 59.333 253.211 59.594C253.492 59.8483 253.633 60.1662 253.633 60.5477Z" fill="#273645"/>
<path d="M312.425 37.4381L299.209 45.0687L299.209 29.8075L312.425 37.4381Z" fill="#E92B66"/>
</g>
<defs>
<linearGradient id="paint0_linear_93_3297" x1="30.8117" y1="17.9219" x2="24.3956" y2="38.6743" gradientUnits="userSpaceOnUse">
<stop stop-color="#F39C12"/>
<stop offset="1" stop-color="#F4D03F"/>
</linearGradient>
<linearGradient id="paint1_linear_93_3297" x1="27.8902" y1="44.6225" x2="36.8606" y2="19.4312" gradientUnits="userSpaceOnUse">
<stop stop-color="#F39C12"/>
<stop offset="1" stop-color="#F4D03F"/>
</linearGradient>
<linearGradient id="paint2_linear_93_3297" x1="44.7047" y1="30.9361" x2="38.5289" y2="12.7324" gradientUnits="userSpaceOnUse">
<stop stop-color="#F39C12"/>
<stop offset="1" stop-color="#F4D03F"/>
</linearGradient>
<clipPath id="clip0_93_3297">
<rect width="330" height="71.8489" fill="white" transform="translate(0 0.635132)"/>
</clipPath>
</defs>
</svg>
