<svg width="330" height="71" viewBox="0 0 330 71" fill="none" xmlns="http://www.w3.org/2000/svg">
<g clip-path="url(#clip0_93_3296)">
<path d="M325.013 11.7763H43.9281L38.3633 43.3548L37.0825 50.598L34.9404 62.7656H269.343C271.764 62.7656 273.833 61.0284 274.252 58.6435L275.673 50.598H319.927C322.349 50.598 324.417 48.8608 324.837 46.4758L329.923 17.6283C330.46 14.5735 328.112 11.7763 325.013 11.7763Z" fill="#F9F9F9"/>
<path d="M313.208 31.4227L299.959 39.0725L299.959 23.773L313.208 31.4227Z" fill="#E92B66"/>
<path d="M91.7681 28.0479L83.5675 36.1565L88.6627 44.5411H85.2007L81.1867 37.4677C80.995 37.138 80.8378 36.7967 80.7152 36.444H80.6692L78.9209 44.5411H76.0571L79.5535 28.0479H82.4289L80.7957 35.7539H80.8417L81.3937 35.1099L88.1911 28.0479H91.7681ZM92.1131 44.8286C91.6914 44.8286 91.2735 44.7826 90.8595 44.6906C90.4454 44.5986 90.1387 44.4951 89.9394 44.3801L90.4454 41.9072C90.6678 42.0453 90.9323 42.1564 91.239 42.2408C91.5457 42.3251 91.8409 42.3673 92.1246 42.3673C92.7074 42.3673 93.2594 42.1641 93.7808 41.7577C94.3022 41.3437 94.9003 40.6382 95.5751 39.6414L92.5847 28.0479H95.6671L97.2543 35.4204C97.3386 35.7808 97.4191 36.329 97.4958 37.0651H97.5418C97.8179 36.4824 98.0824 35.9801 98.3354 35.5584L102.89 28.0479H106.076L98.462 39.883C97.5188 41.3475 96.7444 42.3941 96.1387 43.0229C95.5406 43.6516 94.9233 44.1117 94.2869 44.4031C93.6505 44.6868 92.9259 44.8286 92.1131 44.8286ZM117.727 44.5411H114.863L117.83 30.5783H110.32L107.364 44.5411H104.512L107.997 28.0479H121.212L117.727 44.5411ZM135.681 44.5411H133.012L135.163 34.3278C135.347 33.492 135.512 32.7981 135.658 32.246H135.612C135.397 32.5067 135.194 32.7482 135.002 32.9706C134.81 33.1929 131.226 37.0498 124.248 44.5411H121.695L125.18 28.0479H127.848L125.663 38.4683C125.54 39.0664 125.41 39.5839 125.272 40.021H125.318L125.571 39.722L126.457 38.7328L136.428 28.0479H139.177L135.681 44.5411ZM159.397 31.6939C159.397 32.7904 159.063 33.7143 158.396 34.4658C157.729 35.2095 156.778 35.7003 155.544 35.938V35.984C156.479 36.1297 157.212 36.5015 157.741 37.0996C158.277 37.6977 158.546 38.4415 158.546 39.3309C158.546 40.9258 157.959 42.1948 156.786 43.1379C155.613 44.0733 154.006 44.5411 151.967 44.5411H146.17L149.667 28.0479H154.865C156.284 28.0479 157.392 28.37 158.189 29.0141C158.994 29.6505 159.397 30.5438 159.397 31.6939ZM156.418 32.246C156.418 31.6019 156.211 31.115 155.797 30.7853C155.383 30.4556 154.792 30.2907 154.026 30.2907H152.059L151.058 34.9143H153.013C154.087 34.9143 154.923 34.6805 155.521 34.2127C156.119 33.7373 156.418 33.0818 156.418 32.246ZM155.555 39.4114C155.555 38.7213 155.314 38.1731 154.831 37.7667C154.355 37.3603 153.631 37.1571 152.657 37.1571H150.587L149.506 42.2983H151.875C153.071 42.2983 153.983 42.0491 154.612 41.5507C155.241 41.0446 155.555 40.3315 155.555 39.4114ZM182.745 28.0479L174.544 36.1565L179.639 44.5411H176.177L172.163 37.4677C171.972 37.138 171.815 36.7967 171.692 36.444H171.646L169.898 44.5411H167.034L170.53 28.0479H173.406L171.772 35.7539H171.818L172.37 35.1099L179.168 28.0479H182.745ZM195.385 32.568C195.385 33.7642 195.105 34.8185 194.545 35.7309C193.986 36.6357 193.173 37.3373 192.107 37.8357C191.041 38.3341 189.768 38.5833 188.289 38.5833H185.873L184.62 44.5411H181.756L185.252 28.0479H190.221C191.831 28.0479 193.092 28.4467 194.005 29.2441C194.925 30.0415 195.385 31.1495 195.385 32.568ZM192.406 32.7751C192.406 32.039 192.157 31.4524 191.658 31.0153C191.16 30.5706 190.435 30.3482 189.485 30.3482H187.633L186.368 36.306H188.381C189.638 36.306 190.623 35.9955 191.336 35.3744C192.05 34.7533 192.406 33.8869 192.406 32.7751ZM207.864 30.4403H201.803L200.814 35.1099H206.449L205.932 37.5022H200.308L199.307 42.1603H205.759L205.265 44.5411H195.949L199.445 28.0479H208.382L207.864 30.4403ZM221.022 42.0453H223.506L222.022 48.9806H219.4L220.355 44.5411H209.187L208.255 48.9806H205.644L207.116 42.0453H208.474C209.984 40.5654 211.249 38.7635 212.269 36.6396C213.297 34.5156 214.247 31.6517 215.122 28.0479H223.989L221.022 42.0453ZM217.031 30.5668C215.62 36.0645 213.853 39.8906 211.729 42.0453H218.158L220.596 30.5668H217.031ZM239.332 44.5411H236.664L238.815 34.3278C238.999 33.492 239.163 32.7981 239.309 32.246H239.263C239.048 32.5067 238.845 32.7482 238.654 32.9706C238.462 33.1929 234.877 37.0498 227.9 44.5411H225.346L228.831 28.0479H231.5L229.314 38.4683C229.192 39.0664 229.061 39.5839 228.923 40.021H228.969L229.222 39.722L230.108 38.7328L240.08 28.0479H242.829L239.332 44.5411ZM256.964 30.4403H252.294L249.315 44.5411H246.463L249.442 30.4403H244.692L245.209 28.0479H257.481L256.964 30.4403Z" fill="#273645"/>
<path d="M52.8422 10.628C52.1355 10.1201 51.3773 9.61223 50.5161 9.0896C50.2658 8.94238 50.0155 8.79516 49.7653 8.64794C47.5275 3.64986 42.5147 0.307983 36.9131 0.307983C36.3536 0.307983 35.7868 0.344795 35.2127 0.418404C34.6385 0.344795 34.0717 0.307983 33.5123 0.307983C28.897 0.307983 24.6644 2.531 22.0439 6.22619C19.74 7.05062 17.5317 8.12532 15.4559 9.43557L15.2424 9.56806C14.9333 9.7668 14.6241 9.97291 14.3223 10.179L14.0131 10.3998C13.7261 10.606 13.439 10.8121 13.1666 11.0182C13.0857 11.0771 13.0047 11.1433 12.9237 11.2095L12.8648 11.2611C12.4158 11.6144 11.9594 11.9824 11.5251 12.3579L11.4147 12.4536C11.2675 12.5787 11.1203 12.7038 10.9731 12.8437C10.8406 12.9688 10.7007 13.094 10.5682 13.2191L10.4504 13.3295C10.2443 13.5209 10.0456 13.7123 9.83948 13.911C9.67754 14.073 9.5156 14.2349 9.36838 14.3895C9.15491 14.6103 8.9488 14.8311 8.7427 15.0593C8.60284 15.2139 8.45562 15.3758 8.32312 15.5304C8.09493 15.7881 7.8741 16.0531 7.65328 16.318L7.5723 16.4137C7.48397 16.5168 7.403 16.6198 7.31467 16.7229C6.96135 17.1645 6.64482 17.5768 6.35775 17.9743C1.13883 25.1585 -0.973758 33.9549 0.417461 42.7439C1.80868 51.5328 6.52705 59.2471 13.7113 64.466C19.4234 68.6176 26.1734 70.8112 33.2326 70.8112C41.1309 70.8112 48.6538 68.0729 54.6309 63.0674H55.9117C57.3397 63.0674 58.6279 62.4344 59.4964 61.4333C60.1884 61.448 60.8877 61.3155 61.5428 61.0211C63.096 60.3292 64.1559 58.8643 64.3326 57.1787L65.7753 43.4947C65.7901 43.3622 65.7974 43.2297 65.7974 43.0972C66.0624 42.5893 66.2464 42.0299 66.3127 41.4263C67.7039 29.4721 62.5439 17.6577 52.8422 10.606V10.628Z" fill="white"/>
<path d="M61.0498 43.0089L48.4773 48.6032L51.7529 50.9808C44.3478 61.1684 30.0308 63.4356 19.8359 56.0304C18.6066 55.1398 16.494 53.064 16.4866 53.0566C9.59677 46.947 5.03298 32.3944 14.9555 21.3824C23.2292 12.2107 34.3222 9.03811 47.1818 16.3549C59.8573 23.5686 61.543 40.4031 61.5872 40.889C62.7428 30.9738 58.6722 20.7347 50.0378 14.4631C37.3107 5.21042 19.431 8.03703 10.1783 20.7641C0.925573 33.4912 3.75218 51.3709 16.4793 60.6237C29.2063 69.8764 47.0861 67.0498 56.3388 54.3227L59.5923 56.6855L61.0351 43.0015L61.0498 43.0089Z" fill="#E92B66"/>
<path d="M44.7452 11.4231C44.9292 11.9752 45.047 12.6524 45.0175 13.4915C44.9954 14.0068 44.9881 14.5883 44.9807 15.1993C45.7094 15.5526 46.4455 15.9353 47.189 16.3549C47.5129 16.5389 47.822 16.7303 48.1312 16.9291C48.1312 15.825 48.1091 14.4852 48.0502 13.1456C46.9755 12.4904 45.8714 11.9163 44.7378 11.4231H44.7452Z" fill="#107864"/>
<path d="M25.3564 10.157V13.8522C27.7267 12.91 30.2294 12.3873 32.8499 12.3284C33.2768 11.3715 33.9025 10.1864 34.7785 9.07491C31.5985 8.91297 28.4112 9.28102 25.3564 10.157Z" fill="#107864"/>
<path d="M45.0687 18.5411V14.3969C45.0687 9.892 41.4177 6.24097 36.9128 6.24097C32.4079 6.24097 28.7568 9.892 28.7568 14.3969V18.5411" stroke="#AD5F1A" stroke-width="2.37759" stroke-miterlimit="10" stroke-linecap="round"/>
<path d="M19.4819 16.2151H50.4715L55.8965 58.3271H24.8996L19.4819 16.2151Z" fill="url(#paint0_linear_93_3296)"/>
<path d="M50.3541 16.2151H19.3645L13.9395 58.3271H44.9364L50.3541 16.2151Z" fill="url(#paint1_linear_93_3296)"/>
<path d="M55.8968 58.3271H50.354V16.2151L55.8968 58.3271Z" fill="url(#paint2_linear_93_3296)"/>
<path d="M41.6678 18.5411V14.3969C41.6678 9.892 38.0168 6.24097 33.5119 6.24097C29.007 6.24097 25.356 9.892 25.356 14.3969V18.5411" stroke="#E67E22" stroke-width="2.37759" stroke-miterlimit="10" stroke-linecap="round"/>
<path d="M48.4768 48.6032L51.7524 50.9808C44.3473 61.1684 30.0302 63.4355 19.8353 56.0304C18.606 55.1397 16.4935 53.0639 16.4861 53.0566C9.59625 46.947 5.03246 32.3944 14.955 21.3824C17.7227 18.3129 20.807 15.9206 24.1709 14.3674C24.1709 12.8732 24.539 11.4599 25.172 10.2085C19.3495 11.9236 14.0202 15.4937 10.1851 20.7715C0.932409 33.4985 3.75901 51.3783 16.4861 60.631C29.2132 69.8837 47.0929 67.0571 56.3456 54.33L59.5992 56.6929L61.0419 43.0089L48.4694 48.6032H48.4768Z" fill="#E92B66"/>
</g>
<defs>
<linearGradient id="paint0_linear_93_3296" x1="19.4819" y1="37.2674" x2="55.8965" y2="37.2674" gradientUnits="userSpaceOnUse">
<stop stop-color="#F39C12"/>
<stop offset="1" stop-color="#F1C40F"/>
</linearGradient>
<linearGradient id="paint1_linear_93_3296" x1="32.1504" y1="90.7005" x2="32.1504" y2="34.5439" gradientUnits="userSpaceOnUse">
<stop stop-color="#F1C40F"/>
<stop offset="1" stop-color="#FFE199"/>
</linearGradient>
<linearGradient id="paint2_linear_93_3296" x1="53.1217" y1="54.6024" x2="53.1217" y2="-1.54688" gradientUnits="userSpaceOnUse">
<stop stop-color="#F39C12"/>
<stop offset="1" stop-color="#F1C40F"/>
</linearGradient>
<clipPath id="clip0_93_3296">
<rect width="330" height="70.5032" fill="white" transform="translate(0 0.307983)"/>
</clipPath>
</defs>
</svg>
