<svg width="45" height="46" viewBox="0 0 45 46" fill="none" xmlns="http://www.w3.org/2000/svg">
<rect y="0.55957" width="45" height="45" rx="22.5" fill="#E92B66"/>
<path d="M18.5 16.8096C18.09 16.8096 17.75 16.4696 17.75 16.0596V13.0596C17.75 12.6496 18.09 12.3096 18.5 12.3096C18.91 12.3096 19.25 12.6496 19.25 13.0596V16.0596C19.25 16.4696 18.91 16.8096 18.5 16.8096Z" fill="white"/>
<path d="M26.5 16.8096C26.09 16.8096 25.75 16.4696 25.75 16.0596V13.0596C25.75 12.6496 26.09 12.3096 26.5 12.3096C26.91 12.3096 27.25 12.6496 27.25 13.0596V16.0596C27.25 16.4696 26.91 16.8096 26.5 16.8096Z" fill="white"/>
<path d="M19 25.5596C18.87 25.5596 18.74 25.5297 18.62 25.4797C18.49 25.4297 18.39 25.3596 18.29 25.2696C18.11 25.0796 18 24.8296 18 24.5596C18 24.4296 18.03 24.2996 18.08 24.1796C18.13 24.0596 18.2 23.9496 18.29 23.8496C18.39 23.7596 18.49 23.6896 18.62 23.6396C18.98 23.4896 19.43 23.5696 19.71 23.8496C19.89 24.0396 20 24.2996 20 24.5596C20 24.6196 19.99 24.6896 19.98 24.7596C19.97 24.8196 19.95 24.8796 19.92 24.9396C19.9 24.9996 19.87 25.0596 19.83 25.1196C19.8 25.1696 19.75 25.2196 19.71 25.2696C19.52 25.4496 19.26 25.5596 19 25.5596Z" fill="white"/>
<path d="M22.5 25.5594C22.37 25.5594 22.24 25.5295 22.12 25.4795C21.99 25.4295 21.89 25.3594 21.79 25.2694C21.61 25.0794 21.5 24.8294 21.5 24.5594C21.5 24.4294 21.53 24.2994 21.58 24.1794C21.63 24.0594 21.7 23.9495 21.79 23.8495C21.89 23.7595 21.99 23.6894 22.12 23.6394C22.48 23.4794 22.93 23.5695 23.21 23.8495C23.39 24.0395 23.5 24.2994 23.5 24.5594C23.5 24.6194 23.49 24.6895 23.48 24.7595C23.47 24.8195 23.45 24.8794 23.42 24.9394C23.4 24.9994 23.37 25.0594 23.33 25.1194C23.3 25.1694 23.25 25.2194 23.21 25.2694C23.02 25.4494 22.76 25.5594 22.5 25.5594Z" fill="white"/>
<path d="M26 25.5594C25.87 25.5594 25.74 25.5295 25.62 25.4795C25.49 25.4295 25.39 25.3594 25.29 25.2694C25.25 25.2194 25.21 25.1694 25.17 25.1194C25.13 25.0594 25.1 24.9994 25.08 24.9394C25.05 24.8794 25.03 24.8195 25.02 24.7595C25.01 24.6895 25 24.6194 25 24.5594C25 24.2994 25.11 24.0395 25.29 23.8495C25.39 23.7595 25.49 23.6894 25.62 23.6394C25.99 23.4794 26.43 23.5695 26.71 23.8495C26.89 24.0395 27 24.2994 27 24.5594C27 24.6194 26.99 24.6895 26.98 24.7595C26.97 24.8195 26.95 24.8794 26.92 24.9394C26.9 24.9994 26.87 25.0594 26.83 25.1194C26.8 25.1694 26.75 25.2194 26.71 25.2694C26.52 25.4494 26.26 25.5594 26 25.5594Z" fill="white"/>
<path d="M19 29.0595C18.87 29.0595 18.74 29.0295 18.62 28.9795C18.5 28.9295 18.39 28.8595 18.29 28.7695C18.11 28.5795 18 28.3195 18 28.0595C18 27.9295 18.03 27.7995 18.08 27.6795C18.13 27.5495 18.2 27.4395 18.29 27.3495C18.66 26.9795 19.34 26.9795 19.71 27.3495C19.89 27.5395 20 27.7995 20 28.0595C20 28.3195 19.89 28.5795 19.71 28.7695C19.52 28.9495 19.26 29.0595 19 29.0595Z" fill="white"/>
<path d="M22.5 29.0595C22.24 29.0595 21.98 28.9495 21.79 28.7695C21.61 28.5795 21.5 28.3195 21.5 28.0595C21.5 27.9295 21.53 27.7995 21.58 27.6795C21.63 27.5495 21.7 27.4395 21.79 27.3495C22.16 26.9795 22.84 26.9795 23.21 27.3495C23.3 27.4395 23.37 27.5495 23.42 27.6795C23.47 27.7995 23.5 27.9295 23.5 28.0595C23.5 28.3195 23.39 28.5795 23.21 28.7695C23.02 28.9495 22.76 29.0595 22.5 29.0595Z" fill="white"/>
<path d="M26 29.0595C25.74 29.0595 25.48 28.9495 25.29 28.7695C25.2 28.6795 25.13 28.5695 25.08 28.4395C25.03 28.3195 25 28.1895 25 28.0595C25 27.9295 25.03 27.7995 25.08 27.6795C25.13 27.5495 25.2 27.4395 25.29 27.3495C25.52 27.1195 25.87 27.0095 26.19 27.0795C26.26 27.0895 26.32 27.1095 26.38 27.1395C26.44 27.1595 26.5 27.1895 26.56 27.2295C26.61 27.2595 26.66 27.3095 26.71 27.3495C26.89 27.5395 27 27.7995 27 28.0595C27 28.3195 26.89 28.5795 26.71 28.7695C26.52 28.9495 26.26 29.0595 26 29.0595Z" fill="white"/>
<path d="M31 20.8994H14C13.59 20.8994 13.25 20.5594 13.25 20.1494C13.25 19.7394 13.59 19.3994 14 19.3994H31C31.41 19.3994 31.75 19.7394 31.75 20.1494C31.75 20.5594 31.41 20.8994 31 20.8994Z" fill="white"/>
<path d="M26.5 33.8096H18.5C14.85 33.8096 12.75 31.7096 12.75 28.0596V19.5596C12.75 15.9096 14.85 13.8096 18.5 13.8096H26.5C30.15 13.8096 32.25 15.9096 32.25 19.5596V28.0596C32.25 31.7096 30.15 33.8096 26.5 33.8096ZM18.5 15.3096C15.64 15.3096 14.25 16.6996 14.25 19.5596V28.0596C14.25 30.9196 15.64 32.3096 18.5 32.3096H26.5C29.36 32.3096 30.75 30.9196 30.75 28.0596V19.5596C30.75 16.6996 29.36 15.3096 26.5 15.3096H18.5Z" fill="white"/>
</svg>
