<svg width="330" height="67" viewBox="0 0 330 67" fill="none" xmlns="http://www.w3.org/2000/svg">
<g clip-path="url(#clip0_93_3300)">
<path d="M38.0671 3.95686L275.921 3.95685C279.024 3.95685 281.375 6.75755 280.837 9.81622L279.4 17.9604H325.007C328.11 17.9604 330.461 20.7611 329.923 23.8197L325.766 47.3825C325.346 49.7705 323.275 51.5099 320.85 51.5099L29.6797 51.5099L38.0671 3.95686Z" fill="#F9F9F9"/>
<path d="M31.1318 64.8354H148.936C153.846 64.8354 158.037 61.3085 158.894 56.4816L160.333 48.349C161.425 42.1529 156.667 36.4822 150.374 36.4822H36.1386L31.1457 64.8215L31.1318 64.8354Z" fill="#E92B66"/>
<path d="M85.3434 15.8933C85.3434 16.9911 85.0094 17.9163 84.3415 18.6686C83.6736 19.4134 82.7216 19.9047 81.4855 20.1427V20.1888C82.4222 20.3346 83.1554 20.707 83.6851 21.3058C84.2225 21.9047 84.4912 22.6494 84.4912 23.5399C84.4912 25.1368 83.9039 26.4074 82.7293 27.3518C81.5546 28.2884 79.9462 28.7567 77.904 28.7567H72.0999L75.6008 12.2427H80.8061C82.2264 12.2427 83.3358 12.5651 84.1342 13.21C84.9403 13.8473 85.3434 14.7417 85.3434 15.8933ZM82.3607 16.446C82.3607 15.8011 82.1535 15.3136 81.7389 14.9835C81.3243 14.6534 80.7331 14.4883 79.9654 14.4883H77.9962L76.9943 19.1178H78.952C80.0268 19.1178 80.8637 18.8836 81.4625 18.4153C82.0613 17.9393 82.3607 17.2829 82.3607 16.446ZM81.497 23.6206C81.497 22.9296 81.2552 22.3807 80.7715 21.9738C80.2955 21.5669 79.57 21.3634 78.595 21.3634H76.5221L75.4396 26.5111H77.8119C79.0096 26.5111 79.9232 26.2616 80.5527 25.7625C81.1823 25.2558 81.497 24.5418 81.497 23.6206ZM98.4256 14.638H92.3567L91.3663 19.3135H97.0092L96.4909 21.7089H90.8596L89.8577 26.3729H96.3182L95.823 28.7567H86.495L89.9959 12.2427H98.9439L98.4256 14.638ZM112.279 16.7685C112.279 17.9662 111.999 19.0218 111.439 19.9354C110.878 20.8413 110.065 21.5438 108.997 22.0429C107.93 22.5419 106.656 22.7914 105.174 22.7914H102.756L101.5 28.7567H98.6329L102.134 12.2427H107.109C108.721 12.2427 109.984 12.6419 110.898 13.4404C111.819 14.2388 112.279 15.3482 112.279 16.7685ZM109.297 16.9758C109.297 16.2388 109.047 15.6514 108.548 15.2138C108.049 14.7685 107.324 14.5459 106.372 14.5459H104.518L103.251 20.5112H105.266C106.525 20.5112 107.512 20.2003 108.226 19.5784C108.94 18.9565 109.297 18.089 109.297 16.9758ZM126.191 28.7567H123.335L124.82 21.6974H117.208L115.723 28.7567H112.844L116.345 12.2427H119.224L117.738 19.1638H125.362L126.847 12.2427H129.703L126.191 28.7567ZM142.141 14.638H136.072L135.081 19.3135H140.724L140.206 21.7089H134.575L133.573 26.3729H140.033L139.538 28.7567H130.21L133.711 12.2427H142.659L142.141 14.638ZM158.229 28.7567H155.603L157.825 18.2771C158.04 17.3098 158.332 16.1735 158.701 14.8683H158.632C158.24 15.7359 157.622 16.7301 156.778 17.851L152.102 24.1273H150.329L148.44 18.0583C148.302 17.636 148.175 17.1178 148.06 16.5036C147.945 15.8894 147.879 15.3443 147.864 14.8683H147.783C147.515 16.565 147.315 17.7051 147.185 18.2886L144.951 28.7567H142.348L145.849 12.2427H149.211L151.365 19.0372C151.595 19.7665 151.73 20.4536 151.768 21.0985H151.826C152.248 20.1773 152.682 19.4172 153.127 18.8184L158.067 12.2427H161.741L158.229 28.7567ZM184.474 12.2427L176.263 20.3615L181.364 28.7567H177.898L173.879 21.6743C173.687 21.3442 173.53 21.0026 173.407 20.6494H173.361L171.61 28.7567H168.743L172.244 12.2427H175.123L173.487 19.9584H173.533L174.086 19.3135L180.892 12.2427H184.474ZM195.414 14.638H189.345L188.355 19.3135H193.997L193.479 21.7089H187.848L186.846 26.3729H193.306L192.811 28.7567H183.483L186.984 12.2427H195.932L195.414 14.638ZM214.047 28.7567H195.61L199.099 12.2427H201.967L199.007 26.2347H203.913L206.861 12.2427H209.74L206.792 26.2347H211.698L214.669 12.2427H217.536L214.047 28.7567ZM230.595 14.6726H223.686L222.753 19.1063H225.367C226.972 19.1063 228.235 19.5055 229.156 20.3039C230.085 21.1024 230.549 22.1887 230.549 23.563C230.549 25.2213 229.974 26.5034 228.822 27.4093C227.67 28.3076 226.004 28.7567 223.824 28.7567H217.847L221.348 12.2427H231.125L230.595 14.6726ZM227.521 23.7012C227.521 22.1273 226.538 21.3404 224.573 21.3404H222.258L221.175 26.5111H223.72C224.995 26.5111 225.947 26.2692 226.576 25.7856C227.206 25.3019 227.521 24.6071 227.521 23.7012ZM244.104 14.638H238.035L237.044 19.3135H242.687L242.169 21.7089H236.538L235.536 26.3729H241.996L241.501 28.7567H232.173L235.674 12.2427H244.622L244.104 14.638ZM260.042 12.2427L251.831 20.3615L256.933 28.7567H253.466L249.447 21.6743C249.255 21.3442 249.098 21.0026 248.975 20.6494H248.929L247.179 28.7567H244.311L247.812 12.2427H250.691L249.056 19.9584H249.102L249.655 19.3135L256.461 12.2427H260.042Z" fill="#273645"/>
<path d="M83.7541 43.4452C82.7657 42.8502 81.6093 42.5527 80.2849 42.5527C79.3444 42.5527 78.4328 42.7878 77.5499 43.258C76.667 43.7187 75.8848 44.4672 75.2035 45.5037C74.5221 46.5401 74.0231 47.7109 73.7064 49.0161H73.764C74.2822 48.3443 74.9395 47.8069 75.7361 47.4038C76.5422 47.0007 77.3819 46.7992 78.2552 46.7992C79.8099 46.7992 81.0335 47.3078 81.926 48.3251C82.8185 49.3423 83.2647 50.7435 83.2647 52.5285C83.2647 53.9296 82.9432 55.2395 82.3002 56.4583C81.6668 57.6771 80.7744 58.6416 79.6227 59.3517C78.4807 60.0523 77.1756 60.4026 75.7073 60.4026C73.5864 60.4026 71.9262 59.7212 70.7266 58.3585C69.527 56.9861 68.9272 55.0908 68.9272 52.6724C68.9272 50.1485 69.431 47.8213 70.4387 45.6908C71.4463 43.5507 72.8283 41.9145 74.5845 40.7821C76.3407 39.6497 78.3176 39.0835 80.5152 39.0835C82.1371 39.0835 83.4854 39.2994 84.5603 39.7312L83.7541 43.4452ZM78.903 52.9315C78.903 52.0486 78.6919 51.3673 78.2696 50.8874C77.8474 50.4076 77.2428 50.1677 76.4558 50.1677C75.5441 50.1677 74.8004 50.5227 74.2246 51.2329C73.6488 51.9431 73.3609 52.8164 73.3609 53.8528C73.3609 54.8125 73.5864 55.5562 74.0375 56.084C74.4981 56.6023 75.1075 56.8614 75.8656 56.8614C76.7389 56.8614 77.4635 56.4775 78.0393 55.7098C78.6151 54.9324 78.903 54.0063 78.903 52.9315ZM100.496 43.1429H92.9094L92.0313 47.2743C92.3768 47.2359 92.6983 47.2167 92.9958 47.2167C94.9727 47.2167 96.513 47.7253 97.6166 48.7426C98.7298 49.7502 99.2864 51.1465 99.2864 52.9315C99.2864 54.3422 98.8929 55.6426 98.106 56.8326C97.3191 58.0226 96.2634 58.9199 94.9391 59.5245C93.6244 60.1291 92.0937 60.4313 90.3471 60.4313C89.3682 60.4313 88.3654 60.3354 87.3385 60.1434C86.3213 59.9515 85.5583 59.702 85.0497 59.3949L85.8414 55.7098C86.3404 56.0457 87.0314 56.3384 87.9143 56.5879C88.8068 56.8278 89.5985 56.9477 90.2895 56.9477C91.2204 56.9477 92.0121 56.7942 92.6647 56.4871C93.3269 56.1704 93.8355 55.7482 94.1906 55.2203C94.5552 54.6829 94.7376 54.0975 94.7376 53.4641C94.7376 52.4949 94.4305 51.7943 93.8163 51.3625C93.2021 50.921 92.2424 50.7003 90.9373 50.7003C89.6609 50.7003 88.4613 50.7771 87.3385 50.9306L89.8145 39.4289H101.287L100.496 43.1429ZM118.274 45.6188C118.274 47.519 118.038 49.4047 117.568 51.2761C117.108 53.1474 116.465 54.7693 115.639 56.1416C114.823 57.5139 113.83 58.5744 112.659 59.3229C111.489 60.0619 110.126 60.4313 108.571 60.4313C106.7 60.4313 105.212 59.8076 104.109 58.56C103.015 57.3028 102.468 55.5754 102.468 53.3778C102.468 50.9594 102.88 48.6082 103.706 46.3242C104.541 44.0402 105.668 42.2648 107.089 40.998C108.518 39.7216 110.26 39.0835 112.314 39.0835C114.176 39.0835 115.634 39.6737 116.69 40.8541C117.746 42.0344 118.274 43.6227 118.274 45.6188ZM113.811 45.4461C113.811 44.4576 113.648 43.7283 113.322 43.258C112.995 42.7878 112.559 42.5527 112.012 42.5527C111.09 42.5527 110.27 43.0853 109.55 44.1505C108.84 45.2062 108.221 46.732 107.693 48.7282C107.175 50.7147 106.916 52.4229 106.916 53.8528C106.916 54.8701 107.098 55.6378 107.463 56.156C107.837 56.6646 108.312 56.919 108.888 56.919C109.809 56.919 110.606 56.3671 111.278 55.2635C111.949 54.1599 112.539 52.634 113.048 50.6859C113.557 48.7282 113.811 46.9816 113.811 45.4461ZM135.519 51.8375H133.59L133.129 54.0111H138.571L138.009 56.7318H132.568L131.877 60.0715H127.486L128.177 56.7318H126.176L126.738 54.0111H128.739L129.199 51.8375H127.198L127.76 49.1168H129.761L131.79 39.4289H137.779C138.863 39.4289 139.842 39.5249 140.715 39.7168C141.589 39.8992 142.328 40.1871 142.932 40.5805C143.546 40.9644 144.017 41.4586 144.343 42.0632C144.679 42.6582 144.847 43.3684 144.847 44.1937C144.847 44.6639 144.789 45.1726 144.674 45.7196C144.501 46.5161 144.237 47.2215 143.882 47.8357C143.537 48.4403 143.124 48.9729 142.644 49.4335C142.174 49.8846 141.651 50.2636 141.075 50.5707C140.499 50.8778 139.9 51.1273 139.276 51.3193C138.662 51.5016 138.033 51.636 137.39 51.7223C136.757 51.7991 136.133 51.8375 135.519 51.8375ZM135.605 42.164L134.151 49.1168H135.85C137.088 49.1168 138.081 48.8001 138.83 48.1667C139.588 47.5334 140.082 46.6745 140.312 45.59C140.351 45.4269 140.375 45.2685 140.384 45.115C140.404 44.9518 140.413 44.7983 140.413 44.6544C140.413 43.8674 140.154 43.258 139.636 42.8262C139.127 42.3847 138.35 42.164 137.304 42.164H135.605Z" fill="white"/>
<path d="M57.7754 14.3637C57.9081 13.9288 57.9744 13.4719 57.9744 13.0075V11.2239C57.9744 9.07182 56.5298 7.18502 54.4514 6.63225L46.5505 4.51698C42.0104 2.14376 36.9175 0.890808 31.7657 0.890808C23.2678 0.890808 15.2858 4.19269 9.29372 10.1847C3.1248 16.3536 -0.250787 24.8958 0.0145431 33.6517C-0.154973 40.5503 1.87185 47.1983 5.7781 52.7407C5.64543 53.1829 5.5791 53.6399 5.5791 54.1116V55.8952C5.5791 58.0473 7.02368 59.9341 9.10209 60.4869L17.003 62.6021C21.5357 64.9754 26.6286 66.2283 31.7804 66.2283C40.2784 66.2283 48.2604 62.9264 54.2524 56.9344C60.3992 50.7876 63.7748 42.2749 63.5316 33.5632C63.7232 26.6204 61.7038 19.9356 57.768 14.3637H57.7754Z" fill="white"/>
<path d="M50.899 15.3292L53.2207 13.0075V11.2239L39.2761 8.04735L38.8855 8.37164C29.8348 5.91734 19.7522 8.2316 12.662 15.3292C2.24782 25.7434 2.1299 42.6066 12.2935 53.1755L10.3478 54.1042V55.8878L18.7794 58.1505C29.0461 63.7814 42.2168 62.2557 50.9064 53.5735C61.4459 43.034 61.4459 25.876 50.9064 15.3366L50.899 15.3292ZM46.8675 49.5346C39.7036 56.6985 28.6776 57.6862 20.4377 52.5122L19.0152 47.213L16.6936 49.5346C8.37252 41.2136 8.37252 27.6818 16.6936 19.3681C23.8575 12.2042 34.8834 11.2166 43.1234 16.3905L44.5458 21.6897L46.8675 19.3681C55.1885 27.6891 55.1885 41.221 46.8675 49.5346Z" fill="#B6750E"/>
<path d="M35.7454 56.5374C48.9242 54.3486 57.8333 41.8907 55.6445 28.7119C53.4557 15.533 40.9977 6.62388 27.8189 8.81271C14.6401 11.0015 5.73094 23.4595 7.91977 36.6383C10.1086 49.8171 22.5665 58.7263 35.7454 56.5374Z" fill="url(#paint0_linear_93_3300)"/>
<g filter="url(#filter0_d_93_3300)">
<path d="M24.8122 32.3354C24.8122 33.3731 25.2367 33.892 26.0858 33.892C26.4867 33.892 26.7933 33.7741 27.0056 33.5382C27.2414 33.2788 27.3593 32.8779 27.3593 32.3354V23.8448C27.3593 23.3024 27.2414 22.9132 27.0056 22.6774C26.7933 22.418 26.4867 22.2882 26.0858 22.2882C25.2367 22.2882 24.8122 22.8071 24.8122 23.8448V32.3354ZM22.3358 24.0217C22.3358 22.7481 22.6542 21.7694 23.291 21.0854C23.9277 20.4015 24.8593 20.0595 26.0858 20.0595C27.3122 20.0595 28.2438 20.4015 28.8806 21.0854C29.5174 21.7694 29.8358 22.7481 29.8358 24.0217V32.1585C29.8358 33.4321 29.5174 34.4109 28.8806 35.0948C28.2438 35.7788 27.3122 36.1208 26.0858 36.1208C24.8593 36.1208 23.9277 35.7788 23.291 35.0948C22.6542 34.4109 22.3358 33.4321 22.3358 32.1585V24.0217ZM35.8499 20.2364H38.1494L28.3853 45.0005H26.0858L35.8499 20.2364ZM37.0881 41.392C37.0881 42.4297 37.5126 42.9486 38.3617 42.9486C38.7626 42.9486 39.0692 42.8307 39.2815 42.5948C39.5174 42.3354 39.6353 41.9345 39.6353 41.392V32.9014C39.6353 32.359 39.5174 31.9698 39.2815 31.734C39.0692 31.4746 38.7626 31.3448 38.3617 31.3448C37.5126 31.3448 37.0881 31.8637 37.0881 32.9014V41.392ZM34.6117 33.0783C34.6117 31.8047 34.9301 30.826 35.5669 30.142C36.2037 29.458 37.1353 29.1161 38.3617 29.1161C39.5881 29.1161 40.5197 29.458 41.1565 30.142C41.7933 30.826 42.1117 31.8047 42.1117 33.0783V41.2151C42.1117 42.4887 41.7933 43.4675 41.1565 44.1514C40.5197 44.8354 39.5881 45.1774 38.3617 45.1774C37.1353 45.1774 36.2037 44.8354 35.5669 44.1514C34.9301 43.4675 34.6117 42.4887 34.6117 41.2151V33.0783Z" fill="white"/>
</g>
<path d="M55.9624 32.6714C55.9624 19.3165 45.1355 8.48218 31.7732 8.48218C18.4109 8.48218 7.59131 19.3091 7.59131 32.6714C7.59131 46.0337 18.4182 56.8607 31.7806 56.8607C45.1429 56.8607 55.9698 46.0337 55.9698 32.6714H55.9624ZM20.4303 52.6375L19.0079 47.3383L16.6862 49.6599C8.36519 41.3389 8.36519 27.807 16.6862 19.4934C23.8501 12.3295 34.8761 11.3418 43.116 16.5158L44.5385 21.815L46.8601 19.4934C55.1812 27.8144 55.1812 41.3462 46.8601 49.6599C39.6962 56.8238 28.6703 57.8114 20.4303 52.6375Z" fill="#B6750E"/>
<path d="M43.1233 14.6069L41.3692 8.0547L44.789 8.96862C34.5222 3.33772 21.3515 4.86337 12.6619 13.5456C2.12245 24.0851 2.12245 41.2431 12.6619 51.7826L10.3403 54.1042L22.1917 57.2808L19.0151 45.4294L16.6935 47.751C8.37244 39.43 8.37244 25.8981 16.6935 17.5845C23.8574 10.4206 34.8833 9.43294 43.1233 14.6069Z" fill="url(#paint1_linear_93_3300)"/>
<path d="M50.899 13.5456L53.2206 11.224L41.3692 8.04736L44.5458 19.8988L46.8675 17.5771C55.1885 25.8982 55.1885 39.43 46.8675 47.7437C39.7036 54.9076 28.6776 55.8952 20.4377 50.7213L22.1918 57.2734L18.772 56.3595C29.0388 61.9904 42.2095 60.4648 50.899 51.7826C61.4385 41.2431 61.4385 24.0851 50.899 13.5456Z" fill="url(#paint2_linear_93_3300)"/>
<path d="M313.605 35.3637L300.339 43.0232L300.339 27.7043L313.605 35.3637Z" fill="#E92B66"/>
</g>
<defs>
<filter id="filter0_d_93_3300" x="22.3357" y="20.0594" width="19.7761" height="28.066" filterUnits="userSpaceOnUse" color-interpolation-filters="sRGB">
<feFlood flood-opacity="0" result="BackgroundImageFix"/>
<feColorMatrix in="SourceAlpha" type="matrix" values="0 0 0 0 0 0 0 0 0 0 0 0 0 0 0 0 0 0 127 0" result="hardAlpha"/>
<feOffset dy="2.94811"/>
<feComposite in2="hardAlpha" operator="out"/>
<feColorMatrix type="matrix" values="0 0 0 0 0 0 0 0 0 0 0 0 0 0 0 0 0 0 0.25 0"/>
<feBlend mode="normal" in2="BackgroundImageFix" result="effect1_dropShadow_93_3300"/>
<feBlend mode="normal" in="SourceGraphic" in2="effect1_dropShadow_93_3300" result="shape"/>
</filter>
<linearGradient id="paint0_linear_93_3300" x1="31.7838" y1="49.0881" x2="31.7838" y2="-5.75409" gradientUnits="userSpaceOnUse">
<stop stop-color="#F39C12"/>
<stop offset="1" stop-color="#F1C40F"/>
</linearGradient>
<linearGradient id="paint1_linear_93_3300" x1="44.9069" y1="25.1169" x2="22.3981" y2="32.2513" gradientUnits="userSpaceOnUse">
<stop stop-color="#F39C12"/>
<stop offset="1" stop-color="#F4D03F"/>
</linearGradient>
<linearGradient id="paint2_linear_93_3300" x1="19.251" y1="39.0615" x2="47.3097" y2="31.4554" gradientUnits="userSpaceOnUse">
<stop stop-color="#F39C12"/>
<stop offset="1" stop-color="#F4D03F"/>
</linearGradient>
<clipPath id="clip0_93_3300">
<rect width="330" height="65.3375" fill="white" transform="translate(0 0.890808)"/>
</clipPath>
</defs>
</svg>
