<svg width="45" height="46" viewBox="0 0 45 46" fill="none" xmlns="http://www.w3.org/2000/svg">
<rect y="0.55957" width="45" height="45" rx="22.5" fill="#E92B66"/>
<path d="M27.5 32.8096H17.5C13.09 32.8096 11.75 31.4696 11.75 27.0596V19.0596C11.75 14.6496 13.09 13.3096 17.5 13.3096H27.5C31.91 13.3096 33.25 14.6496 33.25 19.0596V27.0596C33.25 31.4696 31.91 32.8096 27.5 32.8096ZM17.5 14.8096C13.92 14.8096 13.25 15.4896 13.25 19.0596V27.0596C13.25 30.6296 13.92 31.3096 17.5 31.3096H27.5C31.08 31.3096 31.75 30.6296 31.75 27.0596V19.0596C31.75 15.4896 31.08 14.8096 27.5 14.8096H17.5Z" fill="white"/>
<path d="M29.5 19.8096H24.5C24.09 19.8096 23.75 19.4696 23.75 19.0596C23.75 18.6496 24.09 18.3096 24.5 18.3096H29.5C29.91 18.3096 30.25 18.6496 30.25 19.0596C30.25 19.4696 29.91 19.8096 29.5 19.8096Z" fill="white"/>
<path d="M29.5 23.8096H25.5C25.09 23.8096 24.75 23.4696 24.75 23.0596C24.75 22.6496 25.09 22.3096 25.5 22.3096H29.5C29.91 22.3096 30.25 22.6496 30.25 23.0596C30.25 23.4696 29.91 23.8096 29.5 23.8096Z" fill="white"/>
<path d="M29.5 27.8096H27.5C27.09 27.8096 26.75 27.4696 26.75 27.0596C26.75 26.6496 27.09 26.3096 27.5 26.3096H29.5C29.91 26.3096 30.25 26.6496 30.25 27.0596C30.25 27.4696 29.91 27.8096 29.5 27.8096Z" fill="white"/>
<path d="M18.9999 23.0995C17.5899 23.0995 16.4399 21.9495 16.4399 20.5395C16.4399 19.1295 17.5899 17.9795 18.9999 17.9795C20.4099 17.9795 21.5599 19.1295 21.5599 20.5395C21.5599 21.9495 20.4099 23.0995 18.9999 23.0995ZM18.9999 19.4795C18.4199 19.4795 17.9399 19.9595 17.9399 20.5395C17.9399 21.1195 18.4199 21.5995 18.9999 21.5995C19.5799 21.5995 20.0599 21.1195 20.0599 20.5395C20.0599 19.9595 19.5799 19.4795 18.9999 19.4795Z" fill="white"/>
<path d="M22.4999 28.1396C22.1199 28.1396 21.7899 27.8496 21.7499 27.4596C21.6399 26.3796 20.7699 25.5096 19.6799 25.4096C19.2199 25.3696 18.7599 25.3696 18.2999 25.4096C17.2099 25.5096 16.3399 26.3696 16.2299 27.4596C16.1899 27.8696 15.8199 28.1796 15.4099 28.1296C14.9999 28.0896 14.6999 27.7196 14.7399 27.3096C14.9199 25.5096 16.3499 24.0796 18.1599 23.9196C18.7099 23.8696 19.2699 23.8696 19.8199 23.9196C21.6199 24.0896 23.0599 25.5196 23.2399 27.3096C23.2799 27.7196 22.9799 28.0896 22.5699 28.1296C22.5499 28.1396 22.5199 28.1396 22.4999 28.1396Z" fill="white"/>
</svg>
