<svg width="45" height="46" viewBox="0 0 45 46" fill="none" xmlns="http://www.w3.org/2000/svg">
<rect y="0.55957" width="45" height="45" rx="22.5" fill="#E92B66"/>
<path d="M23.4998 25.8096H22.4998C22.0898 25.8096 21.7498 25.4696 21.7498 25.0596C21.7498 24.6496 22.0898 24.3096 22.4998 24.3096H23.4998C24.1898 24.3096 24.7498 23.7496 24.7498 23.0596V13.8096H16.4998C15.3198 13.8096 14.2398 14.4496 13.6598 15.4796C13.4598 15.8396 12.9998 15.9696 12.6398 15.7696C12.2798 15.5696 12.1498 15.1096 12.3498 14.7496C13.1898 13.2496 14.7798 12.3096 16.4998 12.3096H25.4998C25.9098 12.3096 26.2498 12.6496 26.2498 13.0596V23.0596C26.2498 24.5796 25.0198 25.8096 23.4998 25.8096Z" fill="white"/>
<path d="M29.5 31.8096H28.5C28.09 31.8096 27.75 31.4696 27.75 31.0596C27.75 30.3696 27.19 29.8096 26.5 29.8096C25.81 29.8096 25.25 30.3696 25.25 31.0596C25.25 31.4696 24.91 31.8096 24.5 31.8096H20.5C20.09 31.8096 19.75 31.4696 19.75 31.0596C19.75 30.3696 19.19 29.8096 18.5 29.8096C17.81 29.8096 17.25 30.3696 17.25 31.0596C17.25 31.4696 16.91 31.8096 16.5 31.8096H15.5C13.43 31.8096 11.75 30.1296 11.75 28.0596C11.75 27.6496 12.09 27.3096 12.5 27.3096C12.91 27.3096 13.25 27.6496 13.25 28.0596C13.25 29.2996 14.26 30.3096 15.5 30.3096H15.85C16.18 29.1596 17.24 28.3096 18.5 28.3096C19.76 28.3096 20.82 29.1596 21.15 30.3096H23.86C24.19 29.1596 25.25 28.3096 26.51 28.3096C27.77 28.3096 28.83 29.1596 29.16 30.3096H29.5C30.74 30.3096 31.75 29.2996 31.75 28.0596V25.8096H29.5C28.54 25.8096 27.75 25.0196 27.75 24.0596V21.0596C27.75 20.0996 28.53 19.3096 29.5 19.3096L28.43 17.4396C28.21 17.0496 27.79 16.8096 27.34 16.8096H26.25V23.0596C26.25 24.5796 25.02 25.8096 23.5 25.8096H22.5C22.09 25.8096 21.75 25.4696 21.75 25.0596C21.75 24.6496 22.09 24.3096 22.5 24.3096H23.5C24.19 24.3096 24.75 23.7496 24.75 23.0596V16.0596C24.75 15.6496 25.09 15.3096 25.5 15.3096H27.34C28.33 15.3096 29.24 15.8396 29.73 16.6996L31.44 19.6896C31.57 19.9196 31.57 20.2096 31.44 20.4396C31.31 20.6696 31.06 20.8096 30.79 20.8096H29.5C29.36 20.8096 29.25 20.9196 29.25 21.0596V24.0596C29.25 24.1996 29.36 24.3096 29.5 24.3096H32.5C32.91 24.3096 33.25 24.6496 33.25 25.0596V28.0596C33.25 30.1296 31.57 31.8096 29.5 31.8096Z" fill="white"/>
<path d="M18.5 33.8096C16.98 33.8096 15.75 32.5796 15.75 31.0596C15.75 29.5396 16.98 28.3096 18.5 28.3096C20.02 28.3096 21.25 29.5396 21.25 31.0596C21.25 32.5796 20.02 33.8096 18.5 33.8096ZM18.5 29.8096C17.81 29.8096 17.25 30.3696 17.25 31.0596C17.25 31.7496 17.81 32.3096 18.5 32.3096C19.19 32.3096 19.75 31.7496 19.75 31.0596C19.75 30.3696 19.19 29.8096 18.5 29.8096Z" fill="white"/>
<path d="M26.5 33.8096C24.98 33.8096 23.75 32.5796 23.75 31.0596C23.75 29.5396 24.98 28.3096 26.5 28.3096C28.02 28.3096 29.25 29.5396 29.25 31.0596C29.25 32.5796 28.02 33.8096 26.5 33.8096ZM26.5 29.8096C25.81 29.8096 25.25 30.3696 25.25 31.0596C25.25 31.7496 25.81 32.3096 26.5 32.3096C27.19 32.3096 27.75 31.7496 27.75 31.0596C27.75 30.3696 27.19 29.8096 26.5 29.8096Z" fill="white"/>
<path d="M32.5 25.8096H29.5C28.54 25.8096 27.75 25.0196 27.75 24.0596V21.0596C27.75 20.0996 28.54 19.3096 29.5 19.3096H30.79C31.06 19.3096 31.31 19.4496 31.44 19.6896L33.15 22.6896C33.21 22.7996 33.25 22.9296 33.25 23.0596V25.0596C33.25 25.4696 32.91 25.8096 32.5 25.8096ZM29.5 20.8096C29.36 20.8096 29.25 20.9196 29.25 21.0596V24.0596C29.25 24.1996 29.36 24.3096 29.5 24.3096H31.75V23.2596L30.35 20.8096H29.5Z" fill="white"/>
<path d="M18.5 19.8096H12.5C12.09 19.8096 11.75 19.4696 11.75 19.0596C11.75 18.6496 12.09 18.3096 12.5 18.3096H18.5C18.91 18.3096 19.25 18.6496 19.25 19.0596C19.25 19.4696 18.91 19.8096 18.5 19.8096Z" fill="white"/>
<path d="M16.5 22.8096H12.5C12.09 22.8096 11.75 22.4696 11.75 22.0596C11.75 21.6496 12.09 21.3096 12.5 21.3096H16.5C16.91 21.3096 17.25 21.6496 17.25 22.0596C17.25 22.4696 16.91 22.8096 16.5 22.8096Z" fill="white"/>
<path d="M14.5 25.8096H12.5C12.09 25.8096 11.75 25.4696 11.75 25.0596C11.75 24.6496 12.09 24.3096 12.5 24.3096H14.5C14.91 24.3096 15.25 24.6496 15.25 25.0596C15.25 25.4696 14.91 25.8096 14.5 25.8096Z" fill="white"/>
</svg>
