<svg width="330" height="67" viewBox="0 0 330 67" fill="none" xmlns="http://www.w3.org/2000/svg">
<g clip-path="url(#clip0_131_122)">
<path d="M38.0671 3.95683L275.921 3.95682C279.024 3.95682 281.375 6.75752 280.837 9.81619L279.4 17.9603H325.007C328.11 17.9603 330.461 20.761 329.923 23.8197L325.766 47.3825C325.346 49.7705 323.275 51.5098 320.85 51.5098L29.6797 51.5099L38.0671 3.95683Z" fill="#F9F9F9"/>
<path d="M31.1318 64.8353H148.936C153.846 64.8353 158.037 61.3085 158.894 56.4815L160.333 48.349C161.425 42.1528 156.667 36.4822 150.374 36.4822H36.1386L31.1457 64.8215L31.1318 64.8353Z" fill="#E92B66"/>
<path d="M85.3434 15.8933C85.3434 16.9912 85.0094 17.9163 84.3415 18.6687C83.6736 19.4134 82.7216 19.9047 81.4855 20.1427V20.1888C82.4222 20.3347 83.1554 20.707 83.6851 21.3058C84.2225 21.9047 84.4912 22.6494 84.4912 23.54C84.4912 25.1368 83.9039 26.4075 82.7293 27.3518C81.5546 28.2884 79.9462 28.7567 77.904 28.7567H72.0999L75.6008 12.2427H80.8061C82.2264 12.2427 83.3358 12.5652 84.1342 13.2101C84.9403 13.8473 85.3434 14.7417 85.3434 15.8933ZM82.3607 16.4461C82.3607 15.8012 82.1535 15.3137 81.7389 14.9835C81.3243 14.6534 80.7331 14.4883 79.9654 14.4883H77.9962L76.9943 19.1178H78.952C80.0268 19.1178 80.8637 18.8836 81.4625 18.4153C82.0613 17.9393 82.3607 17.2829 82.3607 16.4461ZM81.497 23.6206C81.497 22.9296 81.2552 22.3807 80.7715 21.9738C80.2955 21.5669 79.57 21.3634 78.595 21.3634H76.5221L75.4396 26.5111H77.8119C79.0096 26.5111 79.9232 26.2616 80.5527 25.7626C81.1823 25.2558 81.497 24.5419 81.497 23.6206ZM98.4256 14.638H92.3567L91.3663 19.3136H97.0092L96.4909 21.7089H90.8596L89.8577 26.3729H96.3182L95.823 28.7567H86.495L89.9959 12.2427H98.9439L98.4256 14.638ZM112.279 16.7685C112.279 17.9662 111.999 19.0218 111.439 19.9354C110.878 20.8414 110.065 21.5438 108.997 22.0429C107.93 22.5419 106.656 22.7914 105.174 22.7914H102.756L101.5 28.7567H98.6329L102.134 12.2427H107.109C108.721 12.2427 109.984 12.6419 110.898 13.4404C111.819 14.2388 112.279 15.3482 112.279 16.7685ZM109.297 16.9758C109.297 16.2388 109.047 15.6515 108.548 15.2138C108.049 14.7686 107.324 14.5459 106.372 14.5459H104.518L103.251 20.5112H105.266C106.525 20.5112 107.512 20.2003 108.226 19.5784C108.94 18.9566 109.297 18.089 109.297 16.9758ZM126.191 28.7567H123.335L124.82 21.6974H117.208L115.723 28.7567H112.844L116.345 12.2427H119.224L117.738 19.1639H125.362L126.847 12.2427H129.703L126.191 28.7567ZM142.141 14.638H136.072L135.081 19.3136H140.724L140.206 21.7089H134.575L133.573 26.3729H140.033L139.538 28.7567H130.21L133.711 12.2427H142.659L142.141 14.638ZM158.229 28.7567H155.603L157.825 18.2771C158.04 17.3098 158.332 16.1735 158.701 14.8684H158.632C158.24 15.7359 157.622 16.7301 156.778 17.851L152.102 24.1273H150.329L148.44 18.0583C148.302 17.6361 148.175 17.1178 148.06 16.5036C147.945 15.8895 147.879 15.3444 147.864 14.8684H147.783C147.515 16.5651 147.315 17.7052 147.185 18.2886L144.951 28.7567H142.348L145.849 12.2427H149.211L151.365 19.0372C151.595 19.7665 151.73 20.4537 151.768 21.0986H151.826C152.248 20.1773 152.682 19.4172 153.127 18.8184L158.067 12.2427H161.741L158.229 28.7567ZM184.474 12.2427L176.263 20.3615L181.364 28.7567H177.898L173.879 21.6744C173.687 21.3442 173.53 21.0026 173.407 20.6494H173.361L171.61 28.7567H168.743L172.244 12.2427H175.123L173.487 19.9585H173.533L174.086 19.3136L180.892 12.2427H184.474ZM195.414 14.638H189.345L188.355 19.3136H193.997L193.479 21.7089H187.848L186.846 26.3729H193.306L192.811 28.7567H183.483L186.984 12.2427H195.932L195.414 14.638ZM214.047 28.7567H195.61L199.099 12.2427H201.967L199.007 26.2347H203.913L206.861 12.2427H209.74L206.792 26.2347H211.698L214.669 12.2427H217.536L214.047 28.7567ZM230.595 14.6726H223.686L222.753 19.1063H225.367C226.972 19.1063 228.235 19.5055 229.156 20.3039C230.085 21.1024 230.549 22.1887 230.549 23.563C230.549 25.2213 229.974 26.5034 228.822 27.4094C227.67 28.3076 226.004 28.7567 223.824 28.7567H217.847L221.348 12.2427H231.125L230.595 14.6726ZM227.521 23.7012C227.521 22.1273 226.538 21.3404 224.573 21.3404H222.258L221.175 26.5111H223.72C224.995 26.5111 225.947 26.2693 226.576 25.7856C227.206 25.3019 227.521 24.6071 227.521 23.7012ZM244.104 14.638H238.035L237.044 19.3136H242.687L242.169 21.7089H236.538L235.536 26.3729H241.996L241.501 28.7567H232.173L235.674 12.2427H244.622L244.104 14.638ZM260.042 12.2427L251.831 20.3615L256.933 28.7567H253.466L249.447 21.6744C249.255 21.3442 249.098 21.0026 248.975 20.6494H248.929L247.179 28.7567H244.311L247.812 12.2427H250.691L249.056 19.9585H249.102L249.655 19.3136L256.461 12.2427H260.042Z" fill="#273645"/>
<path d="M57.7754 14.3637C57.9081 13.9288 57.9744 13.4719 57.9744 13.0075V11.2239C57.9744 9.07182 56.5298 7.18502 54.4514 6.63225L46.5505 4.51698C42.0104 2.14376 36.9175 0.890808 31.7657 0.890808C23.2678 0.890808 15.2858 4.19269 9.29372 10.1847C3.1248 16.3536 -0.250787 24.8958 0.0145431 33.6517C-0.154973 40.5503 1.87185 47.1983 5.7781 52.7407C5.64543 53.1829 5.5791 53.6399 5.5791 54.1116V55.8952C5.5791 58.0473 7.02368 59.9341 9.10209 60.4869L17.003 62.6021C21.5357 64.9754 26.6286 66.2283 31.7804 66.2283C40.2784 66.2283 48.2604 62.9264 54.2524 56.9344C60.3992 50.7876 63.7748 42.2749 63.5316 33.5632C63.7232 26.6204 61.7038 19.9356 57.768 14.3637H57.7754Z" fill="white"/>
<path d="M50.8993 15.3292L53.2209 13.0076V11.224L39.2763 8.04736L38.8857 8.37165C29.835 5.91735 19.7525 8.23162 12.6623 15.3292C2.24807 25.7434 2.13014 42.6066 12.2938 53.1756L10.348 54.1042V55.8878L18.7796 58.1505C29.0464 63.7814 42.2171 62.2557 50.9066 53.5736C61.4461 43.0341 61.4461 25.8761 50.9066 15.3366L50.8993 15.3292ZM46.8677 49.5346C39.7038 56.6986 28.6779 57.6862 20.4379 52.5122L19.0154 47.213L16.6938 49.5346C8.37277 41.2136 8.37277 27.6818 16.6938 19.3681C23.8577 12.2042 34.8837 11.2166 43.1236 16.3905L44.5461 21.6897L46.8677 19.3681C55.1888 27.6891 55.1888 41.221 46.8677 49.5346Z" fill="#B6750E"/>
<path d="M35.7454 56.5375C48.9242 54.3487 57.8333 41.8907 55.6445 28.7119C53.4557 15.5331 40.9977 6.62393 27.8189 8.81276C14.6401 11.0016 5.73094 23.4595 7.91977 36.6384C10.1086 49.8172 22.5665 58.7263 35.7454 56.5375Z" fill="url(#paint0_linear_131_122)"/>
<g filter="url(#filter0_d_131_122)">
<path d="M24.8119 32.3354C24.8119 33.3732 25.2365 33.892 26.0855 33.892C26.4865 33.892 26.7931 33.7741 27.0053 33.5383C27.2412 33.2788 27.3591 32.8779 27.3591 32.3354V23.8449C27.3591 23.3024 27.2412 22.9133 27.0053 22.6774C26.7931 22.418 26.4865 22.2883 26.0855 22.2883C25.2365 22.2883 24.8119 22.8071 24.8119 23.8449V32.3354ZM22.3355 24.0218C22.3355 22.7482 22.6539 21.7694 23.2907 21.0854C23.9275 20.4015 24.8591 20.0595 26.0855 20.0595C27.3119 20.0595 28.2435 20.4015 28.8803 21.0854C29.5171 21.7694 29.8355 22.7482 29.8355 24.0218V32.1585C29.8355 33.4321 29.5171 34.4109 28.8803 35.0949C28.2435 35.7788 27.3119 36.1208 26.0855 36.1208C24.8591 36.1208 23.9275 35.7788 23.2907 35.0949C22.6539 34.4109 22.3355 33.4321 22.3355 32.1585V24.0218ZM35.8497 20.2364H38.1492L28.385 45.0005H26.0855L35.8497 20.2364ZM37.0879 41.392C37.0879 42.4298 37.5124 42.9486 38.3615 42.9486C38.7624 42.9486 39.069 42.8307 39.2813 42.5949C39.5171 42.3354 39.635 41.9345 39.635 41.392V32.9015C39.635 32.359 39.5171 31.9699 39.2813 31.734C39.069 31.4746 38.7624 31.3449 38.3615 31.3449C37.5124 31.3449 37.0879 31.8637 37.0879 32.9015V41.392ZM34.6115 33.0784C34.6115 31.8048 34.9299 30.826 35.5666 30.142C36.2034 29.4581 37.135 29.1161 38.3615 29.1161C39.5879 29.1161 40.5195 29.4581 41.1563 30.142C41.7931 30.826 42.1115 31.8048 42.1115 33.0784V41.2151C42.1115 42.4887 41.7931 43.4675 41.1563 44.1515C40.5195 44.8354 39.5879 45.1774 38.3615 45.1774C37.135 45.1774 36.2034 44.8354 35.5666 44.1515C34.9299 43.4675 34.6115 42.4887 34.6115 41.2151V33.0784Z" fill="white"/>
</g>
<path d="M55.9624 32.6714C55.9624 19.3165 45.1355 8.48219 31.7732 8.48219C18.4109 8.48219 7.59131 19.3091 7.59131 32.6714C7.59131 46.0338 18.4182 56.8607 31.7806 56.8607C45.1429 56.8607 55.9698 46.0338 55.9698 32.6714H55.9624ZM20.4303 52.6375L19.0079 47.3383L16.6862 49.6599C8.36519 41.3389 8.36519 27.8071 16.6862 19.4934C23.8501 12.3295 34.8761 11.3419 43.116 16.5158L44.5385 21.815L46.8601 19.4934C55.1812 27.8144 55.1812 41.3463 46.8601 49.6599C39.6962 56.8238 28.6703 57.8115 20.4303 52.6375Z" fill="#B6750E"/>
<path d="M43.1233 14.6069L41.3692 8.05473L44.789 8.96865C34.5222 3.33776 21.3515 4.8634 12.6619 13.5456C2.12245 24.0851 2.12245 41.2431 12.6619 51.7826L10.3403 54.1042L22.1917 57.2808L19.0151 45.4294L16.6935 47.751C8.37244 39.43 8.37244 25.8982 16.6935 17.5845C23.8574 10.4206 34.8833 9.43297 43.1233 14.6069Z" fill="url(#paint1_linear_131_122)"/>
<path d="M50.899 13.5456L53.2206 11.224L41.3692 8.04738L44.5458 19.8988L46.8675 17.5771C55.1885 25.8982 55.1885 39.43 46.8675 47.7437C39.7036 54.9076 28.6776 55.8952 20.4377 50.7213L22.1918 57.2735L18.772 56.3595C29.0388 61.9904 42.2095 60.4648 50.899 51.7826C61.4385 41.2431 61.4385 24.0851 50.899 13.5456Z" fill="url(#paint2_linear_131_122)"/>
<path d="M313.605 35.3638L300.339 43.0232L300.339 27.7044L313.605 35.3638Z" fill="#E92B66"/>
</g>
<defs>
<filter id="filter0_d_131_122" x="22.3354" y="20.0595" width="19.7759" height="28.066" filterUnits="userSpaceOnUse" color-interpolation-filters="sRGB">
<feFlood flood-opacity="0" result="BackgroundImageFix"/>
<feColorMatrix in="SourceAlpha" type="matrix" values="0 0 0 0 0 0 0 0 0 0 0 0 0 0 0 0 0 0 127 0" result="hardAlpha"/>
<feOffset dy="2.94811"/>
<feComposite in2="hardAlpha" operator="out"/>
<feColorMatrix type="matrix" values="0 0 0 0 0 0 0 0 0 0 0 0 0 0 0 0 0 0 0.25 0"/>
<feBlend mode="normal" in2="BackgroundImageFix" result="effect1_dropShadow_131_122"/>
<feBlend mode="normal" in="SourceGraphic" in2="effect1_dropShadow_131_122" result="shape"/>
</filter>
<linearGradient id="paint0_linear_131_122" x1="31.7838" y1="49.0882" x2="31.7838" y2="-5.75404" gradientUnits="userSpaceOnUse">
<stop stop-color="#F39C12"/>
<stop offset="1" stop-color="#F1C40F"/>
</linearGradient>
<linearGradient id="paint1_linear_131_122" x1="44.9069" y1="25.1169" x2="22.3981" y2="32.2513" gradientUnits="userSpaceOnUse">
<stop stop-color="#F39C12"/>
<stop offset="1" stop-color="#F4D03F"/>
</linearGradient>
<linearGradient id="paint2_linear_131_122" x1="19.251" y1="39.0615" x2="47.3097" y2="31.4554" gradientUnits="userSpaceOnUse">
<stop stop-color="#F39C12"/>
<stop offset="1" stop-color="#F4D03F"/>
</linearGradient>
<clipPath id="clip0_131_122">
<rect width="330" height="65.3375" fill="white" transform="translate(0 0.890808)"/>
</clipPath>
</defs>
</svg>
