<svg width="25" height="25" viewBox="0 0 25 25" fill="none" xmlns="http://www.w3.org/2000/svg">
<g clip-path="url(#clip0_20_419)">
<path d="M19.0829 5.91967C19.2187 5.49455 19.1802 5.04234 18.9745 4.64632C18.7686 4.2503 18.4207 3.95883 17.9946 3.82568L15.131 2.93081C14.8227 2.83446 14.594 2.56565 14.5483 2.24593L14.4479 1.54251C14.3678 0.982128 13.8805 0.55957 13.3145 0.55957H11.4354C10.8694 0.55957 10.3821 0.982128 10.302 1.54256L10.2016 2.24593C10.1559 2.56565 9.92719 2.83446 9.61893 2.93081L6.75516 3.82568C6.32914 3.95883 5.98127 4.25025 5.77539 4.64632C5.56962 5.04234 5.53112 5.49455 5.66698 5.91967L7.34635 11.1744C7.87084 12.8152 7.83299 14.6096 7.2406 16.2249L7.23748 16.2332C6.67977 17.7116 6.42584 19.2538 6.48264 20.817L6.58487 23.6283C6.59352 23.8664 6.76813 24.0657 7.00301 24.1056C8.78527 24.4083 10.5801 24.5596 12.3749 24.5596C14.1698 24.5596 15.9646 24.4083 17.7468 24.1056C17.9818 24.0658 18.1563 23.8664 18.165 23.6283L18.2672 20.817C18.3241 19.2539 18.0701 17.7117 17.5123 16.2332C17.5123 16.233 17.5101 16.227 17.51 16.2269C16.9169 14.6097 16.879 12.8153 17.4034 11.1744L19.0829 5.91967ZM17.1622 18.88C16.952 18.9246 16.7407 18.9673 16.5305 19.0055C16.2574 19.0552 16.0763 19.3169 16.126 19.59C16.1702 19.8327 16.3817 20.0027 16.6199 20.0027C16.6498 20.0027 16.6801 20.0001 16.7105 19.9945C16.8924 19.9614 17.075 19.9251 17.2573 19.8874C17.2712 20.1841 17.2735 20.4818 17.2627 20.7804L17.1754 23.1802C13.9876 23.679 10.7622 23.679 7.57449 23.1802L7.48724 20.7804C7.47548 20.4569 7.4791 20.1343 7.49639 19.8132C7.67366 19.8527 7.85139 19.8908 8.02857 19.9259C8.06159 19.9325 8.09451 19.9356 8.12693 19.9356C8.36191 19.9356 8.57196 19.77 8.6194 19.5308C8.67344 19.2585 8.49651 18.9939 8.22424 18.9399C8.01585 18.8986 7.80686 18.8529 7.59902 18.8054C7.71191 18.0538 7.90462 17.3127 8.17785 16.5884L8.18363 16.573C8.41891 15.9314 8.57648 15.2651 8.6566 14.5904C8.93249 14.5885 9.15561 14.3643 9.15561 14.088C9.15561 13.8326 8.96501 13.6223 8.71842 13.5901C8.72325 12.6704 8.58558 11.7497 8.30385 10.8683L7.79228 9.26751C7.87109 9.284 7.95001 9.30129 8.02862 9.31687C8.06159 9.32341 8.09451 9.32657 8.12693 9.32657C8.36191 9.32657 8.57196 9.16091 8.6194 8.92166C8.67344 8.64938 8.49651 8.38485 8.22424 8.33082C7.96222 8.27885 7.69844 8.2209 7.43818 8.15937L6.62458 5.61362C6.57085 5.44545 6.58603 5.26656 6.66751 5.10989C6.74893 4.95317 6.8866 4.83787 7.05513 4.78525L9.53499 4.01035C9.57857 4.09454 9.62501 4.17772 9.67582 4.25754C9.77157 4.40813 9.93422 4.49046 10.1004 4.49046C10.1927 4.49046 10.286 4.46507 10.3696 4.41185C10.6039 4.26287 10.6729 3.95219 10.524 3.71797C10.5022 3.68379 10.4814 3.64886 10.4615 3.61337C10.8536 3.32341 11.1259 2.88406 11.1967 2.38807L11.2972 1.6847C11.3069 1.61634 11.3664 1.56482 11.4354 1.56482H13.3145C13.3835 1.56482 13.443 1.61634 13.4527 1.6847L13.5532 2.38807C13.6241 2.88401 13.8963 3.32341 14.2884 3.61337C14.2685 3.64881 14.2477 3.68379 14.2259 3.71797C14.077 3.95219 14.146 4.26287 14.3803 4.41185C14.4639 4.46507 14.5572 4.49046 14.6495 4.49046C14.8157 4.49046 14.9783 4.40808 15.0741 4.25754C15.1249 4.17767 15.1713 4.09449 15.2149 4.0103L17.6947 4.78525C17.8633 4.83792 18.0009 4.95322 18.0823 5.10989C18.1638 5.26656 18.179 5.44545 18.1253 5.61362L17.2844 8.24487C17.0343 8.29936 16.7816 8.35077 16.5305 8.39646C16.2574 8.44617 16.0763 8.70784 16.126 8.98097C16.1702 9.22363 16.3817 9.39367 16.6199 9.39367C16.6498 9.39367 16.6801 9.39101 16.7105 9.38543C16.7847 9.37191 16.8592 9.35683 16.9336 9.34251L16.446 10.8683C16.1639 11.7509 16.0263 12.6729 16.0313 13.5934C15.7953 13.6347 15.6158 13.8401 15.6158 14.0879C15.6158 14.357 15.8273 14.5759 16.0929 14.5893C16.1729 15.2634 16.3301 15.9288 16.5649 16.5689L16.5719 16.5878C16.8542 17.3365 17.0511 18.1028 17.1622 18.88Z" fill="#273645"/>
<path d="M11.9902 14.5906H12.7807C13.0582 14.5906 13.2833 14.3656 13.2833 14.088C13.2833 13.8104 13.0582 13.5854 12.7807 13.5854H11.9902C11.7126 13.5854 11.4875 13.8104 11.4875 14.088C11.4875 14.3656 11.7126 14.5906 11.9902 14.5906Z" fill="#273645"/>
<path d="M10.7169 13.5854H9.92645C9.6489 13.5854 9.42383 13.8104 9.42383 14.088C9.42383 14.3656 9.6489 14.5906 9.92645 14.5906H10.7169C10.9945 14.5906 11.2196 14.3656 11.2196 14.088C11.2196 13.8104 10.9945 13.5854 10.7169 13.5854Z" fill="#273645"/>
<path d="M14.8449 14.5906C15.1224 14.5906 15.3475 14.3656 15.3475 14.088C15.3475 13.8104 15.1224 13.5854 14.8449 13.5854H14.0544C13.7768 13.5854 13.5518 13.8104 13.5518 14.088C13.5518 14.3656 13.7768 14.5906 14.0544 14.5906H14.8449Z" fill="#273645"/>
<path d="M10.8865 5.37356C11.0974 5.48454 11.3209 5.57185 11.5508 5.63302C11.5941 5.64453 11.6376 5.65001 11.6803 5.65001C11.9026 5.65001 12.1059 5.50143 12.1657 5.27645C12.2371 5.0082 12.0774 4.73286 11.8092 4.66154C11.6519 4.61972 11.4991 4.56001 11.3548 4.48406C11.1091 4.35474 10.8053 4.44903 10.6759 4.69466C10.5466 4.94025 10.6409 5.24424 10.8865 5.37356Z" fill="#273645"/>
<path d="M13.0681 5.65018C13.1109 5.65018 13.1543 5.6447 13.1975 5.63324C13.4274 5.57217 13.6509 5.48492 13.8619 5.37394C14.1076 5.24471 14.202 4.94078 14.0727 4.69509C13.9435 4.44941 13.6395 4.35507 13.3938 4.48429C13.2495 4.56024 13.0966 4.6199 12.9394 4.66167C12.6711 4.73294 12.5114 5.00823 12.5826 5.27648C12.6425 5.50151 12.8458 5.65018 13.0681 5.65018Z" fill="#273645"/>
<path d="M13.7774 9.23074C13.7975 9.49457 14.0177 9.69516 14.278 9.69516C14.2908 9.69516 14.3038 9.69466 14.3167 9.69371C14.6226 9.67038 14.9322 9.64053 15.2371 9.60504C15.5128 9.57293 15.7103 9.32337 15.6782 9.04763C15.6461 8.77194 15.3965 8.57466 15.1208 8.60653C14.8292 8.6405 14.533 8.66905 14.2402 8.69137C13.9635 8.71248 13.7562 8.95394 13.7774 9.23074Z" fill="#273645"/>
<path d="M9.49844 9.55977C9.80252 9.60003 10.1116 9.63476 10.4173 9.66295C10.433 9.66436 10.4486 9.66507 10.464 9.66507C10.7208 9.66507 10.9399 9.46924 10.9639 9.20853C10.9894 8.93209 10.786 8.68736 10.5096 8.66188C10.2172 8.63494 9.9214 8.60172 9.63048 8.56316C9.35544 8.52682 9.10267 8.72023 9.06618 8.99542C9.02974 9.27066 9.2232 9.52327 9.49844 9.55977Z" fill="#273645"/>
<path d="M12.8229 8.75413C12.8208 8.75413 12.8187 8.75413 12.8167 8.75413C12.7278 8.75523 12.639 8.75573 12.55 8.75573C12.5491 8.75573 12.5484 8.75573 12.5476 8.75573C12.3434 8.75573 12.1363 8.75287 11.9321 8.74719C11.6522 8.73985 11.4234 8.95819 11.4157 9.23564C11.408 9.51314 11.6267 9.74435 11.9042 9.75204C12.1176 9.75797 12.334 9.76099 12.5474 9.76099C12.6408 9.76028 12.7351 9.76044 12.8289 9.75933C13.1064 9.75596 13.3288 9.52817 13.3254 9.25062C13.322 8.97513 13.0976 8.75413 12.8229 8.75413Z" fill="#273645"/>
<path d="M12.8229 19.3632C12.8209 19.3632 12.8187 19.3632 12.8167 19.3632C12.5221 19.3669 12.2249 19.3644 11.9321 19.3562C11.9273 19.3561 11.9226 19.356 11.9179 19.356C11.6468 19.356 11.4233 19.5719 11.4157 19.8447C11.408 20.1222 11.6267 20.3534 11.9042 20.3611C12.1178 20.367 12.3351 20.3701 12.5501 20.3701C12.643 20.3701 12.736 20.3695 12.8289 20.3684C13.1064 20.365 13.3288 20.1372 13.3254 19.8597C13.322 19.5842 13.0976 19.3632 12.8229 19.3632Z" fill="#273645"/>
<path d="M15.1209 19.2156C14.8292 19.2496 14.533 19.2781 14.2403 19.3005C13.9635 19.3216 13.7562 19.5631 13.7774 19.8398C13.7975 20.1037 14.0177 20.3043 14.278 20.3043C14.2908 20.3043 14.3038 20.3038 14.3167 20.3028C14.6226 20.2795 14.9322 20.2496 15.2371 20.2141C15.5128 20.182 15.7103 19.9325 15.6782 19.6567C15.6461 19.381 15.3966 19.1836 15.1209 19.2156Z" fill="#273645"/>
<path d="M10.5096 19.271C10.2172 19.2441 9.92141 19.2108 9.63049 19.1723C9.35545 19.136 9.10268 19.3294 9.06619 19.6046C9.0297 19.8797 9.22321 20.1324 9.49845 20.1689C9.80254 20.2091 10.1117 20.2438 10.4173 20.272C10.433 20.2735 10.4486 20.2742 10.464 20.2742C10.7208 20.2742 10.9399 20.0783 10.964 19.8176C10.9894 19.5412 10.786 19.2965 10.5096 19.271Z" fill="#273645"/>
</g>
<defs>
<clipPath id="clip0_20_419">
<rect width="24" height="24" fill="white" transform="translate(0.375 0.55957)"/>
</clipPath>
</defs>
</svg>
