<svg width="25" height="25" viewBox="0 0 25 25" fill="none" xmlns="http://www.w3.org/2000/svg">
<g clip-path="url(#clip0_20_413)">
<path d="M18.6778 8.42627H13.213C11.9806 8.42627 10.8879 9.16534 10.4291 10.3092L9.9223 11.5729C9.85608 11.738 9.87612 11.9252 9.97578 12.0726C10.0754 12.2199 10.2417 12.3082 10.4196 12.3082H18.6778C19.7118 12.3082 20.5531 11.4669 20.5531 10.4329V10.3015C20.5531 9.26747 19.7118 8.42627 18.6778 8.42627ZM19.4815 10.4329C19.4815 10.876 19.1209 11.2366 18.6778 11.2366H17.8048C17.8166 11.1923 17.8236 11.1459 17.8236 11.0979C17.8236 10.802 17.5837 10.5621 17.2878 10.5621H14.228C13.9321 10.5621 13.6922 10.802 13.6922 11.0979C13.6922 11.146 13.6991 11.1923 13.711 11.2366H11.2117L11.4237 10.7081C11.7186 9.97284 12.4209 9.49781 13.213 9.49781H18.6778C19.1209 9.49781 19.4815 9.85834 19.4815 10.3015V10.4329Z" fill="#273645"/>
<path d="M24.6182 5.54421C24.4089 5.33493 24.0697 5.33498 23.8605 5.54421L22.5073 6.89736C22.0744 6.58622 21.5462 6.40277 20.9813 6.40277H12.8227C9.47474 6.40277 6.4266 8.24338 4.86782 11.2063L1.62363 17.3727C1.53624 17.5388 1.54214 17.7385 1.63917 17.8991C1.7362 18.0598 1.91017 18.1579 2.09786 18.1579H2.24263L1.99151 18.6601H1.31094C1.01502 18.6601 0.775146 18.9 0.775146 19.1959C0.775146 19.4918 1.01502 19.7317 1.31094 19.7317H20.0839C20.3798 19.7317 20.6196 19.4918 20.6196 19.1959C20.6196 18.9 20.3798 18.6601 20.0839 18.6601H19.2707V18.1579H20.0839C20.3798 18.1579 20.6196 17.9181 20.6196 17.6221C20.6196 15.8977 21.5784 14.3468 23.1218 13.5746C23.5402 13.3653 23.702 12.8183 23.7188 11.5565C23.7283 10.8492 23.6886 9.92958 23.601 8.82338C23.5682 8.40932 23.4379 8.02295 23.2346 7.68546L24.6182 6.30193C24.8275 6.0927 24.8275 5.75344 24.6182 5.54421ZM7.6323 9.40986V10.955C7.6323 12.0264 6.76072 12.8979 5.6894 12.8979H5.18865L5.81617 11.7051C6.28333 10.8172 6.90266 10.044 7.6323 9.40986ZM18.1991 18.6601H3.1896L3.44073 18.1579H18.1991V18.6601ZM2.98514 17.0863L3.24918 16.5844H19.6436C19.6129 16.7497 19.5892 16.917 19.5732 17.0863H2.98514ZM22.541 12.6682C21.3445 13.2967 20.4439 14.3092 19.9568 15.5128H3.81294L4.62489 13.9695H5.6894C7.3516 13.9695 8.70389 12.6172 8.70389 10.955V8.62653C9.92084 7.88552 11.3382 7.47435 12.8227 7.47435H20.9813C21.7876 7.47435 22.469 8.10407 22.5328 8.90803C22.7534 11.6951 22.6031 12.4763 22.541 12.6682Z" fill="#273645"/>
</g>
<defs>
<clipPath id="clip0_20_413">
<rect width="24" height="24" fill="white" transform="translate(0.775146 0.55957)"/>
</clipPath>
</defs>
</svg>
