<svg width="25" height="25" viewBox="0 0 25 25" fill="none" xmlns="http://www.w3.org/2000/svg">
<g clip-path="url(#clip0_20_435)">
<path d="M24.4677 22.2708L23.8323 18.6116C23.7895 18.3649 23.5754 18.1849 23.3251 18.1849H22.9391C22.7829 14.9725 21.1732 12.1355 18.7551 10.319L19.0217 9.85108C19.0937 9.86205 19.1659 9.86817 19.238 9.86817C19.7395 9.86817 20.2275 9.60653 20.493 9.14044C20.6836 8.8059 20.7325 8.41714 20.6307 8.04578C20.5288 7.67443 20.2885 7.36495 19.954 7.17441C19.2633 6.78097 18.3814 7.02274 17.9879 7.7134C17.6842 8.24647 17.7593 8.89332 18.1268 9.34175L17.9 9.73988C16.7733 9.05513 15.5076 8.57756 14.1564 8.35865L14.8469 5.11097C15.4195 5.02025 15.9056 4.58748 16.0332 3.98748C16.1133 3.61087 16.0419 3.22556 15.8322 2.90265C15.6225 2.57974 15.2996 2.35774 14.923 2.27768C14.5464 2.19757 14.1611 2.26898 13.8382 2.47868C13.5153 2.68837 13.2933 3.01123 13.2132 3.38789C13.0856 3.98794 13.3534 4.5815 13.8397 4.89731L13.1281 8.24415C12.9121 8.23082 12.6946 8.2232 12.4753 8.2232C11.1153 8.2232 9.81505 8.48386 8.62164 8.95762L7.88742 6.88898C8.32802 6.51217 8.51568 5.88859 8.31047 5.31047C8.04455 4.56142 7.21879 4.16824 6.46985 4.43415C6.10699 4.56292 5.816 4.82533 5.65048 5.17301C5.48495 5.52063 5.46472 5.91196 5.59353 6.27482C5.7223 6.63769 5.98471 6.92867 6.33239 7.0942C6.51855 7.1828 6.71718 7.22924 6.9173 7.23398L7.68122 9.38633C6.68557 9.90092 5.78284 10.5707 5.00445 11.3632L4.54191 10.5512C4.90941 10.1028 4.98447 9.45594 4.68082 8.92292C4.28732 8.23226 3.40535 7.99049 2.71474 8.38393C2.38014 8.57453 2.13981 8.884 2.03802 9.25536C1.93624 9.62671 1.98515 10.0155 2.17575 10.35C2.36634 10.6846 2.67581 10.9249 3.04712 11.0267C3.17387 11.0615 3.30258 11.0787 3.43052 11.0787C3.50327 11.0787 3.57571 11.0724 3.64743 11.0614L4.28321 12.1774C2.95434 13.8426 2.12164 15.9203 2.01151 18.1848H1.62553C1.37516 18.1848 1.16109 18.3649 1.11826 18.6116L0.48294 22.2708C0.45694 22.4205 0.498385 22.574 0.596257 22.6903C0.694077 22.8066 0.838285 22.8737 0.990215 22.8737H23.9605C24.1125 22.8737 24.2567 22.8066 24.3545 22.6903C24.4523 22.574 24.4937 22.4205 24.4677 22.2708ZM18.8826 8.22304C18.9951 8.02575 19.247 7.95666 19.4443 8.0691C19.5399 8.12352 19.6086 8.21197 19.6376 8.31803C19.6667 8.42414 19.6528 8.53519 19.5983 8.63075C19.4859 8.82809 19.2339 8.89713 19.0366 8.78474C18.8393 8.6723 18.7702 8.42033 18.8826 8.22304ZM14.2204 3.60196C14.2433 3.49436 14.3067 3.40215 14.399 3.34222C14.4912 3.2823 14.6012 3.26196 14.7089 3.28482C14.8165 3.30773 14.9088 3.37111 14.9686 3.46337C15.0285 3.55563 15.0489 3.6657 15.026 3.7733C14.9788 3.99541 14.7597 4.13766 14.5376 4.0905C14.3154 4.04318 14.1732 3.82407 14.2204 3.60196ZM6.56386 5.93019C6.5271 5.8265 6.53281 5.71473 6.58013 5.61541C6.62739 5.5161 6.71054 5.44114 6.81423 5.40433C6.85964 5.38821 6.90597 5.38059 6.95159 5.38059C7.12108 5.38059 7.28026 5.48608 7.34009 5.65469C7.41608 5.86872 7.30374 6.10462 7.08977 6.18056C6.98614 6.21737 6.87431 6.2116 6.775 6.16429C6.67563 6.11702 6.60067 6.03388 6.56386 5.93019ZM3.07039 9.84012C3.01592 9.74456 3.00197 9.63346 3.03105 9.5274C3.06014 9.42129 3.12877 9.33289 3.22438 9.27842C3.28858 9.24187 3.3585 9.22452 3.42754 9.22452C3.57082 9.22452 3.71024 9.29927 3.78607 9.43241C3.89846 9.62975 3.82937 9.88171 3.63208 9.9941C3.53653 10.0485 3.42537 10.0625 3.31937 10.0334C3.21326 10.0044 3.12481 9.93572 3.07039 9.84012ZM22.892 19.2145L23.0309 20.0144H1.91977L2.05867 19.2145H22.892ZM4.83651 13.1485L6.73196 16.4757C6.82689 16.6424 7.00081 16.7358 7.17977 16.7358C7.26616 16.7358 7.35368 16.714 7.4341 16.6682C7.68117 16.5275 7.76736 16.2131 7.6266 15.966L5.53623 12.2966C6.25099 11.5226 7.09312 10.8681 8.02916 10.3666L9.00154 13.1063C9.07645 13.3173 9.27487 13.4491 9.48673 13.4491C9.54388 13.4491 9.602 13.4395 9.65895 13.4193C9.92692 13.3242 10.0671 13.0298 9.97192 12.7619L8.96643 9.92887C10.0518 9.49306 11.236 9.25273 12.4753 9.25273C12.6215 9.25273 12.7668 9.25654 12.9114 9.26318L12.5436 10.9929C12.4844 11.271 12.6619 11.5445 12.9401 11.6036C12.9762 11.6112 13.0122 11.6149 13.0476 11.6149C13.2856 11.6149 13.4993 11.4491 13.5507 11.2071L13.942 9.36677C15.1883 9.56189 16.3546 10.0014 17.3901 10.6348L15.042 14.7566C14.9013 15.0037 14.9875 15.3181 15.2345 15.4588C15.315 15.5046 15.4025 15.5264 15.4889 15.5264C15.6678 15.5264 15.8418 15.433 15.9367 15.2663L18.2408 11.2216C20.3512 12.8525 21.7552 15.3549 21.9079 18.1847H3.04259C3.14386 16.3094 3.79483 14.578 4.83651 13.1485ZM1.60211 21.844L1.74101 21.0441H23.2097L23.3486 21.844H1.60211Z" fill="#273645"/>
<path d="M11.7417 14.4008C11.6057 14.4008 11.4734 14.4559 11.3777 14.5517C11.2819 14.6474 11.2268 14.7803 11.2268 14.9157C11.2268 15.0511 11.2819 15.1839 11.3777 15.2797C11.4734 15.3754 11.6062 15.4305 11.7417 15.4305C11.8771 15.4305 12.0099 15.3754 12.1056 15.2797C12.2014 15.1839 12.2565 15.0511 12.2565 14.9157C12.2565 14.7803 12.2014 14.6474 12.1056 14.5517C12.0099 14.4559 11.877 14.4008 11.7417 14.4008Z" fill="#273645"/>
<path d="M19.133 14.0883C19.0372 13.9926 18.9044 13.9375 18.769 13.9375C18.6336 13.9375 18.5008 13.9926 18.405 14.0883C18.3092 14.1841 18.2542 14.3169 18.2542 14.4523C18.2542 14.5877 18.3092 14.7206 18.405 14.8163C18.5008 14.9121 18.6336 14.9672 18.769 14.9672C18.9044 14.9672 19.0372 14.9121 19.133 14.8163C19.2287 14.7206 19.2838 14.5877 19.2838 14.4523C19.2838 14.3169 19.2287 14.1841 19.133 14.0883Z" fill="#273645"/>
<path d="M11.4069 10.8232C11.4069 10.6873 11.3518 10.555 11.256 10.4587C11.1603 10.3629 11.0274 10.3083 10.892 10.3083C10.7561 10.3083 10.6238 10.3629 10.528 10.4587C10.4323 10.555 10.3772 10.6873 10.3772 10.8232C10.3772 10.9586 10.4323 11.0914 10.528 11.1872C10.6238 11.2829 10.7561 11.338 10.892 11.338C11.0274 11.338 11.1603 11.2829 11.256 11.1872C11.3517 11.0914 11.4069 10.9586 11.4069 10.8232Z" fill="#273645"/>
<path d="M16.6838 16.486C16.5484 16.486 16.4156 16.541 16.3198 16.6368C16.224 16.7326 16.1689 16.8654 16.1689 17.0008C16.1689 17.1362 16.224 17.269 16.3198 17.3648C16.4156 17.4606 16.5484 17.5156 16.6838 17.5156C16.8192 17.5156 16.952 17.4606 17.0478 17.3648C17.1441 17.269 17.1986 17.1362 17.1986 17.0008C17.1986 16.8654 17.1441 16.7326 17.0478 16.6368C16.952 16.541 16.8192 16.486 16.6838 16.486Z" fill="#273645"/>
<path d="M4.71406 15.482C4.57866 15.482 4.44634 15.5371 4.35007 15.6328C4.25431 15.7286 4.19922 15.8614 4.19922 15.9968C4.19922 16.1322 4.25431 16.2651 4.35007 16.3608C4.44634 16.4566 4.57866 16.5117 4.71406 16.5117C4.84998 16.5117 4.9823 16.4566 5.07857 16.3608C5.17433 16.2651 5.22891 16.1322 5.22891 15.9968C5.22891 15.8614 5.17433 15.7286 5.07857 15.6328C4.9823 15.5371 4.84993 15.482 4.71406 15.482Z" fill="#273645"/>
</g>
<defs>
<clipPath id="clip0_20_435">
<rect width="24" height="24" fill="white" transform="translate(0.475098 0.55957)"/>
</clipPath>
</defs>
</svg>
