<svg width="25" height="25" viewBox="0 0 25 25" fill="none" xmlns="http://www.w3.org/2000/svg">
<path d="M17.325 8.30957H7.82495C7.41495 8.30957 7.07495 7.96957 7.07495 7.55957V5.55957C7.07495 2.99957 8.26495 1.80957 10.825 1.80957H14.325C16.885 1.80957 18.075 2.99957 18.075 5.55957V7.55957C18.075 7.96957 17.735 8.30957 17.325 8.30957ZM8.57495 6.80957H16.575V5.55957C16.575 3.85957 16.025 3.30957 14.325 3.30957H10.825C9.12495 3.30957 8.57495 3.85957 8.57495 5.55957V6.80957Z" fill="#273645"/>
<path d="M13.575 23.3096H11.575C9.15495 23.3096 7.82495 21.9796 7.82495 19.5596V15.5596C7.82495 15.1496 8.16495 14.8096 8.57495 14.8096H16.575C16.985 14.8096 17.325 15.1496 17.325 15.5596V19.5596C17.325 21.9796 15.995 23.3096 13.575 23.3096ZM9.32495 16.3096V19.5596C9.32495 21.1396 9.99495 21.8096 11.575 21.8096H13.575C15.155 21.8096 15.825 21.1396 15.825 19.5596V16.3096H9.32495Z" fill="#273645"/>
<path d="M18.575 19.3096H16.575C16.165 19.3096 15.825 18.9696 15.825 18.5596V16.3096H9.32495V18.5596C9.32495 18.9696 8.98495 19.3096 8.57495 19.3096H6.57495C4.15495 19.3096 2.82495 17.9796 2.82495 15.5596V10.5596C2.82495 8.13957 4.15495 6.80957 6.57495 6.80957H18.575C20.995 6.80957 22.325 8.13957 22.325 10.5596V15.5596C22.325 17.9796 20.995 19.3096 18.575 19.3096ZM17.325 17.8096H18.575C20.155 17.8096 20.825 17.1396 20.825 15.5596V10.5596C20.825 8.97957 20.155 8.30957 18.575 8.30957H6.57495C4.99495 8.30957 4.32495 8.97957 4.32495 10.5596V15.5596C4.32495 17.1396 4.99495 17.8096 6.57495 17.8096H7.82495V15.5596C7.82495 15.1496 8.16495 14.8096 8.57495 14.8096H16.575C16.985 14.8096 17.325 15.1496 17.325 15.5596V17.8096Z" fill="#273645"/>
<path d="M17.575 16.3096H7.57495C7.16495 16.3096 6.82495 15.9696 6.82495 15.5596C6.82495 15.1496 7.16495 14.8096 7.57495 14.8096H17.575C17.985 14.8096 18.325 15.1496 18.325 15.5596C18.325 15.9696 17.985 16.3096 17.575 16.3096Z" fill="#273645"/>
<path d="M10.575 12.3096H7.57495C7.16495 12.3096 6.82495 11.9696 6.82495 11.5596C6.82495 11.1496 7.16495 10.8096 7.57495 10.8096H10.575C10.985 10.8096 11.325 11.1496 11.325 11.5596C11.325 11.9696 10.985 12.3096 10.575 12.3096Z" fill="#273645"/>
</svg>
