<svg width="25" height="25" viewBox="0 0 25 25" fill="none" xmlns="http://www.w3.org/2000/svg">
<g clip-path="url(#clip0_20_404)">
<path d="M3.86698 6.54242C3.14554 6.54242 2.55859 7.12937 2.55859 7.8508V10.5591C2.55859 11.2806 3.14554 11.8675 3.86698 11.8675C4.58846 11.8675 5.17536 11.2806 5.17536 10.5591V7.8508C5.17536 7.12937 4.58841 6.54242 3.86698 6.54242ZM3.86698 7.57934C4.01665 7.57934 4.13844 7.70112 4.13844 7.8508V8.66644H3.59551V7.8508C3.59551 7.70112 3.71724 7.57934 3.86698 7.57934ZM3.86698 10.8306C3.7173 10.8306 3.59551 10.7088 3.59551 10.5591V9.70336H4.13844V10.5591C4.13844 10.7088 4.01665 10.8306 3.86698 10.8306Z" fill="#273645"/>
<path d="M23.6566 6.84338H22.3539C22.0694 5.5195 20.8904 4.52395 19.4828 4.52395H17.8786V2.71023C17.8786 2.42389 17.6464 2.19177 17.3601 2.19177H17.0887V1.71951C17.0887 1.43316 16.8565 1.20105 16.5702 1.20105C16.2839 1.20105 16.0517 1.43316 16.0517 1.71951V2.19177H15.7803C15.494 2.19177 15.2618 2.42389 15.2618 2.71023V4.5239H14.8882V2.71023C14.8882 2.42389 14.656 2.19177 14.3697 2.19177H14.0982V1.71951C14.0982 1.43316 13.8661 1.20105 13.5798 1.20105C13.2935 1.20105 13.0613 1.43316 13.0613 1.71951V2.19177H12.7899C12.5036 2.19177 12.2715 2.42389 12.2715 2.71023V4.5239H4.38519V3.74139C4.38519 3.45505 4.15307 3.22293 3.86673 3.22293C3.58039 3.22293 3.34827 3.45505 3.34827 3.74139V4.52395H3.11206C1.49261 4.5239 0.175049 5.84141 0.175049 7.46086V13.3658C0.175049 13.6522 0.407163 13.8843 0.693507 13.8843H1.90328V14.9087C1.90328 15.195 2.13539 15.4271 2.42174 15.4271H3.34827V16.8381H1.8366C0.920384 16.8381 0.175049 17.5834 0.175049 18.4997V23.3997C0.175049 23.686 0.407163 23.9181 0.693507 23.9181H21.9013C22.1876 23.9181 22.4198 23.686 22.4198 23.3997V12.8455H23.6566C23.9429 12.8455 24.175 12.6134 24.175 12.3271V7.36184C24.175 7.07549 23.9429 6.84338 23.6566 6.84338ZM16.2987 3.22869H16.8417V4.5239H16.2987V3.22869ZM13.3083 3.22869H13.8512V4.5239H13.3083V3.22869ZM2.94019 13.8843H4.79321V14.3902H2.94019V13.8843ZM4.38519 15.4272H5.31173C5.59807 15.4272 5.83018 15.1951 5.83018 14.9087V13.8844H7.03995C7.3263 13.8844 7.55841 13.6522 7.55841 13.3659V12.2974C7.55841 11.915 7.86949 11.604 8.25185 11.604H12.3659C12.7483 11.604 13.0594 11.915 13.0594 12.2974V16.8382H4.38519V15.4272ZM1.8366 17.875H13.5778C13.8641 17.875 14.0963 17.6429 14.0963 17.3566V12.2974C14.0963 11.3432 13.32 10.567 12.3659 10.567H8.25185C7.29773 10.567 6.5215 11.3432 6.5215 12.2974V12.8474H1.21197V7.46086C1.21197 6.41316 2.06431 5.56082 3.11201 5.56082H19.4828C20.5304 5.56082 21.3828 6.41316 21.3828 7.46086V21.2124H1.21197V18.4996C1.21197 18.1553 1.49219 17.875 1.8366 17.875ZM1.21197 22.8812V22.2494H21.3828V22.8812H1.21197ZM23.1381 11.8086H22.4198V7.88029H23.1381V11.8086Z" fill="#273645"/>
<path d="M11.2714 6.54242C10.3538 6.54242 9.60718 7.28895 9.60718 8.20657C9.60718 9.12419 10.3537 9.87077 11.2714 9.87077C12.189 9.87077 12.9355 9.12424 12.9355 8.20657C12.9355 7.2889 12.189 6.54242 11.2714 6.54242ZM11.2714 8.83385C10.9255 8.83385 10.6441 8.55248 10.6441 8.20657C10.6441 7.8607 10.9255 7.57934 11.2714 7.57934C11.6172 7.57934 11.8986 7.8607 11.8986 8.20657C11.8986 8.55248 11.6172 8.83385 11.2714 8.83385Z" fill="#273645"/>
<path d="M16.8706 8.20669C16.8706 7.28907 16.1241 6.54254 15.2064 6.54254C14.2888 6.54254 13.5422 7.28907 13.5422 8.20669C13.5422 9.1243 14.2888 9.87088 15.2064 9.87088C16.1241 9.87088 16.8706 9.1243 16.8706 8.20669ZM14.5792 8.20669C14.5792 7.86082 14.8606 7.57946 15.2065 7.57946C15.5524 7.57946 15.8338 7.86082 15.8338 8.20669C15.8338 8.55255 15.5524 8.83397 15.2065 8.83397C14.8606 8.83397 14.5792 8.55255 14.5792 8.20669Z" fill="#273645"/>
<path d="M14.9106 16.5111V17.3566C14.9106 17.6429 15.1428 17.8751 15.4291 17.8751H19.9289C20.2151 17.8751 20.4473 17.6429 20.4473 17.3566V16.5111C20.4473 15.6995 19.7871 15.0392 18.9755 15.0392H16.3824C15.5709 15.0392 14.9106 15.6995 14.9106 16.5111ZM19.4104 16.5111V16.8381H15.9476V16.5111C15.9476 16.2713 16.1427 16.0762 16.3825 16.0762H18.9755C19.2153 16.0762 19.4104 16.2713 19.4104 16.5111Z" fill="#273645"/>
</g>
<defs>
<clipPath id="clip0_20_404">
<rect width="24" height="24" fill="white" transform="translate(0.175049 0.55957)"/>
</clipPath>
</defs>
</svg>
