<svg width="35" height="36" viewBox="0 0 35 36" fill="none" xmlns="http://www.w3.org/2000/svg">
<path fill-rule="evenodd" clip-rule="evenodd" d="M10.2004 0.681274C10.9099 0.681274 11.4852 1.27154 11.4852 1.99967V2.42764C11.5689 2.40576 11.653 2.38466 11.7373 2.36435C15.2334 1.52284 18.8717 1.52284 22.3677 2.36435C22.4521 2.38466 22.5362 2.40576 22.6199 2.42764V1.99967C22.6199 1.27154 23.1951 0.681274 23.9047 0.681274C24.6142 0.681274 25.1895 1.27154 25.1895 1.99967V3.38886C28.2248 4.89353 30.6247 7.50874 31.9002 10.7325C32.1639 11.3992 32.3796 12.0918 32.5428 12.8056C33.3628 16.3931 33.3628 20.1267 32.5428 23.7141C31.3585 28.8949 27.4164 32.9402 22.3677 34.1554C18.8717 34.9969 15.2334 34.9969 11.7373 34.1554C6.68864 32.9402 2.74657 28.8949 1.56231 23.7141C0.742252 20.1267 0.742252 16.3931 1.56231 12.8056C1.72548 12.0918 1.94111 11.3992 2.20491 10.7325C3.48041 7.50874 5.88027 4.89353 8.91559 3.38887V1.99967C8.91559 1.27154 9.49081 0.681274 10.2004 0.681274ZM8.91561 6.40159C7.53895 7.29847 6.37058 8.49736 5.49655 9.91004H28.6085C27.7345 8.49736 26.5661 7.29846 25.1894 6.40158C25.1856 7.12637 24.6119 7.71272 23.9047 7.71272C23.1951 7.71272 22.6199 7.12245 22.6199 6.39432V5.1693C22.3449 5.07929 22.065 4.99985 21.7809 4.93146C18.6709 4.18286 15.4342 4.18286 12.3241 4.93146C12.04 4.99985 11.7602 5.07929 11.4852 5.16931V6.39432C11.4852 7.12245 10.9099 7.71272 10.2004 7.71272C9.49317 7.71272 8.91943 7.12637 8.91561 6.40159ZM20.6481 19.348C20.6481 20.3763 20.2165 21.1357 19.5227 21.642C20.4786 22.2273 21.0182 23.1924 21.0182 24.3157C21.0182 26.3566 19.5381 27.6222 17.1484 27.6222C14.7433 27.6222 13.2787 26.3566 13.2787 24.3157C13.2787 23.1924 13.8183 22.2273 14.7587 21.642C14.0804 21.1357 13.6333 20.3763 13.6333 19.348C13.6333 17.2122 15.2521 16.1047 17.1484 16.1047C19.0447 16.1047 20.6481 17.2122 20.6481 19.348ZM18.536 19.4587C18.536 18.636 17.9501 18.1614 17.1484 18.1614C16.3467 18.1614 15.7608 18.636 15.7608 19.4587C15.7608 20.2656 16.3467 20.7718 17.1484 20.7718C17.9501 20.7718 18.536 20.2656 18.536 19.4587ZM15.3908 24.0309C15.3908 25.0276 16.1309 25.5655 17.1484 25.5655C18.166 25.5655 18.906 25.0276 18.906 24.0309C18.906 23.05 18.166 22.5121 17.1484 22.5121C16.1309 22.5121 15.3908 23.05 15.3908 24.0309Z" fill="#E92B66"/>
</svg>
