<svg width="36" height="36" viewBox="0 0 36 36" fill="none" xmlns="http://www.w3.org/2000/svg">
<mask id="mask0_100_23443" style="mask-type:alpha" maskUnits="userSpaceOnUse" x="1" y="1" width="34" height="34">
<path fill-rule="evenodd" clip-rule="evenodd" d="M18 34.4996C27.1126 34.4996 34.5 27.1123 34.5 17.9997C34.5 8.88694 27.1126 1.49963 18 1.49963C8.8873 1.49963 1.5 8.88694 1.5 17.9997C1.5 27.1123 8.8873 34.4996 18 34.4996ZM12.6 10.4996C11.1089 10.4996 9.90004 11.7084 9.90004 13.1996C9.90004 14.6908 11.1089 15.8996 12.6 15.8996C14.0912 15.8996 15.3 14.6908 15.3 13.1996C15.3 11.7084 14.0912 10.4996 12.6 10.4996ZM20.8501 22.7996C20.8501 21.3085 22.0589 20.0996 23.5501 20.0996C25.0413 20.0996 26.2501 21.3085 26.2501 22.7996C26.2501 24.2908 25.0413 25.4996 23.5501 25.4996C22.0589 25.4996 20.8501 24.2908 20.8501 22.7996ZM13.2727 19.9669C11.7497 21.49 11.7497 23.9593 13.2727 25.4824L22.7126 16.0425C24.2357 14.5195 24.2357 12.0501 22.7126 10.527L13.2727 19.9669Z" fill="#E92B66"/>
</mask>
<g mask="url(#mask0_100_23443)">
<path d="M36 0H0V36H36V0Z" fill="#E92B66"/>
</g>
</svg>
