<svg width="36" height="36" viewBox="0 0 36 36" fill="none" xmlns="http://www.w3.org/2000/svg">
<mask id="mask0_100_23483" style="mask-type:alpha" maskUnits="userSpaceOnUse" x="4" y="3" width="28" height="30">
<path fill-rule="evenodd" clip-rule="evenodd" d="M31.5 3.75H10.5C7.18629 3.75 4.5 6.43629 4.5 9.75V33H25.5C28.8137 33 31.5 30.3137 31.5 27V3.75ZM24.75 29.25C26.4069 29.25 27.75 27.9069 27.75 26.25V18.75H26.25C24.5931 18.75 23.25 20.0931 23.25 21.75V29.25H24.75ZM10.5 18.75H13.5V21C13.5 22.2426 12.4926 23.25 11.25 23.25H8.25V21C8.25 19.7574 9.25736 18.75 10.5 18.75ZM13.5 24.75H10.5C9.25736 24.75 8.25 25.7574 8.25 27V29.25H11.25C12.4926 29.25 13.5 28.2426 13.5 27V24.75ZM18 18.75H21V21C21 22.2426 19.9926 23.25 18.75 23.25H15.75V21C15.75 19.7574 16.7574 18.75 18 18.75ZM21 24.75H18C16.7574 24.75 15.75 25.7574 15.75 27V29.25H18.75C19.9926 29.25 21 28.2426 21 27V24.75ZM11.25 7.5C9.59315 7.5 8.25 8.84315 8.25 10.5V14.25H24.75C26.4069 14.25 27.75 12.9069 27.75 11.25V7.5H11.25Z" fill="#E92B66"/>
</mask>
<g mask="url(#mask0_100_23483)">
<path d="M0 0H36V36H0V0Z" fill="#E92B66"/>
</g>
</svg>
