<svg width="35" height="36" viewBox="0 0 35 36" fill="none" xmlns="http://www.w3.org/2000/svg">
<g clip-path="url(#clip0_100_23499)">
<path fill-rule="evenodd" clip-rule="evenodd" d="M25.5287 7.44377C24.8956 4.35918 22.5463 1.82178 19.3755 0.98314C17.8537 0.580653 16.2515 0.580653 14.7298 0.983139C11.559 1.82178 9.20966 4.35918 8.57657 7.44377C5.19043 8.33433 2.44528 10.7776 1.19323 13.9981C3.37732 14.803 5.82398 15.414 8.40669 15.831V15.2443C8.40669 14.4999 9.01789 13.8963 9.77184 13.8963C10.5258 13.8963 11.137 14.4999 11.137 15.2443V16.1949C15.0155 16.6066 19.0897 16.6066 22.9683 16.1949V15.2443C22.9683 14.4999 23.5795 13.8963 24.3334 13.8963C25.0874 13.8963 25.6986 14.4999 25.6986 15.2443V15.831C28.2813 15.414 30.7279 14.803 32.912 13.9981C31.66 10.7776 28.9148 8.33433 25.5287 7.44377ZM18.6691 3.58736C17.6101 3.30727 16.4951 3.30727 15.4362 3.58736C13.6882 4.04968 12.307 5.2717 11.6177 6.83533C15.2121 6.19659 18.8932 6.19659 22.4876 6.83533C21.7982 5.2717 20.4171 4.04968 18.6691 3.58736Z" fill="#E92B66"/>
<path d="M22.9683 18.9053V21.535C22.9683 22.2795 23.5795 22.8831 24.3334 22.8831C25.0874 22.8831 25.6986 22.2795 25.6986 21.535V18.5603C28.54 18.1265 31.2428 17.4721 33.666 16.5971C34.3352 19.6272 34.2382 22.7919 33.3857 25.7823C32.1791 30.0153 28.6535 33.2509 24.2744 34.0961C19.505 35.0167 14.6003 35.0167 9.83091 34.0961C5.45181 33.2509 1.92619 30.0153 0.719525 25.7823C-0.132918 22.7919 -0.22995 19.6272 0.439233 16.5971C2.86242 17.4721 5.56525 18.1265 8.40669 18.5603V21.535C8.40669 22.2795 9.01789 22.8831 9.77184 22.8831C10.5258 22.8831 11.137 22.2795 11.137 21.535V18.9053C15.025 19.2978 19.0803 19.2978 22.9683 18.9053Z" fill="#E92B66"/>
</g>
<defs>
<clipPath id="clip0_100_23499">
<rect width="34.1053" height="36" fill="white"/>
</clipPath>
</defs>
</svg>
