<svg width="36" height="36" viewBox="0 0 36 36" fill="none" xmlns="http://www.w3.org/2000/svg">
<mask id="mask0_100_23505" style="mask-type:alpha" maskUnits="userSpaceOnUse" x="1" y="6" width="34" height="24">
<path fill-rule="evenodd" clip-rule="evenodd" d="M6 6.75C3.51472 6.75 1.5 8.76471 1.5 11.25V24.843C1.5 29.25 4.00002 29.25 12 29.25H18H30C32.4853 29.25 34.5 27.2353 34.5 24.75V6.75H6ZM7.00002 15.75C7.00002 14.0932 8.34316 12.75 10 12.75H30.75C30.75 14.4069 29.4069 15.75 27.75 15.75H7.00002ZM10 20.75C8.34316 20.75 7.00002 22.0931 7.00002 23.75H20.75C22.4069 23.75 23.75 22.4069 23.75 20.75H10ZM28.5 20.3904C26.9812 20.3904 25.75 21.6217 25.75 23.1404C25.75 24.6592 26.9812 25.8904 28.5 25.8904C30.0188 25.8904 31.25 24.6592 31.25 23.1404C31.25 21.6217 30.0188 20.3904 28.5 20.3904Z" fill="#E92B66"/>
</mask>
<g mask="url(#mask0_100_23505)">
<path d="M0 0H36V36H0V0Z" fill="#E92B66"/>
</g>
</svg>
