<svg width="36" height="36" viewBox="0 0 36 36" fill="none" xmlns="http://www.w3.org/2000/svg">
<mask id="mask0_100_23523" style="mask-type:alpha" maskUnits="userSpaceOnUse" x="3" y="5" width="33" height="30">
<path fill-rule="evenodd" clip-rule="evenodd" d="M3 5.25V26.25C3 29.5637 5.68629 32.25 9 32.25H15.25C15.25 32.25 17.1304 27.851 18.75 25.2654C22.8573 18.7082 33 11.5 33 11.5V11.25C33 7.93629 30.3137 5.25 27 5.25H3ZM12 12C10.3431 12 9 13.3431 9 15H18.75C20.4069 15 21.75 13.6569 21.75 12H12ZM9 21C9 19.3431 10.3431 18 12 18H18.75C18.75 19.6569 17.4069 21 15.75 21H9Z" fill="black"/>
<path fill-rule="evenodd" clip-rule="evenodd" d="M31.5721 16.5595C30.3977 16.5595 29.2715 17.026 28.4411 17.8564L23.2189 23.0786C20.8205 25.477 19.119 28.4822 18.2963 31.7728L18.044 32.7822C17.7823 33.829 18.7305 34.7772 19.7773 34.5155L20.7867 34.2632C24.0773 33.4405 27.0825 31.739 29.4809 29.3406L34.7031 24.1184C35.5335 23.288 36 22.1618 36 20.9874C36 18.542 34.0176 16.5595 31.5721 16.5595ZM30.0713 22.4882C30.8707 23.2876 31.7974 23.6281 32.4848 23.5084L33.289 22.7043C33.7443 22.2489 34.0001 21.6314 34.0001 20.9874C34.0001 19.6465 32.913 18.5594 31.5721 18.5594C30.9281 18.5594 30.3106 18.8152 29.8552 19.2706L29.0511 20.0747C28.9314 20.7621 29.2719 21.6888 30.0713 22.4882Z" fill="#363853"/>
</mask>
<g mask="url(#mask0_100_23523)">
<path d="M0 0H36V36H0V0Z" fill="#E92B66"/>
</g>
</svg>
