<svg width="36" height="37" viewBox="0 0 36 37" fill="none" xmlns="http://www.w3.org/2000/svg">
<mask id="mask0_100_23538" style="mask-type:alpha" maskUnits="userSpaceOnUse" x="0" y="5" width="36" height="27">
<path fill-rule="evenodd" clip-rule="evenodd" d="M5.68421 5.23682C2.54491 5.23682 0 7.78173 0 10.921V31.7631H30.3158C33.4551 31.7631 36 29.2182 36 26.0789V5.23682H5.68421ZM13.7895 16.7102V9.97366H19.9741C21.4449 9.97366 22.9593 10.2667 23.9811 11.3246C24.7934 12.1657 25.5789 13.3996 25.5789 15.0263C25.5789 16.653 24.7934 17.8868 23.9811 18.728C22.9593 19.7859 21.4449 20.0789 19.9741 20.0789H18V21.7631H22.2105C22.2105 23.6235 20.7024 25.1316 18.8421 25.1316H18C18 26.5268 16.869 27.6579 15.4737 27.6579H13.7895V25.1316H10.4211V25.063C10.4211 23.2136 11.9405 21.7251 13.7895 21.7631V20.0789L10.4211 20.0096C10.4211 18.1604 11.9408 16.6722 13.7895 16.7102ZM19.6842 13.3421H18V16.7102L19.6842 16.7105C19.6842 16.7105 21.3685 16.7108 21.3685 15.0265C21.3685 13.3424 19.6842 13.3421 19.6842 13.3421Z" fill="black"/>
</mask>
<g mask="url(#mask0_100_23538)">
<path d="M36 0.5H0V36.5H36V0.5Z" fill="#E92B66"/>
</g>
</svg>
