<svg width="36" height="36" viewBox="0 0 36 36" fill="none" xmlns="http://www.w3.org/2000/svg">
<mask id="mask0_100_23463" style="mask-type:alpha" maskUnits="userSpaceOnUse" x="3" y="5" width="30" height="28">
<path fill-rule="evenodd" clip-rule="evenodd" d="M3 5.25V26.25C3 29.5637 5.68629 32.25 9 32.25H23.25V22.5H33V11.25C33 7.93629 30.3137 5.25 27 5.25H3ZM12 12C10.3431 12 9 13.3431 9 15H18.75C20.4069 15 21.75 13.6569 21.75 12H12ZM9 21C9 19.3431 10.3431 18 12 18H18.75C18.75 19.6569 17.4069 21 15.75 21H9Z" fill="#E92B66"/>
<path opacity="0.4" d="M33 22.5H23.25V32.25L33 22.5Z" fill="#E92B66"/>
</mask>
<g mask="url(#mask0_100_23463)">
<path d="M0 0H36V36H0V0Z" fill="#E92B66"/>
</g>
</svg>
