<svg width="330" height="76" viewBox="0 0 330 76" fill="none" xmlns="http://www.w3.org/2000/svg">
<g clip-path="url(#clip0_100_23352)">
<path fill-rule="evenodd" clip-rule="evenodd" d="M82.5154 35.5866L83.6 32.1084L80.0096 32.2228C79.7082 32.2228 77.5016 32.1568 75.3654 30.6058C75.526 30.619 75.6822 30.6432 75.8494 30.6432C78.0494 30.6432 80.1812 29.3144 81.0326 27.4136L82.577 23.9816C80.641 24.008 78.87 23.7638 78.87 23.7638C78.8546 23.7638 77.4598 23.5812 75.8472 21.929C74.69 20.7476 73.2578 20.1206 71.7068 20.1206C71.0928 20.123 70.4828 20.2202 69.8984 20.4088C69.9798 20.1316 70.0568 19.8478 70.103 19.5574C70.5936 16.3454 68.5322 13.899 68.5322 13.899L65.8328 10.5506L64.1586 14.4842C64.152 14.4974 63.7296 15.4214 62.975 15.8702C62.7462 14.713 62.1852 13.4128 60.9884 12.1698C58.729 9.82901 55.9812 9.47701 54.5424 9.47701C53.8758 9.47701 53.3984 9.55181 53.284 9.56941L50.0258 10.2118C50.2128 9.48361 50.6154 8.20981 51.3458 7.06801L53.1454 4.26301L48.62 4.78001L47.179 1.71321L44.3872 3.15421L41.8066 0.600006L39.2326 3.15201L36.4364 1.71321L34.9976 4.77781L30.4744 4.26081L32.2762 7.07021C33.0088 8.21201 33.407 9.47921 33.594 10.2074L30.4854 9.59141L30.3776 9.57601C29.9483 9.50837 29.5142 9.47526 29.0796 9.47701C27.6408 9.47701 24.893 9.82901 22.6402 12.1698C21.4412 13.4106 20.878 14.713 20.6492 15.8702C19.899 15.4236 19.4788 14.5172 19.4788 14.5172L17.8024 10.5572L15.059 13.932C14.7246 14.3654 13.0724 16.6666 13.519 19.564C13.5674 19.8522 13.6422 20.1338 13.7236 20.411C13.1409 20.2218 12.5323 20.1245 11.9196 20.1228C10.3664 20.1228 8.9342 20.7498 7.7748 21.9312C6.1688 23.5768 4.7806 23.7638 4.7916 23.7638C4.7916 23.7638 3.3242 24.0278 1.0516 23.9838L2.5894 27.4158C3.443 29.3166 5.577 30.6454 7.7726 30.6454C7.9398 30.6454 8.096 30.6212 8.2588 30.608C6.1248 32.1612 3.9204 32.225 3.6542 32.225L0 32.1084L1.1066 35.5844C1.6654 37.3796 3.5266 40.3474 7.0906 40.6664C6.7034 42.2944 5.8432 44.1204 3.9556 44.908L1.232 46.03L2.717 48.6216C3.5552 50.0186 5.5242 51.6532 8.3248 51.6532C8.9298 51.6532 9.515 51.5894 10.0804 51.4706C10.2234 52.1086 10.4038 52.7466 10.6172 53.3846C11.4488 55.8706 10.7316 57.6042 10.7228 57.624L9.3808 60.4444L12.3794 61.2364C12.4168 61.2496 13.3254 61.5004 14.4584 61.5004C14.9732 61.5004 15.466 61.4454 15.928 61.3354C16.2756 61.254 16.61 61.144 16.9334 61.0142C17.3228 61.7116 17.7936 62.3496 18.3436 62.9194C20.2664 64.8972 22.9944 65.8982 26.444 65.8982H26.455L28.919 65.8652L23.8282 67.986L27.6936 69.8582C29.0994 70.5446 30.7626 71.3542 32.461 71.9746L31.977 73.2968L33.308 73.9062C33.4268 73.9612 35.992 75.1074 40.249 75.3516C40.249 75.3516 41.2764 75.4 41.8418 75.4C42.4094 75.4 43.4258 75.3494 43.4258 75.3494C47.6542 75.0986 50.1974 73.9612 50.3162 73.9062L51.6516 73.2968L51.1654 71.9724C52.9078 71.3344 54.6348 70.4896 55.9834 69.8318L59.7762 67.9838L54.7008 65.8652L57.1758 65.8982C60.6298 65.8982 63.3578 64.895 65.2784 62.9172C65.8262 62.3496 66.2948 61.7138 66.6864 61.0142C67.4716 61.339 68.3139 61.5035 69.1636 61.4982C70.279 61.4982 71.1964 61.2518 71.2206 61.243L74.2346 60.4444L72.9212 57.6746C72.8904 57.6042 72.1732 55.8706 73.0048 53.3802C73.2182 52.7466 73.3964 52.1064 73.5416 51.4706C74.107 51.5894 74.6988 51.651 75.3082 51.6532C78.8766 51.6532 80.5882 49.1386 80.9182 48.593L82.39 46.0278L79.6664 44.908C77.7744 44.1226 76.9164 42.2966 76.5336 40.6708C80.0514 40.3628 81.9368 37.3928 82.5176 35.5888L82.5154 35.5866Z" fill="#FFFFFE"/>
<path fill-rule="evenodd" clip-rule="evenodd" d="M41.8041 11.2546C38.9221 11.2568 36.7595 12.2028 36.2887 13.3182L41.8041 15.4962L47.3217 13.3182C46.8553 12.2028 44.6927 11.2568 41.8041 11.2546ZM41.8635 68.9804H41.7535C40.0067 68.9914 37.5977 68.6328 36.4405 68.2918L35.0457 72.0736C35.9653 72.4014 39.0805 73.0306 41.8107 73.0306C44.5365 73.0306 47.6539 72.4014 48.5713 72.0736L47.1787 68.294C46.0149 68.6328 43.6103 68.9914 41.8635 68.9804ZM52.4169 65.2184C51.3785 65.808 49.0619 66.6924 47.7133 67.1016L48.8441 70.2256C50.9297 69.6536 52.6523 68.987 54.0735 68.272L51.7239 67.491L52.4169 65.2184ZM31.1979 65.2184L31.8931 67.491L29.5413 68.272C30.9603 68.987 32.6895 69.6536 34.7685 70.2234L35.9015 67.0994C34.5551 66.6902 32.2341 65.808 31.1979 65.2184ZM41.8041 7.63997C43.9799 7.63997 46.1095 8.16137 47.7507 9.07437C47.9003 8.57277 48.1093 7.96117 48.3931 7.32097L47.7727 7.39577L47.1237 7.46177L46.8487 6.86997L46.0171 5.11657L44.5079 5.90417L43.9183 6.20337L43.4475 5.74137L41.8041 4.11337L40.1651 5.74137L39.6965 6.20337L39.1091 5.90417L37.5911 5.11657L36.7705 6.86997L36.4911 7.46397L35.8399 7.39577L35.2239 7.32097C35.5077 7.96117 35.7145 8.57277 35.8663 9.07437C37.5119 8.16137 39.6393 7.63997 41.8041 7.63997ZM74.9911 27.9174C75.2749 28.0142 75.5609 28.0582 75.8447 28.0582C77.0767 28.0582 78.2647 27.2596 78.6717 26.3488C78.6717 26.3488 76.4167 26.2124 73.9923 23.7462C73.2223 22.9498 72.4039 22.71 71.7043 22.71C70.6153 22.71 69.7969 23.2842 69.7969 23.2842C72.7273 24.8462 73.3235 27.3542 74.9911 27.9174ZM7.77011 28.056C8.05611 28.056 8.34211 28.0142 8.61711 27.9152C10.2891 27.352 10.8919 24.8462 13.8157 23.2864C13.8157 23.2864 12.9973 22.71 11.9149 22.71C11.2109 22.71 10.3947 22.9476 9.62031 23.7484C7.19811 26.2124 4.94531 26.351 4.94531 26.351C5.35011 27.2596 6.54031 28.0582 7.77011 28.0582V28.056Z" fill="#FFFFFE"/>
<path fill-rule="evenodd" clip-rule="evenodd" d="M74.1106 45.909C71.8446 44.787 70.4146 41.817 70.067 40.7478C69.693 46.6394 66.822 50.727 63.467 54.6606C61.7246 56.7022 61.1174 58.6866 61.1174 58.6866C61.1174 58.6866 61.454 56.4382 62.9588 54.6078C66.0894 50.8414 69.0638 46.151 69.286 40.7258C69.4378 36.9418 68.4676 33.8728 66.9496 31.3428C67.7988 33.9762 67.6778 37.2036 64.798 40.2154C64.798 40.2154 70.5334 33.3338 62.5166 26.2762C59.309 23.5922 55.7978 21.9334 53.9916 20.7586C60.519 22.8926 63.709 20.543 63.709 20.543C61.6234 22.3536 58.924 22.3228 57.2498 22.061C57.7052 22.2832 58.1782 22.5164 58.6842 22.787C64.1908 25.7834 69.1364 30.7136 69.9812 37.538V37.4852C71.2594 44.1886 74.1106 45.909 74.1106 45.909ZM75.787 38.099C75.8376 38.1034 75.8816 38.1034 75.9322 38.1034C79.0012 38.1034 80.0396 34.81 80.0396 34.81H79.9802C79.417 34.81 74.8542 34.678 71.629 30.5706C69.5082 27.8712 67.768 25.4974 64.3316 24.5646L63.9928 24.503L63.9202 24.1576C63.8256 23.6318 64.1842 23.139 65.0026 22.6088C69.7436 19.498 66.5206 15.5292 66.5206 15.5292C66.5206 15.5292 65.1698 18.7016 62.1404 18.7016L61.9138 18.6972C61.5706 18.6796 61.2384 18.6686 60.904 18.596L60.3452 18.486C60.3452 18.486 61.2098 16.132 59.1242 13.9738C57.5556 12.3414 55.6438 12.0642 54.5416 12.0642C53.985 12.0642 53.633 12.1368 53.633 12.1368C54.6802 13.5074 55.437 15.7844 54.227 17.188C53.182 18.3936 50.63 18.453 50.63 20.2526C50.63 21.0138 51.3406 21.9026 52.6166 22.7012C56.4534 25.1212 60.2616 28.3332 61.8456 32.6386C63.8256 38.0066 61.5948 41.5706 58.4136 43.6144C58.4136 43.6144 59.4124 44.534 60.8578 44.6528C61.1526 44.6814 61.4408 44.6946 61.7092 44.6946C64.765 44.6946 66.3446 43.258 66.3446 43.258C66.3446 43.258 66.0828 45.2424 64.4966 47.0838C63.027 48.7822 61.102 49.7854 58.165 49.8272C58.165 49.8272 58.0726 51.1912 59.3728 52.3748C60.2066 53.1206 62.1272 53.3648 62.1272 53.3648C62.1272 53.3648 58.528 54.093 58.1298 59.4192C57.9142 62.3056 57.1794 63.3066 57.1794 63.3066H57.2432C65.5944 63.3066 65.381 56.1302 65.381 56.1302C65.381 56.1302 65.9618 58.2554 68.2916 58.8098C68.5732 58.8846 68.8746 58.9132 69.1606 58.9132C69.9086 58.9132 70.562 58.7372 70.562 58.7372C70.562 58.7372 69.341 56.1588 70.551 52.553C71.5564 49.5588 71.3936 47.3412 71.3936 47.3412C71.3936 47.3412 72.5178 49.0462 75.3096 49.0616H75.3382C75.9977 49.0718 76.6491 48.9154 77.232 48.607C77.815 48.2986 78.3108 47.8481 78.6734 47.2972C73.1052 44.9806 73.6552 37.5072 73.6552 37.5072C73.6552 37.5072 74.3768 38.0462 75.787 38.099ZM20.1512 54.6606C16.7962 50.727 13.9252 46.6394 13.5468 40.7478C13.2014 41.8192 11.7736 44.7892 9.50982 45.909C9.50982 45.909 12.3566 44.1886 13.6348 37.4852V37.538C14.4818 30.7136 19.4274 25.7834 24.934 22.7892C25.44 22.5142 25.9152 22.2832 26.3662 22.0632C24.6942 22.3228 21.9926 22.3536 19.9092 20.5452C19.9092 20.5452 23.0992 22.8926 29.6244 20.7586C27.8204 21.9334 24.3092 23.5922 21.1038 26.2762C13.0848 33.3338 18.8202 40.2154 18.8202 40.2154C15.9382 37.2014 15.8194 33.9784 16.6686 31.3428C15.1506 33.8728 14.1782 36.9418 14.3366 40.728C14.5544 46.151 17.5266 50.8414 20.6506 54.61C22.1642 56.436 22.5052 58.6844 22.5052 58.6844C22.5052 58.6844 21.8892 56.7022 20.1512 54.6606ZM21.4932 53.3626C21.4932 53.3626 23.4138 53.1206 24.2476 52.3726C25.5456 51.1912 25.4554 49.8272 25.4554 49.8272C22.5162 49.7854 20.5934 48.7822 19.1172 47.0838C17.5376 45.2424 17.2736 43.258 17.2736 43.258C17.2736 43.258 18.8532 44.6946 21.9046 44.6946C22.1796 44.6946 22.4656 44.6814 22.7582 44.6528C23.6611 44.5614 24.5153 44.1995 25.209 43.6144C22.0234 41.5706 19.7926 38.0066 21.7704 32.6364C23.3544 28.3354 27.1604 25.1212 31.0016 22.699C32.2754 21.9026 32.9838 21.0138 32.9838 20.2526C32.9838 18.453 30.4362 18.3936 29.3912 17.188C28.1812 15.7844 28.9402 13.5074 29.9852 12.1368C29.9852 12.1368 29.6354 12.0642 29.0766 12.0642C27.9766 12.0642 26.0648 12.3414 24.494 13.9738C22.404 16.1342 23.273 18.4882 23.273 18.4882L22.7142 18.5982C22.382 18.6664 22.0454 18.6796 21.7022 18.6994L21.4822 18.7016C18.4462 18.7016 17.0976 15.5314 17.0976 15.5314C17.0976 15.5314 13.879 19.498 18.62 22.6088C19.434 23.139 19.7926 23.634 19.698 24.1576L19.6254 24.5008L19.28 24.5624C15.8502 25.4974 14.11 27.8712 11.9848 30.5706C8.75962 34.678 4.20122 34.81 3.63582 34.81H3.57422C3.57422 34.81 4.61482 38.1034 7.68602 38.1034C7.73442 38.1034 7.77842 38.1034 7.83122 38.099C9.24142 38.0484 9.96522 37.5072 9.96522 37.5072C9.96522 37.5072 10.5108 44.9806 4.94482 47.2972C4.94482 47.2972 5.95902 49.0638 8.28222 49.0638H8.30862C11.1026 49.0462 12.2246 47.3412 12.2246 47.3412C12.2246 47.3412 12.0618 49.561 13.0628 52.553C14.2728 56.161 13.0584 58.735 13.0584 58.735C13.0584 58.735 13.7074 58.911 14.4576 58.911C14.748 58.911 15.045 58.8846 15.3244 58.8098C17.652 58.2554 18.235 56.1302 18.235 56.1302C18.235 56.1302 18.0216 63.3066 26.375 63.3066H26.4366C26.4366 63.3066 25.704 62.3056 25.4906 59.4192C25.0946 54.0952 21.491 53.3626 21.491 53.3626H21.4932ZM39.9226 26.9186H43.8606V28.2716C43.3986 27.704 42.4966 27.8206 42.4966 27.8206V29.772C42.4966 29.772 42.5274 30.7312 42.8662 31.147H40.917C41.258 30.7312 41.2866 29.772 41.2866 29.772V27.8206C41.2866 27.8206 40.389 27.704 39.9226 28.2716V26.9186ZM35.6326 27.121C35.769 27.2684 35.9032 27.429 36.033 27.5896C36.0638 27.627 36.0924 27.66 36.1232 27.704C36.2442 27.8624 36.3652 28.034 36.4818 28.2056L36.561 28.3222C36.6996 28.5334 36.8316 28.7512 36.9636 28.9778C38.1692 31.0612 40.0964 32.3064 41.8058 32.3086C43.5196 32.3064 45.4446 31.0612 46.6524 28.9778C46.7866 28.7468 46.9208 28.5224 47.0616 28.3112C47.2222 28.0651 47.394 27.8266 47.5764 27.5962C47.7106 27.429 47.8492 27.2662 47.99 27.1166C48.0142 27.0946 48.034 27.0704 48.0582 27.0506C48.6742 26.4214 49.4024 25.9418 50.3616 25.6756L49.9348 25.427H49.9128L48.2144 24.4414L46.4742 23.4404L41.819 25.9792L41.8058 25.9682L41.7992 25.9792L37.144 23.4404L35.4016 24.4414L33.7032 25.427H33.6834L33.2544 25.6756C34.2114 25.9396 34.9418 26.4148 35.5578 27.0462C35.5842 27.0682 35.6018 27.099 35.6326 27.121Z" fill="#FFFFFE"/>
<path fill-rule="evenodd" clip-rule="evenodd" d="M40.3235 18.3167V19.5927L40.0793 19.4783C40.0683 19.4695 39.7075 19.3903 39.0849 18.8931C38.0531 18.0923 38.0333 17.3531 38.0333 17.3531L40.3235 18.3167ZM41.4015 24.2941V16.3697L36.3679 14.6581L37.6967 22.3361L41.4015 24.2941ZM43.2935 18.3167L45.5815 17.3531C45.5815 17.3531 45.5639 18.0923 44.5277 18.8931C43.9051 19.3881 43.5465 19.4695 43.5355 19.4783L43.2935 19.5905V18.3167ZM45.9181 22.3383L47.2403 14.6603L42.2089 16.3697V24.2941L45.9181 22.3383ZM34.2823 42.6641C34.7729 42.8401 35.3669 42.8775 35.6727 42.8775C35.6837 42.84 35.7013 42.7939 35.7167 42.7367C35.7409 42.6487 35.7673 42.5563 35.7871 42.4595C35.8729 42.0195 35.9015 41.5245 35.9103 41.2033C35.6289 41.036 35.3997 40.7938 35.2481 40.5037C35.0611 40.1099 34.7949 39.9251 34.4055 39.9251C33.8995 39.9251 33.3561 40.2331 33.1207 40.3739C32.9359 41.4695 33.7433 42.4639 34.2823 42.6619V42.6641ZM45.4187 38.4599C44.4859 39.4785 42.6533 41.2539 42.5653 41.3419L42.4553 41.4519L36.6693 41.3617C36.6645 41.8403 36.6024 42.3167 36.4845 42.7807L36.4383 42.9633L43.3177 44.2041C44.0327 43.7025 46.0017 42.2615 46.7673 41.6961C46.2107 40.8821 46.1579 39.9163 46.2833 39.2387C45.953 39.03 45.6606 38.7666 45.4187 38.4599Z" fill="#FFFFFE"/>
<path fill-rule="evenodd" clip-rule="evenodd" d="M46.207 31.4902C44.8738 32.8146 43.5956 33.3052 42.4538 33.4196C42.2448 33.4423 42.0348 33.454 41.8246 33.4548H41.796C41.376 33.4548 40.9572 33.4105 40.5464 33.3228C40.4716 33.6198 40.377 34.2424 40.6476 34.832C40.8896 35.3666 41.3802 35.7648 42.0974 36.031L42.3394 36.1256L42.3416 36.3852C42.3416 36.4622 42.3988 38.1474 44.2336 38.616C44.5328 38.308 44.8056 38.0286 45.0036 37.7932C44.6296 36.911 44.8276 36.009 45.371 35.5668C45.349 35.6614 45.107 37.8724 46.878 38.6952L47.1706 38.8338L47.0826 39.144C47.054 39.2386 46.4644 41.3792 48.6094 42.1756L48.9878 42.3208L48.8184 42.6882C48.781 42.7696 47.9406 44.7122 49.9206 45.8166H54.2128V42.4C52.686 42.213 52.0414 40.9832 51.8742 40.112C51.1636 39.991 50.6158 39.6852 50.2396 39.1858C49.3376 37.9978 50.112 36.9088 50.123 36.8494C50.1208 36.8582 50.123 38.0154 50.8358 38.7326C51.19 39.0758 51.608 39.3442 52.2438 39.4036L52.554 39.4322L52.5804 39.7512C52.587 39.8194 52.7564 41.388 54.2128 41.6344L54.2106 34.6604C54.2106 33.578 54.5252 32.4912 54.9036 31.488H46.207V31.4902ZM34.6504 34.6868L34.536 39.1264L35.042 39.2056L36.274 34.9442L35.647 33.633L34.6526 34.6868H34.6504ZM37.3212 51.1296C37.2874 51.1286 37.2541 51.1206 37.2235 51.1062C37.1928 51.0919 37.1654 51.0714 37.143 51.046C37.1205 51.0207 37.1035 50.991 37.0929 50.9589C37.0823 50.9267 37.0784 50.8928 37.0814 50.859C37.0833 50.8257 37.0919 50.7931 37.1067 50.7631C37.1214 50.7331 37.142 50.7063 37.1672 50.6844C37.1924 50.6625 37.2217 50.6458 37.2535 50.6354C37.2852 50.6249 37.3187 50.6209 37.352 50.6236C37.4972 50.6302 37.5984 50.7556 37.594 50.892C37.5889 50.9596 37.5574 51.0224 37.5064 51.0668C37.4553 51.1113 37.3888 51.1339 37.3212 51.1296ZM48.2376 55.061C48.275 55.061 48.319 55.0654 48.3586 55.0764C49.1286 55.2964 49.32 58.064 50.6642 58.3104C50.7962 58.339 50.9194 58.3456 51.025 58.3456C51.4144 58.3456 51.6454 58.1806 51.8962 57.8836C51.8962 57.8836 51.2186 56.821 50.7126 56.1016C50.0416 55.16 49.5202 54.0226 48.2684 54.0226C48.2376 54.0226 48.2024 54.0226 48.1694 54.027C47.931 54.0366 47.7004 54.1145 47.505 54.2514C47.0872 53.975 46.598 53.826 46.097 53.8224C45.316 53.8224 44.7044 54.1832 44.3986 54.1832H44.3876L41.5936 53.906C41.1558 53.862 40.8104 53.422 40.685 53.2504L40.6366 53.1756C40.6366 53.0986 40.6366 53.0216 40.6322 52.9534C40.5376 50.6632 38.7688 49.6842 38.1374 49.6666C38.1374 49.6666 38.2122 49.231 38.0428 49.066L37.4268 49.814L35.4028 48.7976L36.846 50.4872L35.625 51.8622C35.471 52.0184 35.4908 52.2296 35.5546 52.3198L36.0826 52.7862L36.7514 52.3792C36.7844 52.355 36.846 52.3462 36.9208 52.3462C37.1056 52.3462 37.3828 52.3946 37.6314 52.3946C37.9064 52.3946 38.1418 52.3374 38.1704 52.08C38.0868 52.9292 37.2992 54.4054 37.8162 55.5648L38.199 56.4404L35.7284 56.084L34.5712 58.0398C34.2148 58.691 34.1576 59.395 34.5008 59.7778L34.9342 60.3212C34.9342 60.3212 35.5414 59.6766 35.6756 59.252L35.4798 59.0364C35.3148 58.8538 35.3236 58.691 35.4248 58.4952L36.1508 57.2896L39.0658 57.9782L39.2198 57.7142C39.4178 57.3842 39.7038 57.2874 40.0162 57.2874C40.146 57.2874 40.278 57.3028 40.4144 57.3248C40.9556 57.4326 41.8466 57.5756 42.7376 57.5756C43.7166 57.5756 44.6868 57.3996 45.2038 56.821C46.2598 58.3896 48.4026 58.6382 48.2332 59.4368L47.67 62.1252C48.044 62.1076 48.4026 62.0834 48.7436 62.0372L49.2804 59.241C49.3239 59.0036 49.3621 58.7652 49.3948 58.526C49.188 58.3148 48.6886 57.8726 48.4048 57.3336C48.0286 56.6054 48.2332 56.2248 47.8812 55.2788C47.8812 55.2788 47.9912 55.061 48.2376 55.061Z" fill="#FFFFFE"/>
<path fill-rule="evenodd" clip-rule="evenodd" d="M33.3348 57.602C33.3348 57.602 34.3028 57.206 34.3908 56.92L34.2588 56.5988C34.1686 56.3876 34.1796 56.1588 34.3578 56.0356L35.4006 55.3118L37.1452 55.6484C37.1452 55.6484 36.8284 55.2524 36.8592 54.7244L35.196 54.3724L33.6252 55.3294C33.3511 55.5326 33.153 55.8218 33.0625 56.1508C32.972 56.4797 32.9943 56.8295 33.1258 57.1444L33.3348 57.602ZM45.6702 62.1604C45.9804 62.1472 46.328 62.1428 46.7042 62.1428C46.7042 62.1428 47.6018 59.5138 47.6524 59.4302C46.9858 59.1192 46.3352 58.7748 45.7032 58.3984C45.9694 58.7988 46.6162 59.2542 46.4886 59.6062L45.6702 62.1604Z" fill="#FFFFFE"/>
<path fill-rule="evenodd" clip-rule="evenodd" d="M54.2143 46.569H29.4093V55.9168C29.4093 59.7404 32.1703 62.1318 36.2469 62.1318C39.6503 62.1318 40.5479 62.2638 41.8129 63.5244C42.6863 62.651 43.4079 62.3276 44.8929 62.2044L44.9259 62.0614L45.7069 59.6392C45.6629 59.5842 44.3869 58.13 44.3869 58.13C43.8809 58.2994 43.4541 58.328 42.7369 58.328C42.0043 58.328 41.1749 58.24 40.2751 58.0728C40.1908 58.0528 40.1044 58.0424 40.0177 58.042C39.9077 58.042 39.9011 58.0508 39.8703 58.1058L39.7163 58.3632L39.4303 58.834L38.8957 58.7086L36.5153 58.1476L36.1875 58.6866L36.2381 58.746L36.5263 59.065L36.3987 59.483C36.2227 60.0264 35.6551 60.6622 35.4813 60.8382L34.8873 61.4762L34.3439 60.792L33.9369 60.2794C33.5079 59.7998 33.4089 59.065 33.6509 58.295C33.6438 58.3001 33.6354 58.3032 33.6267 58.3038L32.9557 58.5832L32.6543 57.9232L32.4409 57.459C32.236 56.984 32.1992 56.4535 32.3363 55.9547C32.4735 55.456 32.7766 55.0189 33.1955 54.7156L35.1095 53.631L36.9355 53.9896C36.9795 53.8136 37.0455 53.1888 37.0961 53.0282C37.0609 53.0238 37.0279 53.0172 36.9927 53.0172L35.9411 53.4088L34.9291 52.7092C34.9291 52.7092 34.5331 52.3264 34.8917 51.9436L35.8707 50.4542L33.3847 47.3302L37.2061 48.901L37.4613 48.5864L37.9761 47.966L38.5613 48.5248C38.7152 48.6752 38.8222 48.867 38.8693 49.077C39.9209 49.4884 41.8085 50.7006 41.9757 52.6718L41.3861 52.9072V52.9226C41.5203 53.0832 41.6325 53.1492 41.6677 53.1558L44.3957 53.4242C44.4661 53.411 44.5497 53.3802 44.6465 53.3538C44.9875 53.2372 45.4957 53.0678 46.0985 53.0678C46.5913 53.0678 47.0665 53.1822 47.5219 53.3978C47.6913 53.3318 47.8959 53.2856 48.1379 53.2702L48.2699 53.2658C49.7285 53.2658 50.4545 54.3592 51.0375 55.2326C51.1343 55.3844 51.2311 55.5252 51.3323 55.666C51.8427 56.3876 52.5093 57.4414 52.5357 57.4876L52.8371 57.9562L52.4675 58.3874C52.1859 58.7174 51.7569 59.1024 51.0265 59.1024C50.861 59.101 50.696 59.084 50.5337 59.0518C50.384 59.0231 50.238 58.9781 50.0981 58.9176C50.0757 59.0728 50.05 59.2276 50.0211 59.3818L49.5437 61.8832C52.4037 61.1792 54.2209 59.0144 54.2209 55.9168L54.2143 46.569ZM29.4093 45.8166H48.7033C47.7397 44.8178 47.7551 43.5572 47.9993 42.7366C47.739 42.6116 47.497 42.4517 47.2799 42.2614C46.5253 42.818 44.2241 44.4966 43.6235 44.919L43.4937 45.007L35.9213 43.6342H35.7673C35.5869 43.6342 35.3207 43.6276 35.0303 43.5902C34.9992 43.7292 34.9285 43.8563 34.8267 43.956C34.7249 44.0557 34.5964 44.1237 34.4567 44.1519C34.3171 44.1801 34.1722 44.1671 34.0398 44.1147C33.9073 44.0622 33.7928 43.9725 33.7103 43.8564C33.6523 43.7771 33.6108 43.687 33.5881 43.5914C33.5654 43.4958 33.5621 43.3967 33.5783 43.2998L33.6069 43.1348C32.8281 42.5848 32.1043 41.3528 32.4255 40.0548L32.4563 39.9184L32.5663 39.8392C32.6773 39.7634 32.7918 39.6929 32.9095 39.628L32.3595 39.54C32.2618 39.5232 32.1745 39.469 32.1162 39.3889C32.0579 39.3088 32.0331 39.2091 32.0471 39.111C32.0823 38.9042 32.2737 38.759 32.4783 38.7964L33.7873 39.0032L33.9083 34.381L35.8575 32.313L37.0763 34.8804L35.7915 39.3288L36.9487 39.5114C37.0475 39.5276 37.1359 39.5823 37.1945 39.6635C37.253 39.7448 37.277 39.8459 37.2611 39.9448C37.2469 40.0324 37.2019 40.112 37.1341 40.1693C37.0663 40.2266 36.9803 40.2578 36.8915 40.2572L36.8321 40.255L35.8883 40.101C35.9015 40.1318 35.9191 40.1472 35.9323 40.178C36.0374 40.3601 36.1954 40.506 36.3855 40.596L42.1561 40.6906C42.4003 40.4508 43.0053 39.8568 43.6301 39.2276C43.0863 39.028 42.6088 38.6808 42.2513 38.2249C41.8938 37.7691 41.6704 37.2227 41.6061 36.647C40.8141 36.3082 40.2641 35.8022 39.9605 35.1422C39.5909 34.3238 39.7229 33.5054 39.8219 33.1072C39.0519 32.8278 38.2423 32.313 37.4151 31.4902H28.7207C29.0947 32.4934 29.4093 33.5802 29.4093 34.6604V45.8166Z" fill="#FFE52B"/>
<path fill-rule="evenodd" clip-rule="evenodd" d="M37.3495 50.6236C37.316 50.6209 37.2823 50.625 37.2504 50.6355C37.2185 50.6461 37.1891 50.663 37.1639 50.6851C37.1386 50.7073 37.1181 50.7343 37.1035 50.7645C37.0889 50.7948 37.0805 50.8276 37.0789 50.8612C37.0762 50.8947 37.0803 50.9285 37.091 50.9604C37.1018 50.9923 37.1188 51.0217 37.1413 51.0467C37.1637 51.0718 37.191 51.0921 37.2215 51.1064C37.252 51.1206 37.285 51.1285 37.3187 51.1296C37.3859 51.1339 37.4521 51.1116 37.5031 51.0676C37.5541 51.0236 37.5858 50.9613 37.5915 50.8942C37.5951 50.8263 37.5716 50.7597 37.5263 50.709C37.4809 50.6583 37.4174 50.6276 37.3495 50.6236ZM48.8467 70.2256L47.7137 67.1016C49.0623 66.6902 51.3789 65.8058 52.4195 65.2184L51.7265 67.491L54.0739 68.272C52.6527 68.9848 50.9323 69.6514 48.8467 70.2234V70.2256ZM41.8111 73.0306C39.0809 73.0306 35.9657 72.4014 35.0461 72.0736L36.4409 68.294C37.5981 68.6328 40.0049 68.9914 41.7539 68.9804H41.8639C43.6107 68.9914 46.0153 68.6306 47.1791 68.294L48.5717 72.0736C47.6521 72.4036 44.5369 73.0306 41.8111 73.0306ZM29.5439 68.272L31.8935 67.491L31.1983 65.2184C32.2345 65.8058 34.5577 66.6924 35.9019 67.1016L34.7689 70.2256C32.6899 69.6536 30.9629 68.9848 29.5439 68.272ZM54.1795 67.579L52.7495 67.029L53.1455 65.5506L53.5789 63.938C53.5789 63.938 51.0489 65.3152 47.4783 66.347C46.4663 66.6374 45.7007 66.7716 45.7007 66.7716V67.8694C45.7007 67.8694 43.7911 68.1994 41.8639 68.1994H41.7539C39.8223 68.1994 37.9171 67.8694 37.9171 67.8694V66.7694C37.9171 66.7694 37.1493 66.6374 36.1373 66.347C32.5711 65.313 30.0411 63.938 30.0411 63.938L30.4679 65.5506L30.8727 67.029L29.4383 67.579L27.8477 68.173C29.6693 69.0552 32.1949 70.3378 34.5049 70.9714L33.9615 72.463C33.9615 72.463 36.8919 73.8006 41.7737 73.8138L41.8397 73.816C46.7281 73.8028 49.6585 72.463 49.6585 72.463L49.1085 70.9714C51.4207 70.3378 53.9507 69.0574 55.7635 68.173L54.1795 67.579ZM35.8425 7.39359L36.4915 7.46398L36.7709 6.86999L37.5893 5.11659L39.1073 5.90419L39.6969 6.20559L41.8045 4.11119L43.4479 5.73919L43.9187 6.20559L44.5083 5.90419L46.0175 5.11659L46.8491 6.86999L47.1241 7.46398L47.7731 7.39359L48.3935 7.32099C48.1097 7.96119 47.9007 8.57059 47.7489 9.07659C46.1099 8.15919 43.9803 7.63999 41.8067 7.63999C39.6419 7.63999 37.5123 8.15919 35.8667 9.07659C35.6892 8.47862 35.4746 7.89229 35.2243 7.32099L35.8425 7.39359ZM41.8045 8.55299C44.7151 8.55299 47.0405 9.52099 48.3275 10.5484C48.3275 10.5484 48.7103 8.24499 50.0127 6.21439L47.6697 6.47839L46.4443 3.87139L44.0903 5.08799L41.8045 2.82639L39.5275 5.08799L37.1691 3.87139L35.9459 6.48059L33.6029 6.21219C34.9075 8.24499 35.2881 10.5462 35.2881 10.5462C36.5817 9.51879 38.9005 8.55299 41.8045 8.55299ZM78.6721 47.2972C78.6721 47.2972 77.6601 49.0638 75.3369 49.0638H75.3083C72.5187 49.0462 71.3923 47.3412 71.3923 47.3412C71.3923 47.3412 71.5551 49.5588 70.5519 52.553C69.3419 56.161 70.5607 58.735 70.5607 58.735C70.5607 58.735 69.9095 58.9132 69.1593 58.9132C68.8733 58.9132 68.5741 58.8846 68.2903 58.8098C65.9605 58.2576 65.3797 56.1324 65.3797 56.1324C65.3797 56.1324 65.5953 63.3066 57.2419 63.3066H57.1759C57.1759 63.3066 57.9129 62.3056 58.1307 59.4192C58.5267 54.0952 62.1259 53.3626 62.1259 53.3626C62.1259 53.3626 60.2053 53.1206 59.3715 52.3748C58.0713 51.1934 58.1615 49.8272 58.1615 49.8272C61.1007 49.7854 63.0279 48.7844 64.4953 47.0838C65.4409 45.9958 66.0788 44.675 66.3433 43.258C66.3433 43.258 64.7637 44.6946 61.7079 44.6946C61.4395 44.6946 61.1535 44.6814 60.8587 44.6528C59.4111 44.5362 58.4123 43.6144 58.4123 43.6144C61.5935 41.5706 63.8243 38.0044 61.8465 32.6364C60.2625 28.3354 56.4521 25.1212 52.6175 22.7012C51.3415 21.9026 50.6287 21.0138 50.6287 20.2504C50.6287 18.453 53.1807 18.3958 54.2279 17.188C55.4379 15.7844 54.6789 13.5074 53.6317 12.1368C53.6317 12.1368 53.9837 12.0642 54.5403 12.0642C55.6447 12.0642 57.5543 12.3414 59.1251 13.9738C61.2085 16.1342 60.3439 18.4882 60.3439 18.4882L60.9027 18.5982C61.2371 18.6664 61.5693 18.6818 61.9147 18.6994L62.1391 18.7016C65.1685 18.7016 66.5215 15.5292 66.5215 15.5292C66.5215 15.5292 69.7423 19.498 65.0013 22.6088C64.1851 23.139 63.8243 23.634 63.9189 24.1576L63.9937 24.503L64.3303 24.5624C67.7667 25.4974 69.5069 27.8734 71.6299 30.5706C74.8551 34.678 79.4179 34.81 79.9789 34.81H80.0405C80.0405 34.81 78.9999 38.1034 75.9309 38.1034C75.8803 38.1034 75.8363 38.1034 75.7857 38.099C74.3777 38.0484 73.6517 37.5072 73.6517 37.5072C73.6517 37.5072 73.1039 44.9806 78.6721 47.2972ZM75.9309 39.111C79.6929 39.111 80.9513 35.2764 81.0041 35.1136L81.4221 33.7606L80.0141 33.8046H80.0097C79.5103 33.8046 75.3611 33.6946 72.4197 29.948L72.1403 29.6004C70.2175 27.1518 68.3937 24.822 65.1333 23.7594C65.2636 23.6453 65.4026 23.5416 65.5491 23.4492C67.2783 22.3096 68.2859 20.9258 68.5367 19.3176C68.9085 16.8998 67.3663 14.9726 67.3003 14.8934L66.2531 13.5954L65.5975 15.1354C65.5535 15.23 64.4535 17.694 62.1391 17.694H61.9675C61.8091 17.6874 61.6573 17.6808 61.5077 17.6676C61.5891 16.5676 61.3889 14.8692 59.8489 13.272C57.9987 11.3514 55.7283 11.0632 54.5403 11.0632C53.9067 11.0632 53.4843 11.1424 53.4381 11.1468L51.8563 11.4614L52.8309 12.7484C53.5965 13.7428 54.2917 15.5754 53.4689 16.5324C53.2049 16.8404 52.6637 17.0846 52.1467 17.3332C51.0819 17.8238 49.6255 18.5102 49.6255 20.2504C49.6255 21.3768 50.4989 22.5582 52.0829 23.5592C56.7645 26.5094 59.6553 29.5894 60.9027 32.9884C62.8343 38.2156 60.3153 41.1988 57.8667 42.7696L56.7711 43.4758L57.7325 44.3602C57.8623 44.4746 59.0349 45.5108 60.7707 45.6604C61.1007 45.6824 61.4153 45.7 61.7101 45.7C62.8211 45.7 63.7693 45.524 64.5393 45.2908C64.3091 45.6925 64.0409 46.0711 63.7385 46.4216C62.3415 48.0452 60.6211 48.7844 58.1461 48.824L57.2265 48.8372L57.1561 49.7612C57.1473 49.9482 57.0791 51.662 58.6961 53.1184C58.9447 53.3428 59.2439 53.5298 59.5585 53.6794C58.4585 54.6694 57.3453 56.3942 57.1297 59.3466C56.9471 61.8106 56.3597 62.7236 56.3531 62.7346L55.3367 64.2878L57.1737 64.312C60.2075 64.312 62.5307 63.476 64.1389 61.8128C64.9718 60.9392 65.5935 59.8863 65.9561 58.735C66.8494 59.4967 67.9852 59.9149 69.1593 59.9142C70.0173 59.9142 70.7345 59.7316 70.8137 59.714L71.9863 59.4016L71.4693 58.306C71.4297 58.218 70.4529 56.018 71.5045 52.8786C71.9577 51.5212 72.1887 50.3068 72.3009 49.3586C73.0401 49.7458 74.0279 50.0626 75.3061 50.067C78.2101 50.067 79.4883 47.8956 79.5455 47.8054L80.1175 46.8066L79.0571 46.371C75.5987 44.9322 74.8331 41.069 74.6791 38.979C74.9937 39.0384 75.3501 39.0934 75.7527 39.1044L75.9309 39.111Z" fill="#1A1919"/>
<path fill-rule="evenodd" clip-rule="evenodd" d="M71.7075 22.71C72.4071 22.71 73.2255 22.9498 73.9955 23.7484C76.4199 26.2124 78.6749 26.351 78.6749 26.351C78.2657 27.2596 77.0777 28.0582 75.8479 28.0582C75.5641 28.0582 75.2759 28.0142 74.9965 27.9152C73.3267 27.352 72.7305 24.8462 69.8023 23.2864C69.8023 23.2864 70.6163 22.71 71.7075 22.71ZM69.3249 24.1752C70.7263 24.9232 71.5447 25.9286 72.2619 26.8174C72.9659 27.6864 73.6325 28.5224 74.6819 28.87C75.0515 28.9976 75.4453 29.0592 75.8479 29.0592C77.4165 29.0592 78.9939 28.0956 79.5923 26.7624L80.1929 25.4292L78.7387 25.3412C78.6705 25.3412 76.7983 25.1674 74.7171 23.0378C73.8591 22.1622 72.8229 21.7046 71.7075 21.7046C70.3435 21.7046 69.3315 22.3866 69.2215 22.457L67.8839 23.4008L69.3249 24.1752ZM69.9827 37.4874V37.538C69.1379 30.7136 64.1923 25.7856 58.6857 22.7892C58.1797 22.5164 57.7067 22.2832 57.2513 22.0632C58.9255 22.3228 61.6249 22.3536 63.7105 20.5452C63.7105 20.5452 60.5205 22.8926 53.9931 20.7586C55.7971 21.9334 59.3105 23.5922 62.5181 26.2762C70.5327 33.3338 64.7995 40.2154 64.7995 40.2154C67.6815 37.2036 67.8003 33.9784 66.9511 31.3428C68.4691 33.8728 69.4371 36.9418 69.2875 40.728C69.0675 46.151 66.0909 50.8414 62.9603 54.61C61.4555 56.436 61.1211 58.6844 61.1211 58.6844C61.1211 58.6844 61.7283 56.7022 63.4685 54.6628C66.8235 50.7248 69.6945 46.6394 70.0685 40.7478C70.4161 41.8192 71.8461 44.7892 74.1121 45.909C74.1121 45.909 71.2631 44.1886 69.9827 37.4874ZM26.3787 63.3066C18.0253 63.3066 18.2387 56.1324 18.2387 56.1324C18.2387 56.1324 17.6535 58.2576 15.3281 58.8098C15.044 58.8813 14.752 58.9161 14.4591 58.9132C13.7111 58.9132 13.0599 58.7372 13.0599 58.7372C13.0599 58.7372 14.2765 56.1588 13.0643 52.553C12.0655 49.561 12.2283 47.3412 12.2283 47.3412C12.2283 47.3412 11.1041 49.0462 8.3123 49.0638H8.2837C5.9627 49.0638 4.9485 47.2972 4.9485 47.2972C10.5145 44.9806 9.9689 37.5072 9.9689 37.5072C9.9689 37.5072 9.2429 38.0484 7.8349 38.1012H7.6875C4.6163 38.1012 3.5757 34.81 3.5757 34.81H3.6395C4.2071 34.81 8.7633 34.678 11.9863 30.5706C14.1093 27.8712 15.8517 25.4974 19.2815 24.5646L19.6269 24.503L19.6995 24.1576C19.7963 23.634 19.4355 23.139 18.6215 22.6088C13.8805 19.498 17.0991 15.5314 17.0991 15.5314C17.0991 15.5314 18.4455 18.7016 21.4837 18.7016L21.7037 18.6994C22.0469 18.6818 22.3835 18.6664 22.7157 18.596L23.2745 18.4882C23.2745 18.4882 22.4077 16.1342 24.4977 13.9738C26.0685 12.3414 27.9759 12.0642 29.0781 12.0642C29.6391 12.0642 29.9845 12.1368 29.9845 12.1368C28.9417 13.5074 28.1849 15.7844 29.3905 17.188C30.4377 18.3958 32.9875 18.453 32.9875 20.2504C32.9875 21.0138 32.2769 21.9026 31.0031 22.7012C27.1641 25.1212 23.3559 28.3332 21.7719 32.6386C19.7963 38.0066 22.0271 41.5706 25.2105 43.6166C25.2105 43.6166 24.2095 44.5362 22.7619 44.6528C22.4782 44.6802 22.1933 44.6941 21.9083 44.6946C18.8547 44.6946 17.2751 43.2602 17.2751 43.2602C17.2751 43.2602 17.5391 45.2424 19.1187 47.086C20.5927 48.7844 22.5177 49.7854 25.4547 49.8272C25.4547 49.8272 25.5493 51.1912 24.2491 52.3748C23.4153 53.1228 21.4947 53.3648 21.4947 53.3648C21.4947 53.3648 25.0961 54.0952 25.4921 59.4192C25.7077 62.3056 26.4381 63.3066 26.4381 63.3066H26.3787ZM27.2653 62.7346C27.2631 62.7236 26.6801 61.8106 26.4931 59.3466C26.2731 56.3942 25.1599 54.6694 24.0577 53.6794C24.3767 53.5298 24.6737 53.3428 24.9201 53.1184C26.5371 51.662 26.4689 49.9504 26.4579 49.7612L26.3963 48.8372L25.4701 48.824C23.0017 48.7844 21.2791 48.0452 19.8821 46.4216C19.581 46.0701 19.3129 45.6916 19.0813 45.2908C19.8513 45.5262 20.7929 45.7 21.9083 45.7C22.2053 45.7 22.5177 45.6824 22.8455 45.6604C23.9684 45.5483 25.0301 45.0954 25.8881 44.3624L26.8495 43.4758L25.7539 42.7718C23.2987 41.1988 20.7885 38.2178 22.7179 32.9884C23.9653 29.5894 26.8495 26.5116 31.5399 23.5592C33.1239 22.5582 33.9907 21.3768 33.9907 20.2504C33.9907 18.5102 32.5387 17.8238 31.4739 17.3332C30.9547 17.0846 30.4135 16.8382 30.1517 16.5324C29.3267 15.5754 30.0197 13.7428 30.7875 12.7484L31.7687 11.4614L30.1781 11.1468C30.1341 11.1402 29.7161 11.0632 29.0781 11.0632C27.8923 11.0632 25.6241 11.3514 23.7761 13.272C22.2339 14.8692 22.0315 16.5698 22.1107 17.6676C21.9611 17.6808 21.8115 17.6874 21.6531 17.694H21.4837C19.1605 17.694 18.0649 15.23 18.0231 15.1354L17.3697 13.5954L16.3137 14.8934C16.2543 14.9726 14.7077 16.8998 15.0861 19.3176C15.3347 20.9236 16.3423 22.3096 18.0715 23.4492C18.2607 23.5702 18.3905 23.6736 18.4851 23.7594C15.2203 24.822 13.4009 27.1518 11.4781 29.6004L11.2009 29.948C8.2617 33.6946 4.1015 33.8068 3.6043 33.8068L2.1875 33.7628L2.6187 35.1136C2.6693 35.2764 3.9233 39.111 7.6875 39.111L7.8679 39.1044C8.2661 39.0934 8.6247 39.0384 8.9415 38.9768C8.7875 41.0668 8.0175 44.9322 4.5591 46.3688L3.5031 46.8088L4.0751 47.8054C4.1279 47.8956 5.4127 50.067 8.3211 50.067C9.36206 50.0774 10.3901 49.8359 11.3175 49.363C11.4297 50.309 11.6629 51.5212 12.1161 52.8786C13.1677 56.0158 12.1887 58.218 12.1513 58.306L11.6321 59.4016L12.8047 59.7118C12.8839 59.7338 13.6055 59.9142 14.4591 59.9142C15.6336 59.9173 16.7701 59.4988 17.6623 58.735C17.9813 59.7184 18.5291 60.8294 19.4773 61.8128C21.0921 63.4738 23.4131 64.312 26.4447 64.312L28.2817 64.2878L27.2653 62.7346Z" fill="#1A1919"/>
<path fill-rule="evenodd" clip-rule="evenodd" d="M9.62219 23.7484C10.3966 22.9498 11.2128 22.7078 11.9168 22.7078C12.9992 22.7078 13.8198 23.2864 13.8198 23.2864C10.8938 24.8484 10.291 27.352 8.61899 27.9174C8.34669 28.0118 8.06018 28.0587 7.77199 28.056C6.54219 28.056 5.35199 27.2596 4.94719 26.351C4.94719 26.351 7.19999 26.2124 9.62219 23.7484ZM7.77199 29.0592C8.17459 29.0592 8.56839 28.9976 8.94239 28.87C9.98959 28.5224 10.6584 27.6886 11.3624 26.8174C12.0818 25.9308 12.8914 24.9254 14.295 24.1774L15.7382 23.4008L14.3962 22.4548C14.2862 22.3866 13.2808 21.7068 11.9168 21.7068C10.7992 21.7068 9.76079 22.1622 8.90499 23.0378C6.82159 25.1696 4.95379 25.3412 4.88559 25.3434L3.43359 25.4292L4.02759 26.7646C4.63039 28.0956 6.20559 29.0592 7.77199 29.0592ZM14.3346 40.728C14.1806 36.9418 15.1486 33.8728 16.6666 31.3428C15.8218 33.9784 15.9362 37.2036 18.8226 40.2176C18.8226 40.2176 13.085 33.3316 21.104 26.2784C24.3116 23.5922 27.8206 21.9334 29.6246 20.7586C23.0994 22.8926 19.9116 20.543 19.9116 20.543C21.995 22.3536 24.6944 22.325 26.3686 22.061C25.9154 22.2832 25.4402 22.5142 24.9342 22.7892C19.4276 25.7834 14.4842 30.7136 13.635 37.538V37.4874C12.3568 44.1886 9.50999 45.909 9.50999 45.909C11.776 44.787 13.2016 41.817 13.5492 40.7478C13.9276 46.6394 16.7964 50.727 20.1492 54.6628C21.8916 56.7022 22.5032 58.6844 22.5032 58.6844C22.5032 58.6844 22.1644 56.4382 20.653 54.61C17.529 50.8414 14.5546 46.151 14.3346 40.728ZM39.9228 26.9186V28.2738C40.3892 27.704 41.2868 27.8206 41.2868 27.8206V29.772C41.2868 29.772 41.2582 30.7312 40.9172 31.147H42.8664C42.5276 30.7312 42.4946 29.772 42.4946 29.772V27.8206C42.4946 27.8206 43.3966 27.704 43.8586 28.2738V26.9186H39.9228ZM39.0868 18.893C39.7094 19.388 40.0702 19.4716 40.0812 19.4782L40.3232 19.5904V18.3166L38.0352 17.353C38.0352 17.353 38.055 18.0922 39.0868 18.893ZM44.5296 18.893C45.5636 18.0922 45.5856 17.353 45.5856 17.353L43.2954 18.3166V19.5926L43.5374 19.4782C43.5484 19.4716 43.907 19.388 44.5296 18.893Z" fill="#1A1919"/>
<path fill-rule="evenodd" clip-rule="evenodd" d="M41.8086 15.4984L36.2932 13.316C36.7618 12.2028 38.9244 11.2568 41.8086 11.2546C44.695 11.2568 46.8576 12.2028 47.3262 13.316L41.8086 15.4984ZM45.9204 22.3382L42.2134 24.2962V16.3674L47.2448 14.6558L45.9204 22.3338V22.3382ZM48.2172 24.4414L49.9112 25.427H49.9354L50.3622 25.6756C49.4052 25.9396 48.6726 26.4214 48.0588 27.0506L47.9928 27.1166C47.8481 27.2711 47.7094 27.4311 47.577 27.5962L47.5 27.6974C47.368 27.8668 47.2426 28.0406 47.126 28.221L47.0622 28.3112C46.9196 28.5291 46.7838 28.7514 46.6552 28.9778C45.4452 31.0612 43.5202 32.3064 41.8086 32.3108C40.097 32.3064 38.1698 31.0612 36.9642 28.9778C36.8361 28.7557 36.7018 28.537 36.5616 28.3222L36.4824 28.2056C36.3675 28.0357 36.2486 27.8685 36.126 27.704C36.0952 27.66 36.0666 27.627 36.0358 27.5896C35.9067 27.4292 35.7724 27.2729 35.6332 27.121C35.6046 27.099 35.5848 27.0704 35.5584 27.0462C34.9299 26.388 34.1334 25.9141 33.255 25.6756L33.6862 25.427H33.7038L35.4044 24.4414L37.1446 23.4404L41.7998 25.9792L41.8086 25.9704L41.8218 25.9792L46.4748 23.4404L48.2172 24.4414ZM54.9052 31.4902C54.5246 32.4934 54.21 33.5802 54.21 34.6604L54.2144 41.6344C52.7602 41.3924 52.5864 39.8216 52.582 39.7534L52.5556 39.4344L52.241 39.4058C51.7075 39.3588 51.209 39.1205 50.8374 38.7348C50.1224 38.0198 50.1224 36.8626 50.1224 36.8516C50.1136 36.911 49.3392 37.9956 50.2368 39.1836C50.6152 39.6852 51.1652 39.9954 51.8736 40.1164C52.0408 40.9854 52.6876 42.2152 54.2144 42.4044V45.8144H49.9222C47.9422 44.7122 48.7804 42.7718 48.82 42.6882L48.9872 42.3186L48.6088 42.1756C46.4638 41.3792 47.0556 39.2364 47.0842 39.144L47.1722 38.8316L46.8774 38.6952C45.1086 37.8724 45.3484 35.6592 45.3726 35.5668C44.827 36.009 44.6312 36.9088 45.0052 37.7954C44.8028 38.0286 44.53 38.308 44.233 38.616C43.7163 38.5032 43.251 38.2234 42.9091 37.8198C42.5671 37.4162 42.3675 36.9113 42.341 36.383L42.3388 36.1234L42.0968 36.031C41.3818 35.767 40.8912 35.3666 40.647 34.832C40.3764 34.2402 40.471 33.622 40.5458 33.3206C40.957 33.4059 41.3756 33.4501 41.7954 33.4526H41.824C42.0374 33.4526 42.2464 33.4394 42.4532 33.4196C43.5972 33.3052 44.8732 32.8146 46.2064 31.4902H54.9052ZM49.5416 61.8832L50.0212 59.3818L50.0982 58.9198C50.3943 59.0358 50.7087 59.0976 51.0266 59.1024C51.757 59.1024 52.1838 58.7152 52.4676 58.3874L52.8328 57.9584L52.5336 57.4876C52.5072 57.4414 51.8406 56.3876 51.3302 55.666C51.2288 55.5235 51.1313 55.3782 51.0376 55.2304C50.4546 54.3592 49.7264 53.2658 48.2656 53.2658L48.1358 53.2702C47.9255 53.2816 47.7179 53.3238 47.5198 53.3956C47.0753 53.1831 46.5892 53.0719 46.0964 53.07C45.6008 53.082 45.1107 53.1772 44.6466 53.3516C44.5498 53.3802 44.4618 53.411 44.3936 53.4242L41.6656 53.1558C41.6304 53.147 41.5204 53.081 41.384 52.9226V52.9072L41.9736 52.6718C41.8086 50.7006 39.9188 49.4884 38.8672 49.077C38.8206 48.8662 38.7136 48.6736 38.5592 48.5226L37.974 47.966L37.4592 48.5842L37.2062 48.901L33.3826 47.328L35.8686 50.4542L34.8896 51.9436C34.5288 52.3242 34.927 52.7092 34.927 52.7092L35.939 53.4088L36.9906 53.015C37.0258 53.015 37.0566 53.0238 37.094 53.0282C37.0434 53.1888 36.9774 53.8158 36.9334 53.9896L35.1096 53.631L33.1956 54.7156C32.2078 55.4416 32.0736 56.6384 32.441 57.459L32.6522 57.9254L32.9536 58.5832L33.6246 58.306C33.6356 58.3016 33.6444 58.2994 33.651 58.2928C33.409 59.065 33.508 59.7976 33.937 60.2794L34.344 60.792L34.8852 61.4784L35.4792 60.8382C35.6552 60.6622 36.2228 60.0264 36.3966 59.4808L36.5242 59.065L36.236 58.746L36.1876 58.6866L36.5132 58.1476L38.8936 58.7108L39.4304 58.834L39.7164 58.361L39.8704 58.1058C39.899 58.0508 39.9056 58.042 40.0156 58.042C40.1014 58.042 40.185 58.0508 40.2752 58.0728C41.087 58.2331 41.9119 58.3178 42.7392 58.3258C43.4498 58.3258 43.8788 58.2994 44.3848 58.13C44.3848 58.13 45.663 59.582 45.707 59.6392L44.9238 62.0592L44.8886 62.2044C43.408 62.3254 42.6864 62.651 41.813 63.5244C40.5458 62.266 39.6504 62.1318 36.247 62.1318C32.1704 62.1318 29.4072 59.7404 29.4072 55.9146V46.569H54.2144L54.2188 55.9146C54.2188 59.0144 52.4016 61.177 49.5416 61.8832ZM34.2626 56.5988L34.3924 56.9222C34.3044 57.2038 33.3364 57.6042 33.3364 57.6042L33.1296 57.1444C32.9976 56.8293 32.975 56.479 33.0655 56.1496C33.1561 55.8201 33.3545 55.5306 33.629 55.3272L35.1976 54.3702L36.863 54.7222C36.83 55.2524 37.1468 55.6484 37.1468 55.6484L35.4044 55.314L34.3594 56.0356C34.1834 56.1588 34.1702 56.3876 34.2626 56.5988ZM49.2776 59.2388L48.743 62.035C48.3998 62.0834 48.039 62.1098 47.6694 62.123L48.2326 59.439C48.3998 58.6382 46.2614 58.3896 45.2032 56.821C44.6862 57.4018 43.716 57.5756 42.7392 57.5756C41.846 57.5756 40.9572 57.4326 40.4138 57.3248C40.283 57.3021 40.1506 57.2896 40.0178 57.2874C39.7032 57.2874 39.4194 57.3842 39.2214 57.7164L39.0674 57.9804L36.1502 57.2918L35.4242 58.4952C35.323 58.691 35.3142 58.8538 35.4792 59.0364L35.6772 59.252C35.5408 59.6766 34.9336 60.3212 34.9336 60.3212L34.5002 59.7778C34.157 59.395 34.2142 58.691 34.5706 58.0398L35.7278 56.0818L38.1984 56.4404L37.8156 55.5626C37.2986 54.4032 38.0862 52.9292 38.1698 52.08C38.1412 52.3374 37.9058 52.3946 37.633 52.3946C37.3822 52.3946 37.105 52.3484 36.9202 52.3484C36.8476 52.3484 36.7838 52.355 36.7508 52.3792L36.082 52.7862L35.554 52.3198C35.4902 52.2318 35.4704 52.0184 35.6244 51.86L36.8476 50.4872L35.4044 48.7976L37.424 49.8162L38.0422 49.066C38.2116 49.2332 38.1368 49.6666 38.1368 49.6666C38.7682 49.6842 40.5392 50.6632 40.6316 52.9512C40.6382 53.0216 40.6382 53.0986 40.6382 53.1756L40.6844 53.2504C40.8098 53.4242 41.1552 53.8664 41.593 53.906L44.387 54.1832H44.398C44.706 54.1832 45.3154 53.8224 46.0964 53.8224C46.5254 53.8224 46.9984 53.9324 47.5044 54.2514C47.5044 54.2514 47.7596 54.049 48.171 54.027C48.2018 54.0226 48.237 54.0226 48.2656 54.0226C49.5196 54.0226 50.041 55.1578 50.7142 56.1016C51.2202 56.8188 51.8956 57.8836 51.8956 57.8836C51.647 58.1806 51.4138 58.3456 51.0244 58.3456C50.9033 58.3461 50.7824 58.3343 50.6636 58.3104C49.3216 58.0618 49.1258 55.2964 48.3602 55.0764C48.32 55.0658 48.2786 55.0607 48.237 55.061C47.9906 55.061 47.8828 55.281 47.8828 55.281C48.2348 56.2248 48.028 56.6054 48.4064 57.3336C48.688 57.8726 49.1874 58.3148 49.3942 58.526C49.3942 58.526 49.3392 58.9352 49.2776 59.241V59.2388ZM46.7058 62.1428C46.3318 62.1428 45.9842 62.1472 45.6718 62.1604L46.4902 59.6062C46.6178 59.252 45.971 58.7966 45.7048 58.3962C46.1074 58.6514 47.1524 59.2102 47.6562 59.4302C47.3297 60.331 47.0129 61.2353 46.7058 62.1428ZM34.5354 39.1264L34.652 34.6868L35.6464 33.633L36.2712 34.9442L35.0392 39.2056L34.5332 39.1286L34.5354 39.1264ZM35.2504 40.5036C35.4015 40.7929 35.63 41.0343 35.9104 41.201C35.9028 41.623 35.8623 42.0437 35.7894 42.4594C35.7674 42.5562 35.7454 42.6464 35.7168 42.7366C35.7036 42.7938 35.686 42.84 35.675 42.8774C35.3692 42.8774 34.773 42.84 34.2868 42.6618C33.7456 42.4638 32.9382 41.4694 33.1252 40.3738C33.3584 40.2308 33.8996 39.925 34.4078 39.925C34.7972 39.925 35.0634 40.1098 35.2504 40.5036ZM46.7696 41.696C46.0062 42.2614 44.035 43.7024 43.32 44.204L36.4384 42.9632L36.4868 42.7806C36.5748 42.422 36.6694 41.9336 36.6738 41.3594L42.4576 41.4518L42.5676 41.3418C42.6556 41.2538 44.4882 39.4784 45.421 38.4598C45.6432 38.7392 45.9204 39.0032 46.2856 39.2364C46.1624 39.9184 46.213 40.882 46.7696 41.696ZM37.413 31.4902C38.2424 32.313 39.0498 32.8256 39.8198 33.1072C39.7208 33.5032 39.5888 34.326 39.9584 35.1422C40.262 35.8022 40.812 36.3082 41.6062 36.647C41.6942 37.461 42.2068 38.6864 43.6302 39.2276C43.0054 39.8568 42.3982 40.4508 42.1562 40.6884L36.3834 40.5982C36.1927 40.5071 36.0346 40.3596 35.9302 40.1758C35.9192 40.1472 35.8994 40.1318 35.8862 40.101L36.83 40.255L36.8894 40.2572C36.9782 40.2579 37.0642 40.2267 37.132 40.1694C37.1998 40.1121 37.2449 40.0325 37.259 39.9448C37.275 39.8463 37.2513 39.7454 37.1932 39.6643C37.1351 39.5831 37.0473 39.5282 36.9488 39.5114L35.7894 39.3266L37.0742 34.8804L35.8576 32.313L33.9062 34.381L33.7874 39.0032L32.4762 38.7942C32.2738 38.7546 32.0802 38.9042 32.0428 39.1088C32.0282 39.2079 32.0529 39.3087 32.1117 39.3897C32.1705 39.4707 32.2587 39.5255 32.3574 39.5422L32.9074 39.6258C32.7094 39.738 32.5796 39.8282 32.5642 39.8392L32.4542 39.9184L32.4234 40.0548C32.1044 41.3528 32.826 42.5848 33.6048 43.1348L33.5762 43.2998C33.5454 43.4978 33.5894 43.6958 33.7082 43.8564C33.7759 43.954 33.8664 44.0335 33.9718 44.088C34.0773 44.1424 34.1945 44.1702 34.3132 44.1688C34.48 44.1675 34.6413 44.1098 34.7711 44.0051C34.9009 43.9005 34.9915 43.7551 35.0282 43.5924C35.3186 43.6254 35.5848 43.6342 35.7652 43.6342H35.9214L43.4916 45.0048L43.6214 44.919C44.2242 44.4966 46.5254 42.818 47.2778 42.2614C47.4868 42.4396 47.7178 42.6024 47.9972 42.7366C47.753 43.5572 47.7376 44.8178 48.7012 45.8166H29.4072V34.6626C29.4072 33.5802 29.0926 32.4934 28.7186 31.4902H37.413ZM36.3702 14.6602L41.406 16.3696V24.294L37.699 22.336L36.3702 14.6602ZM48.655 13.7032C48.655 11.7694 45.4056 10.0292 41.8196 10.0292H41.7976C38.2116 10.0292 34.9644 11.7694 34.9644 13.7032L35.0348 14.1784L36.467 22.413L35.0282 23.249L31.308 25.427H31.3212C31.3212 25.427 30.4852 25.8582 30.0958 26.1222C28.679 27.1078 28.3776 28.5466 29.2004 29.1406C29.4028 27.968 30.329 26.7426 32.0604 26.7426C33.31 26.7426 34.2604 27.3894 35.0304 28.3552C35.2284 28.5994 35.4154 28.8612 35.5892 29.1406C35.8048 29.4948 36.0226 29.8072 36.236 30.1064H26.6484C27.3524 31.5254 28.0234 33.028 28.0234 34.6604V55.9168C28.0234 61.0604 31.9724 63.5156 36.2448 63.5156C39.547 63.5156 39.9914 63.366 41.813 65.1832C43.6258 63.366 44.0724 63.5156 47.3768 63.5156C51.6514 63.5156 55.5938 61.0604 55.5938 55.9168V34.6604C55.5938 33.028 56.2648 31.5254 56.9732 30.1064H47.3812C47.5968 29.8072 47.8124 29.4948 48.028 29.1406C48.204 28.8612 48.391 28.5994 48.5846 28.3552C49.359 27.385 50.3094 26.7426 51.559 26.7426C53.2904 26.7426 54.2144 27.968 54.419 29.1406C55.2418 28.5466 54.9448 27.1078 53.517 26.1222C53.1386 25.8582 52.2982 25.427 52.2982 25.427H52.3136L48.5846 23.249L47.1546 22.413L48.5846 14.1784L48.655 13.7032Z" fill="#1A1919"/>
<path d="M110.263 49.132H116.863V33.776H125.927V28.188H101.199V33.776H110.263V49.132ZM145.947 28.188L134.947 40.376V28.188H128.567V49.132H134.199L145.199 36.944V49.132H151.579V28.188H145.947ZM162.793 41.344H173.045V49.132H179.425V28.188H173.045V35.844H162.793V28.188H156.413V49.132H162.793V41.344ZM197.192 49.132C198.644 49.132 199.964 49 201.196 48.648C204.496 47.724 206.652 45.04 206.652 41.388C206.652 37.912 204.804 35.492 201.856 34.392C200.448 33.864 198.776 33.82 197.192 33.82H190.636V28.188H184.256V49.132H197.192ZM190.636 38.748H196.092C196.972 38.748 197.808 38.748 198.556 39.012C199.612 39.364 200.228 40.244 200.228 41.3C200.228 42.4 199.612 43.324 198.6 43.764C197.896 44.072 197.192 44.072 196.092 44.072H190.636V38.748ZM216.332 41.212H218.092L225.704 49.132H234.196L223.592 38.22L233.8 28.188H225.792L218.092 36.064H216.332V28.188H209.952V49.132H216.332V41.212Z" fill="black"/>
<path d="M247.324 27.616C238.744 27.616 233.596 32.456 233.596 38.704C233.596 44.952 238.744 49.792 247.324 49.792C255.86 49.792 261.008 44.952 261.008 38.704C261.008 32.456 255.86 27.616 247.324 27.616ZM247.324 44.688C243.056 44.688 240.328 42.136 240.328 38.704C240.328 35.272 243.056 32.764 247.324 32.764C251.548 32.764 254.32 35.272 254.32 38.704C254.32 42.136 251.548 44.688 247.324 44.688ZM282.255 29.112V27H275.875V29.112C267.867 29.288 263.071 32.676 263.071 38.66C263.071 44.644 267.867 47.768 275.875 47.944V50.056H282.255V47.944C290.307 47.768 295.103 44.644 295.103 38.66C295.103 32.676 290.307 29.288 282.255 29.112ZM275.875 43.456C271.475 43.28 269.539 41.476 269.539 38.66C269.539 35.844 271.475 33.82 275.875 33.644V43.456ZM282.255 43.456V33.644C286.699 33.82 288.591 35.844 288.591 38.66C288.591 41.476 286.699 43.28 282.255 43.456ZM316.329 29.112V27H309.949V29.112C301.941 29.288 297.145 32.676 297.145 38.66C297.145 44.644 301.941 47.768 309.949 47.944V50.056H316.329V47.944C324.381 47.768 329.177 44.644 329.177 38.66C329.177 32.676 324.381 29.288 316.329 29.112ZM309.949 43.456C305.549 43.28 303.613 41.476 303.613 38.66C303.613 35.844 305.549 33.82 309.949 33.644V43.456ZM316.329 43.456V33.644C320.773 33.82 322.665 35.844 322.665 38.66C322.665 41.476 320.773 43.28 316.329 43.456Z" fill="black"/>
</g>
<defs>
<clipPath id="clip0_100_23352">
<rect width="330" height="74.8" fill="white" transform="translate(0 0.600006)"/>
</clipPath>
</defs>
</svg>
